<?xml version="1.0" encoding="UTF-8"?>
<svg id="svg5" width="1200mm" height="1200mm" version="1.1" viewBox="0 0 1200 1200" xmlns="http://www.w3.org/2000/svg" xmlns:xlink="http://www.w3.org/1999/xlink">
 <defs id="defs77">
  <linearGradient id="linearGradient61841-2" x1="61.108" x2="147.72" y1="121.02" y2="121.02" gradientTransform="matrix(4.1461 0 0 4.1461 114.51 49.14)" gradientUnits="userSpaceOnUse">
   <stop id="stop5-2" offset="0"/>
   <stop id="stop7" stop-opacity="0" offset=".53219"/>
   <stop id="stop9" stop-opacity=".40486" offset="1"/>
  </linearGradient>
 </defs>
 <g id="layer60" transform="translate(19.4 11.241)">
  <g id="layer62">
   <g id="layer93">
    <path id="path3174" d="m372.49 475.66c-2.1525 0.6703-1.9032 18.133-4.5189 17.895-4.2345 20.706 28.969 122.04 207.79 115.71 59.107-2.0919 108.97-20.032 151.18-86.36-1.5349 1.1273-4.4344-23.245-4.2167-20.917l-1.516 0.59094c-6.1943 42.082-50.521 97.42-108.02 73.873-7.6582-3.1361-9.4546-29.386-17.771-34.65-5.6498-3.5761-7.7348-5.5154-13.47-2.8003-4.8653 3.15-7.1851 1.4528-9.3394 0.25499-4.3116-2.3975-9.3506-2.0574-13.479-0.0473-9.1946 5.3916-14.561 30.333-23.078 33.816-97.719 39.969-154.28-59.254-160.36-98.053-0.0361-0.23052-2.1148-0.4173-3.2036 0.68602z" fill="#ff8d8d" stroke="#000" stroke-width="2.1767"/>
    <path id="path3176" d="m372.49 475.66c-2.1525 0.67025-1.9032 18.133-4.5189 17.895-3.8657 20.717 28.675 124.86 210.5 115.86 74.227-12.355 108.9-19.37 148.47-86.507-1.5349 1.1273-4.4344-23.245-4.2167-20.917l-1.516 0.59094c-4.7914 24.802-20.591 54.757-51.645 68.486-19.57 8.652-42.881 12.624-58.574 5.2207-8.3592-3.9435-8.4356-24.671-15.573-34.484-3.9331-5.4074-7.7348-5.5154-13.47-2.8003-4.8653 3.15-7.1851 1.4528-9.3394 0.25499-4.3116-2.3975-9.3506-2.0574-13.479-0.0473-8.7839 4.654-15.674 30.243-23.778 33.4-101.11 39.39-151.37-53.882-159.66-97.636-0.0434-0.22927-2.1148-0.4173-3.2036 0.68602z" fill="url(#linearGradient61841-2)" opacity=".15309"/>
   </g>
  </g>
 </g>
</svg>
