<?xml version="1.0" encoding="UTF-8" standalone="no"?>
<svg
   id="svg5"
   width="1200mm"
   height="1200mm"
   version="1.1"
   viewBox="0 0 1200 1200"
   sodipodi:docname="Hip.svg"
   inkscape:version="1.3.2 (091e20e, 2023-11-25, custom)"
   xmlns:inkscape="http://www.inkscape.org/namespaces/inkscape"
   xmlns:sodipodi="http://sodipodi.sourceforge.net/DTD/sodipodi-0.dtd"
   xmlns="http://www.w3.org/2000/svg"
   xmlns:svg="http://www.w3.org/2000/svg">
  <defs
     id="defs1" />
  <sodipodi:namedview
     id="namedview1"
     pagecolor="#ffffff"
     bordercolor="#000000"
     borderopacity="0.25"
     inkscape:showpageshadow="2"
     inkscape:pageopacity="0.0"
     inkscape:pagecheckerboard="0"
     inkscape:deskcolor="#d1d1d1"
     inkscape:document-units="mm"
     inkscape:zoom="1.0364712"
     inkscape:cx="2360.8953"
     inkscape:cy="3325.225"
     inkscape:window-width="1920"
     inkscape:window-height="1009"
     inkscape:window-x="-8"
     inkscape:window-y="-7"
     inkscape:window-maximized="1"
     inkscape:current-layer="svg5" />
  <ellipse
     style="fill:#f7e2ab;fill-opacity:1;stroke:none;stroke-width:1.17317;stroke-linecap:round;stroke-linejoin:round;stroke-dashoffset:102.992"
     id="path1-3"
     cx="635.41669"
     cy="783.87671"
     rx="8.9533072"
     ry="8.9533062" />
  <ellipse
     style="fill:#f7e2ab;fill-opacity:1;stroke:none;stroke-width:1.17317;stroke-linecap:round;stroke-linejoin:round;stroke-dashoffset:102.992"
     id="path1-3-8"
     cx="492.30203"
     cy="915.18842"
     rx="8.9533072"
     ry="8.9533062" />
  <g
     id="layer60"
     transform="translate(19.4 11.241)">
    <g
       id="layer134">
      <g
         id="layer136">
        <path
           id="path2-81"
           d="m577.29 607.41s87.457 59.355 87.673 103.58c0.12604 25.782-41.647 56.134-41.647 56.134"
           fill="none"
           stroke="#000"
           stroke-width="2.3425" />
        <path
           id="path6-493"
           d="m577.71 609.4s4.5454 99.241 14.105 213.21 18.306 209.24 18.489 214.37c0.18325 5.1362-0.19736 35.002-0.84514 66.366-0.99908 48.368-1.0666 57.141-0.44483 57.763 0.85902 0.8591 12.687 2.6005 23.838 3.5096 5.3717 0.438 7.8995 0.8607 8.4522 1.4133 0.6955 0.6955 0.68738 0.845-0.0688 1.2683-1.6286 0.9114-8.3577 1.1045-14.859 0.4263-6.3986-0.6674-16.536-3.3462-18.675-4.9351-0.93486-0.6943-2.152-10.221-11.847-92.727-3.191-27.157-3.3511-28.815-3.7592-38.955-0.15963-3.9621-0.51528-10.686-0.79058-14.941-0.2753-4.2556-2.0746-32.951-3.9984-63.767-1.9238-30.817-3.6234-56.598-3.7768-57.291-0.2384-1.076-0.48779-1.2012-1.7218-0.86504-2.469 0.67258-22.767 0.91885-24.996 0.30308-1.5394-0.42502-2.1881-0.40176-2.6412 0.0945-0.40714 0.44603-1.3283 19.49-2.8583 59.09-3.3352 86.326-3.2361 84.667-6.9472 116.06-10.507 88.892-11.213 94.435-12.108 95.099-0.48003 0.3566-3.1308 1.4009-5.8904 2.3203-7.6222 2.5393-20.961 3.8837-26.206 2.6414l-2.9e-4 1e-4c-2.249-0.5327-2.4644-0.7747-1.5253-1.7138 0.52544-0.5255 3.1756-0.9628 8.4298-1.3912 11.088-0.9041 22.98-2.6513 23.83-3.5013 0.61072-0.6108 0.53526-10.23-0.47929-61.092-1.0147-50.872-1.1019-61.988-0.55408-70.645 0.35739-5.6516 6.6441-101.46 13.97-212.91 7.3261-111.45 13.32-203.48 13.32-204.51 0-3.0122-1.5367-2.4225-4.9596 1.9034-2.0457 2.5855-5.6926 9.0434-11.526 20.411-4.6934 9.1458-9.2922 18.31-10.22 20.364-0.92744 2.0544-3.2232 6.977-5.1018 10.939-1.8785 3.9622-3.4147 7.3875-3.4138 7.6118 1e-3 0.22431-1.7171 4.1863-3.8178 8.8046-5.6868 12.502-12.005 27.348-14.586 34.278-1.2576 3.3752-3.7329 9.7387-5.5006 14.141-1.7678 4.4023-4.3484 11.366-5.7344 15.475-1.386 4.1088-3.1925 9.3055-4.0141 11.547-4.5682 12.466-13.052 44.251-15.14 56.718-0.488 2.9143-0.97902 5.4471-1.0911 5.6287-1.5309 2.4771-4.2369 35.059-3.8567 46.436 0.26701 7.9891 2.0311 21.577 3.048 23.478 0.31261 0.58427 1.3629 1.0236 2.8469 1.1908 1.424 0.16045 3.3076 0.92287 4.7755 1.9329 5.6573 3.8924 5.7689 13.283 0.20274 17.085-4.7174 3.2223-7.5691 3.2595-12.262 0.16004-2.4894-1.6442-3.569-3.6238-3.9373-7.22-0.43106-4.2083 0.59235-7.1068 3.4286-9.711 2.1487-1.9729 2.3835-2.4069 2.038-3.7668-1.2207-4.8037-2.5139-15.44-2.782-22.882-0.22886-6.3497-0.0124-12.162 0.84551-22.679 0.99784-12.237 2.3274-22.962 2.9769-24.013 0.10821-0.17497 0.58107-2.5878 1.051-5.3617 3.6501-21.549 14.769-59.293 24.997-84.858 1.9457-4.8634 4.4052-11.334 5.465-14.38 1.0601-3.0456 2.488-6.6437 3.1731-7.9957 0.6851-1.352 2.7988-6.1673 4.6971-10.701 1.8983-4.5333 4.8223-11.244 6.4977-14.913 1.6754-3.6687 3.7412-8.4108 4.5906-10.538 0.84957-2.1269 2.6355-6.0392 3.9688-8.6939s2.9152-6.0773 3.5154-7.6056c1.0688-2.7218 16.023-32.123 21.29-41.859 1.4663-2.7102 2.6659-5.2916 2.6659-5.7365 0.89626-4.1128 12.138-2.6488 17.643-3.4208 2.9811-0.20771 5.943-0.45992 8.8838-0.75558l0.67676 2.0937m-101.77 302.6c1.612-0.88963 2.1625-1.6191 2.7728-3.6741 2.092-7.0446-4.183-12.39-10.426-8.8817-2.238 1.2579-3.1633 3.1058-3.1633 6.3178 0 3.6067 0.90974 5.1623 3.8865 6.6458 2.9258 1.458 3.6239 1.4169 6.9298-0.40756z"
           fill-opacity=".99763"
           stroke-width="4.1461" />
        <path
           id="path4-4"
           d="m624.35 779.14c-2.6041 2.8362-5.5027 3.8596-9.711 3.4286-3.5961-0.36818-5.5757-1.4479-7.22-3.9373-3.0993-4.6925-3.0621-7.5442 0.16004-12.262 3.8021-5.5661 13.192-5.4546 17.085 0.20274 1.01 1.468 1.7724 3.3515 1.9329 4.7755 0.16709 1.4841 2e-3 2.324-0.051 2.9846-0.0676 0.84286-0.22306 2.659-2.1958 4.8074zm-14.56-2.7007c1.1939 2.164 3.0698 3.0906 6.2564 3.0906 3.2119 0 5.0599-0.92528 6.3178-3.1633 1.4676-2.6112 1.462-4.9463-0.0166-7.5803-0.94568-1.6826-1.665-2.2306-3.7354-2.8454-2.2305-0.66234-2.9055-0.66006-5.1884 0.0166-2.36 0.70086-2.763 1.058-4.0038 3.5479-1.4736 2.9571-1.4361 3.6561 0.37149 6.9322z"
           fill-opacity=".99763"
           stroke-width="4.1461" />
      </g>
    </g>
  </g>
</svg>
