<?xml version="1.0" encoding="UTF-8"?>
<svg width="1200mm" height="1200mm" version="1.1" viewBox="0 0 1200 1200" xmlns="http://www.w3.org/2000/svg" xmlns:xlink="http://www.w3.org/1999/xlink">
 <g>
  <path d="m679.35 825.34 114.78-296.07" fill="none" stroke="#000" stroke-width="12"/>
  <path d="m641.67 11.774-163.66 370.87 563.96 260.2 158.95-393.24z" fill="#f7eecc" stroke="#000" stroke-width="4"/>
  <g transform="rotate(25.74)" stroke-width=".26458" aria-label="PEACE EQUAL RIGHTS JUSTICE">
   <path d="m793.35-210.63q1.905 0.52917 3.5983 0.74083 1.7992 0.10584 3.0692 0.10584 2.0108 0 3.81-0.42333 1.905-0.52917 3.2808-1.6933 1.3758-1.1642 2.2225-3.0692 0.84666-2.0108 0.84666-5.08 0-3.175-0.9525-5.1858-0.84666-2.1167-2.3283-3.2808-1.4817-1.1642-3.4925-1.5875-1.905-0.42333-4.0217-0.42333-3.0692 0-6.0325 0.635zm-18.097 48.683q0.3175-10.054 0.42333-20.002 0.10583-10.054 0.10583-19.05 0-12.806-0.21166-24.342-0.10583-11.536-0.3175-23.177 5.1858-0.52917 10.372-0.84666 5.2916-0.42334 10.372-0.42334 7.3025 0 13.652 1.1642 6.35 1.1642 11.007 4.3392 4.7625 3.0692 7.5141 8.6783 2.7517 5.5033 2.7517 14.182 0 8.0433-2.3283 13.758-2.3283 5.6092-6.5616 9.2075-4.1275 3.4925-9.9483 5.08-5.8208 1.5875-12.912 1.5875-1.7992 0-3.175-0.10584-1.27-0.10583-2.8575-0.31749 0 7.62 0.10583 15.134 0.10583 7.5142 0.635 15.134z"/>
   <path d="m873.57-161.63q-2.9633-0.10583-7.8316-0.21166-4.8683 0-10.477-0.10584-5.5033 0-11.112 0-5.5033 0-9.7366 0 0.10584-2.2225 0.10584-5.9266 0.10583-3.7042 0.10583-8.4666 0-4.7625 0-10.266 0-5.6091 0-11.536 0-8.0433-0.10583-16.087 0-8.0433 0-14.922 0-6.985-0.10584-12.065 0-5.08 0-7.1966 4.1275 0 9.1016 0t10.16 0q5.1858-0.10583 10.16-0.21166 4.9742-0.10584 9.3133-0.21167 0 1.3758 0 2.4342 0.10584 0.9525 0.10584 2.7517 0 1.27-0.10584 3.0692 0 1.6933-0.10583 3.5983 0 1.7992-0.10583 3.7042 0 1.7992-0.10584 3.3867h-21.272v12.277h18.521v15.769h-18.521v11.853h21.59q0.10584 2.4342 0.21167 4.9742t0.10583 5.715q0.10583 3.175 0.10583 7.5141 0 4.2333 0 10.16z"/>
   <path d="m874.94-161.95 15.663-86.571h26.141l15.557 86.571h-17.886l-2.6458-17.357h-16.298l-2.54 17.357zm23.389-36.301h10.583l-5.2917-34.925z"/>
   <path d="m970.72-249.79q3.81 0 6.5616 0.52917 2.8575 0.42333 5.2916 1.27 0 1.7992 0 3.81 0.10583 2.0108 0.10583 4.3392 0 2.3283-0.10583 4.9742 0 2.54 0 4.7625-4.0216-2.54-9.6308-2.54-5.2916 0-8.89 2.0108-3.4925 1.905-5.715 4.9742-2.1167 3.0692-3.0692 6.7733-0.84667 3.5983-0.84667 6.8791 0 4.445 1.3758 8.3608t3.81 6.8792q2.54 2.8575 5.8208 4.5508 3.3867 1.6933 7.3025 1.6933 1.7992 0 4.5508-0.52916 2.8575-0.52917 5.2916-2.0108 0 3.7042 0 7.7258 0.10583 4.0216 0.10583 7.8316 0 4.0217-0.10583 7.8316 0 3.81 0 7.62-5.9266 1.27-12.065 1.27-9.3133 0-16.722-3.0692-7.3025-3.0692-12.488-8.7841-5.08-5.8208-7.8316-13.97-2.6458-8.255-2.6458-18.415 0-9.7366 2.54-17.886 2.54-8.255 7.5141-14.182 5.08-6.0325 12.488-9.3133 7.5142-3.3867 17.357-3.3867z"/>
   <path d="m1026.5-161.63q-2.9633-0.10583-7.8316-0.21166-4.8683 0-10.478-0.10584-5.5033 0-11.112 0-5.5033 0-9.7366 0 0.10583-2.2225 0.10583-5.9266 0.10583-3.7042 0.10583-8.4666 0-4.7625 0-10.266 0-5.6091 0-11.536 0-8.0433-0.10583-16.087 0-8.0433 0-14.922 0-6.985-0.10583-12.065 0-5.08 0-7.1966 4.1275 0 9.1016 0 4.9741 0 10.16 0 5.1858-0.10583 10.16-0.21166 4.9741-0.10584 9.3133-0.21167 0 1.3758 0 2.4342 0.1058 0.9525 0.1058 2.7517 0 1.27-0.1058 3.0692 0 1.6933-0.1058 3.5983 0 1.7992-0.1059 3.7042 0 1.7992-0.1058 3.3867h-21.272v12.277h18.521v15.769h-18.521v11.853h21.59q0.1058 2.4342 0.2117 4.9742 0.1058 2.54 0.1058 5.715 0.1058 3.175 0.1058 7.5141 0 4.2333 0 10.16z"/>
   <path d="m649.89-55.797q-2.9633-0.10583-7.8316-0.21167-4.8683 0-10.477-0.10583-5.5033 0-11.112 0-5.5033 0-9.7366 0 0.10584-2.2225 0.10584-5.9266 0.10583-3.7042 0.10583-8.4666t0-10.266q0-5.6091 0-11.536 0-8.0433-0.10583-16.087 0-8.0433 0-14.922 0-6.985-0.10584-12.065 0-5.08 0-7.1966 4.1275 0 9.1016 0t10.16 0q5.1858-0.10583 10.16-0.21166 4.9742-0.10584 9.3133-0.21167 0 1.3758 0 2.4342 0.10583 0.9525 0.10583 2.7517 0 1.27-0.10583 3.0692 0 1.6933-0.10583 3.5983 0 1.7992-0.10584 3.7042 0 1.7992-0.10583 3.3867h-21.272v12.277h18.521v15.769h-18.521v11.853h21.59q0.10583 2.4342 0.21167 4.9742 0.10583 2.54 0.10583 5.715 0.10583 3.175 0.10583 7.5141 0 4.2333 0 10.16z"/>
   <path d="m683.12-143.96q15.769 0 23.283 11.218t7.5141 32.597q0 18.415-4.445 27.94-4.3392 9.525-12.594 11.536 3.175 1.1642 6.6675 1.7992 3.5983 0.635 8.4666 0.635l-6.0325 19.05q-4.0216-0.10583-7.5141-1.4817-3.3867-1.27-6.1383-3.4925-2.7517-2.1167-4.9742-4.9742-2.1167-2.7517-3.7042-5.8208h-0.52917q-7.9375 0-13.758-2.9633-5.8208-3.0692-9.6308-8.7841-3.81-5.8208-5.6092-14.182-1.7992-8.4666-1.7992-19.262 0-21.696 7.5141-32.702 7.5141-11.112 23.283-11.112zm0 61.701q3.3867 0 5.9266-1.4817 2.6458-1.5875 4.3392-4.2333 1.6933-2.7517 2.54-6.4558 0.84667-3.81 0.84667-8.3608t-0.84667-8.3608q-0.84666-3.9158-2.54-6.7733t-4.3392-4.445q-2.54-1.5875-5.9266-1.5875-3.3866 0-5.9266 1.6933-2.4342 1.5875-4.2333 4.445-1.6933 2.8575-2.54 6.7733-0.84666 3.81-0.84666 8.255 0 4.5508 0.84666 8.3608 0.84667 3.7042 2.54 6.4558 1.7992 2.6458 4.2333 4.2333 2.54 1.4817 5.9266 1.4817z"/>
   <path d="m775.2-142.79q0.21166 15.452 0.635 26.776 0.42333 11.218 0.42333 19.156 0 5.1858-0.3175 10.372-0.3175 5.08-1.3758 9.7366t-3.0692 8.6783q-1.905 3.9158-5.1858 6.8791-3.175 2.9633-7.9375 4.6567-4.7625 1.5875-11.324 1.5875-6.7733 0-11.642-1.6933-4.7625-1.7992-8.0433-4.7625t-5.2916-6.985q-1.905-4.1275-2.9633-8.7841t-1.3758-9.6308-0.3175-9.9483q0-3.9158 0.10583-8.3608 0.10584-4.445 0.3175-9.9483 0.21167-5.5033 0.42333-12.277 0.3175-6.7733 0.635-15.346h18.627q-0.3175 9.525-0.52917 16.192-0.21166 6.5616-0.42333 11.007-0.10583 4.445-0.21166 7.0908 0 2.54-0.10584 3.9158 0 1.3758 0 2.0108 0 0.52916 0 0.84666 0 10.266 2.3283 15.452t8.3608 5.1858q6.1383 0 8.255-5.6091 2.2225-5.6091 2.2225-17.039 0-0.52917 0-1.1642 0-0.74083-0.10583-2.2225 0-1.4817-0.10583-3.9158 0-2.54-0.21167-6.6675-0.10583-4.2333-0.3175-10.266-0.21166-6.1383-0.52916-14.817z"/>
   <path d="m776.36-56.114 15.663-86.571h26.141l15.557 86.571h-17.886l-2.6458-17.357h-16.298l-2.54 17.357zm23.389-36.301h10.583l-5.2916-34.925z"/>
   <path d="m854.46-142.69q-0.3175 14.499-0.52916 23.918-0.10584 9.4191-0.21167 15.875-0.10583 6.35-0.10583 10.689t0 8.7841l16.616-0.635q0.21166 3.4925 0.3175 6.8791 0.10583 3.3867 0.10583 6.7733 0 3.4925-0.10583 7.0908-0.10584 3.4925-0.3175 7.1966h-34.184q0.3175-14.817 0.42333-30.374 0.21167-15.557 0.21167-30.374 0-6.8791 0-13.335 0-6.4558-0.10584-12.488z"/>
   <path d="m886.42-56.114q0.3175-10.054 0.42333-20.002 0.10584-10.054 0.10584-19.05 0-12.806-0.21167-24.342-0.10583-11.536-0.3175-23.177 5.1858-0.52917 10.372-0.84666 5.2916-0.42334 10.689-0.42334 7.7258 0 14.499 1.1642 6.7733 1.0583 11.747 4.1275 4.9742 2.9633 7.8316 8.255 2.9633 5.2916 2.9633 13.652 0 10.372-4.3392 16.298-4.2333 5.9266-11.536 8.89l17.251 35.454h-18.838l-14.076-32.279q-4.3392 0.3175-8.9958 0.3175 0 8.1491 0.10583 15.981 0.10584 7.8316 0.635 15.981zm17.568-48.048q3.2808 0.3175 6.0325 0.3175 7.1966 0 10.16-2.6458 3.0692-2.7517 3.0692-8.1492 0-3.2808-0.9525-5.2916-0.84667-2.0108-2.4342-3.175-1.4817-1.1642-3.5983-1.5875-2.0108-0.42333-4.3392-0.42333-1.6933 0-3.81 0.21166-2.0108 0.10584-4.1275 0.42334z"/>
   <path d="m956.38-86.065v-17.145q0-6.7733-0.10584-11.536 0-4.7625 0-8.7841h-7.8316q-0.10583-2.4342-0.21166-4.7625-0.10584-2.3283-0.10584-4.7625t0.10584-4.8683q0.10583-2.4342 0.21166-4.7625h32.597q0.10583 2.4342 0.10583 4.8683 0 2.3283 0 4.7625t0 4.7625q0 2.3283-0.10583 4.7625h-7.7258q-0.21167 7.0908-0.3175 13.97 0 6.8791 0 15.346v8.1491h8.0433q0.10583 3.81 0.10583 7.5141t0 7.5141q0 3.7042 0 7.5141 0 3.7042-0.10583 7.4083h-32.597q-0.10583-3.7042-0.21166-7.4083-0.10584-3.81-0.10584-7.5141 0-3.81 0.10584-7.5141 0.10583-3.7042 0.21166-7.5141z"/>
   <path d="m1041.9-104.27v48.048q-5.715 0.74083-10.16 0.9525-4.3392 0.3175-7.1966 0.3175-9.7367 0-17.462-3.0692t-13.017-8.7841q-5.2916-5.8208-8.1491-13.97-2.7517-8.255-2.7517-18.415 0-9.7366 2.6458-17.886 2.6458-8.255 7.8316-14.182 5.2916-6.0325 13.123-9.3133 7.9375-3.3867 18.309-3.3867 4.445 0 7.62 0.635 3.2808 0.52917 6.35 1.4817 0 1.6933 0 3.7042 0.1058 2.0108 0.1058 4.3392 0 2.3283-0.1058 4.9742 0 2.6458 0 4.7625-5.1858-2.7517-11.853-2.7517-5.8208 0-9.7367 2.0108-3.9158 1.905-6.3499 4.9742-2.3284 3.0692-3.3867 6.8791-0.9525 3.7042-0.9525 7.1966 0 4.0216 1.1642 7.8316 1.27 3.81 3.7041 6.7733 2.4342 2.9633 6.0325 4.7625 3.7042 1.7992 8.6783 1.7992 0.5292 0 0.9525 0 0.5292 0 1.0583-0.10583v-19.579z"/>
   <path d="m1097.5-142.69q-0.3174 6.6675-0.5291 12.594-0.1058 5.9266-0.2117 11.747-0.1058 5.715-0.2116 11.642 0 5.8208 0 12.488 0 7.8316 0 17.039 0.1058 9.2075 0.2116 21.061h-17.568q0.2117-6.35 0.3175-13.229 0.1059-6.985 0.2117-15.875h-15.663q0 6.2441 0 13.441 0.1059 7.0908 0.2117 15.663h-17.568q0.1058-4.6567 0.2117-9.525 0.1058-4.8683 0.2116-10.477 0.1059-5.6091 0.1059-12.277t0-14.817q0-7.1966 0-12.382 0-5.2916-0.1059-9.6308 0-4.3392 0-8.3608 0-4.1275 0-9.1016h17.886q-0.4233 8.7841-0.635 16.298-0.2116 7.4083-0.3175 15.028h15.663q0-4.8683 0-8.7841 0-4.0217-0.1058-7.62 0-3.7042 0-7.1966 0-3.5983 0-7.7258z"/>
   <path d="m1143.1-123.11h-12.171q-0.2116 9.4191-0.3175 19.156-0.1058 9.6308-0.1058 20.849 0 7.1966 0 11.642 0 4.3392 0 7.1966 0 2.7517 0 4.5508 0.1058 1.6933 0.1058 3.5983h-17.78q0.1058-4.6567 0.2116-9.6308 0.1059-5.08 0.1059-10.901 0.1058-5.9266 0.1058-12.7 0.1058-6.8791 0.1058-15.134 0-6.0325 0-10.477 0-4.445-0.1058-8.1492h-12.171v-19.579h42.016z"/>
   <path d="m1146-121.2q0-6.7733 2.54-11.112 2.6458-4.445 6.5616-6.985 4.0217-2.6458 8.7842-3.5983 4.8683-1.0583 9.3133-1.0583 1.27 0 3.175 0.10584 2.0108 0.10583 4.1274 0.3175 2.2225 0.21166 4.445 0.63499 2.3284 0.3175 4.3392 0.9525 0.2116 2.7517 0.3175 5.1858 0.1058 2.3283 0.1058 5.3975t-0.1058 5.9266q-0.1059 2.7517-0.3175 5.2916-0.8467-0.10583-2.2225-0.3175-1.27-0.21167-2.7517-0.3175-1.3758-0.10583-2.8575-0.21167-1.3758-0.10583-2.6458-0.10583-5.08 0-7.4083 1.5875-2.3283 1.5875-2.3283 4.3392 0 1.5875 0.7408 3.0692 0.7408 1.3758 1.905 2.6458 1.27 1.27 2.7517 2.4342 1.5875 1.1642 3.1749 2.2225 2.54 1.7992 5.08 4.0217 2.6459 2.1167 4.7625 5.1858 2.1167 2.9633 3.4925 6.985 1.3758 3.9158 1.3758 9.1016 0 6.7733-2.3283 11.43t-6.0325 7.62q-3.5983 2.8575-8.1491 4.2333-4.445 1.27-8.89 1.27-2.0108 0-4.9741-0.3175-2.8575-0.21167-5.8209-0.74083-2.9633-0.42333-5.6091-1.0583-2.6458-0.74083-4.2333-1.6933-0.4234-1.905-0.7409-3.9158-0.2116-2.0108-0.2116-4.445 0-1.6933 0.1058-4.1275 0.2117-2.4342 0.4233-4.9742 0.2117-2.54 0.4234-4.8683 0.3175-2.3283 0.5291-3.9158 1.1642 0.635 3.3867 1.4817 2.2225 0.74083 4.7625 1.4817 2.6458 0.74083 5.2916 1.27 2.6459 0.52916 4.6567 0.52916 3.3866 0 5.08-1.3758 1.6933-1.4817 1.6933-3.9158 0-2.6458-1.905-4.6567-1.905-2.1167-4.7625-4.1275t-6.2441-4.2333q-3.2808-2.3283-6.1383-5.3975-2.8575-3.0692-4.7625-7.1966-1.905-4.2333-1.905-10.054z"/>
   <path d="m772.07 4.4222q0 7.5141-0.10583 12.488 0 4.9742-0.10584 8.1491-0.10583 3.175-0.3175 4.9742-0.21166 1.7992-0.42333 3.175-1.3758 7.9375-6.8791 12.806-5.3975 4.8683-15.346 4.8683-2.54 0-6.2442-0.42333-3.5983-0.3175-7.0908-1.27-0.21166-3.5983-0.3175-7.3025-0.10583-3.81-0.10583-7.5141 0-3.81 0.10583-7.62 0.10584-3.81 0.3175-7.62 2.6458 1.1642 4.7625 1.6933t4.445 0.52916q3.2808 0 5.2916-1.0583 2.1167-1.1642 3.2808-3.4925 1.27-2.3283 1.6933-6.0325 0.42333-3.7042 0.42333-8.7841v-20.743h-14.711v-18.097h31.327z"/>
   <path d="m834.73-36.959q0.21167 15.452 0.635 26.776 0.42333 11.218 0.42333 19.156 0 5.1858-0.3175 10.372-0.3175 5.08-1.3758 9.7366t-3.0692 8.6783q-1.905 3.9158-5.1858 6.8791-3.175 2.9633-7.9375 4.6567-4.7625 1.5875-11.324 1.5875-6.7733 0-11.642-1.6933-4.7625-1.7992-8.0433-4.7625-3.2808-2.9633-5.2916-6.985-1.905-4.1275-2.9633-8.7841t-1.3758-9.6308-0.3175-9.9483q0-3.9158 0.10584-8.3608 0.10583-4.445 0.31749-9.9483 0.21167-5.5033 0.42334-12.277 0.3175-6.7733 0.63499-15.346h18.627q-0.3175 9.525-0.52916 16.192-0.21167 6.5616-0.42333 11.007-0.10584 4.445-0.21167 7.0908 0 2.54-0.10583 3.9158 0 1.3758 0 2.0108 0 0.52916 0 0.84666 0 10.266 2.3283 15.452 2.3283 5.1858 8.3608 5.1858 6.1383 0 8.255-5.6091 2.2225-5.6091 2.2225-17.039 0-0.52916 0-1.1642 0-0.74083-0.10584-2.2225 0-1.4817-0.10583-3.9158 0-2.54-0.21167-6.6675-0.10583-4.2333-0.31749-10.266-0.21167-6.1383-0.52917-14.817z"/>
   <path d="m839.81-15.369q0-6.7733 2.54-11.112 2.6458-4.445 6.5616-6.985 4.0216-2.6458 8.7841-3.5983 4.8683-1.0583 9.3133-1.0583 1.27 0 3.175 0.10583 2.0108 0.10583 4.1275 0.3175 2.2225 0.21167 4.445 0.635 2.3283 0.3175 4.3392 0.9525 0.21167 2.7517 0.3175 5.1858 0.10584 2.3283 0.10584 5.3975t-0.10584 5.9266q-0.10583 2.7517-0.3175 5.2916-0.84666-0.10583-2.2225-0.3175-1.27-0.21167-2.7517-0.3175-1.3758-0.10583-2.8575-0.21167-1.3758-0.10583-2.6458-0.10583-5.08 0-7.4083 1.5875-2.3283 1.5875-2.3283 4.3392 0 1.5875 0.74083 3.0692 0.74083 1.3758 1.905 2.6458 1.27 1.27 2.7516 2.4342 1.5875 1.1642 3.175 2.2225 2.54 1.7992 5.08 4.0217 2.6458 2.1167 4.7625 5.1858 2.1167 2.9633 3.4925 6.985 1.3758 3.9158 1.3758 9.1016 0 6.7733-2.3283 11.43-2.3283 4.6567-6.0325 7.62-3.5983 2.8575-8.1491 4.2333-4.445 1.27-8.89 1.27-2.0108 0-4.9742-0.3175-2.8575-0.21167-5.8208-0.74083-2.9633-0.42333-5.6092-1.0583-2.6458-0.74083-4.2333-1.6933-0.42334-1.905-0.74083-3.9158-0.21167-2.0108-0.21167-4.445 0-1.6933 0.10583-4.1275 0.21167-2.4342 0.42333-4.9742 0.21167-2.54 0.42334-4.8683 0.3175-2.3283 0.52916-3.9158 1.1642 0.635 3.3867 1.4817 2.2225 0.74083 4.7625 1.4817 2.6458 0.74083 5.2916 1.27 2.6458 0.52916 4.6566 0.52916 3.3867 0 5.08-1.3758 1.6933-1.4817 1.6933-3.9158 0-2.6458-1.905-4.6567-1.905-2.1167-4.7625-4.1275-2.8575-2.0108-6.2442-4.2333-3.2808-2.3283-6.1383-5.3975t-4.7625-7.1966q-1.905-4.2333-1.905-10.054z"/>
   <path d="m929.87-17.274h-12.171q-0.21167 9.4191-0.3175 19.156-0.10584 9.6308-0.10584 20.849 0 7.1966 0 11.642 0 4.3392 0 7.1966 0 2.7517 0 4.5508 0.10584 1.6933 0.10584 3.5983h-17.78q0.10584-4.6567 0.21167-9.6308 0.10583-5.08 0.10583-10.901 0.10583-5.9266 0.10583-12.7 0.10584-6.8791 0.10584-15.134 0-6.0325 0-10.477 0-4.445-0.10584-8.1491h-12.171v-19.579h42.016z"/>
   <path d="m941.51 19.768v-17.145q0-6.7733-0.10583-11.536 0-4.7625 0-8.7841h-7.8316q-0.10584-2.4342-0.21167-4.7625t-0.10583-4.7625 0.10583-4.8683 0.21167-4.7625h32.597q0.10583 2.4342 0.10583 4.8683 0 2.3283 0 4.7625t0 4.7625-0.10583 4.7625h-7.7258q-0.21167 7.0908-0.3175 13.97 0 6.8791 0 15.346v8.1491h8.0433q0.10583 3.81 0.10583 7.5141t0 7.5141q0 3.7042 0 7.5141 0 3.7042-0.10583 7.4083h-32.597q-0.10584-3.7042-0.21167-7.4083-0.10583-3.81-0.10583-7.5141 0-3.81 0.10583-7.5141t0.21167-7.5141z"/>
   <path d="m1008.3-38.123q3.81 0 6.5617 0.52916 2.8575 0.42333 5.2916 1.27 0 1.7992 0 3.81 0.1058 2.0108 0.1058 4.3392t-0.1058 4.9742q0 2.54 0 4.7625-4.0216-2.54-9.6308-2.54-5.2916 0-8.89 2.0108-3.4924 1.905-5.7149 4.9742-2.1167 3.0692-3.0692 6.7733-0.84666 3.5983-0.84666 6.8791 0 4.445 1.3758 8.3608 1.3758 3.9158 3.81 6.8791 2.54 2.8575 5.8208 4.5508 3.3866 1.6933 7.3024 1.6933 1.7992 0 4.5509-0.52916 2.8575-0.52916 5.2916-2.0108 0 3.7042 0 7.7258 0.1058 4.0217 0.1058 7.8316 0 4.0217-0.1058 7.8316 0 3.81 0 7.62-5.9266 1.27-12.065 1.27-9.3134 0-16.722-3.0692-7.3025-3.0692-12.488-8.7841-5.08-5.8208-7.8316-13.97-2.6458-8.255-2.6458-18.415 0-9.7366 2.54-17.886 2.54-8.255 7.5141-14.182 5.08-6.0325 12.488-9.3133 7.5141-3.3867 17.357-3.3867z"/>
   <path d="m1064.1 50.036q-2.9633-0.10583-7.8317-0.21167-4.8683 0-10.477-0.10583-5.5033 0-11.112 0-5.5033 0-9.7366 0 0.1058-2.2225 0.1058-5.9266 0.1058-3.7042 0.1058-8.4666t0-10.266q0-5.6091 0-11.536 0-8.0433-0.1058-16.087 0-8.0433 0-14.922 0-6.985-0.1058-12.065 0-5.08 0-7.1966 4.1275 0 9.1016 0 4.9742 0 10.16 0 5.1858-0.10583 10.16-0.21167 4.9741-0.10583 9.3133-0.21167 0 1.3758 0 2.4342 0.1058 0.9525 0.1058 2.7517 0 1.27-0.1058 3.0692 0 1.6933-0.1059 3.5983 0 1.7992-0.1058 3.7042 0 1.7992-0.1058 3.3867h-21.272v12.277h18.521v15.769h-18.521v11.853h21.59q0.1058 2.4342 0.2116 4.9742 0.1059 2.54 0.1059 5.715 0.1058 3.175 0.1058 7.5141 0 4.2333 0 10.16z"/>
  </g>
  <g transform="rotate(178.13 845.02 323.02)" fill="none" opacity=".74797" stroke="#6e0379">
   <circle cx="845.02" cy="323.02" r="153.19" opacity="1" stroke-linecap="round" stroke-linejoin="round" stroke-width="25" style="paint-order:fill markers stroke"/>
   <path transform="scale(.26458)" d="m2973.5 1730.6 198.23-468.84-195.09-553.8m448.39 4.7211-457.83 1021.1zm297.35 357.14-547.5 191.94z" stroke-width="56.693"/>
  </g>
 </g>
</svg>
