<?xml version="1.0" encoding="UTF-8"?>
<svg id="svg5" width="1200mm" height="1200mm" version="1.1" viewBox="0 0 1200 1200" xmlns="http://www.w3.org/2000/svg" xmlns:xlink="http://www.w3.org/1999/xlink">
 <defs id="defs77">
  <filter id="filter5543-6-9-1" x="-.011811" y="-.0082268" width="1.0236" height="1.0165" color-interpolation-filters="sRGB">
   <feGaussianBlur id="feGaussianBlur262" stdDeviation="0.12274701"/>
  </filter>
  <filter id="filter83355-9-3" x="-.011221" y="-.010646" width="1.0224" height="1.0213" color-interpolation-filters="sRGB">
   <feGaussianBlur id="feGaussianBlur112" stdDeviation="0.12274701"/>
  </filter>
  <filter id="filter51069-8-4" x="-.14923" y="-2.558" width="1.2928" height="6.132" color-interpolation-filters="sRGB">
   <feGaussianBlur id="feGaussianBlur135" stdDeviation="0.20956735"/>
  </filter>
  <filter id="filter5543-6-9-2-5" x="-.0043462" y="-.0030184" width="1.0087" height="1.006" color-interpolation-filters="sRGB">
   <feGaussianBlur id="feGaussianBlur268" stdDeviation="0.045169842"/>
  </filter>
  <filter id="filter83355-9-5-7" x="-.0045703" y="-.0043362" width="1.0091" height="1.0087" color-interpolation-filters="sRGB">
   <feGaussianBlur id="feGaussianBlur265" stdDeviation="0.049994638"/>
  </filter>
 </defs>
 <g id="layer60" transform="translate(19.4 11.241)">
  <g id="layer214">
   <g id="layer211" transform="translate(-19.4 -11.241)">
    <g id="g13239" transform="translate(.0072536 -.0044964)">
     <g id="g13055" transform="translate(19.4,11.241)" display="none">
      <path id="path13017" transform="matrix(4.1461,0,0,4.1461,114.51,46.946)" d="m97.944 155.85c5.6508 14.032-5.1676 33.625 22.905 35.809-12.774-0.94211-17.39 0.41978-24.943-0.1666 0.66647-11.883 0.21791-23.99 2.0379-35.642z" display="inline" filter="url(#filter5543-6-9-1)" opacity=".14332" style="mix-blend-mode:normal"/>
      <path id="path13019" transform="matrix(4.1461,0,0,4.1461,114.51,46.946)" d="m116.15 138.43-14.999 4.1438c-6.807 6.5461-6.594 13.462-9.1551 20.231l-2.0997-0.63203c1.9501-6.1531 3.0918-12.306 7.1282-18.459 2.4066-4.3917 5.5793-7.6597 8.0088-8.2708l6.8725-0.30901z" fill-opacity=".99763" filter="url(#filter83355-9-3)" opacity=".14332" style="mix-blend-mode:normal"/>
      <g id="g13029" stroke="#000">
       <path id="path13021" d="m558.72 839.76c3.3097 1.4768 10.353 1.3386 15.453-4e-5" display="inline" fill="none" stroke-width="1.097px"/>
       <path id="path13023" transform="matrix(4.1461,0,0,4.1461,114.51,46.946)" d="m107.21 191.46c0.78911 0.34701 2.4848 0.31059 3.7272-1e-5" display="inline" fill="none" filter="url(#filter51069-8-4)" stroke-width=".26458px"/>
       <g id="g13027" transform="matrix(4.1461,0,0,4.1461,114.09,46.948)" display="inline" fill="#fbfbfb" fill-opacity=".99763">
        <path id="path13025" d="m96.006 191.49 0.99069-27.591c1.1592-17.777 0.0558 1.8562 0 0-0.0181-0.60255-7.0243-1.1932-7.0014-1.7266 4.3241-18.294 11.98-26.757 15.137-26.73l6.8725-0.30901c4.6927 1.9258 10.529 10.913 15.625 26.766 0.15223 0.47352-6.8831 2.539-6.8904 2.005-0.21561-15.716-0.0593-2.1109-0.0411-0.0835l1.0895 27.389c0.0736 0.59478 7e-3 0.57883-0.46691 0.54227-4.3172-0.26213-24.888 0.74333-25.315-0.26181z" stroke-width=".724"/>
       </g>
      </g>
      <path id="path13031" transform="matrix(4.1461,0,0,4.1461,114.51,46.946)" d="m97.944 155.85c5.6508 14.032 3.0175 34.748 22.905 35.809-11.967-0.88938-16.618 0.71207-24.943-0.1666 0.66647-11.883 0.21791-23.99 2.0379-35.642z" display="inline" filter="url(#filter5543-6-9-2-5)" opacity=".14332" style="mix-blend-mode:normal"/>
      <path id="path13033" transform="matrix(4.1461,0,0,4.1461,114.51,46.946)" d="m116.15 138.43-14.999 4.1438c-6.807 6.5461-6.594 13.462-9.1551 20.231l-2.0997-0.63203c1.9501-6.1531 3.0918-12.306 7.1282-18.459 2.4066-4.3917 5.5793-7.6597 8.0088-8.2708l6.8725-0.30901z" display="inline" fill-opacity=".99763" filter="url(#filter83355-9-5-7)" opacity=".14332" style="mix-blend-mode:normal"/>
      <g id="g13053" transform="matrix(.78606 0 0 .78606 256.1 161.47)" fill="#2257a3" stroke="#2257a3">
       <g id="g13051" transform="matrix(.91441 0 0 .91441 299.32 576.07)" fill="#2257a3" stroke="#2257a3">
        <path id="path13035" d="m128.38 122.38c-0.10618-0.0257-0.62743-0.11705-1.1583-0.20298-2.2203-0.35935-4.6187-1.4106-6.5736-2.8812-3.9178-2.9474-6.1682-7.4745-6.1682-12.409 0-0.93371-0.0453-1.4434-0.12143-1.3667-0.0668 0.0673-0.50447 0.89936-0.97265 1.8491-1.4378 2.9168-3.4041 5.5958-5.6275 7.6672-10.35 9.6423-26.145 9.6423-36.494 0-2.2749-2.1194-4.243-4.8225-5.6908-7.8161-1.0485-2.168-1.6806-4.0092-2.1206-6.1768-1.1581-5.7057-0.45472-11.573 2.0008-16.689 1.4721-3.0668 2.9533-5.1727 5.2629-7.4823 10.414-10.414 27.176-10.414 37.59 0 2.3096 2.3096 3.7908 4.4155 5.2629 7.4823 1.9529 4.0685 2.834 8.7728 2.4743 13.211-0.0846 1.0441-0.18815 2.0287-0.2301 2.188-0.15078 0.57247 0.20715 0.27701 0.71236-0.58803 0.77775-1.3317 1.5569-2.3085 2.7711-3.4742 2.9217-2.8049 6.5946-4.2714 10.698-4.2714 8.5897 0 15.506 6.9379 15.503 15.55-3e-3 6.26-3.7982 11.885-9.6588 14.314-1.7167 0.71149-3.3174 1.035-5.3992 1.0913-0.6854 8e-3 -1.8243 0.0578-2.0602 5e-3zm5.3034-1.2665c2.3913-0.63206 4.5354-1.8436 6.3562-3.5916 3.0902-2.9667 4.5573-6.3765 4.5573-10.592 0-2.6621-0.43113-4.4634-1.6186-6.7626-2.0521-3.9732-5.7649-6.7594-10.203-7.6568-1.5055-0.3044-5.0577-0.2054-6.4591 0.18002-5.22 1.4356-9.1355 5.3639-10.581 10.616-0.25709 0.93381-0.28828 1.3401-0.28319 3.6879 5e-3 2.4972 0.0246 2.7005 0.35744 3.7968 0.40251 1.3256 1.2762 3.2163 1.9809 4.2868 0.68977 1.0478 2.7334 3.1176 3.8128 3.8615 1.6993 1.1712 3.4931 1.9482 5.4261 2.3503 1.7424 0.36246 4.9372 0.27795 6.6548-0.17603zm-41.368 0.1598c4.7611-0.51748 9.6127-2.5504 13.412-5.62 1.1393-0.9204 3.3028-3.1267 4.1369-4.2188 1.0789-1.4126 2.0397-2.993 2.8716-4.7233 1.8558-3.8602 2.635-7.6347 2.4776-12.002-0.20035-5.5609-2.0504-10.572-5.5615-15.065-0.9084-1.1623-3.2134-3.4437-4.3751-4.3304-7.8562-5.9962-18.287-7.0781-26.982-2.7987-2.7108 1.3341-4.5241 2.6137-6.7224 4.7438-4.8177 4.6683-7.0818 11.12-7.7653 17.45-0.43853 4.0614 0.62189 8.1421 2.4776 12.002 1.3315 2.7695 2.6333 4.6402 4.7523 6.829 2.1655 2.2368 4.2716 3.785 7.0411 5.1761 2.5024 1.2569 5.7682 2.2447 8.4074 2.5429 1.4693 0.16601 4.3671 0.17305 5.829 0.0142z" stroke-width="2.734" style="paint-order:stroke fill markers"/>
        <g id="g13049" stroke-width="1.367">
         <path id="path13037" d="m64.159 85.819-9.6573-3.0427 0.92604-3.3073 9.2604 5.0932z"/>
         <path id="path13039" d="m65.734 80.49-8.8664-4.8896 1.5608-3.0593 8.0724 6.8214z"/>
         <path id="path13041" d="m68.661 76.139-7.4912-6.8119 2.2276-2.6141 6.2711 8.507z"/>
         <path id="path13043" d="m146.78 103.49 6.6925-2.1102-0.64175-2.2937-6.4175 3.5323z"/>
         <path id="path13045" d="m145.2 98.737 6.1444-3.3911-1.0817-2.1217-5.5942 4.7308z"/>
         <path id="path13047" d="m142.42 94.96 5.1914-4.7242-1.5437-1.813-4.3459 5.8998z"/>
        </g>
       </g>
      </g>
     </g>
     <g id="g13085" transform="translate(19.4,11.241)">
      <g id="g13063" fill="#facf31" stroke="#000" stroke-width="2.2803">
       <path id="path13057" d="m704.75 176.28c12.383 30.19-34.21 43.781-66.493 43.781-40.856 0-44.065-35.317-73.377-56.974-11.212-8.2836-6.2348-34.865 20.887-31.958 4.1151-15.971 15.678-29.271 32.909-20.554 7.0989-5.9395 28.138-18.522 40.587 6.3247 18.673-8.0348 42.683 5.4716 35.844 27.572 23.522 1.719 19.03 19.439 9.6436 31.808z"/>
       <path id="path13059" d="m772.91 486.72c10.786-21.873 18.295-154.96 7.2085-187.62-27.767-81.816-87.005-123.64-176.38-136.95-13.26-1.9752-26.665-2.9691-40.078-2.9691-15.694 0-30.815 0.69401-45.159 3.0915-123.16 28.753-220.04 153.68-183.55 294.75 13.838-155.28 166.19-179.69 285.23-121.63 82.908 40.435 157.24 113.96 152.73 151.33z"/>
       <path id="path13061" d="m334.95 457.02c19.842-112.64 94.375-150.33 166.09-146.85 72.228 3.5056 222.57 53.17 271.87 176.54 18.095-19.99 18.263-45.394 13.974-72.145-13.887-68.061-132.9-143.27-222.37-156.83-37.688-5.7113-69.758-5.891-97.019-2.339-116.42 15.169-145.13 98.398-149.18 109.51-6.9462 19.045-3.0088 71.083 16.644 92.115z"/>
      </g>
      <g id="g13081">
       <path id="path13065" d="m336.01 455.96c19.842-112.64 94.378-150.39 166.09-146.85 47.134 2.3264 126.4 28.268 191.19 74.752-59.041-59.497-125.83-70.354-136.02-74.58-26.778-7.1541-66.919-12.102-106.02-3.8979-13.45 2.8219-33.915 5.4084-37.732 2.8963-8.7656-5.7695 30.7-44.1 79.864-49.748 18.204-2.0913 37.236-2.7629 72.187-1.8552-43.278-4.1729-69.307-7.1406-106.26-2.6647-6.176-1.5339-10.465-23.408 14.231-44.37 28.905-24.534 75.101-55.413 218.69-20.554 2.7456-4.9534-65.148-33.226-111.82-37.277-18.02-1.564-1.6759-11.647 7.7656-13.327 10.041-1.7871 40.123 12.056 32.698 7.1189-5.2545-3.494-9.9358-6.7384-13.64-9.5117-15.034-11.256-4.2766-26.337 7.4427-21.99 3.1128 1.1546 20.441 21.307 17.86 17.262-2.5815-4.0446-8.9046-13.576-8.719-17.442 0.36588-7.6232 23.523-14.634 36.512 1.913-14.62-23.115-29.46-12.517-40.861-6.2813-30.226-11.582-30.595 18.832-33.692 21.567-25.311-7.1066-30.295 20.816-24.909 26.726-41.298 3.3587-78.475 7.0025-124.94 39.994-50.601 35.929-85.832 87.554-94.08 124.3-21.198 21.727-20.798 37.095-22.477 41.698-6.9462 19.045-3.0088 71.083 16.644 92.115z" opacity=".40064"/>
       <path id="path13067-0" d="m695.11 144.47 10.953 2.5586c-13.125-3.7865-25.47 7.8027-28.045 7.9858 10.983-10.611 15.581-9.8843 17.721-21.263l-0.62955 10.719" opacity=".401" stroke="#000" stroke-width="1.2326px"/>
       <g id="g13079" stroke-width="4.6587">
        <path id="path13069" d="m628.54 166.3c-0.98937 1.5888-3.1515 2.5047-2.2516 5.1776-1.9566 1.4078-4.405 3.3735-4.2616 6.388-2.4109 2.0143-6.5335 3.6527-5.237 7.2428-1.8709 2.8198-4.6629 5.2744-4.1693 9.2249-3.713 2.5532-5.696 6.5698-4.0224 8.342-3.7846 2.8573-3.331 5.2984-3.9471 8.5345-1.6982 2.7325-3.753 4.9998-3.1209 8.4751-2.3222 2.295-4.17 5.516-3.5736 8.6085-3.4746 3.0298-2.7703 6.5557-3.3796 10.368-3.3531 1.8537-2.6688 7.7379-3.7619 11.032-3.9028 4.7615-2.6249 8.1669-4.1638 12.928l1.1631 0.46271c3.1978-3.9552 5.9022-5.563 4.0742-12.722 2.2222-2.7339 4.9454-6.735 3.7853-11.086 3.6362-2.7003 3.9028-5.9636 3.3796-10.369 3.3056-1.375 3.5496-5.0427 3.3499-8.0938 3.3476-2.1439 2.6907-5.428 3.2003-8.6576 2.7468-2.9014 5.4067-4.8794 4.1009-8.888 2.737-1.6773 3.5435-5.5585 4.0129-8.3201 3.2129-2.7515 3.9219-6.0121 4.2118-9.3227 3.2742-2.1593 5.4084-4.3496 5.1619-7.0701 3.0365-2.2046 4.0921-4.2585 4.2943-6.4631 3.538-1.7766 2.0068-3.5532 2.3178-5.3298z" color="#000000" opacity=".45513" style="-inkscape-stroke:none"/>
        <path id="path13071" d="m652.08 173.09c-0.18959 1.8403-0.79409 3.5482 1.2083 5.6018-1.1454 2.0696-0.19199 4.8562 1.2774 7.5265-1.287 2.8033-2.0632 5.904 0.70571 8.6267-0.44017 3.3129-1.1038 6.6056 1.0985 9.9808-2.2262 3.8203-2.2398 6.8221 0.0629 7.746-2.1558 4.1247-0.24344 6.731 0.63693 9.9107-0.323 3.1637-1.3634 6.2931 0.75342 9.182-1.082 3.0213-2.1456 6.846-0.23154 9.4028-1.7986 4.1548-1.2313 7.5439-0.0881 11.243-2.2113 3.0408-0.31346 6.2647 0.16151 9.6912-0.83622 3.4806-0.72892 6.7929-0.31538 9.7123-1.1789 2.7006-2.2505 6.7102-0.0881 9.1044-2.0011 4.5307 0.67381 8.2241 1.1286 9.1442l1.2584-0.0539c0.57045-1.2603 0.63899-4.4531-0.84535-9.3834 1.6042-4.1911 0.1634-7.9556-0.242-9.1804 0.22104-2.4005 2.7048-6.4072 0.37206-9.1744 0.79651-3.3779 2.82-6.2823-0.16389-9.7494 2.0913-3.9222 2.5195-7.4682 0.0881-11.243 2.381-2.5883 1.7943-6.1654 0.25724-8.846 2.0774-3.3013 0.21152-6.2489-0.76246-9.3794 1.1968-3.7427 2.3087-7.1953-0.65489-10.293 1.732-2.6307 0.74098-5.0318-0.0619-7.7224 1.6854-3.7966 0.1053-6.9721-1.1037-10.087 2.0041-3.2854 0.73511-6.0776-0.69716-8.4399 1.7688-3.2298-0.4842-5.5301-1.2812-7.6078 2.413-3.0462-0.70811-4.032-1.2159-5.7666z" color="#000000" opacity=".45513" style="-inkscape-stroke:none"/>
        <path id="path13073" d="m674.42 180.73c0.52632 1.7794-0.26391 3.9106 2.3845 5.1228-0.27583 2.3267 3.6169 4.1958 6.005 6.1683-0.12719 3.0591 1.5017 5.745 5.1192 7.3122 0.85564 3.2377 2.327 6.1522 5.6664 8.5248-0.61306 4.334 2.1897 7.3036 4.686 7.3593-0.43113 4.5928 2.7854 5.7824 4.8197 8.4348 0.90756 3.0579 1.6866 6.5848 4.7606 8.5346 0.14673 3.1904 1.6471 7.8687 4.4052 9.5802-0.0873 4.496 1.4918 6.0063 3.9687 9.0502-0.897 3.6032 2.2519 5.4987 4.0028 8.5224 0.55094 3.5322 2.0551 6.6344 3.555 9.2077-0.0657 2.9258-0.98087 6.6257 1.9468 8.099-0.15006 1.1882-1.8296 5.7266 2.3951 8.765-0.25106 2.6743-2.0021 7.2634 1.5968 10.336 0.35253 2.6679-1.6909 5.6309 1.8144 9.0892-0.61602 2.2276-2.8981 6.7546 0.50258 9.256-1.1137 4.41-1.4325 6.8111 1.0738 9.1262-1.0816 3.9131-3.8734 6.3709 0.11054 9.7258 0.58771 2.9102-1.9415 4.868 1.7207 7.1799 2.0226-0.68905 2.0226-0.68905 2.0226-0.68905-0.11765-3.3221 0.64341-4.5164-1.4662-7.3978-0.0429-2.7045 2.7756-7.6069-0.10813-9.7929 0.37397-3.0519 1.1175-5.5065-1.1264-8.6532 0.0967-3.8456 1.039-6.3978-1.3184-8.8119 0.18959-3.3092 0.44208-7.2761-1.3414-9.6674-0.3835-3.4303-0.44259-7.6517-2.4419-10.153-0.57405-5.849-1.2857-8.301-2.1105-9.1248-0.10769-4.4619-1.4379-7.0558-2.2828-8.0545-0.71105-2.3118-0.0681-6.9657-3.2969-8.7267-0.54872-3.4228 0.0744-6.3906-4.0274-8.5757 0.44828-4.3817-0.26392-6.3859-3.9688-9.0503 1.2279-3.2412-1.7138-7.1125-4.1687-9.0709 0.67276-3.7989-2.7419-6.1413-4.8444-8.7151-0.31536-3.9022-1.0404-6.9361-4.9825-8.7846 0.60744-3.054-2.9011-5.1134-4.6761-7.3376 0.11862-4.123-3.3966-6.1445-5.7117-8.6214 0.61063-3.7584-2.8042-5.4426-5.04-7.1413 0.41303-3.6245-4.504-4.5869-6.0395-6.2426 1.0826-3.6787-1.3193-3.8362-2.4546-5.2735z" color="#000000" opacity=".45513" style="-inkscape-stroke:none"/>
        <path id="path13075" d="m610.09 162.91c-1.3375 1.3355-1.6848 3.5722-4.6183 3.455-0.89749 2.1787-5.2522 2.0834-8.3287 2.7544-1.388 2.7589-4.1438 4.4004-8.1074 4.162-2.3436 2.4757-5.0724 4.3898-9.1853 4.9875-1.584 4.1027-5.5158 5.4683-7.7479 4.3978-1.8716 4.2497-5.2959 3.8577-8.3933 5.2878-2.3012 2.2937-4.719 5.0592-8.3901 5.4025-1.6943 2.752-5.3138 6.2109-8.5891 6.4854-2.128 4.01-4.2632 4.6356-7.9436 6.213-0.97483 3.5846-4.6855 3.8464-7.7149 5.7316-2.2188 2.8725-5.0688 4.9377-7.6554 6.5376-1.3768 2.6136-2.3831 6.2918-5.6913 6.2798-0.45018 1.1167-1.1926 5.8784-6.4138 6.6669-1.0898 2.4745-1.794 7.313-6.4796 8.4128-1.6198 2.1982-1.2681 5.7316-6.06 7.2137-0.54844 2.2437-0.029 6.0669-4.2591 6.7508l-2.4453-0.24273c1.8006-3.4397 2.22-6.1165 5.486-7.1912 1.4555-3.0077 3.1779-6.6245 5.9259-7.9366 2.021-2.8576 4.1435-6.5594 7.1359-7.8717 3.3755-4.9083 5.2066-6.7547 6.339-7.1123 2.2834-3.8924 4.7304-5.5867 5.9663-6.0898 1.7618-1.7229 3.4763-6.1215 7.1916-6.2286 2.1632-2.7768 3.0685-5.6775 7.7627-5.7676 1.753-4.071 3.365-5.5216 7.9437-6.2131 0.50507-3.4133 5.0018-5.513 8.1304-6.1416 1.2689-3.6569 5.4335-4.1942 8.5527-5.5243 2.1922-3.305 4.3205-5.6593 8.7087-5.5237 0.96125-2.9698 5.07-3.2149 7.7284-4.3832 1.9172-3.6946 6.0133-3.9033 9.2727-5.0525 1.3039-3.5934 5.1458-3.5491 7.9535-4.0466 1.4128-3.3864 6.2274-2.0309 8.3956-2.8045 0.84818-3.7345 3.0466-2.7964 4.7541-3.5566z" color="#000000" opacity=".45513" style="-inkscape-stroke:none"/>
        <path id="path13077" d="m584.69 160.95c-1.6893 0.89979-2.7097 2.9396-5.4772 2.0018-1.5284 1.8295-5.6608 0.51257-8.8075 0.28775-2.1756 2.2459-5.3147 3.0389-9.0292 1.6953-3.0018 1.7063-6.1989 2.7674-10.314 2.1807-2.7767 3.475-6.9546 3.6733-8.7582 2.0219-3.0968 3.5345-6.2487 2.1959-9.6491 2.6907-2.9053 1.5442-6.0671 3.5066-9.6813 2.8012-2.4663 2.1531-6.9901 4.4398-10.205 3.7801-3.268 3.2332-5.5012 3.2301-9.5041 3.7015-2.035 3.1514-5.6619 2.3569-9.1373 3.3058-3.0047 2.1206-6.3641 3.292-9.3286 4.0929-2.1203 2.1102-4.2142 5.3421-7.3721 4.3994-0.77395 0.94049-2.9492 5.2822-8.1818 4.5659-1.8032 2.0581-3.9654 6.4839-8.782 6.2161-2.2246 1.6448-2.9762 5.1207-8.012 5.1881-1.2147 1.9899-2.956 6.7316-7.2094 6.1944-2.4795 3.8678-4.0326 5.7789-7.5166 5.7158-2.1342 3.4952-1.9834 7.1213-7.2805 6.7916-0.37488 0.37068-0.5057 3.4328-4.2209 5.2262-0.94188 2.1594-2.9928 4.5099-5.8039 6.2149-0.8278 2.3341-1.0138 5.067-4.5553 6.3075-1.3139 2.6845-3.1749 5.6922-5.1384 6.275-1.077 2.6687-1.4882 4.9911-4.5755 6.2631-0.19898 4.4128-2.8986 4.1871-4.3695 5.7146-0.84403 3.6016-2.4862 5.7034-4.898 6.9409-0.71055 2.0562-2.0597 3.0933-4.001 4.371-1.0356 2.0332-4.5567 6.6463-5.4436 6.4451-0.46471-0.57084-2.5236-0.83568 0.55937-2.4779 0.18473-0.43521 1.0112-3.9885 3.2035-5.0002 0.22904-2.6878 2.0686-3.857 3.7731-5.0364 1.4892-2.2731 0.97753-6.0546 5.3898-7.2094 1.0008-2.0779 1.7949-4.3773 4.2956-5.7403-0.19719-2.6069 1.6881-4.4554 4.4729-5.9428 0.087-3.5049 2.6663-4.6047 4.675-6.1445 0.60378-2.1408 2.504-4.2027 4.747-6.1225 0.8983-4.4844 3.6216-5.3063 5.476-6.7784 0.36349-4.1989 4.5091-5.463 5.4779-5.4883 2.0331-1.8804 3.6737-7.2503 7.3285-6.8405 1.9961-2.4079 3.2889-4.6444 7.2034-5.3463 2.7796-2.7805 4.0044-5.2206 7.4565-5.3282 2.3168-2.4647 5.0762-5.4363 8.1062-5.9167 2.8111-2.1621 5.979-5.1024 9.2427-5.514 4.7368-3.7406 7.0551-4.9897 8.2474-5.0127 3.3803-3.0772 6.2404-4.0075 7.5764-4.1404 2.2141-1.1506 5.2066-4.8716 8.7902-3.9281 2.9221-2.0449 4.6802-4.5621 9.1942-3.3268 2.9284-3.3971 4.9154-4.3297 9.5042-3.7016 1.5334-3.1199 6.4771-3.8607 9.6606-3.5807 2.3383-3.1377 6.4837-2.4788 9.8742-2.8719 3.1124-2.5414 5.8711-4.1922 10.023-2.8273 1.8328-2.5676 5.8349-1.6452 8.7351-2.0133 2.9696-2.9912 6.9483-2.0375 10.417-2.2183 2.3522-3.067 6.0103-1.9432 8.8467-1.6282 2.3926-2.8387 6.5767-0.18786 8.8869-0.31683 1.9599-3.3304 3.7723-1.8148 5.6383-2.0607z" color="#000000" opacity=".45513" style="-inkscape-stroke:none"/>
       </g>
      </g>
      <path id="path13083" d="m733.79 339.59" fill="none" stroke="#000" stroke-width="1.2326px"/>
     </g>
     <g id="g13237" transform="translate(19.4,11.241)" display="none">
      <g id="g13089" transform="matrix(5.2116,0,0,6.7842,2.467,-661.37)" display="inline" fill="#fff">
       <path id="path13087" d="m90.908 269.32c-0.69016 0.58121-0.32503 0.83771-0.22018 1.1743 2.4301 1.6004 4.8602 0.56652 7.2903 0.66054 2.0589 0.0239 4.1251 0.0722 5.9937-0.53822 2e-3 -0.20576-0.0105-0.52398-0.0734-1.2477-1.5675 0.36773-11.69 1.5851-12.99-0.0489z" stroke="#000" stroke-width=".265"/>
      </g>
      <path id="path13091" d="m540.64 1170.3-0.0166 1.9365c-2.8548 1.6837-8.2495 2.1558-15.828 2.5706-7.5786 0.4147-17.414 0.8071-28.545 1.734l0.0415-1.9195c11.165-0.9297 20.886-1.1898 28.44-1.6033 5.1681-0.3528 10.913-1.1495 15.905-2.7183z" color="#000000" display="inline" stroke-width="5.9463" style="-inkscape-stroke:none"/>
      <g id="g13101" transform="matrix(5.2116,0,0,6.7842,7.5418,-661.46)" display="inline">
       <g id="g13097" fill="#7eaf5e" stroke="#000">
        <path id="path13093" d="m99.624 264.58c0.12458-0.83433-1.0536-0.68864-1.6502-1.1932-0.12192 0.35325 0.18612 0.78912-0.55478 1.8328-1.1149 1.5706-3.7133 3.3184-5.4588 3.7482l-0.25918 0.78908c2.8192-0.48409 5.5935-2.0558 7.4276-4.2465z" stroke-width=".26458px"/>
        <path id="path13095" d="m102.01 264.17c0.0116-0.13607-0.0994-0.20158-0.10807-0.14696-0.0137 0.0859-0.01 0.12145-0.0682 0.15716-1.2276 0.75173-2.8362 0.0747-3.7835 0.34434-0.60151 0.96425-0.91545 1.9694-1.5232 2.4878-2.2981 1.7131-4.0373 1.4364-4.9843 2.9154 1.4368 0.34291 10.922-0.12427 11.382-0.54786 0 0-0.11994-1.0414-0.56268-1.8348-0.50461-1.1479-0.63995-2.1066-0.3623-3.3196z" stroke-width=".265"/>
       </g>
       <ellipse id="ellipse13099" transform="scale(-1,1)" cx="-100.34" cy="267.04" rx="1.0293" ry="1.0725" fill="#fff" style="paint-order:stroke fill markers"/>
      </g>
      <g id="g13123" transform="matrix(5.2116,0,0,6.7842,7.5418,-661.46)" display="inline" fill="none" stroke="#d6d6d6" stroke-linecap="round" stroke-linejoin="round" stroke-width=".1">
       <ellipse id="ellipse13103" transform="scale(-1,1)" cx="-97.52" cy="269.5" rx=".21623" ry=".19937" style="paint-order:stroke fill markers"/>
       <ellipse id="ellipse13105" transform="scale(-1,1)" cx="-96.273" cy="269.58" rx=".21623" ry=".19937" style="paint-order:stroke fill markers"/>
       <ellipse id="ellipse13107" transform="scale(-1,1)" cx="-92.985" cy="269.31" rx=".21623" ry=".19937" style="paint-order:stroke fill markers"/>
       <ellipse id="ellipse13109" transform="scale(-1,1)" cx="-93.887" cy="269" rx=".21623" ry=".19937" style="paint-order:stroke fill markers"/>
       <ellipse id="ellipse13111" transform="scale(-1,1)" cx="-94.896" cy="268.66" rx=".21623" ry=".19937" style="paint-order:stroke fill markers"/>
       <ellipse id="ellipse13113" transform="scale(-1,1)" cx="-95.734" cy="268.28" rx=".21623" ry=".19937" style="paint-order:stroke fill markers"/>
       <ellipse id="ellipse13115" transform="scale(-1,1)" cx="-96.719" cy="267.71" rx=".21623" ry=".19937" style="paint-order:stroke fill markers"/>
       <ellipse id="ellipse13117" transform="scale(-1,1)" cx="-97.282" cy="267.03" rx=".21623" ry=".19937" style="paint-order:stroke fill markers"/>
       <ellipse id="ellipse13119" transform="scale(-1,1)" cx="-97.808" cy="266.19" rx=".21623" ry=".19937" style="paint-order:stroke fill markers"/>
       <ellipse id="ellipse13121" transform="scale(-1,1)" cx="-98.419" cy="265.24" rx=".21623" ry=".19937" style="paint-order:stroke fill markers"/>
      </g>
      <g id="g13155" transform="matrix(5.2116,0,0,6.7842,-35.938,-663.4)" display="inline" fill="#fff">
       <path id="path13125" d="m101.06 268.86 0.26073-0.13515 1.0187 0.45565c-0.0247 0.12645-0.0991 0.17846-0.18862 0.2077l-0.80988-0.375 0.11222 0.59641c-0.0868 0.0678-0.17368 0.053-0.26053 0.01z" color="#000000" style="-inkscape-stroke:none"/>
       <path id="path13127" d="m102.1 268.35-0.33836 0.38238-0.43572 0.18303c0.23547-0.25565 0.45533-0.45809 0.77408-0.56541z" color="#000000" style="-inkscape-stroke:none"/>
       <path id="path13129" d="m102.9 267.89-0.37438 0.54673-0.36308 0.14462c0.24928-0.37393 0.27604-0.52183 0.73746-0.69135z" color="#000000" style="-inkscape-stroke:none"/>
       <path id="path13131" d="m102.7 267.98 0.64208 0.89039c-0.0457 0.10047-0.13621 0.11152-0.21178 0.15235l-0.64515-0.89039z" color="#000000" style="-inkscape-stroke:none"/>
       <path id="path13133" d="m103.32 267.56 0.86914 0.92187c-0.0492 0.1101-0.11156 0.17746-0.19336 0.18164l-0.86914-0.92187z" color="#000000" style="-inkscape-stroke:none"/>
       <path id="path13135" d="m103.61 267.4-0.22952 0.65992-0.27838 0.12563c0.14906-0.40592 0.0438-0.68389 0.5079-0.78555z" color="#000000" style="-inkscape-stroke:none"/>
       <path id="path13137" d="m103.96 267.11 1.1368 0.77046c0.0234 0.10056-0.039 0.15821-0.14571 0.19369l-1.2144-0.7877c0.0484-0.0588 0.0954-0.11763 0.22327-0.17645z" color="#000000" style="-inkscape-stroke:none"/>
       <path id="path13139" d="m104.34 266.81-0.19863 0.82272-0.31557 0.18531c0.0936-0.48347 0.0883-0.78899 0.5142-1.008z" color="#000000" style="-inkscape-stroke:none"/>
       <path id="path13141" d="m104.68 266.51 1.0296 0.6974c-0.0292 0.0792-0.0351 0.17185-0.14021 0.20773l-1.0707-0.73871z" color="#000000" style="-inkscape-stroke:none"/>
       <path id="path13143" d="m105.18 266 1.0192 0.35117c0.0284 0.0832-6e-3 0.16159-0.084 0.23667l-1.0899-0.37764z" color="#000000" style="-inkscape-stroke:none"/>
       <path id="path13145" d="m104.68 266.57 0.15106 0.59034-0.20744 0.15618c-0.0911-0.3841-0.27175-0.73838 0.0564-0.74652z" color="#000000" style="-inkscape-stroke:none"/>
       <path id="path13147" d="m105.18 266 0.14053 0.51544-0.14119 0.21624c-0.13306-0.35155-0.31211-0.62186 6.6e-4 -0.73168z" color="#000000" style="-inkscape-stroke:none"/>
       <path id="path13149" d="m105.8 265.19 0.0364 0.34204-0.15078 0.29903c-0.0739-0.37722-0.12772-0.58292 0.11438-0.64107z" color="#000000" style="-inkscape-stroke:none"/>
       <path id="path13151" d="m105.87 265.1 0.9169 0.27903c0.0741 0.15369-0.0102 0.19555-0.0684 0.25586l-1.0801-0.28515z" color="#000000" style="-inkscape-stroke:none"/>
       <path id="path13153" d="m99.988 270.17c0.12777-0.26946 0.21027-0.61256 0.3154-0.91884-1.8217-0.36974-1.8544 0.172-2.024 0.3583 0.86294 0.442 1.0019 0.53227 1.7086 0.56054z" stroke="#000" stroke-width=".26458px"/>
      </g>
      <g id="g13159" transform="matrix(-5.2116,0,0,6.7842,1135.5,-662.16)" display="inline" fill="#fff">
       <path id="path13157" d="m90.908 269.32c-0.69016 0.58121-0.32503 0.83771-0.22018 1.1743 2.4301 1.6004 4.8602 0.56652 7.2903 0.66054 2.0589 0.0239 4.1251 0.0722 5.9937-0.53822 2e-3 -0.20576-0.0105-0.52398-0.0734-1.2477-1.5675 0.36773-11.69 1.5851-12.99-0.0489z" stroke="#000" stroke-width=".265"/>
      </g>
      <path id="path13161" d="m597.28 1169.6 0.0166 1.9365c2.8548 1.6837 8.2495 2.1558 15.828 2.5706 7.5786 0.4147 17.414 0.8071 28.545 1.734l-0.0415-1.9195c-11.165-0.9297-20.886-1.1898-28.44-1.6033-5.1681-0.3528-10.912-1.1495-15.905-2.7183z" color="#000000" display="inline" stroke-width="5.9463" style="-inkscape-stroke:none"/>
      <g id="g13171" transform="matrix(-5.2116,0,0,6.7842,1130.4,-662.24)" display="inline">
       <g id="g13167" fill="#7eaf5e" stroke="#000">
        <path id="path13163" d="m99.624 264.58c0.12458-0.83433-1.0536-0.68864-1.6502-1.1932-0.12192 0.35325 0.18612 0.78912-0.55478 1.8328-1.1149 1.5706-3.7133 3.3184-5.4588 3.7482l-0.25918 0.78908c2.8192-0.48409 5.5935-2.0558 7.4276-4.2465z" stroke-width=".26458px"/>
        <path id="path13165" d="m102.01 264.17c0.0116-0.13607-0.0994-0.20158-0.10807-0.14696-0.0137 0.0859-0.01 0.12145-0.0682 0.15716-1.2276 0.75173-2.8362 0.0747-3.7835 0.34434-0.60151 0.96425-0.91545 1.9694-1.5232 2.4878-2.2981 1.7131-4.0373 1.4364-4.9843 2.9154 1.4368 0.34291 10.922-0.12427 11.382-0.54786 0 0-0.11994-1.0414-0.56268-1.8348-0.50461-1.1479-0.63995-2.1066-0.3623-3.3196z" stroke-width=".265"/>
       </g>
       <ellipse id="ellipse13169" transform="scale(-1,1)" cx="-100.34" cy="267.04" rx="1.0293" ry="1.0725" fill="#fff" style="paint-order:stroke fill markers"/>
      </g>
      <g id="g13193" transform="matrix(-5.2116,0,0,6.7842,1130.4,-662.24)" display="inline" fill="none" stroke="#d6d6d6" stroke-linecap="round" stroke-linejoin="round" stroke-width=".1">
       <ellipse id="ellipse13173" transform="scale(-1,1)" cx="-97.52" cy="269.5" rx=".21623" ry=".19937" style="paint-order:stroke fill markers"/>
       <ellipse id="ellipse13175" transform="scale(-1,1)" cx="-96.273" cy="269.58" rx=".21623" ry=".19937" style="paint-order:stroke fill markers"/>
       <ellipse id="ellipse13177" transform="scale(-1,1)" cx="-92.93" cy="269.31" rx=".21623" ry=".19937" style="paint-order:stroke fill markers"/>
       <ellipse id="ellipse13179" transform="scale(-1,1)" cx="-93.887" cy="269" rx=".21623" ry=".19937" style="paint-order:stroke fill markers"/>
       <ellipse id="ellipse13181" transform="scale(-1,1)" cx="-94.896" cy="268.66" rx=".21623" ry=".19937" style="paint-order:stroke fill markers"/>
       <ellipse id="ellipse13183" transform="scale(-1,1)" cx="-95.734" cy="268.28" rx=".21623" ry=".19937" style="paint-order:stroke fill markers"/>
       <ellipse id="ellipse13185" transform="scale(-1,1)" cx="-96.719" cy="267.71" rx=".21623" ry=".19937" style="paint-order:stroke fill markers"/>
       <ellipse id="ellipse13187" transform="scale(-1,1)" cx="-97.282" cy="267.03" rx=".21623" ry=".19937" style="paint-order:stroke fill markers"/>
       <ellipse id="ellipse13189" transform="scale(-1,1)" cx="-97.808" cy="266.19" rx=".21623" ry=".19937" style="paint-order:stroke fill markers"/>
       <ellipse id="ellipse13191" transform="scale(-1,1)" cx="-98.419" cy="265.24" rx=".21623" ry=".19937" style="paint-order:stroke fill markers"/>
      </g>
      <g id="g13225" transform="matrix(-5.2116,0,0,6.7842,1173.9,-664.15)" display="inline" fill="#fff">
       <path id="path13195" d="m101.11 268.84 0.21527-0.1142 1.0187 0.45565c-0.0247 0.12645-0.0991 0.17846-0.18862 0.2077l-0.80988-0.375 0.0759 0.57546c-0.0777 0.027-0.17794 0.11392-0.27872 0.0166z" color="#000000" style="-inkscape-stroke:none"/>
       <path id="path13197" d="m102.1 268.35-0.33836 0.38238-0.43572 0.18303c0.23547-0.25565 0.45533-0.45809 0.77408-0.56541z" color="#000000" style="-inkscape-stroke:none"/>
       <path id="path13199" d="m102.9 267.89-0.37438 0.54673-0.36308 0.14462c0.24928-0.37393 0.27604-0.52183 0.73746-0.69135z" color="#000000" style="-inkscape-stroke:none"/>
       <path id="path13201" d="m102.7 267.98 0.64208 0.89039c-0.0457 0.10047-0.13621 0.11152-0.21178 0.15235l-0.64515-0.89039z" color="#000000" style="-inkscape-stroke:none"/>
       <path id="path13203" d="m103.32 267.56 0.86914 0.92187c-0.0492 0.1101-0.11156 0.17746-0.19336 0.18164l-0.86914-0.92187z" color="#000000" style="-inkscape-stroke:none"/>
       <path id="path13205" d="m103.61 267.4-0.22952 0.65992-0.27838 0.12563c0.14906-0.40592 0.0438-0.68389 0.5079-0.78555z" color="#000000" style="-inkscape-stroke:none"/>
       <path id="path13207" d="m103.96 267.11 1.1368 0.77046c0.0234 0.10056-0.039 0.15821-0.14571 0.19369l-1.2144-0.7877c0.0484-0.0588 0.0954-0.11763 0.22327-0.17645z" color="#000000" style="-inkscape-stroke:none"/>
       <path id="path13209" d="m104.34 266.81-0.19863 0.82272-0.31557 0.18531c0.0936-0.48347 0.0883-0.78899 0.5142-1.008z" color="#000000" style="-inkscape-stroke:none"/>
       <path id="path13211" d="m104.68 266.51 1.0296 0.6974c-0.0292 0.0792-0.0351 0.17185-0.14021 0.20773l-1.0707-0.73871z" color="#000000" style="-inkscape-stroke:none"/>
       <path id="path13213" d="m105.18 266 1.0192 0.35117c0.0284 0.0832-6e-3 0.16159-0.084 0.23667l-1.0899-0.37764z" color="#000000" style="-inkscape-stroke:none"/>
       <path id="path13215-2" d="m104.68 266.57 0.15106 0.59034-0.20744 0.15618c-0.0911-0.3841-0.27175-0.73838 0.0564-0.74652z" color="#000000" style="-inkscape-stroke:none"/>
       <path id="path13217" d="m105.18 266 0.14053 0.51544-0.14119 0.21624c-0.13306-0.35155-0.31211-0.62186 6.6e-4 -0.73168z" color="#000000" style="-inkscape-stroke:none"/>
       <path id="path13219" d="m105.8 265.19 0.0364 0.34204-0.15078 0.29903c-0.0739-0.37722-0.12772-0.58292 0.11438-0.64107z" color="#000000" style="-inkscape-stroke:none"/>
       <path id="path13221" d="m105.87 265.1 0.9169 0.27903c0.0741 0.15369-0.0102 0.19555-0.0684 0.25586l-1.0801-0.28515z" color="#000000" style="-inkscape-stroke:none"/>
       <path id="path13223" d="m99.988 270.17c0.12777-0.26946 0.21027-0.61256 0.3154-0.91884-1.8217-0.36974-1.8544 0.172-2.024 0.3583 0.86294 0.442 1.0019 0.53227 1.7086 0.56054z" stroke="#000" stroke-width=".26458px"/>
      </g>
      <g id="g13235" transform="matrix(4.1461,0,0,4.1461,114.51,46.944)" display="inline" fill="none" stroke="#fff" stroke-dasharray="0.218489, 0.0728297" stroke-width=".07283">
       <path id="path13227" d="m117.03 261.78c0.50644 0.79252 2.5167 0.56575 4.1081 0.4008 0.74877-0.31263 0.92953 1.7534 1.7045 2.9656 0.47439 0.74204 1.4711 1.9199 2.4687 2.5654 0.69958 0.45265 2.2153 0.98452 3.0926 1.5646 0.65344 0.43209 0.98257 0.81986 1.1126 1.2156"/>
       <path id="path13229" d="m120.22 261.94c0.99003 3.732 2.6484 6.9735 8.4234 8.5578"/>
       <path id="path13231" d="m102.13 262.03c-0.50644 0.79252-2.5167 0.56575-4.1081 0.4008-0.74877-0.31263-0.92953 1.7534-1.7045 2.9656-0.47439 0.74204-1.4711 1.9199-2.4687 2.5654-0.69958 0.45265-2.2153 0.98452-3.0926 1.5646-0.65344 0.43209-0.98257 0.81986-1.1126 1.2156"/>
       <path id="path13233" d="m98.944 262.19c-0.99003 3.732-2.6484 6.9735-8.4234 8.5578"/>
      </g>
     </g>
    </g>
   </g>
  </g>
 </g>
</svg>
