<?xml version="1.0" encoding="UTF-8"?>
<svg id="svg5" width="1200mm" height="1200mm" version="1.1" viewBox="0 0 1200 1200" xmlns="http://www.w3.org/2000/svg" xmlns:xlink="http://www.w3.org/1999/xlink">
 <g id="layer60" transform="translate(19.4 11.241)">
  <g id="layer214">
   <g id="g153067">
    <path id="path153039" d="m661.43 1159.4-0.19335-118.12 1.5612-1.8861-1.7809-132.34c-1.7661 2.171-8.973 1.9684-10.588-0.48038l0.0469 132.95 1.5541 2.0862 1.9842 119.37c3.0083 3.3083 6.0485 0.5829 7.4157-1.5747z" fill="#bdbdbd" stroke="#000" stroke-width="1.9279"/>
    <path id="path153039-1" d="m661.55 858.13c-1.7661 2.171-8.973 1.9684-10.588-0.48038 0.0755 18.855-0.0178 17.762 0.15582 34.164 3.3178-2.0815 6.9961-1.7244 10.765 1.0506-0.11558-16.541-0.0755-15.636-0.33249-34.734z" fill="#bdbdbd" stroke="#000" stroke-width="1.9279"/>
    <path id="path159484" d="m652.22 1155.1-1.3343 7.2427-0.50911 0.1419-0.78691 3.1523c4.588 1.4074 9.8322 1.7233 16.133 0.2817l-0.65211-2.7448-0.43545-0.27-1.4751-7.7716z" fill="#191919" stroke="#000" stroke-width=".26458px"/>
    <rect id="rect160301" x="650.01" y="1039.5" width="13.242" height="14.019" ry="0" fill="#191919" stroke="#000" stroke-linecap="square"/>
    <ellipse id="path161479" cx="656.28" cy="904.41" rx="5.6376" ry="5.918" fill="#191919" stroke="#000" stroke-linecap="square"/>
    <path id="path162644" d="m652.14 890.03c-0.17879-0.3527 4.1129-1.0936 4.517-1.1394 0.37982-0.043 1.0166-1.7197 1.2642-2.5636 1.9825-6.7567 2.856-20.928 2.856-20.928l2.1908 2.9379-0.98621 11.346s-1.1569 6.1913-1.7211 8.8594c-0.16204 0.76635 0.9297 2.1582 0.9297 2.1582l1.0152 2.1559-11.089-1.0488z"/>
    <path id="path167091" d="m645.54 843.01s-2.0369 10.742 0.31597 15.249c0.16886 0.32345 0.88499 0.6442 0.88499 0.6442-0.40032-5.2977 2.2868-12.759-1.201-15.893z" fill="#262626" stroke="#000" stroke-width=".26458px"/>
    <path id="path167091-2" d="m665.49 842.82s2.2472 11.621-0.16334 16.174c-0.12122 0.22892-0.70649 0.32363-0.70649 0.32363 0.40032-5.2977-2.618-13.363 0.86985-16.498z" fill="#464040" stroke="#000" stroke-width=".26458px"/>
    <path id="path163477" d="m649.9 841.73 11.8-0.0652c1.9812 0.28227 4.1621 0.41566 2.9354 3.0891 0.0128 5.4293 0.64693 9.352-0.021 14.147l-3.072-0.77496c-5.2083 0.99521-5.9501 1.09-10.588-0.48038-3.0814-1.1921-4.7926 0.0658-4.217 1.2553-0.87891-4.2166-0.2604-10.737-0.01-14.196-0.91443-2.5016-1.2258-2.548 3.1726-2.9752z" fill="#262626" stroke="#000" stroke-linejoin="round" stroke-width="1.5"/>
    <path id="path165112" d="m649.9 841.73 0.17042 15.411c-0.23916 4.5468 4.4587-0.58449 5.602 2.9666 0.59112 1.8361-2.0361 27.924-1.5896 30.548 0.16523 0.97106 1.6283-1.4906 3.2935-0.287 3.0634 2.2142 1.5009-10.192 2.5976-29.896 0.0458-0.82324-0.90292-2.1236-0.15774-2.187 1.7238-0.14667 3.423-0.11508 4.6424-0.24059-0.0118-5.7208 0.93433-12.885 0.26712-14.495-0.80793-1.9498-1.3118 2.0238-3.0855-0.73685-4.9929 1.1672-7.669 0.46992-11.517 0.46002z" opacity=".33537"/>
    <path id="path165114" d="m659.48 840.25 1.2228 19.972 2.5461-0.61667-1.1265-19.324z"/>
    <path id="path165116" d="m649.96 842.39c-0.67796 6.6102-1.6037 12.595-4.1242 3.5387-0.17131 0.0477-0.0671 11.46 1.2205 11.165 0.23177 0 3.0197 0.0493 3.0197 0.0493z" opacity=".20935"/>
    <path id="path173068" d="m660.66 1056-0.27741-2.7518-7.0007 0.1909-0.13078-14.026 1.0779-120.52c5.3446-2.1543 5.251-7.4408 6.6863-11.847-2.3425 0.89834-5.5597 1.542-6.6096-0.27743-4.1099-7.1224-3.822-2.8872-3.9783-0.20295l-0.41678 132.92-1e-5 14.019 2.5868 0.583 1.5261 100.34c-0.57585 0.271-0.82169 0.9408-1.8989 0.6059l-1.3343 7.2427-0.50911 0.1419-0.7869 3.1523 5.6469 1.3064c-0.24914-1.2329-0.52964-2.4604 0.24085-3.869l-1.7065-0.384c-0.37645-2.4453 0.61763-4.8981 1.0083-7.3476l1.9-0.2072-1.6273-92.882c0.43344-3.8203 1.511-6.8521 5.6035-6.193z" opacity=".23984" stroke="#000" stroke-width=".26458px"/>
    <path id="path175136" d="m656.56 859.86-5.6016-2.2059 1.1794 32.386 1.8095-28.461c5.581 0.92269 7.1084-1.8656 6.7533-1.356l0.18068-0.85855z" opacity=".24594" stroke="#000" stroke-width=".26458px"/>
    <path id="path153039-6" d="m469.92 1162.7-0.7867-118.12-1.5768-1.8731 0.6828-132.35c1.7841 2.1563 8.989 1.8939 10.584-0.56821l1.0562 132.95-1.5368 2.099-0.99376 119.38c-2.9807 3.3332-6.0435 0.6331-7.4285-1.5131z" fill="#bdbdbd" stroke="#000" stroke-width="1.9279"/>
    <path id="path153039-1-1" d="m467.3 861.44c1.7841 2.1563 8.989 1.8939 10.584-0.56821 0.0809 18.855 0.16517 17.762 0.12763 34.164-3.335-2.0539-7.0102-1.6663-10.756 1.1398-0.0217-16.542-0.0542-15.636 0.0443-34.736z" fill="#bdbdbd" stroke="#000" stroke-width="1.9279"/>
    <path id="path159484-9" d="m479.09 1158.3 1.3944 7.2314 0.51027 0.1377 0.81304 3.1456c-4.5762 1.4454-9.8175 1.8048-16.13 0.4156l0.62931-2.7501 0.4332-0.2736 1.4106-7.7836z" fill="#191919" stroke="#000" stroke-width=".26458px"/>
    <rect id="rect160301-3" transform="matrix(-.99997 .0082969 .0082969 .99997 0 0)" x="-471.67" y="1046.7" width="13.242" height="14.019" ry="0" fill="#191919" stroke="#000" stroke-linecap="square"/>
    <ellipse id="path161479-3" transform="matrix(-.99997 .0082969 .0082969 .99997 0 0)" cx="-465.4" cy="911.57" rx="5.6376" ry="5.918" fill="#191919" stroke="#000" stroke-linecap="square"/>
    <path id="path162644-5" d="m476.97 893.27c0.17585-0.35417-4.1218-1.0595-4.5263-1.1018-0.38017-0.0399-1.0308-1.7112-1.2854-2.5531-2.0385-6.74-3.0295-20.903-3.0295-20.903l-2.1663 2.9559 1.0803 11.338s1.2082 6.1815 1.7945 8.8448c0.16839 0.76498-0.91176 2.1658-0.91176 2.1658l-0.99731 2.1643 11.08-1.1408z"/>
    <path id="path167091-4" d="m483.18 846.19s2.126 10.725-0.18944 15.251c-0.16617 0.32484-0.87961 0.65152-0.87961 0.65152 0.35635-5.3008-2.3926-12.739 1.069-15.902z" fill="#262626" stroke="#000" stroke-width=".26458px"/>
    <path id="path167091-2-2" d="m463.23 846.16s-2.1507 11.64 0.29753 16.172c0.12311 0.22791 0.70915 0.31776 0.70915 0.31776-0.44426-5.2942 2.507-13.384-1.0067-16.49z" fill="#464040" stroke="#000" stroke-width=".26458px"/>
    <path id="path163477-6" d="m478.81 844.95-11.8 0.0327c-1.9788 0.2987-4.1585 0.45018-2.9096 3.1134 0.0322 5.4292-0.56931 9.3571 0.13838 14.147l3.0654-0.80042c5.2164 0.95196 5.959 1.0406 10.584-0.56821 3.0714-1.2176 4.7929 0.026 4.2272 1.2203 0.84389-4.2238 0.1713-10.739-0.10779-14.196 0.89365-2.5091 1.2047-2.5581-3.1971-2.9488z" fill="#262626" stroke="#000" stroke-linejoin="round" stroke-width="1.5"/>
    <path id="path165112-9" d="m478.81 844.95-0.0425 15.412c0.27687 4.5447-4.4634-0.54748-5.5772 3.013-0.57586 1.8409 2.2677 27.906 1.843 30.534-0.15717 0.9724-1.6406-1.477-3.2957-0.25966-3.0449 2.2396-1.5854-10.179-2.8456-29.874-0.0526-0.82283 0.88527-2.131 0.13958-2.1883-1.7249-0.13237-3.4238-0.0867-4.6443-0.20207-0.0357-5.7207-1.0412-12.877-0.38738-14.493 0.79173-1.9565 1.3286 2.0129 3.0792-0.76243 5.0024 1.1258 7.6727 0.40628 11.52 0.36445z" opacity=".33537"/>
    <path id="path165114-2" d="m469.22 843.54-1.057 19.981-2.5511-0.59552 0.96611-19.332z"/>
    <path id="path165116-6" d="m478.76 845.61c0.73278 6.6043 1.7082 12.581 4.1534 3.5044 0.1717 0.0463 0.16218 11.459-1.1278 11.174-0.23176 2e-3 -3.0192 0.0744-3.0192 0.0744z" opacity=".20935"/>
    <path id="path173068-0" d="m469.83 1059.3 0.25456-2.754 7.002 0.1328 0.0144-14.026-2.0778-120.5c-5.3623-2.1099-5.3126-7.3969-6.7844-11.791 2.3499 0.87887 5.5723 1.4959 6.6071-0.33226 4.0507-7.1563 3.7979-2.9188 3.9765-0.23595l1.5196 132.91 0.11632 14.018-2.5819 0.6045-0.69353 100.35c0.57808 0.2662 0.82947 0.9339 1.9039 0.5901l1.3944 7.2314 0.51027 0.1377 0.81303 3.1456-5.6358 1.3532c0.2389-1.2349 0.50921-2.4647-0.27294-3.8668l1.7033-0.3982c0.35615-2.4483-0.65824-4.8928-1.0692-7.339l-1.9016-0.1914 0.85659-92.892c-0.46513-3.8166-1.5678-6.8393-5.6547-6.1463z" opacity=".23984" stroke="#000" stroke-width=".26458px"/>
    <path id="path175136-8" d="m472.3 863.12 5.5831-2.2523-0.91067 32.394-2.0456-28.445c-5.5731 0.96897-7.1236-1.8066-6.7643-1.3l-0.18779-0.85702z" opacity=".24594" stroke="#000" stroke-width=".26458px"/>
   </g>
  </g>
 </g>
</svg>
