<?xml version="1.0" encoding="UTF-8"?>
<!-- Created with Inkscape (http://www.inkscape.org/) -->
<svg width="210mm" height="297mm" version="1.1" viewBox="0 0 210 297" xmlns="http://www.w3.org/2000/svg" xmlns:xlink="http://www.w3.org/1999/xlink">
 <defs>
  <filter id="filter56877-9" x="-.006076" y="-.0045205" width="1.0122" height="1.009" color-interpolation-filters="sRGB">
   <feGaussianBlur stdDeviation="0.068291929"/>
  </filter>
  <filter id="filter68451" x="-.0099836" y="-.021725" width="1.0321" height="1.0519" color-interpolation-filters="sRGB">
   <feGaussianBlur stdDeviation="0.041568605"/>
  </filter>
  <filter id="filter56877-9-4" x="-.006076" y="-.0045205" width="1.0122" height="1.009" color-interpolation-filters="sRGB">
   <feGaussianBlur stdDeviation="0.068291929"/>
  </filter>
  <filter id="filter68451-6" x="-.0099836" y="-.021725" width="1.0321" height="1.0519" color-interpolation-filters="sRGB">
   <feGaussianBlur stdDeviation="0.041568605"/>
  </filter>
  <filter id="filter7966" x="-.0043238" y="-.0039441" width="1.0086" height="1.0079" color-interpolation-filters="sRGB">
   <feGaussianBlur stdDeviation="0.058264846"/>
  </filter>
  <filter id="filter7966-5" x="-.0043238" y="-.0039441" width="1.0086" height="1.0079" color-interpolation-filters="sRGB">
   <feGaussianBlur stdDeviation="0.058264846"/>
  </filter>
 </defs>
 <g>
  <path d="m59.408 45.214c-2.3349-0.08503-5.25 0.12842-7.3061 0.37779-1.0674 0.12945-2.2722-0.13643-3.4395 0.07617l-0.74219 0.13476 0.64844 0.38477c1.1807 0.70112 2.0681 1.4983 2.4004 2.5586-0.7849 0.25584-1.5761 0.5766-2.3125 1.2852l-0.48242 0.46484 0.66797 0.02148c0.60164 0.01949 0.95365 0.29373 1.3574 0.51367-0.4365 0.17572-0.84166 0.42085-1.1562 0.83203l-0.19141 0.25 0.26758 0.16211c0.36336 0.22102 0.47027 0.41335 0.53906 0.64453 0.06391 0.21476 0.07738 0.48912 0.1582 0.79102-0.48303 7.9647 0.89048 13.406 2.8262 18.172 1.9391 4.7746 4.4252 9.3854 6.1816 14.729l0.44197-0.86251c-1.779-5.4118-4.1822-9.3564-6.1002-14.079-1.918-4.7226-3.2707-10.055-2.7852-17.963l2e-3 -0.05078-0.01367-0.04883c-0.06971-0.23039-0.07157-0.51714-0.16992-0.84766-0.06612-0.2222-0.31315-0.43614-0.52734-0.65039 0.38934-0.42085 0.83589-0.69799 1.4258-0.76367l0.74609-0.08203-0.61719-0.42969c-0.43667-0.30462-0.9742-0.55511-1.6035-0.71484 0.58374-0.42404 1.1681-0.81739 1.7969-0.99609l0.25976-0.07422-0.0625-0.26172c-0.26632-1.1225-1.1122-1.9009-2.0898-2.5801 0.84094-0.02153 1.6931-0.25369 2.6242-0.36661 8.1424-0.98754 17.696-0.36198 34.451 9.998l0.31718-0.16855c-12.621-7.8041-20.508-10.201-27.512-10.456z" color="#000000" style="-inkscape-stroke:none"/>
  <g>
   <path d="m79.337 59.325c-5.9425-4.8407-14.366-10.758-26.495-12.452-1.6999 9.2376 4.451 23.938 8.0242 36.305 0.81904-1.2249 2.7529-5.6458 6.2624-11.043 2.8-4.3063 6.4962-9.3943 12.208-12.809z" fill="#ffe1b2" style="mix-blend-mode:normal"/>
   <path d="m79.817 59.282c-5.9425-4.8407-14.846-10.715-26.975-12.409 8.8782 3.5639 13.317 10.963 13.125 19.766-0.07923 3.6224-2.8709 10.468-8.5017 5.3729-0.81508-0.7375 3.2103 10.217 3.3895 11.118 0.81904-1.2249 3.2449-5.6418 6.7544-11.039 2.8-4.3063 6.4962-9.3943 12.208-12.809z" filter="url(#filter56877-9)" opacity=".11152" style="mix-blend-mode:normal"/>
   <path d="m65.454 52.133c1.3111 0.95646 2.048 1.6435 2.4586 2.9602-2.1893-0.22434-4.205-0.28607-7.1512 1.3727 1.1219 0.03209 2.9276 0.15881 4.2619 0.52608-1.1417-0.09646-2.119 0.25466-3.1914 0.92446 2.8783-0.15129 4.5004 0.52467 6.2761 1.3841-1.7352 1.4563-3.7961 2.1905-4.7883 4.2078 2.0316-1.2927 3.1198-0.85253 3.4185-0.68448-1.3774 0.76534-1.6491 1.1439-2.1039 2.4628 1.9436-1.2895 2.9777-1.126 4.746-1.4843-2.4989 1.9882-4.5873 3.2434-6.5721 5.9171 1.0379-0.24218 1.9191-1.4351 3.1846-0.48005-2.0896 1.8762-3.4601 3.425-4.6123 6.0855 1.2526-0.88733 2.6598-1.709 3.6378-1.7726-1.1206 1.8013-2.0526 3.9144-1.9499 5.6378 3.844-7.7564 10.695-16.66 16.468-19.908-0.65393-0.60033-8.7203-6.6995-14.082-7.1492z" fill="#ffefd7" stroke="#ffefd7" stroke-width=".26458px"/>
   <path d="m70.986 54.538c0.79598 0.63465 1.2434 1.0905 1.4927 1.9642-1.3292-0.14886-1.452-0.38553-3.2407 0.71513 0.6811 0.02129 1.5083 0.25216 2.3184 0.49586-0.54634 0.18063-1.8002 0.73165-2.4513 1.1761 1.7475-0.10039 3.711-0.33655 4.7891 0.23373-1.4694 0.35471-3.3813 0.86606-3.9836 2.2046 1.2334-0.85779 2.8237-0.46783 3.0051-0.35633-0.83626 0.50784-2.151 1.4196-2.4271 2.2947 1.18-0.85562 2.3705-0.03772 3.4441-0.27542-1.5171 1.3193-3.3477 1.4427-4.5527 3.2168 3.3247-1.7195 0.11524 2.1543-0.6377 4.1392 3.883-5.8189 10.19-11.01 11.075-11.065-0.39701-0.39834-5.5756-4.4454-8.831-4.7438z" fill="#cac9c7" opacity=".45603"/>
   <path d="m75.524 56.699c0.30811 0.69208 0.64517 1.1526 0.99934 1.4762-0.67158 0.07401-1.3461 0.13018-1.973 0.47249 1.4042 0.03303 1.7208 0.13856 2.5112 0.2125-0.64019 0.34122-1.2804 0.3419-1.9206 1.2667 0.99821-0.44327 2.0533-0.54522 3.0949-0.7285-1.0197 0.55116-2.368 0.68565-3.2537 3.425l4.5535-3.5416c-1.0195-1.2176-2.5193-1.7367-4.0116-2.5828z" stroke="#000" stroke-width=".26458px"/>
   <path transform="matrix(.26458 0 0 .26458 -.00013624 -.00021163)" d="m243.38 194.97c4.9553 3.615 8.8678 6.5745 10.42 11.551-9.1067-0.15443-16.908 1.3712-28.043 7.6406 4.2401 0.12128 19.338 0.9597 24.381 2.3478-5.043-1.3881-16.25-2.9785-20.49-3.0998 11.135-6.2694 18.755-6.0354 27.029-5.1875-1.5521-4.9762-4.3377-7.5725-9.293-11.188 6.9457 0.58256 15.614 3.3468 23.421 7.2493-9.3245-4.9116-19.675-8.6637-27.425-9.3137zm-4.6453 20.883c-3.4947 0.90307-6.8259 2.7696-9.1926 4.2478 10.879-0.57181 19.789 0.77514 26.5 4.0234-6.7114-3.2483-11.469-5.8042-22.348-5.2324 1.8325-1.1445 3.2641-2.4317 5.0403-3.0388zm22.604 4.8078c-6.9849 4.8395-21.865 13.326-26.141 22.961 7.6784-4.8859 17.04-6.1816 20.962-5.5278-1.1291-0.63511-9.1644-2.9538-16.843 1.9321 3.7499-7.6243 15.463-13.862 22.022-19.366zm-10.344 16.911c-6.0449 2.2402-10.741 7.7776-10.291 14.449 6.7558-6.0504 12.785-8.3193 19.493-9.9675-6.2913 0.73281-8.5647-0.17954-15.911 4.694 0.0192-3.2195 1.5029-6.2832 6.7089-9.1759zm9.2018 4.4818c-9.4445 7.5146-21.153 15.192-28.655 25.298 3.8616-0.90103 11.789-7.8435 16.735-5.7929-5.093-2.6174-7.033 1.0446-10.893 1.9452 7.5013-10.105 13.369-13.935 22.813-21.45zm39.96-18.38c0.16026 0.13395 0.36203 0.29902 0.45118 0.38086-0.0968-0.0889-0.25887-0.22464-0.45118-0.38086zm-41.616 29.547c-9.7936 6.8298-25.983 22.815-30.325 35.501 4.7342-3.3537 11.079-8.1388 14.775-8.3789-4.2354 6.8082-5.751 15.585-4.9929 20.712-0.0647-5.9129 3.5036-16.257 7.739-23.065-3.6964 0.24014-9.0158 3.3455-13.75 6.6992 4.3546-10.055 18.591-24.573 26.554-31.468z" style="mix-blend-mode:normal"/>
  </g>
  <path d="m56.794 45.509c-1.6794 0.06818-3.1864 0.0927-4.7007 0.27636-1.1338 0.1375-2.2919-0.03878-3.3798 0.15935 1.2741 0.75663 2.3274 1.6314 2.6298 2.9063-0.85754 0.24373-1.6987 0.62116-2.4913 1.3839 0.98302 0.03184 1.6165 0.4134 2.2143 0.83044-0.72101 0.08028-1.3385 0.36676-1.7989 0.96842 0.82508 0.50188 0.6616 1.0938 0.83147 1.6552-0.95767 15.597 5.4271 21.936 8.9994 32.307 0.02282 0.06626 0.74226-1.1272 1.757-2.866-3.0826-12.357-9.6846-27.031-8.0124-36.257 12.129 1.6941 20.552 7.6112 26.495 12.452l0.15905 0.1815c4.0016-2.4098 7.246-3.6226 7.1366-3.6893-13.511-8.3664-22.36-10.612-29.839-10.308z" color="#000000" fill="#ffce80" stroke-width=".565" style="-inkscape-stroke:none"/>
  <path d="m86.771 55.91-4.8157 2.1193c0.37768-3.4576-8.3016-6.9152-13.015-10.373 6.0905 2.0166 12 4.9368 17.831 8.2534z" filter="url(#filter68451)" opacity=".10603" stroke="#000" stroke-width=".26458px"/>
  <path d="m146.37 42.91c2.297-0.42719 4.4488-0.601 6.5192-0.65645 1.0748-0.02879 2.57 0.48528 3.7558 0.52406l0.75393 0.02425-0.58486 0.47587c-1.0648 0.86699-2.168 0.8318-2.3409 1.9294 0.81397 0.13774 1.6438 0.33874 2.4762 0.93141l0.54549 0.38891-0.65757 0.1194c-0.59224 0.10768-0.90014 0.43067-1.2672 0.70755 0.45758 0.10967 0.89436 0.29261 1.266 0.6531l0.22606 0.21916-0.24086 0.19967c-0.32694 0.27202-0.43517 0.4611-0.53636 0.68005-0.10252 0.22182-0.0582 0.53188 0.0577 0.84237 1.6481 7.8073 1.089 13.391-0.12536 18.39-1.2165 5.0077-3.0736 9.4256-4.0258 14.969l-0.48842-0.28004c0.9645-5.6145 2.762-9.8693 3.9652-14.822 1.2032-4.9531 1.7577-10.427 0.1155-18.177l-9e-3 -0.04993 6e-3 -0.05031c0.0351-0.23813-5e-3 -0.52205 0.0435-0.86342 0.0327-0.2295 0.24567-0.47742 0.42605-0.72082-0.44695-0.35907-0.92938-0.56759-1.5225-0.54588l-0.75004 0.02849 0.54735-0.51571c0.38717-0.36548 0.88206-0.69223 1.4811-0.9427-0.63971-0.33367-1.2756-0.63688-1.9237-0.72125l-0.26786-0.03524 0.0234-0.26806c0.0985-1.1495 1.1633-1.0896 2.0305-1.905-0.83497 0.10227-2.0545-0.86971-2.9921-0.84464-7.9445 0.51691-17.401 2.3781-32.608 14.865l-0.33849-0.12012c11.338-9.5739 19.549-13.147 26.44-14.428z" color="#000000" style="-inkscape-stroke:none"/>
  <g>
   <path d="m127.96 59.84c5.1667-5.6614 12.629-12.752 24.377-16.21 3.0388 8.8876-0.88535 24.332-2.6026 37.09-0.99014-1.0913-3.5526-5.18-7.8172-10.003-3.4023-3.8481-7.8061-8.3378-13.958-10.876z" fill="#ffe1b2" style="mix-blend-mode:normal"/>
   <path transform="matrix(-.98915 .14694 .14694 .98915 266.85 -20.686)" d="m149.7 59.201c-5.9425-4.8407-14.846-10.715-26.975-12.409 8.8782 3.5639 13.317 10.963 13.125 19.766-0.0792 3.6224-2.8709 10.468-8.5017 5.3729-0.81508-0.7375 3.2103 10.217 3.3895 11.118 0.81903-1.2249 3.2448-5.6418 6.7544-11.039 2.8-4.3063 6.4962-9.3943 12.208-12.809z" filter="url(#filter56877-9-4)" opacity=".11152" style="mix-blend-mode:normal"/>
   <path d="m140.64 50.686c-1.1563 1.1387-1.7843 1.9266-1.997 3.2893 2.1326-0.5436 4.1173-0.90083 7.2752 0.30703-1.105 0.19658-2.8725 0.58727-4.1384 1.1466 1.1151-0.26316 0.93979-0.54384 2.099-0.03888-2.6358 0.63656-2.8215 1.6112-4.4517 2.7223 1.6362 0.61467 4.2018 0.19194 5.4796 2.0415-2.1995-0.98019-3.6956 1.0855-3.9664 1.2956 1.4749 0.55464 1.7993 0.88922 2.443 2.127-1.3335-0.33253-1.6577-0.19193-3.4595-0.28643 2.7639 1.5995 3.561 2.0497 5.9171 4.4028-1.0622-0.08704-1.8148-1.2163-2.9262-0.08561 2.3426 1.5488 2.9395 1.4012 4.4701 3.8636-1.3694-0.69365-2.1901 0.25723-3.1668 0.33809 1.3731 1.6171 2.6055 3.5703 2.7571 5.2901-4.942-7.1074-13.027-14.908-19.214-17.272 0.55862-0.6899 7.6412-7.9081 12.879-9.1408z" fill="#ffefd7" stroke="#ffefd7" stroke-width=".26458px"/>
   <path d="m135.52 53.878c-0.6941 0.74472-1.7302 1.8485-1.8484 2.7493 1.2929-0.34255 2.0402-1.1818 3.9712-0.35595-0.67058 0.12114-1.4549 0.47106-2.2204 0.83114 0.56695 0.09839 1.8393 0.80168 2.5486 1.1456-1.7433 0.15747-2.6193-0.32582-3.6019 0.39668 1.5055 0.13496 1.3679 0.26197 2.1604 1.4975-1.346-0.66724-1.8098 0.24573-1.9729 0.38267 0.90181 0.37944 2.6054 1.7976 3.0071 2.6226-1.2929-0.67294-2.6194-0.39846-3.7163-0.47582 1.6945 1.082 3.5234 0.93508 4.976 2.5129-3.5413-1.2123 0.20256 2.1479 1.239 4.0006-4.6959-5.1851-11.697-9.393-12.581-9.3174 0.33418-0.45236 4.8619-5.2164 8.0381-5.9899z" fill="#cac9c7" opacity=".45603"/>
   <path d="m131.35 56.682c-0.20307 0.72984-0.4688 1.2349-0.77157 1.6071 0.67516-0.02547 1.3751-0.38706 2.0455-0.14058-1.3841 0.239-1.7062 0.70794-2.4772 0.89722 0.68339 0.24345 1.6592 0.0033 2.4284 0.82396-1.0525-0.29178-1.7442 0.32508-2.8014 0.29684 1.0896 0.39535 1.4549 0.20309 2.7336 2.7825l-4.7459-3.1228c0.82952-1.3542 2.2368-2.0881 3.5886-3.1442z" stroke="#000" stroke-width=".26458px"/>
   <path transform="matrix(-.26171 .038877 .038877 .26171 197.72 -10.499)" d="m243.38 194.97c4.9553 3.615 8.8678 6.5745 10.42 11.551-9.1067-0.15443-16.908 1.3712-28.043 7.6406 4.2401 0.12128 19.338 0.9597 24.381 2.3478-5.043-1.3881-16.25-2.9785-20.49-3.0998 11.135-6.2694 18.755-6.0354 27.029-5.1875-1.5521-4.9762-4.3377-7.5725-9.293-11.188 6.9457 0.58256 15.614 3.3468 23.421 7.2493-9.3245-4.9116-19.675-8.6637-27.425-9.3137zm-4.976 20.436c-3.4947 0.90307-2.3534 0.61802-4.6686 2.2207 10.879-0.57181 14.201 3.04 20.913 6.2883-6.7114-3.2483-6.3047-6.0232-16.76-7.4972 0 0-0.75439-0.11616 0.51621-1.0117zm22.935 5.2544c-7.1886 4.8036-24.876 6.4038-28.768 17.733 7.6784-4.8859 19.667-0.95356 23.589-0.29975-1.1291-0.63511-11.792-8.1819-19.47-3.296 3.7499-7.6243 18.091-8.6336 24.649-14.138zm-10.344 16.911c-6.0449 2.2402-10.741 7.7776-10.291 14.449 6.7558-6.0504 8.378-5.9462 15.086-7.5943-6.2913 0.73281-6.4664-0.29295-11.504 2.3209 0.0192-3.2195 1.5029-6.2832 6.7089-9.1759zm3.752 7.3839c-9.4445 7.5146-15.704 12.29-23.205 22.396 3.8616-0.90103 11.789-7.8435 16.735-5.7929-5.093-2.6174-7.033 1.0446-10.893 1.9452 7.5013-10.105 7.9188-11.033 17.363-18.548zm45.41-21.282c0.16026 0.13395 0.36203 0.29902 0.45118 0.38086-0.0968-0.0889-0.25887-0.22464-0.45118-0.38086zm-41.616 29.547c-9.7936 6.8298-24.261 16.61-28.603 29.297 4.7342-3.3537 9.3568-1.934 13.053-2.1742-4.2354 6.8082-5.751 15.585-4.9929 20.712-0.0647-5.9129 3.5036-16.257 7.739-23.065-3.6964 0.24014-7.2935-2.8592-12.028 0.49451 4.3546-10.055 16.869-18.368 24.832-25.263z" style="mix-blend-mode:normal"/>
  </g>
  <path d="m148.12 42.94c1.6629-0.2446 3.2463-0.36228 4.7711-0.40312 1.1417-0.03059 2.6339 0.48706 3.7391 0.52319-1.1492 0.93564-2.4049 1.0016-2.5167 2.3071 0.88405 0.11508 1.7715 0.36482 2.6676 1.0028-0.96766 0.17594-1.5382 0.64644-2.0683 1.1468 0.72498-0.02654 1.3779 0.1661 1.9216 0.69358-0.7424 0.61766-0.73144 1.1451-0.57925 1.7594 3.2391 15.287-2.1449 22.496-4.1546 33.279-0.0128 0.06889-0.89982-1.0059-2.159-2.5767 1.2334-12.676 5.6075-28.161 2.5979-37.041-11.748 3.4579-19.211 10.548-24.377 16.21l-0.13066 0.2029c-4.3122-1.7956-7.6996-2.5185-7.6013-2.6006 11.977-9.9901 20.684-13.443 27.89-14.503z" color="#000000" fill="#ffce80" stroke-width=".565" style="-inkscape-stroke:none"/>
  <g>
   <path transform="matrix(-.98915 .14694 .14694 .98915 266.85 -20.686)" d="m156.65 55.828-4.8157 2.1193c0.37768-3.4576-8.3016-6.9152-13.015-10.373 6.0905 2.0166 12 4.9368 17.831 8.2534z" filter="url(#filter68451-6)" opacity=".10603" stroke="#000" stroke-width=".26458px"/>
   <path d="m86.707 55.607c-15.727 6.1127-20.785 18.639-27.956 30.723l-0.35154 1.475c7.1836-12.105 13.943-26.301 29.573-32.375z" color="#000000" style="-inkscape-stroke:none"/>
   <path d="m86.707 55.607c-15.727 6.1127-20.712 18.921-27.883 31.004l-1.3549 3.8968c7.1836-12.105 16.711-29.38 32.341-35.455z" color="#000000" filter="url(#filter7966)" opacity=".16938" style="-inkscape-stroke:none"/>
   <path d="m119.93 57.339c16.512 3.4729 23.247 14.924 32.288 25.68l0.58679 1.3981c-9.0571-10.775-18.036-23.682-34.445-27.133z" color="#000000" style="-inkscape-stroke:none"/>
   <path transform="matrix(-.98668 .16267 .16267 .98668 257.14 -18.072)" d="m147.65 52.085c-15.727 6.1127-20.437 18.788-27.607 30.871l-1.3549 3.8968c7.1836-12.105 16.711-29.38 32.341-35.455z" color="#000000" filter="url(#filter7966-5)" opacity=".16938" style="-inkscape-stroke:none"/>
  </g>
 </g>
</svg>
