<?xml version="1.0" encoding="UTF-8"?>
<svg id="svg5" width="1200mm" height="1200mm" version="1.1" viewBox="0 0 1200 1200" xmlns="http://www.w3.org/2000/svg" xmlns:xlink="http://www.w3.org/1999/xlink">
 <defs id="defs77">
  <filter id="filter12880" x="-.073865" y="-.20547" width="1.1477" height="1.411" color-interpolation-filters="sRGB">
   <feGaussianBlur id="feGaussianBlur8-27" stdDeviation="1.0652808"/>
  </filter>
  <filter id="filter12872" x="-.52518" y="-.37316" width="2.0363" height="1.7291" color-interpolation-filters="sRGB">
   <feGaussianBlur id="feGaussianBlur2-706" stdDeviation="1.0652808"/>
  </filter>
  <filter id="filter12876" x="-.10857" y="-.21468" width="1.2171" height="1.4294" color-interpolation-filters="sRGB">
   <feGaussianBlur id="feGaussianBlur5-6" stdDeviation="1.0652808"/>
  </filter>
 </defs>
 <g id="layer60" transform="translate(19.4 11.241)">
  <g id="layer214">
   <g id="g10444">
    <g id="g10431" transform="matrix(4.1461 0 0 4.1461 114.51 46.945)" fill="none" stroke="#000">
     <path id="path10425" transform="rotate(2.2245,105.15,97.74)" d="m112.92 107.7c-4.35 12.095-15.063 16.217-27.56 15.356-10.975-0.75597-20.378-7.9621-24.366-18.23" filter="url(#filter12880)" opacity=".33876" stroke-linecap="round" stroke-linejoin="round" stroke-width="2.4232"/>
     <path id="path10427" transform="rotate(2.2245,105.15,97.74)" d="m109.74 113.51c2.1626-0.69626 3.6237-0.78448 5.3654 0.2966l-1.4959-7.9431z" fill="#000" fill-opacity=".62423" filter="url(#filter12872)" opacity=".33876" stroke-width=".26458px"/>
     <path id="path10429" transform="rotate(2.2245,105.15,97.74)" d="m148.48 106.57a17.288 17.043 0 0 1-18.422 14.627 17.288 17.043 0 0 1-15.985-17.188" filter="url(#filter12876)" opacity=".33876" stroke-linecap="round" stroke-linejoin="round" stroke-width="2.2873"/>
    </g>
    <path id="path10434" d="m730.74 495.8a71.677 70.662 2.2245 0 1-78.676 57.634 71.677 70.662 2.2245 0 1-63.459-73.782" color="#000000" fill-rule="evenodd" stroke-linecap="round" stroke-linejoin="round" stroke-width="9.4833" style="-inkscape-stroke:none"/>
    <path id="path10436" d="m587.29 480.02a117.24 120.74 2.2245 0 1-117.35 74.218 117.24 120.74 2.2245 0 1-104.8-91.536" color="#000000" fill-rule="evenodd" stroke-linecap="round" stroke-linejoin="round" stroke-width="10.047" style="-inkscape-stroke:none"/>
    <path id="path10438" d="m571.32 510.73c9.0716-2.5365 15.139-2.6669 22.181 2.0923l-7.1838-27.487z" stroke-width="4.1461"/>
    <path id="path10440" d="m587.35 482.77c-2.6166-0.13047-4.8431 1.8857-4.9721 4.5024-2.0005 39.71 29.188 66.328 69.154 70.869 39.967 4.5405 76.75-22.369 83.877-61.495 0.4693-2.576-1.2382-5.0448-3.8141-5.5146-2.576-0.46933-5.0448 1.2382-5.5146 3.8141-6.2347 34.229-38.323 57.772-73.48 53.778-35.156-3.9945-62.506-26.238-60.757-60.974 0.13517-2.6166-1.8775-4.8469-4.4943-4.9802z" color="#000000" fill-rule="evenodd" stroke-linecap="round" stroke-linejoin="round" stroke-width="4.1461" style="-inkscape-stroke:none"/>
    <path id="path10442" d="m363.98 457.81c-2.7023 0.63813-4.3743 3.3475-3.7331 6.0491 12.482 52.715 56.562 91.274 109.3 95.384 52.734 4.1117 98.756-20.812 119.03-70.981 1.037-2.5693-0.20207-5.4931-2.7695-6.5349-2.5716-1.0424-5.5013 0.19762-6.5431 2.7695-18.699 46.268-60.616 68.497-108.93 64.73-48.317-3.7656-88.792-39.052-100.31-87.683-0.63826-2.6983-3.3421-4.3692-6.041-3.7331z" color="#000000" fill-rule="evenodd" stroke-linecap="round" stroke-linejoin="round" stroke-width="4.1461" style="-inkscape-stroke:none"/>
    <rect id="rect10745" x="391.5" y="480.62" width="18.785" height="18.785" ry=".2254" fill="#fff" fill-rule="evenodd" style="paint-order:fill markers stroke"/>
    <rect id="rect10745-8" x="409.89" y="498.48" width="18.785" height="18.785" ry=".2254" fill="#fff" fill-rule="evenodd" style="paint-order:fill markers stroke"/>
    <rect id="rect10745-2" x="428.41" y="516.47" width="18.785" height="18.785" ry=".2254" fill="#fff" fill-rule="evenodd" style="paint-order:fill markers stroke"/>
    <rect id="rect10745-82" x="429.27" y="480.29" width="18.785" height="18.785" ry=".2254" fill="#fff" fill-rule="evenodd" style="paint-order:fill markers stroke"/>
    <rect id="rect10745-8-8" x="447.66" y="498.15" width="18.785" height="18.785" ry=".2254" fill="#fff" fill-rule="evenodd" style="paint-order:fill markers stroke"/>
    <rect id="rect10745-2-7" x="466.18" y="516.14" width="18.785" height="18.785" ry=".2254" fill="#fff" fill-rule="evenodd" style="paint-order:fill markers stroke"/>
    <rect id="rect10745-25" x="603.26" y="497.59" width="13.893" height="13.893" ry=".1667" fill="#fff" fill-rule="evenodd" style="paint-order:fill markers stroke"/>
    <rect id="rect10745-8-9" x="616.86" y="510.8" width="13.893" height="13.893" ry=".1667" fill="#fff" fill-rule="evenodd" style="paint-order:fill markers stroke"/>
    <rect id="rect10745-2-6" x="630.56" y="524.11" width="13.893" height="13.893" ry=".1667" fill="#fff" fill-rule="evenodd" style="paint-order:fill markers stroke"/>
    <rect id="rect10745-82-8" x="631.2" y="497.35" width="13.893" height="13.893" ry=".1667" fill="#fff" fill-rule="evenodd" style="paint-order:fill markers stroke"/>
    <rect id="rect10745-8-8-6" x="644.8" y="510.56" width="13.893" height="13.893" ry=".1667" fill="#fff" fill-rule="evenodd" style="paint-order:fill markers stroke"/>
    <rect id="rect10745-2-7-8" x="658.49" y="523.86" width="13.893" height="13.893" ry=".1667" fill="#fff" fill-rule="evenodd" style="paint-order:fill markers stroke"/>
   </g>
  </g>
 </g>
</svg>
