<?xml version="1.0" encoding="UTF-8"?>
<svg width="1200mm" height="1200mm" version="1.1" viewBox="0 0 1200 1200" xmlns="http://www.w3.org/2000/svg" xmlns:xlink="http://www.w3.org/1999/xlink">
 <defs>
  <filter id="filter83355-5-9-7" x="-.017303" y="-.053342" width="1.0346" height="1.1067" color-interpolation-filters="sRGB">
   <feGaussianBlur stdDeviation="0.23823084"/>
  </filter>
  <filter id="filter5543-6-5-2" x="-.0052051" y="-.0015182" width="1.0065" height="1.0051" color-interpolation-filters="sRGB">
   <feGaussianBlur stdDeviation="0.0045646585"/>
  </filter>
  <filter id="filter6257-4-1-2" x="-.01264" y="-.0043461" width="1.0206" height="1.0128" color-interpolation-filters="sRGB">
   <feGaussianBlur stdDeviation="0.020753834"/>
  </filter>
  <filter id="filter6257-8-7-3-3" x="-.03649" y="-.0052644" width="1.0778" height="1.0146" color-interpolation-filters="sRGB">
   <feGaussianBlur stdDeviation="0.087166883"/>
  </filter>
  <filter id="filter6257-8-1-6-4-4" x="-.00993" y="-.0026757" width="1.0199" height="1.0054" color-interpolation-filters="sRGB">
   <feGaussianBlur stdDeviation="0.0042469749"/>
  </filter>
 </defs>
 <g>
  <g stroke="#000">
   <g transform="matrix(4.1461 0 0 4.1461 132.77 56.633)" fill="none" opacity=".45528" stroke-width=".26458px">
    <path d="m96.609 192.57 11.343 0.10336h0.12919"/>
    <path d="m109.11 192.6 11.834-0.41341"/>
   </g>
   <path d="m525 857.39 9.9253-121.07c6.7017-64.227 1.7608-10.173-0.53617-2.8244-3.9137 12.522-27.309 166.61-27.309 166.61-15.794 14.134-32.946 2.2411-32.884 0.81043 1.2453-28.957 24.716-167.31 48.928-234.47 19.713-54.679 45.847-45.437 45.847-45.437l25.981 8e-3c29.618-6.5465 57.101 56.892 74.364 128.47 0 0 13.653-5.3679 30.257-9.5523 3.4696 3.4448 7.4373 8.0953 14.156 9.9154 1.9528 0.52898-62.462 77.567-70.503 33.484-7.0385-38.586-9.8574-46.812-9.8619-47.124-5.8999-57.403-2.1656-13.14-2.0901-4.734l12.284 130.37c-32.223 9.6583-101.87 12.931-118.56-4.4475z" fill="#5e87c5" stroke-linejoin="round" stroke-width="3.0018"/>
   <path d="m579.45 626.29s7.6246 5.9728 11.829 8.3386c15.417 8.6753 43.65 18.129 48.65 21.206 6.7328 4.1444 11.104-12.581 12.047-20.431 0.69285-5.766-1.5312-12.051-5.042-16.677-2.6479-3.4893-11.091-7.0475-11.091-7.0475-40.888 9.3187-80.243 9.2491-118.29 3.1027 0 0-16.628 13.018-15.282 21.786 1.434 9.3415 14.708 19.475 22.495 17.259 14.41-4.1004 27.905-12.195 41.305-19.392 4.6001-2.4705 13.381-8.1446 13.381-8.1446z" fill="#5e87c5" stroke-width="2.3425"/>
  </g>
  <path transform="matrix(4.1461 0 0 4.1461 131.88 58.685)" d="m121.55 133.38s-5.6868 2.9935-10.749 5.5352c12.838 5.2685 16.656 7.4143-1.1773 0.87224-1.9044 0.79811-2.7016 1.303-4.1596 1.8098-3.346 1.163-10.422 2.0774-10.422 2.0774-2.2317-0.0294-4.7855-0.95292-5.5932-4.2604-0.98349-1.0588 0.31293-2.8553 3.5696-5.2859 1.3959 0.27987 7.6057 0.80592 11.423 0.98841 2.3881 0.11415 7.1721 0.0661 7.1721 0.0661 3.4572-0.34814 13.078-2.8305 9.9356-1.8029z" fill-opacity=".99763" filter="url(#filter83355-5-9-7)" opacity=".3792"/>
  <g fill="#fff" stroke-width=".26458" aria-label="I  AM...">
   <path d="m553.74 688.34v-4.4577q0-1.7611-0.0275-2.9993 0-1.2382 0-2.2839h-2.0362q-0.0275-0.63288-0.055-1.2382t-0.0275-1.2382 0.0275-1.2658q0.0275-0.63288 0.055-1.2382h8.4751q0.0275 0.63288 0.0275 1.2658 0 0.60537 0 1.2382t0 1.2382-0.0275 1.2382h-2.0087q-0.055 1.8436-0.0825 3.6322 0 1.7886 0 3.9899v2.1188h2.0913q0.0275 0.9906 0.0275 1.9537 0 0.96309 0 1.9537 0 0.96308 0 1.9537 0 0.96309-0.0275 1.9262h-8.4751q-0.0275-0.96308-0.055-1.9262-0.0275-0.9906-0.0275-1.9537 0-0.9906 0.0275-1.9537 0.0275-0.96308 0.055-1.9537z"/>
   <path d="m567.19 696.12 4.0725-22.509h6.7966l4.045 22.509h-4.6503l-0.68792-4.5127h-4.2376l-0.6604 4.5127zm6.0812-9.4382h2.7517l-1.3758-9.0805z"/>
   <path d="m596.25 682.34-3.5496 12.823h-2.5591l-3.3295-12.465q0.0275 3.357 0.11007 6.7691 0.11007 3.4121 0.1651 6.659h-4.3476q0.055-2.8342 0.0826-5.6134 0.0275-2.8067 0.0275-5.6409t-0.0275-5.6134q-0.0275-2.8067-0.0826-5.6409h5.8886l2.9168 12.905 3.2745-12.905h5.5584q-0.0826 5.6134-0.0826 11.254t0.0826 11.254h-4.4027z"/>
   <path d="m604.39 690.51q0.68792 0 1.2107 0.27517 0.55034 0.27517 0.90806 0.71544 0.38523 0.41275 0.57785 0.93556 0.19261 0.4953 0.19261 0.96309 0 0.60537-0.24765 1.1557-0.22013 0.55033-0.63288 0.96308-0.38523 0.41275-0.93557 0.6604-0.52282 0.24766-1.1007 0.24766-0.74295 0-1.2933-0.24766-0.55034-0.22013-0.90805-0.60536-0.35772-0.41275-0.55034-0.90805-0.1651-0.4953-0.1651-1.0181 0-0.55034 0.19262-1.1007 0.19262-0.57785 0.55033-1.0181 0.38524-0.46778 0.93557-0.74295 0.55034-0.27517 1.2658-0.27517z"/>
   <path d="m610.81 690.51q0.68792 0 1.2107 0.27517 0.55034 0.27517 0.90805 0.71544 0.38524 0.41275 0.57785 0.93556 0.19262 0.4953 0.19262 0.96309 0 0.60537-0.24765 1.1557-0.22013 0.55033-0.63288 0.96308-0.38524 0.41275-0.93557 0.6604-0.52282 0.24766-1.1007 0.24766-0.74295 0-1.2933-0.24766-0.55034-0.22013-0.90805-0.60536-0.35772-0.41275-0.55034-0.90805-0.1651-0.4953-0.1651-1.0181 0-0.55034 0.19262-1.1007 0.19262-0.57785 0.55033-1.0181 0.38524-0.46778 0.93557-0.74295t1.2658-0.27517z"/>
   <path d="m617.22 690.51q0.68792 0 1.2107 0.27517 0.55033 0.27517 0.90805 0.71544 0.38523 0.41275 0.57785 0.93556 0.19262 0.4953 0.19262 0.96309 0 0.60537-0.24765 1.1557-0.22014 0.55033-0.63289 0.96308-0.38523 0.41275-0.93557 0.6604-0.52281 0.24766-1.1007 0.24766-0.74295 0-1.2933-0.24766-0.55033-0.22013-0.90805-0.60536-0.35772-0.41275-0.55033-0.90805-0.1651-0.4953-0.1651-1.0181 0-0.55034 0.19261-1.1007 0.19262-0.57785 0.55034-1.0181 0.38523-0.46778 0.93556-0.74295 0.55034-0.27517 1.2658-0.27517z"/>
  </g>
  <g transform="matrix(4.1461 0 0 4.1461 131.88 58.686)" stroke="#000">
   <g fill-opacity=".72065">
    <path d="m107.95 136.9-4.928-1.9316c4.5239 0.18121 8.142 0.10463 10.848-0.23151l-5.9199 2.1631" stroke-width=".26458px"/>
    <ellipse cx="104.07" cy="138.72" rx=".48783" ry=".42168" fill-rule="evenodd" stroke-linecap="round" stroke-linejoin="round" stroke-width=".165"/>
    <ellipse cx="111.44" cy="138.63" rx=".48783" ry=".42168" fill-rule="evenodd" stroke-linecap="round" stroke-linejoin="round" stroke-width=".165"/>
   </g>
   <g stroke-width=".26458px">
    <path d="m104.16 138.77-0.18709 12.114" fill="none"/>
    <path d="m111.43 138.61 0.0468 11.553" fill="none"/>
    <path d="m96.11 134.56-0.37522 0.0887c-1.3785 1.0146-4.1573 4.6053 12.215 2.2563l-4.0793-1.6444z" fill-opacity=".53441"/>
    <path d="m119.93 133.79c1.3785 1.0146 4.3911 5.4589-11.982 3.1099l5.6696-2.1004c2.1449 0.0534 2.882-0.63467 6.3121-1.0094z" fill-opacity=".53441"/>
    <g fill-opacity=".99763">
     <path d="m97.941 155.84c5.6508 14.032-13.638 40.452 25.473 37.865-13.242 2.5658-23.569 2.8345-28.596-1.0727z" filter="url(#filter5543-6-5-2)" opacity=".16"/>
     <path d="m120.3 156.5s3.3796 9.5251 4.0224 14.499c1.6393 6.5507 10.385 2.178 10.385 2.178-3.1695 1.8012-5.7602 7.7785-11.054 3.2183 0 0-2.5705-12.326-3.3528-19.896z" filter="url(#filter6257-4-1-2)" opacity=".16"/>
     <path transform="matrix(-1,0,0,1,185.48,1.4479)" d="m87.536 154.4s3.3796 9.5251 4.0224 14.499c1.8323 14.18 5.3361 33.568 5.3361 33.568l-1.9134-0.97339c-3.1498-15.591-5.4225-31.503-7.4451-47.094z" filter="url(#filter6257-8-7-3-3)" opacity=".16"/>
     <path transform="matrix(-1,0,0,1.1552,179.47,-30.16)" d="m82.578 149.62c0.965-0.4498 5.0211 8.8061 5.8876 13.938 4.4285 14.18 8.7258 38.907 8.4287 38.907l-2.8812 0.0534c0.77903-13.566-4.4547-34.878-11.435-52.898z" filter="url(#filter6257-8-1-6-4-4)" opacity=".16" stroke-linejoin="round" stroke-width=".26423"/>
    </g>
    <path d="m82.848 199.4c2.712 1.4525 5.424 1.3129 8.1359 0.0331" fill="none"/>
    <path d="m134.16 165.53s1.7509 4.5729 3.9589 4.4226" fill="none"/>
   </g>
  </g>
  <path d="m669.8 748.68c-0.27369 0.0548-0.50326 0.133-0.95312 0.27344-0.44987 0.14044-1.0376 0.3291-1.7188 0.55078-5.0844 1.207-9.1669 4.1561-10.869 5.7324 0 0 3.2983-1.115 6.7031-2.25 1.7024-0.56747 3.4313-1.1395 4.7852-1.5801 0.67691-0.22029 1.2612-0.40683 1.6973-0.54296 0.4361-0.13614 0.80745-0.23454 0.74805-0.22266z" color="#000000" style="-inkscape-stroke:none"/>
  <g transform="matrix(.27685 0 0 .27685 472.55 522.38)" fill="#fbfcff" stroke="#fff">
   <g transform="matrix(.91441 0 0 .91441 299.32 576.07)" fill="#fbfcff" stroke="#fff">
    <path d="m128.38 122.38c-0.10618-0.0257-0.62743-0.11705-1.1583-0.20298-2.2203-0.35935-4.6187-1.4106-6.5736-2.8812-3.9178-2.9474-6.1682-7.4745-6.1682-12.409 0-0.93371-0.0453-1.4434-0.12143-1.3667-0.0668 0.0673-0.50447 0.89936-0.97265 1.8491-1.4378 2.9168-3.4041 5.5958-5.6275 7.6672-10.35 9.6423-26.145 9.6423-36.494 0-2.2749-2.1194-4.243-4.8225-5.6908-7.8161-1.0485-2.168-1.6806-4.0092-2.1206-6.1768-1.1581-5.7057-0.45472-11.573 2.0008-16.689 1.4721-3.0668 2.9533-5.1727 5.2629-7.4823 10.414-10.414 27.176-10.414 37.59 0 2.3096 2.3096 3.7908 4.4155 5.2629 7.4823 1.9529 4.0685 2.834 8.7728 2.4743 13.211-0.0846 1.0441-0.18815 2.0287-0.2301 2.188-0.15078 0.57247 0.20715 0.27701 0.71236-0.58803 0.77775-1.3317 1.5569-2.3085 2.7711-3.4742 2.9217-2.8049 6.5946-4.2714 10.698-4.2714 8.5897 0 15.506 6.9379 15.503 15.55-3e-3 6.26-3.7982 11.885-9.6588 14.314-1.7167 0.71149-3.3174 1.035-5.3992 1.0913-0.6854 8e-3 -1.8243 0.0578-2.0602 5e-3zm5.3034-1.2665c2.3913-0.63206 4.5354-1.8436 6.3562-3.5916 3.0902-2.9667 4.5573-6.3765 4.5573-10.592 0-2.6621-0.43113-4.4634-1.6186-6.7626-2.0521-3.9732-5.7649-6.7594-10.203-7.6568-1.5055-0.3044-5.0577-0.2054-6.4591 0.18002-5.22 1.4356-9.1355 5.3639-10.581 10.616-0.25709 0.93381-0.28828 1.3401-0.28319 3.6879 5e-3 2.4972 0.0246 2.7005 0.35744 3.7968 0.40251 1.3256 1.2762 3.2163 1.9809 4.2868 0.68977 1.0478 2.7334 3.1176 3.8128 3.8615 1.6993 1.1712 3.4931 1.9482 5.4261 2.3503 1.7424 0.36246 4.9372 0.27795 6.6548-0.17603zm-41.368 0.1598c4.7611-0.51748 9.6127-2.5504 13.412-5.62 1.1393-0.9204 3.3028-3.1267 4.1369-4.2188 1.0789-1.4126 2.0397-2.993 2.8716-4.7233 1.8558-3.8602 2.635-7.6347 2.4776-12.002-0.20035-5.5609-2.0504-10.572-5.5615-15.065-0.9084-1.1623-3.2134-3.4437-4.3751-4.3304-7.8562-5.9962-18.287-7.0781-26.982-2.7987-2.7108 1.3341-4.5241 2.6137-6.7224 4.7438-4.8177 4.6683-7.0818 11.12-7.7653 17.45-0.43853 4.0614 0.62189 8.1421 2.4776 12.002 1.3315 2.7695 2.6333 4.6402 4.7523 6.829 2.1655 2.2368 4.2716 3.785 7.0411 5.1761 2.5024 1.2569 5.7682 2.2447 8.4074 2.5429 1.4693 0.16601 4.3671 0.17305 5.829 0.0142z" stroke-width="2.734" style="paint-order:stroke fill markers"/>
    <g stroke-width="1.367">
     <path d="m64.159 85.819-9.6573-3.0427 0.92604-3.3073 9.2604 5.0932z"/>
     <path d="m65.734 80.49-8.8664-4.8896 1.5608-3.0593 8.0724 6.8214z"/>
     <path d="m68.661 76.139-7.4912-6.8119 2.2276-2.6141 6.2711 8.507z"/>
     <path d="m146.78 103.49 6.6925-2.1102-0.64175-2.2937-6.4175 3.5323z"/>
     <path d="m145.2 98.737 6.1444-3.3911-1.0817-2.1217-5.5942 4.7308z"/>
     <path d="m142.42 94.96 5.1914-4.7242-1.5437-1.813-4.3459 5.8998z"/>
    </g>
   </g>
  </g>
 </g>
</svg>
