<?xml version="1.0" encoding="UTF-8"?>
<svg id="svg5" width="1200mm" height="1200mm" version="1.1" viewBox="0 0 1200 1200" xmlns="http://www.w3.org/2000/svg" xmlns:xlink="http://www.w3.org/1999/xlink">
 <defs id="defs77">
  <filter id="filter26428" x="-9.8029e-6" y="-4.1388e-6" width="1" height="1" color-interpolation-filters="sRGB">
   <feGaussianBlur id="feGaussianBlur26430" stdDeviation="1.9508367e-05"/>
  </filter>
 </defs>
 <g id="layer60" transform="translate(19.4 11.241)">
  <g id="layer17">
   <g id="layer168">
    <path id="path5230" d="m513.9 840.24c-0.63072 2.4715-1.4713 4.943-0.34035 7.4145-3.3769 38.716-6.9385 77.468-5.2868 115.18l-8.5564 186.41c3.1027 7.6275 11.607 13.893 36.069 14.738 16.345-1.2377 16.059-8.3767 16.871-15.126 3.1069-45.129 3.8124-90.438 7.4129-135.53 6.2565-28.463 4.8835-61.163 7.3252-91.744 5.3008 52.324 3.1237 104.65 15.902 156.97l4.0301 79.567c0 2.485 25.061 5.0574 32.038 3.1492 6.977-1.9083 16.401-2.4122 15.902-10.278-4.1383-68.403 0.11277-94.894-12.415-205.21 2.3608-31.943-3.3791-69.457-5.6636-97.48 1.6643-2.7217 0.73647-5.83-0.77005-8.8647-35.025 3.579-67.432 4.471-102.52 0.80882z" fill="#bcbcbc" stroke="#000" stroke-width="1.9279"/>
    <path id="path15625" d="m513.69 845.1c32.65 5.0278 66.869 5.8963 104.01-0.72573" fill="none" opacity=".42628" stroke="#000" stroke-dasharray="0.538991, 0.538991" stroke-width=".2695"/>
    <path id="path8743" d="m559.51 1011.5-8.5445 26.563c4.9918-5.9852 8.8714-21.708 10.211-25.954z" color="#000000" stroke-width="4.1461"/>
    <path id="path9418" d="m514.64 847.04-0.89886 0.62353c0.45828 0.65839 1.2538 1.2635 2.2674 1.5224 0.93729 0.23922 2.0719 0.0166 3.1744-0.64783 1.6831 1.1037 3.6829 1.8081 6.1462 0.85836l-0.48587-0.0415c2.7329 1.6705 7.9169 1.171 10.116 0.65633-5.0571-0.19197-7.1333-0.17455-9.5412-1.5957l-0.23484-0.13765-0.25104 0.097c-2.2846 0.88084-3.9248 0.33335-5.4822-0.77739l-0.3158-0.22679-0.31581 0.2185c-0.94483 0.65579-1.8049 0.71483-2.5427 0.52635-0.73784-0.18865-1.3482-0.66392-1.6358-1.077z" color="#000000" stroke-width="4.1461" style="-inkscape-stroke:none"/>
    <path id="path9420" d="m616.42 847.72c-0.90439 1.203-2.5276 1.9163-4.3947 1.6067l-0.10531-0.0166-0.10531 0.0249c-1.7487 0.3831-2.8446 1.2154-6.1624 0.46154l-0.12935-0.0332-0.12148 0.0332c-0.9745 0.24172-1.814 0.61678-2.6642 0.76931-1.7631 0.22223-3.9664 0.29727-5.4938 0.13889 1.3502 0.67515 4.6676 1.1213 5.6881 0.93818 1.0206-0.18326 1.8793-0.56681 2.729-0.77739h-0.25084c3.5529 0.80728 5.1394-0.13268 6.6402-0.46158l-0.20233 8e-3c2.2687 0.37605 4.218-0.61503 5.3446-2.1135z" color="#000000" stroke-width="4.1461" style="-inkscape-stroke:none"/>
    <path id="path9420-3" d="m570.36 850.49-0.10365-0.0249-0.10656 0.0166c-1.771 0.2612-2.9218 1.016-6.1796 0.0332l-0.12645-0.0419-0.12356 0.0207c-0.98884 0.17372-1.8523 0.48981-2.711 0.58343-1.7743 0.0995-3.9774 0.0207-5.4903-0.24089 1.3003 0.76682 4.579 1.441 5.6097 1.3289 1.0308-0.11236 1.914-0.43559 2.7762-0.58701l-0.25042-0.0166c3.4886 1.0508 5.1363 0.22264 6.6562-2e-3l-0.20233-8e-3c2.2373 0.53186 5.8275 0.91172 7.0549-0.50541-2.2023 0.31593-4.458-8e-3 -6.8032-0.5562z" color="#000000" stroke-width="4.1461" style="-inkscape-stroke:none"/>
    <path id="path15557" d="m566.54 842.08c-1.3609 26.663-0.58995 52.926 0.9594 79.043" fill="none" opacity=".24038" stroke="#000" stroke-dasharray="1.07798, 0.538991" stroke-width=".2695"/>
    <ellipse id="path14157" cx="561.8" cy="847.09" rx="1.097" ry="1.4741" fill="#bcbcbc" stroke="#000" stroke-linecap="round" stroke-linejoin="round" stroke-width=".6841"/>
    <path id="path14810" d="m561.27 846.89-0.0647 22.285h1.0932l0.073-22.277c-0.54472-0.49098-0.80517-0.20025-1.1015-8e-3z" color="#000000" stroke-width="4.1461" style="-inkscape-stroke:none"/>
    <ellipse id="path14157-2" cx="572.5" cy="847.02" rx="1.097" ry="1.4741" fill="#bcbcbc" stroke="#000" stroke-linecap="round" stroke-linejoin="round" stroke-width=".6841"/>
    <path id="path14810-8" d="m571.97 846.85-0.0647 22.277 1.0932 8e-3 0.073-22.285c-0.43384-0.4001-0.79687-0.37564-1.1015-2.1e-4z" color="#000000" stroke-width="4.1461" style="-inkscape-stroke:none"/>
    <path id="path15627" d="m514.08 842.31c33.527 3.7097 67.604 3.7763 102.86-0.48343" fill="none" opacity=".42628" stroke="#000" stroke-dasharray="0.538991, 0.538991" stroke-width=".2695"/>
    <path id="path19630" d="m509.34 962.28-1.9111 0.25125 3.6116 27.33c0.91641-8.5095-1.1206-23.193-1.7005-27.581z" color="#000000" stroke-width="4.1461"/>
    <path id="path19632" d="m622.02 944.96-4.6967 20.878c4.1968-6.5478 5.7127-16.451 6.5835-20.285z" color="#000000" stroke-width="4.1461"/>
    <path id="path19634" d="m583.99 1076.6-1.8139 0.6641c2.9606 4.8772 7.0234 20.807 10.592 23.476z" color="#000000" stroke-width="4.1461"/>
    <path id="path21228" d="m508.7 971.7 1.7577 9.0472 2.4813 29.152-3.8468-10.662c0.16137 21.652 0.3224 41.208 0.4845 67.578 0.71905 8.0791 0.62439 15.752 0.95064 23.031 0.72478 16.172 4.2601 25.365 4.2634 25.358-0.52454-1.2694-7.0947-14.034-7.6601-14.311l2.9529 36.61c0.23003 5.9039-3.8656 10.009 23.467 18.419l12.218 4.6521-3.4902 2.5216c-14.645-0.8126-30.955 4.207-42.45-14.283 2.121-63.972 8.7027-126.91 8.1389-190.89-0.29756-33.771 1.4794-72.899 5.7782-110.26l0.26647-7.8515 11.733 1.5702c-5.8135 0.13972-9.7687 1.2344-6.6057 5.9886-3.6542 41.254-9.5352 80.096-10.439 124.33z" opacity=".15385"/>
    <path id="path24015" d="m560.18 1012.9-9.2187 25.151c3.3513-5.5561 6.1675-7.1832 7.9727-1.3875l1.2461-23.764" opacity=".15385"/>
    <path id="path24588" d="m567.62 918.79c-0.98893-0.20357-1.2327 1.5001-1.1965 2.7826 0.40839 0.53314 2.1215 3.1225 2.0457-0.14761 0.0124-1.1373 0.0725-2.5912-0.8492-2.6348 0 0 4e-5 -1.7e-4 0-1.7e-4z" color="#000000" stroke-width="4.1461" style="-inkscape-stroke:none"/>
    <path id="path25612" d="m622.96 945.34-4.8174 18.918c4.8882-7.8588 4.8715-7.3428 5.6405-5.5264l-0.82317-13.392" opacity=".15385"/>
    <path id="path26274" transform="matrix(4.1461 0 0 4.1461 114.51 46.946)" d="m113.18 249.21 6.9347 15.344c-1.2965-3.0388-6.7614-9.5674-6.1733-4.032z" filter="url(#filter26428)" opacity=".15385"/>
    <path id="path26690" d="m525.19 848.27c0.12819 9.0465 0.58594 17.598 0.95502 26.283 0.17762-8.2662-0.31-16.458 0.9119-24.841l-1.8669-1.4426" opacity=".064103"/>
    <path id="path26692" d="m527.69 887.72c8.3378 12.541 20.112 22.075 31.226 32.186 0 0-17.022-10.191-23.376-17.588-3.5997-4.1915-7.8509-14.598-7.8509-14.598z" opacity=".064103"/>
    <path id="path26692-1" d="m530.15 909.06c8.3378 12.541 25.048 14.121 36.162 24.232 0 0-18.804-2.3743-25.157-9.7717-3.5997-4.1915-11.005-14.46-11.005-14.46z" opacity=".064103"/>
    <path id="path26694" d="m602.13 877.63c-2.1823 8.405-6.0904 14.175-9.4515 20.78 0 0 6.8516-7.0526 7.9794-10.971 1.1279-3.9184 1.4721-9.809 1.4721-9.809z" opacity=".064103"/>
    <path id="path26696" d="m547.69 1042.3c-6.0814 19.718-15.113 35.994-24.232 52.169 0 0 12.868-15.836 17.061-25.018 3.8881-8.5147 7.1709-27.15 7.1709-27.15z" opacity=".125"/>
    <path id="path26698" d="m548.54 850.64-0.68485 19.24c-0.73966-6.6909 1.3104-13.845-4.3744-19.004 0.68908-4.9348 0.12895-6.4705 0.60973-8.0012 0.10158-0.32381 0.68783 0.20606 1.0292-0.16958 0.20606 1.3127-1.8276 7.8281 1.1814 8.2755 0.92105 0.13682 1.804-0.0983 2.2389-0.34039z" opacity=".10897"/>
    <path id="path26700" d="m605.66 850.87c-0.40508 7.384-1.6414 13.937-2.6474 20.72 0 0 0.56494-7.9692-0.24421-11.829-0.66163-3.1561-3.7017-8.9378-3.7017-8.9378" opacity=".064103"/>
    <path id="path31812" d="m525.2 841.33c-0.86731 2.544-0.78912 4.9174-2e-3 7.2854l1.8611 1.0962c-1.229-1.4304-2.4258-5.2502-0.76589-8.2924z" color="#000000" opacity=".1218" stroke-width="4.1461" style="-inkscape-stroke:none"/>
    <path id="path31814" d="m533.52 842.4c-0.98528 3.3695 0.0415 7.3474 1.444 7.6085-1.0486-1.7561-0.53207-5.532-0.21352-7.6086z" color="#000000" opacity=".1218" stroke-width="4.1461" style="-inkscape-stroke:none"/>
    <path id="path31818" d="m555.28 843.16-1.0851 0.11319c-0.96761 2.9391-1.7491 5.5462 1.328 7.5639-0.09-0.12023 2.5076 0.2894 2.0368 0.24545-2.5804-0.24088-4.6613-4.1554-2.2798-7.9225z" color="#000000" opacity=".1218" stroke-width="4.1461" style="-inkscape-stroke:none"/>
    <path id="path31820" d="m585.73 842.61-1.0932 0.0485c0.64845 3.0409 0.71172 5.7218 0.17165 8.0315 0.37895-0.0249 0.72507 0.27986 1.1446-0.15133 0.47502-2.5056 0.39885-5.1489-0.22306-7.9287z" color="#000000" opacity=".1218" stroke-width="4.1461" style="-inkscape-stroke:none"/>
    <path id="path31822" d="m597.56 841.25-1.0932 0.0332c1.5047 3.239 1.595 6.6288 0.774 9.4184 1.8239 0.11319 1.9764-6.8884 0.31924-9.4517z" color="#000000" opacity=".1218" stroke-width="4.1461" style="-inkscape-stroke:none"/>
    <path id="path31824" d="m606 841.36-1.2384-8e-3c1.9608 2.0437 1.2254 5.5544 0.073 8.8169l0.68771-0.403c0.77864-2.317 2.4845-3.9086 0.47767-8.4049z" color="#000000" opacity=".1218" stroke-width="4.1461" style="-inkscape-stroke:none"/>
    <path id="path31826" d="m612.87 840.59-1.077 0.19445c0.69178 2.9463 0.56723 5.7621 0.12149 8.5265l0.61921 0.14387c0.54214-2.9219 0.96463-5.853 0.33625-8.8647z" color="#000000" opacity=".1218" stroke-width="4.1461" style="-inkscape-stroke:none"/>
   </g>
  </g>
 </g>
</svg>
