<?xml version="1.0" encoding="UTF-8"?>
<svg id="svg5" width="1200mm" height="1200mm" version="1.1" viewBox="0 0 1200 1200" xmlns="http://www.w3.org/2000/svg" xmlns:xlink="http://www.w3.org/1999/xlink">
 <g id="layer60" transform="translate(19.4 11.241)">
  <g id="layer262">
   <g id="layer219" transform="translate(-19.4 -11.241)">
    <path id="path47069" d="m595.2 659.46 8.3721 88.585c-1.045 3.7175-0.24564 7.435-0.12123 11.152l-7.5158-7.0309-4.8489-92.008 4.1138-0.69863" fill="#f07a1c" stroke="#000"/>
    <path id="path38825" d="m586.8 659.63s0.0982 2.5255-0.22411 3.7279c-0.3677 1.3718-1.9057 3.8106-1.9057 3.8106l-4.899 109.38 10.972 18.515 10.629-20.229-7.3839-115.13-7.188-0.071" fill="#f07a1c" stroke="#000"/>
    <path id="path45016" d="m581.65 646.09c-4.7413-3.136-8.0435-1.7096-11.973-6.6712l2.9525-3.2656c2.7429 4.543 7.2497 5.6132 12.846 9.4977z" fill="#f07a1c" stroke="#000"/>
    <path id="path45020" d="m600.7 635.68 4.543 3.943-5.7654 2.6938-2.9143 0.68571c1.251-3.3864 4.0284-3.7075 4.1367-7.3225z" fill="#f07a1c" stroke="#000"/>
    <path id="path38823" d="m581.65 646.09c0.64559-1.5094 16.178-6.3444 17.829-3.7715 0.50659 0.78931-4.2858 17.143-4.2858 17.143-2.6506 0.80455-5.5268 0.48105-8.4003 0.17145 0 0-5.766-12.087-5.143-13.543z" fill="#f07a1c" stroke="#000"/>
    <path id="path49240" d="m578.05 642.59c1.3533 1.0101 2.8641 1.7696 4.334 2.5918l0.12304-0.23437z" color="#000000" style="-inkscape-stroke:none"/>
    <path id="path49242" d="m600.09 640.05-1.4141 1.6289 0.19922 0.17382c0.22067-0.50176 0.61109-0.40635 1.2148-1.8027z" color="#000000" style="-inkscape-stroke:none"/>
    <path id="path49244" d="m589.18 660.28-0.26368 4e-3c0.0346 2.2515 0.21449 4.4972 0.7754 6.7168-0.57249-4.2523-0.48325-5.1362-0.51172-6.7206z" color="#000000" style="-inkscape-stroke:none"/>
    <path id="path49246" d="m591.21 660.15-0.26367 6e-3c0.15124 0.48783 0.0901 1.1994 0.30273 1.7752z" color="#000000" style="-inkscape-stroke:none"/>
    <path id="path50304" d="m578.05 642.59c0.6254 1.1656 2.1069 2.3313 3.6012 3.4969l5.143 13.543c0.21298 3.1887-1.3107 5.0926-2.1389 7.4416-0.2133 0.605 0.15714 1.5649-0.0184 2.2004 2.1882-0.0677 4.2988-0.27726 3.2456-6.2744l-0.68278-2.8304 0.73113-0.0165c0.41412 0.2358 0.97189 0.40775 1.05 0.79287 0.1757 2.0242 0.16328 4.0673 0.70784 6.0546 0 0 1.0545-1.2294 1.0922-1.983 0.0318-0.63606-0.85834-1.1296-0.75001-1.7572 0.10202-0.59104 1.2203-1.3223 1.2203-1.3223s1.0609-0.28992 1.4568-0.66367c0.42709-0.40317 0.55867-0.97121 0.55867-0.97121h0.32144l6.4288 95.724 1.8525 1.4129c-0.61486-3.3336-0.67753-6.6672 1e-5 -10.001l-6.6749-87.979c-5.1867-1.8517-5.8043-6.6787-7.778-10.623-1.3235 0.11829-2.2428 0.85641-2.3572 2.8287-0.99442-1.8638-1.7454-3.8088-2.0144-5.9145-1.0529-1.0852-3.3299-2.1069-4.9949-3.1604" opacity=".31098"/>
    <path id="path52949" d="m587.2 660.17 6.7826-0.46614 2.671 113.82c-1.3405 5.2369-1.2409 8.7681-6.1443 13.56l-7.1901-4.5892-3.5534-5.9421 4.8989-109.38 2.5353-7.0014" opacity=".046748"/>
   </g>
  </g>
 </g>
</svg>
