<?xml version="1.0" encoding="UTF-8"?>
<svg id="svg5" width="1200mm" height="1200mm" version="1.1" viewBox="0 0 1200 1200" xmlns="http://www.w3.org/2000/svg" xmlns:xlink="http://www.w3.org/1999/xlink">
 <g id="layer60" transform="translate(19.4 11.241)">
  <g id="layer134">
   <g id="g265105">
    <g id="g265103" transform="matrix(4.1461 0 0 4.1461 114.5 46.946)" fill-opacity=".99763">
     <path id="path265101" d="m93.014 270.84c-0.54243-0.12847-0.59439-0.18685-0.36789-0.41335 0.12673-0.12674 0.76593-0.23222 2.0332-0.33555 2.6743-0.21805 5.5425-0.63947 5.7475-0.84448 0.1473-0.14731 0.1291-2.4673-0.1156-14.735-0.24474-12.27-0.26577-14.951-0.13364-17.039 0.0862-1.3631 1.6025-24.471 3.3695-51.351s3.2127-49.077 3.2127-49.326c0-0.72652-0.37063-0.58428-1.1962 0.45908-0.49341 0.62361-1.373 2.1812-2.78 4.923-1.132 2.2059-2.2412 4.4162-2.4649 4.9117-0.22369 0.49551-0.77741 1.6828-1.2305 2.6384-0.45308 0.95564-0.82359 1.7818-0.82337 1.8359 2.6e-4 0.0541-0.41414 1.0097-0.92082 2.1236-1.3716 3.0153-2.8954 6.5962-3.5181 8.2675-0.30332 0.81406-0.90034 2.3489-1.3267 3.4107-0.42638 1.0618-1.0488 2.7414-1.3831 3.7324s-0.77 2.2444-0.96817 2.7851c-1.1018 3.0067-3.1481 10.673-3.6517 13.68-0.1177 0.70291-0.23613 1.3138-0.26317 1.3576-0.36925 0.59745-1.0219 8.4559-0.9302 11.2 0.0644 1.9269 0.48989 5.2043 0.73516 5.6626 0.0754 0.14092 0.32871 0.24687 0.68665 0.2872 0.34347 0.0387 0.79776 0.22259 1.1518 0.4662 1.3645 0.93881 1.3914 3.2037 0.0489 4.1208-1.1378 0.77718-1.8256 0.78616-2.9574 0.0386-0.60042-0.39657-0.86081-0.87404-0.94965-1.7414-0.10397-1.015 0.14287-1.7141 0.82694-2.3422 0.51825-0.47584 0.57489-0.58053 0.49154-0.90852-0.29442-1.1586-0.60633-3.7241-0.67099-5.5189-0.0552-1.5315-3e-3 -2.9333 0.20393-5.47 0.24067-2.9515 0.56135-5.5383 0.718-5.7917 0.0261-0.0422 0.14015-0.62416 0.25348-1.2932 0.88038-5.1974 3.5621-14.301 6.029-20.467 0.46929-1.173 1.0625-2.7337 1.3181-3.4683 0.25569-0.73457 0.60008-1.6024 0.76533-1.9285 0.16524-0.32609 0.67505-1.4875 1.1329-2.5809 0.45786-1.0934 1.1631-2.712 1.5672-3.5968 0.40408-0.88485 0.90234-2.0286 1.1072-2.5416 0.20491-0.513 0.63566-1.4566 0.95723-2.0969s0.70311-1.4658 0.84788-1.8344c0.25778-0.65647 3.8645-7.7478 5.1349-10.096 0.35365-0.65367 0.5877-1.1758 0.643-1.3836 0 0 0.15588-0.2483-0.27259-0.23395l4.528-0.59113 3.8132 0.0306c-0.76502 0.0966-1.4433 0.22809-1.5073 0.2921-0.0694 0.0694 0.13953 0.58361 0.51729 1.2733 5.4097 10.159 10.076 24.816 14.582 31.454s2.5116 5.4306 10.71-1.3291c0.11457-0.31845 0.16236-0.40196-0.17852-1.0174-0.44996-0.81239-0.46268-1.5537-0.0426-2.4836 0.35891-0.79458 1.0752-1.1546 1.4522-1.351 0.28403-0.0986 0.57048-0.12217 0.8852-0.1519 0.32614-0.0308 0.47946 0.0168 0.67484 0.049 0.28894 0.0659 0.4644 0.19998 0.7487 0.5201 0.14808 0.14139 0.31776 0.33664 0.48427 0.55598 0.98302 1.295 0.24022 3.4348-1.3514 3.8932-0.41299 0.11895-0.90213 0.14949-1.2402 0.0774-0.35228-0.0751-0.67462-0.0898-0.74226 0.055-8.1756 7.1847-7.0673 9.1994-11.917 1.5943s-9.7716-22.001-14.423-31.123c-0.47766-0.82604-0.75906-1.0666-0.87979-0.75193-0.0383 0.0998 1.8168 22.672 4.1223 50.161 2.3056 27.489 4.2281 50.993 4.2722 52.232 0.0442 1.2388-0.0476 8.4421-0.20384 16.007-0.24097 11.666-0.25726 13.782-0.10729 13.932 0.20719 0.20719 3.0601 0.62722 5.7495 0.84649 1.2956 0.10563 1.9053 0.20758 2.0386 0.34087 0.16775 0.16775 0.16579 0.20381-0.0166 0.3059-0.39281 0.21983-2.0158 0.2664-3.5839 0.10282-1.5433-0.16098-3.9884-0.80709-4.5043-1.1903-0.22548-0.16747-0.51904-2.4652-2.8574-22.365-0.76965-6.55-0.80826-6.95-0.9067-9.3955-0.0385-0.95563-0.12428-2.5773-0.19068-3.6037s-0.50038-7.9476-0.96439-15.38c-0.46401-7.4327-0.87393-13.651-0.91093-13.818-0.0575-0.25953-0.11765-0.28973-0.41528-0.20864-0.59549 0.16222-5.4911 0.22162-6.0288 0.0731-0.3713-0.10251-0.52774-0.0969-0.63704 0.0228-0.0982 0.10758-0.32037 4.7008-0.68939 14.252-0.80443 20.821-0.78052 20.421-1.6756 27.993-2.5342 21.44-2.7044 22.777-2.9203 22.937-0.11578 0.086-0.75511 0.33787-1.4207 0.55962-1.8384 0.61246-5.0555 0.93672-6.3207 0.63709zm-5.654-62.721c0.38879-0.21457 0.52158-0.39052 0.66877-0.88617 0.50456-1.6991-1.0089-2.9884-2.5146-2.1422-0.53979 0.30339-0.76296 0.7491-0.76296 1.5238 0 0.8699 0.21942 1.2451 0.93739 1.6029 0.70567 0.35166 0.87406 0.34175 1.6714-0.0983zm51.906-45.729c-0.58627 0.10785-0.94154 0.46622-1.185 1.1953-0.24533 0.73482-0.1748 1.2283 0.24113 1.687 0.48529 0.5352 1.02 0.71228 1.7354 0.57519 0.45718-0.0878 0.63749-0.21055 0.93628-0.63723 0.32191-0.4597 0.37293-0.6143 0.3925-1.1882 0.0199-0.59345-0.031-0.71293-0.50586-1.187-0.56396-0.56299-0.72676-0.60781-1.6144-0.44453z"/>
    </g>
   </g>
  </g>
 </g>
</svg>
