<?xml version="1.0" encoding="UTF-8"?>
<svg id="svg5" width="1200mm" height="1200mm" version="1.1" viewBox="0 0 1200 1200" xmlns="http://www.w3.org/2000/svg" xmlns:xlink="http://www.w3.org/1999/xlink">
 <g id="layer60" transform="translate(19.4 11.241)">
  <g id="layer15">
   <g id="layer58">
    <path id="path39-2-0" d="m576.95 607.4-24.693 3.1324c-4.372 0.26369-26.066 17.162-54.605 26.96-8.101 25.865-19.011 96.08-24.536 125.34l2e-3 2e-3c-4.943 50.458-8.8734 80.869-10.055 130.72l17.965-1.7976c-12.186 52.652-19.197 122.51-13.74 126.35 3.3237 2.3436 55.014 3.7723 55.014 3.7723l84.601-0.4802s52.811-1.5059 56.135-3.8495c5.4518-3.8446-3.421-76.523-15.242-128.98l18.347 1.834c-1.1815-49.846-5.1107-80.26-10.053-130.71-5.5259-29.259-16.435-99.474-24.536-125.34-28.539-9.798-50.231-26.696-54.603-26.96zm44.119 144.12c6.6149 22.086 22.722 115.52 25.4 131.16-7.291-31.831-15.512-63.738-22.148-90.156-3.2946-13.117-2.7791-31.549-3.2524-41.002zm-112.93 3.1495c-0.47327 9.4531 0.0423 27.885-3.2524 41.002-6.2721 24.972-14.097 54.916-21.269 85.076 4.3348-25.134 18.414-105.69 24.521-126.08z" fill="#fff" stroke="#000" stroke-width="1.7621"/>
    <path id="path39-2-0-4" d="m578.28 606.71-24.693 3.1324c-4.372 0.26369-26.066 17.162-54.605 26.96-8.101 25.865-19.011 96.08-24.536 125.34l2e-3 2e-3c-4.943 50.458-8.8734 80.869-10.055 130.72l17.965-1.7976c-12.186 52.652-19.197 122.51-13.74 126.35 3.3237 2.3435 55.014 3.7723 55.014 3.7723l84.601-0.4803s52.811-1.5059 56.135-3.8494c5.4518-3.8446-3.421-76.523-15.242-128.98l18.347 1.834c-1.1815-49.846-5.1107-80.26-10.053-130.71-5.5259-29.259-16.435-99.474-24.536-125.34-28.539-9.798-50.231-26.696-54.603-26.96zm44.119 144.12c6.6149 22.086 22.722 115.52 25.4 131.16-7.291-31.831-15.512-63.738-22.148-90.156-3.2946-13.117-2.7791-31.549-3.2524-41.002zm-112.93 3.1495c-0.47327 9.4531 0.0423 27.885-3.2524 41.002-6.2721 24.972-14.097 54.916-21.269 85.076 4.3348-25.134 18.414-105.69 24.521-126.08z" fill="#090303" fill-opacity=".40081"/>
   </g>
  </g>
 </g>
</svg>
