<?xml version="1.0" encoding="UTF-8"?>
<svg id="svg5" width="1200mm" height="1200mm" version="1.1" viewBox="0 0 1200 1200" xmlns="http://www.w3.org/2000/svg" xmlns:xlink="http://www.w3.org/1999/xlink">
 <g id="layer60" transform="translate(19.4 11.241)">
  <g id="layer15">
   <g id="layer208" transform="translate(-19.4 -11.241)">
    <path id="path8494-7" d="m574.49 181.51c-58.453-0.52973-93.59 9.3266-139.47 37.117-72.898 44.156-122.34 141.74-117.94 226.86 3.5491 68.608 54.026 137.57 113.43 172.08 33.272 19.329 76.388 19.535 115.87 12.156-6.5614 6.7824-13.647 17.881-20.176 35.991-27.732 65.046-49.014 205.24-50.249 234.2-0.0614 1.4306 17.091 13.324 32.884-0.81029 0 0 27.819-164.8 27.845-163.92l-9.925 121.2-2e-3 4e-3c16.692 17.378 86.338 14.106 118.56 4.4478l-12.284-130.37c-0.0755-8.4058-3.8096-52.669 2.0903 4.7336 0.01 0.66751 28.676 166.72 32.38 165.9 6.9302-1.5336 6.7992 0.09 21.668-2.3725 4.3623-70.93-26.773-226.21-67.588-268.39 76.969 12.5 149.38-0.0691 185.31-55.316 65.851-101.26 30.525-264.22-62.58-341.17-36.481-30.154-118.24-51.877-169.82-52.345z" fill="#024c4f" fill-opacity=".99763" stroke-width=".26458"/>
   </g>
  </g>
 </g>
</svg>
