<?xml version="1.0" encoding="UTF-8"?>
<svg id="svg5" width="1200mm" height="1200mm" version="1.1" viewBox="0 0 1200 1200" xmlns="http://www.w3.org/2000/svg" xmlns:xlink="http://www.w3.org/1999/xlink">
 <defs id="defs77">
  <filter id="filter5543-6" x="-.0052063" y="-.0015574" width="1.0065" height="1.0053" color-interpolation-filters="sRGB">
   <feGaussianBlur id="feGaussianBlur15-9" stdDeviation="0.0045646585"/>
  </filter>
  <filter id="filter6257-4" x="-.018017" y="-.002053" width="1.0398" height="1.0064" color-interpolation-filters="sRGB">
   <feGaussianBlur id="feGaussianBlur18-0" stdDeviation="0.020753834"/>
  </filter>
  <filter id="filter6257-8-7" x="-.03649" y="-.0052644" width="1.0778" height="1.0146" color-interpolation-filters="sRGB">
   <feGaussianBlur id="feGaussianBlur21-0" stdDeviation="0.087166883"/>
  </filter>
  <filter id="filter6257-8-1-6" x="-.00993" y="-.0026757" width="1.0199" height="1.0054" color-interpolation-filters="sRGB">
   <feGaussianBlur id="feGaussianBlur24-5" stdDeviation="0.0042469749"/>
  </filter>
  <linearGradient id="linearGradient8538" x1="82.564" x2="134.09" y1="170.04" y2="170.04" gradientTransform="matrix(4.1461 0 0 4.1461 114.51 46.948)" gradientUnits="userSpaceOnUse">
   <stop id="stop47" offset="0"/>
   <stop id="stop49" stop-opacity="0" offset=".53219"/>
   <stop id="stop51" stop-opacity=".40486" offset="1"/>
  </linearGradient>
 </defs>
 <g id="layer60" transform="translate(19.4 11.241)">
  <g id="layer15">
   <g id="g8536">
    <path id="path8492" d="m507.63 845.65 9.9253-121.07c6.7017-64.227 1.7608-10.173-0.53617-2.8244-3.9137 12.522-27.309 166.61-27.309 166.61-15.794 14.134-32.946 2.2411-32.884 0.81043 1.2453-28.957 24.716-167.31 48.928-234.47 19.713-54.679 45.847-45.437 45.847-45.437l25.981 8e-3c52.149-11.527 97.678 193.91 92.462 278.72-14.869 2.4625-14.738 0.83871-21.668 2.3723-3.7044 0.81977-32.371-165.23-32.38-165.9-5.8999-57.403-2.1656-13.14-2.0901-4.734l12.284 130.37c-32.223 9.6583-101.87 12.931-118.56-4.4475z" fill="#2c9ca0" fill-opacity=".99763" stroke="#000" stroke-linejoin="round" stroke-width="3.0018"/>
    <path id="path8494" d="m507.63 845.65 9.9253-121.2c4.8061-73.705 0.23119 7.696 0 0-0.0265-0.88212-27.846 163.92-27.846 163.92-15.794 14.134-32.946 2.2411-32.884 0.81043 1.2346-28.964 22.517-169.16 50.249-234.2 19.713-54.679 44.527-45.697 44.527-45.697l25.981 8e-3c52.149-11.527 97.678 193.91 92.462 278.72-14.869 2.4625-14.738 0.83871-21.668 2.3723-3.7044 0.81977-32.371-165.23-32.38-165.9-5.8999-57.403-2.1656-13.14-2.0901-4.734l12.284 130.37c-32.223 9.6583-101.87 12.931-118.56-4.4475z" fill="url(#linearGradient8538)" opacity=".28664" stroke-width="3.0018"/>
    <g id="g8526" transform="matrix(4.1461 0 0 4.1461 112.91 51.277)" fill-opacity=".99763" stroke="#000" stroke-width=".26458px">
     <path id="path8518" d="m97.941 155.84c5.6508 14.032-13.421 39.412 25.69 36.825-13.242 2.5658-23.482 2.9212-28.509-0.98604z" filter="url(#filter5543-6)" opacity=".16"/>
     <path id="path8520" d="m120.3 156.5s3.3796 9.5251 4.0224 14.499c1.8323 14.18 6.5083 31.174 6.5083 31.174l-1.875-0.17228c-3.1498-15.591-6.633-29.91-8.6557-45.501z" filter="url(#filter6257-4)" opacity=".16"/>
     <path id="path8522" transform="matrix(-1,0,0,1,185.48,1.4479)" d="m87.536 154.4s3.3796 9.5251 4.0224 14.499c1.8323 14.18 5.3361 33.568 5.3361 33.568l-1.9134-0.97339c-3.1498-15.591-5.4225-31.503-7.4451-47.094z" filter="url(#filter6257-8-7)" opacity=".16"/>
     <path id="path8524" transform="matrix(-1,0,0,1.1552,179.47,-30.16)" d="m88.466 163.56c4.4285 14.18 8.7258 38.907 8.4287 38.907l-2.8812 0.0534c0.77903-13.566-12.698-46.462-14.937-55.769-0.03618-0.17074-5.0093-1.1922-9.3538-2.0054-2.5994-0.48654-10.532 1.9169-8.8695 0.83449 0.79458-3.3902 14.017-3.2583 18.54-1.1314 0.91092 0.42842 1.4912 1.5003 1.7656 1.9523 2.7747 4.5709 6.9924 13.861 7.3073 17.158z" filter="url(#filter6257-8-1-6)" opacity=".16" stroke-linejoin="round" stroke-width=".26423"/>
    </g>
    <path id="path8528" d="m456.41 878.01c11.244 6.0222 22.488 5.4434 33.732 0.13723" fill="none" stroke="#000" stroke-width="1.097px"/>
    <path id="path8530" d="m644.06 879.08c3.5826-1.9344 16.35-1.7076 25.505-2.3311" fill="none" stroke="#000" stroke-width="1.097px"/>
    <path id="path8808" d="m555.36 170.77c-58.453-0.52974-93.59 9.3265-139.47 37.117-72.898 44.156-122.34 141.74-117.94 226.86 3.5491 68.608 54.026 137.57 113.43 172.08 43.186 25.088 102.99 18.016 149.84 3.8673 91.351 24.55 184.23 18.648 226.54-46.403 65.851-101.26 30.525-264.22-62.58-341.17-36.481-30.154-118.24-51.877-169.82-52.344zm8.8632 102.96c44.014 5e-5 108.1 30.778 139.22 59.604s37.67 96.178 37.67 136.94c-5e-5 40.766-20.587 73.538-51.709 102.36-31.123 28.826-74.18 32.251-126.57 35.473-43.931 2.7021-120.74 0.27647-151.86-28.55-31.123-28.826-54.627-82.193-54.627-122.96-8e-5 -40.766 30.245-119.06 61.367-147.88 31.123-28.826 102.5-34.995 146.51-34.995z" fill="#2c9ca0" fill-opacity=".99763" stroke="#000" stroke-width="2"/>
    <ellipse id="ellipse8504" cx="542.57" cy="612.18" rx="2.0226" ry="1.7483" fill-opacity=".72065" fill-rule="evenodd" stroke="#000" stroke-linecap="round" stroke-linejoin="round" stroke-width=".6841"/>
    <ellipse id="ellipse8506" cx="575.98" cy="611.01" rx="2.0226" ry="1.7483" fill-opacity=".72065" fill-rule="evenodd" stroke="#000" stroke-linecap="round" stroke-linejoin="round" stroke-width=".6841"/>
    <path id="path8510" d="m542.72 611.7-0.77569 50.226" fill="none" stroke="#000" stroke-width="1.097px"/>
    <path id="path8512" d="m575.71 610.24 0.19404 47.9" fill="none" stroke="#000" stroke-width="1.097px"/>
    <path id="ellipse8625" d="m721.95 243.11c-1.7503 17.973-12.499 34.495-37.425 28.962-20.178-4.4796-38.799-13.026-37.425-28.962 1.1936-13.847 21.338-18.762 37.425-28.962 19.38-12.287 39.331 9.3954 37.425 28.962z" fill="#234849" fill-rule="evenodd" stroke-linecap="round" stroke-linejoin="round" stroke-width="2.0815" style="paint-order:markers stroke fill"/>
    <path id="ellipse25302" d="m794.58 372.38c6.9699 18.499-4.0406 32.365-15.751 32.01-8.6951-0.26306-11.269-14.909-15.751-32.01-5.1532-19.661 4.5001-32.992 15.751-32.01 8.6662 0.75602 9.5179 15.467 15.751 32.01z" fill="#234849" fill-rule="evenodd" stroke-linecap="round" stroke-linejoin="round" stroke-width="2" style="paint-order:markers stroke fill"/>
    <path id="ellipse25308" d="m807.54 479.58c3.8988 14.739-6.0618 18.977-16.39 17.275-8.9313-1.4713-15.143-7.8162-16.39-17.275-1.4701-11.158 3.0388-22.004 16.39-17.275 8.5322 3.0222 13.95 8.0517 16.39 17.275z" fill="#234849" fill-rule="evenodd" stroke-linecap="round" stroke-linejoin="round" stroke-width="1.7436" style="paint-order:markers stroke fill"/>
    <path id="ellipse25305" d="m819.47 430.3c0 12.908-6.8954 22.283-15.243 23.373-10.911 1.4242-15.063-9.3686-15.243-23.373-0.17957-13.993 3.2633-25.747 15.243-23.373 8.2579 1.6366 15.243 10.464 15.243 23.373z" fill="#234849" fill-rule="evenodd" stroke-linecap="round" stroke-linejoin="round" stroke-width="2" style="paint-order:markers stroke fill"/>
    <path id="ellipse8508" d="m470.92 232.14c-8.2584 13.039-14.445 27.946-32.264 27.946-17.819 0-37.751-13.52-32.264-27.946 4.1487-10.908 16.887-25.631 32.264-27.946 23.259-3.5008 41.569 13.256 32.264 27.946z" fill="#234849" fill-rule="evenodd" stroke-linecap="round" stroke-linejoin="round" stroke-width="1.7778" style="paint-order:markers stroke fill"/>
    <path id="ellipse25341" d="m357.1 354.5c-0.0658 14.544-9.9209 25.549-22.102 26.335-14.146 0.91246-29.754-8.1896-22.102-26.335 5.6514-13.401 9.8986-26.605 22.102-26.335 26.028 0.57588 22.168 11.793 22.102 26.335z" fill="#234849" fill-rule="evenodd" stroke-linecap="round" stroke-linejoin="round" stroke-width="1.8511" style="paint-order:markers stroke fill"/>
    <path id="ellipse25344" d="m370.31 300.22c-4.4986 6.7814-6.3744 14.459-14.227 14.735-9.1435 0.32157-17.595-5.755-14.227-14.735 2.8578-7.6196 6.37-14.657 14.227-14.735 8.1188-0.0805 21.01 4.51 14.227 14.735z" fill="#234849" fill-rule="evenodd" stroke-linecap="round" stroke-linejoin="round" stroke-width="2" style="paint-order:markers stroke fill"/>
    <path id="ellipse25338" d="m341.35 428.77c5.4786 20.028-9.0952 20.839-20.324 20.832-11.225-6e-3 -20.273-9.327-20.324-20.832-0.0518-11.626 5.818-28.489 20.324-20.832 9.9267 5.2396 17.288 9.7346 20.324 20.832z" fill="#234849" fill-rule="evenodd" stroke-linecap="round" stroke-linejoin="round" stroke-width="2" style="paint-order:markers stroke fill"/>
    <path id="path18054" d="m546.83 261.51s-69.002 12.51-105.04 12.077c20.75-27.533 35.589-29.927 51.041-41.47-9.1348-4.9788-27.626 5.4737-49.218 0 40.496-35.791 41.873-26.079 61.066-34.635-8.1899-21.719-51.957 7.955-70.181 22.33-23.475 18.517-29.942 51.903-41.926 79.295-20.721 47.361-52.568 94.602-51.496 146.29 1.0102 48.734 17.328 103.96 54.231 135.8 32.86 28.357 83.318 23.516 126.46 28.255 4.3613 0.47906 36.561-4.0751 66.533-2.6904 20.505 0.94735 75.555 5.9537 122.57-1.9949 31.116-5.2608 64.602-26.184 61.072-21.851-28.409 34.87-96.717 39.41-96.597 40.663 0.11708 1.2199-26.377 2.1789-49.184-0.71849-28.835-3.663-56.141-11.581-64.747-11.747-13.153-0.25377-26.285 5.5152-27.925 6.683-16.744 11.923-56.009 3.5278-85.093 2.8205-27.32-0.66438-97.113-48.468-126.23-105.27-44.345-86.497-21.099-158.58 13.216-222.85 27.839-52.141 61.966-78.724 120.77-105.27 18.564-8.381 56.41-19.765 74.966-14.811 11.071 2.9559 22.888 8.8581 26.887 19.596 8.3618 22.447-11.165 69.497-11.165 69.497z" fill-opacity=".99763" opacity=".16"/>
    <path id="path17195" d="m541.44 100.72c8.5117 22.184 19.665 60.163 23.906 91.262-9.8471-13.665-1.9267-59.113 3.9391-79.067 4.4534 19.621 9.8468 56.515 9.6991 68.385-4.9175-11.848 6.5208-30.507 12.599-37.978-0.6531 8.0494-0.27897 23.516-0.43955 28.894 3.3205-5.8628 6.4147-11.444 14.886-16.983l-9.3039 19.797 0.96028 1.884c-31.288 18.566-52.5 75.267-52.346 83.665 0 0-2.6761-0.0302-6.3484-1.5023-4.3986-0.86937-18.348-107.19 2.4483-158.36z" fill="#101f1f" stroke="#000" stroke-width="1.9936"/>
    <path id="path14483" d="m542.48 103.58c8.6613 26.354 23.262 52.207 28.327 89.349-3.1552-26.44-3.0561-52.88-1.3636-79.32 4.3715 19.677 15.234 53.528 15.046 68.603 1.8765-12.625 1.2887-26.911 7.2968-37.832 0.97758 10.059 5.1132 21.633 4.9017 28.719 3.3312-5.8818 5.6708-12.755 10.091-17.548l-2.9622 18.459-1.6227 7.1251c-29.018 21.76-41.681 50.959-55.444 79.14-1.0639 1.4942-1.7657-2.4884-2.1614-5.1287-11.218-74.915-2.3312-98.018-2.0539-142.64 0.0179-2.8774 2e-3 -5.8479-0.0554-8.9315z" fill="#234849" stroke="#000" stroke-width="2"/>
    <path id="ellipse25326" d="m618.83 654.17c4.477 6.6264-3.363 11.706-8.6377 11.686-4.7704-0.0175-8.6377-5.2322-8.6377-11.686 0-6.2868 3.8672-8.8054 8.6377-11.686 4.0836-2.4661 5.0244 6.3384 8.6377 11.686z" fill="#234849" fill-rule="evenodd" stroke-linecap="round" stroke-linejoin="round" stroke-width="2" style="paint-order:markers stroke fill"/>
    <path id="ellipse25320" d="m632.16 681.8c0 4.4899-3.4324 8.5408-7.6215 8.1296-8.5979-0.84398-8.9952-3.823-7.6215-8.1296 1.0705-3.356 4.515-6.1999 7.6215-8.1296 3.5756-2.2211 7.6215 3.6398 7.6215 8.1296z" fill="#234849" fill-rule="evenodd" stroke-linecap="round" stroke-linejoin="round" stroke-width="2" style="paint-order:markers stroke fill"/>
    <path id="ellipse25323" d="m613.21 677.26c-1.1041 2.5798-2.5023 5.081-5.5891 5.081s-4.7518-2.4026-5.5891-5.081c-1.4838-4.7464 1.0511-6.3574 5.5891-5.081 3.1586 0.88838 7.4373 0.76271 5.5891 5.081z" fill="#234849" fill-rule="evenodd" stroke-linecap="round" stroke-linejoin="round" stroke-width="2" style="paint-order:markers stroke fill"/>
    <path id="circle25329" d="m527.08 650.91c2.7353 6.7692-3.0135 8.6515-8.1296 8.1296-4.4667-0.45563-8.1296-3.6398-8.1296-8.1296s3.6398-8.1296 8.1296-8.1296 6.4475 3.9668 8.1296 8.1296z" fill="#234849" fill-rule="evenodd" stroke-linecap="round" stroke-linejoin="round" stroke-width="2" style="paint-order:markers stroke fill"/>
    <path id="ellipse25335" d="m516.8 673.69c-1.1493 4.63-2.7298 8.6377-6.0972 8.6377s-6.0972-3.8672-6.0972-8.6377c0-3.9636 2.7298-6.1902 6.0972-8.6377 2.8588-2.0778 7.2814 3.8672 6.0972 8.6377z" fill="#234849" fill-rule="evenodd" stroke-linecap="round" stroke-linejoin="round" stroke-width="2" style="paint-order:markers stroke fill"/>
    <path id="ellipse25332" d="m526.18 665.49c0 2.2449-0.90994 4.0648-2.0324 4.0648-2.1404 0-5.0488-1.8199-2.0324-4.0648 1.8009-1.3403 0.90994-4.0648 2.0324-4.0648 1.1225-1e-5 2.0324 1.8199 2.0324 4.0648z" fill="#234849" fill-rule="evenodd" stroke-linecap="round" stroke-linejoin="round" stroke-width="2" style="paint-order:markers stroke fill"/>
    <path id="ellipse25317" d="m539.26 812.43c-3.094 4.6825-4.3222 10.162-9.6539 10.162s-9.6539-4.5497-9.6539-10.162 4.3229-10.076 9.6539-10.162c5.6281-0.0912 14.309 3.1175 9.6539 10.162z" fill="#234849" fill-rule="evenodd" stroke-linecap="round" stroke-linejoin="round" stroke-width="2" style="paint-order:markers stroke fill"/>
    <path id="ellipse25314" d="m526.83 835.08c1.1057 3.5969 0.49504 6.2142-5.5891 7.1134-3.0536 0.45131-5.2114-3.203-5.5891-7.1134-0.35121-3.636-1.7204-3.5945 5.5891-7.1134 2.7813-1.339 4.4347 3.3582 5.5891 7.1134z" fill="#234849" fill-rule="evenodd" stroke-linecap="round" stroke-linejoin="round" stroke-width="2" style="paint-order:markers stroke fill"/>
    <path id="ellipse25311" d="m540.44 842.16c-0.56422 3.0348-2.2748 5.5891-5.081 5.5891s-4.1724-2.6391-5.081-5.5891c-0.95078-3.0868 0.9211-3.2278 5.081-5.5891 4.5146-2.5627 5.8768 1.3086 5.081 5.5891z" fill="#234849" fill-rule="evenodd" stroke-linecap="round" stroke-linejoin="round" stroke-width="2" style="paint-order:markers stroke fill"/>
   </g>
  </g>
 </g>
</svg>
