<?xml version="1.0" encoding="UTF-8"?>
<svg id="svg5" width="1200mm" height="1200mm" version="1.1" viewBox="0 0 1200 1200" xmlns="http://www.w3.org/2000/svg" xmlns:xlink="http://www.w3.org/1999/xlink">
 <g id="layer60" transform="translate(19.4 11.241)">
  <g id="layer214">
   <g id="layer1">
    <g id="g28064" transform="matrix(4.2443 0 0 3.7929 102.53 66.829)">
     <path id="path4874" d="m54.516 76.472 101.17 1.1045s-2.1216-38.325-16.788-49.04c-18.135-13.248-49.122-13.084-67.375-1e-6 -12.304 8.8199-15.966 37.06-16.8 45.519-0.07392 0.74977-0.12563 1.3441-0.15917 1.7558-0.03504 0.43019-0.05026 0.66086-0.05026 0.66086z" fill="#ffec00" stroke="#000" stroke-width=".4999"/>
     <path id="path6202" d="m90.688 20.28 4.5837 52.989h22.421l2.209-53.016c-4.85-4.0983-22.166-5.5713-29.214 0.02761z" fill="#ffec00" stroke="#000" stroke-width=".4999"/>
     <path id="path5327" d="m156.32 77.892c0.89784-0.79562-0.0384-1.2945-0.63173-1.4119 0.19982 0.48619-0.6707 0.47016-1.0437 0.41277-34.391-6.6455-77.177-3.0585-97.664-0.80894 0 0-2.1397 0.23764-2.4437-0.47656-0.60016-0.08077-1.0339 0.26167-1.0339 0.26167-0.41123 0.31645-0.26876 0.7953 0.4387 0.87998 23.9 2.861 53.244 5.5076 102.38 1.143z" fill="#ffec00" stroke="#000" stroke-width=".4999"/>
     <path id="path13674" d="m103.78 16.829c-5.4424-0.2375-9.7068 1.0395-13.088 3.4516-7.7946 1.8412-1.9307 0.39042-5.8092 1.7095-9.4729 2.6952-15.488 8.1538-17.713 10.962-2.0583 2.5976-5.3288 8.8278-7.5558 16.043-3.0644 9.9284-5.0693 22.63-5.0725 26.613-0.34284 0.04657-0.86208 0.14537-1.1715 0.33193-1.6578 1.5922 13.465 2.0252 23.027 3.0301 3.951 0.41522 22.683 1.6048 27.599 1.161 2.4381-0.22014-10.957-1.3444-10.001-3.0645 1.4618-2.6283 6.0894-2.4716 10.061-2.4715 33.797 9.62e-4 48.901 2.4026 51.197 2.1917 2.1803-0.2002-4.5738-2.4844-18.446-4.1467-8.4512-1.0127-19.615-1.187-30.705-1.9824-1.5533 0.0303-3.1913-0.44896-3.5996-1.74-5.2687-16.685-3.6093-34.195 1.277-52.088z" opacity=".067308"/>
     <path id="path22719" d="m124.93 21.523c-0.67424 0.65743-2.7586-0.19615-3.0721 0.89239-2.6057 9.0473-2.0812 28.127-3.4997 39.367l1.5463-41.529c0.59452 0.15372 3.5107 0.85398 5.0255 1.2702z" opacity=".060898"/>
     <ellipse id="path23864" cx="106.26" cy="56.259" rx="10.658" ry="10.714" opacity=".63462"/>
     <path id="path24732" d="m153.6 61.954c-2.046-0.98281-4.8354-1.961-11.628-2.7292 0.5052 2.2364 0.65596 4.4111 0.63039 7.9481 4.5808 0.42227 8.6223 1.217 12.173 2.5954-0.29167-2.4207-0.69002-5.0347-1.1759-7.8144z" fill="#fff" opacity=".89103"/>
     <path id="path24732-2" d="m56.636 61.622c2.0459-0.98281 4.8354-1.961 11.628-2.7292-0.50521 2.2364-0.71454 4.4111-0.68896 7.9481-4.5808 0.42227-8.6223 1.217-12.173 2.5954 0.29166-2.4207 0.74859-5.0347 1.2344-7.8144z" fill="#fff" opacity=".6859"/>
    </g>
   </g>
  </g>
 </g>
</svg>
