<?xml version="1.0" encoding="UTF-8"?>
<svg id="svg5" width="1200mm" height="1200mm" version="1.1" viewBox="0 0 1200 1200" xmlns="http://www.w3.org/2000/svg" xmlns:xlink="http://www.w3.org/1999/xlink">
 <defs id="defs77">
  <filter id="filter25160-7" x="-.10049" y="-.1043" width="1.201" height="1.2086" color-interpolation-filters="sRGB">
   <feGaussianBlur id="feGaussianBlur25162-0" stdDeviation="0.1605801"/>
  </filter>
  <filter id="filter25152-8" x="-.044856" y="-.12565" width="1.0927" height="1.2571" color-interpolation-filters="sRGB">
   <feGaussianBlur id="feGaussianBlur25154-2" stdDeviation="0.1605801"/>
  </filter>
  <filter id="filter25156-6" x="-.050759" y="-.0067172" width="1.0966" height="1.0134" color-interpolation-filters="sRGB">
   <feGaussianBlur id="feGaussianBlur25158-26" stdDeviation="0.1605801"/>
  </filter>
  <filter id="filter25164-7" x="-.079998" y="-.24235" width="1.16" height="1.4847" color-interpolation-filters="sRGB">
   <feGaussianBlur id="feGaussianBlur25166-3" stdDeviation="0.1605801"/>
  </filter>
  <filter id="filter25168-94" x="-.099274" y="-.15547" width="1.1985" height="1.3109" color-interpolation-filters="sRGB">
   <feGaussianBlur id="feGaussianBlur25170-7" stdDeviation="0.1605801"/>
  </filter>
  <filter id="filter25176-9" x="-.10367" y="-.051622" width="1.2046" height="1.1051" color-interpolation-filters="sRGB">
   <feGaussianBlur id="feGaussianBlur25178-4" stdDeviation="0.1605801"/>
  </filter>
  <filter id="filter25136-67" x="-.035505" y="-.0136" width="1.0741" height="1.0225" color-interpolation-filters="sRGB">
   <feGaussianBlur id="feGaussianBlur25138-9" stdDeviation="0.1605801"/>
  </filter>
  <filter id="filter48371-3-3-2" x="-.050052" y="-.014982" width="1.1001" height="1.03" color-interpolation-filters="sRGB">
   <feGaussianBlur id="feGaussianBlur12-6-0" stdDeviation="0.1605801"/>
  </filter>
  <filter id="filter25148-7" x="-.1404" y="-.097107" width="1.2808" height="1.1942" color-interpolation-filters="sRGB">
   <feGaussianBlur id="feGaussianBlur25150-2" stdDeviation="0.1605801"/>
  </filter>
  <filter id="filter25144-2" x="-.074698" y="-.099359" width="1.1494" height="1.1987" color-interpolation-filters="sRGB">
   <feGaussianBlur id="feGaussianBlur25146-0" stdDeviation="0.1605801"/>
  </filter>
  <filter id="filter25140-5" x="-.074911" y="-.083833" width="1.1498" height="1.1677" color-interpolation-filters="sRGB">
   <feGaussianBlur id="feGaussianBlur25142-6" stdDeviation="0.1605801"/>
  </filter>
  <filter id="filter141662" x="-.043904" y="-.014742" width="1.0878" height="1.0295" color-interpolation-filters="sRGB">
   <feTurbulence id="feTurbulence141644" baseFrequency="0.1" numOctaves="3" result="result7" type="fractalNoise"/>
   <feColorMatrix id="feColorMatrix141646" result="result8" type="saturate" values="0"/>
   <feColorMatrix id="feColorMatrix141648" result="result6" values="1 0 0 0 0 0 1 0 0 0 0 0 1 0 0 0 0 0 20 -12 "/>
   <feGaussianBlur id="feGaussianBlur141650" in="result6" result="result5" stdDeviation="1.9999999"/>
   <feColorMatrix id="feColorMatrix141652" in="result5" result="result0" values="1 0 0 0 0 0 1 0 0 0 0 0 1 0 0 0 0 0 10 -0.1 "/>
   <feComposite id="feComposite141654" in="result0" in2="SourceGraphic" k1="0.8" k2="1" operator="arithmetic" result="result3"/>
   <feComposite id="feComposite141656" in2="result8" operator="atop"/>
   <feBlend id="feBlend141658" in2="SourceGraphic" result="result9"/>
   <feComposite id="feComposite141660" in="result9" in2="SourceGraphic" operator="atop" result="fbSourceGraphic"/>
   <feColorMatrix id="feColorMatrix141724" in="fbSourceGraphic" result="fbSourceGraphicAlpha" values="0 0 0 -1 0 0 0 0 -1 0 0 0 0 -1 0 0 0 0 1 0"/>
   <feTurbulence id="feTurbulence141726" baseFrequency="0.005 0.01" in="fbSourceGraphic" numOctaves="8" result="result1" seed="20" type="fractalNoise"/>
   <feColorMatrix id="feColorMatrix141728" result="result3" values="0 0 0 0 1 0 0 0 0 1 0 0 0 0 1 0 0 0 1.2 -0.4 "/>
   <feConvolveMatrix id="feConvolveMatrix141730" divisor="2" kernelMatrix="3 0 0 0 2 0 0 0 -1 " order="3 3" result="result8" targetX="1" targetY="1"/>
   <feComposite id="feComposite141732" in="result8" in2="fbSourceGraphic" operator="atop" result="fbSourceGraphic"/>
   <feTurbulence id="feTurbulence141734" baseFrequency="0.027 0.025" numOctaves="7" seed="20"/>
   <feColorMatrix id="feColorMatrix141736" result="result5" values="1 0 0 0 0 0 1 0 0 0 0 0 1 0 0 0 0 0 4.7 -2 "/>
   <feComposite id="feComposite141738" in="fbSourceGraphic" in2="result5" operator="in" result="result6"/>
   <feDisplacementMap id="feDisplacementMap141740" in="result6" in2="result5" result="result4" scale="48" xChannelSelector="R"/>
   <feFlood id="feFlood141742" flood-color="rgb(222,217,217)" result="result10"/>
   <feComposite id="feComposite141744" in2="result4" operator="in" result="result2"/>
   <feComposite id="feComposite141746" in="result2" in2="fbSourceGraphic" operator="atop" result="result91"/>
   <feBlend id="feBlend141748" in2="result91" mode="darken"/>
  </filter>
 </defs>
 <g id="layer60" transform="translate(19.4 11.241)">
  <g id="layer17">
   <g id="g138920">
    <path id="path138876" d="m514.44 841.17 2.8469 322.76s7.3941 1.4889 9.6969 1.4432c2.3028-0.046 12.983-1.0354 12.983-1.0354l11.293-112.05 15.829-157.22 31.251 266.61s11.673 1.0812 13.876 1.0734c2.2029-0.01 11.554-1.1207 11.554-1.1207l-8.0351-321.85s-11.332 1.3346-48.824 1.8002c-44.492 0.55251-52.469-0.40922-52.469-0.40922z" fill="#007fff" stroke="#000" stroke-width="2.3425"/>
    <path id="path138880" transform="matrix(2.0448 0 0 -2.0225 373.55 1682.3)" d="m122.78 264.78c-3.9361 2.9688-7.1734 2.3595-9.7896 1.9844 1.9252 0.85563 2.9141 2.6724 5.2586 1.5875 0.22371-0.10352 4.531-3.5719 4.531-3.5719z" filter="url(#filter25152-8)" opacity=".18567" stroke="#000" stroke-width=".26458px" style="mix-blend-mode:normal"/>
    <path id="path138882" transform="matrix(4.1461 0 0 4.1461 114.51 46.946)" d="m103.51 261.3-3.695 3.695 3.8353-3.0402z" filter="url(#filter25160-7)" opacity=".18567" style="mix-blend-mode:normal"/>
    <path id="path141348" d="m513.22 842.59 2.8469 322.76s7.3941 1.4889 9.6969 1.4432c2.3028-0.046 12.983-1.0354 12.983-1.0354l11.293-112.05 15.829-157.22 31.251 266.61s11.673 1.0812 13.876 1.0734c2.2029-0.01 11.554-1.1207 11.554-1.1207l-8.0351-321.85s-11.332 1.3346-48.824 1.8002c-44.492 0.55251-46.383-0.6738-46.383-0.6738z" fill="#ff0" filter="url(#filter141662)" stroke="#000" stroke-width="2.3425" style="mix-blend-mode:overlay"/>
    <g id="g138900" transform="matrix(4.1461 0 0 4.1461 114.09 46.948)" stroke="#000">
     <g id="g138898" fill="none">
      <g id="g138890" stroke-width=".26458px">
       <path id="path138884" d="m103.91 192.75s0.22989 5.2894-7.3734 3.1969"/>
       <path id="path138886" d="m113.62 192.56s-0.22989 5.2894 7.3734 3.1969"/>
       <path id="path138888" d="m108.15 191.64c0.01 9.218-0.11002 8.4107 0.98477 8.8178l-0.10335-8.6816"/>
      </g>
      <path id="path138892" d="m109.26 200.46-0.26367 0.01-0.0348 4.4348 0.57939-0.20679z" color="#000000" fill="#000" stroke="none" style="-inkscape-stroke:none"/>
      <path id="path138894" d="m96.609 192.57 11.343 0.10336h0.12919" stroke-width=".26458px"/>
      <path id="path138896" d="m109.11 192.6 11.834-0.41341" stroke-width=".26458px"/>
     </g>
    </g>
    <path id="path138902" transform="matrix(4.1461 0 0 4.1461 114.51 46.946)" d="m108.63 203.5-3.3748 0.69482 2.7388 0.64597-1.208 21.806 2.3731-22.618 3.0518 25.194-2.4211-24.667 3.1652-0.93017z" fill-opacity=".99763" filter="url(#filter48371-3-3-2)" opacity=".18567" stroke-width=".26458px" style="mix-blend-mode:normal"/>
    <path id="path138904" transform="matrix(4.1461 0 0 4.1461 114.51 46.946)" d="m99.656 205.44c0.98967 3.5696 7.0712 8.0225 7.0712 8.0225s-5.0268-4.0312-7.2115-3.0179c-2.4404 1.1319 0.15365 8.0689 0.15365 8.0689-3.9976 2.6263-1.664 8.0705-0.33349 9.5994-0.22468 1.173-0.65867 4.069 0.33351 4.4941 3.5449 1.4365 0.41667 3.602 0.45965 3.6204 0 0-0.93322 0.45981-1.1693 0.88868-0.26411 0.47978-0.14032 1.637-0.14032 1.637s0.19298 0.77268 0.5145 0.8419c0.39964 0.086 2.3182-7e-3 2.3182-7e-3s-1.2159 0.74406-1.8698 1.1812c-0.57558 0.38478-0.69708 0.0846-1.165 0.59483-0.48466 0.52851-0.28614 1.3664-0.0227 1.9668 0.22837 0.52049 1.268 1.14 1.268 1.14s-1.2644 0.0224-1.6838 0.42095c-0.69719 0.66242-1.0649 1.8241-0.8419 2.7596 0.23239 0.97478 0.37693 1.4924 0.37693 1.4924 1.3722 0.79004 3.3799 2.9007 3.235 3.6948-0.0848 0.46461-1.9482-0.59634-3.0234-0.48642-0.79028 0.0808 0.90913 1.5559 1.5848 2.363 1.6271 1.9434-0.67615 2.5657-0.67615 2.5657-0.0666 0.33316-0.0035-3.0306-0.58124-2.4497-0.92151 0.92644-0.21027 3.962-0.21164 3.9601-0.71626 0.6418-0.87184-1.4781 0.87878 1.2883 1.2258 1.2966-1.8924 2.7938 0.98605 2.9161-3.5001 0.0743 0.27533 1.0866-1.4033 1.9605-0.82946 1.2442-0.03409 2.0493 0.68553 3.3454 0.494 0.88971 3.4303 1.2063 3.4303 1.2063-3.3345 0.86693-2.5341 0.26629-5.4702-0.0984-0.16051-3.095 0.30167-6.4353 0.33492-10.925 5e-3 -0.60492-0.43644-1.3302-0.45843-1.9409-0.0911-2.5303 9e-3 -5.0482-0.1468-7.3781-0.0824-1.2335 0.0609-0.38863 0.0534-1.5713l-0.0453-7.2357s0.0478-2.7909-0.089-7.2044c0 0-0.0575-13.4-0.1091-15.88l-0.17834-24.701 2.5617-0.0429s-0.56618 8.7583 0.58465 12.909z" filter="url(#filter25156-6)" opacity=".30488" stroke="#000" stroke-width=".26458px" style="mix-blend-mode:normal"/>
    <path id="path138906" transform="matrix(4.1461 0 0 4.1461 114.51 46.946)" d="m104.24 222.1-2.4143-4.2003c0.80112 3.5606 2.494 5.6208 4.9622 8.7428z" filter="url(#filter25176-9)" opacity=".25813" stroke="#000" stroke-width=".26458px" style="mix-blend-mode:normal"/>
    <path id="path138910" transform="matrix(4.1461 0 0 4.1461 114.51 46.946)" d="m105.53 237.11s-2.0789 0.48975-2.8999 1.1225c-0.44212 0.3408-0.98222 1.3564-0.98222 1.3564z" filter="url(#filter25168-94)" opacity=".35163" style="mix-blend-mode:normal"/>
    <path id="path138912" transform="matrix(4.1461 0 0 4.1461 114.51 46.946)" d="m103.76 240.61s-1.4902 0.10949-2.1983 0.32741c-0.92638 0.2851-2.6192 1.2628-2.6192 1.2628z" filter="url(#filter25164-7)" opacity=".35163" style="mix-blend-mode:normal"/>
    <path id="path138914" transform="matrix(4.1461 0 0 4.1461 114.51 46.946)" d="m117.48 246.13 2.745-3.9688s-0.53703 1.425-0.95911 2.0505c-0.48867 0.72418-1.7859 1.9182-1.7859 1.9182z" filter="url(#filter25148-7)" opacity=".18567" style="mix-blend-mode:normal"/>
    <path id="path138916" transform="matrix(4.1461 0 0 4.1461 114.51 46.946)" d="m116.79 243.15s2.4009-3.415 4.2664-3.8365c0.30281-0.0684 0.89296 0.26459 0.89296 0.26459l-5.0602 3.6049" filter="url(#filter25144-2)" opacity=".35163" style="mix-blend-mode:normal"/>
    <path id="path138918" transform="matrix(4.1461 0 0 4.1461 114.51 46.946)" d="m118.73 223.47c-0.45454 1e-3 -1.3744 0.16965-1.3744 0.16965 2.4351 1.4758 3.4836 2.9516 5.1447 4.4275 0 0-1.7885-4.6017-3.7703-4.5971z" filter="url(#filter25140-5)" opacity=".35163" style="mix-blend-mode:normal"/>
    <path id="path138908" transform="matrix(4.1461 0 0 4.1461 114.51 46.946)" d="m115.84 262.44c-0.0257 0.23592 4.5002-0.77898 3.3987-1.5586-0.60055-0.42505-3.0828 0.24588-2.6735-2.6007 0 0-0.16027-1.5559 3.0888 0.49654 0.36161 0.22843-1.1866-1.18-0.9727-1.7554 0.29619-0.79663-2.5726-3.0049-2.2454-4.2139 0.2072-0.76559-1.6989-2.0904-1.5095-5.2658 0.18604-3.1197 0.69051-7.5531 1.5377-9.3685 0.29873-0.64009 1.5089-0.28858 1.5602-0.36118 0.46045-0.65128-1.7641-1.3154-3.0428-4.6076-0.34787-0.89565-0.50323-3.7621-0.66289-4.7382-0.46863-2.8652-1.3137-5.5647-1.103-6.0696 1.0446-2.5027 1.2898-5.2917 1.2898-5.2917-0.2463 1.1166-1.4781 2.0018-2.1412 2.2916 0.20322-1.3458 2.1079-4.5877 1.7112-6.2934 0.1077-1.3177-0.15315-5.4431 0.8599-6.6476-1.4111 1.3578-3.3591 3.3-4.0018 1.9183l-1.7707-3.8066c-0.6748 2.8702-0.92065 1.7393-1.0736 4.6665l-1.7859-1.1245c1.9791 1.8591 1.5906 3.8498 2.1497 5.7878-0.39026-9.5182 0.70976-9.3298 0.70976-9.3298s1.8015 18.53 2.3224 23.59" filter="url(#filter25136-67)" opacity=".30488" stroke="#000" stroke-width=".26458px" style="mix-blend-mode:normal"/>
   </g>
  </g>
 </g>
</svg>
