<?xml version="1.0" encoding="UTF-8"?>
<svg id="svg5" width="1200mm" height="1200mm" version="1.1" viewBox="0 0 1200 1200" xmlns="http://www.w3.org/2000/svg" xmlns:xlink="http://www.w3.org/1999/xlink">
 <g id="layer60" transform="translate(19.4 11.241)">
  <g id="layer214">
   <g id="layer231" transform="translate(-19.4 -11.241)">
    <circle id="circle51700" cx="582.77" cy="791.24" r="53.91" fill="#fff" stroke="#000" stroke-linecap="round" stroke-linejoin="round" stroke-width="2.5913"/>
    <path id="path51702" d="m609.31 837.43c-25.774 14.905-58.752 6.0932-73.656-19.681-8.1267-14.053-9.2028-30.248-4.3231-44.487 5.5993-11.532 28.025-35.669 26.309-28.875-15.527 61.49 2.837 94.565 51.67 93.043z" opacity=".099594" stroke-linecap="round" stroke-linejoin="round" stroke-width="2.5913"/>
    <path id="path52554" d="m608.97 743.68c3.7744 22.006-11.028 36.854-29.36 52.965 3.065 17.474 9.9657 34.155 22.063 46.005" fill="none" stroke="#000"/>
    <path id="path52556" d="m555.47 744.43c19.251-1.4986 32.15-2.8086 52.946 13.845" fill="none" stroke="#000"/>
    <path id="path52558" d="m533.2 769.87c31.894-12.741 51.554-4.8256 69.336 2.8705" fill="none" stroke="#000"/>
    <path id="path52560" d="m529.84 796.62c19.642-13.82 35.415-5.2156 49.911-0.32329" fill="none" stroke="#000"/>
    <path id="path52562" d="m550.52 788.98c2.0776 18.326 10.223 40.19 24.426 54.957" fill="none" stroke="#000"/>
    <path id="path52564" d="m590.05 827.29c6.9003-6.2498 42.724-28.98 38.754-64.153" fill="none" stroke="#000"/>
    <path id="path52566" d="m598.05 838.71c11.167-4.763 23.752-9.027 32.996-25.809" fill="none" stroke="#000"/>
   </g>
  </g>
 </g>
</svg>
