<?xml version="1.0" encoding="UTF-8"?>
<svg id="svg5" width="1200mm" height="1200mm" version="1.1" viewBox="0 0 1200 1200" xmlns="http://www.w3.org/2000/svg" xmlns:xlink="http://www.w3.org/1999/xlink">
 <defs id="defs77">
  <filter id="filter10961" x="-.011426" y="-.052236" width="1.0229" height="1.1045" color-interpolation-filters="sRGB">
   <feGaussianBlur id="feGaussianBlur10963" stdDeviation="0.06168086"/>
  </filter>
 </defs>
 <g id="layer60" transform="translate(19.4 11.241)">
  <g id="layer214">
   <g id="layer95">
    <path id="path124-5" d="m573.72 176.3-31.768 4.9852 12.667-11.026-8.2567-17.888 19.197 4.8832 11.877-15.204 7.7337 18.507 19.101 2.6231-12.908 11.826 6.6052 16.307z" fill="#ffdb13" stroke="#000" stroke-width="1.6513px"/>
    <path id="path9416" transform="matrix(4.1461 0 0 4.1461 122.66 63.254)" d="m97.914 48.863c7.7914-0.74704 7.1241-0.54739 12.956 0.24576l-0.71867-1.9194c-6.4542-1.7153-7.3631-0.68763-8.9805 0.4004-0.73899 0.49711-1.6259 1.0068-3.2572 1.2732z" filter="url(#filter10961)" opacity=".1218"/>
    <g id="g371" transform="matrix(6.2414 0 0 6.2414 58.188 -681.39)">
     <path id="path347" d="m82.6 137.42c-1.4888-0.31993-3.2418-0.0303-4.4901 0.84189-1.1003 0.76877-1.9445 2.1237-2.058 3.4611-0.11014 1.2983 0.759 2.6648 1.6136 3.6482 0.42116 0.48464 0.84062 0.82621 1.4733 0.93545 1.1214 0.19363 2.192-0.15743 3.2039-0.6782 1.0587-0.54481 2.138-1.3535 2.6894-2.4088 0.57217-1.095 0.7997-2.2961 0.3274-3.4378-0.47947-1.159-1.5333-2.0985-2.7596-2.362z" fill="#91f091" stroke="#000" stroke-width=".26458px"/>
     <path id="path349" d="m74.588 151.26c-0.17486 0.0499-0.35148 0.0444-0.36332-0.13699-0.05091-0.78037 0.70438-1.497 1.2-2.1019 0.89088-1.0872 3.2462-2.6899 3.2462-2.6899l-0.40826 1.5641s-1.3156 1.0779-1.9365 1.6582c-0.61599 0.57568-1.0992 1.5244-1.7381 1.7065zm3.241-1.2572 0.74836-0.0856s-0.6259 0.179-1.2288 0.28582c-0.4847 0.0859-0.93116 0.0666-1.2033 0.31419-0.83643 0.76101-0.91153 2.3602-1.2815 3.5674-0.3209 1.0471-0.76758 1.9859-0.61159 2.4468 0 0 0.59579 0.21186 0.77575-6e-3 0.51127-0.61823 1.0704-3.2969 1.5029-4.4679 0.12048-0.32618 0.50106-0.32996 0.93146-0.51759 0.72619-0.31658 1.3958-0.66542 1.3958-0.66542s1.2903-0.20385 2.297-0.0641c0.34627 0.0481 0.67358 0.095 0.88346 0.26771 0.77088 0.63429 0.62263 1.9095 0.74836 2.8999 0.06196 0.48803 0.11536 1.2055 0.05864 1.7092-0.04035 0.35837-0.24262 0.51878-0.05864 0.81647 0.21994 0.35586 0.39717 0.48366 0.74219 0.24708 0.54249-0.37198 0.20718-0.99261 0.19325-1.6502-0.02513-1.1863 0.55526-2.4267 0.18709-3.5547-0.37967-1.1632-1.6735-1.5231-1.6735-1.5231l1.0187 0.40054c-0.84293-1.9591-2.1398-4.2329-2.1398-4.2329-0.72736 0.21872-1.7047 0.0334-2.4438 0.1404z" color="#000000" fill="#91f091" stroke-width=".26458px" style="-inkscape-stroke:none"/>
     <path id="path351" d="m78.846 146.18-0.22458 0.0151-0.05859 0.01-0.0098 0.0391c-0.03746 0.0255-0.57193 0.38903-1.252 0.91015-0.70336 0.53901-1.517 1.2122-1.9785 1.7754-0.24318 0.29678-0.55809 0.62827-0.81055 0.99219s-0.44832 0.76595-0.41992 1.2012c0.0087 0.13328 0.11076 0.24689 0.21875 0.27539s0.21449 9e-3 0.31445-0.0195c0.36921-0.10527 0.65932-0.41087 0.94141-0.74804 0.28209-0.33718 0.55549-0.71341 0.84961-0.98829 0.53636-0.50126 1.43-1.2356 1.6895-1.4492l-0.4082 1.7852c-0.16803 0.0385-0.18988 0.0538-0.37109 0.0859-0.2338 0.0414-0.46524 0.057-0.68164 0.0957s-0.42392 0.10082-0.58789 0.25c-0.45087 0.41022-0.68353 1.0268-0.85547 1.6816s-0.28391 1.355-0.46484 1.9453c-0.15866 0.51768-0.35001 1.0135-0.48438 1.4434-0.13436 0.42986-0.22403 0.79332-0.125 1.0859l0.01953 0.0606 0.06055 0.0215s0.15903 0.056 0.3457 0.084c0.09334 0.014 0.19451 0.0211 0.29492 8e-3 0.10041-0.0133 0.20673-0.0485 0.28125-0.13867 0.15017-0.18159 0.27904-0.47218 0.41211-0.83399 0.13307-0.3618 0.26528-0.79226 0.39453-1.2402 0.2585-0.89594 0.50743-1.8595 0.71875-2.4316 0.04461-0.12078 0.1255-0.17481 0.27539-0.23438 0.14989-0.0596 0.35794-0.10959 0.58594-0.20898 0.71919-0.31353 1.3588-0.64475 1.3809-0.65625 0.01973-3e-3 1.2737-0.19667 2.2402-0.0625 0.34592 0.048 0.65151 0.10098 0.81836 0.23828 0.34864 0.28686 0.4954 0.7248 0.56836 1.2324 0.07296 0.50763 0.06824 1.0734 0.13281 1.582 0.06112 0.48139 0.11272 1.197 0.05859 1.6777-0.01767 0.15694-0.07419 0.27305-0.11133 0.41211-0.03714 0.13905-0.03866 0.31195 0.07031 0.48828 0.1146 0.18542 0.22278 0.3316 0.38672 0.39844 0.16393 0.0668 0.35258 0.0192 0.54297-0.11133 0.31003-0.21259 0.38234-0.53129 0.36328-0.83594s-0.10677-0.61855-0.11328-0.92578c-0.01209-0.5706 0.12382-1.1701 0.2207-1.7754s0.15583-1.2213-0.03906-1.8184c-0.14812-0.45378-0.46547-0.6845-0.75586-0.92969l0.22266 0.0879-0.125-0.29101c-0.84772-1.9702-2.1465-4.2461-2.1465-4.2461l-0.05273-0.0918-0.10156 0.0293c-0.3389 0.10191-0.75339 0.22478-1.1776 0.22213-0.35481-2e-3 -0.71554-0.12651-1.0529-0.0971zm2.1875 0.13618c0.03757 0.066 1.1311 2.0405 1.9473 3.8477l-0.69531-0.27344v2e-3c-2.29e-4 -6e-5 -0.01367-6e-3 -0.01367-6e-3l-0.08398 0.25 0.01367 6e-3s1.2274 0.34899 1.582 1.4356c0.17329 0.53089 0.12624 1.0999 0.03125 1.6934s-0.23765 1.2086-0.22461 1.8242c0.0074 0.3504 0.09682 0.67443 0.11328 0.9375 0.01646 0.26306-0.01559 0.44021-0.24805 0.59961-0.15464 0.10603-0.229 0.11281-0.29492 0.0859-0.06592-0.0269-0.15638-0.12254-0.26172-0.29297-0.07501-0.12136-0.06715-0.17609-0.03906-0.28125 0.02809-0.10517 0.09451-0.24975 0.11719-0.45117 0.05932-0.52683 0.0042-1.2456-0.05859-1.7402-0.06115-0.48169-0.05575-1.0498-0.13281-1.5859-0.07706-0.53615-0.23987-1.053-0.66211-1.4004-0.25292-0.20812-0.60259-0.24677-0.94922-0.29492-1.0393-0.14427-2.3359 0.0644-2.3359 0.0644l-0.02148 2e-3 -0.01953 0.01s-0.66586 0.34785-1.3867 0.66211c-0.20241 0.0882-0.4 0.1343-0.57812 0.20508-0.17812 0.0708-0.34991 0.18327-0.42578 0.38867-0.2212 0.59887-0.46762 1.5585-0.72461 2.4492-0.1285 0.44536-0.2596 0.87369-0.38867 1.2246s-0.26172 0.62833-0.36719 0.75586c-0.01546 0.0187-0.05137 0.0367-0.11328 0.0449-0.06191 8e-3 -0.1426 4e-3 -0.2207-8e-3 -0.10967-0.0165-0.15632-0.0349-0.20703-0.0508-0.03969-0.17759-5.71e-4 -0.4721 0.12109-0.86133 0.1302-0.41655 0.32213-0.91397 0.48438-1.4434 0.18905-0.61686 0.29959-1.3202 0.4668-1.957 0.16721-0.63681 0.39179-1.2 0.77734-1.5508 0.10817-0.0984 0.25904-0.15051 0.45508-0.18555 0.19604-0.035 0.43074-0.0532 0.68164-0.0977 0.59811-0.10596 1.1844-0.27508 1.2129-0.2832 1.74e-4 -5e-5 0.0077 4e-5 0.0078 0 3.8e-4 -1.1e-4 0.02148-6e-3 0.02148-6e-3l-0.05078-0.25781-0.56445 0.0644 0.80853-3.4647c0.61935 0.10654 1.4966 0.11756 2.2266-0.0607zm-2.584 0.33008-0.30469 1.166c-0.04289 0.0351-1.2895 1.0585-1.9082 1.6367-0.32187 0.30081-0.59979 0.6851-0.87305 1.0117-0.27326 0.32663-0.54285 0.58718-0.8125 0.66407-0.07489 0.0214-0.14488 0.0247-0.17188 0.0176-0.02699-7e-3 -0.01834 0.011-0.02148-0.0371-0.02252-0.34515 0.13473-0.69052 0.37109-1.0312 0.23637-0.34072 0.54636-0.6704 0.79883-0.97851 0.42941-0.52406 1.2386-1.1963 1.9355-1.7305 0.53604-0.41078 0.79767-0.58792 0.98633-0.71875z" color="#000000" style="-inkscape-stroke:none"/>
     <path id="path353" d="m81.243 146.29s1.7018 1.1661 2.5725 2.0668c0.49519 0.51229 0.94261 1.083 1.2862 1.7072 0.21297 0.38684 0.60284 0.81905 0.46772 1.2395-0.0516 0.16055-0.25418 0.30567-0.42095 0.28063-0.51501-0.0773-0.67503-0.79403-0.98806-1.2102-0.28627-0.38062-0.50186-0.81428-0.81267-1.1752-0.3419-0.39698-1.1459-1.0758-1.1459-1.0758l-1.0758-1.8651" color="#000000" fill="#91f091" stroke-width=".26458px" style="-inkscape-stroke:none"/>
     <path id="path355" d="m82.1 148.21 0.01758 0.0137s0.80722 0.68477 1.1309 1.0605c0.29634 0.34408 0.51054 0.77427 0.80664 1.168 0.1411 0.1876 0.25966 0.46811 0.41016 0.7207s0.3492 0.49376 0.66406 0.54102c0.12827 0.0193 0.24866-0.0242 0.34766-0.0918 0.09899-0.0676 0.18107-0.16206 0.21875-0.27929 0.08294-0.25807 0.0028-0.50989-0.11133-0.73243-0.11416-0.22253-0.26516-0.42955-0.36523-0.61132-0.35059-0.63682-0.80695-1.2154-1.3086-1.7344-0.8932-0.92403-2.6549-2.145-2.6549-2.145-0.1486 3e-3 -0.37514-0.0849-0.29862 0.14571 0.15266 0.46008 0.84834 1.4656 1.143 1.9446zm-0.68945-1.6289c0.56018 0.40908 1.6356 1.169 2.3105 1.8672 0.48874 0.50562 0.92896 1.0682 1.2656 1.6797 0.1129 0.20506 0.26305 0.40814 0.36328 0.60352s0.14593 0.3689 0.09375 0.53125c-0.01392 0.0433-0.05834 0.10178-0.11523 0.14062-0.05689 0.0388-0.12166 0.0546-0.16016 0.0488-0.20014-0.03-0.33808-0.18491-0.47461-0.41406s-0.2558-0.51554-0.42773-0.74414c-0.27643-0.36754-0.4931-0.80399-0.81836-1.1816-0.35517-0.41239-1.1229-1.058-1.1445-1.0762z" color="#000000" style="-inkscape-stroke:none"/>
     <path id="path357" d="m79.536 145.06c-0.10754-0.0275-0.12697 0.13087 0.03689 0.24932 0.16385 0.11845 0.82844 9e-3 0.93555-0.15429-0.16931-0.037-0.74775-0.0164-0.97243-0.095z" color="#000000" style="-inkscape-stroke:none"/>
     <g id="g367" fill-rule="evenodd">
      <ellipse id="ellipse359" transform="rotate(.41523)" cx="79.599" cy="141.17" rx="2.6868" ry="2.5752" fill="#0f1b0f" stroke="#000" stroke-linecap="round" stroke-linejoin="round" stroke-width=".43569"/>
      <ellipse id="ellipse361" transform="rotate(.41523)" cx="83.737" cy="142.68" rx="1.5337" ry="1.5756" fill="#0f1b0f" stroke="#000" stroke-linecap="round" stroke-linejoin="round" stroke-width=".3772"/>
      <ellipse id="ellipse363" cx="77.443" cy="140.76" rx="1.1108" ry="1.0056" fill="#fff"/>
      <ellipse id="ellipse365" cx="81.921" cy="142.71" rx=".59635" ry=".56447" fill="#fff"/>
     </g>
    </g>
   </g>
  </g>
 </g>
</svg>
