<svg width="1200mm" height="1200mm" version="1.1" viewBox="0 0 1200 1200" xmlns="http://www.w3.org/2000/svg">
 <defs>
  <filter id="filter892" x="-.33263" y="-.33246" width="1.6653" height="1.6649" color-interpolation-filters="sRGB">
   <feGaussianBlur stdDeviation="31.172891"/>
  </filter>
 </defs>
 <g stroke-width=".92992">
  <path d="m-6.3157-18.598h1321.5v1239.1h-1321.5z" fill="#1e1e1e"/>
  <path d="m1217.2 124.59s-150.05 165.99-344.36 177.58c-194.3 11.581-376.76-122.62-496.43-102.03s-199.99 79.804-381.43 104.25c-181.44 24.449-109.38 422.06-109.38 422.06l1451.5-48.897-21.872-698.71z" fill="#161616"/>
  <path d="m50.302 916.88 961.82-19.209 286.33-95.317-37.141-531.6s-82.577 265.59-210.93 288.43c-128.36 22.84-249.52-77.796-407.15-55.922-157.63 21.875-210.79 100.07-281.57 100.07s-147.85-82.923-248.21-113.8c-100.37-30.882-216.29-16.598-272.9 7.8504-56.618 24.449 25.735 577.76 25.735 577.76z" fill="#0f0f0f"/>
  <path d="m4.5643 924.16s81.389-217.36 552.34-111.84c470.96 105.52 548.17-24.078 631.82 2.9432 83.637 27.023 189.52 258.61 189.52 258.61l-55.33 214.89-1214.7 45.036-194.3-48.895z"/>
 </g>
 <rect x="-124.42" y="-59.152" width="1607.3" height="1425.8" fill="#fff" fill-rule="evenodd" opacity=".073171" stroke-linecap="round" stroke-width="1.0583" style="paint-order:fill markers stroke"/>
 <path d="m172.38 50.902c-66.403-0.7509-120.8 49.011-121.5 111.15-0.7027 62.139 52.553 113.12 118.96 113.87 45.345 0.512 85.078-22.54 105.95-56.994-21.117 34.272-105.43 23.712-121.18-33.397-30.634-111.08 63.84-127.17 83.236-115.61-18.752-11.76-41.226-18.747-65.465-19.022z" fill="#ffe200"/>
 <path d="m172.38 50.902c-66.403-0.7509-120.8 49.011-121.5 111.15-0.7027 62.139 52.553 113.12 118.96 113.87 45.345 0.512 85.078-22.54 105.95-56.994-21.117 34.272-105.43 23.712-121.18-33.397-30.634-111.08 63.84-127.17 83.236-115.61-18.752-11.76-41.226-18.747-65.465-19.022z" fill="#ffe200" filter="url(#filter892)" opacity=".61179"/>
 <path d="m172.38 50.902c-66.403-0.7509-122.83 117.84-63.158 170.01 86.259 75.416 145.69 32.471 166.57-1.983-21.117 34.272-105.43 23.712-121.18-33.397-30.634-111.08 63.84-127.17 83.236-115.61-18.752-11.76-41.226-18.747-65.465-19.022z" fill="#f6eeb3" fill-opacity=".48423"/>
 <g fill="#ffe200">
  <path d="m104 104.05c0.101-8.9699 7.935-16.154 17.497-16.046s17.232 7.4674 17.13 16.438c-0.101 8.969-7.935 16.153-17.497 16.045s-17.232-7.467-17.13-16.437z"/>
  <path d="m146.66 88.983c0.053-4.7076 3.285-8.4878 7.218-8.4434 3.934 0.0445 7.079 3.8969 7.026 8.6045s-3.285 8.4878-7.218 8.4433c-3.934-0.0444-7.079-3.8968-7.026-8.6044z"/>
  <path d="m73.732 219.43c0.1598-14.123 12.879-25.429 28.409-25.253 15.53 0.175 27.99 11.766 27.83 25.889s-12.879 25.43-28.409 25.254-27.99-11.767-27.83-25.89z"/>
  <path d="m105.45 158.28c0.102-9.033 7.992-16.268 17.622-16.159s17.354 7.52 17.251 16.553c-0.102 9.034-7.991 16.269-17.621 16.16s-17.354-7.52-17.252-16.554z"/>
  <path d="m171.07 253.34c0.095-8.461 7.705-15.235 16.996-15.13 9.29 0.105 16.745 7.05 16.649 15.511s-7.705 15.234-16.996 15.129-16.745-7.049-16.649-15.51z"/>
  <path d="m87.696 135.88c0.0283-2.5 1.948-4.504 4.2878-4.478 2.3397 0.027 4.2136 2.074 4.1853 4.574-0.0282 2.499-1.9479 4.504-4.2877 4.477-2.3398-0.026-4.2136-2.074-4.1854-4.573z"/>
  <path d="m151.96 231.93c0.039-3.435 2.709-6.19 5.964-6.153 3.255 0.036 5.863 2.851 5.824 6.286-0.039 3.436-2.709 6.191-5.965 6.154-3.255-0.037-5.862-2.852-5.823-6.287z"/>
  <path d="m181.84 257.35c0.03-2.672 2.584-4.809 5.703-4.774 3.12 0.036 5.624 2.23 5.594 4.902s-2.584 4.809-5.703 4.774c-3.12-0.035-5.624-2.23-5.594-4.902z"/>
  <path d="m138.45 213.24c0.031-2.736 1.705-4.935 3.74-4.912 2.034 0.023 3.659 2.259 3.628 4.995-0.031 2.735-1.706 4.934-3.74 4.911-2.035-0.023-3.659-2.259-3.628-4.994z"/>
  <path d="m155.36 63.516c0.028-2.481 2.03-4.4699 4.471-4.4423s4.398 2.0612 4.37 4.5423c-0.028 2.481-2.03 4.4699-4.472 4.4423-2.441-0.0276-4.397-2.0613-4.369-4.5423z"/>
  <path d="m139 185.29c0-0.038 0.052-0.068 0.116-0.067s0.115 0.032 0.114 0.07c0 0.038-0.052 0.068-0.116 0.067-0.063 0-0.115-0.032-0.114-0.07z"/>
  <path d="m246.07 151.35-2.828-5.172-5.172-2.828 5.172-2.829 2.828-5.171 2.828 5.171 5.172 2.829-5.172 2.828z"/>
  <path d="m1110.4 121.1-14.81-14.357-20.23-4.096 14.36-14.815 4.1-20.22 14.81 14.357 20.22 4.0952-14.35 14.815z" opacity=".86434"/>
  <path d="m962.37 61.894-3.889-7.111-7.111-3.889 7.111-3.8891 3.889-7.1109 3.889 7.1109 7.111 3.8891-7.111 3.889z" opacity=".56783"/>
 </g>
 <path d="m154.59 568.8-3.37-8.174-7.248-5.064 8.174-3.37 5.065-7.248 3.37 8.174 7.248 5.064-8.174 3.37z" fill="#fff" opacity=".71899"/>
 <path d="m1157.9 462.42 1.18 12.47 7.73 9.862-12.47 1.182-9.87 7.722-1.18-12.47-7.72-9.862 12.47-1.181z" fill="#ffe200"/>
 <path d="m659.78 194.88-7.071-12.929-12.929-7.071 12.929-7.071 7.071-12.929 7.072 12.929 12.928 7.071-12.928 7.071z" fill="#ffe200" opacity=".8314"/>
 <path d="m975.39 233.75-2.393-13.793-9.457-10.323 13.794-2.393 10.322-9.457 2.394 13.794 9.456 10.322-13.793 2.394z" fill="#fff"/>
 <path d="m1078.7 392.76-2.12-3.878-3.88-2.122 3.88-2.121 2.12-3.879 2.12 3.879 3.88 2.121-3.88 2.122z" fill="#fff"/>
 <path d="m91.23 426.28-18.1 9.899-9.8995 18.101-9.8995-18.101-18.1-9.899 18.1-9.9 9.8995-18.1 9.8995 18.1z" fill="#ffe200"/>
</svg>
