<?xml version="1.0" encoding="UTF-8"?>
<svg id="svg5" width="1200mm" height="1200mm" version="1.1" viewBox="0 0 1200 1200" xmlns="http://www.w3.org/2000/svg" xmlns:xlink="http://www.w3.org/1999/xlink">
 <g id="layer60" transform="translate(19.4 11.241)">
  <g id="layer264">
   <g id="layer91">
    <path id="path43001" d="m600.35 1167s14.345 5.6757 25.071 5.7236c3.9738 0.017 10.641-1.6054 14.135-2.5368 2.1517-0.4437 2.2943-2.5263 2.2943-2.5263l1.7e-4 -5.3478s0.1393-4.3531-4.2078-5.6776c-6.0069-0.9925-9.8506 2.4142-12.928 0.6689l-7.2493-5.8457s-0.91492-1.2668-2.3109-0.323c0 0-5.3335 6.0947-8.7651 8.113-1.7488 1.0286-5.7842 1.8946-5.7842 1.8946z" fill="#ea0d0d" stroke="#000" stroke-width="1.0746px"/>
    <path id="path43001-7" d="m600.35 1167s14.345 5.6757 25.071 5.7236c3.9738 0.017 10.641-1.6054 14.135-2.5368 2.1517-0.4437 2.2943-2.5263 2.2943-2.5263l-0.52622-6.9933c-4.8096 5.2862-16.043 6.9656-22.696 4.5382-2.2478-4.311-3.8563-6.7662-3.4732-14.07 0 0-5.3335 6.0946-8.7651 8.1129-1.7488 1.0286-5.7842 1.8946-5.7842 1.8946z" opacity=".36859" stroke="#000" stroke-linejoin="round" stroke-width="1.0746px"/>
    <path id="path46808" d="m606.98 1161.4-5.4482-6.8189c-0.64048-1.9009 1.2275-3.6102 1.2275-3.6102l7.5696 7.697c2.2136 1.7345-0.38724 4.5848-3.3489 2.7321z" fill="#ea0d0d" stroke="#000" stroke-width="1.0746px"/>
    <path id="path46808-7" d="m606.98 1161.4-5.4482-6.8189c-0.64048-1.9009 1.2275-3.6102 1.2275-3.6102 2.6354 3.2592-0.12272 8.1626 7.5696 7.697 2.2136 1.7345-0.38724 4.5848-3.3489 2.7321z" opacity=".35577" stroke="#000" stroke-width="1.0746px"/>
    <path id="path47378" d="m600.6 1161.1c12.963 1.4592 10.182 3.0577 17.008 5.8672 3.3316 1.3421 8.3545 2.8938 13.391 1.7049l10.829-2.7825" fill="none" stroke="#000" stroke-width="1.0746px"/>
    <circle id="path48523" cx="119.14" cy="268.44" r="0" fill="#ea0d0d" stroke="#000" stroke-width=".16164"/>
    <path id="path48925" d="m611.4 1159.4c2.7591-1.8912 5.1903-4.9123 7.1341-7.2387" fill="none" stroke="#000" stroke-width="1.0746px"/>
    <path id="path49931" d="m623.31 1167.6c1.8976 0.6158 2.2094 0.4532 3.37 0.3586l-0.0775-1.6533c-4e-3 -0.5749-0.28691-0.6987-0.7516-0.7241l-1.753-0.1331c-0.75019 0.046-0.70823 0.6151-0.70823 0.6151z"/>
    <path id="path49931-9" d="m630.1 1167.4c1.9776 0.2073 2.47-0.2736 3.3245-0.5872l-0.34827-1.3684c-0.11443-0.5625-0.41544-0.6247-0.87557-0.5526l-1.7431 0.236c-0.72606 0.2019-0.5756 0.7504-0.5756 0.7504z"/>
    <path id="path49931-9-4" d="m636.51 1165.9c1.9776 0.2073 2.47-0.2737 3.3245-0.5872l-0.34827-1.3684c-0.11443-0.5625-0.41544-0.6248-0.87557-0.5526l-1.7431 0.2359c-0.72611 0.2019-0.57561 0.7505-0.57561 0.7505z"/>
    <ellipse id="path51345" cx="625.35" cy="1162.8" rx="1.0034" ry=".68562"/>
    <ellipse id="path51345-0" transform="matrix(.9573 -.2891 .39717 .91774 0 0)" cx="119.18" cy="1300.9" rx=".99397" ry=".51171"/>
    <ellipse id="path51345-0-0" transform="matrix(.9573 -.2891 .39717 .91774 0 0)" cx="123.46" cy="1300.3" rx=".99397" ry=".51171"/>
    <ellipse id="path51345-0-1" transform="matrix(.9573 -.2891 .39717 .91774 0 0)" cx="116.63" cy="1298.9" rx=".99397" ry=".51171"/>
    <ellipse id="path51345-7" transform="matrix(.98288 -.18424 .17011 .98543 0 0)" cx="423.67" cy="1258.5" rx="1.0047" ry=".68477"/>
    <ellipse id="path51345-6" transform="matrix(.97034 -.24176 .22364 .97467 0 0)" cx="359.56" cy="1280.2" rx="1.0057" ry=".68415"/>
    <ellipse id="path51345-72" transform="matrix(.9473 -.32036 .29736 .95477 0 0)" cx="265.52" cy="1303.3" rx="1.0075" ry=".68303"/>
    <path id="path55267" d="m602.76 1151s0.77864-0.9555 1.7852-0.8913c2.7188 0.1733 6.9933 4.5251 6.9933 4.5251l-1.9814 2.2743-6.7971-5.9081" fill="#470000" stroke="#000" stroke-width="1.097px"/>
    <path id="path56480" d="m605.51 1149.9 0.61707 4.6622 3.435 2.3429-1.241-5.771z"/>
    <path id="path43001-6" d="m539.87 1166.4s-14.345 5.6757-25.071 5.7236c-3.9738 0.017-10.641-1.6054-14.135-2.5368-2.1517-0.4437-2.2943-2.5263-2.2943-2.5263l-1.7e-4 -5.3479s-0.1393-4.353 4.2078-5.6775c6.0069-0.9925 9.8506 2.4142 12.928 0.6688l7.2493-5.8456s0.91494-1.2668 2.3109-0.323c0 0 5.3335 6.0947 8.7651 8.113 1.7488 1.0285 5.7842 1.8946 5.7842 1.8946z" fill="#ea0d0d" stroke="#000" stroke-width="1.0746px"/>
    <path id="path43001-7-0" d="m539.87 1166.4s-14.345 5.6757-25.071 5.7236c-3.9738 0.017-10.641-1.6054-14.135-2.5368-2.1517-0.4437-2.2943-2.5263-2.2943-2.5263l0.52622-6.9933c4.8096 5.2862 16.043 6.9656 22.696 4.5381 2.2478-4.3109 3.8563-6.7661 3.4733-14.07 0 0 5.3335 6.0947 8.7651 8.113 1.7488 1.0286 5.7842 1.8946 5.7842 1.8946z" opacity=".36859" stroke="#000" stroke-linejoin="round" stroke-width="1.0746px"/>
    <path id="path46808-3" d="m533.24 1160.9 5.4482-6.8188c0.64049-1.9009-1.2275-3.6103-1.2275-3.6103l-7.5697 7.697c-2.2136 1.7346 0.38724 4.5849 3.349 2.7321z" fill="#ea0d0d" stroke="#000" stroke-width="1.0746px"/>
    <path id="path46808-7-6" d="m533.24 1160.9 5.4482-6.8188c0.64049-1.9009-1.2275-3.6103-1.2275-3.6103-2.6354 3.2593 0.12272 8.1627-7.5697 7.697-2.2136 1.7346 0.38724 4.5849 3.349 2.7321z" opacity=".35577" stroke="#000" stroke-width="1.0746px"/>
    <path id="path47378-0" d="m539.62 1160.6c-12.963 1.4592-10.182 3.0577-17.008 5.8672-3.3316 1.3421-8.3545 2.8937-13.391 1.7049l-10.829-2.7826" fill="none" stroke="#000" stroke-width="1.0746px"/>
    <circle id="path48523-2" transform="scale(-1,1)" cx="-100.57" cy="269.52" r="0" fill="#ea0d0d" stroke="#000" stroke-width=".16164"/>
    <path id="path48925-9" d="m528.82 1158.8c-2.7591-1.8911-5.1903-4.9122-7.1342-7.2386" fill="none" stroke="#000" stroke-width="1.0746px"/>
    <path id="path49931-7" d="m516.91 1167.1c-1.8976 0.6159-2.2094 0.4532-3.37 0.3587l0.0775-1.6533c4e-3 -0.5749 0.28691-0.6988 0.7516-0.7241l1.753-0.1331c0.75019 0.046 0.70823 0.6151 0.70823 0.6151z"/>
    <path id="path49931-9-5" d="m510.12 1166.9c-1.9776 0.2073-2.47-0.2736-3.3245-0.5872l0.34827-1.3684c0.11443-0.5625 0.41544-0.6248 0.87557-0.5526l1.7431 0.2359c0.72606 0.2019 0.5756 0.7505 0.5756 0.7505z"/>
    <path id="path49931-9-4-1" d="m503.71 1165.4c-1.9776 0.2073-2.47-0.2737-3.3245-0.5872l0.34827-1.3685c0.11443-0.5624 0.41544-0.6247 0.87557-0.5525l1.7431 0.2359c0.7261 0.2019 0.5756 0.7505 0.5756 0.7505z"/>
    <ellipse id="path51345-75" transform="scale(-1,1)" cx="-514.88" cy="1162.3" rx="1.0034" ry=".68562"/>
    <ellipse id="path51345-0-8" transform="matrix(-.9573 -.2891 -.39717 .91774 0 0)" cx="-934" cy="968.56" rx=".99397" ry=".51171"/>
    <ellipse id="path51345-0-0-7" transform="matrix(-.9573 -.2891 -.39717 .91774 0 0)" cx="-929.73" cy="967.95" rx=".99397" ry=".51171"/>
    <ellipse id="path51345-0-1-3" transform="matrix(-.9573 -.2891 -.39717 .91774 0 0)" cx="-936.55" cy="966.51" rx=".99397" ry=".51171"/>
    <ellipse id="path51345-7-0" transform="matrix(-.98288 -.18424 -.17011 .98543 0 0)" cx="-699.96" cy="1047.8" rx="1.0047" ry=".68477"/>
    <ellipse id="path51345-6-7" transform="matrix(-.97034 -.24176 -.22364 .97467 0 0)" cx="-751.85" cy="1003.9" rx="1.0057" ry=".68415"/>
    <ellipse id="path51345-72-0" transform="matrix(-.9473 -.32036 -.29736 .95477 0 0)" cx="-823.28" cy="937.42" rx="1.0075" ry=".68303"/>
    <path id="path55267-3" d="m537.46 1150.4s-0.77864-0.9555-1.7852-0.8913c-2.7188 0.1733-6.9933 4.525-6.9933 4.525l1.9814 2.2744 6.7971-5.9081" fill="#470000" stroke="#000" stroke-width="1.097px"/>
    <path id="path56480-5" d="m534.38 1149.8-0.27406 4.1823-3.435 2.3429 0.89821-5.2225z"/>
   </g>
  </g>
 </g>
</svg>
