<?xml version="1.0" encoding="UTF-8"?>
<svg id="svg5" width="1200mm" height="1200mm" version="1.1" viewBox="0 0 1200 1200" xmlns="http://www.w3.org/2000/svg" xmlns:xlink="http://www.w3.org/1999/xlink">
 <g id="layer60" transform="translate(19.4 11.241)">
  <g id="layer4">
   <g id="layer167">
    <path id="path5192" d="m371.36 470.05c-17.624-72.962 54.292-202.94 178.09-153.5 93.704-20.296 169.31 10.526 176.19 178.37 24.52-6.7792 22.394 22.56 3.5771 19.485-6.8637 20.02-14.563 26.085-11.829 25.15 52.881-18.081 47.838-168.17 5.9401-218.91-48.137-58.301-110.14-81.373-174.42-82.274-64.262-0.9002-125.08 27.349-164.67 76.013-36.012 44.265-59.334 192.71-10.503 208.67-0.90267-3.8639-6.2242-20.986-6.5835-30.806-28.604-0.63464-15.63-32.079 4.2005-22.194z" fill="#ff8080" stroke="#000" stroke-width="1.7621"/>
    <path id="path10433" d="m549.45 316.55" fill="none" stroke="#000" stroke-width="1.7621"/>
    <path id="path11475" d="m555.76 238.43c43.12 29.385 11.836 52.091-4.6106 77.093 41.748-12.974 134.93-8.7029 97.322-54.707-33.335-21.355-60.749-22.872-92.711-22.386" fill="#ff8080" stroke="#000" stroke-width="1.7621"/>
    <path id="path9376" d="m552.26 314.95c54.29-11.037 85.638-2.3918 109.49 13.912 61.247 5.3974 62.688 10.219 64.328-4.5445-14.412-25.091-36.014-46.638-77.613-63.504 33.612 43.614-52.797 40.592-96.207 54.137z" fill="#ff8080" stroke="#000" stroke-width="1.7621"/>
    <path id="path12131" d="m661.75 328.86c13.815 8.553 27.993 21.202 44.337 58.291 18.277 2.7517 34.47 2.7115 44-2.9206-0.81715-7.514-3.9019-36.815-24.009-59.915-0.5229 16.417-39.771 5.2482-64.328 4.5445" fill="#ff8080" stroke="#000" stroke-width="1.7621"/>
    <path id="path37273" d="m726.08 324.32s1.7079 10.436-7.5106 10.699c-11.369 0.32426-21.232-0.17327-29.405-1.0048-8.9678-0.33052-20.448-2.2736-14.948 3.7315-4.8481-2.3574-12.428-8.7623-12.464-8.8816 27.545 2.3056 64.599 10.565 64.328-4.5445" opacity=".15064"/>
    <path id="path10435" d="m661.75 328.86s14.434 2.1645 18.694 6.6706c14.596 15.438 16.481 32.734 13.031 58.677 9.7024-20.775 9.1287-42.882-4.8605-58.105-5.8251-6.339-26.865-7.2422-26.865-7.2422z" fill="#ff8080" stroke="#000" stroke-width="1.7621"/>
    <path id="path10447" d="m719.78 437.36c12.228 12.468 24.225 21.434 35.362 24.433" fill="none" stroke="#000" stroke-width="1.7621"/>
    <path id="path5328" d="m414.95 339.29c-11.334 2.0746-32.995 1.3045-39.076-12.222" fill="none" stroke="#000" stroke-width="1.7621"/>
    <path id="path5332" d="m369.33 433.66c-7.7334 9.3491-15.467 16.696-23.2 20.931" fill="none" stroke="#000" stroke-width="1.7621"/>
    <path id="path6640" d="m500.65 656.06c12.093-13.846 25.143-30.892 26.777-49.386-3.6782 0.98278-45.066-5.6587-50.705-8.6171 1.4952 24.888 16.465 38.718 23.928 58.003z" fill="#ff8080" stroke="#000" stroke-width="1.7621"/>
    <path id="path8286" d="m493.65 610.76c-0.7216 21.206 4.3114 30.371 6.4459 45.38l1.0851-0.15382c-1.304-7.9534-5.3709-24.558-7.531-45.226z" color="#000000" stroke-width="1.7621"/>
    <path id="path8288" d="m514.8 610.32c0.069 1.227-0.17778 3.5311-0.72071 6.4216-0.54293 2.8904-1.3817 6.3898-2.4698 10.114-0.617 3.9219-5.5668 16.928-8.3084 22.601 3.9591-6.3636 7.5771-14.78 9.7725-22.293 1.9083-5.8983 2.6854-12.972 1.7264-16.843z" color="#000000" stroke-width="1.7621"/>
    <path id="path35501" d="m627.04 299.63c-9.9511 3.5098-52.357 9.8196-13.574 11.054l-43.729 0.0969z" opacity=".27244"/>
    <path id="path13067" d="m510.82 241.3c14.65-4.6529 29.534-6.8101 44.943-2.8755 62.206 16.379-4.8713 75.276-5.6287 76.299 0 0-1.9482-52.351-39.314-73.423z" fill="#ff8080" stroke="#000" stroke-width="1.7621"/>
    <path id="path36287" d="m582.37 269.77s-19.391 30.547-22.214 39.08c-0.86778 2.6232 30.716 0.13711 30.716 0.13711l-38.61 5.9614z" opacity=".19872"/>
    <path id="path10431" d="m549.64 316.55s23.339-30.317 37.335-24.99c27.726 10.551 22.336 86.147 22.336 86.147s13.474-92.748-20.125-102.99c-19.801-6.0379-39.546 41.837-39.546 41.837z" fill="#ff8080" stroke="#000" stroke-width="1.7621"/>
    <path id="path14947" d="m549.4 315.58c2.6665-19.771 11.357-46.516-38.587-74.278-18.559 2.499-35.943 6.4206-49.621 14.829-10.964 15.676 55.609 38.958 88.207 59.449z" fill="#ff8080" stroke="#000" stroke-width="1.7621"/>
    <path id="path15400" d="m549.35 316.35c-103.81-37.192-139.08 0.56868-129.55-36.83 11.642-15.709 26.551-19.438 41.398-23.392-4.3056 17.495 58.251 40.044 88.153 60.222z" fill="#ff8080" stroke="#000" stroke-width="1.7621"/>
    <path id="path16031" d="m414.95 339.29c-17.985 2.3322-33.402 1.3474-39.076-12.222 6.7035-19.133 22.23-34.616 43.919-47.548 43.293 12.234 87.918 19.641 128.25 36.154-83.42-26.653-108.88 6.9284-133.09 23.616z" fill="#ff8080" stroke="#000" stroke-width="1.7621"/>
    <path id="path17837" d="m414.95 339.29c-18.046 2.4752-32.866 0.74104-39.076-12.222-19.28 26.424-22.695 63.67-23.588 68.401 9.498 0.28894 16.564-0.83985 29.048-6.7901 9.3002-15.864 15.831-30.858 33.616-49.389" fill="#ff8080" stroke="#000" stroke-width="1.7621"/>
    <path id="path5192-6" d="m371.36 470.05c-3.0891-12.789-3.4272-27.33-1.2172-42.349-7.9366 34.357-14.256 39.838-15.554 24.218 0.0649-0.16195 13.867-15.043 13.758-15.565-0.12036-0.56681-14.195 13.057-14.165 11.234 0.18761-11.526 2.5478-29.702 7.3055-49.67 3.2584-0.39935 17.934-6.2614 18.404-7.6548 0.1559-0.6375-17.904 5.3773-17.762 4.7305 3.8076-17.238 4.2295-36.571 19.303-54.867 11.539 4.3587 32.802 1.3475 31.533-0.0431-0.44923 1.2458-29.509-1.3389-29.637-3.9513-0.88722-18.214 18.129-37.337 36.252-53.417 0.68145-0.60462 87.494 19.846 88.323 19.121 0.74541-0.65155-87.096-21.384-86.478-21.917-24.653 8.6988-39.413 32.307-44.162 45.906-14.248 17.04-21.593 36.186-24.929 70.116-11.462 55.758-9.2141 117.11 21.407 127.11-0.90267-3.8639-6.2242-20.986-6.5835-30.806-28.604-0.63464-15.63-32.079 4.2005-22.194z" opacity=".19231"/>
    <path id="path25219" d="m401.46 305.28c4.252 3.7128 37.668 6.845 42.515 8.4558-0.11605-3.4267-31.584-6.268-42.515-8.4558z" color="#000000" opacity=".23718" stroke-width="4.1461" style="-inkscape-stroke:none"/>
    <path id="path25221" d="m368.55 364.72c4.1557 1.9201 17.233 2.7496 19.78 2.7496-2.9922-1.4353-17.233-2.7496-19.78-2.7496z" color="#000000" opacity=".23718" stroke-width="4.1461" style="-inkscape-stroke:none"/>
    <path id="path25223" d="m371.77 409.94-13.71 8.6319c1.2242 0.90683 13.268-7.5375 13.71-8.6319z" color="#000000" opacity=".23718" stroke-width="4.1461" style="-inkscape-stroke:none"/>
    <path id="path25219-5" d="m700.68 302.97c-1.5654 6.2714-39.16 12.094-44.983 12.775 0.99058-2.7377 38.676-6.9449 44.983-12.775z" color="#000000" opacity=".23718" stroke-width="4.1461" style="-inkscape-stroke:none"/>
    <path id="path25221-5" d="m734.48 359.19c-3.3623 3.1102-20.903 4.066-23.688 3.7095 3.2718-0.9227 21.908-2.3033 23.688-3.7095z" color="#000000" opacity=".23718" stroke-width="4.1461" style="-inkscape-stroke:none"/>
    <path id="path25223-0" d="m726.8 420.18 16.933 8.0149c-1.2242 0.90684-16.491-6.9204-16.933-8.0149z" color="#000000" opacity=".23718" stroke-width="4.1461" style="-inkscape-stroke:none"/>
    <path id="path26715" d="m459.61 257.33c-27.781 6.9585-37.868 17.496-39.357 21.499-0.54034 1.4533 2.3254 1.4563 2.6758 0.94757 2.1301-3.0934 22.204-19.111 33.608-19.111-2.5656 14.896 60.799 39.25 91.512 55.016-30.702-18.772-80.906-37.367-85.868-55.434 0.0726-1.7887 0.25171-3.6609 5.7885-7.0227 2.9275-1.7775-1.7182 0.32257-6.7706 2.9103" opacity=".14103"/>
    <path id="path27780" d="m504.78 275.02c11.07 16.494 35.959 25.045 43.267 40.657-1.4246-12.425-35.45-30.437-43.267-40.657z" color="#000000" opacity=".22756" stroke-width="4.1461" style="-inkscape-stroke:none"/>
    <path id="path28207" d="m499.53 250.45c-1.0798 2.7069 22.82 18.47 30.375 29.792-1.2055-7.6171-26.956-25.129-30.375-29.792z" color="#000000" opacity=".18269" stroke-width="4.1461" style="-inkscape-stroke:none"/>
    <path id="path28932" d="m529.3 237.57c-6.5722 0.9716-16.229 1.7998-21.071 5.1929 26.074 15.005 43.432 32.564 42.604 61.325-0.11319 3.9364-0.56723 8.0826-1.3861 12.461-0.57921-2.7208 2.628-2.6213 4.3135-10.87 2.0133-9.8516 1.973-28.921-7.6815-42.127-7.4955-10.253-34.342-22.456-16.778-25.982z" opacity=".1859"/>
    <path id="path32710" d="m579.54 239.06c-11.078-0.0178 3.7197 12.564 2.6687 19.991-3.8398-10.664-16.422-18.102-26.301-20.911z" opacity=".125"/>
    <path id="path33448" d="m626.67 249.07c3.6884 4.6122 9.0239 8.5927 12.058 13.232 1.3414 2.0813 2.1451 4.1562 2.0244 5.9681-0.1248 1.872-1.2277 3.887-2.8828 5.8304-4.257 5.0906-10.52 8.5121-14.139 11.839 0 0 4.3478-2.2506 8.778-5.5389 2.2151-1.6441 4.4562-3.546 6.1948-5.5875 1.7386-2.0415 2.9928-4.2297 3.1419-6.4702 0.14511-2.1803-0.78332-4.4425-2.1945-6.6321-1.4112-2.1896-3.3189-4.3111-5.2393-6.1786-3.8407-3.735-7.7415-6.4621-7.7415-6.4621z" color="#000000" opacity=".1891" stroke-width="4.1461" style="-inkscape-stroke:none"/>
    <path id="path33448-1" d="m597.73 240.64c2.433 3.0424 5.9525 5.6681 7.9538 8.7283 5.5836 8.3178-3.1125 12.398-8.6587 17.375 0 0 2.868-1.4846 5.7904-3.6537 5.3771-3.6959 7.0182-8.5197 3.4772-14.111-0.93088-1.4443-2.1893-2.8438-3.456-4.0757-2.5335-2.4638-5.1066-4.2627-5.1066-4.2627z" color="#000000" opacity=".1891" stroke-width="2.7349" style="-inkscape-stroke:none"/>
    <path id="path38604" d="m750.09 384.23s0.15175 5.5405-17.945 6.1487c-16.798 0.56452-26.055-3.2281-26.055-3.2281 15.024 0.99533 30.442 4.15 44-2.9206" opacity=".083333"/>
    <path id="path39210" d="m525.33 614.22-7.5635-1.1102c-1.8543 8.9882-8.34 26.083-8.5695 23.845-0.11418-1.1134 2.8707-6.6225 5.6365-23.903-2.7631-0.18741-5.3206-0.33957-8.0837-1.369l-6.102 16.181c0.76674-6.0221 3.4209-11.477 0.95987-17.14-6.1866-1.061-7.5971-2.0301-12.752-2.811-3.5077 18.24 6.2358 28.71 10.421 43.605-8.2986-17.431-22.717-31.802-22.557-53.463l50.705 8.6171z" opacity=".1218"/>
   </g>
  </g>
 </g>
</svg>
