<?xml version="1.0" encoding="UTF-8"?>
<svg id="svg5" width="1200mm" height="1200mm" version="1.1" viewBox="0 0 1200 1200" xmlns="http://www.w3.org/2000/svg" xmlns:xlink="http://www.w3.org/1999/xlink">
 <defs id="defs77">
  <filter id="filter103773-2-8" x="-.0031192" y="-.0051547" width="1.0062" height="1.0103" color-interpolation-filters="sRGB">
   <feGaussianBlur id="feGaussianBlur7-9-3-6" stdDeviation="0.034481697"/>
  </filter>
 </defs>
 <g id="layer60" transform="translate(19.4 11.241)">
  <g id="layer4">
   <g id="g136580" transform="translate(-19.4 -11.241)">
    <g id="g136544" transform="matrix(4.1461 0 0 4.1461 133.91 58.186)">
     <g id="g136536" fill="#ff8080" stroke="#000">
      <path id="path136532" d="m67.482 121.95s-7.0247-7.077-6.348-14.759c-3.8647 1.0197-4.0806-2.3632-4.1212-3.0672-0.11303-2.4278 3.6678-3.4584 5.322-1.8576 0 0-0.5431-21.237 5.5854-29.141 4.3551-5.6162 7.3038-7.8241 17.586-11.075 2.0179-0.3929 4.3373-0.59142 6.8395-0.64103-0.21829 4.8027 9.262 10.115 17.942 12.708 0.40534-2.6908 0.0179-7.3475 3.7675-11.101 0.98296 12.401 15.692 14.998 18.987 19.62 0.97216-8.053-1.3236-15.797-1.3236-15.797 4.8482 3.4141 8.6154 8.1268 11.084 13.628 3.9396 8.7799 4.8234 27.406 4.8234 27.406s3.7874-0.86084 3.9464 2.3386c0.12591 2.5332-3.1573 2.7718-3.1573 2.7718-1.7917 4.2649-4.4786 8.1643-8.0059 10.986 0 0 8.594-5.722 11.677-10.139 4.1483-5.9433 3.0056-24.633 1.6519-31.753-0.21411-1.1262-0.58011-3.0646 1.6598-1.1479-2.0455-10.553-5.8648-17.809-14.882-25.068-1.8813-1.5143-1.0338-1.8781 2.3454-1.7693-3.2965-2.2028-12.747-4.7168-18.371-6.3993-1.2781-0.38233-2.6548-0.72601-4.1061-1.0282-0.40106-0.87633-2.8415-11.742-5.623-15.75 0.34643 3.8124 0.87258 13.732-0.7054 12.176-3.7102-3.6575-10.181-9.4154-13.138-9.5834 1.644 2.1252 3.203 7.4938 3.6629 11.316-6.7727-2.3517-10.438-2.7808-13.211-2.8372 1.9521 1.9862 2.4337 2.5419 2.8491 3.7532-6.8766 0.922-22.773 3.015-25.414 5.2662 3.9843 0.14757 4.1798 1.4828 2.5888 2.7079-7.0584 5.4475-16.122 14.12-18.564 22.378 3.7524-1.8114 3.8389 0.0855 3.5922 1.2333-2.2009 10.244-3.4312 21.246 0.65773 31.425 2.6454 6.5852 10.405 13.2 10.405 13.2z" fill="#ff8080" stroke-linecap="round" stroke-width=".565"/>
     </g>
     <path id="path136540" d="m121.44 49.915-6.6792-19.001c-0.51083 4.7016 1.1708 11.23-1.5325 14.105l8.2118 4.8965" fill-opacity="0"/>
    </g>
    <path id="path136546" d="m538.3 276.82c-13.55 9.122-21.679 19.184-23.109 29.816-1.4303 10.633 4.0303 21.42 16.559 31.525 12.528 10.105 32.193 19.735 59.859 28.486l2.0059 0.63476-0.0547-2.1016c-0.42271-16.53 1.5084-31.385 11.807-41.674 6.0238 23.684 18.784 37.184 33.316 47.359 15.072 10.553 31.916 17.803 45.373 29.92l2.2129 1.9922 0.28516-2.9629c2.1055-21.884 2.3416-43.753-5.1172-65.006l-24.51-39.546c11.427 17.511 22.13 39.745 26.3 60.427 3.2784 16.259 1.3401 31.93 0.53254 41.067-13.492-11.383-29.397-18.575-43.355-28.348-14.734-10.316-27.271-23.501-32.822-48.137l20.887-25.668-23.331 24.863c-12.405 10.722-14.756 26.704-14.533 43.654-26.372-8.5082-45.218-17.816-56.973-27.297-12.056-9.7244-16.728-19.41-15.467-28.789 1.2617-9.3791 8.6494-18.869 21.811-27.729 13.161-8.86 31.015-12.321 57.574-15.751-32.663 1.3034-48.71 6.3017-59.25 13.262z" color="#000000" style="-inkscape-stroke:none"/>
    <path id="path136548" d="m525.55 247.3-2.4635 0.88507c3.9241 8.9691 6.0447 16.499 11.483 21.868z" color="#000000" style="-inkscape-stroke:none"/>
    <path id="path136550" d="m567.93 242.59-0.84111 2.5755 15.682 5.3284c-5.4875-4.8678-10.032-6.4732-14.841-7.9039z" color="#000000" style="-inkscape-stroke:none"/>
    <path id="path136552" d="m608.8 236.55-3.0163 0.90301 15.348 15.671c-5.8171-9.6626-8.6101-12.852-12.332-16.574z" color="#000000" style="-inkscape-stroke:none"/>
    <path id="path136554" d="m634.45 251.19-3.0526-0.64211 4.664 15.064 2.8477-0.94141z" color="#000000" style="-inkscape-stroke:none"/>
    <path id="path136556" d="m630.61 265.54c5.2338 0.0983 6.78 2.1127 15.176 0.66211-5.2338-0.0983-10.028-4.8331-15.176-0.66211z" color="#000000" style="-inkscape-stroke:none"/>
    <path id="path136558" transform="matrix(4.1461 0 0 4.1461 133.04 56.614)" d="m88.162 47.16c3.4227 1.9187 3.9764 3.8374 4.5458 5.7561-4.5175 2.7408-5.4331 5.9961-7.2022 9.1295l6.9427-0.65773c0.29904-3.5398 4.8018-10.891 19.588-11.476 0 0-6.176-1.1161-8.8537-0.5923-2.3917 0.4678-6.3365 2.1595-6.3365 2.1595l-2.1754-5.4879c-1.6186 0.58982-4.8596 1.1841-6.5092 1.1689z" filter="url(#filter103773-2-8)" opacity=".087398" style="mix-blend-mode:normal"/>
    <path id="path136560" d="m430.55 265.22-11.379 4.44 11.379 1.5692 3.573 4.5475c-23.035 23.862-44.553 40.05-62.366 61.067 28.369-18.822 57.147-54.285 83.642-61.716-4.1126-5.3103-9.2332-10.135-24.849-9.9071z" opacity=".085366" stroke="#000" stroke-width=".26458px"/>
    <path id="path136562" d="m355.36 367.37s11.932-9.0232 18.515-7.7957c4.1402 0.772 2.0486 15.378 1.1369 19.489-2.2748 10.242-10.326 65.769 5.4894 47.382 2.7034 4.2686-1.9489 25.639 5.0212 20.094 5.0512-7.7816 6.9695-16.19 10.07-24.362l-3.2363 60.008-14.248-2.5486-8.1306 5.9678 2.9234 13.642 14.458 3.3484c0.56468 22.398 9.7511 42.7 26.338 61.201-20.185-26.361-42.488-27.773-53.623-88.911-3.7041-20.34 0.81161-60.607 7.7024-96.148 1.0523-5.4277-0.67186-10.464-14.833-5.0757" opacity=".085366" stroke="#000" stroke-width=".26458px"/>
    <path id="path136564" d="m552.32 197.11c16.152 21.206 30.524 43.669 51.528 61.45-12.373-3.9824-24.268-9.6086-36.342-14.533 0.067-16.87-7.8395-31.826-15.187-46.917" opacity=".087398" stroke="#000" stroke-width=".26458px"/>
    <path id="path136566" d="m609.71 186.36c2.7292 24.338 5.6588 48.562 13.189 70.199-3.4864-7.7552-9.3994-13.34-14.099-20.009 3.6875-15.038 0.63914-33.443 0.90985-50.19" opacity=".087398" stroke="#000" stroke-width=".26458px"/>
    <path id="path136568" d="m630.61 265.54-23.552-0.93986c8.1537 0.68874 17.649 1.8954 26.643 3.3304 5.2684 3.0522 6.6393 7.7748 7.6944 12.633 0.77774-3.8382 2.2333-7.8119 1.6078-11.369 2.3553-1.1622 5.9292 0.20808 8.8428 2.0672-1.7152-1.7202-1.8699-3.6138-6.0609-5.0589l-15.176-0.66212" opacity=".087398" stroke="#000" stroke-width=".26458px"/>
    <path id="path136570" d="m628.47 294.6s-9.7765 19.167-10.007 29.571c-0.26725 12.059 10.069 34.756 10.069 34.756-12.451-10.616-17.4-25.324-23.393-39.463l23.331-24.863" opacity=".087398" stroke="#000" stroke-width=".26458px"/>
    <path id="path136572" d="m708.44 320.27c28.95 23.277 51.402 71.393 52.389 133.95-0.10119-13.309-17.656-105.8-52.389-133.95z" opacity=".087398" stroke="#000" stroke-width=".26458px"/>
    <path id="path136574" d="m702.59 283.25c5.4082 1.771 10.09 4.3405 13.967 7.7957l-3.3661-6.7321 5.6697-2.9011c-5.3678 0.89194-10.752 1.7001-16.271 1.8375z" opacity=".087" stroke="#000" stroke-width=".26458px"/>
    <path id="path136576" d="m777.75 392.06c-4.5547-3.353-9.5419-4.6017-11.819-9.0934l4.6287 17.216 0.48723-9.298" opacity=".087" stroke="#000" stroke-width=".26458px"/>
    <path id="path136578" d="m744.82 475.86c5.0708 1.4358 6.913 7.9164 15.267 4.2227 4.757-0.8809 15.054-25.029 15.916-19.164 0.8067 5.4847-3.6757 65.7-9.7447 66.913-12.016 17.615-28.341 25.828-42.552 38.654l25.518-39.878c4.8964 0.1948 8.1539-3.1613 11.836-5.5968l1.2993-8.1205-6.1716-7.4709-10.212 0.01z" opacity=".087" stroke="#000" stroke-width=".26458px"/>
   </g>
  </g>
 </g>
</svg>
