<?xml version="1.0" encoding="UTF-8" standalone="no"?>
<svg
   id="svg5"
   width="1200mm"
   height="1200mm"
   version="1.1"
   viewBox="0 0 1200 1200"
   sodipodi:docname="Holding Top.svg"
   inkscape:version="1.3.2 (091e20e, 2023-11-25, custom)"
   xmlns:inkscape="http://www.inkscape.org/namespaces/inkscape"
   xmlns:sodipodi="http://sodipodi.sourceforge.net/DTD/sodipodi-0.dtd"
   xmlns="http://www.w3.org/2000/svg"
   xmlns:svg="http://www.w3.org/2000/svg">
  <defs
     id="defs1" />
  <sodipodi:namedview
     id="namedview1"
     pagecolor="#ffffff"
     bordercolor="#000000"
     borderopacity="0.25"
     inkscape:showpageshadow="2"
     inkscape:pageopacity="0.0"
     inkscape:pagecheckerboard="0"
     inkscape:deskcolor="#d1d1d1"
     inkscape:document-units="mm"
     inkscape:zoom="2.0729425"
     inkscape:cx="2130.7876"
     inkscape:cy="2961.732"
     inkscape:window-width="1920"
     inkscape:window-height="1009"
     inkscape:window-x="-8"
     inkscape:window-y="-7"
     inkscape:window-maximized="1"
     inkscape:current-layer="svg5" />
  <ellipse
     style="fill:#f7e2ab;fill-opacity:1;stroke:none;stroke-width:1.17317;stroke-linecap:round;stroke-linejoin:round;stroke-dashoffset:102.992"
     id="path1-3"
     cx="559.62573"
     cy="795.76434"
     rx="8.9533072"
     ry="8.9533062" />
  <ellipse
     style="fill:#f7e2ab;fill-opacity:1;stroke:none;stroke-width:1.17317;stroke-linecap:round;stroke-linejoin:round;stroke-dashoffset:102.992"
     id="path1-3-7"
     cx="609.96832"
     cy="796.4278"
     rx="8.9533072"
     ry="8.9533062" />
  <g
     id="layer60"
     transform="translate(19.4 11.241)">
    <g
       id="layer134">
      <g
         id="g27510"
         stroke-width=".26458">
        <path
           id="path27506"
           d="m648.55 754.17c3.0946 7.2392 0.55568 15.748-4.6863 20.723-6.7151 6.2771-20.764 13.28-43.2 12.354-0.22518-9e-3 -0.73445 2.1361-1.6134 3.2261-1.9074 2.3652-4.7419 4.2074-5.1949 4.0538-2.7631 0.85642-3.3888 0.43412-6.1828 0.0707-2.9676-0.38601-5.1482-2.2263-5.8762-3.5406-1.8656-3.3682-1.9183-6.4418-0.17663-10.297 1.4881-3.2944 4.35-5.0408 6.0209-5.6014 2.367-0.7941 4.3254-1.1866 6.468-0.42664 1.0881 0.38591 2.1496 1.0555 3.1042 2.1564 0.61396 0.58621 1.3175 1.3957 2.0078 2.3052 0.89641 1.1809 1.4467 2.5312 1.6895 3.9396 10.807 2.7945 32.335-0.58755 42.019-10.576 4.0299-4.3018 5.0063-11.75 3.1418-16.994m-57.102 22.54c-2.4307 0.44717-3.9037 1.933-4.9131 4.9558-1.0172 3.0466-0.72474 5.0926 0.99973 6.9944 2.012 2.219 4.229 2.9532 7.1951 2.3848 1.8955-0.36402 2.6431-0.87294 3.8819-2.642 1.3347-1.906 1.5462-2.5469 1.6274-4.9264 0.0825-2.4605-0.12853-2.9559-2.0974-4.9214-2.3382-2.3342-3.0132-2.52-6.6934-1.843z" />
        <path
           id="path27508"
           d="m484.09 749.87c-1.6997 4.1257-3.1665 7.8574-2.4103 15.58 0.75614 7.7225 24.587 20.89 48.36 20.773 0.22537-1e-3 0.82799 2.6974 1.707 3.7873 1.9074 2.3652 4.7419 4.2074 5.1949 4.0538 2.7631 0.85642 3.3888 0.43412 6.1828 0.0707 2.9676-0.38601 5.1482-2.2263 5.8762-3.5406 1.8656-3.3682 1.9183-6.4418 0.17663-10.297-1.4881-3.2944-4.35-5.0408-6.0209-5.6014-2.367-0.7941-4.3254-1.1866-6.468-0.42664-1.0881 0.38591-2.1496 1.0555-3.1042 2.1564-0.61396 0.58621-1.3175 1.3957-2.0078 2.3052-0.89641 1.1809-1.4467 2.5312-1.6895 3.9396-12.464 3.2231-43.087-11.312-44.681-17.577s0.0512-10.163 1.3478-13.704m55.275 26.25c2.4307 0.44717 3.9037 1.933 4.9131 4.9558 1.0172 3.0466 0.72474 5.0926-0.99973 6.9944-2.012 2.219-4.229 2.9532-7.1951 2.3848-1.8955-0.36402-2.6431-0.87294-3.8819-2.642-1.3347-1.906-1.5462-2.5469-1.6274-4.9264-0.0825-2.4605 0.12853-2.9559 2.0974-4.9214 2.3382-2.3342 3.0132-2.52 6.6934-1.843z" />
      </g>
    </g>
  </g>
</svg>
