<?xml version="1.0" encoding="UTF-8"?>
<svg id="svg5" width="1200mm" height="1200mm" version="1.1" viewBox="0 0 1200 1200" xmlns="http://www.w3.org/2000/svg" xmlns:xlink="http://www.w3.org/1999/xlink">
 <g id="layer60" transform="translate(19.4 11.241)">
  <g id="layer214">
   <g id="layer175">
    <rect id="rect54939" x="533.58" y="751.29" width="62.971" height="61.912" fill="#b30202" stroke="#000" stroke-linecap="round" stroke-linejoin="round" stroke-width="1.9"/>
    <rect id="rect55466" x="560.39" y="750.58" width="9.3544" height="64.358" fill="#ffdb13" stroke="#000" stroke-linecap="round" stroke-linejoin="round" stroke-width="1.9"/>
    <path id="path62620-1" d="m568.11 751.82v62.301" fill="none" stroke="#000" stroke-dasharray="0.529166, 0.529166" stroke-width=".26458"/>
    <path id="path62620" d="m561.88 751.99v62.301" fill="none" stroke="#000" stroke-dasharray="0.529166, 0.529166" stroke-width=".26458"/>
    <path id="path62815" d="m558.19 752.35-0.26458 60.722 2.467 1.8742v-64.359z" opacity=".10976"/>
    <rect id="rect55466-8" transform="matrix(0,-1,-1,0,0,0)" x="-786.25" y="-597.22" width="9.3544" height="64.358" fill="#ffdb13" stroke="#000" stroke-linecap="round" stroke-linejoin="round" stroke-width="1.9"/>
    <path id="path62620-1-3" d="m595.84 784.7h-62.301" fill="none" stroke="#000" stroke-dasharray="0.529166, 0.529166" stroke-width=".26458"/>
    <path id="path62620-1-7" d="m596.01 778.65h-62.301" fill="none" stroke="#000" stroke-dasharray="0.529166, 0.529166" stroke-width=".26458"/>
    <path id="path56676" d="m565.59 749.7-17.985 0.4283c-10.047 0.23925-3.6099-14.729 6.3871-8.1085l11.598 7.6802s9.8375-8.5203 18.293-8.1452c4.6503 0.2063 6.5041 7.3673 4.638 8.0964-4.7006 1.8366-22.201 0.22511-22.005 0.57798-32.458 2.0425 26.583 0.47351-0.92604-0.52917z" fill="#ffdb13" stroke="#000" stroke-linejoin="round" stroke-width="1.365"/>
    <ellipse id="path61817" cx="564.45" cy="746" rx="7.3432" ry="5.332" fill="#ffdb13" stroke="#000" stroke-linecap="round" stroke-linejoin="round" stroke-width="1.365"/>
    <path id="path62813" d="m545.62 742.16c3.0769 2.8078 6.5813 4.3333 10.716 3.9688l1.7198 0.13229c6.5461 4.3008 9.1363 0.12469 13.494-0.26459 4.8259 2.5272 11.148 1.5637 16.933 1.8521l-0.13229 2.1167-42.333 0.39688c-3.082-1.3817-3.3815-3.9558-4.101-6.35z" opacity=".10976"/>
    <path id="path62817" d="m533.54 784.7 0.32377 4.8618 63.5-1.3229 0.53474-3.5389h-64.359" opacity=".10976"/>
    <path id="path62819" d="m546.01 750.36c-4.0787 47.45 17.713 62.13 50.535 62.839h-62.971v-61.912z" opacity=".10976"/>
   </g>
  </g>
 </g>
</svg>
