<?xml version="1.0" encoding="UTF-8"?>
<svg id="svg5" width="1200mm" height="1200mm" version="1.1" viewBox="0 0 1200 1200" xmlns="http://www.w3.org/2000/svg" xmlns:xlink="http://www.w3.org/1999/xlink">
 <g id="layer60" transform="translate(19.4 11.241)">
  <g id="layer214">
   <g id="layer187" transform="translate(-19.4 -11.241)" stroke="#000">
    <path id="path254617" d="m529.71 278.65c47.458 31.909 99.506 54.67 169.22 42.221l-5.8844-39.438-24.528-161.18z" fill="#cafffc" stroke-width="1.5"/>
    <path id="path254619" d="m557.07 247.73 29.235-33.636c26.861 16.728 57.546 30.711 100.5 26.76l6.3582 41.405c-60.655 8.0249-98.044-13.68-136.09-34.529z" fill="#8d99f9" stroke-width="1.5"/>
    <path id="path254621" d="m618.21 177.67c15.921 11.472 37.585 16.072 61.369 16.854l-11.061-74.275z" fill="#8d99f9" stroke-width="1.5"/>
    <path id="path261840" transform="matrix(.18747 -.0548 .0548 .18747 169.66 195.34)" d="m2532.6 538.56-62.16 31.889 17.296 67.688-49.537-49.264-59.03 37.366 31.545-62.335-53.778-44.594 69.032 10.738 25.793-64.927 11.12 68.972z" fill="#ffdb13" stroke-linecap="square" stroke-linejoin="round" stroke-width="5.6693"/>
    <path id="path261840-4" transform="matrix(.165 -.10452 .10452 .165 151.57 376.62)" d="m2532.6 538.56-62.16 31.889 17.296 67.688-49.537-49.264-59.03 37.366 31.545-62.335-53.778-44.594 69.032 10.738 25.793-64.927 11.12 68.972z" fill="#ffdb13" stroke-linecap="square" stroke-linejoin="round" stroke-width="5.6693"/>
    <path id="path261840-3" transform="matrix(.19452 -.017664 .017664 .19452 185.4 197.76)" d="m2532.6 538.56-62.16 31.889 17.296 67.688-49.537-49.264-59.03 37.366 31.545-62.335-53.778-44.594 69.032 10.738 25.793-64.927 11.12 68.972z" fill="#ffdb13" stroke-linecap="square" stroke-linejoin="round" stroke-width="5.6693"/>
    <path id="path261840-6" transform="matrix(.1485 -.12687 .12687 .1485 154.27 514.96)" d="m2532.6 538.56-62.16 31.889 17.296 67.688-49.537-49.264-59.03 37.366 31.545-62.335-53.778-44.594 69.032 10.738 25.793-64.927 11.12 68.972z" fill="#ffdb13" stroke-linecap="square" stroke-linejoin="round" stroke-width="5.6693"/>
    <path id="path263850" d="m668.52 120.25c-29.699 66.048-71.433 132.53-50.681 198.84-33.741-7.1696-61.474-23.027-88.127-40.445l138.81-158.4" opacity=".095528" stroke-width=".26458px"/>
   </g>
  </g>
 </g>
</svg>
