<?xml version="1.0" encoding="UTF-8"?>
<svg width="1200mm" height="1200mm" version="1.1" viewBox="0 0 1200 1200" xmlns="http://www.w3.org/2000/svg" xmlns:xlink="http://www.w3.org/1999/xlink">
 <g>
  <path d="m373.82 1049.3-22.688-9.1161c10.154-22.156 17.514-45.244 24.54-68.443l21.299 11.04z" stroke="#000" stroke-width=".53291px"/>
  <path transform="scale(.26458)" d="m2148.5 899.11c-275.25 1.373-553.78 108.49-740.53 362.89-426.86 581.47 158.32 1108.8 136 1316s67.973 962.75-172 1474c78.308 39.163 143.53 96.441 288 44l-12 80c55.377-27.222 124.25-87.413 188-68 176.17 53.646 318.89 79.452 490 24 95.691-31.011 310.5 208.1 554 12l-52-78c112.86 35.03 217.91 61.313 336 18-103.35 5.7415-329.68-1018.3-330-1546-0.2438-406.1 408.82-746.48 158-1208-141.09-259.61-489.58-432.65-843.47-430.89zm-244.53 368.68c31.089 0.026 62.883-17.876 92.232-11.591 9.8667 2.1129 18.203 25.775 27.825 28.549 25.559 7.3671 50.21 17.023 73.728 28.746 24.669 12.297 52.332 11.312 74.948 15.883 9.379 24.842 29.774 55.976 45.486 72.05 75.287 77.026 124.23 181.7 131.13 298.79 36.117-36.114 82.987-54.449 129.58-71.839l55.065-20.551 53.4 18.833c121.49 42.846 119.82 57.73 143.69 79.982l41.833 39.004 18.874 65.618 14.38 86.736c24.948 150.47-120.51 276.17-269.17 276.17l-77.802-11.812-29.728-2.3639-23.98-21.111c-52.15-45.91-106.78-92.697-126.93-164.21-58.383 94.942-152.01 151.22-249.31 194.61l-67.006 29.879-58.248-10.629c-63.919-1e-4 -124-20.142-183.59-40.71l-69.019-23.82-63.141-70.31c-80.365-89.488-130.79-203.43-130.79-325.53-2e-4 -122.1 47.046-239.2 130.79-325.53 83.742-86.337 197.32-134.84 315.75-134.84z" fill="#fff" stroke="#000" stroke-width="7.5591"/>
  <g>
   <path d="m461.32 937.89c5.5391 30.872 4.9414 51.032-0.0742 71.719-5.6309 22.556-15.445 45.682-23.068 74.301l1.9336 0.5137c7.5825-28.465 17.391-51.557 23.076-74.33 5.6851-22.773 7.2039-45.255-1.8672-72.203z" color="#000000" style="-inkscape-stroke:none"/>
   <path d="m724.53 945.94c0.265 15.322 0.24933 30.735 0.95547 45.813 1.4575 31.122 5.9902 60.813 22.414 85.314l1.6602-1.1133c-16.08-23.989-19.849-53.324-22.049-84.199-0.46997-6.5952-0.53789-25.872-2.9798-45.814z" color="#000000" style="-inkscape-stroke:none"/>
   <path d="m553.51 1100.7c36.014-66.042 46.413-85.668 46.364-117.06 18.409 52.943 34.28 101.61 71.905 126.06-16.951-5.8383-31.521-14.059-50.877-17.492-41.715 12.007-49.956 8.3676-67.391 8.496z" opacity=".058943"/>
   <path d="m461.43 940.33c13.778 7.1222-53.276 131.46-93.133 135.47 32.858 16.448 54.003 14.796 71.437 7.4084l25.929-87.842z" opacity=".079268" stroke="#000" stroke-width=".26458px"/>
  </g>
  <g transform="matrix(.34355 -.95743 .91358 .36476 0 0)" fill="#fff" stroke-width=".071517" aria-label="GHOSTD">
   <path d="m-807.33 704.68v8.6584q-1.0298 0.1335-1.8308 0.17165-0.78192 0.0572-1.2968 0.0572-1.7546 0-3.1468-0.55307-1.3922-0.55307-2.3458-1.5829-0.95357-1.0489-1.4685-2.5174-0.49586-1.4876-0.49586-3.3184 0-1.7546 0.47679-3.223 0.47678-1.4876 1.4113-2.5556 0.95357-1.0871 2.3648-1.6783 1.4304-0.61028 3.2993-0.61028 0.80099 0 1.3731 0.11442 0.59121 0.0954 1.1443 0.267 0 0.30514 0 0.6675 0.0191 0.36235 0.0191 0.78192t-0.0191 0.89635q0 0.47678 0 0.85821-0.93449-0.49585-2.136-0.49585-1.0489 0-1.7546 0.36235-0.70563 0.34328-1.1443 0.89635-0.41957 0.55307-0.61029 1.2396-0.17164 0.66749-0.17164 1.2968 0 0.72471 0.20979 1.4113 0.22885 0.68657 0.66749 1.2206 0.43864 0.534 1.0871 0.85821 0.66749 0.32421 1.5638 0.32421 0.0954 0 0.17164 0 0.0954 0 0.19072-0.0191v-3.5282z"/>
   <path d="m-797.31 697.76q-0.0572 1.2015-0.0954 2.2695-0.0191 1.068-0.0381 2.1169-0.0191 1.0298-0.0381 2.0978 0 1.0489 0 2.2504 0 1.4113 0 3.0705 0.0191 1.6592 0.0381 3.7952h-3.1658q0.0381-1.1443 0.0572-2.3839 0.0191-1.2587 0.0381-2.8607h-2.8226q0 1.1252 0 2.422 0.0191 1.2778 0.0381 2.8226h-3.1658q0.0191-0.83913 0.0381-1.7164 0.0191-0.87728 0.0381-1.8881 0.0191-1.0108 0.0191-2.2123t0-2.67q0-1.2968 0-2.2314 0-0.95356-0.0191-1.7355 0-0.78193 0-1.5066 0-0.74378 0-1.6401h3.223q-0.0763 1.5829-0.11443 2.937-0.0381 1.335-0.0572 2.7081h2.8226q0-0.87728 0-1.5829 0-0.72471-0.0191-1.3731 0-0.66749 0-1.2968 0-0.64843 0-1.3922z"/>
   <path d="m-791.08 697.53q2.8416 0 4.1957 2.0216 1.3541 2.0216 1.3541 5.874 0 3.9096-1.335 6.0265-1.3159 2.1169-4.2148 2.1169-1.4304 0-2.4793-0.534-1.0489-0.55307-1.7355-1.5829-0.68656-1.0489-1.0108-2.5556-0.32422-1.5257-0.32422-3.471 0-3.9096 1.3541-5.893 1.3541-2.0025 4.1957-2.0025zm0 11.119q0.61028 0 1.068-0.26699 0.47678-0.28607 0.78192-0.76286 0.30514-0.49585 0.45771-1.1634 0.15257-0.68656 0.15257-1.5066 0-0.82006-0.15257-1.5066-0.15257-0.70564-0.45771-1.2206-0.30514-0.51493-0.78192-0.801-0.45772-0.28607-1.068-0.28607t-1.068 0.30514q-0.43864 0.28607-0.76285 0.801-0.30514 0.51492-0.45771 1.2206-0.15257 0.68657-0.15257 1.4876 0 0.82007 0.15257 1.5066 0.15257 0.6675 0.45771 1.1634 0.32421 0.47679 0.76285 0.76286 0.45771 0.26699 1.068 0.26699z"/>
   <path d="m-784.96 701.63q0-1.2206 0.45771-2.0025 0.47678-0.801 1.1824-1.2587 0.72471-0.47678 1.5829-0.64842 0.87728-0.19071 1.6783-0.19071 0.22886 0 0.57214 0.0191 0.36236 0.0191 0.74378 0.0572 0.4005 0.0381 0.801 0.11443 0.41956 0.0572 0.78192 0.17164 0.0381 0.49585 0.0572 0.93449 0.0191 0.41957 0.0191 0.97264t-0.0191 1.068q-0.0191 0.49586-0.0572 0.95357-0.15257-0.0191-0.4005-0.0572-0.22885-0.0381-0.49585-0.0572-0.24793-0.0191-0.51493-0.0381-0.24792-0.0191-0.47678-0.0191-0.91542 0-1.335 0.28607t-0.41957 0.78192q0 0.28607 0.1335 0.55307 0.1335 0.24792 0.34328 0.47678 0.22886 0.22885 0.49586 0.43864 0.28607 0.20978 0.57214 0.4005 0.45771 0.32421 0.91542 0.72471 0.47678 0.38142 0.85821 0.93449 0.38142 0.534 0.62935 1.2587 0.24793 0.70563 0.24793 1.6401 0 1.2206-0.41957 2.0597-0.41957 0.83913-1.0871 1.3731-0.64842 0.51493-1.4685 0.76285-0.80099 0.22886-1.602 0.22886-0.36235 0-0.89635-0.0572-0.51492-0.0381-1.0489-0.1335-0.53399-0.0763-1.0108-0.19072-0.47678-0.1335-0.76285-0.30514-0.0763-0.34328-0.1335-0.70564-0.0381-0.36235-0.0381-0.80099 0-0.30514 0.0191-0.74378 0.0381-0.43864 0.0763-0.89635 0.0381-0.45771 0.0763-0.87728 0.0572-0.41957 0.0954-0.70564 0.20978 0.11443 0.61028 0.267 0.4005 0.1335 0.85821 0.267 0.47678 0.1335 0.95356 0.22885 0.47679 0.0954 0.83914 0.0954 0.61028 0 0.91542-0.24793 0.30514-0.267 0.30514-0.70564 0-0.47678-0.34328-0.83913-0.34328-0.38143-0.85821-0.74378-0.51492-0.36236-1.1252-0.76286-0.59121-0.41957-1.1061-0.97263-0.51493-0.55307-0.85821-1.2968-0.34328-0.76285-0.34328-1.8118z"/>
   <path d="m-768.73 701.29h-2.1932q-0.0381 1.6974-0.0572 3.4519-0.0191 1.7355-0.0191 3.757 0 1.2968 0 2.0978 0 0.78192 0 1.2968 0 0.49586 0 0.82007 0.0191 0.30514 0.0191 0.64842h-3.204q0.0191-0.83913 0.0381-1.7355 0.0191-0.91543 0.0191-1.9644 0.0191-1.068 0.0191-2.2886 0.0191-1.2396 0.0191-2.7272 0-1.0871 0-1.8881 0-0.80099-0.0191-1.4685h-2.1932v-3.5282h7.5713z"/>
   <path d="m-768.06 697.82q1.0871-0.15257 2.0788-0.20978 0.99171-0.0763 1.6973-0.0763 1.6783 0 3.0896 0.45771 1.4113 0.45771 2.4793 1.6401 0.97264 1.1061 1.4494 2.689 0.47679 1.5638 0.47679 3.3756 0 1.7736-0.45772 3.223-0.45771 1.4494-1.4113 2.4793-0.9345 1.0298-2.3648 1.602-1.4304 0.57214-3.3756 0.57214-0.43864 0-1.4304-0.0381-0.97264-0.0381-2.1551-0.17165 0.0191-0.87728 0.0191-1.6973 0.0191-0.83914 0.0191-1.6401 0.0191-0.82007 0.0191-1.6401 0-0.82007 0-1.6974 0-2.4983-0.0382-4.7869-0.0191-2.2886-0.0953-4.0813zm3.6998 2.8798q-0.19071 0-0.36236 0.0191-0.15257 0.0191-0.30514 0.0382-0.0191 0.89635-0.0191 1.7927 0 0.87728 0 1.7736 0 0.43864 0 0.93449 0.0191 0.49586 0.0191 1.0298 0.0191 0.51493 0.0381 1.0489 0.0191 0.51493 0.0191 0.97264 0.17164 0.0381 0.34328 0.0572 0.17164 0 0.30514 0 0.70564 0 1.2968-0.30514 0.61028-0.30514 1.0489-0.82006 0.45771-0.534 0.70564-1.2396t0.24793-1.5066q0-0.59121-0.17165-1.2587-0.15257-0.68656-0.55306-1.2396-0.38143-0.55307-1.0298-0.91542-0.62936-0.38143-1.5829-0.38143z"/>
  </g>
  <path transform="scale(.26458)" d="m2148.5 899.11c-275.25 1.373-553.78 108.49-740.53 362.89-426.86 581.47 158.32 1108.8 136 1316s67.973 962.75-172 1474c78.308 39.163 143.53 96.441 288 44l-12 80c55.377-27.222 124.25-87.413 188-68 176.17 53.646 318.89 79.452 490 24 95.691-31.011 310.5 208.1 554 12l-52-78c112.86 35.03 217.91 61.313 336 18-103.35 5.7415-1373.7-206.32-1306-1210 27.323-405.18-279.18-614.48-458-1296-74.987-285.79 1102.4-680.65 748.53-678.89z" opacity=".054878"/>
 </g>
</svg>
