<?xml version="1.0" encoding="UTF-8" standalone="no"?>
<svg
   id="svg5"
   width="1200mm"
   height="1200mm"
   version="1.1"
   viewBox="0 0 1200 1200"
   sodipodi:docname="Basic.svg"
   inkscape:version="1.3.2 (091e20e, 2023-11-25, custom)"
   xmlns:inkscape="http://www.inkscape.org/namespaces/inkscape"
   xmlns:sodipodi="http://sodipodi.sourceforge.net/DTD/sodipodi-0.dtd"
   xmlns="http://www.w3.org/2000/svg"
   xmlns:svg="http://www.w3.org/2000/svg">
  <defs
     id="defs1" />
  <sodipodi:namedview
     id="namedview1"
     pagecolor="#ffffff"
     bordercolor="#000000"
     borderopacity="0.25"
     inkscape:showpageshadow="2"
     inkscape:pageopacity="0.0"
     inkscape:pagecheckerboard="0"
     inkscape:deskcolor="#d1d1d1"
     inkscape:document-units="mm"
     inkscape:zoom="0.73289583"
     inkscape:cx="2192.6718"
     inkscape:cy="3126.6381"
     inkscape:window-width="1920"
     inkscape:window-height="1009"
     inkscape:window-x="-8"
     inkscape:window-y="-7"
     inkscape:window-maximized="1"
     inkscape:current-layer="svg5" />
  <ellipse
     style="fill:#f7e2ab;fill-opacity:1;stroke:none;stroke-width:1.17317;stroke-linecap:round;stroke-linejoin:round;stroke-dashoffset:102.992"
     id="path1"
     cx="675.56628"
     cy="910.87494"
     rx="8.9533072"
     ry="8.9533062" />
  <ellipse
     style="fill:#f7e2ab;fill-opacity:1;stroke:none;stroke-width:1.17317;stroke-linecap:round;stroke-linejoin:round;stroke-dashoffset:102.992"
     id="path1-3"
     cx="492.53992"
     cy="914.79022"
     rx="8.9533072"
     ry="8.9533062" />
  <g
     id="layer60"
     transform="translate(19.4 11.241)">
    <g
       id="layer134">
      <g
         id="layer140">
        <path
           id="path2-6"
           d="m500.15 1169.9c-2.249-0.5327-2.4644-0.7747-1.5253-1.7138 0.52544-0.5255 3.1756-0.9628 8.4298-1.3912 11.088-0.9041 22.98-2.6513 23.83-3.5013 0.61071-0.6108 0.53526-10.23-0.47929-61.093-1.0147-50.872-1.1019-61.988-0.55408-70.645 0.35739-5.6515 6.6441-101.46 13.97-212.91 7.3261-111.45 13.32-203.48 13.32-204.51 0-3.0122-1.5367-2.4225-4.9596 1.9034-2.0457 2.5855-5.6926 9.0434-11.526 20.411-4.6934 9.1458-9.2922 18.31-10.22 20.364-0.92744 2.0544-3.2232 6.977-5.1018 10.939-1.8785 3.9622-3.4147 7.3875-3.4138 7.6118 1e-3 0.2243-1.7171 4.1863-3.8178 8.8046-5.6868 12.502-12.005 27.348-14.586 34.278-1.2576 3.3752-3.7329 9.7387-5.5006 14.141-1.7678 4.4023-4.3484 11.366-5.7344 15.475-1.386 4.1088-3.1925 9.3055-4.0141 11.547-4.5682 12.466-13.052 44.251-15.14 56.718-3.0185 17.111-5.3314 34.702-4.9478 52.065 0.26701 7.9891 2.0311 21.577 3.048 23.478 0.31261 0.58427 1.3629 1.0236 2.8469 1.1908 1.4241 0.16045 3.3076 0.92288 4.7755 1.9329 5.6573 3.8924 5.7689 13.283 0.20275 17.085-4.7174 3.2222-7.5691 3.2595-12.262 0.16003-2.4894-1.6442-3.569-3.6238-3.9373-7.22-0.43107-4.2083 0.59235-7.1068 3.4286-9.711 2.1487-1.9729 2.3836-2.4069 2.038-3.7668-1.2207-4.8036-2.5139-15.44-2.782-22.882-0.22886-6.3497-0.0124-12.162 0.84551-22.679 0.29893-9.7348 2.5328-20.594 4.0278-29.375 3.6501-21.549 14.769-59.293 24.997-84.858 1.9457-4.8634 4.4052-11.334 5.465-14.38 1.0601-3.0456 2.488-6.6437 3.1731-7.9957 0.6851-1.352 2.7988-6.1673 4.6971-10.701 1.8983-4.5333 4.8223-11.244 6.4977-14.913 1.6754-3.6687 3.7412-8.4108 4.5905-10.538 0.84958-2.1269 2.6355-6.0392 3.9688-8.6939 1.3332-2.6547 2.9152-6.0773 3.5154-7.6056 1.0688-2.7218 16.023-32.123 21.29-41.859 1.4663-2.7102 2.6659-5.2916 2.6659-5.7365 4.5933-4.5476 11.851-2.0435 17.834-2.506 2.9678-0.20689 4.7942-0.17953 7.7222-0.47349l1.375 0.29728c-0.28774 0.28774 0.85102 3.0192 2.4172 5.8787 4.863 8.8784 19.655 37.855 20.754 40.66 0.59969 1.5284 2.1811 4.9508 3.5144 7.6056 1.3332 2.6547 3.1192 6.567 3.9688 8.6939 0.84953 2.1269 2.9154 6.8688 4.5906 10.538 1.6753 3.6687 4.5992 10.379 6.4977 14.913 1.8984 4.5333 4.0121 9.3486 4.6971 10.701 0.68514 1.352 2.113 4.95 3.1731 7.9957 1.0601 3.0456 3.5194 9.5165 5.465 14.38 10.228 25.564 21.347 63.311 24.997 84.858 0.46987 2.7741 0.94282 5.1868 1.051 5.3617 0.64948 1.051 1.979 11.776 2.9769 24.013 0.85754 10.517 1.0742 16.329 0.84547 22.679-0.26825 7.4414-1.5612 18.079-2.7819 22.882-0.34578 1.3599-0.1107 1.794 2.038 3.7668 2.8362 2.6041 3.8596 5.5027 3.4286 9.711-0.36817 3.5961-1.4479 5.5757-3.9373 7.22-4.6925 3.0993-7.5442 3.0621-12.262-0.16003-5.5661-3.8021-5.4546-13.192 0.20274-17.085 1.468-1.01 3.3515-1.7724 4.7755-1.9329 1.484-0.16708 2.5342-0.60653 2.8469-1.1908 1.0169-1.9002 2.781-15.489 3.048-23.478 0.3802-11.378-2.3257-43.961-3.8566-46.436-0.11195-0.1816-0.60313-2.7143-1.0912-5.6287-2.0879-12.469-10.572-44.251-15.14-56.718-0.82163-2.2422-2.628-7.4385-4.0141-11.547-1.3861-4.1088-3.9666-11.073-5.7344-15.475-1.7678-4.4023-4.2431-10.766-5.5006-14.141-2.5818-6.9294-8.8996-21.776-14.586-34.278-2.1007-4.6183-3.8195-8.5762-3.8195-8.7951 0-1.3259-23.187-48.343-27.631-56.03-1.9804-3.4248-3.1471-4.4222-3.6477-3.1176-0.15879 0.41378 7.5326 94 17.091 207.97 9.5592 113.97 17.53 211.42 17.713 216.56 0.18326 5.1362-0.19735 35.002-0.84514 66.366-0.99908 48.368-1.0666 57.141-0.44483 57.763 0.85903 0.859 12.687 2.6005 23.838 3.5096 5.3717 0.438 7.8995 0.8607 8.4522 1.4133 0.69551 0.6955 0.68738 0.845-0.0688 1.2683-1.6286 0.9114-8.3577 1.1045-14.859 0.4263-6.3986-0.6675-16.536-3.3463-18.675-4.9351-0.93486-0.6943-2.152-10.221-11.847-92.727-3.191-27.157-3.3511-28.815-3.7592-38.954-0.15962-3.9621-0.51527-10.686-0.79057-14.941-0.2753-4.2555-2.0746-32.951-3.9984-63.767-1.9238-30.817-3.6234-56.598-3.7768-57.291-0.2384-1.076-0.48778-1.2012-1.7218-0.86503-2.469 0.67257-22.767 0.91885-24.996 0.30307-1.5394-0.42501-2.1881-0.40175-2.6412 0.0945-0.40715 0.44603-1.3283 19.49-2.8583 59.09-3.3352 86.326-3.2361 84.667-6.9472 116.06-10.507 88.892-11.213 94.435-12.108 95.099-0.48003 0.3566-3.1308 1.4008-5.8904 2.3202-7.6222 2.5394-20.961 3.8838-26.206 2.6415zm-23.442-260.05c1.612-0.88962 2.1625-1.6191 2.7728-3.6741 2.092-7.0446-4.183-12.39-10.426-8.8817-2.238 1.2579-3.1633 3.1058-3.1633 6.3178 0 3.6067 0.90973 5.1623 3.8865 6.6458 2.9258 1.458 3.6239 1.4169 6.9298-0.40756zm183-3.7171c2.164-1.1939 3.0907-3.0698 3.0907-6.2564 0-3.2119-0.92528-5.0599-3.1633-6.3178-2.6112-1.4676-4.9463-1.462-7.5803 0.0166-1.6826 0.94568-2.2306 1.665-2.8454 3.7354-0.66238 2.2305-0.66006 2.9055 0.0166 5.1884 0.70085 2.36 1.058 2.763 3.5479 4.0038 2.9571 1.4736 3.6561 1.4361 6.9322-0.37149z"
           fill-opacity=".99763"
           stroke-width="4.1461" />
      </g>
    </g>
  </g>
</svg>
