<?xml version="1.0" encoding="UTF-8"?>
<svg id="svg5" width="1200mm" height="1200mm" version="1.1" viewBox="0 0 1200 1200" xmlns="http://www.w3.org/2000/svg" xmlns:xlink="http://www.w3.org/1999/xlink">
 <defs id="defs77">
  <filter id="filter8659" x="-.036741" y="-.040029" width="1.0673" height="1.0798" color-interpolation-filters="sRGB">
   <feGaussianBlur id="feGaussianBlur2-43" stdDeviation="0.55270962"/>
  </filter>
  <filter id="filter15395" x="-.021655" y="-.026666" width="1.0433" height="1.0533" color-interpolation-filters="sRGB">
   <feGaussianBlur id="feGaussianBlur11-2" stdDeviation="0.49068807"/>
  </filter>
  <filter id="filter18401" x="-.03732" y="-.017032" width="1.0746" height="1.0341" color-interpolation-filters="sRGB">
   <feGaussianBlur id="feGaussianBlur14-05" stdDeviation="0.48812849"/>
  </filter>
  <filter id="filter11276" x="-.016754" y="-.011787" width="1.0335" height="1.0236" color-interpolation-filters="sRGB">
   <feGaussianBlur id="feGaussianBlur5-1" stdDeviation="0.41554338"/>
  </filter>
  <filter id="filter11606" x="-.0088665" y="-.0066456" width="1.0177" height="1.0133" color-interpolation-filters="sRGB">
   <feGaussianBlur id="feGaussianBlur8-3" stdDeviation="0.23930433"/>
  </filter>
 </defs>
 <g id="layer60" transform="translate(19.4 11.241)">
  <g id="layer214">
   <g id="layer69">
    <path id="path19-6" d="m330.52 477.48c5.1353 46.54 42.767 76.653 71.889 97.508 30.222 21.645 87.644 34.437 133.84 39.78 0 0-15.406 11.352-11.475 15.429 2.7685 2.8711 64.463 21.398 79.468-0.43194 3.7823-5.5031-7.6122-17.041-7.6122-17.041s27.151-2.1539 58.116-15.481c0 0 90.21-23.534 106.54-100.72 56.938-243.33-160.39-297.31-208.3-289.41-132.1 6.6503-257.63 84.974-222.47 270.37zm214.45-187.17c8.2001 0.44952 16.527 1.4688 24.925 3.1582 83.108 16.717 92.657 49.032 116.79 72.482 39.746 38.613 39.548 82.325 35.648 127.13-3.1117 35.749-26.236 58.058-53.605 77.291-27.371 19.233-65.205 26.827-102.3 28.382-42.327 1.7743-109.8-10.534-148.29-38.101-28.053-19.125-37.15-53.849-45.234-89.22-13.389-58.592 19.516-124.46 39.653-141.2 23.947-18.294 75.007-43.07 132.41-39.922z" color="#000000" fill="#006cff" stroke="#000" stroke-width="2.073"/>
    <path id="path21-99" d="m399.57 346.75s106.08-61.163 195.47-1.5514c62.763 40.047 122.55 69.115 122.55 69.115s-13.158-62.494-129.14-145.91c-47.257-19-83.49 4.2692-128.76 24.822-54.202 24.605-60.114 53.522-60.114 53.522z" fill="#7f7f7f" stroke="#000" stroke-width="2.3425"/>
    <path id="path23-7" transform="matrix(4.1461 0 0 4.1461 114.51 46.946)" d="m99.438 52.853c18.385 4.8868 35.011 27.795 42.75 33.676 1.262 0.95907 2.8342 1.5603 2.8342 1.5603-0.61426-0.24247-4.2273-16.667-30.711-34.675-1.7116-1.1639-12.305-3.0159-14.874-0.56126z" filter="url(#filter8659)" opacity=".15174" stroke="#000" stroke-width=".26458px" style="mix-blend-mode:normal"/>
    <path id="path25-37" transform="matrix(4.1461 0 0 4.1461 114.51 46.946)" d="m147.08 96.657s2.5772 16.384-1.2749 22.917c-9.3334 10.74-17.021 12.721-28.528 15.256l-6.9967 3.9317-8.5767 1.0975-2.6617 0.43688s8.9464 1.313 13-0.22112c1.7378-0.65776 4.2394-3.6195 4.2394-3.6195l6.4241-0.95768c9.1025-3.3411 30.276-13.297 29.842-24.909 0 0 1.2319-7.1776 0.7756-6.8863-0.47025 0.30016-2.6348 8.0567-3.0283 7.1678-1.2556-2.8359-2.1726-10.444-3.2137-14.213z" color="#000000" filter="url(#filter15395)" opacity=".19805" style="-inkscape-stroke:none;mix-blend-mode:normal"/>
    <path id="path27-6" transform="matrix(4.1461 0 0 4.1461 114.51 46.946)" d="m151.74 64.551c-0.0498-0.07258-0.28413-0.07-0.26367 0.01563 3.8531 16.129 4.1204 30.017 0.26028 43.463-0.96119 3.3482-1.7297 6.949-3.8434 9.7178-5.2378 6.8613-3.7236 5.445-20.718 15.535 18.679-4.2162 26.102-15.168 28.802-23.957 2.4771-8.0625 5.8228-30.124-4.2368-44.775z" color="#000000" filter="url(#filter18401)" opacity=".18506" style="-inkscape-stroke:none"/>
    <path id="path29-7" d="m726.97 520.72" fill="none" stroke="#000" stroke-width="1.097px"/>
    <path id="path31-44" transform="matrix(4.1461 0 0 4.1461 114.51 46.946)" d="m64.148 54.426c-5.5194 6.6586-10.781 13.554-12.421 21.737-2.5873 12.908-1.1197 31.179 4.8657 39.193 4.4598 5.9718 10.401 11.083 17.031 14.489 8.5178 4.3755 18.359 5.8818 27.876 6.9442 2.8266 0.31555 5.7754 1.2098 8.5306-0.18593-14.173-1.1812-27.072-3.9555-36.337-8.995-6.846-3.9074-13.029-9.8634-16.499-16.942-2.4621-5.0233-3.5437-10.756-3.6684-16.468-0.0306-1.4026 7.5559 20.432 8.6811 21.251 0 0-8.6811-21.251-3.3369-37.23 0 0-5.0639 9.1829-5.0081 8.6831 1.3484-12.095 5.0685-24.844 12.908-34.152" color="#000000" filter="url(#filter11276)" opacity=".17185" style="-inkscape-stroke:none;mix-blend-mode:normal"/>
    <path id="path33-6" transform="matrix(4.1461 0 0 4.1461 114.51 46.946)" d="m115.3 45.452c-9.5404-6.8287-44.222 3.0066-53.088 21.33-0.0737 0.0536 1.744-6.0467 3.4046-8.6702 3.0369-4.7981 13.326-13.36 11.667-12.413-4.8561 1.8185-17.701 11.828-19.07 15.782-0.48626 1.8175-5.0572 9.6831-6.8629 17.736-0.95353 4.2526-1.26 14.687 0.0554 23.286 0.63928 4.179 3.0906 10.497 3.2947 10.525 0 0 4.3446 6.2289 8.9126 9.9712 6.4893 5.3163 14.042 7.8755 11.022 6.1819-11.022-6.1819-16.339-23.025-15.785-27.142 0.052-0.38656 4.0977 3.5977 3.5348 2.079-2.9201-4.3222 1.056-28.365 6.3725-31.808-5.5502-11.404 29.865-30.814 46.542-26.857z" color="#000000" filter="url(#filter11606)" opacity=".15722" style="-inkscape-stroke:none"/>
   </g>
  </g>
 </g>
</svg>
