<?xml version="1.0" encoding="UTF-8"?>
<svg id="svg5" width="1200mm" height="1200mm" version="1.1" viewBox="0 0 1200 1200" xmlns="http://www.w3.org/2000/svg" xmlns:xlink="http://www.w3.org/1999/xlink">
 <g id="layer60" transform="translate(19.4 11.241)">
  <g id="layer214">
   <g id="layer84">
    <path id="rect102735" d="m402.81 339.82 136.41-10.519 37.129 44.577-1.7252 158.14-15.975 14.767c-54.477-0.88607-108.95 14.626-163.43-4.0362-33.402-72.018-9.4658-133.2 7.5944-202.93z" fill="#063fba" opacity=".55691" stroke-linecap="round" stroke-linejoin="round" stroke-width="2.5184"/>
    <path id="rect102735-9" d="m599.12 383.89 97.7 50.402c4.5119 1.4679 10.103 2.7782 9.7926 18.908l-2.4459 82.95c0.7027 5.774 1.0809 11.163-4.8204 9.1105l-106.59 7.0086z" fill="#f00" opacity=".48577" stroke-linecap="round" stroke-linejoin="round" stroke-width="1.5216"/>
    <path id="path115885" d="m462.98 331.12-62.432 161.36-5.329 50.263 5.2304 13.53 116.35-216.89z" fill="#fff" opacity=".14431"/>
    <path id="path103342" transform="matrix(.26458 0 0 .26458 -19.4 -11.241)" d="m2111.3 1287.1-5.3965 0.022-541.7 2.0605-8.4722 46.393-108.54 473.56c14.3 2.2449 27.97 5.7682 38.358 15.947l65.54 282.2c5.8284 32.823 35.722 37.671 35.722 37.671l624.41 1.9957s22.71-0.6529 24.822-14.471c20.064-72.17 42.25-71.238 58.306 1.8443 1.172 16.114 17.796 14.424 17.796 14.424l427.33-8.0488 103.18-236.88 17.459 2.4089-130.13-237.78zm121.16 237.76-13.613 489.91c-10.576 65.35-34.111 94.31-90.111 90.31l-454.6-1.9121c-111.16-7.9863-76.162-117.14-86.953-199.31l-2.3341-401.28c0.4843-71.087-3.5342-175.66 156.02-176.26l285.68-1.0852c119.89-14.721 211.43 108.62 205.91 199.64zm108.34 65.257c12.774-113.03 54.119-59.405 88.031-49.136l251.15 154.73c15.025 13.435 27.786 22.23 32.319 56.265l-2.1854 272.59c2.5834 44.459-15.635 78.893-56.648 80.307l-264.19 4.7326c-42.459 1.7664-65.826-23.875-63.482-92.022l10.996-367.46z" color="#000000" fill="#fff" stroke="#000" stroke-width="9.4488"/>
    <path id="path115887" d="m556.98 344.36-108.96 200.63 23.07 8.2442 97.555-204.7z" fill="#fff" opacity=".14431"/>
    <path id="path113717" d="m394.47 329.85-1.4009 222.4-19.409-80.605-10.149-4.2194z" opacity=".17073"/>
    <path id="path113978" d="m400.55 492.48s15.356-73.602 23.699-110.58c2.4324-13.853 15.306-19.682 23.027-20.667 19.022 0.0267 49.084 0.0721 69.056 0.10251 26.009 6.8151 22.41 13.489 28.047 31.021l24.604 100.92 2.2951-101.07c-1.6056-36.974-21.815-45.706-42.811-53.244l-96.777 0.70811c-24.742 2.1242-31.869 22.113-31.387 51.101 0 0 3.2532 74.096 0.24575 101.71z" opacity=".13211" stroke="#000" stroke-width=".26458px"/>
    <path id="path115889" d="m659.2 407.82-73.521 102.01 3.7567 9.5044 83.286-101.08z" fill="#fff" opacity=".14431"/>
    <path id="path113980" d="m605.47 391.67-5.5231 17.801-3.6765 78.041 17.558-48.279c5.3057-19.673 7.4753-15.986 24.725-8.8303l39.8 16.511c10.009 2.491 9.762 8.3976 12.535 17.602l6.1466 40.729 1.2062-52.948c-4.2422-13.25-16.288-20.814-32.97-31.249-20.099-12.573-40.491-26.984-59.801-29.377z" opacity=".17886" stroke="#000" stroke-width=".26458px"/>
    <path id="path115891" d="m690.52 425.64-80.275 124.8 36.54 3.8996 50.031-120.05z" fill="#fff" opacity=".14431"/>
    <path id="path113982" d="m702.91 430.2 2.5115 124.95" fill="none" stroke="#000" stroke-width=".26458px"/>
    <path id="path113984" d="m394.47 329.85-1.4009 222.4" fill="none" stroke="#000" stroke-width=".26458px"/>
   </g>
  </g>
 </g>
</svg>
