<?xml version="1.0" encoding="UTF-8"?>
<svg id="svg5" width="1200mm" height="1200mm" version="1.1" viewBox="0 0 1200 1200" xmlns="http://www.w3.org/2000/svg" xmlns:xlink="http://www.w3.org/1999/xlink">
 <g id="layer60" transform="translate(19.4 11.241)">
  <g id="layer214">
   <g id="layer176">
    <path id="path73005" d="m517.54 774.64-1.0502 19.954s13.908 4.226 20.479 2.2317c3.3883-1.0284 8.1392-6.8264 8.1392-6.8264l42.534 0.13118s3.8983 5.3844 6.8264 6.5638c4.3838 1.7657 14.178 0 14.178 0l0.91895-21.398-19.954-5.5136-46.341-0.13118z" fill="#828282" stroke="#000" stroke-width="1.5183"/>
    <path id="path73005-9" d="m517.54 774.64-1.0502 19.954s13.908 4.226 20.479 2.2317c3.3883-1.0284 8.1392-6.8264 8.1392-6.8264l42.534 0.13118s3.8983 5.3844 6.8264 6.5638c4.3838 1.7657 14.178 0 14.178 0l0.91895-21.398-17.526 1.5577-2.4185-2.9568c-0.38186 2.2018-3.0871 2.2196-5.1804 2.2034l-29.645-0.31803c-4.2154-0.0137-11.515 0.23068-11.522-3.7882l-3e-3 -2.3429z" opacity=".34553"/>
    <path id="path73782" d="m545.1 781.05 0.83545 5.7553 40.38 0.64977 1.4852-5.9409z" opacity=".74187" stroke="#000" stroke-width=".52511px"/>
    <path id="path73784" d="m533.04 774.09 9.6539-2.0422-0.13516 7.5744c-0.0721 2.4823-0.96905 3.0558-2.4241 3.3438l-6.0735 1.3348z" opacity=".63415" stroke="#000" stroke-width=".52511px"/>
    <path id="path73786" d="m601.36 775.67-10.954-3.4346-0.4628 7.4047c-0.0631 2.4833 0.18735 3.1784 1.6292 3.6343l5.7956 2.0496z" opacity=".63415" stroke="#000" stroke-width=".52511px"/>
    <ellipse id="path73810" cx="544.25" cy="768.3" rx="2.7848" ry="1.2532" fill="#da0202"/>
    <ellipse id="path73810-8" cx="549.45" cy="768.81" rx="2.7848" ry="1.2532" fill="#003cc4"/>
    <ellipse id="path75582" cx="560.07" cy="767.12" rx="4.3321" ry="1.083"/>
    <ellipse id="path73810-4" cx="554.74" cy="768.34" rx="2.7848" ry="1.2532" fill="#08be3c"/>
    <ellipse id="path73810-4-6" cx="587.44" cy="768.81" rx="2.7848" ry="1.2532" fill="#828282"/>
    <ellipse id="path73810-4-7" cx="582.89" cy="768.99" rx="2.7848" ry="1.2532" fill="#828282"/>
    <ellipse id="path75582-6" cx="573.33" cy="767.15" rx="4.3321" ry="1.083"/>
    <ellipse id="path73810-4-8" cx="578.25" cy="768.72" rx="2.7848" ry="1.2532" fill="#828282"/>
    <rect id="rect75997" x="558.82" y="767.55" width="2.6912" height="1.9035"/>
    <rect id="rect75999" x="571.95" y="767.94" width="2.7568" height="1.9035"/>
   </g>
  </g>
 </g>
</svg>
