<?xml version="1.0" encoding="UTF-8"?>
<svg id="svg5" width="1200mm" height="1200mm" version="1.1" viewBox="0 0 1200 1200" xmlns="http://www.w3.org/2000/svg" xmlns:xlink="http://www.w3.org/1999/xlink">
 <defs id="defs77">
  <filter id="filter48371-3" x="-.054827" y="-.020442" width="1.1106" height="1.0364" color-interpolation-filters="sRGB">
   <feGaussianBlur id="feGaussianBlur12" stdDeviation="0.16324608"/>
  </filter>
  <filter id="filter45848" x="-.051702" y="-.01125" width="1.1015" height="1.0224" color-interpolation-filters="sRGB">
   <feGaussianBlur id="feGaussianBlur45850" stdDeviation="0.16324608"/>
  </filter>
  <filter id="filter53230" x="-.03608" y="-.024946" width="1.0748" height="1.0426" color-interpolation-filters="sRGB">
   <feGaussianBlur id="feGaussianBlur53232" stdDeviation="0.16324608"/>
  </filter>
  <filter id="filter53234" x="-.14622" y="-.12265" width="1.2968" height="1.1855" color-interpolation-filters="sRGB">
   <feGaussianBlur id="feGaussianBlur53236" stdDeviation="0.16324608"/>
  </filter>
  <filter id="filter53238" x="-.16282" y="-.12449" width="1.3326" height="1.2561" color-interpolation-filters="sRGB">
   <feGaussianBlur id="feGaussianBlur53240" stdDeviation="0.16324608"/>
  </filter>
  <filter id="filter53242-4" x="-.22128" y="-.21463" width="1.4122" height="1.4306" color-interpolation-filters="sRGB">
   <feGaussianBlur id="feGaussianBlur53244-7" stdDeviation="0.16324608"/>
  </filter>
 </defs>
 <g id="layer60" transform="translate(19.4 11.241)">
  <g id="layer17">
   <g id="g12477">
    <g id="g12475" transform="matrix(4.1461 0 0 4.1461 113.27 46.836)" fill-opacity=".99763" stroke="#000">
     <path id="path12410" d="m96.776 190.9-0.14096 45.986c2.0359 0.91495 3.6556 1.1704 5.8274 1.069l5.6755-0.38283 1.088-33.54 3.2321 26.264-0.31726 7.7913c4.9711 1.5167 7.2136 0.52932 11.278-0.19289l-2.2119-47.167s-2.7333 0.16482-11.776 0.22232c-4.2158-0.0371-8.4409 0.12127-12.655-0.0503z" fill="#baab9d" fill-opacity="1" stroke-width=".40429"/>
     <g id="g12424" transform="matrix(1 0 0 1.4775 .2152 -91.999)" fill="none" stroke-width=".26458px">
      <g id="g12418">
       <path id="path12412" d="m103.91 192.75s0.22989 5.2894-7.3734 3.1969"/>
       <path id="path12414" d="m113.62 192.56s-0.22989 5.2894 7.3734 3.1969"/>
       <path id="path12416" d="m108.15 191.64c0.01 9.218-0.11002 8.4107 0.98477 8.8178l-0.0868-8.9278"/>
      </g>
      <path id="path12420" d="m96.609 192.57 11.343 0.10336h0.12919"/>
      <path id="path12422" d="m109.11 192.6 11.834-0.41341"/>
     </g>
     <path id="path12426" d="m108.95 203.53-3.3748 0.69482 2.7388 0.64597 0.14839 22.18 1.0167-22.992 3.2261 25.128-2.5954-24.601 3.1652-0.93017z" fill-opacity=".99763" filter="url(#filter48371-3)" opacity=".21173" stroke-width=".26458px"/>
     <g id="g12432" fill="#386035" fill-opacity=".99763" stroke-width=".26458px"></g>
     <path id="path12434" d="m96.309 216.1c0.99393-0.7313 3.6269 0.74176 3.6269 0.74176v14.094s-2.9265 0.97882-3.9723 0.16484c-1.822-1.4181-0.3915-4.5642-0.94989-8.6539-0.10074-0.73786 0.86354-2.0605 0.86354-2.0605s-0.72474-3.4348 0.43177-4.2858z" fill="#baab9d" fill-opacity="1" stroke="#000" stroke-width=".23862px"/>
     <path id="path12437" d="m98.953 218.4s-0.03418 0.42476-0.14648 0.89844c-0.1123 0.47369-0.31799 0.9861-0.57617 1.1543-0.2783 0.1813-0.86738 0.15887-1.377 0.0644-0.50957-0.0944-0.9375-0.24219-0.9375-0.24219l-0.07813 0.22461s0.44249 0.15372 0.97266 0.25196c0.53016 0.0982 1.1503 0.16004 1.5488-0.0996 0.37846-0.24655 0.56256-0.80477 0.67969-1.2988 0.01779-0.38143 0 0-0.08593-0.95309z" color="#000000" fill-opacity="1" stroke="none" style="-inkscape-stroke:none"/>
     <path id="path12443" d="m120.31 216.39-1.9644 15.154s2.3943 0.0892 3.1805-0.6548c1.2416-1.1748 1.3096-4.9578 1.3096-4.9578s0.49027-3.3497 0.6263-4.8635c0.74407-0.62514 0.94282-3.2926 0.2156-4.2103-0.70389-0.88822-3.3676-0.46773-3.3676-0.46773z" fill="#baab9d" fill-opacity="1" stroke="#000" stroke-width=".26458px"/>
     <path id="path12445" d="m123.57 220.91s-1.5637 0.41585-2.0419 0.0661c-0.5811-0.42491-0.6548-2.058-0.6548-2.058" fill="none" stroke="#000" stroke-width=".26458px"/>
     <path id="path12451" d="m115.42 218.89-3.0859 11.375 0.25586 0.0703c0.21248-1.3946 3.3175-10.44 2.8301-11.445z" color="#000000" fill-opacity="1" stroke="none" style="-inkscape-stroke:none"/>
     <path id="path12453" d="m99.922 203.77c0.98966 3.5696 5.2853 9.7754 5.2853 9.7754s-3.2409-5.7841-5.4256-4.7708c-2.4404 1.1319 0.15364 8.0689 0.15364 8.0689s-1.4543 0.36186-1.8842 0.91135c-0.37306 0.47684-0.50937 1.1872-0.37418 1.7773 0.09679 0.42252 0.79513 1.029 0.79513 1.029l0.04677 1.9176-1.9177 1.5435-0.56126 2.2918s0.13411 2.6909 0.98222 3.6015c0.70136 0.75299 2.9132 1.0214 2.9132 1.0214s-1.8147 0.60467-2.2584 1.364c-0.25972 0.4444-0.04677 1.5435-0.04677 1.5435l1.3096 0.51449s-0.93322 0.45981-1.1693 0.88868c-0.26411 0.47978-0.14032 1.637-0.14032 1.637 0.33246 0.9191 0.77902 1.0693 1.4105 0.17371-3.2994 1.8116-2.4741-2.1724-2.3327-3.5975l0.37627 0.22635-0.02113-2.2025c-0.62061-0.25547-2.0079-0.81375-2.0035-2.7057 0.0058-2.4892 0.30394-3.9159-0.03404-6.5549 0 0 0.1842-0.66178 0.85107-1.8367-0.17486-1.9859-0.55201-4.1202 1.0773-4.783l-0.17834-24.701 2.5617-0.0429s-0.56618 8.7583 0.58465 12.909z" fill-opacity="1" filter="url(#filter45848)" opacity=".21173" stroke="#000" stroke-width=".26458px"/>
     <path id="path12455" d="m108.64 217.65-3.3073 7.4083 3.5057-5.2255z" fill-opacity="1" filter="url(#filter53234)" opacity=".21173" stroke="#000" stroke-width=".26458px"/>
     <path id="path12461" d="m115.39 234.38c-0.70981 1.3014-2.4415 2.5007-1.6299 3.9543l-1.6206-0.24781 9e-3 -1.4575 2.5135-3.1088z" fill-opacity="1" filter="url(#filter53238)" opacity=".21173" stroke="#000" stroke-width=".26458px"/>
     <path id="path12467" d="m120.88 218.92s-0.44659 1.7185 0.21372 2.2642c0.61021 0.50426 2.0111-0.22515 2.0111-0.22515-1.3115 0.11818-1.7756-0.95008-2.2248-2.039z" fill-opacity="1" filter="url(#filter53242-4)" opacity=".21173" stroke="#000" stroke-width=".26458px"/>
     <path id="path12469" d="m112.46 230.3s3.0412-3.9569 3.9916-6.2339c1.0446-2.5027 1.7859-7.9375 1.7859-7.9375-0.54396 2.0427-1.8419 2.8287-2.9019 4.0114 0.20322-1.3458-0.27332-3.0994-0.67001-4.8051 0.1077-1.3177-0.28544-2.698 0.72761-3.9026-1.4111 1.3578-4.0048 1.5728-4.2333 0.0662l-1.0482-6.9092-1.1598-1.0558-0.57012 5.9806-3.638-2.3812 3.9688 4.101 0.19844 2.8443-2.3812-2.8443 2.249 4.5641-0.46276-10.924c0.7216 1.8964 1.3228-0.0187 2.2864 9.5399l1.8577 15.886" fill-opacity="1" filter="url(#filter53230)" opacity=".21173" stroke="#000" stroke-width=".26458px" style="mix-blend-mode:normal"/>
    </g>
   </g>
  </g>
 </g>
</svg>
