<?xml version="1.0" encoding="UTF-8"?>
<svg id="svg5" width="1200mm" height="1200mm" version="1.1" viewBox="0 0 1200 1200" xmlns="http://www.w3.org/2000/svg" xmlns:xlink="http://www.w3.org/1999/xlink">
 <defs id="defs77">
  <filter id="filter48371-3-3" x="-.3762" y="-.11261" width="1.7524" height="1.2252" color-interpolation-filters="sRGB">
   <feGaussianBlur id="feGaussianBlur12-6" stdDeviation="1.2069309"/>
  </filter>
  <filter id="filter25136" x="-.041762" y="-.0068998" width="1.0872" height="1.0155" color-interpolation-filters="sRGB">
   <feGaussianBlur id="feGaussianBlur25138" stdDeviation="0.1605801"/>
  </filter>
  <filter id="filter25140" x="-.022331" y="-.024991" width="1.0447" height="1.05" color-interpolation-filters="sRGB">
   <feGaussianBlur id="feGaussianBlur25142" stdDeviation="0.047869003"/>
  </filter>
  <filter id="filter25144" x="-.022267" y="-.029619" width="1.0445" height="1.0592" color-interpolation-filters="sRGB">
   <feGaussianBlur id="feGaussianBlur25146" stdDeviation="0.047869003"/>
  </filter>
  <filter id="filter25148" x="-.041852" y="-.028948" width="1.0837" height="1.0579" color-interpolation-filters="sRGB">
   <feGaussianBlur id="feGaussianBlur25150" stdDeviation="0.047869003"/>
  </filter>
  <filter id="filter25152" x="-.017224" y="-.056427" width="1.0374" height="1.1187" color-interpolation-filters="sRGB">
   <feGaussianBlur id="feGaussianBlur25154" stdDeviation="0.047869003"/>
  </filter>
  <filter id="filter25156" x="-.023558" y="-.0031682" width="1.0379" height="1.0063" color-interpolation-filters="sRGB">
   <feGaussianBlur id="feGaussianBlur25158" stdDeviation="0.047869003"/>
  </filter>
  <filter id="filter25160" x="-.029955" y="-.031092" width="1.0599" height="1.0622" color-interpolation-filters="sRGB">
   <feGaussianBlur id="feGaussianBlur25162" stdDeviation="0.047869003"/>
  </filter>
  <filter id="filter25164" x="-.023847" y="-.072244" width="1.0477" height="1.1445" color-interpolation-filters="sRGB">
   <feGaussianBlur id="feGaussianBlur25166" stdDeviation="0.047869003"/>
  </filter>
  <filter id="filter25168" x="-.029594" y="-.046345" width="1.0592" height="1.0927" color-interpolation-filters="sRGB">
   <feGaussianBlur id="feGaussianBlur25170" stdDeviation="0.047869003"/>
  </filter>
  <filter id="filter25176" x="-.043135" y="-.018346" width="1.0837" height="1.0383" color-interpolation-filters="sRGB">
   <feGaussianBlur id="feGaussianBlur25178" stdDeviation="0.047869003"/>
  </filter>
  <linearGradient id="linearGradient19166" x1="96.445" x2="123.34" y1="230.35" y2="230.35" gradientTransform="translate(1.071e-5)" gradientUnits="userSpaceOnUse">
   <stop id="stop2-8" offset="0"/>
   <stop id="stop4-2" stop-opacity="0" offset=".53219"/>
   <stop id="stop6" stop-opacity=".40486" offset="1"/>
  </linearGradient>
  <filter id="filter83355-6-4-1" x="-.010396" y="-.010504" width="1.0208" height="1.021" color-interpolation-filters="sRGB">
   <feGaussianBlur id="feGaussianBlur29-6-7" stdDeviation="0.087039062"/>
  </filter>
  <filter id="filter6257-5-4" x="-.019591" y="-.0043151" width="1.0392" height="1.0086" color-interpolation-filters="sRGB">
   <feGaussianBlur id="feGaussianBlur18-1-9" stdDeviation="0.087166883"/>
  </filter>
  <filter id="filter6257-8-1-9-0" x="-.013175" y="-.0038699" width="1.0263" height="1.0077" color-interpolation-filters="sRGB">
   <feGaussianBlur id="feGaussianBlur24-0-7" stdDeviation="0.087166883"/>
  </filter>
  <filter id="filter6257-8-6-4" x="-.022696" y="-.0042622" width="1.0454" height="1.0085" color-interpolation-filters="sRGB">
   <feGaussianBlur id="feGaussianBlur21-6-8" stdDeviation="0.087166883"/>
  </filter>
 </defs>
 <g id="layer60" transform="translate(19.4 11.241)">
  <g id="layer103">
   <g id="layer87">
    <g id="g6669" transform="matrix(4.1461 0 0 4.1461 114.51 46.946)">
     <g id="g3640">
      <g id="g19048" transform="translate(-.3303 .00030086)" fill="#1eaa36" stroke="#000">
       <path id="path19030" d="m96.776 190.9 0.4588 63.546s0.0239 0.41441 0.08782 0.81037 0.4391 1.5138 0.4391 1.5138l-0.42472 11.832c2.0359 0.91495 3.6556 1.1704 5.8274 1.069l4.1439-0.63809 0.62356-32.73 1.5423-32.23 2.9174 31.37 4e-3 33.723c4.9711 1.5167 4.8282 0.43578 8.8926-0.28643l1.8159-17.446-0.0465-1.9966-1.8512-58.709s-2.7333 0.16482-11.776 0.22232c-10.731 0.0682-11.63-0.0174-11.63-0.0174z" stroke-width=".40429"/>
       <g id="g19046" transform="translate(.2152 -.49518)">
        <g id="g19038" fill="#1eaa36" stroke-width=".26458px">
         <path id="path19032" d="m103.91 192.75s0.22989 5.2894-7.3734 3.1969"/>
         <path id="path19034" d="m113.62 192.56s-0.22989 5.2894 7.3734 3.1969"/>
         <path id="path19036" d="m108.15 191.64c0.01 9.218 0.0323 11.013 1.1271 11.42l-0.24568-11.515"/>
        </g>
        <path id="path19040" d="m109.31 200.51-0.16955 0.14616-0.0822 4.3513 0.42738-0.0197z" color="#000000" fill="#000" stroke="none" style="-inkscape-stroke:none"/>
        <path id="path19042" d="m96.609 192.57 11.343 0.10336h0.12919" fill="#1eaa36" stroke-width=".26458px"/>
        <path id="path19044" d="m109.11 192.6 11.834-0.41341" fill="#1eaa36" stroke-width=".26458px"/>
       </g>
      </g>
      <g id="g19056" transform="translate(-.3303 .00030086)" stroke="#000">
       <g id="g19054" stroke-width=".26458px"></g>
      </g>
      <path id="path19058" d="m108.61 203.54-3.3748 0.69482 2.7388 0.64597 0.14839 22.18 1.0167-22.992 2.6308 25.194-2.0001-24.667 3.1652-0.93017z" fill-opacity=".99763" filter="url(#filter48371-3-3)" opacity=".18567" stroke-width=".26458px" style="mix-blend-mode:normal"/>
      <path id="path19060" d="m99.592 203.77c0.98966 3.5696 7.0712 8.0225 7.0712 8.0225s-5.0268-4.0312-7.2115-3.0179c-2.4404 1.1319 0.15365 8.0689 0.15365 8.0689-3.9976 2.6263-1.664 8.0705-0.33349 9.5994-0.22468 1.173-0.65868 4.069 0.33351 4.4941 3.5449 1.4365 0.41666 3.602 0.45964 3.6204 0 0-0.93322 0.45981-1.1693 0.88868-0.26411 0.47978-0.14032 1.637-0.14032 1.637s0.19298 0.77268 0.5145 0.8419c0.39964 0.086 2.3182-7e-3 2.3182-7e-3s-1.2159 0.74406-1.8698 1.1812c-0.57558 0.38478-0.69709 0.0846-1.165 0.59483-0.48466 0.52851-0.28613 1.3664-0.0227 1.9668 0.22838 0.52049 1.268 1.14 1.268 1.14s-1.2644 0.0224-1.6838 0.42095c-0.69719 0.66242-1.0649 1.8241-0.8419 2.7596 0.23239 0.97478 0.37694 1.4924 0.37694 1.4924 1.3722 0.79004 3.3799 2.9007 3.235 3.6948-0.0848 0.46461-1.9482-0.59634-3.0234-0.48642-0.79028 0.0808 0.90913 1.5559 1.5848 2.363 1.6271 1.9434 3.7472 3.7642 3.7472 3.7642-0.0666 0.33316-4.4268-4.2291-5.0046-3.6482-0.92151 0.92644-0.21028 3.962-0.21164 3.9601-0.71626 0.6418-0.87184-1.4781 0.87878 1.2883 1.2258 1.2966 2.5309 3.9924 5.4094 4.1146-3.5001 0.0743-4.1481-0.11197-5.8267 0.76198-0.82946 1.2442-0.52513 3.2125 0.45167 4.3276 1.8036 2.059 8.0876 1.4226 8.0876 1.4226-3.3013 0.93328-6.6259 0.75235-9.9713-0.4309-0.16052-3.095 0.3794-7.3013 0.41265-11.791 0.0045-0.60491-0.43644-1.3302-0.45843-1.9409-0.09113-2.5303 0.0088-5.0482-0.14679-7.3781-0.08236-1.2335 0.06086-0.38863 0.05345-1.5713l-0.04534-7.2357s0.0478-2.7909-0.08904-7.2044c0 0-0.05755-13.4-0.1091-15.88l-0.17834-24.701 2.5617-0.0429s-0.56618 8.7583 0.58465 12.909z" filter="url(#filter25156)" opacity=".18567" stroke="#000" stroke-width=".26458px" style="mix-blend-mode:normal"/>
      <g id="g3610">
       <g id="g6556">
        <path id="path19062" d="m96.446 190.9 0.4588 63.546s0.0239 0.41441 0.0878 0.81037 0.4391 1.5138 0.4391 1.5138l-0.42471 11.832c2.0359 0.91495 3.6556 1.1704 5.8274 1.069l4.1439-0.63809 0.62356-32.73 1.7056-31.087 2.7542 30.227 4e-3 33.723c4.9711 1.5167 4.8282 0.43578 8.8926-0.28643l1.8159-17.446-1.8977-60.706s-2.7333 0.16482-11.776 0.22232c-10.731 0.0682-12.655-0.0505-12.655-0.0505z" fill="url(#linearGradient19166)" opacity=".16938" stroke-width=".40429"/>
       </g>
      </g>
      <path id="path19064" d="m104.97 219.94-2.4143-4.2003c0.80112 3.5606 3.1872 6.7338 5.6555 9.8557z" filter="url(#filter25176)" opacity=".18567" stroke="#000" stroke-width=".26458px" style="mix-blend-mode:normal"/>
      <path id="path19066" d="m112.06 235.44c-0.73341 5.9492 0.59809 22.731 0.0799 27.48-0.0257 0.23592 4.5002-0.77898 3.3987-1.5586-0.60055-0.42506-3.0828 0.24588-2.6735-2.6007 0 0-0.16027-1.5559 3.0888 0.49654 0.36161 0.22843-1.1866-1.18-0.9727-1.7554 0.29619-0.79663 1.2627-1.4615 1.5899-2.6704 0.2072-0.76559-1.6989-2.0904-1.5095-5.2658 0.18604-3.1197 0.69051-7.5531 1.5377-9.3685 0.29873-0.64009 1.5089-0.28858 1.5602-0.36118 0.46045-0.65128-1.7641-1.3154-3.0428-4.6076-0.34787-0.89565-0.50323-3.7621-0.66289-4.7382-0.46863-2.8652-1.3137-5.5647-1.103-6.0696 1.0446-2.5027 1.2898-5.2917 1.2898-5.2917-0.2463 1.1166-1.4781 2.0018-2.1412 2.2916 0.20322-1.3458 2.1079-4.5877 1.7112-6.2934 0.1077-1.3177-0.15315-5.4431 0.8599-6.6476-1.4111 1.3578-3.6412 3.3989-4.0018 1.9183l-1.9081-7.8352c-0.6748 2.8702-0.78323 5.7679-0.93614 8.6951l-1.7859-1.1245c1.9791 1.8591 1.5906 3.8498 2.1497 5.7878-0.39026-9.5182 0.70976-9.3298 0.70976-9.3298s1.8015 18.53 2.3224 23.59" filter="url(#filter25136)" opacity=".18567" stroke="#000" stroke-width=".26458px" style="mix-blend-mode:normal"/>
      <path id="path19068" transform="matrix(1 0 0 -1 0 531.83)" d="m122.78 264.78c-3.9361 2.9688-7.1734 2.3595-9.7896 1.9844 1.9252 0.85563 2.9141 2.6724 5.2586 1.5875 0.22371-0.10352 4.531-3.5719 4.531-3.5719z" filter="url(#filter25152)" opacity=".18567" stroke="#000" stroke-width=".26458px" style="mix-blend-mode:normal"/>
      <path id="path19070" d="m117.05 259.32 2.745-3.9688s-0.53703 1.425-0.95911 2.0505c-0.48867 0.72418-1.7859 1.9182-1.7859 1.9182z" filter="url(#filter25148)" opacity=".18567" style="mix-blend-mode:normal"/>
      <path id="path19072" d="m116.35 256.35s2.4009-3.415 4.2664-3.8364c0.30281-0.0684 0.89296 0.26458 0.89296 0.26458l-5.0602 3.605" filter="url(#filter25144)" opacity=".18567" style="mix-blend-mode:normal"/>
      <path id="path19074" d="m118.29 236.67c-0.45454 1e-3 -1.3744 0.16966-1.3744 0.16966 2.4351 1.4758 3.4836 2.9516 5.1447 4.4275 0 0-1.7885-4.6017-3.7703-4.5971z" filter="url(#filter25140)" opacity=".18567" style="mix-blend-mode:normal"/>
      <path id="path19076" d="m97.467 256.21-0.13698 0.64948c0.6557 0.68892 3.1322 4.3311 3.6607 3.8891-1.1746-1.3498-2.3491-2.8364-3.5237-4.5386z" color="#000000" style="-inkscape-stroke:none"/>
      <path id="path19078" d="m106.27 234.94s-2.0789 0.48974-2.8999 1.1225c-0.44212 0.3408-0.98222 1.3564-0.98222 1.3564z" filter="url(#filter25168)" opacity=".18567" style="mix-blend-mode:normal"/>
      <path id="path19080" d="m104.49 238.44s-1.4902 0.10949-2.1983 0.3274c-0.92638 0.2851-2.6192 1.2628-2.6192 1.2628z" filter="url(#filter25164)" opacity=".18567" style="mix-blend-mode:normal"/>
      <path id="path19082" d="m107.06 255.66-3.695 3.695 3.8353-3.0402z" filter="url(#filter25160)" opacity=".18567" style="mix-blend-mode:normal"/>
     </g>
     <path id="path31-9-0-1-2" d="m111.94 230.54 2.2148 7.8867c-0.53047-0.76682-2.3857-6.8843-2.2148-7.8867z" color="#000000" style="-inkscape-stroke:none"/>
    </g>
    <path id="path64-42-6" d="m568.16 843.13s-44.309 20.435-53.501 5.0562c0 0 14.012-71.993 32.109-190.95 2.9072-19.117 7.4219-47.809 7.4219-47.809l23.191-1.3316c0.19943 1.2276 5.1266 33.002 7.9999 49.285 15.549 88.102 35.118 191.05 35.118 191.05-10.044 13.131-52.336-5.2995-52.336-5.2995z" fill="#2a2a2a" stroke-width="4.1996"/>
    <g id="g3137-5" transform="matrix(4.1461 0 0 4.1461 115.83 48.416)" stroke="#000" stroke-width=".565">
     <path id="path3129-1" d="m100.85 185.37-4.0234 6.7065" fill="none"/>
     <path id="path3131-5" d="m110.3 206.29c3.3033 1.837 14.62 4.1561 15.709 0.93429l-2.4452-13.32c-0.6003-1.6194-1.0985-3.7888-0.67725-7.0066l-3.0926-30.786 7.4451 47.094c5.8637 2.7043 6.812 0.80038 9.0292 0.0861-3.1008-19.946-3.8184-38.192-13.801-59.17-2.7053-2.148-8.695-6.9891-11.393-8.8408-4.2088 29.063-1.8387 41.946-0.77412 71.009zm-3.3959 0.0177c-4.8316 2.572-12.719 5.5519-16.426 0.91152l3.6631-14.256c0.66498-2.2021 1.064-4.4042 0.67679-6.6062l3.1256-30.51c-2.794 15.386-5.1288 31.23-7.4451 47.094-3.4876 4.4695-6.6974 1.5542-9.0292 0.0861 4.31-28.83 7.6477-48.886 13.572-59.353l10.614-8.2636c5.8548 29.851 1.4815 42.167 1.2492 70.897z" fill="#ea0d0d"/>
    </g>
    <path id="path65-60-0" d="m614.02 796.55 11.305 26.771c4.7804 0.15382-7.2747-22.563-11.305-26.771z" color="#000000" stroke-width="4.1461" style="-inkscape-stroke:none"/>
    <path id="path69-36-9" d="m621.39 648.16-7.0313 40.086c3.0976-11.642 8.4062-30.972 7.0313-40.086z" color="#000000" stroke-width="4.1461" style="-inkscape-stroke:none"/>
    <path id="path71-79-9" d="m644.99 750.03-9.1828 32.699c2.1993-3.1793 9.8913-28.543 9.1828-32.699z" color="#000000" stroke-width="4.1461" style="-inkscape-stroke:none"/>
    <path id="path75-6-0" d="m639.27 789.37s-3.3229 0.50931-5.8464 2.0892c2.3824-0.0912 3.9526-0.82337 5.8464-2.0892z" color="#000000" stroke-width="4.1461" style="-inkscape-stroke:none"/>
    <path id="path3147-0" d="m542.38 615.35-0.77569 50.226" fill="none" stroke-width="4.1461"/>
    <path id="path3149-4" d="m592.51 615.68 0.19404 47.9" fill="none" stroke-width="4.1461"/>
    <path id="path11728-3" d="m454.03 875.88c9.9898 4.3126 26.559 6.5189 40.336 1.3575l-1.2865 12.406c-14.116 19.234-32.995 6.017-41.309 1.2238z" fill="#1ca133" stroke="#000" stroke-width="1.097px"/>
    <path id="path3139-2" transform="matrix(-4.1461 0 0 4.1461 884.85 54.419)" d="m87.536 154.4s3.3796 9.5251 4.0224 14.499c1.8323 14.18 5.1953 34.583 5.1953 34.583-0.79674-0.53572-1.6422-0.90901-2.2623-2.0336-0.14769-0.73104-0.16658-2.1706-0.28356-2.9352-0.02313-0.15123 0.38886 0.23918 0.36769 0.0931-2.1544-14.869-4.8454-29.539-7.0395-44.207z" filter="url(#filter6257-8-6-4)" opacity=".16"/>
    <path id="path3141-8" transform="matrix(-4.1461 0 0 4.7896 859.93 -76.63)" d="m82.578 149.62c0.2543-0.11853 1.3677 0.13195 2.0775 1.0672 1.9836 2.6137 4.5513 8.6888 5.1895 12.468 3.4143 10.933 6.4313 28.482 7.6908 35.771 0.02833 0.16394 0.38537-0.1247 0.41593 0.025 0.37305 1.8273 0.5559 3.0493 0.49301 3.0493-1.3479 0.64122-2.6738 1.3205-4.2019 1.6497 0.77903-13.566-4.6844-36.01-11.665-54.03z" filter="url(#filter6257-8-1-9-0)" opacity=".16" stroke-linejoin="round" stroke-width=".26423"/>
    <path id="path8980-2" d="m554.19 609.43c0.5824 3.3892 6.1802 39.881 6.3707 41.072 6.5719 41.076 6.8121 153.64 7.2933 186.24l-8.4846 66.629c-46.389 23.764-61.108 11.841-68.105 3.7792l3.1259-11.635c6.8623 4.3436 17.782 16.857 54.708-2.7387l7.5454-54.939c-0.88988-38.146-6.246-145.29-9.9946-186.04-0.27654-1.6481-0.57166-2.6096-1.642-3.2728-7.9616-4.8199-15.923-6.839-23.885-15.529 6.057-15.501 22.102-22.889 33.068-23.57z" fill="#1da334" stroke="#000" stroke-width="1.0987"/>
    <path id="path29-0-5" d="m512.69 650.1 7.0313 40.086c-3.0976-11.642-8.4061-30.972-7.0313-40.086z" color="#000000" stroke-width="4.1461" style="-inkscape-stroke:none"/>
    <path id="path31-9-0-6" d="m493.48 738.96 9.1828 32.699c-2.1994-3.1793-9.8913-28.543-9.1828-32.699z" color="#000000" stroke-width="4.1461" style="-inkscape-stroke:none"/>
    <path id="path35-6-9-9" d="m492.63 769.53s3.3229 0.50931 5.8464 2.0892c-2.3824-0.0912-3.9526-0.82337-5.8464-2.0892z" color="#000000" stroke-width="4.1461" style="-inkscape-stroke:none"/>
    <path id="path8980-7-2" d="m572.4 648.81c-7.0212 37.895-4.0856 154.73-4.5808 188.28l5.3237 66.629c39.644 14.386 59.872 11.206 65.131 3.8745l-2.4564-11.034c-7.0642 1.3326-17.895 8.4238-51.727-3.7091l-4.431-50.502c-2.5796-29.402 1.5594-135.9 5.2909-183.83-0.18907-4.117 1.376-5.8793 4.1874-7.7596 7.7864-5.1805 24.76-14.143 24.933-15.794 0 0-7.9428-22.726-36.682-26.874-3.281 8.2385-0.63634 18.382-4.9882 40.719z" fill="#1ca133" stroke="#000" stroke-width="1.0987"/>
    <path id="path13489-0" d="m639.59 875.57 1.9392 16.23c10.86 4.5409 25.181 9.8213 41.314-0.029l-3.0971-21.377c-13.233 9.1166-27.671 6.2843-40.156 5.1774z" fill="#1ca133" stroke="#000" stroke-width="1.097px"/>
    <path id="path3143-8" transform="matrix(4.1461 0 0 4.1461 114.51 46.946)" d="m120.62 156.85s3.3796 9.5251 4.0224 14.499c1.8323 14.18 6.1492 33.595 6.1492 33.595-1.2259-0.0611-2.4518-0.63103-3.6777-1.1766-0.23214-1.149-0.33833-2.6503-0.5561-3.7986-0.0351-0.18495 0.37442-0.0191 0.3398-0.20398-2.6667-14.244-4.9349-29.045-6.7845-43.302z" filter="url(#filter6257-5-4)" opacity=".16"/>
    <path id="path15945-5" d="m506.9 822.75s40.584 6.1901 61.043 6.4586c19.706 0.25871 58.939-4.676 58.939-4.676l2.4682 25.231s-40.672 3.0646-61.02 2.4682c-21.258-0.62303-63.488-6.3076-63.488-6.3076z" stroke="#000" stroke-width="1.097px"/>
    <path id="path17101-6" d="m554.62 824.35-1.9435 0.11318v1.9516l-0.70451 29.322 1.7978 0.2753c9.8137 1.5075 18.066 1.1039 25.905 0.40507l1.8949-0.16999-0.12936-31.476-1.8949-0.15382c-8.6977-0.71204-22.37-0.42298-24.925-0.267zm2.4283 4.505c3.1122-0.11485 12.208-0.22804 19.85 0.2185l0.5084 23.181c-6.5961 0.5387-13.414 0.69103-21.2-0.31593z" color="#000000" fill="#fff700" stroke-width="4.1461" style="-inkscape-stroke:none"/>
    <path id="path22197-0" d="m515.82 1100 46.21 0.274c-2.0815 24.834-1.0089 46.064-0.68559 68.15l-9.5986 1.097-0.27447-2.6054c-17.18 5.3295-34.561 8.2447-52.107 9.1873-9.237-0.596-12.672-5.8913-13.438-11.518-0.59672-4.3826 1.3665-9.1489 4.1137-12.615 2.7899-3.5202 7.1413-5.9848 11.518-6.9933 3.847-0.8864 11.793 1.097 11.793 1.097l4.9364 0.2741c0.64637-15.449-1.4851-30.898-2.468-46.347z" stroke="#000" stroke-width="1.097px"/>
    <path id="path23413-1" d="m513.35 1084.1 0.54848 20.02c16.088 3.9473 32.41 5.0765 49.227 0.274l0.13723-20.02c-15.911 1.7392-33.297 1.1566-49.913-0.2745z" fill="#ea0d0d" stroke="#000" stroke-width="1.097px"/>
    <path id="path22197-4-0" d="m625.26 1101.1-46.21 0.2741c2.0815 24.834 1.0089 46.064 0.6856 68.15l9.5986 1.0969 0.27447-2.6053c17.18 5.3295 34.561 8.2447 52.107 9.1872 9.2371-0.5959 12.672-5.8913 13.438-11.518 0.5967-4.3826-1.3665-9.1489-4.1137-12.615-2.7899-3.5202-7.1413-5.9849-11.518-6.9934-3.847-0.8863-11.793 1.0971-11.793 1.0971l-4.9364 0.274c-0.64638-15.449 1.4851-30.898 2.468-46.347z" stroke="#000" stroke-width="1.097px"/>
    <path id="path23413-2-8" d="m627.72 1085.2-0.54848 20.02c-16.088 3.9474-32.41 5.0766-49.227 0.2741l-0.13723-20.02c15.911 1.7392 33.297 1.1567 49.913-0.2744z" fill="#ea0d0d" stroke="#000" stroke-width="1.097px"/>
    <path id="path72-7-9" transform="matrix(4.1461 0 0 4.1461 114.51 46.946)" d="m117.3 137.55-5.0356 2.1227c-0.60166 3.306-1.1643 5.7076-1.5564 8.1558-0.48721 3.0416-0.78735 5.851-1.4649 6.986-1.15 1.9266-1.2902-1.835-3.1562-14.088l-8.8806 2.3079c0.33715-0.65773 1.2381-0.83696 0.85379-1.674 1.7147-3.5354 6.3395-6.4361 7.7333-5.4092l5.7719-0.50833c3.2301-0.36602 4.9156 2.0424 5.7347 2.1074z" fill-opacity=".99763" filter="url(#filter83355-6-4-1)" opacity=".21474"/>
    <path id="path15876-7" d="m521.91 694.58c1.1648 34.167-2.2676 78.283-5.3356 121.61-0.0601 3.007 0.33169 3.7127 1.4852 5.3538 5.4172 7.6657 14.663 11.194 15.504 16.834 0.72581 4.866-13.49 6.1879-18.34 12.846-1.1159 1.3367-1.1411 2.8109-1.2292 4.3481-3.7813 66.56-5.0418 55.687 20.725 58.299-16.753 3.6738-33.424 7.1307-43.763-6.2995 22.504-77.936 21.197-142.31 30.953-212.99z" opacity=".22756"/>
    <path id="path15876-5-0" d="m613.82 691.79c-0.98511 28.896 1.318 64.909 3.9081 101.54 0.22928 3.2446-0.22264 6.494-2.3837 4.6845 4.259 10.227 3.5678 11.945 3.8113 15.383 0.0601 3.007-0.33169 3.7127-1.4852 5.3538-5.4172 7.6657-17.042 11.343-15.504 16.834 1.2935-1.0652 31.712 22.388 36.3 72.503 0.54048 5.9034-6.4587-27.06-11.716-63.743-4.8432-33.792-7.403-83.035-12.93-152.56z" opacity=".22756"/>
   </g>
  </g>
 </g>
</svg>
