<?xml version="1.0" encoding="UTF-8"?>
<svg width="1200mm" height="1200mm" version="1.1" viewBox="0 0 1200 1200" xmlns="http://www.w3.org/2000/svg" xmlns:xlink="http://www.w3.org/1999/xlink">
 <g>
  <path d="m385.44 424.11c-6.5891-0.0513-7.1001 6.1032-6.6118 13.319 0.17374 2.5674 1.1508 5.8691 2.3515 9.0854-7.391-6.0666-16.914-9.698-20.058-5.651-5.8994 5.9742-0.97024 10.378 5.6616 14.57 0.0695 0.0439 0.14142 0.0875 0.21311 0.13106-6.943 1.0903-12.589 3.8944-12.492 7.8166-0.78734 8.3591 5.8166 8.6498 13.604 7.6989 2.0941-0.25569 4.6521-1.0776 7.24-2.1213-6.812 7.1212-11.351 16.934-7.3545 20.399 5.6475 6.2129 10.311 1.528 14.854-4.8683 0.1801-0.25352 0.35755-0.52414 0.53291-0.80735 0.71397 6.9934 3.2101 12.785 7.1324 12.899 8.3045 1.2368 8.9509-5.3418 8.4212-13.17-0.22145-3.2725-1.7473-7.7371-3.379-11.698 7.5252 7.8086 19.797 13.475 23.451 8.7715 5.8994-5.9742 0.97025-10.378-5.6616-14.57-0.38076-0.24068-0.79479-0.47464-1.2356-0.70207 6.8492-1.1129 12.385-3.8993 12.289-7.783 0.78733-8.3591-5.8166-8.6498-13.604-7.699-2.0083 0.24523-4.4436 1.0121-6.9224 1.995 7.0201-7.2894 11.375-16.974 7.3618-20.433-5.6475-6.2129-10.311-1.5283-14.854 4.868-0.64214 0.90399-1.2544 2.0107-1.8326 3.2345-0.37115-7.9518-2.963-15.01-7.2971-15.136-0.64879-0.0966-1.2507-0.14547-1.8091-0.14982zm4.7739 34.511c0.0114 7e-3 0.0226 0.0132 0.0342 0.0196-0.0302 0.0402-0.0587 0.081-0.0838 0.12293 0.0165-0.0475 0.0329-0.0953 0.0496-0.14254zm-0.23888 0.68526c-0.0949 0.62352 0.13966 1.3586 0.41194 2.1065-0.0855 0.21076-0.16501 0.43156-0.24278 0.65474-0.28407-8e-3 -0.58847 0.0341-0.90343 0.10277-0.13552-0.0893-0.2814-0.173-0.43546-0.25203 0.10131-0.21911 0.14389-0.45811 0.14365-0.71159 0.47529-0.42047 0.76151-1.1431 1.0261-1.9004z" fill="#fff" stroke="#000" stroke-width="1.0838"/>
  <g>
   <g stroke-width=".54192">
    <path d="m385.44 423.49c-0.34724-3e-3 -0.68022 0.0103-0.9989 0.0406-0.86402 0.082-1.6279 0.28128-2.3 0.59257-1.3442 0.62257-2.286 1.6931-2.8937 3.0166-1.2153 2.647-1.2128 6.3079-0.94627 10.247 0.15417 2.278 0.89772 5.0379 1.8634 7.8062l1.5724 1.1386c-1.2055-3.2267-2.1858-6.5324-2.354-9.0179-0.26316-3.8889-0.20267-7.4316 0.84881-9.7217 0.52574-1.145 1.2694-1.9763 2.3655-2.484 0.54805-0.25386 1.1931-0.42688 1.9519-0.49849v-2.8e-4c0.75879-0.0716 1.6314-0.0424 2.6344 0.10698l0.0317 6e-3 0.0319 9.2e-4c1.7543 0.0513 3.2462 1.4223 4.4168 3.8019 1.1707 2.3796 1.9527 5.6967 2.2563 9.2983 0.60153 7.1364-0.71083 15.384-4.0886 19.832-0.5492 0.1667-1.0924 0.34767-1.5542 0.43799l-0.53882 1.1412c0.15825-5e-5 0.31572-0.0111 0.46936-0.0319 0.72615-0.0982 1.4479-0.36081 2.116-0.55869l0.16607-0.0487 0.10698-0.13666c3.7643-4.8212 5.0269-13.326 4.4031-20.726-0.31187-3.7-1.1023-7.1222-2.3636-9.6858-1.2581-2.5574-3.0521-4.3287-5.3418-4.404-0.65752-0.0958-1.276-0.1467-1.8547-0.15177z" color="#000000" style="-inkscape-stroke:none"/>
    <path d="m365.39 438.54c-1.9472-0.01-3.6072 0.55557-4.6655 1.9051-1.5035 1.5316-2.3671 3.006-2.6556 4.4476-0.29067 1.4525 0.0174 2.8447 0.72727 4.1164 1.3724 2.4588 4.183 4.5575 7.3836 6.6003 0.48076-0.0246 0.88842-0.26058 1.6004-0.32089-0.34866-0.18499-0.38712-0.19166-0.69137-0.38397-3.2947-2.0826-6.1182-4.2233-7.3464-6.4236-0.6141-1.1002-0.8478-2.1909-0.61077-3.3754 0.23704-1.1845 0.96605-2.4902 2.391-3.9332l0.0232-0.0221 0.019-0.0255c0.80753-1.0395 2.1275-1.5217 3.8388-1.5041 0.57045 6e-3 1.1847 0.0672 1.8376 0.18202 2.6119 0.45927 5.7512 1.785 8.8379 3.6655 6.1159 3.7259 12 9.6527 13.597 15.004-0.15141 0.43276-0.29356 0.8672-0.44638 1.2423 0.46766 0.11723 0.85038 0.21432 1.0639 0.27136 0.17649-0.44469 0.32003-0.90232 0.47159-1.3263l0.0582-0.16411-0.0476-0.16719c-1.6705-5.8842-7.7913-11.922-14.133-15.785-3.171-1.9318-6.3998-3.3132-9.2137-3.808-0.70347-0.1237-1.3878-0.19158-2.0395-0.19492zm24.582 22.15c-0.22052 0.26588-0.48666 0.5943-0.76088 0.93534 0.31912-0.24922 0.56906-0.58126 0.75696-0.92779 2e-3 -3e-3 3e-3 -5e-3 4e-3 -7e-3z" color="#000000" style="-inkscape-stroke:none"/>
    <path d="m373.84 454.44c-0.17951-2e-3 -0.35896-2e-3 -0.53851 0-1.9153 0.0137-3.83 0.15512-5.6689 0.41054-3.6778 0.51087-7.052 1.4846-9.5439 2.8822-2.4854 1.394-4.1566 3.2804-4.1088 5.5703-0.19415 2.1353 0.0693 3.823 0.7578 5.1209 0.69412 1.3086 1.8135 2.1922 3.1678 2.7276 2.7086 1.0709 6.3638 0.8711 10.283 0.39262 2.0184-0.24645 4.394-0.98144 6.8056-1.9256l1.2692-1.6993c-2.9413 1.2479-5.9083 2.2678-8.2058 2.5484-3.869 0.47241-7.4091 0.60277-9.7525-0.32372-1.1717-0.46326-2.0428-1.1609-2.6089-2.228-0.56603-1.0672-0.82754-2.5398-0.63738-4.5588l4e-3 -0.0317-2e-3 -0.0319c-0.0434-1.7545 1.2455-3.3184 3.5585-4.6157 2.313-1.2972 5.5827-2.2566 9.1627-2.7539 1.7899-0.24862 3.6581-0.38067 5.525-0.38758 5.5313-0.0204 11.042 1.0586 14.498 3.4008 0.59305 3.3279 3.487 1.1012 0.76087-0.80764-3.6452-2.5422-9.1609-3.6604-14.726-3.6901z" color="#000000" style="-inkscape-stroke:none"/>
    <path d="m387.29 460.59-0.16944 0.0381c-5.9657 1.3509-12.325 7.1375-16.525 13.262-2.0999 3.0622-3.6524 6.2124-4.2981 8.9955-0.64391 2.7753-0.37505 5.2802 1.3484 6.7877 1.4476 1.5824 2.8729 2.525 4.2961 2.8906 1.4348 0.36855 2.8411 0.13643 4.1491-0.5038 2.6161-1.2804 4.931-4.1174 7.2172-7.336 0.087-0.12249 0.17307-0.24929 0.25877-0.37807l-0.38002-1.4425c-0.25022 0.43033-0.50469 0.82997-0.76256 1.193-2.2572 3.1777-4.5464 5.8821-6.8098 6.9899-1.1317 0.5539-2.2328 0.72817-3.4028 0.42762-1.17-0.30054-2.4347-1.0987-3.7988-2.5994l-0.0221-0.0243-0.0243-0.0213c-1.3259-1.1498-1.6134-3.1556-1.014-5.7389 0.59938-2.5833 2.0933-5.6465 4.1374-8.6273 4.0499-5.9059 10.286-11.461 15.715-12.768h2.7e-4c0.49137 0.20224 0.98627 0.39197 1.3865 0.59537 0.028-0.06 0.0479-0.0959 0.0565-0.10026 0.12118-0.0606 1.179-0.046 1.5439-0.0392-0.21315-0.25153-0.47573-0.46015-0.74968-0.62841-0.62439-0.38351-1.3494-0.63637-1.992-0.90594zm3.1071 1.8844 0.20388 1.4086c0.0289-0.13925 0.077-0.36881 0.077-0.36881l0.0137-0.0708-5e-3 -0.0708c-0.0223-0.33855-0.12987-0.63681-0.29041-0.8981z" color="#000000" style="-inkscape-stroke:none"/>
    <path d="m389.14 461.57c-0.57505 0.12401-1.1416 0.32139-1.6732 0.47886l-0.16607 0.0485-0.10697 0.13666c-3.7644 4.8212-5.0269 13.326-4.4031 20.726 0.31187 3.7 1.1035 7.122 2.3647 9.6856 1.2582 2.5574 3.0521 4.329 5.3418 4.4042 2.1211 0.30871 3.8196 0.13567 5.1525-0.48167 1.3441-0.62259 2.2871-1.6932 2.8948-3.0166 1.2153-2.647 1.2128-6.3076 0.94626-10.246-0.23499-3.4726-1.8367-8.0631-3.5145-12.098l0.30104 1.2442-2.307-3.1678c0.15457 0.34831 0.31027 0.70193 0.4674 1.0664 1.8415 4.2716 3.7315 9.4844 3.9713 13.028 0.26316 3.8889 0.20155 7.4316-0.84993 9.7217-0.52574 1.145-1.2683 1.9763-2.3644 2.484-1.0961 0.50767-2.5804 0.69051-4.5862 0.39177l-0.0317-6e-3 -0.0319-9.3e-4c-1.7543-0.0512-3.2473-1.4223-4.418-3.8019-1.1707-2.3796-1.9519-5.6967-2.2555-9.2983-0.60152-7.1364 0.71002-15.384 4.0878-19.832 0.41499-0.12595 0.82646-0.25966 1.2025-0.35677l-0.18902-0.2596z" color="#000000" style="-inkscape-stroke:none"/>
    <path d="m391.56 459.25c-0.62733 0.20679-1.0716 0.71366-1.3655 1.2557-0.34929 0.64414-0.56359 1.3823-0.79813 2.0384l-0.0582 0.16299 0.0476 0.16745c1.6705 5.8842 7.7912 11.923 14.133 15.786 3.171 1.9318 6.3998 3.3124 9.2137 3.8072 2.8054 0.49327 5.2926 0.091 6.7051-1.7102 1.5035-1.5316 2.3672-3.006 2.6556-4.4476 0.29068-1.4525-0.0172-2.8447-0.72699-4.1164-1.4196-2.5433-4.3767-4.7015-7.7138-6.8109-0.4136-0.26145-0.86132-0.51397-1.3366-0.75808l-0.62647 0.62674-0.85216-0.12995c0.83246 0.37541 1.5885 0.76849 2.2361 1.1779 3.2948 2.0826 6.1185 4.2222 7.3466 6.4225 0.61411 1.1002 0.8467 2.1909 0.60966 3.3754-0.23704 1.1845-0.96605 2.4902-2.391 3.9332l-0.0224 0.0232-0.0199 0.0254c-1.0767 1.386-3.0634 1.7813-5.6753 1.3221-2.6119-0.45925-5.7512-1.7862-8.8379-3.6666-6.1159-3.7259-12-9.6527-13.598-15.004 0.21973-0.62799 0.41953-1.2621 0.66146-1.7082 0.23017-0.42449 0.44895-0.65124 0.76397-0.73792z" color="#000000" style="-inkscape-stroke:none"/>
    <path d="m415.68 448.73c-1.5565 0.0198-3.221 0.176-4.9355 0.38534-1.5944 0.19468-3.4123 0.69513-5.2939 1.361l-1.9135 1.9032c2.651-1.0806 5.2677-1.9358 7.3396-2.1888 1.9345-0.23622 3.786-0.38641 5.4477-0.36211h2.7e-4c1.6617 0.0243 3.1328 0.2237 4.3045 0.68695 1.1717 0.46325 2.0428 1.1598 2.6089 2.2269s0.82755 2.5398 0.63737 4.5588l-4e-3 0.0317 9.3e-4 0.0328c0.0434 1.7545-1.2455 3.3176-3.5585 4.6148-2.313 1.2972-5.5827 2.2578-9.1627 2.7551-7.0934 0.98531-15.4 0.11961-20.023-3.0133-0.2251-0.61933-0.46925-1.2301-0.56625-1.7262l-1.021 0.40243c0.15091 0.6452 0.41478 1.277 0.62506 1.8679l0.0582 0.1641 0.14281 0.0983c5.0171 3.499 13.578 4.3019 20.934 3.2801 3.6778-0.51086 7.052-1.4858 9.5439-2.8833 2.4855-1.394 4.1566-3.2804 4.1088-5.5704 0.19415-2.1352-0.0705-3.8229-0.75893-5.1209-0.6941-1.3086-1.8124-2.1922-3.1667-2.7276-1.3543-0.53546-2.9457-0.75285-4.6879-0.77684-0.21778-3e-3 -0.43797-3e-3 -0.66035 0z" color="#000000" style="-inkscape-stroke:none"/>
   </g>
   <path d="m411.6 430.9-0.70808 0.82029c1.2834 1.1064 1.6226 2.9766 1.1378 5.4033-0.48476 2.4267-1.8081 5.3236-3.7003 8.2092-3.7843 5.7711-9.8452 11.498-15.76 13.719-0.50465 0.18956-0.83241 0.21622-1.0235 0.19157-0.19109-0.0247-0.26314-0.0791-0.34293-0.16405-0.0797-0.085-0.14757-0.21208-0.22651-0.36622-0.0395-0.0771-0.0781-0.16017-0.16088-0.26672-0.0828-0.10655-0.26969-0.27715-0.53134-0.2826l-0.0233 1.0838c-0.1742-4e-3 -0.28801-0.12034-0.30059-0.13654-0.0126-0.0162 0.0165 0.0274 0.0519 0.0963 0.0707 0.13791 0.18255 0.38127 0.40114 0.6139 0.2186 0.23262 0.56357 0.44196 0.99387 0.49746s0.9293-0.0213 1.5432-0.2519c6.2556-2.3498 12.392-8.2023 16.285-14.14 1.9466-2.9686 3.3309-5.9582 3.8569-8.5913s0.17795-4.9963-1.4924-6.4363z" color="#000000" stroke-width=".54192" style="-inkscape-stroke:none"/>
  </g>
  <g fill-rule="evenodd">
   <circle cx="388.9" cy="461.13" r="3.8547" fill="#e9e7e7" style="paint-order:fill markers stroke"/>
   <ellipse cx="388.96" cy="461.52" rx="2.8438" ry="2.9186" fill="#fff000" style="paint-order:fill markers stroke"/>
   <ellipse cx="388.94" cy="461.6" rx="1.883" ry="1.8498" fill="#fff" style="paint-order:fill markers stroke"/>
   <path transform="matrix(.086303 0 0 .086303 263.16 309.85)" d="m1482.5 1778.7c-2.1718 2.601-12.847-4.5994-15.849-3.0275s-3.1649 14.448-6.5398 14.751c-3.375 0.3035-5.8323-12.337-9.0665-13.348-3.2341-1.0112-12.454 7.9781-15.055 5.8063s4.5994-12.847 3.0275-15.849-14.448-3.1649-14.751-6.5398c-0.3035-3.375 12.337-5.8323 13.348-9.0665 1.0112-3.2341-7.9782-12.454-5.8063-15.055 2.1718-2.601 12.847 4.5994 15.849 3.0275s3.1649-14.448 6.5398-14.751 5.8323 12.337 9.0664 13.348c3.2342 1.0112 12.454-7.9782 15.055-5.8063 2.601 2.1718-4.5994 12.847-3.0275 15.849s14.448 3.1649 14.751 6.5398-12.337 5.8323-13.348 9.0664c-1.0112 3.2342 7.9782 12.454 5.8063 15.055z" fill="#fff" style="paint-order:fill markers stroke"/>
  </g>
 </g>
</svg>
