<?xml version="1.0" encoding="UTF-8"?>
<svg id="svg5" width="1200mm" height="1200mm" version="1.1" viewBox="0 0 1200 1200" xmlns="http://www.w3.org/2000/svg" xmlns:xlink="http://www.w3.org/1999/xlink">
 <g id="layer60" transform="translate(19.4 11.241)">
  <g id="layer214">
   <g id="layer206" transform="translate(-19.4 -11.241)">
    <g id="g79524" transform="matrix(1.8578 0 0 1.8578 -500.73 -693.61)">
     <path id="path30371" d="m582.03 810.77s-14.205 28.68-10.663 43.024c2.5846 10.466 8.8043 19.053 20.532 18.558 9.1776-0.38775 16.703-5.2586 17.923-13.581 0.92695-6.3262 1.381-14.946-5.1045-17.313-3.206-1.1702-7.8046-0.57128-11.797 3.3176-3.8292 3.7297-3.6412-10.435-1.7015-15.862 4.0906-11.444-2.609-17.832-2.609-17.832z" fill="#2c2c2c" stroke="#000" stroke-width=".98368"/>
     <path id="path41928" d="m609.82 858.77c0.92695-6.3262 1.381-14.946-5.1045-17.313-17.06 2.7002-1.4737 28.396 5.1045 17.313z" fill="#ffa000" stroke="#000" stroke-dasharray="1.06, 1.06" stroke-width=".265"/>
     <path id="path43407" d="m582.03 810.77s-14.205 28.68-10.663 43.024c2.5846 10.466 8.8043 19.053 20.532 18.558 9.1776-0.38775 16.703-5.2586 17.923-13.581 0.92695-6.3262-11.83 6.902-18.315 4.5349-3.206-1.1702-10.723-10.496-9.7647-16.752 1.6984-11.093 5.1235-14.5 7.0632-19.927 4.0906-11.444-0.19551-15.545-0.19551-15.545z" opacity=".30691"/>
     <path id="path28800" d="m566.41 768.7s-11.199 25.853-8.9317 38.993c1.0998 6.3735 3.988 15.692 10.42 16.368 4.6964 0.49308 9.9242-10.109 9.9242-10.109l15.382 0.48139s5.6341 11.964 10.917 11.554c6.4059-0.49742 9.9216-9.5386 10.917-15.886 2.2307-14.233-12.405-41.4-12.405-41.4z" fill="#2c2c2c" stroke="#000" stroke-width="1.0278"/>
     <path id="path28800-9" d="m564.89 773.83c-1.1703 3.0965-2.6436 7.2668-3.9445 11.767 24.216 7.5772 13.437-14.148 3.9445-11.767z" fill="#ffa000" stroke="#000" stroke-dasharray="1.06, 1.06" stroke-width=".265"/>
     <path id="path43409" d="m566.41 768.7s-11.199 25.853-8.9317 38.993c1.0998 6.3735 3.988 15.692 10.42 16.368 4.6964 0.49308 9.9242-10.109 9.9242-10.109l15.382 0.48139s6.6737 14.727 10.917 11.554c-10.917-11.554-0.96016-14.79-4.1844-18.966-1.7011-2.2037-9.4326 1.8706-12.382 1.5666-5.461-0.5628-6.7108-3.7971-8.8464-2.6783-9.173 4.8055-18.201-0.63768-2.1149-11.072-6.7782 3.9355-11.549-7.8878-9.241-12.313 6.0383-11.58 35.28-13.824 35.28-13.824z" opacity=".30691"/>
     <path id="path32117" d="m566.66 769.41-0.97917 2.1759c12.635 3.2803 24.479 3.8842 37.836-0.34885l-1.3055-2.5023c-12.268 4.4837-23.574 4.1616-35.552 0.67522z" fill="#42a05d" stroke="#000" stroke-width=".22661px"/>
     <path id="path52302" d="m566.6 768.4-1.0427 3.2556c8.4368 2.1904 16.55 2.706 24.986 1.5465 4.1978-0.57695 8.4757-1.5686 12.914-2.975l-1.3055-2.5023c-12.268 4.4837-23.574 4.1616-35.552 0.67522z" opacity=".31504"/>
     <path id="path18810" d="m560.77 739.44c-4.3623-4.0053-3.4481-10.169-2.4454-16.369 6.695 1.8734 13.89 4.1249 15.878 10.458 6.8024-1.4681 10.842-1.2847 17.147-0.26458 1.4915-5.5841 7.9924-7.8196 14.243-10.396 0.43896 5.1355 2.0151 11.577-0.43034 16.491 1.3146 1.9458 1.8154 3.6535 2.6752 7.0876 11.338 7.5468 7.4254 16.112 2.0807 19.222-12.956 7.5388-35.128 7.6176-50.8 1.0583-6.2644-2.6218-13.025-11.461 0-20.373-0.19935-2.3078 0.46815-4.804 1.6517-6.914z" fill="#2c2c2c" stroke="#000" stroke-width="1.2"/>
     <path id="path18810-0" d="m581 733.12c3.4324-0.22562 6.8336 0.17851 10.807 0.82138 1.0496-5.521 7.0333-7.6325 13.285-10.209 0.43896 5.1355 1.7812 10.736-0.6642 15.649 1.2678 1.7821 2.0259 4.0511 2.8856 7.4851 6.3306 4.2138 7.7664 8.2073 6.9934 11.929-15.538 5.7409-34.823-9.9495-33.306-25.676z" fill="#ffa000"/>
     <ellipse id="path20793" cx="573.48" cy="751.23" rx="5.7169" ry="6.0906" fill-rule="evenodd" style="paint-order:markers stroke fill"/>
     <ellipse id="path20793-7" cx="592.32" cy="753.07" rx="3.3857" ry="3.607" fill-rule="evenodd" style="paint-order:markers stroke fill"/>
     <ellipse id="path21409" cx="575.94" cy="749.16" rx="2.2019" ry="2.3418" fill="#fff" fill-rule="evenodd" style="paint-order:markers stroke fill"/>
     <ellipse id="path21409-1" cx="593.48" cy="751.49" rx="1.2802" ry="1.3615" fill="#fff" fill-rule="evenodd" style="paint-order:markers stroke fill"/>
     <path id="path28209" d="m580.95 732.7c-1.0321 19.279 20.69 31.542 33.404 25.995" fill="none" stroke="#000" stroke-dasharray="1.06, 1.06" stroke-width=".265"/>
     <path id="path21590" d="m580.06 764.2c1.6892 0.60474 3.7665 0.18632 4.9111-1.7306 0.90444 1.88 2.9022 2.3099 4.8643 1.8709" fill="none" stroke="#000"/>
     <ellipse id="path22317" transform="rotate(-9.7166)" cx="461.62" cy="849.19" rx="4.9609" ry="2.1167" fill="#ffb4b4" fill-rule="evenodd" style="paint-order:markers stroke fill"/>
     <ellipse id="path22317-7" transform="rotate(4.9753)" cx="631.87" cy="707.34" rx="4.9609" ry="2.1167" fill="#ffb4b4" fill-rule="evenodd" style="paint-order:markers stroke fill"/>
     <path id="path23007" d="m564.45 737.76c-2.2566-2.7274-2.6418-6.1035-2.2318-9.4499 5.3715 0.99675 6.9919 3.7599 8.4303 6.5765-2.5441 0.64082-4.5441 1.5264-6.1986 2.8734z" opacity=".7622" stroke="#000" stroke-width=".26458px"/>
     <path id="path23007-8" d="m601.55 737.48c1.7421-2.4 1.379-5.8696 1.2028-9.2161-4.9974 1.2306-6.758 3.6196-8.1965 6.4362 2.5441 0.64082 5.0586 1.6667 6.9937 2.7799z" opacity=".7622" stroke="#000" stroke-width=".26458px"/>
     <path id="path24933" d="m610.64 754.4c3.7897-1.1176 7.8794-1.5153 11.278-3.5719" fill="#fff" stroke="#fff"/>
     <path id="path24935" d="m610.84 757.77c3.7479-0.0236 7.035-0.33527 11.41 0.0331" fill="#fff" stroke="#fff"/>
     <path id="path24937" d="m610.18 760.94c4.0518 0.41037 7.509 0.72097 11.774 2.6128" fill="#fff" stroke="#fff"/>
     <path id="path25921" d="m573.38 742.52c1.5903 0.74835 5.7062 3.2741 5.7062 3.2741" fill="none" stroke="#000" stroke-linecap="round" stroke-width="2"/>
     <path id="path25921-7" d="m593.29 746.99c-1.1763 0.55355-3.824 2.0911-3.824 2.0911" fill="none" stroke="#000" stroke-linecap="round" stroke-width="1.4794"/>
     <path id="path28301" d="m600.47 756.66 0.0234 0.45604" fill="none" stroke="#000" stroke-width=".26458px"/>
     <path id="path28303" d="m600.97 756.67-0.0467 0.46774" fill="none" stroke="#000" stroke-width=".26458px"/>
     <path id="path28305" d="m593.23 759.31 0.42095 0.18709" fill="none" stroke="#000" stroke-width=".26458px"/>
     <path id="path28307" d="m593.16 759.98 0.46771 0.0116" fill="none" stroke="#000" stroke-width=".26458px"/>
     <path id="path28309" d="m600.06 760.67 0.16369 0.46773" fill="none" stroke="#000" stroke-width=".26458px"/>
     <path id="path28311" d="m600.36 760.55 0.21048 0.39756" fill="none" stroke="#000" stroke-width=".26458px"/>
     <path id="path28301-1" d="m568.33 757.1-0.0234 0.45604" fill="none" stroke="#000" stroke-width=".26458px"/>
     <path id="path28303-1" d="m567.83 757.11 0.0467 0.46774" fill="none" stroke="#000" stroke-width=".26458px"/>
     <path id="path28305-0" d="m573.2 759.23-0.42095 0.18709" fill="none" stroke="#000" stroke-width=".26458px"/>
     <path id="path28307-2" d="m573.27 759.9-0.46771 0.0116" fill="none" stroke="#000" stroke-width=".26458px"/>
     <path id="path28309-5" d="m565.2 760.7-0.16369 0.46773" fill="none" stroke="#000" stroke-width=".26458px"/>
     <path id="path28311-5" d="m564.89 760.59-0.21048 0.39756" fill="none" stroke="#000" stroke-width=".26458px"/>
     <path id="path31327" d="m589.22 778.4s1.1369 17.259 7.8707 17.396c5.8689 0.11938 7.5589-14.869 7.5589-14.869" fill="none" stroke="#000" stroke-linecap="round" stroke-width=".98644"/>
     <path id="path31327-2" d="m581.54 778.43s-1.1371 17.178-7.8719 17.315c-5.8697 0.11884-7.56-14.799-7.56-14.799" fill="none" stroke="#000" stroke-linecap="round" stroke-width=".98419"/>
     <ellipse id="path32635" cx="585.45" cy="775.55" rx="2.9919" ry="2.8015" fill="#ffbd00" fill-rule="evenodd" stroke="#000" stroke-linecap="round" stroke-width="1.0278" style="paint-order:markers stroke fill"/>
     <path id="path32635-2" d="m588.44 775.55c0 1.5472-1.3395 2.8015-2.9919 2.8015-1.6524 0-2.9919-1.2543-2.9919-2.8015 0-0.84076 0.39553-1.595 1.0219-2.1085-0.76049 1.8518 1.6928 5.9167 4.9619 2.1085z" fill-rule="evenodd" opacity=".26829" stroke-linecap="round" stroke-width="1.0278" style="paint-order:markers stroke fill"/>
     <path id="path32912" d="m584.92 778.39 0.28849-1.6828-0.98377-0.5723c0.81374-0.4742 1.6828-0.38291 2.6782-0.0812l-1.0309 0.56694 0.36541 1.7982c-0.42096 0.0877-0.8469 0.0788-1.3174-0.0289z" fill="#715b00" stroke="#000" stroke-linecap="round" stroke-linejoin="round" stroke-width=".22697"/>
     <path id="path33520" d="m584.87 773.26s1.358-0.17362 1.9311 0.12239c0.43527 0.22484 0.92475 1.1424 0.92475 1.1424s-0.88321-0.50105-1.3463-0.70716c-0.49006-0.21811-1.5095-0.55758-1.5095-0.55758z" fill="#fff" opacity=".77846"/>
     <path id="path39736" d="m593.2 814.44s5.6341 11.964 10.917 11.554c6.4059-0.49742 9.9216-9.5386 10.917-15.886-10.928-24.981-32.501 1.2638-21.833 4.3326z" fill="#ffa000" stroke="#000" stroke-dasharray="1.06, 1.06" stroke-width=".265"/>
     <path id="path43411" d="m560.77 739.44c-4.3623-4.0053-3.4481-10.169-2.4454-16.369 3.1383 5.176 7.4117 9.0788 15.878 10.458-26.188 15.001-7.4874 48.231 35.716 32.14-12.956 7.5388-35.128 7.6176-50.8 1.0583-6.2644-2.6218-13.025-11.461 0-20.373-0.19935-2.3078 0.46815-4.804 1.6517-6.914z" opacity=".30691"/>
     <path id="path53551" d="m588.89 778.57s-1.4702 14.32 3.3662 18.006c1.9118 1.4568 6.7323-0.82565 6.7323-0.82565-9.1454 1.046-7.2917-10.68-10.098-17.18z" opacity=".307" stroke="#000" stroke-width=".26458px"/>
     <path id="path24933-0" d="m555.84 753.49c-3.7897-1.1176-7.8794-1.5153-11.278-3.5719" fill="#fff" stroke="#fff"/>
     <path id="path24935-5" d="m555.64 756.86c-3.7479-0.0236-7.035-0.33527-11.41 0.0331" fill="#fff" stroke="#fff"/>
     <path id="path24937-9" d="m556.3 760.04c-4.0518 0.41037-7.509 0.72097-11.774 2.6128" fill="#fff" stroke="#fff"/>
    </g>
   </g>
  </g>
 </g>
</svg>
