<?xml version="1.0" encoding="UTF-8"?>
<svg id="svg5" width="1200mm" height="1200mm" version="1.1" viewBox="0 0 1200 1200" xmlns="http://www.w3.org/2000/svg" xmlns:xlink="http://www.w3.org/1999/xlink">
 <defs id="defs77">
  <linearGradient id="linearGradient61841" x1="61.108" x2="147.72" y1="121.02" y2="121.02" gradientTransform="matrix(4.1461 0 0 4.1461 114.51 46.946)" gradientUnits="userSpaceOnUse">
   <stop id="stop5-2" offset="0"/>
   <stop id="stop7" stop-opacity="0" offset=".53219"/>
   <stop id="stop9" stop-opacity=".40486" offset="1"/>
  </linearGradient>
 </defs>
 <g id="layer60" transform="translate(19.4 11.241)">
  <g id="layer62">
   <g id="layer92">
    <path id="path61835-4" d="m372.49 473.47c-2.1525 0.67029-1.9032 18.133-4.5189 17.895-2.2771 16.791 29.895 139.35 210.69 133.22 77.135-4.6004 110.07-33.115 148.29-103.86-1.5349 1.1273-4.4344-23.245-4.2167-20.917l-1.516 0.59094c-7.0193 47.686-55.036 84.008-125.79 39.223-5.6498-3.5761-7.7349-5.5154-13.47-2.8003-4.8653 3.15-7.1851 1.4528-9.3394 0.25499-4.3116-2.3975-9.3506-2.0574-13.479-0.0473-114.68 67.247-176.83-22.056-183.44-64.236-0.0361-0.23052-2.1148-0.4173-3.2036 0.68601z" fill="#ff8d8d" stroke="#000" stroke-width="2.1767"/>
    <path id="path61837-6" d="m372.49 473.47c-2.1525 0.67025-1.9032 18.133-4.5189 17.895-2.2771 16.791 29.895 139.35 210.69 133.22 77.135-4.6005 110.07-33.115 148.29-103.86-1.5349 1.1273-4.4344-23.245-4.2167-20.917l-1.516 0.59094c-7.0193 47.686-55.036 84.008-125.79 39.223-5.6498-3.5761-7.7348-5.5155-13.47-2.8003-4.8653 3.15-7.1851 1.4528-9.3394 0.25498-4.3116-2.3975-9.3506-2.0574-13.479-0.0473-8.7839 4.654-17.225 8.5238-25.329 11.681-101.11 39.39-149.82-32.163-158.11-75.917-0.0434-0.22928-2.1148-0.4173-3.2036 0.68601z" fill="url(#linearGradient61841)" opacity=".15309"/>
   </g>
  </g>
 </g>
</svg>
