<?xml version="1.0" encoding="UTF-8"?>
<svg id="svg5" width="1200mm" height="1200mm" version="1.1" viewBox="0 0 1200 1200" xmlns="http://www.w3.org/2000/svg" xmlns:xlink="http://www.w3.org/1999/xlink">
 <defs id="defs77">
  <linearGradient id="linearGradient122470" x1="129.82" x2="127.93" y1="209.27" y2="204.06" gradientTransform="matrix(4.1461 0 0 4.1461 114.51 46.946)" gradientUnits="userSpaceOnUse">
   <stop id="stop122464" stop-opacity=".47115" offset="0"/>
   <stop id="stop122466" stop-opacity="0" offset="1"/>
  </linearGradient>
 </defs>
 <g id="layer60" transform="translate(19.4 11.241)">
  <g id="layer214">
   <g id="layer162">
    <path id="path105931" d="m664.08 1170.2-3.0682-263.09c-1.476-9.5348-7.5067-10.702-10.334-2.0551l6.2404 265.15c3.0083 3.3083 5.795 2.1576 7.1622 0z" fill="#a57038" stroke="#000" stroke-width="1.9279"/>
    <path id="path109657" d="m646.51 897.04c-2.0853 1.1237-2.96 3.4408-3.3038 6.5133-0.35117 3.1372-0.69273 10.484-0.69273 10.484 1.8081 4.7968 5.3279 1.661 6.117 0.96574 0 0-0.14138-4.3568 0.33707-6.3562 0.051-0.32132 0.21975-0.76313 0.33501-1.0143-2.6284-2.9019-4.2406-6.5405-2.7925-10.593z" fill="#a57038" stroke="#000" stroke-width=".93033px"/>
    <path id="path109657-4" d="m646.51 897.04c-2.0853 1.1237-2.96 3.4408-3.3038 6.5133-0.35117 3.1372-0.69273 10.484-0.69273 10.484 1.8081 4.7968 5.3279 1.661 6.117 0.96574 0 0-0.14138-4.3568 0.33707-6.3562 0.051-0.32132 0.21975-0.76313 0.33501-1.0143-2.6284-2.9019-4.2406-6.5405-2.7925-10.593z" fill="url(#linearGradient122470)"/>
    <path id="path118996" d="m660.8 1169.7c0.21394-20.246-0.14718-40.812-1.097-61.705 0 0 2.3668 30.699 2.1939 46.073-0.0589 5.2232-1.097 15.632-1.097 15.632z" fill-opacity=".4739"/>
    <path id="path118998" d="m655.87 996.11 0.95986 79.943 0.41129-47.582z" fill-opacity=".45783"/>
    <path id="path118998-5" d="m657.47 1093.5 0.95986 79.943-0.27447-47.445z" fill-opacity=".45783"/>
    <path id="path119000" d="m653.68 899.95 0.77565 62.83c0.94975-21.015 0.46756-41.945-0.77565-62.83z" opacity=".13462"/>
    <path id="path119002" d="m659.71 1053.4-0.27406 47.17s-0.56672-17.278-0.49301-25.919c0.0605-7.0881 0.76707-21.251 0.76707-21.251z" fill-opacity=".28514"/>
    <path id="path119004" d="m656.51 960.18-0.58178 27.925s1.2556-15.877 1.0666-23.852c-0.029-1.3022-0.4848-4.0724-0.4848-4.0724z" fill-opacity=".44177"/>
    <path id="path119006" d="m644.61 909.51 1.0665-9.3082s-0.13683 3.5277-0.34993 5.2779c-0.1646 1.3545-0.71682 4.0303-0.71682 4.0303z"/>
    <path id="path119006-3" d="m657.66 915.94-1.0665-9.3082s0.13682 3.5277 0.34993 5.2779c0.1646 1.3545 0.71681 4.0303 0.71681 4.0303z" fill-opacity=".28916"/>
    <path id="path119006-3-7" d="m645.39 916.51 1.0306-9.3122s-0.65127 3.4697-0.83283 5.2235c-0.14097 1.3572-0.19777 4.0888-0.19777 4.0888z" fill-opacity=".28916"/>
    <path id="path119006-3-16" d="m658.31 1015.4 1.0665-9.3082s-0.13682 3.5276-0.34993 5.2779c-0.1646 1.3545-0.71681 4.0303-0.71681 4.0303z" fill-opacity=".56626"/>
    <path id="path118998-2" d="m658.21 920.46 0.95986 79.943 0.41129-47.582z" fill-opacity=".41767"/>
   </g>
  </g>
 </g>
</svg>
