<?xml version="1.0" encoding="UTF-8"?>
<svg id="svg5" width="1200mm" height="1200mm" version="1.1" viewBox="0 0 1200 1200" xmlns="http://www.w3.org/2000/svg" xmlns:xlink="http://www.w3.org/1999/xlink">
 <defs id="defs77">
  <filter id="filter34108" x="-.0047532" y="-.012579" width="1.0095" height="1.0252" color-interpolation-filters="sRGB">
   <feGaussianBlur id="feGaussianBlur2-274" stdDeviation="0.33636886"/>
  </filter>
  <filter id="filter37258" x="-.0093364" y="-.012551" width="1.0187" height="1.0251" color-interpolation-filters="sRGB">
   <feGaussianBlur id="feGaussianBlur5-3" stdDeviation="0.3074556"/>
  </filter>
 </defs>
 <g id="layer60" transform="translate(19.4 11.241)">
  <g id="layer214">
   <g id="layer71">
    <path id="path13-9" d="m401.61 239.35s29.105-71.939 69.662-117.15c8.6326-9.6222 42.058-38.414 49.036-41.83 33.853-16.573 41.929-17.12 64.704-18.854 22.774-1.7347 63.904 31.541 82.275 44.993 18.371 13.453 19.735 17.045 35.995 43.281 11.117 45.516 44.566 127.27 44.566 127.27s-104.87 49.21-168.05 44.4c-63.182-4.807-178.18-82.109-178.18-82.109z" fill="#ffdb13" stroke="#000" stroke-width="2.3425"/>
    <path id="path15-2" transform="matrix(4.1461 0 0 4.1461 114.51 46.946)" d="m69.246 46.405s7.0199-17.351 16.802-28.255c2.0821-2.3208 10.144-9.2651 11.827-10.089 14.553-5.3928-28.347 30.205-20.877 42.271 2.6814 10.978 71.282 6.6223 71.282 6.6223s-20.818 10.414-36.058 9.2544c-15.239-1.1594-42.976-19.804-42.976-19.804z" filter="url(#filter37258)" opacity=".29"/>
    <path id="path17-3" d="m433.75 255.63c86.131-7.1416 201.4-13.855 305.96 26.139l-112.27 33.424-99.415-7.2847z" stroke="#000" stroke-width="2.3425"/>
    <path id="path19-75" d="m355.33 348.19c113.98-40.566 326.7-17.062 412.22 38.137 1.9997 23.854 5.7133 45.565 5.142 71.988 0 0 144.63-28.905 158.55-132.84 3.5364-26.415 5.4023-56.951-24.854-72.847-30.256-15.896-66.715-2.7778-93.415 5.142-37.061 10.993-98.561 32.419-152.55 47.137-24.605 6.7075-50.984 9.286-76.275 5.999-47.129-6.1246-92.74-24.549-134.55-47.137-30.93-16.708-64.061-37.392-98.557-50.566-25.833-9.8648-53.153-20.934-80.264-20.966-30.867-0.0373-65.322 23.52-65.429 65.533-0.10489 42.012 25.619 84.779 50.064 113.28s78.062 52.56 78.062 52.56c3.3595-29.413 10.713-50.586 21.854-75.417z" fill="#ffdb13" stroke="#000" stroke-width="2.3425"/>
    <path id="path21-6" transform="matrix(4.1461 0 0 4.1461 114.51 46.946)" d="m58.084 72.657c27.492-9.7841 78.798-4.1152 99.425 9.1984 0.48232 5.7533 0.91628 11.782 1.2402 17.363 2.3071-0.85642 28.737-5.9089 32.87-24.207 0.85294-6.371-2.5016-10.827-9.799-14.661s-31.981 1.7918-38.42 3.702c-30.207 8.5643-58.299-3.011-69.963-9.7428-7.46-4.0298-13.91-8.3966-21.086-12.196-4.7948-2.5385-8.1201-7.0632-14.66-7.0711-7.4449-9e-3 -15.755 5.6728-15.781 15.806-0.0253 10.133 6.179 20.448 12.075 27.321 5.8955 6.8722 18.828 12.677 18.828 12.677 0.81029-7.0941 2.5838-12.201 5.271-18.19z" filter="url(#filter34108)" opacity=".29" style="mix-blend-mode:normal"/>
    <path id="path23-9" d="m511.31 103.51 14.998-5.5707s-3.4281 35.138-51.42 55.707" fill="#b59b0d" stroke="#000" stroke-linecap="round" stroke-linejoin="round" stroke-width="2.3425"/>
    <path id="path25-5" d="m672.32 122.7c7.4696 21.092 17.66 38.493 31.815 55.752" fill="none" stroke="#000" stroke-width="2.3425"/>
    <path id="path27-1" d="m206.62 276.62s1.8897-36.402 24.932-59.372c23.043-22.968 71.138-10.947 124.24 9.8809 53.099 20.828 81.466 47.991 159.28 76.155 77.818 28.161 124.63 12.724 138.42 10.982s92.586-26.728 132.79-38.178c40.201-11.45 86.703-28.099 113-17.648 26.294 10.451 33.33 41.813 33.33 41.813" fill="none" stroke="#000" stroke-width="2.3425"/>
   </g>
  </g>
 </g>
</svg>
