<?xml version="1.0" encoding="UTF-8"?>
<svg id="svg5" width="1200mm" height="1200mm" version="1.1" viewBox="0 0 1200 1200" xmlns="http://www.w3.org/2000/svg" xmlns:xlink="http://www.w3.org/1999/xlink">
 <g id="layer60" transform="translate(19.4 11.241)">
  <g id="layer32">
   <g id="layer152">
    <path id="path523823" d="m401.87 505.6c2.2361-2.2532 6.5635-1.6278 9.5126-0.45299 4.8612 1.9366 8.7075 13.52 13.136 16.307 9.4164 5.9251 15.258 1.4872 25.82 4.9828 8.6128 2.8504 12.951 10.566 21.97 11.551 10.228 1.1175 26.368 2.1069 38.89-1.7897 12.237-3.8078 20.876-12.557 29.284-7.0434 2.5158 1.6498 3.9846 5.8778 2.7179 8.6066-27.68 26.505-67.685 20.89-95.617 12.775-3.1854-0.92538-6.2139-1.8833-9.0491-2.8297-6.2784-2.0958-14.214-9.3449-15.6-5.6422-4.2373 11.85-12.868-4.1546-12.297-9.8324 0.57477-5.7201-4.8237-5.2101-9.2194-15.308-1.5078-3.4639-2.2082-8.643 0.45299-11.324z" fill="#cae9f6" opacity=".45521"/>
    <path id="path524067" d="m406.71 507.23c-1.375-0.64872-2.9092 0.36949-0.85352 1.8066 0 0 8.4583 4.0672 11.334 12.24 0.89852 2.5537 3.2406 4.2315 6.0293 5.3691 10.504 3.4935 16.683 1.1594 21.6 0.50782 0 0-5.8602 0.35292-12.059-0.35547-3.0992-0.3542-6.2758-0.97945-8.7871-2.0039s-4.2736-2.4112-4.8965-4.1816c-3.2101-9.1234-12.367-13.383-12.367-13.383z" color="#000000" fill="#fff" style="-inkscape-stroke:none"/>
    <path id="path524069" d="m504.46 540.16s20.019-3.6835 24.343-8.3279c4.3241-4.6444 12.812-2.082 11.051 0.64061-1.7617 2.7226-35.394 7.6873-35.394 7.6873z" fill="#fff"/>
    <path id="path523823-2" d="m704.24 528.22c-1.356-1.426-4.2758-1.3773-6.31-0.92239-3.3532 0.74989-6.6025 7.0052-9.7182 8.2643-6.6243 2.677-10.252-0.23248-17.496 0.99566-5.9066 1.0015-9.2541 5.0431-15.32 4.9656-6.8797-0.0879-17.69-0.66273-25.801-3.7359-7.9258-3.0032-13.162-8.5374-19.09-6.0215-1.7738 0.75283-3.003 3.0314-2.321 4.6574 16.867 16.872 43.85 16.514 62.939 13.903 2.1769-0.29782 4.2511-0.62496 6.196-0.95921 4.3067-0.74019 10.023-4.2669 10.727-2.084 2.1199 6.9719 8.8184-1.4377 8.7751-4.6759-0.0436-3.2624 3.5224-2.5964 7.0495-7.9762 1.2099-1.8454 1.9836-4.7136 0.36989-6.4107z" fill="#cae9f6" opacity=".45521"/>
    <path id="path524067-6" d="m700.92 528.8c0.95444-0.26896 1.9161 0.41219 0.46142 1.0775 0 0-5.8758 1.6977-8.2762 6.0998-0.75002 1.3754-2.4097 2.1563-4.3349 2.6015-7.2046 1.2311-11.182-0.51711-14.419-1.229 0 0 3.8829 0.60985 8.0541 0.64559 2.0856 0.0179 4.2388-0.11151 5.9725-0.51243 1.7337-0.40091 2.9899-1.0584 3.5099-2.012 2.6795-4.9139 9.0323-6.6709 9.0323-6.6709z" color="#000000" fill="#fff" stroke-width=".61596" style="-inkscape-stroke:none"/>
    <path id="path524069-7" d="m633.85 540.5s-13.117-3.4791-15.723-6.3985c-2.6051-2.9195-8.4115-2.0714-7.3994-0.41427 1.0121 1.6572 23.122 6.8128 23.122 6.8128z" fill="#fff"/>
    <path id="path526494" d="m557.81 575.75c9.662-12.238 31.552-13.289 40.999-0.0697" fill="none" stroke="#000" stroke-linecap="round" stroke-width="3.1718"/>
   </g>
  </g>
 </g>
</svg>
