<?xml version="1.0" encoding="UTF-8"?>
<svg id="svg5" width="1200mm" height="1200mm" version="1.1" viewBox="0 0 1200 1200" xmlns="http://www.w3.org/2000/svg" xmlns:xlink="http://www.w3.org/1999/xlink">
 <g id="layer60" transform="translate(19.4 11.241)">
  <g id="layer214">
   <g id="layer189" transform="translate(-19.4 -11.241)" stroke="#000">
    <path id="path285926" d="m720.93 298.26c-139.32 44.939-186.65 20.597-289.89 0.19518l-1.1348-99.13c137.15 28.033 213.73 14.357 291.47 1.4769z" fill="#fff" stroke-width="2"/>
    <path id="path286132" d="m802.73 183.24c20.083-17.38-5.2975-46.781-47.143-42.634-6.6843-25.136-28.343-35.531-48.419-22.986-0.60307-19.112-48.269-52.867-75.348-39.882-25.305-18.961-58.666-19.052-80.816-3.5819-17.117-15.308-66.162-34.867-79.984-15.442-18.455-5.1452-92.181-27.036-83.143 9.479l42.022 131.13c88.464 20.355 179.23 35.457 291.47 1.4769 25.117-9.4378 32.281 10.541 81.361-17.556z" fill="#fff" stroke-width="2"/>
    <path id="path287841" d="m631.82 77.739s25.288 7.8132 35.388 15.887c10.132 8.0997 20.293 18.517 23.363 31.12 7.0815 29.067-14.834 88.518-14.834 88.518l-17.783 2.8433c-7.7687-36.891-17.423-92.246-26.134-138.37z" opacity=".13008" stroke-width=".26458px"/>
    <path id="path287835" d="m471.02 58.715c97.324 4.6008 85.674 88.704 101.99 161.13l-66.099-5.1077-35.896-156.03" opacity=".087398" stroke-width=".26458px"/>
    <path id="path287725" d="m464.72 204.78-45.758-127.18 45.758 127.18" opacity=".23374" stroke-width=".265"/>
    <path id="path287837" d="m392.48 82.62c4.7725-9.5754-11.638-27.166 32.681-21.778 15.224-0.64628 28.132 1.0587 45.857-2.1267l35.896 156.03-77.017-15.42z" opacity=".091463" stroke-width=".26458px"/>
    <path id="path287727" d="m506.92 214.74-35.896-156.03" opacity=".23374" stroke-width=".26458px"/>
    <path id="path287729" d="m584.78 216.82-33.773-142.66" opacity=".23374" stroke-width=".26458px"/>
    <path id="path287731" d="m657.39 214.86-25.568-137.12" opacity=".23374" stroke-width=".26458px"/>
    <path id="path287733" d="m685.73 205.72 21.438-88.096" opacity=".23374" stroke-width=".26458px"/>
    <path id="path287737" d="m721.37 200.8c35.809-0.92853 47.6-0.29836 81.361-17.556" opacity=".095528" stroke-width=".26458px"/>
    <path id="path287829" d="m436.9 106.64c21.099 48.434 27.816 98.14 27.816 98.14l-45.758-127.18s13.346 18.484 17.942 29.035z" opacity=".23374" stroke-width=".26458px"/>
    <path id="path287831" d="m471.02 58.715s4.3321 0.52832 7.9431 9.9136c13.442 34.938 10.734 75.355 22.911 111.32 3.0826 8.4146 5.0423 34.79 5.0423 34.79" opacity=".23374" stroke-width=".26458px"/>
    <path id="path287833" d="m584.78 216.82-33.773-142.66s6.1356 9.2846 8.0412 14.46c15.06 40.901 25.732 128.2 25.732 128.2" opacity=".23374" stroke-width=".26458px"/>
    <path id="path287839" d="m551.01 74.157c92.807-10.038 80.653 64.828 100.12 142.25-20.349 5.4492-43.934 4.8371-65.765 3.5606" opacity=".10772" stroke-width=".26458px"/>
    <path id="path287843" d="m707.17 117.62s6.745-1.3617 7.4664 15.175-29.801 76.822-29.801 76.822" opacity=".13415" stroke-width=".26458px"/>
    <path id="path287845" d="m755.59 140.61c-17.707 19.023 2.0472 26.713-34.219 60.19l-19.415 4.6645z" opacity=".16463" stroke-width=".26458px"/>
    <path id="path287849" d="m720.48 260.28 0.88662-59.483-36.535 8.8211c20.941 13.184 19.037 42.292 35.649 50.662z" opacity=".14024" stroke-width=".26458px"/>
    <path id="path287851" d="m675.74 213.26c-50.179 15.615-209.84 12.071-215.47 58.671l-2.3489 32.268-26.884-5.7532-1.1348-99.13c74.658 14.166 144.92 34.079 245.84 13.944z" opacity=".091463" stroke-width=".26458px"/>
   </g>
  </g>
 </g>
</svg>
