<?xml version="1.0" encoding="UTF-8"?>
<svg id="svg5" width="1200mm" height="1200mm" version="1.1" viewBox="0 0 1200 1200" xmlns="http://www.w3.org/2000/svg" xmlns:xlink="http://www.w3.org/1999/xlink">
 <g id="layer60" transform="translate(19.4 11.241)">
  <g id="layer214">
   <g id="layer57" transform="translate(-19.4 -11.241)">
    <path id="path33965" d="m708.55 709.35c0.29156 7.0505-0.34421 14.565 0.91705 21.13 2.2732 4.2455 0.66448 10.255-0.0111 16.378-0.51977 10.116 1.7532 23.807 2.269 35.649 0.74998-11.662 3.6423-22.602 3.3075-34.987-1.1729-6.5229-0.99052-11.863 0.0431-17.133 0.28293-3.5668 0.94128-14.642 1.4119-21.963z" fill="#efb576" stroke="#000" stroke-width="2.5"/>
    <path id="path36649" d="m708.55 709.35-0.66146-8.7974 9.525-1.3229-0.92609 9.1943z" fill="#c7c7c7" stroke="#000" stroke-width="2.5"/>
    <path id="path36785" d="m717.42 699.23c10.504-17.01-1.0114-28.001-7.276-38.365-0.20597 19.687-11.583 21.799-2.249 39.688z" fill="#5c3000" stroke="#000" stroke-width="2.5"/>
    <path id="path36785-3" d="m720.8 679.76c-1.4611-7.1686-7.1611-13.108-10.661-18.897-0.11371 10.868-3.4916 15.912-5.1907 22.147 4.9158 1.1075 5.3858-3.6463 10.367-5.0093 5.6206-1.538 5.4846 1.7594 5.4846 1.7594z" fill="#a2282a" stroke="#000" stroke-width="2.5"/>
    <path id="path39538" d="m716.49 677.97-0.9961 0.0703c1.9201 3.8113 1.7323 7.5117 2.0857 11.24-0.1308-3.3633 0.38831-6.4591-1.1186-10.389z" color="#000000" style="-inkscape-stroke:none"/>
    <path id="path39540" d="m712.84 680.23-1 0.0449 0.28516 6.3613c0.14489-14.639 0.65242-0.30421 1-0.0449z" color="#000000" style="-inkscape-stroke:none"/>
    <path id="path39542" d="m713.78 691.72 0.39891 7.3185 0.99804 0.0391c-0.99804-0.0391-1.1712-4.8805-1.397-7.3576z" color="#000000" style="-inkscape-stroke:none"/>
    <path id="path39544" d="m707.97 687.69c0.31182 3.7531 1.2664 7.6545 2.382 11.593l-0.47539 0.86041 0.99414-0.10547c-1.0485-4.0344-2.2042-7.9617-2.9008-12.348z" color="#000000" style="-inkscape-stroke:none"/>
    <path id="path40530" d="m708.79 706.17 7.7642-0.93546" fill="none" stroke="#000" stroke-width=".26458px"/>
    <path id="path40532" d="m708.79 703.55 8.2319-0.93546" fill="none" stroke="#000" stroke-width=".26458px"/>
    <path id="path40534" d="m708.69 683.34c0.95176 5.6707 1.2085 11.689 5.4878 15.696 0 0-3.5395 3.5518-3.5234 5.8194 0.0104 1.4708 1.3096 3.7418 1.3096 3.7418-2.2032 8.6482-0.0924 15.248-0.65315 22.872l0.74668 33.629-0.93544 8.1384-3.2313-72.687c-3.5665-5.5425-3.5659-11.505-2.9417-17.54z" opacity=".28862" stroke="#000" stroke-width=".26458px"/>
   </g>
  </g>
 </g>
</svg>
