<?xml version="1.0" encoding="UTF-8"?>
<svg id="svg5" width="1200mm" height="1200mm" version="1.1" viewBox="0 0 1200 1200" xmlns="http://www.w3.org/2000/svg" xmlns:xlink="http://www.w3.org/1999/xlink">
 <g id="layer60" transform="translate(19.4 11.241)">
  <g id="layer214">
   <g id="g7800">
    <g id="g78614" transform="matrix(1.0832 0 0 1.0832 -57.537 -61.103)">
     <path id="path59875" d="m674.73 696.25c0.46303 0.39688 4.5641 7.8052 4.5641 7.8052" fill="none" stroke="#ffd100" stroke-width="1.2"/>
     <path id="path44562-4" d="m659.64 714.99s-10.011-0.37391 20.908 8.319c0.32076-0.54385 8.7849-9.046 15.441-7.2866 1.2896 0.34088 0.2163 8.5604 1.4448 8.8612 22.483 5.5038 41.354 14.147 41.354 14.147 9.9135-52.076-74.939-58.188-79.148-24.04z" fill="#ffd512" stroke="#000" stroke-width="2"/>
     <path id="path49638" d="m656.93 717.7s-1.9681-5.4002-0.82039-7.7193c0.80644-1.6295 4.662-2.8315 4.662-2.8315s1.7038-3.1737 3.193-4.013c3.2763-1.8466 11.191-1.4376 11.191-1.4376l52.006 17.241 9.4616 2.5545s2.058 2.2451 2.058 2.8063c0 0.11416 1.5644 2.5102 1.4209 3.4905-0.20986 1.4342 0.74408 1.9631-0.55847 2.7466 2.4719 1.791 1.7502 5.3327 0.64716 6.0621-0.39015 0.25797-6.1925 0.49794-6.1925 0.49794-27.469-19.416-45.582-22.23-77.068-19.397z" fill="#6d3900"/>
     <path id="path59879" d="m716.8 710.28 14.618 0.99219" fill="none" stroke="#ffd100" stroke-width="1.2"/>
     <ellipse id="path55397" cx="668.27" cy="704.72" rx="4.2716" ry="2.0477" fill="#2f0b06" style="paint-order:markers stroke fill"/>
     <path id="path59881" d="m726.53 712.73c3.9026-0.52917 8.3597 4.7951 8.3597 4.7951" fill="none" stroke="#ffd100" stroke-width="1.2"/>
     <ellipse id="path55397-1" cx="669.84" cy="702.95" rx="4.2716" ry="2.0477" fill="#280a06" style="paint-order:markers stroke fill"/>
     <path id="path59875-0" d="m735.58 714.8c-0.66352 0.1318-8.1101 4.8662-8.1101 4.8662" fill="none" stroke="#0ed500" stroke-width="1.3136"/>
     <path id="path59877-5" d="m676.08 705.34c-1.2251-1.1473-5.4065-5.4051-5.4065-5.4051" fill="none" stroke="#0ed500" stroke-width="1.3136"/>
     <path id="path59879-2" d="m684.18 706.59-16.296-6.4105" fill="none" stroke="#0ed500" stroke-width="1.3136"/>
     <path id="path59879-2-4" d="m678.17 707.34-16.296-6.4105" fill="none" stroke="#0ed500" stroke-width="1.3136"/>
     <path id="path59879-2-5" d="m683.74 706.5-16.296-6.4105" fill="none" stroke="#0ed500" stroke-width="1.3136"/>
     <path id="path59879-2-41" d="m679.34 706.36-15.547-7.4395" fill="none" stroke="#0ed500" stroke-width="1.3136"/>
     <path id="path59879-2-0" d="m686.31 705.57-16.296-6.4105" fill="none" stroke="#0ed500" stroke-width="1.3136"/>
     <path id="path59879-2-3" d="m690.99 703.84-16.296-6.4105" fill="none" stroke="#0ed500" stroke-width="1.3136"/>
     <path id="path59879-2-2" d="m691.13 705.8-16.296-6.4105" fill="none" stroke="#0ed500" stroke-width="1.3136"/>
     <path id="path59879-2-54" d="m685.47 707.3-16.296-6.4105" fill="none" stroke="#0ed500" stroke-width="1.3136"/>
     <path id="path59881-1" d="m672.62 703.96c-4.0303-2.439-11.024 0.20769-11.024 0.20769" fill="none" stroke="#0ed500" stroke-width="1.3136"/>
     <path id="path59883-4" d="m724.76 715.21 8.7266-1.1566" fill="none" stroke="#0ed500" stroke-width="1.3136"/>
     <path id="path59885-6" d="m726.36 717.85 13.111 2.2471" fill="none" stroke="#0ed500" stroke-width="1.3136"/>
     <path id="path59885-6-7" d="m725.81 715.6 14 2.6213" fill="none" stroke="#0ed500" stroke-width="1.3136"/>
     <path id="path59885-6-8" d="m722.45 713.07c4.3703 0.74903 9.3991 1.08 16.525-0.13828" fill="none" stroke="#0ed500" stroke-width="1.3136"/>
     <path id="path59885-6-2" d="m723.57 716.58 14.14 4.8196" fill="none" stroke="#0ed500" stroke-width="1.3136"/>
     <path id="path59887-8" d="m678.47 702.65c-1.1985-1.2079-4.6743-4.1204-4.6743-4.1204" fill="none" stroke="#0ed500" stroke-width="1.3136"/>
     <path id="path59889-9" d="m682.42 704.1c-0.98031-0.52425-12.635-6.474-12.635-6.474" fill="none" stroke="#0ed500" stroke-width="1.3136"/>
     <path id="path59893-6" d="m716.92 713.57 21.892 2.0619" fill="none" stroke="#0ed500" stroke-width="1.3136"/>
     <path id="path59891-5" d="m723.11 714.24c0.42106-0.17056 8.8042-1.9226 8.8042-1.9226" fill="none" stroke="#0ed500" stroke-width="1.3136"/>
     <path id="path59883" d="m682.87 701.15-6.2838-4.6964" fill="none" stroke="#ffd100" stroke-width="1.2"/>
     <ellipse id="path55397-1-9" cx="733" cy="722.18" rx="4.2716" ry="2.0477" fill="#280a06" style="paint-order:markers stroke fill"/>
     <path id="path59885" d="m680.75 702.87-10.782-3.4396" fill="none" stroke="#ffd100" stroke-width="1.2"/>
     <path id="path58262" d="m668.78 697.71c6.771 2.6696 66.014 15.478 66.014 15.478" fill="none" stroke="#ffd100" stroke-width="1.1"/>
     <path id="path59887" d="m722.49 709.09c1.3229-0.59532 6.4823-2.0836 6.4823-2.0836" fill="none" stroke="#ffd100" stroke-width="1.2"/>
     <path id="path59889" d="m718.99 708.76c0.13953 0.30368 4.7673 2.2624 11.443-0.87595" fill="none" stroke="#ffd100" stroke-width="1.2"/>
     <path id="path59891" d="m684.46 700.95c-0.26458-0.33073-6.0854-5.424-6.0854-5.424" fill="none" stroke="#ffd100" stroke-width="1.2"/>
     <path id="path46554" d="m693.66 719.55c-4.1035 0.079-7.7855 5.1354-8.6937 7.401-0.30972 0.77267-1.1486-0.7071-1.1486-0.7071 1.2053-5.0558 5.0493-7.9683 9.8423-6.6939z" stroke="#000" stroke-width=".26458px"/>
     <ellipse id="path64095" transform="matrix(.97747 .21107 -.090542 .99589 0 0)" cx="740.05" cy="547.48" rx="8.4092" ry="3.347" fill="#fe0b02" style="paint-order:markers stroke fill"/>
     <ellipse id="path64095-4" cx="731.08" cy="712.89" rx="6.3844" ry="2.9934" fill="#fe0b02" style="paint-order:markers stroke fill"/>
     <path id="path59893" d="m689.42 702.94-16.47-7.2099" fill="none" stroke="#ffd100" stroke-width="1.2"/>
     <path id="path59879-2-7" d="m681.72 703.28c-4.8968-1.3342-8.2051-0.28564-16.296-6.4105" fill="none" stroke="#0ed500" stroke-width="1.3136"/>
     <path id="path58262-2" d="m670.19 696.87c6.6666 2.9207 44.482 14.894 65.389 17.934" fill="none" stroke="#ffd100" stroke-width="1.1"/>
     <path id="path59885-6-1" d="m722.49 709.33c5.8288 4.4219 9.4466 0.88416 14.14 1.2181" fill="none" stroke="#0ed500" stroke-width="1.3136"/>
     <path id="path59877" d="m723.42 712.53c1.3229-0.52917 8.2917-3.6748 8.2917-3.6748" fill="none" stroke="#ffd100" stroke-width="1.2"/>
     <path id="path67482" d="m681.95 696.61c-0.63769-0.42526-0.45899-0.94577-3.5763-1.0818-1.5816 0.41757-5.6197 0.46505-2.8086 1.5444-2.6747 0.73685-2.0159 1.2094-3.0409 1.7853-1.9501 1.2669-0.47789 1.1082 2.3069 0.53369l5.2012-1.3784 13.283 5.3788s32.99 20.424 38.19 8.5405c0.46674-1.0667-2.7912-2.3301-2.7912-2.3301 0.6746-0.22695 1.6912-0.56602 0.61604-1.0186-0.83155-0.54231-2.1394-0.75977-1.8709-0.84187 1.5124-0.4624 0.0309-1.5153-0.56126-1.5435 0 0-4.4901-1.0758-4.9111-1.0758-0.42095 0-39.415-6.3798-40.037-8.5125z" fill="#ed4a0d"/>
     <path id="path69094" d="m679.94 696.8c-0.44328-1.5893 0.84894-1.636 1.4032-2.3386 1.896-1.0357 3.3736-0.398 4.9111 0 2.4554-0.28231 4.3768 0.21278 6.3667 0.74502l4.8119-0.55793c2.5836-1.2466 4.927 0.86808 7.39 1.3096 2.124 0.0452 1.916 1.0898 2.4322 1.8241 3.0027 0.46401 3.3533-0.63916 9.027 1.4032 0.85236-0.63927 3.2259 1.0415 3.4144 1.7306 0.0314 0.11485 3.3312 1.8544 2.8063 2.2918 2.874 0.60456 1.8219 1.8635 2.666 2.8063 0 0-8.5125 2.5725-10.15 1.5902s-33.522 2.3433-36.529-9.7286c-0.0986-0.39595 1.4499-1.0758 1.4499-1.0758" fill="#9dff3b"/>
     <path id="path77637" d="m700.6 697.45c-0.0128 0.65744-0.97727 1.1906-2.1828 1.1906s-2.1811-0.53306-2.1828-1.1906c-2e-3 -0.6583-4.8382-0.5318 2.1828-1.1906 1.3594-0.12756 2.1961 0.50642 2.1828 1.1906z" opacity=".12398" stroke-width="1.2" style="paint-order:markers stroke fill"/>
     <path id="path77639" d="m703.77 696.62c0 0.60277-0.69594 1.0914-1.5544 1.0914s-1.6609-1.0569-1.1335-1.3487c0.35184-0.19464 1.09 1.0018 0.82946-0.29627-0.16892-0.8417 1.8584-0.0492 1.8584 0.55352z" opacity=".12398" stroke-width="1.2" style="paint-order:markers stroke fill"/>
     <path id="path77641" d="m718.72 702.57c0 1.2969-1.0661 2.3482-2.3812 2.3482s-2.3976-1.0514-2.3812-2.3482c0.0156-1.2383 1.496-0.73626 2.3812-2.3482 0.63309-1.1527 2.3812 1.0513 2.3812 2.3482z" opacity=".12398" stroke-width="1.2" style="paint-order:markers stroke fill"/>
     <path id="path77643" d="m712.71 700.19c0.58558 0.25652-1.0156 1.1576-1.6914 1.1576s-1.2237-0.51826-1.2237-1.1576 0.56328-1.3011 1.2237-1.1576c0.48961 0.10641 1.0581 0.88013 1.6914 1.1576z" opacity=".12398" stroke-width="1.2" style="paint-order:markers stroke fill"/>
     <path id="path44562" d="m657.06 719.25s-2.9014-0.74809 28.018 7.9448c0.32076-0.54385 1.6756-8.6718 8.3314-6.9125 1.2896 0.34088 0.2163 8.5604 1.4448 8.8612 22.483 5.5038 43.933 9.8893 43.933 9.8893 1.1203-48.335-75.834-53.931-81.726-19.783z" fill="#f8b602" stroke="#000" stroke-width="2"/>
     <path id="path74631" d="m680.03 698.01c-4.8733 3.6844-8.5446 15.94 7.0158 17.586 0 0 7.6034-0.58914 9.3497 5.8626 1.7463 6.4517 4.3798 5.9594 11.579 7.9729l30.494 8.0586 0.31912 1.5359-44.632-10.804-0.4949-8.6796c-9.0067 1.8505-6.967 5.3468-8.5822 7.6453l-28.018-7.9448c2.8234-8.545 6.4381-16.85 22.969-21.234z" opacity=".22561"/>
     <circle id="path77248" cx="700.33" cy="713.82" r=".39687" opacity=".27032"/>
     <circle id="path77250" cx="707.91" cy="718.78" r=".39687" fill="#fff" opacity=".27032"/>
     <circle id="path77252" cx="731.39" cy="729.72" r=".39687" fill="#fff" opacity=".27032"/>
     <circle id="path77254" cx="726.36" cy="717.85" r=".39687" fill="#fff" opacity=".27032"/>
     <circle id="path77256" cx="720.54" cy="712.04" r=".39687" opacity=".27032"/>
     <circle id="path77258" cx="716.14" cy="724.3" r=".39687" opacity=".27032"/>
     <circle id="path77260" cx="687.51" cy="710.17" r=".39687" opacity=".27032"/>
     <circle id="path77262" cx="670.12" cy="714.94" r=".39687" fill="#fff" opacity=".27032"/>
     <circle id="path77264" cx="680.22" cy="721.02" r=".39687" opacity=".27032"/>
     <circle id="path77266" cx="696.96" cy="706.06" r=".39687" opacity=".27032"/>
     <circle id="path77268" cx="682.42" cy="704.1" r=".39687" fill="#fff" opacity=".27032"/>
     <circle id="path77270" cx="672.36" cy="705.96" r=".39687" opacity=".27032"/>
     <circle id="path77272" cx="661.23" cy="716.81" r=".39687" opacity=".27032"/>
     <circle id="path77274" cx="711.74" cy="708.86" r=".39687" opacity=".27032"/>
     <circle id="path77276" cx="704.63" cy="727.2" r=".39687" opacity=".27032"/>
     <circle id="path77278" cx="723.34" cy="732.44" r=".39687" opacity=".27032"/>
     <circle id="path77280" cx="726.34" cy="726.36" r=".39687" opacity=".27032"/>
     <circle id="path77282" cx="717.36" cy="716.81" r=".39687" fill="#fff" opacity=".27032"/>
     <circle id="path77284" cx="696.03" cy="717.28" r=".79375" fill="#fff" opacity=".27032"/>
     <circle id="path77286" cx="701.45" cy="722.33" r=".79375" opacity=".27032"/>
     <circle id="path77288" cx="714.83" cy="729.91" r=".79375" fill="#fff" opacity=".27032"/>
     <circle id="path77290" cx="710.99" cy="712.04" r=".79375" opacity=".27032"/>
     <circle id="path77292" cx="724.28" cy="724.2" r=".79375" opacity=".27032"/>
     <circle id="path77294" cx="728.95" cy="733.09" r=".79375" opacity=".27032"/>
     <circle id="path77296" cx="703.14" cy="704.37" r=".79375" fill="#fff" opacity=".27032"/>
     <circle id="path77298" cx="681.53" cy="714.76" r=".79375" fill="#fff" opacity=".27032"/>
     <circle id="path77300" cx="691.07" cy="702.69" r=".79375" opacity=".27032"/>
     <circle id="path77302" cx="672.45" cy="718.69" r=".79375" opacity=".27032"/>
     <circle id="path77304" cx="665.53" cy="709.8" r=".79375" opacity=".27032"/>
     <path id="path77635" d="m684.72 695.92c0.59795 0.71742-0.0581 0.69769-0.8599 0.79375-0.80935 0.097-1.2257-0.1166-0.85989-0.79375 0.20921-0.38731-0.6795-0.69237 0.85989-0.79375 0.47388-0.0312 0.57923 0.457 0.8599 0.79375z" opacity=".12398" stroke-width="1.2" style="paint-order:markers stroke fill"/>
    </g>
   </g>
  </g>
 </g>
</svg>
