<?xml version="1.0" encoding="UTF-8"?>
<svg id="svg5" width="1200mm" height="1200mm" version="1.1" viewBox="0 0 1200 1200" xmlns="http://www.w3.org/2000/svg" xmlns:xlink="http://www.w3.org/1999/xlink">
 <defs id="defs77">
  <linearGradient id="linearGradient94054">
   <stop id="stop94050" stop-color="#fff" offset="0"/>
   <stop id="stop94052" stop-color="#fff" stop-opacity="0" offset="1"/>
  </linearGradient>
  <linearGradient id="linearGradient94056" x1="57.639" x2="59.273" y1="90.744" y2="90.231" gradientTransform="matrix(4.1461 0 0 4.1461 116.7 46.946)" gradientUnits="userSpaceOnUse" xlink:href="#linearGradient94054"/>
  <linearGradient id="linearGradient94717" x1="57.639" x2="59.273" y1="90.744" y2="90.231" gradientTransform="matrix(-2.637 -.53048 -.53048 2.637 952.56 251.9)" gradientUnits="userSpaceOnUse" xlink:href="#linearGradient94054"/>
 </defs>
 <g id="layer60" transform="translate(19.4 11.241)">
  <g id="layer214">
   <g id="layer160">
    <path id="path78477" d="m363.44 363.09c-8.0694 21.757-12.491 43.747-14.404 61.862-0.18969 0.96383 0.65146 1.06 0.65146 1.06l7.7692-7.4214c0.59372 0.24284 1.0755-0.4735 1.2169-1.088 3.5233-16.994 13.709-40.499 24.812-60.442 16.537-29.705 35.06-42.424 70.244-59.504 5.4315-2.6368 11.573-4.3592 17.921-6.2254 21.571-6.3421 47.382-10.147 76.669-10.149 89.022-7e-3 139.34 31.909 168.47 79.762 23.278 38.238 27.075 65.293 28.313 96.093-0.0838 0.49131 0.36319 0.48538 0.36319 0.48538 0.95758 1.955 5.1557 6.0702 2.5936 4.0425 0.29188-8e-3 0.4302-0.22058 0.43861-0.47056 6.513-32.702 10.19-63.508-9.9474-107.61-21.158-48.911-95.778-102.48-189.38-102.47-93.604 7e-3 -164.2 54.036-185.73 112.08z" color="#000000" stroke="#000" stroke-width="2.3425"/>
    <path id="path78477-8" d="m372.16 367.16c-9.4223 21.207-14.957 39.536-16.871 57.65-0.14382 1.2351-0.30531 1.9509-0.21194 2.455 0 0 0.30776 0.14648 0.38832 0.081 0.12438-0.10108 0.17219-0.45449 0.25801-0.82748 2.2892-16.171 9.0923-38.066 18.098-58.534 22.298-50.677 79.26-93.928 176.68-93.936 89.022-7e-3 140.85 37.805 169.98 85.658 23.278 38.238 27.194 72.329 24.748 103.71-0.0838 0.49131 0.99655-0.0589 0.99655-0.0589 2.6308-45.415-4.5382-73.238-22.495-104.67-27.312-47.805-79.55-87.553-173.15-87.546-91.741 0.47282-153.06 38.929-178.42 96.015z" color="#000000" fill="#fff" opacity=".53526" style="-inkscape-stroke:none"/>
    <path id="path79512" d="m758.71 504.45a17.692 27.721 0 0 1-17.692 27.721 17.692 27.721 0 0 1-17.692-27.721 17.692 27.721 0 0 1 17.692-27.721 17.692 27.721 0 0 1 17.692 27.721z" stroke="#000" stroke-linejoin="round" stroke-width="1.0405"/>
    <ellipse id="path79512-3" cx="352.37" cy="483.4" rx="21.496" ry="34.577" stroke="#000" stroke-linejoin="round" stroke-width="1.2809"/>
    <ellipse id="path80137" cx="348.88" cy="484.06" rx="17.51" ry="34.951" fill="#730000" stroke="#000" stroke-linejoin="round" stroke-width="1.4043"/>
    <ellipse id="path80137-8" cx="745.16" cy="505.32" rx="13.107" ry="27.052" fill="#730000" stroke="#000" stroke-linejoin="round" stroke-width="1.0689"/>
    <path id="path81403" d="m745.49 463.27c-2.0397 3.9217-2.3877 15.576-4.0531 21.067l1.5741 0.35366c1.4605-4.8155 2.4941-13.434 4.5818-13.55 1.6489-0.0912 2.6611 5.4975 2.7589 8.6417 0.64053 0.59057 1.2514 1.1811 1.711 1.7717-1.1898-4.8654-1.904-16.925-3.4793-18.324z" color="#000000" fill="#c7c7c7" stroke-width="5.7228" style="-inkscape-stroke:none"/>
    <path id="path80748" d="m737.14 489.21 4.766 1.6342c0.46731 0.21145 0.61051-0.0518 0.67059-0.54115l0.77996-5.4828-2.2335-0.76565-3.1175 1.7051-1.1618 2.7993c-0.20275 0.33874 0.16128 0.59559 0.29603 0.65131z"/>
    <path id="path81403-3" d="m355.46 427.35c1.621 6.3378-2.4749 23.009-1.921 31.483l-2.3875-0.0207c-0.48577-7.4313 0.92258-20.2-2.0474-21.069-2.3457-0.68589-5.2354 8.2697-6.4336 12.768-1.3847 0.98922-2.7919 2.4444-3.6283 3.4398 0.45143-5.1398 8.6831-26.51 10.64-27.942z" color="#000000" fill="#c7c7c7" stroke-width="8.4692" style="-inkscape-stroke:none"/>
    <path id="path80748-5" d="m357.7 467.57-7.4473 0.369c-0.75126 0.10945-0.84687-0.32381-0.73158-1.0445l1.1398-8.1161 3.49-0.17251 3.7335 3.7032 0.50384 4.4569c0.14934 0.56482-0.47358 0.78075-0.6881 0.80467z"/>
    <path id="path91960" d="m349.51 418.72c-0.33301 1.5483-0.87063 4.5416-0.47952 6.2374 0.0932 0.40412 0.31494 0.81766 0.65147 1.06 1.4987 1.0794 3.5546 1.3898 5.3966 1.2556 0.54167-0.0394 1.1533-0.19167 1.5166-0.59533 1.1667-1.2962 1.6852-4.2778 1.8953-6.0145 0.13968-1.094 0.37468-1.2767-0.6782-1.4677l-7.0927-1.2871c-1.0951-0.31083-1.0202-8e-3 -1.2096 0.81157z" stroke="#000" stroke-width="1.097px"/>
    <path id="path93192" d="m357.86 418.85c-0.3207 2.8171-1.3365 6.1849-2.1775 8.6552 0 0 0.77908-0.0683 1.1613-0.6212 1.1254-1.6279 2.2402-5.5813 1.925-7.3907-0.0982-0.56371-0.35901-0.49811-0.90866-0.64324z" fill="url(#linearGradient94056)" opacity=".76282"/>
    <path id="path91960-0" d="m750.29 458.62c0.0166 1.0274-0.0249 3-0.49305 4.0285-0.1107 0.24503-0.30516 0.47974-0.54998 0.5909-1.0913 0.49475-2.4386 0.42912-3.5931 0.1078-0.33915-0.0958-0.70902-0.2695-0.88847-0.5727-0.57622-0.97371-0.52448-2.9364-0.43587-4.0679 0.0514-0.71369-0.0751-0.85996 0.61909-0.84676l4.6759 0.0888c0.73622-0.0576 0.64986 0.1255 0.66545 0.67094z" stroke="#000" stroke-width=".71169px"/>
    <path id="path93192-3" d="m744.96 457.64c-0.15672 1.8328 0.0585 4.1048 0.27738 5.7836 0 0-0.48676-0.14304-0.65911-0.54372-0.50752-1.1794-0.71072-3.8364-0.27861-4.947 0.13433-0.34595 0.29229-0.27087 0.66026-0.29288z" fill="url(#linearGradient94717)" opacity=".24359"/>
    <path id="path94754" d="m355.28 418.23c1.048-7.1489 3.1656-18.812 8.6446-33.672 6.8935-18.697 17.599-41.901 37.837-61.873 29.931-29.539 77.917-53.943 159.22-52.225 92.147 1.9473 148.48 49.493 174.38 106.84 11.963 26.491 13.423 54.002 11.834 80.24" fill="none" opacity=".28846" stroke="#fff" stroke-dasharray="2.05231, 2.05231" stroke-width=".6841"/>
    <path id="path98509" d="m357.45 418.59c4.4466-24.893 22.803-145.35 195.3-145.94 46.095 0.0474 82.558 10.868 109.83 26.847 34.909 20.453 55.926 49.32 68.827 77.439 17.571 38.298 16.164 73.088 13.694 80.102" fill="none" stroke="#000" stroke-dasharray="3.02664, 1.51332, 0.75666, 1.51332" stroke-width="1.5133"/>
    <path id="path100695" d="m746.7 464.66s1.7875-0.59438 2.0912 0.0332c0.98361 2.0328 1.3369 7.5418 1.3369 7.5418s-0.49251-5.2776-1.7483-7.0961c-0.38019-0.55084-1.6798-0.47883-1.6798-0.47883z" fill="#fff"/>
    <ellipse id="path101627" cx="752.36" cy="505.53" rx="4.7796" ry="18.82" fill="#fff" opacity=".24359"/>
    <ellipse id="path101627-4" cx="340.29" cy="483.27" rx="7.1067" ry="24.444" fill="#fff" opacity=".24359"/>
    <path id="path101785" d="m741.15 524.89c-32.699 62.414-107.66 46.233-131.43 47.691" fill="none" stroke="#000" stroke-width="2.7572"/>
    <path id="path101783" d="m738.89 521.02c-5.3531 18.71 2.1881 7.454 4.6332 4.5457z" fill="#1f1f1f" stroke="#000" stroke-width="1.097px"/>
    <path id="ellipse102272" d="m625.22 572.68c-0.10407 5.5965-5.8242 5.3478-11.655 5.3478-5.8313-4e-5 -10.353-0.0249-10.353-5.3478 0-5.5978 4.7272-5.6906 10.558-5.6906s11.55 0.29769 11.45 5.6906z" stroke-linejoin="round" stroke-width=".2695"/>
   </g>
  </g>
 </g>
</svg>
