<?xml version="1.0" encoding="UTF-8"?>
<svg id="svg5" width="1200mm" height="1200mm" version="1.1" viewBox="0 0 1200 1200" xmlns="http://www.w3.org/2000/svg" xmlns:xlink="http://www.w3.org/1999/xlink">
 <defs id="defs77">
  <filter id="filter31434-5" x="-.0046231" y="-.0020033" width="1.0092" height="1.004" color-interpolation-filters="sRGB">
   <feGaussianBlur id="feGaussianBlur41-5-8" stdDeviation="0.087472422"/>
  </filter>
  <filter id="filter31430-5" x="-.019086" y="-.007506" width="1.0382" height="1.015" color-interpolation-filters="sRGB">
   <feGaussianBlur id="feGaussianBlur38-5" stdDeviation="0.087472422"/>
  </filter>
  <filter id="filter31438-59" x="-.027616" y="-.005356" width="1.0552" height="1.0107" color-interpolation-filters="sRGB">
   <feGaussianBlur id="feGaussianBlur44-9-4" stdDeviation="0.087472422"/>
  </filter>
  <filter id="filter31454-8" x="-.036652" y="-.0062676" width="1.0733" height="1.0125" color-interpolation-filters="sRGB">
   <feGaussianBlur id="feGaussianBlur56-5" stdDeviation="0.087472422"/>
  </filter>
  <filter id="filter31442-7" x="-.029163" y="-.0086973" width="1.0583" height="1.0174" color-interpolation-filters="sRGB">
   <feGaussianBlur id="feGaussianBlur47-3" stdDeviation="0.087472422"/>
  </filter>
  <filter id="filter31446-08" x="-.036441" y="-.013387" width="1.0729" height="1.0268" color-interpolation-filters="sRGB">
   <feGaussianBlur id="feGaussianBlur50-4" stdDeviation="0.087472422"/>
  </filter>
  <filter id="filter31450-3" x="-.018818" y="-.01036" width="1.0376" height="1.0207" color-interpolation-filters="sRGB">
   <feGaussianBlur id="feGaussianBlur53-2" stdDeviation="0.087472422"/>
  </filter>
  <filter id="filter11667" x="-.069277" y="-.14164" width="1.1386" height="1.2833" color-interpolation-filters="sRGB">
   <feGaussianBlur id="feGaussianBlur11665" stdDeviation="0.46853602"/>
  </filter>
 </defs>
 <g id="layer60" transform="translate(19.4 11.241)">
  <g id="layer103">
   <g id="layer215" transform="translate(-19.4 -11.241)">
    <g id="g17443" transform="translate(5.0747 214.14)">
     <path id="path8577" d="m565.43 407.46c-20.441 11.624-42.956 63.677-65.145 109.37 9.1284 6.3761 19.454 10.059 32.23 8.2288 5.6162-16.211 14.757-38.143 21.944-49.373h49.03c7.871 15.638 19.566 30.511 23.315 46.973 12.625 1.5506 21.43-3.584 30.515-8.2288-19.827-37.218-25.743-75.72-65.145-108.86z" fill="#fff" stroke="#000" stroke-width="2"/>
     <g id="g8202" transform="matrix(4.1461 0 0 4.1461 326.78 -133.93)" fill="#0088e6">
      <path id="path8200" d="m50.34 170.07c0.95385-6.7613 3.1801-14.892 4.8413-23.469 1.0243-5.4623-0.25474-8.9632 0.66055-14.637 0.85089-1.8391 7.6078-3.7153 10.388 0.21325 0.91942 5.692-0.60117 9.054 0.67644 14.742 1.771 7.8841 3.6378 15.743 4.9119 23.515-9.5145-1.6867-11.63-1.5767-21.075-0.44559z" fill="#00557a" stroke="#000" stroke-width=".724"/>
     </g>
     <path id="path8204" transform="matrix(4.1461 0 0 4.1461 128.46 -155.97)" d="m115.41 138.86-16.232 4.2417c1.9347-2.7878 3.8506-5.5944 6.5444-7.6231l5.5944-0.31597z" fill-opacity=".99763" filter="url(#filter11667)" opacity=".279"/>
     <g id="g8247" transform="matrix(4.1461 0 0 4.1461 129.19 -155.04)">
      <path id="path8206" d="m81.86 232.09 2.8144-7.5112" fill="none" stroke="#000" stroke-width=".26458px"/>
      <path id="path8208" transform="scale(.26458)" d="m388.44 577.05c-20.442 92.521-65.481 224.91-97.893 284.8 3.8229 7.5763 10.469 12.329 18.848 15.35-1.9157 4.4608-3.9098 9.0204-3.2891 10.311 9.321 8.3494 19.88 12.488 32.455 9.7734 4.9421-3.1479 9.5961-2.5596 13.887 2.7617 7.2317 4.9907 22.16 6.8696 31.998 5.3438l0.33789-3.3867c8.316-2.4863 16.029-1.9444 21.129 5.2168 12.241 4.067 24.06 2.3834 34.459-2.7637l-0.0898-2.6523c5.4226-1.7535 8.4118-2.8793 18.51 1.2695l0.5 2.8652c6.4075 0.10545 18.22 1.6025 19.371-6.582 3.3475-1.4332 6.7914-1.5306 10.369 0.25977 11.228 2.2403 20.852 0.14315 28.166-8.207l-3.1758-8.8652c10.035 0.65246 18.805-0.98181 24.949-9.7109-32.054-54.758-76.625-194.64-106.02-296.19-17.568-1.0667-28.394-1.925-44.508 0.4117z" fill="#00557a" stroke="#000" stroke-width="2.1354"/>
      <path id="path8210" d="m99.119 183.65-9.8203 53.699 0.55664 0.10156c0.7503-5.7017 10.077-50.983 9.2637-53.801z" color="#000000" style="-inkscape-stroke:none"/>
      <path id="path8212" d="m97.291 216.84-4.3164 21.236 0.55274 0.11329c0.17785-2.6869 3.9612-17.861 3.7637-21.35z" color="#000000" style="-inkscape-stroke:none"/>
      <path id="path8214" d="m103.96 197.59s-0.58152 10.257-1.1875 20.629c-0.30299 5.1859-0.61125 10.401-0.85742 14.375-0.12309 1.9872-0.23166 3.6649-0.31446 4.873-0.0414 0.60406-0.0756 1.0908-0.10351 1.4395-0.014 0.17431-0.0271 0.31463-0.0371 0.41601s-0.0222 0.17818-0.0195 0.16602l0.55273 0.12304c0.0153-0.0692 0.0187-0.12696 0.0293-0.23437s0.023-0.24945 0.0371-0.42578c0.0283-0.35266 0.064-0.84008 0.10547-1.4453 0.0829-1.2105 0.18937-2.8891 0.3125-4.877 0.24625-3.9757 0.55636-9.1907 0.85937-14.377-0.28333-2.0297 1.6076-16.39 0.62302-20.662z" color="#000000" style="-inkscape-stroke:none"/>
      <path id="path8216" d="m107.25 216.07-0.13672 23.959 0.56446 2e-3c-0.34197-2.8852 0.55239-21.161-0.42774-23.961z" color="#000000" style="-inkscape-stroke:none"/>
      <path id="path8218" d="m110.54 182.82 5.6914 56.512 0.56054-0.0566c-0.87942-5.8937-4.9004-54.701-6.252-56.455z" color="#000000" style="-inkscape-stroke:none"/>
      <path id="path8220" d="m114.62 191.62 6.6211 48.111 0.56055-0.0781c-1.0039-5.09-5.5317-45.373-7.1816-48.033z" color="#000000" style="-inkscape-stroke:none"/>
      <path id="path8222" d="m119.66 204.83 6.7051 33.178 0.55274-0.11133c-1.0637-3.665-5.4966-30.416-7.2578-33.066z" color="#000000" style="-inkscape-stroke:none"/>
      <path id="path8224" d="m127.29 225.44 1.8184 12.621 0.5586-0.0801c-0.65242-2.0663-1.1098-9.5804-2.377-12.541z" color="#000000" style="-inkscape-stroke:none"/>
      <path id="path8226" d="m122.39 196.53 14.186 39.418 0.53125-0.1914c-1.8349-4.1832-13.322-37.99-14.717-39.227z" color="#000000" style="-inkscape-stroke:none"/>
      <path id="path8228" d="m84.047 225.98-2.4492 6.002 0.52344 0.21485c0.89132-2.0806 1.6708-3.707 1.9258-6.2168z" color="#000000" style="-inkscape-stroke:none"/>
      <g id="g8243" fill-opacity=".37652">
       <path id="path8230" d="m87.873 204.12c-3.3941 7.3784-5.0012 16.918-3.6893 22.339-0.72524 2.0355-2.6404 4.4547-2.3234 5.6298-2.1024-0.85862-3.8579-2.1074-4.9868-4.0612z" color="#000000" filter="url(#filter31430-5)" opacity=".51792" stroke-width=".26458px" style="-inkscape-stroke:none"/>
       <path id="path8232" d="m96.686 198.94c-1.2395 6.4124-4.3222 20.983 0.49329 18.965l-3.9276 20.231c-1.3027-1.9573-2.4911-1.402-3.6743-0.73046z" filter="url(#filter31438-59)" opacity=".51792" style="mix-blend-mode:normal"/>
       <path id="path8235" d="m103.77 206.54c0.29008 7.2436-0.21863 12.6 3.7648 9.537l-0.13714 23.958c-1.1341-1.398-2.7569-2.1675-5.5906-1.3802z" filter="url(#filter31454-8)" opacity=".51792" style="mix-blend-mode:normal"/>
       <path id="path8237" d="m114.19 214.8c1.1596 5.8849 3.1718 5.2809 4.4944 5.6208l2.7042 18.517c-2.6691-1.4879-3.6945-1.0039-5.0056-0.39237z" filter="url(#filter31442-7)" opacity=".51792" style="mix-blend-mode:normal"/>
       <path id="path8239" d="m123.63 222.34c1.1584 2.5802 2.3062 4.8083 3.8288 3.7467l1.9321 11.935-2.7435-0.0687z" color="#000000" filter="url(#filter31446-08)" opacity=".51792" stroke-width=".26458px" style="-inkscape-stroke:none"/>
       <path id="path8241" d="m128.84 213.24c3.5101 7.7109 6.9403 15.848 11.156 19.797l-3.995 0.46647z" filter="url(#filter31450-3)" opacity=".51792" style="mix-blend-mode:normal"/>
      </g>
     </g>
     <g id="g8253" transform="matrix(4.1461 0 0 4.1461 128.73 -155.68)" opacity=".45277">
      <path id="path8251" d="m96.576 176.3c-6.6806 19.866-10.848 35.571-19.703 51.727 1.0115 2.0046 2.77 3.262 4.9868 4.0612-0.50686 1.1802-1.0345 2.3866-0.87023 2.728 2.4662 2.2091 5.2599 3.3041 8.5871 2.5859 1.3076-0.83287 2.539-0.67722 3.6742 0.73071 1.9134 1.3205 5.8631 1.8176 8.4662 1.4139l0.0894-0.89607c2.2003-0.65784 4.2409-0.51446 5.5904 1.3803-2.916-7.5963-15.219-17.505-15.619-33.134-0.20949-8.1957 7.5383-39.602 12.028-49.243 0.69556-1.4936 1.6244-4.1658 4.5967-5.1235 1.6736-0.5392 6.6306 0.71403 5.9624-5.3705-1.0791 3.2276 8.674 16.689 7.8704 16.313-0.56704-0.26582-0.55419 0.90004-1.9522 0.12066-1.4883-0.82969-3.2991-8.8967-5.25-10.349-0.35591-0.26491-3.1972-0.91322-3.6482-0.92619-6.3725-0.18318-6.7819-0.88705-6.984-2.1178 0 0 0.18585-14.913 6.7068-14.964 1.4038 0.0691-3.9498-0.27908-6.5282 0.97703-2.4664 1.0922-14.422 22.417-14.825 26.193-0.02438 0.22826 0 0 5.0466 1.8233-8.1638-1.5828 8.5025-25.282 8.4258-24.929-0.59084 2.7208-0.20524 9.4641-1.275 11.568-3.0066 5.9123-4.2023 8.9987-4.8922 12.966-0.18925 1.0883 5.7509-12.36 5.5387-11.241-0.29652 1.5642-5.3981 22.19-5.4389 22.186z" filter="url(#filter31434-5)" opacity=".27036" style="mix-blend-mode:normal"/>
     </g>
     <path id="path8255" d="m552.2 482.19c18.786-3.2813 38.55-2.5134 54.334 0.0905" fill="none" stroke="#000" stroke-width=".60036px"/>
    </g>
   </g>
  </g>
 </g>
</svg>
