<?xml version="1.0" encoding="UTF-8"?>
<svg id="svg5" width="1200mm" height="1200mm" version="1.1" viewBox="0 0 1200 1200" xmlns="http://www.w3.org/2000/svg" xmlns:xlink="http://www.w3.org/1999/xlink">
 <g id="layer60" transform="translate(19.4 11.241)">
  <g id="layer214">
   <g id="layer197">
    <path id="path8800-5-15" d="m745.61 521.41-28.713 50.904" fill="none" stroke="#000" stroke-width=".26458px"/>
    <path id="path8800" d="m822.43 502.38-83.057 147.25" fill="none" stroke="#000" stroke-width=".26458px"/>
    <path id="path8800-0" d="m826.92 503.66-84.554 149.3" fill="none" stroke="#000" stroke-width=".26458px"/>
    <path id="path8800-3" d="m818.92 500.74-83.057 147.25" fill="none" stroke="#000" stroke-width=".26458px"/>
    <path id="path8800-5" d="m814.35 499.61-83.057 147.25" fill="none" stroke="#000" stroke-width=".26458px"/>
    <path id="path8800-31" d="m837.38 509.55-83.057 147.25" fill="none" stroke="#000" stroke-width=".26458px"/>
    <path id="path8800-0-9" d="m840.37 512.88-83.057 147.25" fill="none" stroke="#000" stroke-width=".26458px"/>
    <path id="path8800-3-1" d="m833.86 507.9-83.057 147.25" fill="none" stroke="#000" stroke-width=".26458px"/>
    <path id="path8800-5-7" d="m829.29 506.78-83.057 147.25" fill="none" stroke="#000" stroke-width=".26458px"/>
    <path id="path8800-9" d="m847.93 524.12-78.286 138.79" fill="none" stroke="#000" stroke-width=".26458px"/>
    <path id="path8800-0-0" d="m850.92 527.45-76.278 135.23" fill="none" stroke="#000" stroke-width=".26458px"/>
    <path id="path8800-3-6" d="m844.42 522.47-83.057 147.25" fill="none" stroke="#000" stroke-width=".26458px"/>
    <path id="path8800-5-1" d="m839.85 521.35-83.057 147.25" fill="none" stroke="#000" stroke-width=".26458px"/>
    <path id="path8800-91" d="m853.98 546.2-63.558 112.68" fill="none" stroke="#000" stroke-width=".26458px"/>
    <path id="path8800-0-4" d="m855.61 551.93c-19.327 34.264-38.655 68.529-57.982 102.79" fill="none" stroke="#000" stroke-width=".26458px"/>
    <path id="path8800-3-8" d="m852.52 540.9-67.134 119.02" fill="none" stroke="#000" stroke-width=".26458px"/>
    <path id="path8800-5-74" d="m854.35 528.42-75.295 133.48" fill="none" stroke="#000" stroke-width=".26458px"/>
    <path id="path8800-3-3" d="m856.07 569.27-45.908 81.387" fill="none" stroke="#000" stroke-width=".26458px"/>
    <path id="path8800-5-6" d="m855.47 561.11-51.376 91.081" fill="none" stroke="#000" stroke-width=".26458px"/>
    <path id="path8800-59" d="m806.61 497.19-83.057 147.25" fill="none" stroke="#000" stroke-width=".26458px"/>
    <path id="path8800-0-6" d="m811.22 497.19-83.057 147.25" fill="none" stroke="#000" stroke-width=".26458px"/>
    <path id="path8800-3-2" d="m803.09 495.54-83.057 147.25" fill="none" stroke="#000" stroke-width=".26458px"/>
    <path id="path8800-5-5" d="m798.52 494.42-83.057 147.25" fill="none" stroke="#000" stroke-width=".26458px"/>
    <path id="path8800-33" d="m790.93 491.31-75.423 133.71" fill="none" stroke="#000" stroke-width=".26458px"/>
    <path id="path8800-33-5" d="m786.26 491.68-75.423 133.71" fill="none" stroke="#000" stroke-width=".26458px"/>
    <path id="path8800-0-69" d="m793.92 494.64-77.521 137.43" fill="none" stroke="#000" stroke-width=".26458px"/>
    <path id="path8800-5-4" d="m782.84 488.54-69.86 123.85" fill="none" stroke="#000" stroke-width=".26458px"/>
    <path id="path8800-39" d="m768.4 498.12-58.142 103.08" fill="none" stroke="#000" stroke-width=".26458px"/>
    <path id="path8800-0-93" d="m778.48 488.88-66.93 118.66" fill="none" stroke="#000" stroke-width=".26458px"/>
    <path id="path8800-3-28" d="m762.53 500.63-51.982 92.155" fill="none" stroke="#000" stroke-width=".26458px"/>
    <path id="path8800-5-15-9" d="m719.1 632.5 50.177 29.965" fill="none" stroke="#000" stroke-width=".26458px"/>
    <path id="path8800-8" d="m713.96 564.02 114.51 66.741" fill="none" stroke="#000" stroke-width=".26458px"/>
    <path id="path8800-0-8" d="m717.36 561.11 114.13 66.512" fill="none" stroke="#000" stroke-width=".26458px"/>
    <path id="path8800-3-4" d="m712.22 567.49 113.66 66.236" fill="none" stroke="#000" stroke-width=".26458px"/>
    <path id="path8800-5-9" d="m710.99 572.04 111.67 65.047" fill="none" stroke="#000" stroke-width=".26458px"/>
    <path id="path8800-31-2" d="m721.49 549.26 116.58 67.976" fill="none" stroke="#000" stroke-width=".26458px"/>
    <path id="path8800-0-9-9" d="m724.89 546.35 115.87 67.555" fill="none" stroke="#000" stroke-width=".26458px"/>
    <path id="path8800-3-1-7" d="m719.75 552.73 116.25 67.78" fill="none" stroke="#000" stroke-width=".26458px"/>
    <path id="path8800-5-7-8" d="m718.52 557.27c42.897 25.618 73.82 42.442 116.72 68.06" fill="none" stroke="#000" stroke-width=".26458px"/>
    <path id="path8800-9-2" d="m730.14 532.7 116.27 70.467" fill="none" stroke="#000" stroke-width=".26458px"/>
    <path id="path8800-0-0-9" d="m733.54 529.8 114.24 69.255" fill="none" stroke="#000" stroke-width=".26458px"/>
    <path id="path8800-3-6-4" d="m728.41 536.18 116.31 70.493" fill="none" stroke="#000" stroke-width=".26458px"/>
    <path id="path8800-5-1-9" d="m721.37 538.29 121.47 72.538" fill="none" stroke="#000" stroke-width=".26458px"/>
    <path id="path8800-91-2" d="m738.7 521.04 114.1 67.189" fill="none" stroke="#000" stroke-width=".26458px"/>
    <path id="path8800-0-4-5" d="m744.48 519.54c33.775 20.17 75.408 44.082 109.18 64.252" fill="none" stroke="#000" stroke-width=".26458px"/>
    <path id="path8800-3-8-9" d="m741.23 526.1 109.76 65.55" fill="none" stroke="#000" stroke-width=".26458px"/>
    <path id="path8800-5-74-0" d="m734.6 526.39s113.58 67.626 117.14 69.497" fill="none" stroke="#000" stroke-width=".26458px"/>
    <path id="path8800-3-3-3" d="m753.4 514.65 96.502 56.516" fill="none" stroke="#000" stroke-width=".26458px"/>
    <path id="path8800-5-6-0" d="m745.23 515.05 106.06 62.222" fill="none" stroke="#000" stroke-width=".26458px"/>
    <path id="path8800-91-2-4" d="m752.37 505.37 106.62 61.203" fill="none" stroke="#000" stroke-width=".26458px"/>
    <path id="path8800-0-4-5-7" d="m758.15 503.88c33.775 20.17 67.925 38.095 101.7 58.265" fill="none" stroke="#000" stroke-width=".26458px"/>
    <path id="path8800-3-8-9-4" d="m754.9 510.44 102.28 59.563" fill="none" stroke="#000" stroke-width=".26458px"/>
    <path id="path8800-3-3-3-7" d="m767.07 498.99 89.019 50.529" fill="none" stroke="#000" stroke-width=".26458px"/>
    <path id="path8800-5-6-0-5" d="m758.9 499.39 98.574 56.235" fill="none" stroke="#000" stroke-width=".26458px"/>
    <path id="path8800-91-2-4-8" d="m773.7 494.71 79.116 44.739" fill="none" stroke="#000" stroke-width=".26458px"/>
    <path id="path8800-0-4-5-7-8" d="m779.47 493.22c33.775 20.17 40.423 21.631 74.198 41.801" fill="none" stroke="#000" stroke-width=".26458px"/>
    <path id="path8800-3-8-9-4-0" d="m776.22 499.78 74.779 43.099" fill="none" stroke="#000" stroke-width=".26458px"/>
    <path id="path8800-3-3-3-7-8" d="m788.4 488.33 61.517 34.065" fill="none" stroke="#000" stroke-width=".26458px"/>
    <path id="path8800-5-6-0-5-1" d="m784.53 491.91 66.769 36.591" fill="none" stroke="#000" stroke-width=".26458px"/>
    <path id="path8800-59-9" d="m708.37 579.71 108.44 63.114" fill="none" stroke="#000" stroke-width=".26458px"/>
    <path id="path8800-0-6-4" d="m708.49 575.1 111.39 64.876" fill="none" stroke="#000" stroke-width=".26458px"/>
    <path id="path8800-3-2-5" d="m713 587.3 100.1 57.819" fill="none" stroke="#000" stroke-width=".26458px"/>
    <path id="path8800-5-5-6" d="m711.76 591.84 98.475 56.848" fill="none" stroke="#000" stroke-width=".26458px"/>
    <path id="path8800-33-54" d="m708.47 599.36 93.391 53.812" fill="none" stroke="#000" stroke-width=".26458px"/>
    <path id="path8800-33-5-7" d="m708.72 604.03 88.802 51.072" fill="none" stroke="#000" stroke-width=".26458px"/>
    <path id="path8800-0-69-7" d="m711.87 596.45 94.841 54.678" fill="none" stroke="#000" stroke-width=".26458px"/>
    <path id="path8800-5-4-9" d="m711.48 611.68 81.578 46.03" fill="none" stroke="#000" stroke-width=".26458px"/>
    <path id="path8800-39-0" d="m714.72 622.05 67.192 38.166" fill="none" stroke="#000" stroke-width=".26458px"/>
    <path id="path8800-0-93-9" d="m711.71 616.04 76.353 42.909" fill="none" stroke="#000" stroke-width=".26458px"/>
    <path id="path8800-3-28-3" d="m717.08 627.97 59.516 33.582" fill="none" stroke="#000" stroke-width=".26458px"/>
    <path id="path8201" d="m798.25 486.84c-31.38 0.0672-62.712 23.329-79.594 57.803a4.0004 4.0004 0 0 0 0 3e-3c-11.349 23.208-14.815 48.9-9.4676 71.135 0.42201 1.8989 0.90617 3.7692 1.4531 5.6059 4.215 17.568 7.8455 24.409 3.3078 51.275-1.0616 4.7886-1.4328 8.1613-0.90694 11.085 0.2667 1.4827 0.81489 2.9612 1.9715 4.1698 1.1566 1.2086 2.8897 1.8613 4.3269 1.9193 2.8744 0.11602 4.8379-1.0843 6.7841-2.3198 1.8643-1.1834 3.6234-2.6119 5.2095-3.9734 11.469-8.1311 21.065-11.419 30.614-13.727 9.5703-2.313 19.196-3.5524 29.876-7.6078a4.0004 4.0004 0 0 0 1.1374-0.6935c2.3815-0.93311 4.7421-1.9886 7.0719-3.1636 18.902-9.5334 36.011-26.82 47.173-49.612 11.162-22.792 14.328-46.908 10.27-67.686-0.41931-2.1466-0.92204-4.257-1.4981-6.3293-4.8291-18.571-15.827-34.066-32.349-42.158-7.785-3.8124-16.406-5.7454-25.378-5.7263zm0.73483 9.2801c7.4693 0.0359 14.73 1.6413 21.479 4.9465 13.794 6.7551 23.285 19.555 27.774 35.668 0.38496 1.4871 0.73239 2.9981 1.033 4.5372 3.6832 18.855 0.83767 41.311-9.6035 62.632v-3e-3c-11.583 23.617-30.38 43.073-50.939 50.64a4.0004 4.0004 0 0 0-0.0625 0.0558c-14.754 5.4573-29.799 5.4557-42.913-0.96634-13.403-6.5635-22.745-18.833-27.381-34.304-0.10734-0.45008-0.21418-0.88236-0.32144-1.3436a4.0004 4.0004 0 0 0-0.063-0.23667c-0.3441-1.1547-0.65617-2.3264-0.94515-3.5094-0.15806-0.7045-0.30983-1.4125-0.44961-2.128-3.6831-18.855-0.83931-41.309 9.602-62.631 10.441-21.321 26.436-37.339 43.59-45.99 8.5767-4.3257 17.391-6.8201 25.988-7.2884 1.0747-0.0586 2.1462-0.0852 3.2132-0.0801zm-75.23 150.16c5.0646 6.0221 11.241 10.989 18.48 14.534 3.0598 1.4984 6.2053 2.6848 9.4098 3.5864-7.7211 2.5045-15.979 6.2457-25.023 12.671a4.0004 4.0004 0 0 0-0.29663 0.23304c-1.4978 1.2926-3.1248 2.5909-4.4886 3.4566-0.38875 0.24678-0.66384 0.33975-0.99168 0.48937-4e-3 -1.3872 0.21484-3.7604 0.94773-7.0337a4.0004 4.0004 0 0 0 0.0414-0.20772c2.0179-11.942 2.4293-20.496 1.9213-27.729z" color="#000000" fill="#05f" fill-rule="evenodd" stroke="#000" stroke-linecap="round" stroke-linejoin="round" stroke-width="2.1167" style="-inkscape-stroke:none;paint-order:markers stroke fill"/>
    <path id="path9916" d="m712.85 682.18c-0.92538 0.69538-2.6783 1.7091-2.7761 2.0862l12.648 7.4344c0.29667-0.35826 0.29967-1.9352 0.4495-2.9028z"/>
    <path id="rect10963" d="m710.84 686.97 9.2046 5.3607-18.902 31.5c-5.5399 2.2641-5.8831 6.9044-6.6372 11.397l-9.8849 16.729c-6.3666 1.1817-8.049-1.8524-9.2046-5.3607l10.385-17.152c8.2067-0.60832 9.5426-4.4478 6.1245-10.516z" fill="#222" fill-rule="evenodd" stroke="#000" stroke-linecap="round" stroke-width="4" style="paint-order:markers stroke fill"/>
    <path id="path21897" d="m687.81 727.91 6.831 8.033" fill="none" stroke="#000" stroke-width=".26458px"/>
    <path id="path21899" d="m692.13 721.93 5.4893 6.988" fill="none" stroke="#000" stroke-width=".26458px"/>
    <path id="path21901" d="m694.18 715.3 8.0036 8.3344" fill="none" stroke="#000" stroke-width=".26458px"/>
    <path id="path21897-41" d="m675.78 744.55 7.6729 9.062" fill="none" stroke="#000" stroke-width=".26458px"/>
    <path id="path21899-3" d="m679.81 738.66 8.2021 9.3266" fill="none" stroke="#000" stroke-width=".26458px"/>
    <path id="path21901-65" d="m682.99 732.97 8.0036 8.3344" fill="none" stroke="#000" stroke-width=".26458px"/>
    <path id="path21897-0" d="m697.16 708.11 8.3986 9.9794" fill="none" stroke="#000" stroke-width=".26458px"/>
    <path id="path21899-5" d="m700.98 702.31 8.3078 10.21" fill="none" stroke="#000" stroke-width=".26458px"/>
    <path id="path21901-6" d="m703.98 696.42 9.1262 9.3634" fill="none" stroke="#000" stroke-width=".26458px"/>
    <path id="path21897-4" d="m708.22 690.8 7.86 9.6232" fill="none" stroke="#000" stroke-width=".26458px"/>
    <path id="path21899-52" d="m712.44 685.48 8.2021 9.3266" fill="none" stroke="#000" stroke-width=".26458px"/>
   </g>
  </g>
 </g>
</svg>
