<?xml version="1.0" encoding="UTF-8"?>
<svg width="1200mm" height="1200mm" version="1.1" viewBox="0 0 1200 1200" xmlns="http://www.w3.org/2000/svg" xmlns:xlink="http://www.w3.org/1999/xlink">
 <defs>
  <filter id="filter25156-1" x="-.057051" y="-.032511" width="1.114" height="1.0605" color-interpolation-filters="sRGB">
   <feGaussianBlur stdDeviation="0.1605801"/>
  </filter>
  <filter id="filter48371-3-3-3" x="-.04939" y="-.0718" width="1.0988" height="1.1436" color-interpolation-filters="sRGB">
   <feGaussianBlur stdDeviation="0.1605801"/>
  </filter>
 </defs>
 <g>
  <g transform="matrix(4.0726 0 0 4.0726 140.29 73.878)" fill="#ea0d0d" stroke="#000">
   <path d="m96.776 190.9 0.03041 17.63c0.0876 2.0213 11.565 0.59564 12.389 0.16974l0.27857-4.6271 0.41751 4.6524c1.7278 1.2147 9.1777 0.27137 11.308 0.17381 0.38587-0.0693 0.53299-0.22333 0.55505-0.8077 0.0253-1.3373-0.35159-11.578-0.52738-17.366 0 0-2.7538 0.16774-11.796 0.22524-10.731 0.0682-11.63-0.0174-11.63-0.0174z" fill="#482806" stroke-width=".40429"/>
   <g transform="translate(.2152 -.49518)">
    <g fill="none" stroke-width=".26458px">
     <path d="m102.79 192.68s-0.51306 3.1671-6.1808 6.1118"/>
     <path d="m115.05 192.47s2.4312 4.7779 6.0634 5.8786"/>
    </g>
    <path d="m109.31 200.51-0.16955 0.14616-0.0822 4.3513 0.42738-0.0197z" color="#000000" fill="#000" stroke="none" style="-inkscape-stroke:none"/>
    <path d="m96.609 192.57 12.501 0.03" fill="#ea0d0d" stroke-width=".26458px"/>
    <path d="m109.11 192.6 11.887-0.25028" fill="#ea0d0d" stroke-width=".26458px"/>
   </g>
  </g>
  <g transform="matrix(4.0726 0 0 4.0726 140.29 73.878)" stroke="#000">
   <g stroke-width=".26458px"></g>
  </g>
  <path transform="matrix(4.0726 0 0 4.0726 -1682.7 -231.81)" d="m557.08 278.42-3.8878 0.6168 2.2441 1.2733-1.921 0.77858 2.2142 0.88118-2.6405 0.96198 3.7284 0.8304 0.27873-4.6269 0.41735 4.6522 3.134-0.79968-2.3137-1.0224 2.0028-1.0352-2.1667-0.80157 2.7221-1.3966z" fill-opacity=".99763" filter="url(#filter48371-3-3-3)" opacity=".18567" stroke-width=".26458px" style="mix-blend-mode:normal"/>
  <g stroke="#000">
   <path transform="matrix(4.0726 0 0 4.0726 -1682.7 -231.81)" d="m547.37 284.46-2.9755-0.7023c-0.22575-4.527 0.0518-10.979 3e-3 -17.795 1.132 0.57281 10.173-0.42273 8.8523 0.35377-2.132 1.2536-7.7868 1.971-7.384 3.5944 0.79692 3.2119 0.24197 6.8813 0.30532 9.1788 0.0191 0.69265 1.9087 1.1976 1.9912 1.6594-1.0245 0.68614-1.5754 1.6752-1.5754 1.6752s1.3084 0.38733 2.0849 0.78604c-1.1963 0.95275-3.8645 0.34904-1.3014 1.2501z" filter="url(#filter25156-1)" opacity=".18567" stroke-width=".26458px" style="mix-blend-mode:normal"/>
   <g stroke-width="1.0775px">
    <path d="m585.64 852.18 0.49649 52.799" fill="none"/>
    <path d="m534.43 921.38-0.0244 2.417c7.4707 6.8202 43.352 3.2079 50.59 0.0204l0.13725-2.7725c-18.492 5.2895-36.756 5.5942-48.901 1.0626-1.6341-52.502-2.3361-76.896-1.8016-0.72748z" fill="#fff"/>
    <path d="m587.86 921.51-0.0245 2.417c7.4708 6.8202 41.276 4.0727 48.514 0.88522l0.0419-2.9273c-1.0128-38.811-1.9277-67.457-1.9353 0.46749-18.55 4.3336-34.867 3.882-46.597-0.84258z" fill="#fff"/>
   </g>
   <path d="m565.08 851.62c-1.7777 24.783-2.4413 49.363-0.2855 73.431" fill="none" stroke-dasharray="2.01592, 0.671972" stroke-width=".67197"/>
   <path d="m604.51 850.47c3.5614 26.073 4.0752 50.76 3.7144 75.05" fill="none" stroke-dasharray="2.01592, 0.671972" stroke-width=".67197"/>
  </g>
 </g>
</svg>
