<?xml version="1.0" encoding="UTF-8"?>
<svg id="svg5" width="1200mm" height="1200mm" version="1.1" viewBox="0 0 1200 1200" xmlns="http://www.w3.org/2000/svg" xmlns:xlink="http://www.w3.org/1999/xlink">
 <g id="layer60" transform="translate(19.4 11.241)">
  <g id="layer192">
   <g id="layer142">
    <g id="g4-1" transform="matrix(4.1461 0 0 4.1461 114.51 46.945)" fill="#f7e2ab" style="mix-blend-mode:normal">
     <path id="path2-3" transform="scale(.26458)" d="m396.2 193.95c-8.6417 0-17.283 0.31408-22.133 0.94141-22.011 2.8471-40.957 8.5314-60.318 18.096-21.237 10.491-39.465 24.596-54.678 42.309-20.543 23.919-33.031 51.961-37.584 84.393-1.0111 7.204-0.85442 31.258 0.25196 38.672l0.87109 5.8379-1.043 0.72851c-4.8569 3.4008-6.548 6.3027-6.2305 10.691 0.42059 5.815 4.5315 9.8832 10.742 10.631 1.7919 0.21574 3.3654 0.50009 3.4961 0.63086 0.1307 0.13066 0.56997 2.6073 0.97657 5.5039 2.3414 16.68 8.1134 29.342 19.68 43.17 17.489 20.908 47.675 38.337 82.732 47.771 17.727 4.7705 43.515 7.706 59.36 7.7098 3.9137 9.5e-4 7.0805-0.21 7.2918 0.34056 11.565-0.14831 12.448-1.0714 20.947-1.2509 0-0.69407 3.1512 0.0555 11.581-1.0861 34.744-4.7049 64.698-16.67 89.112-33.767 6.4548-4.5204 9.4537-6.8588 15.438-12.627 10.384-10.008 16.851-19.209 21.61-30.757l2.6275-4.8838 3.1814-0.68466c5.6539-1.2168 7.5878-2.7903 8.5254-7.7158 0.79718-4.1878-1.4637-9.4919-5.773-10.783-1.0988-0.3292-2.068-0.32037-2.3118-0.61442-0.27659-0.33324 0.567-3.5211 1.4537-6.6796 1.8201-6.4833 3.561-14.765 4.6602-22.166 1.1022-7.4209 1.2567-31.486 0.24805-38.672-4.5527-32.432-17.041-60.473-37.584-84.393-4.9084-5.715-14.73-15.473-19.865-19.738-26.69-22.165-59.051-35.999-95.131-40.666-4.8497-0.62733-13.493-0.94141-22.135-0.94141zm-73.223 576.28c0.27209 1.0693-5e-3 1.519-1.8887 3.0625-2.6426 2.1654-2.6075 4.4541-2.2515 8.9394 0.28876 3.6355 0.27059 4.3299 3.2551 6.2226 2.9846 1.8928 4.6699 0.71567 7.2247-0.26005 5.2796-2.0163 6.3979-3.1289 5.2363-8.3196-0.30844-1.3784-0.47845-2.1861-0.90588-2.7964-1.3098-1.87-3.68-4.7034-5.7428-4.7034-2.6921-0.0802-3.1249 0.12911-4.9273-2.1452zm169.89-1.3078c-2.0628 0-4.1227 1.2616-5.4325 3.1316-0.42743 0.61024-1.3044 2.3285-1.6128 3.7069-1.1616 5.1907 0.75349 7.9769 6.033 9.9932 2.5548 0.97568 3.4268 0.51673 6.4115-1.3761 2.9845-1.8928 3.248-1.9755 3.5368-5.611 0.35622-4.4852 0.12016-5.4625-2.5224-7.6279-2.7989-1.214-4.2088-0.81674-6.4136-2.2166z" fill="#f7e2ab"/>
    </g>
   </g>
  </g>
 </g>
</svg>
