<?xml version="1.0" encoding="UTF-8"?>
<svg id="svg5" width="1200mm" height="1200mm" version="1.1" viewBox="0 0 1200 1200" xmlns="http://www.w3.org/2000/svg" xmlns:xlink="http://www.w3.org/1999/xlink">
 <g id="layer60" transform="translate(19.4 11.241)">
  <g id="layer263">
   <g id="layer258">
    <path id="path114505" d="m615.6 837.08c50.11 48.669 88.973 105.52 161.23 138.08-84.887-13.78-146.62-39.688-185.21-77.721z" fill="#2b989c" stroke="#000" stroke-width="2"/>
    <path id="ellipse25332-8" d="m731.14 956.14c0 2.2449-0.90994 4.0648-2.0324 4.0648-2.1404 0-5.0488-1.8199-2.0324-4.0648 1.8009-1.3403 0.90994-4.0648 2.0324-4.0648 1.1225-1e-5 2.0324 1.8199 2.0324 4.0648z" fill="#234849" fill-rule="evenodd" stroke-linecap="round" stroke-linejoin="round" stroke-width="2" style="paint-order:markers stroke fill"/>
    <path id="ellipse25326-1" d="m641.96 890.15c4.477 6.6264-3.363 11.706-8.6377 11.686-4.7704-0.0175-8.6377-5.2322-8.6377-11.686 0-6.2868 3.8672-8.8054 8.6377-11.686 4.0836-2.4661 5.0244 6.3384 8.6377 11.686z" fill="#234849" fill-rule="evenodd" stroke-linecap="round" stroke-linejoin="round" stroke-width="2" style="paint-order:markers stroke fill"/>
    <path id="ellipse25320-1" d="m655.3 917.78c0 4.4899-3.4324 8.5408-7.6215 8.1296-8.5979-0.84398-8.9952-3.823-7.6215-8.1296 1.0705-3.356 4.515-6.1999 7.6215-8.1296 3.5756-2.2211 7.6215 3.6398 7.6215 8.1296z" fill="#234849" fill-rule="evenodd" stroke-linecap="round" stroke-linejoin="round" stroke-width="2" style="paint-order:markers stroke fill"/>
    <path id="ellipse25323-7" d="m636.35 913.24c-1.1041 2.5798-2.5023 5.081-5.5891 5.081s-4.7518-2.4026-5.5891-5.081c-1.4838-4.7464 1.0511-6.3574 5.5891-5.081 3.1586 0.88838 7.4373 0.76271 5.5891 5.081z" fill="#234849" fill-rule="evenodd" stroke-linecap="round" stroke-linejoin="round" stroke-width="2" style="paint-order:markers stroke fill"/>
    <path id="path116057" d="m599.89 832.53 48.576-15.503-10.955 41.341 40.777 2.445-6.8775 33.935 27.124 0.55527 1.5368 23.864 23.204 2.8896 3.7384 19.923 20.479 3.5348 3.706 16.206c-59.404-38.767-104.67-84.308-151.31-129.19z" fill="#234849" stroke="#000" stroke-width="2"/>
    <path id="path118920" d="m597.2 838.94 3.1006 72.347c49.161 23.989 87.03 52.296 171.36 62.839 0 0-82.671-29.597-111.41-55.397-20.199-18.131-35.76-63.252-35.76-63.252l-25.218-25.425z" opacity=".19196" stroke="#000" stroke-width=".26458px"/>
    <path id="path119456" d="m530.02 617.56 24.805 138.91 31.419-0.82682 16.123-135.6-3.3073-15.71-0.82682 1.2402" fill="none" stroke="#000" stroke-width=".26458px"/>
   </g>
  </g>
 </g>
</svg>
