<?xml version="1.0" encoding="UTF-8"?>
<svg id="svg5" width="1200mm" height="1200mm" version="1.1" viewBox="0 0 1200 1200" xmlns="http://www.w3.org/2000/svg" xmlns:xlink="http://www.w3.org/1999/xlink">
 <defs id="defs77">
  <filter id="filter48371" x="-2.5673e-5" y="-1.7207e-5" width="1.0001" height="1" color-interpolation-filters="sRGB">
   <feGaussianBlur id="feGaussianBlur55" stdDeviation="6.8815768e-05"/>
  </filter>
 </defs>
 <g id="layer60" transform="translate(19.4 11.241)">
  <g id="layer17">
   <g id="layer166">
    <path id="path5577" d="m520.48 801.03 90.415-0.27447c10.382 48.306 9.1459 41.573 8.6756 80.076-0.58845 48.167 18.798 194.51 19.628 281.9-11.405 2.0174-29.493 2.4204-43.278-0.082l-14.855-142.84-13.897-131-6.522 130.92-4.0956 82.217-3.1262 62.756c-12.884 1.3364-28.475 1.6237-46.105-0.5016 0 0 4.1164-36.424 4.8731-65.474 2.0385-78.266 2.0028-207.7 0.25955-219.54-4.4606-30.286 8.0276-78.164 8.0276-78.164z" fill="#707070" stroke="#000" stroke-width="1.097px"/>
    <path id="path12656-3" transform="matrix(4.1461 0 0 4.1461 114.51 46.946)" d="m109.18 203.05-3.2896-1.1127 2.2414 2.1115c-0.3904 9.1911-0.49142 16.878-0.16992 22.369l1.2181-23.368 2.1107 20.901-1.3631-19.882 2.3959-2.5638z" filter="url(#filter48371)" opacity=".13415" stroke-width=".26458px" style="mix-blend-mode:normal"/>
    <path id="path12649" d="m562.97 804.55c-0.47083 0.0207-0.55454 0.5579-0.0249 0.6545l14.908-0.0249z" fill-opacity=".45921" stroke="#000" stroke-width=".41461"/>
    <path id="path12649-0" d="m563.03 811.25c-0.47083 0.0207-0.55454 0.5579-0.0249 0.6545l14.908-0.0249z" fill-opacity=".45921" stroke="#000" stroke-width=".41461"/>
    <path id="path8715" d="m516.57 816.68 98.05-0.0373" fill="none" stroke="#000" stroke-width="1.1057px"/>
    <ellipse id="path13085-9" cx="564.6" cy="811.51" rx="1.5441" ry="1.5519" fill="#707070" stroke="#000" stroke-linecap="round" stroke-linejoin="round" stroke-width=".26812"/>
    <path id="path8997" d="m558.92 800.99c0.2695 16.46 3.6942 40.435 6.6686 49.767 1.6701 16.064 0.56428 31.705 2.1208 44.151" fill="none" stroke="#000" stroke-width="1.0987"/>
    <ellipse id="path32504" cx="564.52" cy="805.12" rx="1.7744" ry="1.7174" opacity=".11789"/>
    <ellipse id="path32504-2" cx="564.61" cy="811.81" rx="1.7744" ry="1.7174" opacity=".11789"/>
    <ellipse id="path13085" cx="564.52" cy="804.89" rx="1.5441" ry="1.5519" fill="#707070" stroke="#000" stroke-linecap="round" stroke-linejoin="round" stroke-width=".26812"/>
    <ellipse id="path10335" cx="564.53" cy="804.89" rx="1.0666" ry="1.212" fill="#1e1e1e" stroke-linecap="round" stroke-linejoin="round" stroke-width="20.73"/>
    <ellipse id="path10335-0" cx="564.57" cy="811.51" rx="1.0666" ry="1.212" fill="#1e1e1e" stroke-linecap="round" stroke-linejoin="round" stroke-width="20.73"/>
    <ellipse id="path11517" cx="569.11" cy="805.14" rx="1.6968" ry="1.6362" fill-opacity="0" stroke-linecap="round" stroke-linejoin="round" stroke-width="20.73"/>
    <path id="path15409" d="m603.45 800.81 2.3654 15.666 2.1254 2.1e-4 -2.7082-15.632z" fill="none" stroke="#000" stroke-width="1.097px"/>
    <path id="path15411" d="m523.92 801.05-2.9482 15.563 1.954 0.0332 2.8453-15.632z" fill="none" stroke="#000" stroke-width="1.097px"/>
    <path id="path17783" d="m528.95 1166 1.0932 0.041 7.5634-206.14c-4.8965 64.326-6.1991 139.12-8.6566 206.1z" color="#000000" stroke-width="4.1461" style="-inkscape-stroke:none"/>
    <path id="path17785" d="m601.87 960.74 16.293 203.81 1.0932-0.089c-2.2504-20.291-12.601-175.96-17.386-203.73z" color="#000000" stroke-width="4.1461" style="-inkscape-stroke:none"/>
    <path id="path20843" d="m537.06 959.93c-5.1774 61.418-3.9867 127.93-15.847 184-6.1404 0.3226-3.9214-12.439-4.6622-20.568 0 0-1.7903-22.52-1.3712-28.796 0.56336-8.4364 6.6152-112.61 4.6622-113.81l0.80098-100.92c0.0957-1.6702 2.6316-1.0905 3.9297-1.5699 3.528 0.0373 7.8928 0.28525 12.273 0.74737-3.1995-0.84899-9.1416-3.824-12.341-5.7592-3.7998-8.1078-2.4955-9.7801-2.3311-12.89 2.7092-2.7674 8.6037-1.8944 13.712-1.9197-3.1081-1.2468-9.6443-4.0708-12.752-6.3077 0.26261-6.3199-2.5018-14.48 2.0988-18.85 6.259-5.9459 9.5189-11.23 8.6016-10.546-3.3481 2.4986-5.5891 0.67884-6.3801-0.27032 0.14283-6.2002 3.843-14.338 5.7582-21.069l-12.735-0.36485c-4.6863 26.483-10.676 52.985-7.4907 79.348 2.0855 37.26 0.97185 75.242 0.7168 112.61-0.39583 57.997-1.4553 115.2-6.3864 171.22 15.219 1.3457 30.518 2.0583 46.105 0.5014 0.85625-11.834 3.938-52.528 2.3403-53.288-2.7005-1.2856 4.2096 35.525-12.291 34.754l-12.804-0.5984 6.3942-185.65" opacity=".14837"/>
    <path id="path19359" d="m533.92 822.57c-4.4067 8.6668-12.444 13.151-18.94 19.049l0.7369 0.80977c2.7587-3.3707 16.871-12.335 18.203-19.859z" color="#000000" stroke-width="4.1461" style="-inkscape-stroke:none"/>
    <path id="path19361" d="m594.62 822.39c6.1723 7.6563 12.215 15.502 22.01 21.216l0.55064-0.94747c-5.3489-2.2676-18.134-16.382-22.56-20.269z" color="#000000" stroke-width="4.1461" style="-inkscape-stroke:none"/>
    <path id="path25261" d="m561.53 987.83c-2.6953 11.9-5.162 23.876-8.9005 35.426l-4.2639 12.937c7.4785-14.594 8.7578-30.104 13.441-36.846z" opacity=".12195"/>
    <path id="path26305" d="m562.12 985.7c-1.655 3.9947-5.5698 25.499-9.4862 37.558 3.4137-8.0628 5.6088-25.145 9.8327-33.207z" color="#000000" stroke-width="4.1461" style="-inkscape-stroke:none"/>
    <path id="path27678" d="m602.41 960.7 9.9909 185.81c-8.7629 0.8216-14.483-0.8231-14.575-5.9693l-14.033-94.458 12.122 116.57c14.469 1.2409 28.93 2.2672 43.278 0.081l-0.53588-21.136c-0.49608 6.7041-15.212 9.1037-20.223 4.6501l-16.025-185.54" opacity=".14024"/>
    <path id="path30588" d="m616.18 852.24c0.26908 0.13848-20.462 8.8243-18.325 7.9274 1.2895-0.54123 8.2026-1.7435 11.328-3.4666 3.1254-1.7231 6.997-4.4608 6.997-4.4608" opacity=".14634"/>
    <path id="path30590" d="m597.28 876.35c5.3052-1.6378 10.61-3.1954 15.916-5.4552 0 0-4.6825 3.1712-8.1366 4.0957-2.2094 0.59135-7.7798 1.3595-7.7798 1.3595z" opacity=".14634"/>
    <path id="path31906" d="m602.07 801.24c1.1541 4.9472 2.2388 9.8942 2.2509 14.839l1.4972 0.39886-2.3654-15.666z" opacity=".11789"/>
   </g>
  </g>
 </g>
</svg>
