<?xml version="1.0" encoding="UTF-8"?>
<svg id="svg5" width="1200mm" height="1200mm" version="1.1" viewBox="0 0 1200 1200" xmlns="http://www.w3.org/2000/svg" xmlns:xlink="http://www.w3.org/1999/xlink">
 <defs id="defs77">
  <filter id="filter8667-9-7" x="-.023122" y="-.0078975" width="1.0462" height="1.0158" color-interpolation-filters="sRGB">
   <feGaussianBlur id="feGaussianBlur29-7-7-8" stdDeviation="0.073773287"/>
  </filter>
  <filter id="filter8266-6-8" x="-.0067157" y="-.0015755" width="1.0258" height="1.0032" color-interpolation-filters="sRGB">
   <feGaussianBlur id="feGaussianBlur26-3-5-5" stdDeviation="0.073773287"/>
  </filter>
 </defs>
 <g id="layer60" transform="translate(19.4 11.241)">
  <g id="layer16">
   <g id="layer268">
    <path id="path239247" d="m537.14 669.98c0.52888-3.4777-30.147 86.188-29.549 82.159 0.5047-3.3973-21.903-2.973-19.483-12.924 3.8913-16.006 19.5-74.354 39.325-106.17 4.8016-7.7072 8.5442-12.966 16.7-21.523 4.7506-4.2849 7.4115-3.3117 7.4115-3.3117l23.191-1.3316c5.0723-0.4467 17.09 5.8682 28.637 21.801 12.867 17.755 22.866 65.382 36.752 99.456-3.301 6.7837-14.293 12.269-20.191 16.24-2.3622-2.0216-23.255-79.399-22.802-76.834 18.344 70.859 18.586 155.22 21.923 219.96 1.8749 35.725 4.1418 80.163 4.5301 95.964-6.6645-1.9456-33.945 3.2207-55.93-1.3973-24.647-5.1772-55.048 2.3546-63.417 0.045-1.8112-8.9798 4.1028-54.532 6.1123-93.721 2.1453-80.337 16.358-157.63 26.793-218.41z" fill="#372f2f" fill-opacity=".99763" stroke="#000" stroke-width="3.002"/>
    <g id="g223727" transform="translate(-1.0236 -.18982)" fill="none" stroke="#000"></g>
    <path id="path223729" d="m537.14 669.98c0.52888-3.4777-30.147 86.188-29.549 82.159 0.5047-3.3973-21.903-2.973-19.483-12.924 3.8913-16.006 19.5-74.354 39.325-106.17 4.8016-7.7072 8.5442-12.966 16.7-21.523 4.7506-4.2849 7.4115-3.3117 7.4115-3.3117l23.191-1.3316c5.0723-0.4467 17.09 5.8682 28.637 21.801 12.867 17.755 22.866 65.382 36.752 99.456-3.301 6.7837-14.293 12.269-20.191 16.24-2.3622-2.0216-23.255-79.399-22.802-76.834 18.344 70.859 18.586 155.22 21.923 219.96 1.8749 35.725 0.60971 81.488 0.99798 97.288-6.6645-1.9456-30.413 1.8961-52.398-2.7219-24.647-5.1772-51.075 4.8565-59.444 2.547 0.21531-9.5588-1.107-57.627 0.37257-96.665 4.6429-94.698 18.124-157.18 28.559-217.97z" fill="#5ac6ff" stroke="#000" stroke-width="3.002"/>
    <path id="path223731" d="m570.03 614.54 0.0212 112.99c-0.42192 0.0394-2.6916 0.2468-1.5782 0.2146l-0.48731-117.38" fill-opacity=".99763" opacity=".099594" stroke="#000" stroke-width=".30765"/>
    <path id="path223733" d="m540.22 614.64c4.5113 1.3204 19.586 1.6386 25.117 1.0549l-0.11766-4.9522c-4.058-2.895-18.03-2.0361-21.827-3.439z" fill="#5ac6ff" stroke="#000" stroke-width="1.5"/>
    <path id="path223735" d="m543.39 607.31 18.499 2.1822 6.7602-0.13268c3.6278-1.6689 12.505 0.43849 11.652-3.222-1.9312 1.9393-25.378 3.0566-36.913 1.1725z" stroke="#000" stroke-width="1.097px"/>
    <path id="path223737" d="m489.86 725.21c8.4058 4.8965 15.046 12.051 24.793 11.918 3.0478-0.11734-4.4222 10.841-6.6332 16.261-8.0264-1.5983-16.127-2.4508-23.448-11.107z" fill="#5ac6ff" stroke="#000" stroke-width="2.3425"/>
    <path id="path223771" d="m567.2 615.59c8.8018-0.174 15.143 0.0825 21.714-2.2566 0.77662-1.7303-2.8195-6.2625-3.5888-7.6369l-5.0216 0.44358c-7.5726 2.4185-2.5004 0.11229-13.274 4.1985z" fill="#5ac6ff" stroke="#000" stroke-width="1.5"/>
    <g id="g223775" transform="matrix(4.1461 0 0 4.1461 113.48 46.758)" stroke="#000" stroke-width=".26458px">
     <path id="path223773" transform="matrix(.063815 0 0 .063815 -32.297 -14.035)" d="m2291.1 2332.5-20.609 1.5879-139.51 4.416-0.033 0.1035-11.959 27.625c-93.214 115.72-130.63 277.41-190.32 417.92l-17.881 57.527 17.287 15.32c1.274-23.62 10.536-43.301 23.545-63.055 3.9959-3.2375-16.99-13.939-16.99-13.939l13.272 3.2148c54.532-126.27 99.748-272.89 189.06-397.85 0.2597-0.039 0.5188-0.078 0.7774-0.1172 41.823 5.0651 85.094-14.465 85.094-14.465-0.1338-0.3583-0.3484-0.6999-0.5722-1.0391 52.144-12.648 45.064-22.022 68.84-37.248zm-186.85 232.39c-1.2703 0.03-2.8346 0.8368-4.7637 2.7441-16.82 16.629-52.924 166.81-53.398 168.58 0 0 64.292-156.07 63.547-153.53 0-0.011-3e-4 -0.012 0-0.016 0 0 0.7359-17.924-5.3848-17.783zm5.3848 17.799c-14.794 49.962-62.496 245.37-66.984 356.41 35.076-115.51 62.673-240.47 66.984-356.41zm-65.871 375.32c-15.327 64.198-37.756 247.08-45.199 465.51-2.683 78.735 7.5323 315.4 5.3282 337.19l276.15-1.9687c0.2815-566.34-29.051-253.28-67.996-55.746-13.823 70.109-100.61-14.172-100.61-14.172-38.359-78.133-67.579-429.62-67.674-730.81z" filter="url(#filter8266-6-8)" opacity=".11179" stroke-width="4.146px" style="mix-blend-mode:normal"/>
    </g>
    <path id="path223777" d="m641.03 725.31c-6.9356 8.084-15.623 11.978-24.017 18.047 3.5853 6.38 5.5197 11.589 8.4991 16.114 4.5864-2.048 22.17-7.8734 23.317-18.321z" fill="#5ac6ff" stroke="#000" stroke-width="2.5463"/>
    <path id="path223779" transform="matrix(4.1461 0 0 4.1461 113.48 46.756)" d="m116.9 149.48 2.866 8.3338 3.0457 9.5196c0.67599 1.8023 0.58032 3.3069 1.7457 4.0948l-1.0618 0.47112-2.0499-3.8865 0.40579-0.78049z" filter="url(#filter8667-9-7)" opacity=".18892" style="mix-blend-mode:normal"/>
    <path id="path241730" d="m565.94 616.19 1.5618 0.41642 0.89591 112.3" fill="none" stroke="#000" stroke-width=".26458px"/>
    <circle id="circle223761" cx="567.78" cy="717.7" r="2.0842" fill="#e9e9e9" fill-opacity=".99763" stroke="#000" stroke-linejoin="round" stroke-width=".66843"/>
    <circle id="circle223763" cx="567.38" cy="685.94" r="2.0842" fill="#e9e9e9" fill-opacity=".99763" stroke="#000" stroke-linejoin="round" stroke-width=".66843"/>
    <circle id="circle223765" cx="567.09" cy="652.72" r="2.0842" fill="#e9e9e9" fill-opacity=".99763" stroke="#000" stroke-linejoin="round" stroke-width=".66843"/>
    <circle id="circle223767" cx="566.85" cy="619.34" r="2.0842" fill="#e9e9e9" fill-opacity=".99763" stroke="#000" stroke-linejoin="round" stroke-width=".66843"/>
    <circle id="circle223761-1" cx="567.91" cy="726.81" r="2.0842" fill="#e9e9e9" fill-opacity=".99763" stroke="#000" stroke-linejoin="round" stroke-width=".66843"/>
    <circle id="circle223763-1" cx="567.51" cy="695.05" r="2.0842" fill="#e9e9e9" fill-opacity=".99763" stroke="#000" stroke-linejoin="round" stroke-width=".66843"/>
    <circle id="circle223765-2" cx="567.22" cy="661.83" r="2.0842" fill="#e9e9e9" fill-opacity=".99763" stroke="#000" stroke-linejoin="round" stroke-width=".66843"/>
    <circle id="circle223767-1" cx="566.98" cy="628.45" r="2.0842" fill="#e9e9e9" fill-opacity=".99763" stroke="#000" stroke-linejoin="round" stroke-width=".66843"/>
   </g>
  </g>
 </g>
</svg>
