<?xml version="1.0" encoding="UTF-8"?>
<svg width="1200mm" height="1200mm" version="1.1" viewBox="0 0 1200 1200" xmlns="http://www.w3.org/2000/svg" xmlns:xlink="http://www.w3.org/1999/xlink">
 <g>
  <g stroke="#000">
   <path d="m317.08 445.48c3.5491 68.608 54.026 137.57 113.43 172.08 33.272 19.329 76.388 19.535 115.87 12.156-6.5614 6.7824-13.647 17.881-20.176 35.991-43.018 149.35-139.38 326.06-164.4 459.96 68.41-38.778 391.31 29.113 438.28-25.615-41.67-92.338-58.171-121.41-84.867-197.9-32.126-92.05-52.815-229.62-93.63-271.8 24.462 3.9727 48.681 4.3026 70.979 0.76313 48.331-7.6721 78.22-19.513 102.73-57.201 10.378-26.308 17.538-45.231 17.552-60.155 0.10233-110.15-103.71 58.726-236.03 47.938-140.41-11.448-253.67-182.1-259.73-116.2z" fill="#e00c0c" stroke-width="2"/>
   <path d="m366.71 451.91s-13.46-3.4274-19.34-0.77211c-7.7606 3.5045-16.114 19.822-16.114 19.822l96.052 141.2 119.02 16.804-95.051 242.89s28.899 112.58 26.936 169.87c-0.83998 24.526-16.478 71.755-16.478 71.755l214.78 8.7097 65.827-3.428s-23.693-68.504-29.822-104.06c-8.1158-47.084-8.9221-143.06-8.9221-143.06l-34.846-138.41-47.708-105.46 79.419 3.0901 110.76-113.75s3.7856-26.43-3.7418-35.173c-10.539-12.24-32.134 0.26848-32.134 0.26848 13.991-1.8887 25.196 0.25919 5.1931 47.626 0 0-49.391 38.54-62.113 50.888s-139.86 10.263-192.33-8.2319-113.75-83.816-113.75-83.816z" opacity=".1626" stroke-width=".26458px"/>
  </g>
 </g>
</svg>
