<?xml version="1.0" encoding="UTF-8"?>
<svg width="1200mm" height="1200mm" version="1.1" viewBox="0 0 1200 1200" xmlns="http://www.w3.org/2000/svg" xmlns:xlink="http://www.w3.org/1999/xlink">
 <defs>
  <filter id="filter66628-2" x="-.019057" y="-.0072377" width="1.0381" height="1.0145" color-interpolation-filters="sRGB">
   <feGaussianBlur stdDeviation="0.14670313"/>
  </filter>
  <linearGradient id="linearGradient3198-7" x1="52.914" x2="158.63" y1="87.424" y2="87.424" gradientTransform="translate(-.28257 -.47617)" gradientUnits="userSpaceOnUse">
   <stop stop-opacity=".21862" offset="0"/>
   <stop stop-color="#402412" stop-opacity="0" offset="1"/>
  </linearGradient>
  <filter id="filter66628-6" x="-.032012" y="-.0081386" width="1.064" height="1.0163" color-interpolation-filters="sRGB">
   <feGaussianBlur stdDeviation="0.14670313"/>
  </filter>
  <filter id="filter65283-6" x="-.030928" y="-.012894" width="1.0619" height="1.0258" color-interpolation-filters="sRGB">
   <feGaussianBlur stdDeviation="0.37262907"/>
  </filter>
  <linearGradient id="linearGradient306715" x1="66.534" x2="133.42" y1="187.58" y2="187.71" gradientTransform="matrix(4.134 0 0 4.1461 115.52 46.946)" gradientUnits="userSpaceOnUse" xlink:href="#linearGradient3198-7"/>
  <linearGradient id="linearGradient306717" x1="66.534" x2="133.42" y1="187.58" y2="187.71" gradientTransform="matrix(3.6787 0 0 4.1461 176.72 46.946)" gradientUnits="userSpaceOnUse" xlink:href="#linearGradient3198-7"/>
  <linearGradient id="linearGradient306719" x1="102.58" x2="103.75" y1="182.6" y2="182.6" gradientTransform="translate(.62275 .13839)" gradientUnits="userSpaceOnUse" xlink:href="#linearGradient3198-7"/>
  <linearGradient id="linearGradient306721" x1="102.24" x2="103.41" y1="166.21" y2="166.21" gradientTransform="translate(.62275 .13839)" gradientUnits="userSpaceOnUse" xlink:href="#linearGradient3198-7"/>
  <linearGradient id="linearGradient306723" x1="102.03" x2="103.2" y1="198.04" y2="198.04" gradientTransform="translate(.62275 .13839)" gradientUnits="userSpaceOnUse" xlink:href="#linearGradient3198-7"/>
 </defs>
 <g transform="translate(19.4 11.241)">
  <path d="m473.43 762.85c-4.943 50.458-8.873 80.869-10.055 130.72l18.661-1.8662s19.212-112.98 26.412-137.02c-0.47328 9.4531 0.0419 27.885-3.2527 41.001-3.3994 34.215-5.6774 72.048-13.913 110.43 8.9088 12.224 34.819-6.2297 58.433-6.4186 0.27475-8.0239 1.8579-28.889 3.6443-54.487 4.023-57.647-8.0592-139.47-0.79165-234.67-4.372 0.26369-26.065 17.161-54.604 26.96-8.101 25.865-19.011 96.081-24.537 125.34z" fill="#22577a" stroke="#020200" stroke-width="2.3425"/>
  <path d="m473.4 762.85c-4.9286 50.458-8.8472 80.869-10.025 130.72l18.607-1.8662s19.156-112.98 26.335-137.02c-0.4719 9.4531 0.0418 27.885-3.2433 41.001-3.4487 39.171-4.7566 65.114-13.658 110.42 8.7139 9.9657 56.308-9.863 58.36-6.581 6.5696-17.169 0.611-23.689 3.4081-63.849 3.9985-57.411-8.07-130.6-0.87443-225.13-4.3593 0.26369-25.989 17.161-54.445 26.959-8.0774 25.865-18.955 96.081-24.465 125.34z" fill="url(#linearGradient306715)" opacity=".27971" stroke-width="4.14"/>
  <g transform="matrix(4.1461 0 0 4.1461 114.51 46.946)">
   <path transform="matrix(-1,0,0,1,183.34,-1.9687)" d="m87.829 161.23c0.59967 4.1804 0.62042 9.1532 2.0378 8.7767l0.77881 6.2064 4.9614 27.665 1.4615 2.3986-1.0394-0.0333-1.3308-1.0535-6.3059-32.393-0.0537 6.8915c2.008 9.8017 1.6055 18.35 3.9735 28.009 0.60854 4.9309-10.132 0.0124-13.719-0.42585 0.99288-7.8984 16.063 9.4696 7.4764-31.839 2.3791 0.28544 1.1769-9.4567 1.7591-14.202z" fill-opacity=".99763" filter="url(#filter66628-2)" opacity=".16234"/>
   <path d="m97.274 173.46-2.7266 6.457c-1.153 0.0371 1.7546-5.442 2.7266-6.457z" color="#000000" style="-inkscape-stroke:none"/>
   <path d="m92.851 145.58 1.6959 9.6684c-0.74712-2.808-2.0275-7.4702-1.6959-9.6684z" color="#000000" style="-inkscape-stroke:none"/>
   <path d="m89.805 162.25 2.2148 7.8867c-0.53046-0.76682-2.3857-6.8843-2.2148-7.8867z" color="#000000" style="-inkscape-stroke:none"/>
   <path d="m93.477 168.04 0.72657 4.498-0.29632 1.6345c0.0249-0.94593-0.51152-4.7424-0.43025-6.1325z" color="#000000" style="-inkscape-stroke:none"/>
   <path d="m91.188 171.74s0.80146 0.12284 1.4101 0.50391c-0.57462-0.022-0.95333-0.19859-1.4101-0.50391z" color="#000000" style="-inkscape-stroke:none"/>
  </g>
  <path d="m656.4 759.7c4.943 50.458 8.873 80.869 10.055 130.72l-18.661-1.8662s-19.212-112.98-26.412-137.02c0.47327 9.4531-0.0419 27.885 3.2527 41.001 5.2887 37.639 13.544 74.725 19.002 113-21.385 6.0001-32.857-5.5889-45.196-5.2968-4.677-71.356-10.712-155.73-21.179-292.83 4.372 0.26369 26.065 17.161 54.604 26.96 8.101 25.865 19.011 96.081 24.537 125.34z" fill="#22577a" stroke="#020200" stroke-width="2.3425"/>
  <path d="m657.53 759.7c4.3858 50.458 7.8728 80.869 8.9213 130.72l-16.558-1.8662s-17.046-112.98-23.435-137.02c0.41992 9.4531-0.0372 27.885 2.8861 41.001 7.1485 32.077 7.3817 75.421 14.68 113.72-6.2971 5.1703-39.925-6.1274-45.565-5.9701-4.1914-72.443-1.6399-152.51-11.149-292.87 3.8792 0.26369 23.127 17.161 48.449 26.96 7.1879 25.865 16.868 96.081 21.771 125.34z" fill="url(#linearGradient306717)" opacity=".17733" stroke-width="3.9054"/>
  <path d="m618.17 706.34c0.10366 17.32 0.66582 28.808 1.2147 36.238 0.27447 3.7149 0.54492 6.414 0.7531 8.3166 0.20813 1.9024 0.35573 3.0621 0.37231 3.4497l2.3403-0.10531c-0.029-0.67246-0.17455-1.7126-0.38061-3.5954-0.20606-1.8828-0.47278-4.5503-0.74501-8.2354-1.3849-6.6217-0.20896-27.785-3.5547-36.068z" color="#000000" stroke-width="4.1461" style="-inkscape-stroke:none"/>
  <path d="m511.75 706.55c-0.10366 17.32-0.66582 28.808-1.2147 36.238-0.27447 3.7149-0.54492 6.414-0.7531 8.3166-0.20813 1.9024-0.35573 3.0621-0.37231 3.4497l-2.3403-0.10531c0.029-0.67245 0.17455-1.7126 0.38061-3.5954 0.20606-1.8828 0.47278-4.5503 0.74501-8.2354 1.3849-6.6217 0.20896-27.785 3.5547-36.068z" color="#000000" stroke-width="4.1461" style="-inkscape-stroke:none"/>
  <path transform="matrix(4.1461 0 0 4.1461 114.51 46.946)" d="m121.78 160.82c0.59967 4.1804 0.59596 7.3673 2.0133 6.9908l0.77881 6.2064 4.9614 27.665 1.4615 2.3986-1.0394-0.0333-1.3308-1.0535-6.3059-32.393-0.0537 6.8915-2.2689-4.2559c2.3791 0.28544 1.2014-7.6708 1.7836-12.417z" fill-opacity=".99763" filter="url(#filter66628-6)" opacity=".16234"/>
  <g transform="matrix(4.1461 0 0 4.1461 114.51 46.946)" fill="none" stroke="#000" stroke-width=".26458px">
   <path d="m115.07 166.28 1.098 0.0203"/>
   <path d="m115.9 182.95h0.96873"/>
   <path d="m117.01 197.55 0.62695 4e-3"/>
  </g>
  <path d="m612.04 765.21 11.305 26.771c4.7804 0.15382-7.2747-22.563-11.305-26.771z" color="#000000" stroke-width="4.1461" style="-inkscape-stroke:none"/>
  <path d="m607.48 632-11.476 10.902c2.8115 4.86 8.0592 7.7092 15.457 11.221-1.6322 35.702-16.419 53.522-24.774 79.621-3.3677-42.145-6.0251-84.19-9.393-126.34 15.316 1.3416 23.175 11.695 30.185 24.594z" fill="#22577a" stroke="#000" stroke-width="2.3425"/>
  <g transform="matrix(4.1461 0 0 4.1461 114.51 46.946)">
   <path d="m124.42 145.35-1.6959 9.6684c0.74712-2.808 2.0275-7.4702 1.6959-9.6684z" color="#000000" style="-inkscape-stroke:none"/>
   <path d="m127.47 162.02-2.2148 7.8867c0.53046-0.76682 2.3857-6.8843 2.2148-7.8867z" color="#000000" style="-inkscape-stroke:none"/>
   <path d="m123.8 167.81-0.72657 4.498 0.29632 1.6345c-0.0249-0.94593 0.51152-4.7424 0.43025-6.1325z" color="#000000" style="-inkscape-stroke:none"/>
   <path d="m126.09 171.51s-0.80146 0.12284-1.4101 0.50391c0.57462-0.022 0.95333-0.19859 1.4101-0.50391z" color="#000000" style="-inkscape-stroke:none"/>
  </g>
  <path d="m524.68 632.37 9.1803 11.476c-2.8115 4.86-1.1737 8.8569-8.572 12.368 1.6322 35.702 17.567 51.229 25.921 77.329 3.3677-42.145-2.0077-83.042 1.3602-125.19-6.7708 1.8081-16.911-1.9119-27.89 24.019z" fill="#22577a" stroke="#000" stroke-width="2.3425"/>
  <g transform="matrix(4.1461 0 0 4.1461 114.51 46.946)">
   <path d="m87.54 167.64c-1.7595 9.3173-3.7938 31.649-3.7938 31.649l0.86872 5.5624 0.90144-0.082-0.63207-5.1092s1.4068-17.491 3.9702-30.899c1.8314-9.5794 2.2514-16.193 4.6607-19.365 7.0515-5.2173 30.91-14.431 12.025-13.879-2.3573 0.2791-2.7924 1.6306-4.0462 2.4446-2.6955 1.75-7.0452 2.6687-8.8761 4.349-1.2071 4.1902-5.0782 19.217-5.0782 25.329z" filter="url(#filter65283-6)" opacity=".16088" style="mix-blend-mode:normal"/>
   <g stroke="#000" stroke-linejoin="round" stroke-width=".11976">
    <ellipse cx="103.79" cy="182.74" rx=".52276" ry=".49952" fill="url(#linearGradient306719)"/>
    <ellipse cx="103.45" cy="166.34" rx=".52276" ry=".49952" fill="url(#linearGradient306721)"/>
    <ellipse cx="103.24" cy="198.17" rx=".52276" ry=".49952" fill="url(#linearGradient306723)"/>
   </g>
  </g>
 </g>
</svg>
