<?xml version="1.0" encoding="UTF-8"?>
<svg id="svg5" width="1200mm" height="1200mm" version="1.1" viewBox="0 0 1200 1200" xmlns="http://www.w3.org/2000/svg" xmlns:xlink="http://www.w3.org/1999/xlink">
 <defs id="defs77">
  <linearGradient id="linearGradient6686" x1="97.534" x2="114.59" y1="51.343" y2="51.343" gradientTransform="translate(.12796 4.0451)" gradientUnits="userSpaceOnUse">
   <stop id="stop6680" stop-color="#cf0909" offset="0"/>
   <stop id="stop6682" stop-color="#cf0909" stop-opacity="0" offset="1"/>
  </linearGradient>
  <filter id="filter6726" x="-.010934" y="-.02251" width="1.0219" height="1.045" color-interpolation-filters="sRGB">
   <feGaussianBlur id="feGaussianBlur6728" stdDeviation="0.076502275"/>
  </filter>
  <linearGradient id="linearGradient7464" x1="99.101" x2="113.56" y1="45.667" y2="45.667" gradientTransform="matrix(4.1461 0 0 4.1461 115.04 63.718)" gradientUnits="userSpaceOnUse">
   <stop id="stop7458" stop-color="#ffb800" offset="0"/>
   <stop id="stop7460" stop-color="#ffb800" stop-opacity="0" offset="1"/>
  </linearGradient>
  <linearGradient id="linearGradient8030" x1="100.34" x2="111.95" y1="39.47" y2="39.47" gradientTransform="matrix(4.1461 0 0 4.1461 115.04 63.718)" gradientUnits="userSpaceOnUse">
   <stop id="stop8024" stop-color="#fe0" offset="0"/>
   <stop id="stop8026" stop-color="#fe0" stop-opacity="0" offset="1"/>
  </linearGradient>
  <linearGradient id="linearGradient9176" x1="101.96" x2="110.94" y1="33.748" y2="33.748" gradientTransform="matrix(4.1461 0 0 4.1461 115.04 63.718)" gradientUnits="userSpaceOnUse">
   <stop id="stop9170" stop-color="#60da4c" offset="0"/>
   <stop id="stop9172" stop-color="#60da4c" stop-opacity="0" offset="1"/>
  </linearGradient>
  <linearGradient id="linearGradient9990" x1="103.42" x2="109.63" y1="28.269" y2="28.269" gradientTransform="matrix(4.1461 0 0 4.1461 115.04 63.718)" gradientUnits="userSpaceOnUse">
   <stop id="stop9984" stop-color="#06a3f9" offset="0"/>
   <stop id="stop9986" stop-color="#06a3f9" stop-opacity="0" offset="1"/>
  </linearGradient>
  <linearGradient id="linearGradient10823" x1="104.74" x2="108.29" y1="23.477" y2="23.477" gradientTransform="matrix(4.1461 0 0 4.1461 115.04 63.718)" gradientUnits="userSpaceOnUse">
   <stop id="stop10817" stop-color="#5100ff" offset="0"/>
   <stop id="stop10819" stop-color="#5100ff" stop-opacity="0" offset="1"/>
  </linearGradient>
  <linearGradient id="linearGradient11257" x1="105.32" x2="107" y1="20.444" y2="20.444" gradientTransform="matrix(4.1461 0 0 4.1461 115.04 63.718)" gradientUnits="userSpaceOnUse">
   <stop id="stop11251" stop-color="#f300ff" offset="0"/>
   <stop id="stop11253" stop-color="#f300ff" stop-opacity="0" offset="1"/>
  </linearGradient>
 </defs>
 <g id="layer60" transform="translate(19.4 11.241)">
  <g id="layer214">
   <g id="layer31">
    <path id="path11627" d="m548.76 276.46c-55.334 2.0363-113.46 14.332-149.2 57.673-18.092 21.94-32.17 50.525-36.74 77.834-4.6206 27.614 0.54215 57.225 0.54215 57.225l6.8546 0.22058s-4.6781-28.989 0.7254-55.81c5.4035-26.821 18.616-43.055 35.015-62.943 33.242-40.312 89.01-52.678 143.11-54.669 53.564-1.9712 111.49 18.439 147.11 56.288 16.78 17.828 29.111 44.219 31.352 78.008 2.2411 33.79 2.4197 63.621 2.4197 63.621l8.2679 0.65591s-0.12522-30.353-2.4114-64.828c-2.2865-34.475-13.724-73.287-33.587-94.39-37.661-40.013-97.594-60.943-153.46-58.887z" color="#000000" stroke-width="4.1461" style="-inkscape-stroke:none"/>
    <path id="path3542" d="m520.65 285.31s23.458 8.0086 35.652 8.2274c11.078 0.19872 32.635-6.3077 32.635-6.3077 1.5614-6.1373 0.41722-12.275-4.2246-18.412 3.2987-9.3695-1.1572-22.286-5.9807-26.065 1.255-8.5852 0.0941-16.365-5.2222-22.76 2.5226-8.9344-0.24172-15.754-4.9968-21.777 2.5787-9.9202 0.24835-17.163-5.2085-22.7 2.2913-12.674-1.3343-16.473-4.7302-20.616 0.22223-4.2786 0.40549-8.5573-2.9452-12.836-6.9452 6.1642-7.2914 13.657-5.2674 21.571-3.805 6.473-8.3464 12.373-5.807 23.781-9.2798 9.7031-5.2285 16.33-5.8702 24.04-6.0046 5.6144-9.7523 12.965-6.3111 25.845-6.7384 5.4273-7.4848 13.351-5.4755 22.424-9.2794 9.0429-6.7164 17.24-6.2479 25.586z" fill="#fafafa" stroke="#000" stroke-width="1.097px"/>
    <path id="path3542-3" d="m558.57 154.9c0.22223-4.2786 0.40549-8.5573-2.9452-12.836-1.6674 1.4799-2.9544 3.0363-3.9196 4.6568z" fill="url(#linearGradient11257)"/>
    <path id="path3542-5" d="m563.3 175.51c2.2913-12.674-1.3343-16.473-4.7302-20.616l-6.7918-8.3005c-3.1308 5.1597-2.971 10.974-1.4208 17.036 3.6139 5.9045 7.7011 10.654 12.943 11.881z" fill="url(#linearGradient10823)"/>
    <path id="path3542-6" d="m578.73 242.75c1.255-8.5852 0.0941-16.365-5.2222-22.76-13.189 0.94716-24.191-3.3546-34.825-8.5377-6.0046 5.6144-9.7523 12.965-6.3111 25.845 12.373 3.3207 22.557 7.6106 46.359 5.4522z" fill="url(#linearGradient8030)"/>
    <path id="path3542-8" d="m573.51 219.99c2.5226-8.9344-0.24172-15.754-4.9968-21.777-8.5349-0.8559-16.457-4.7768-23.958-10.8-9.2798 9.7031-5.2285 16.33-5.8702 24.04 12.061 5.5591 20.033 9.4823 34.825 8.5377z" fill="url(#linearGradient9176)"/>
    <path id="path3542-4" transform="matrix(4.1461 0 0 4.1461 114.51 46.946)" d="m97.958 57.491s5.6578 1.9316 8.5989 1.9844c2.6719 0.04793 7.8714-1.5214 7.8714-1.5214 0.37659-1.4803 0.10063-2.9605-1.0189-4.4408-4.7041-0.0032-9.3648-0.57219-13.944-2.1934-2.2381 2.1811-1.6199 4.1581-1.5069 6.1712z" fill="url(#linearGradient6686)" filter="url(#filter6726)" opacity=".84039"/>
    <path id="path3542-7" d="m584.71 268.82c3.2987-9.3695-1.1572-22.286-5.9807-26.065-20.231 2.2258-32.497-2.288-46.359-5.4522-6.7384 5.4273-7.4848 13.351-5.4755 22.424 14.537 4.8412 25.681 9.0892 57.815 9.0942z" fill="url(#linearGradient7464)"/>
    <path id="path3542-77" d="m568.51 198.21c2.5787-9.9202 0.24835-17.163-5.2085-22.7-6.8437-2.1535-9.5538-7.2595-12.943-11.881-3.805 6.473-8.3464 12.373-5.807 23.781 5.8442 5.1012 13.353 9.5474 23.958 10.8z" fill="url(#linearGradient9990)"/>
    <path id="path12897-7-6" d="m544.55 187.41c-1.8721 2.1829-5.6169 6.9304-5.4977 9.7295 3.8715-2.3668 5.5897-3.7003 9.9961-3.0324 5.4097 0.81996 14.451 5.2328 19.766 4.7198l-0.34578-1.427c-3.8915-0.0694-11.874-3.089-18.397-8.1056-3.3616-2.5852-4.1026-4.4732-5.9852-8.4721-0.65749-1.3966-0.0904 3.2259 0.46158 6.5878z" color="#000000" fill-opacity=".55466" opacity=".48208" stroke-width="2.4808" style="-inkscape-stroke:none"/>
    <path id="path3542-85" d="m520.65 285.31s23.458 8.0086 35.652 8.2274c11.078 0.19872 32.635-6.3077 32.635-6.3077 1.5614-6.1373 0.41722-12.275-4.2246-18.412 3.2987-9.3695-1.1572-22.286-5.9807-26.065 1.255-8.5852 0.0941-16.365-5.2222-22.76 2.5226-8.9344-0.24172-15.754-4.9968-21.777 2.5787-9.9202 0.24835-17.163-5.2085-22.7 2.2913-12.674-1.3343-16.473-4.7302-20.616 0.22223-4.2786 0.40549-8.5573-2.9452-12.836-6.9452 6.1642-7.2914 13.657-5.2674 21.571-3.805 6.473-8.3464 12.373-5.807 23.781-9.2798 9.7031-5.2285 16.33-5.8702 24.04-6.0046 5.6144-9.7523 12.965-6.3111 25.845-6.7384 5.4273-7.4848 13.351-5.4755 22.424-9.2794 9.0429-6.7164 17.24-6.2479 25.586z" fill="none" stroke="#000" stroke-width="1.097px"/>
    <path id="path12897" d="m527.07 259.21-6.836 10.408c6.6409-2.7831 9.8157-3.8008 15.707-3.4541 11.212 0.65973 37.801 3.8928 48.801 3.2004l-0.073-1.0932c-7.939-0.31776-30.619-3.3647-44.964-8.4813-7.7-2.7464-8.7915-4.0743-13.591-9.4715-1.6026-1.8023-0.18645 4.3539 0.95527 8.8914z" color="#000000" fill-opacity=".55466" opacity=".48208" stroke-width="4.1461" style="-inkscape-stroke:none"/>
    <path id="path12897-7" d="m532.37 237.3c-3.0722 2.5723-5.9805 5.892-5.7848 9.1905 4.2552-3.9878 5.9222-5.155 13.485-4.1551 8.8406 1.1689 30.748 2.3187 39.471 1.7141l-0.81221-1.2973c-6.2951-0.27745-24.965-0.47834-36.34-4.9457-6.1055-2.3978-6.971-3.5573-10.776-8.2696-1.2707-1.5736-0.14801 3.8014 0.75745 7.7631z" color="#000000" fill-opacity=".55466" opacity=".48208" stroke-width="3.4498" style="-inkscape-stroke:none"/>
    <path id="path12897-7-7" d="m538.68 211.45c-2.6799 2.2438-5.8728 5.3109-5.7021 8.1881 5.5418-2.4329 6.8825-3.7413 12.007-2.8359 7.903 1.3962 20.962 4.5454 28.57 4.0181l-0.0506-0.83259c-5.4912-0.24201-17.083-2.1344-26.497-7.136-2.6594-1.4129-5.1362-3.9659-8.4555-8.0765 0.15216 2.1179-0.22596 3.2675 0.12728 6.6748z" color="#000000" fill-opacity=".55466" opacity=".48208" stroke-width="3.0092" style="-inkscape-stroke:none"/>
    <path id="path12897-7-73" d="m550.36 163.63c-1.8457 2.4488-4.4774 5.124-4.3599 8.2642 3.8166-2.6552 4.8889-1.7231 6.2432-0.86509 4.5752 2.8988 5.8544 5.9657 11.094 5.3902l-0.1704-1.5086c-3.7818-0.26414-7.7049-7.0004-9.5293-9.6329-1.5513-2.2383-2.8852-6.8832-4.0057-10.752-0.46767-1.615 0.18533 5.333 0.7293 9.1046z" color="#000000" fill-opacity=".55466" opacity=".48208" stroke-width="2.6089" style="-inkscape-stroke:none"/>
    <path id="path12897-7-3" d="m551.71 146.72c-0.91815 1.3861-1.6135 2.8616-1.555 4.6391 1.2816-0.95449 1.8577-1.3337 2.8278-1.1029 2.2701 0.54009 3.6029 4.5916 5.5926 4.6429l-0.0166-0.51435c-1.1615-0.90369-2.7517-3.555-4.5395-5.8834-0.91488-1.1915-0.67598-2.3127-0.2384-4.3878 0 0-1.4841 1.1572-2.0704 2.6064z" color="#000000" fill-opacity=".55466" opacity=".48208" stroke-width="1.3844" style="-inkscape-stroke:none"/>
    <path id="path15839" d="m622.19 294.78c4.416-34.843 32.192-52.146 59.34-69.424 23.549 47.365 17.369 77.798 7.369 106.27-18.241-14.719-44.344-28.312-66.709-36.845z" fill="#fff8f8" stroke="#000" stroke-width="1.097px"/>
    <path id="path15839-0" d="m635.59 299.97c3.2002-32.461 23.911-47.418 43.584-63.515 17.065 44.127 12.005 65.111 4.7584 91.636-14.576-12.356-32.135-20.171-48.342-28.121z" fill="#f7abd8" stroke="#000" stroke-width=".90136px"/>
    <path id="path17029" d="m679.17 236.46c-17.392 26.902-37.089 54.614-25.953 71.507l-17.631-7.9922c0.8924-24.012 17.923-44.663 43.584-63.515z" fill-opacity=".50607" opacity=".54723"/>
    <path id="path15839-03" d="m489.59 292.23c-1.2632-35.099-27.37-54.831-52.853-74.481-27.715 45.054-24.298 75.919-16.9 105.17 19.491-13.018 46.711-24.207 69.753-30.694z" fill="#fff8f8" stroke="#000" stroke-width="1.097px"/>
    <path id="path15839-0-0" d="m475.78 296.2c-0.26659-32.618-19.547-49.377-37.693-67.179-20.966 42.413-17.815 63.767-12.984 90.836 15.629-10.994 33.819-17.198 50.676-23.658z" fill="#f7abd8" stroke="#000" stroke-width=".90136px"/>
    <path id="path17029-7" d="m438.09 229.02c14.901 28.358 25.718 62.94 13.107 78.763l24.586-11.584c1.2716-23.995-13.832-46.094-37.693-67.179z" fill-opacity=".50607" opacity=".60586"/>
    <path id="path17897" d="m436.74 217.75c-13.374 36.035-27.004 72.124-11.633 102.11l-5.2671 3.0681c-11.182-37.128-5.5311-72.184 16.9-105.17z" fill-opacity=".50607" opacity=".35831"/>
    <path id="path18274" d="m681.53 225.35c-27.616 23.547-52.726 47.186-52.359 71.751l-6.9812-2.327c3.4403-18.347 2.2052-32.405 59.34-69.424" fill-opacity=".12956"/>
    <path id="path19585" d="m519.61 274.61c1.9786 1.6206 4.5656 5.9078 10.917 8.1767 7.2164 2.578 14.904 4.9904 23.468 5.6867 11.037 0.89748 23.257-0.42094 34.942-1.245-17.732 3.4662-26.918 13.909-68.287-1.9197z" fill-opacity=".31579"/>
   </g>
  </g>
 </g>
</svg>
