<?xml version="1.0" encoding="UTF-8"?>
<svg width="1200mm" height="1200mm" version="1.1" viewBox="0 0 1200 1200" xmlns="http://www.w3.org/2000/svg" xmlns:xlink="http://www.w3.org/1999/xlink">
 <defs>
  <linearGradient id="linearGradient25847" x1="649.8" x2="1003" y1="835.33" y2="835.33" gradientUnits="userSpaceOnUse">
   <stop stop-color="#6f6c6c" stop-opacity="0" offset="0"/>
   <stop stop-color="#6f6c6c" offset="1"/>
  </linearGradient>
 </defs>
 <g>
  <path d="m1037.7 1132.4a212.2 33.24 0 0 1-212.2 33.24 212.2 33.24 0 0 1-212.2-33.24 212.2 33.24 0 0 1 212.2-33.24 212.2 33.24 0 0 1 212.2 33.24z" fill="#282424" fill-rule="evenodd" opacity=".26423" stroke-linecap="round" stroke-width="2" style="paint-order:fill markers stroke"/>
  <g fill="#efe73e" stroke-width="1.9999">
   <path d="m972.1 1072.9c31.178-30.608 50.153-71.082 50.153-115.47 0-32.115-9.9369-62.184-27.233-87.948-0.057-0.10147-0.1253-0.1797-0.1797-0.26587-0.6406-0.96083-1.2968-1.9139-1.9608-2.8592-0.1718-0.22676-0.3362-0.45295-0.4921-0.68742-0.5624-0.789-1.1405-1.5624-1.7108-2.3514-0.25-0.33617-0.508-0.68747-0.7656-1.0234-0.3283-0.45295-0.664-0.89841-1-1.3359 13.913-7.2964 21.827-15.632 21.827-24.491 0-28.623-82.526-51.833-184.31-51.833-14.491 0-28.584 0.46882-42.107 1.3515-1.664-0.72653-3.4764-1.1718-5.3903-1.3046-0.35942-0.0283-0.73436-0.0454-1.1015-0.0454-0.37471 0-0.74212 0.017-1.1093 0.0454-2.7889 0.19557-5.3903 1.0859-7.6167 2.5077-11.117 1.0234-21.772 2.3358-31.842 3.906 1.7577-3.5857 2.7654-7.6011 2.7654-11.866 0-14.913-12.085-26.998-26.991-26.998-14.913 0-27.006 12.085-27.006 26.998 0 8.3199 3.7732 15.749 9.6792 20.694-33.123 9.3744-53.591 22.288-53.591 36.545 0 8.8588 7.9058 17.194 21.827 24.491-0.38265 0.49206-0.75776 0.99994-1.1327 1.5077-0.14059 0.1797-0.28118 0.36735-0.42177 0.54705-20.1 27.147-31.795 59.559-31.795 94.416 0 44.888 19.413 85.776 51.223 116.5l38.435 28.701c30.6 17.444 67.035 27.584 106.17 27.584 39.63 0 76.519-10.413 107.34-28.272l38.334-29.045"/>
   <path d="m950.61 795.46c8.9448 0 16.202-7.2496 16.202-16.202 0-8.5697-6.6637-15.569-15.093-16.14-0.3673-0.0397-0.7265-0.0567-1.1093-0.0567-0.3752 0-0.7421 0.017-1.1015 0.0567-8.4291 0.5703-15.093 7.5699-15.093 16.14 0 8.9526 7.2495 16.202 16.194 16.202"/>
   <path d="m907.41 773.86c5.9762 0 10.804-4.8357 10.804-10.796 0-5.9684-4.8278-10.804-10.804-10.804-5.9684 0-10.796 4.8357-10.796 10.804 0 5.9606 4.8278 10.796 10.796 10.796"/>
  </g>
  <g>
   <path d="m792.83 787.2c-92.143 14.062-162.23 84.925-162.23 170.25 0 44.89 19.408 85.781 51.22 116.5 0.25572 18.384 1.8321 38.932 2.3428 52.703 0.23315 6.2863-10.123 10.568-2.6121 13.634 2.6639 1 22.984 1.1022 25.672 1.1022 9.3276 0 0.51429-5.3362 3.9906-14.586l9.0553-24.15c30.588 17.446 67.034 27.579 106.16 27.579 39.637 0 76.516-10.402 107.34-28.266l9.3131 24.836c3.4686 9.2494-7.5902 13.65 1.7373 13.65 2.6952 0 26.571 1.2071 29.235 0.2073 10.035-1.1009 4.2944-4.6527-0.17404-16.566l-1.7929-51.179c31.181-30.604 50.162-71.08 50.162-115.47 0-81.503-63.95-149.82-150.01-168.03v8e-3c-2.7967 1.3437-5.9528 1.9683-9.2573 2.1715-0.46091 0.35147-1.0388 0.5782-1.7653 0.586-13.773 0.0283-27.545 0.66395-41.333 0.28112-8.8666-0.24204-19.272-0.3747-27.061-5.2653z" fill="#282424" stroke="#000" stroke-width="2"/>
   <g>
    <g stroke-width="1.9999">
     <path d="m826.43 784.66c-101.4 0-183.59 72.519-183.59 161.99 0 89.463 82.19 161.99 183.59 161.99 101.38 0 183.59-72.527 183.59-161.99 0-89.471-82.206-161.99-183.59-161.99" fill="#3c3939"/>
     <path d="m999.23 876.11c-5.4607-9.0073-11.788-17.546-18.905-25.514-7.2808 3.3748-16.312 6.8902-27.428 10.249-35.052 10.601-79.964 16.444-126.47 16.444-46.505 0-91.416-5.8434-126.47-16.444-11.124-3.3592-20.155-6.8746-27.436-10.249-7.109 7.9683-13.445 16.507-18.897 25.514 36.482 20.342 100.24 33.826 172.79 33.826 72.558 0 136.32-13.484 172.8-33.826" opacity=".26423"/>
     <path d="m826.43 795.46c-95.44 0-172.79 18.374-172.79 41.037-6e-3 22.663 77.347 41.037 172.79 41.037 95.424 0 172.79-18.374 172.79-41.037 0-22.663-77.363-41.037-172.79-41.037" fill="#cada42"/>
     <path d="m977.07 859.25c-30.006-12.921-82.237-30.936-149.41-31.654-68.621-0.74218-122.18 16.866-152.59 29.436-8.4214-6.6949-16.858-13.405-25.288-20.1 30.756-15.718 94.127-42.904 178.28-42.13 77.464 0.71871 136.25 24.811 166.74 39.919-5.9058 8.1636-11.812 16.351-17.718 24.53" fill="#6fbd4e"/>
    </g>
    <path d="m826.43 784.66c-101.79 0-184.31 23.21-184.31 51.833 0 28.631 82.518 51.833 184.31 51.833 101.79 0 184.31-23.202 184.31-51.833 0-28.623-82.519-51.833-184.31-51.833zm0 23.038c41.771 0 82.112 4.117 113.59 11.609 25.873 6.1481 39.209 12.968 44.982 17.186-5.773 4.2185-19.108 11.038-44.982 17.186-31.482 7.4917-71.824 11.609-113.59 11.609-41.771 0-82.12-4.117-113.61-11.609-25.85-6.148-39.193-12.968-44.966-17.186 5.7731-4.2185 19.116-11.038 44.966-17.186 31.49-7.4917 71.839-11.609 113.61-11.609" fill="#3c3939" stroke="#000" stroke-width="2"/>
   </g>
  </g>
  <g fill="#cada42" stroke-width="1.9999">
   <path d="m966.82 779.25c0 8.9526-7.2574 16.202-16.202 16.202-8.9369 0-16.194-7.2496-16.194-16.202 0-8.9447 7.2574-16.194 16.194-16.194 8.9448 0 16.202 7.2496 16.202 16.194"/>
   <path d="m907.41 752.26c-5.9527 0-10.796 4.8357-10.796 10.804 0 5.9606 4.8435 10.796 10.796 10.796 5.9762 0 10.804-4.8357 10.804-10.796 0-5.9684-4.8278-10.804-10.804-10.804"/>
   <path d="m858.82 822.45c0 8.9526-7.2495 16.21-16.202 16.21-8.9448 0-16.194-7.2574-16.194-16.21 0-8.937 7.2495-16.187 16.194-16.187 8.9526 0 16.202 7.2496 16.202 16.187"/>
   <path d="m923.62 822.45c0 8.9526-7.2496 16.21-16.202 16.21-8.9448 0-16.194-7.2574-16.194-16.21 0-8.937 7.2495-16.187 16.194-16.187 8.9526 0 16.202 7.2496 16.202 16.187"/>
  </g>
  <path d="m986.71 894.46c-7.7105 3.0467-16.062 6.0075-25.038 8.7339-15.554 4.6872-30.084 7.7886-43.146 9.8119 2.5624 8.187 18.874 63.621-14.648 118.27-33.201 54.09-89.19 64.949-97.744 66.457 76.878 7.8902 147.23-28.178 175.63-87.963 24.006-50.536 9.7494-100.56 4.945-115.31" fill="#524f4f" opacity=".40244" stroke-width="1.9999"/>
  <g fill="#efe73e" stroke-width="1.9999">
   <path d="m907.41 806.26c-5.9684 0-10.796 4.8278-10.796 10.788 0 5.9684 4.8278 10.804 10.796 10.804 5.9762 0 10.804-4.8357 10.804-10.804 0-5.9606-4.8278-10.788-10.804-10.788"/>
   <path d="m912.83 757.66c0 2.9764-2.4218 5.3981-5.4138 5.3981-2.9686 0-5.3903-2.4217-5.3903-5.3981 0-2.9842 2.4217-5.406 5.3903-5.406 2.992 0 5.4138 2.4218 5.4138 5.406"/>
   <path d="m950.61 763.06c-5.9683 0-10.796 4.8357-10.796 10.796 0 5.9684 4.8279 10.804 10.796 10.804 5.9762 0 10.804-4.8357 10.804-10.804 0-5.9606-4.8279-10.796-10.804-10.796"/>
   <path d="m842.62 806.26c-5.9528 0-10.796 4.8278-10.796 10.788 0 5.9684 4.8434 10.804 10.796 10.804 5.9606 0 10.804-4.8357 10.804-10.804 0-5.9606-4.8435-10.788-10.804-10.788"/>
  </g>
  <g>
   <path d="m826.43 799.29c-45.864 0-88.956 4.1091-121.32 11.577-35.123 8.1011-47.63 17.952-47.63 24.452 0 6.5074 12.507 16.351 47.63 24.452 32.365 7.4761 75.456 11.585 121.32 11.585 45.864 0 88.955-4.1091 121.31-11.585 35.123-8.101 47.638-17.936 47.638-24.452 0-6.4996-12.515-16.351-47.638-24.452-32.357-7.4683-75.448-11.577-121.31-11.577zm0 79.737c-85.62 0-176.62-15.312-176.62-43.708-6e-3 -28.381 91.002-43.7 176.62-43.7 85.62 0 176.62 15.319 176.62 43.7 0 28.397-91.002 43.708-176.62 43.708" fill="url(#linearGradient25847)" opacity=".30488"/>
   <g stroke-width="1.9999">
    <path d="m740.03 779.25c0 14.913-12.085 27.006-26.991 27.006-14.913 0-27.006-12.093-27.006-27.006 0-14.913 12.093-26.998 27.006-26.998 14.905 0 26.991 12.085 26.991 26.998" fill="#cada42"/>
    <path d="m794.03 800.85c0 8.9526-7.2574 16.194-16.202 16.194-8.9526 0-16.194-7.2417-16.194-16.194 0-8.9448 7.2417-16.194 16.194-16.194 8.9447 0 16.202 7.2496 16.202 16.194" fill="#cada42"/>
    <path d="m713.03 752.26c-11.929 0-21.6 9.6713-21.6 21.6 0 11.929 9.6712 21.6 21.6 21.6 11.921 0 21.592-9.6712 21.592-21.6 0-11.929-9.6713-21.6-21.592-21.6" fill="#efe73e"/>
    <path d="m777.83 784.66c-5.9684 0-10.796 4.8356-10.796 10.796 0 5.9684 4.8278 10.804 10.796 10.804 5.9606 0 10.796-4.8356 10.796-10.804 0-5.9606-4.8357-10.796-10.796-10.796" fill="#efe73e"/>
   </g>
  </g>
 </g>
</svg>
