<svg width="1200mm" height="1200mm" version="1.1" viewBox="0 0 1200 1200" xmlns="http://www.w3.org/2000/svg">
 <defs>
  <filter id="filter915" x="-.4985" y="-.50415" width="1.997" height="2.0083" color-interpolation-filters="sRGB">
   <feGaussianBlur stdDeviation="68.03694"/>
  </filter>
 </defs>
 <g clip-rule="evenodd" stroke-linecap="round" stroke-linejoin="round">
  <path d="m-62.221-72.479h1421.1v1332.5h-1421.1z" fill="#bb0404"/>
  <path d="m1239.8 42.353s-191.92 27.606-386 106c-255 103-478.31-66.14-607-44-128.69 22.139-180 134-380 111-195.58-22.492-45.251 513.35-45.251 513.35l1560.9-52.582-23.52-751.37z" fill="#840202"/>
  <path d="m-1.3366 933.5 1342.2-123.15-94.09-669s-68.98 299.44-207 324c-138.03 24.561-316-147-680-37-72.852 22.015-222.07 156.21-330 123s-195.8-95.243-256.68-68.952c-60.885 26.291 27.674 621.3 27.674 621.3z" fill="#590202"/>
  <path d="m-96.204 940.35s1.5509-277.47 508-164c506.45 113.47 794.05-192.06 884-163 89.94 29.058 130.88 488.97 130.88 488.97l-59.5 231.08-1306.2 48.43-208.94-52.58z" fill="#2d0000"/>
  <path d="m100.72 221.1-5.5205-15.241-12.871-9.855 15.241-5.52 9.8541-12.87 5.521 15.24 12.87 9.855-15.241 5.52z" fill="#fff" opacity=".34496"/>
  <g fill="#ffe200">
   <path d="m246.07 151.35-2.828-5.172-5.172-2.828 5.172-2.829 2.828-5.171 2.828 5.171 5.172 2.829-5.172 2.828z"/>
   <path d="m823.07 120.35-3.889-7.111-7.111-3.889 7.111-3.889 3.889-7.1114 3.889 7.1114 7.111 3.889-7.111 3.889z" opacity=".56783"/>
  </g>
  <path d="m49.759 612.28-3.3704-8.174-7.2478-5.064 8.1741-3.371 5.0642-7.248 3.3704 8.175 7.2478 5.064-8.1741 3.37z" fill="#fff" opacity=".71899"/>
  <path d="m1086.8 586.73 1.18 12.47 7.73 9.862-12.47 1.182-9.86 7.723-1.19-12.47-7.72-9.862 12.47-1.182z" fill="#ffe200"/>
  <path d="m554.07 228.35-7.071-12.929-12.929-7.071 12.929-7.071 7.071-12.929 7.071 12.929 12.929 7.071-12.929 7.071z" fill="#ffe200" opacity=".8314"/>
  <path d="m704.94 60.336-2.393-13.793-9.457-10.322 13.793-2.3933 10.323-9.4568 2.393 13.793 9.457 10.322-13.793 2.3934z" fill="#fff"/>
  <path d="m1142.1 419.35-2.12-3.879-3.88-2.121 3.88-2.122 2.12-3.878 2.12 3.878 3.88 2.122-3.88 2.121z" fill="#fff"/>
  <path d="m157.3 494.99-18.101 9.9-9.899 18.1-9.9-18.1-18.1-9.9 18.1-9.899 9.9-18.101 9.899 18.101z" fill="#ffe200"/>
 </g>
 <path transform="matrix(3.8312,0,0,3.8312,-26.851,-12.235)" d="m872.67 228.42c0-87.763 71.952-158.91 160.71-158.91 88.76 0 160.71 71.146 160.71 158.91s-71.95 158.91-160.71 158.91c-88.756 0-160.71-71.146-160.71-158.91z" fill="#e70303"/>
 <g stroke-width="1.0191">
  <path d="m818.25 236.76c0-89.439 73.326-161.95 163.78-161.95 90.455 0 163.78 72.505 163.78 161.95s-73.324 161.95-163.78 161.95c-90.451 0-163.78-72.505-163.78-161.95z" fill="#ff2727" filter="url(#filter915)"/>
  <path d="m818.25 236.76c0-89.439 73.326-161.95 163.78-161.95 90.455 0 163.78 72.505 163.78 161.95s-73.324 161.95-163.78 161.95c-90.451 0-163.78-72.505-163.78-161.95z" fill="#e70303"/>
  <path d="m909.52 277.49c-36.733-50.854-17.96-202.66 72.489-202.66 90.453 0 163.78 72.503 163.78 161.94 0 28.194-7.2864 54.705-20.096 77.792-27.831 50.152-166.19 32.127-216.17-37.066z" fill="#ff9000" fill-opacity=".39"/>
 </g>
 <g transform="matrix(1.0191 0 0 1.0191 -71.085 3.9785)" fill="#e70303">
  <path d="m942.46 145.67c0-12.669 10.361-22.939 23.142-22.939s23.142 10.27 23.142 22.939-10.361 22.939-23.142 22.939-23.142-10.27-23.142-22.939z"/>
  <path d="m999.24 123.71c0-6.649 4.266-12.039 9.516-12.039 5.26 0 9.52 5.39 9.52 12.039s-4.26 12.039-9.52 12.039c-5.25 0-9.516-5.39-9.516-12.039z"/>
  <path d="m1041.3 161.29c0-13.927 10.66-25.217 23.8-25.217s23.8 11.29 23.8 25.217-10.66 25.216-23.8 25.216-23.8-11.289-23.8-25.216z"/>
  <path d="m1121 173.31c0-14.994 12.3-27.15 27.48-27.15s27.48 12.156 27.48 27.15c0 14.995-12.3 27.151-27.48 27.151s-27.48-12.156-27.48-27.151z"/>
  <path d="m937.53 318.93c0-19.947 16.828-36.117 37.586-36.117 20.757 0 37.582 16.17 37.582 36.117s-16.825 36.117-37.582 36.117c-20.758 0-37.586-16.17-37.586-36.117z"/>
  <path d="m992.02 241.82c0-12.759 10.437-23.102 23.307-23.102s23.3 10.343 23.3 23.102c0 12.758-10.43 23.101-23.3 23.101s-23.307-10.343-23.307-23.101z"/>
  <path d="m1093.4 329.51c0-11.951 10.07-21.638 22.49-21.638s22.48 9.687 22.48 21.638c0 11.95-10.06 21.637-22.48 21.637s-22.49-9.687-22.49-21.637z"/>
  <path d="m1139.1 270.13c0-10.422 8.6-18.872 19.2-18.872 10.61 0 19.21 8.45 19.21 18.872 0 10.423-8.6 18.872-19.21 18.872-10.6 0-19.2-8.449-19.2-18.872z"/>
  <path d="m1109.9 269.48c0-4.852 3.52-8.786 7.87-8.786 4.36 0 7.88 3.934 7.88 8.786 0 4.851-3.52 8.785-7.88 8.785-4.35 0-7.87-3.934-7.87-8.785z"/>
  <path d="m1048.8 360.91c0-3.773 3.38-6.832 7.55-6.832s7.55 3.059 7.55 6.832c0 3.774-3.38 6.833-7.55 6.833s-7.55-3.059-7.55-6.833z"/>
  <path d="m1044.5 206.19c0-3.864 2.21-6.996 4.93-6.996s4.92 3.132 4.92 6.996c0 3.863-2.2 6.995-4.92 6.995s-4.93-3.132-4.93-6.995z"/>
  <path d="m1111.5 113.78c0-3.504 2.64-6.345 5.91-6.345 3.26 0 5.9 2.841 5.9 6.345s-2.64 6.345-5.9 6.345c-3.27 0-5.91-2.841-5.91-6.345z"/>
  <path d="m1047.3 205.84c0-0.054 0.07-0.097 0.15-0.097 0.09 0 0.16 0.043 0.16 0.097 0 0.053-0.07 0.097-0.16 0.097-0.08 0-0.15-0.044-0.15-0.097z"/>
 </g>
</svg>
