<?xml version="1.0" encoding="UTF-8"?>
<svg id="svg5" width="1200mm" height="1200mm" version="1.1" viewBox="0 0 1200 1200" xmlns="http://www.w3.org/2000/svg" xmlns:xlink="http://www.w3.org/1999/xlink">
 <defs id="defs77">
  <filter id="filter13717" x="-.02048" y="-.0041356" width="1.041" height="1.0083" color-interpolation-filters="sRGB">
   <feGaussianBlur id="feGaussianBlur13715" stdDeviation="1.6930123"/>
  </filter>
  <filter id="filter14972" x="-.016199" y="-.0050005" width="1.0427" height="1.01" color-interpolation-filters="sRGB">
   <feGaussianBlur id="feGaussianBlur14974" stdDeviation="0.10804"/>
  </filter>
  <filter id="filter14976" x="-.06867" y="-.032998" width="1.1348" height="1.0676" color-interpolation-filters="sRGB">
   <feGaussianBlur id="feGaussianBlur14978" stdDeviation="0.10804"/>
  </filter>
  <filter id="filter14980" x="-.066793" y="-.1046" width="1.1336" height="1.2092" color-interpolation-filters="sRGB">
   <feGaussianBlur id="feGaussianBlur14982" stdDeviation="0.10804"/>
  </filter>
  <filter id="filter14984" x="-.053823" y="-.16305" width="1.1076" height="1.3261" color-interpolation-filters="sRGB">
   <feGaussianBlur id="feGaussianBlur14986" stdDeviation="0.10804"/>
  </filter>
  <filter id="filter14988" x="-.067607" y="-.070175" width="1.1352" height="1.1403" color-interpolation-filters="sRGB">
   <feGaussianBlur id="feGaussianBlur14990" stdDeviation="0.10804"/>
  </filter>
  <filter id="filter14992" x="-.031975" y="-.093383" width="1.0669" height="1.1926" color-interpolation-filters="sRGB">
   <feGaussianBlur id="feGaussianBlur14994" stdDeviation="0.10804"/>
  </filter>
  <filter id="filter14996" x="-.094459" y="-.065334" width="1.1889" height="1.1307" color-interpolation-filters="sRGB">
   <feGaussianBlur id="feGaussianBlur14998" stdDeviation="0.10804"/>
  </filter>
  <filter id="filter15000" x="-.050257" y="-.06685" width="1.1005" height="1.1337" color-interpolation-filters="sRGB">
   <feGaussianBlur id="feGaussianBlur15002" stdDeviation="0.10804"/>
  </filter>
  <filter id="filter15004" x="-.050401" y="-.056404" width="1.1008" height="1.1128" color-interpolation-filters="sRGB">
   <feGaussianBlur id="feGaussianBlur15006" stdDeviation="0.10804"/>
  </filter>
  <filter id="filter15118" x="-.0098767" y="-.0091761" width="1.0198" height="1.0184" color-interpolation-filters="sRGB">
   <feGaussianBlur id="feGaussianBlur15116" stdDeviation="0.10804"/>
  </filter>
  <filter id="filter15122" x="-.0053899" y="-.0038061" width="1.0108" height="1.0076" color-interpolation-filters="sRGB">
   <feGaussianBlur id="feGaussianBlur15120" stdDeviation="0.056016399"/>
  </filter>
  <filter id="filter15126" x="-.03873" y="-.03331" width="1.0775" height="1.0666" color-interpolation-filters="sRGB">
   <feGaussianBlur id="feGaussianBlur15124" stdDeviation="0.10804"/>
  </filter>
 </defs>
 <g id="layer60" transform="translate(19.4 11.241)">
  <g id="layer103">
   <g id="layer201" transform="translate(-19.4 -11.241)">
    <g id="g7705" transform="matrix(4.1461 0 0 4.1461 132.54 58.189)" stroke="#000" stroke-width=".60298">
     <path id="path7687" d="m96.776 190.9 0.4588 63.546s0.0239 0.41441 0.08782 0.81037 0.4391 1.5138 0.4391 1.5138l-0.42472 11.832c2.0359 0.91495 3.6556 1.1704 5.8274 1.069l4.1439-0.63809 0.62356-32.73 1.5423-32.23 2.9174 31.37 4e-3 33.723c4.9711 1.5167 7.2136 0.52932 11.278-0.19289l-2.4672-78.245s-2.7333 0.16482-11.776 0.22232c-10.731 0.0682-11.63-0.0174-11.63-0.0174z" fill="#0f3d5f"/>
     <g id="g7703" transform="translate(.2152 -.49518)" fill="none">
      <g id="g7695" stroke-width=".60298">
       <path id="path7689" d="m104.09 192.39s-1.53 4.432-7.5539 7.0776"/>
       <path id="path7691" d="m113.36 192.24s3.0938 5.428 7.6738 6.4039"/>
      </g>
      <path id="path7697" d="m109.31 202.94-0.16955 0.067-0.19501 1.692 0.64736 0.19692c-0.0255-0.68298-0.21689-1.2729-0.2828-1.9559z" color="#000000" fill="#000" stroke="none"/>
     </g>
    </g>
    <path id="path7719" transform="matrix(4.1461 0 0 4.1461 136.95 59.67)" d="m99.592 203.77c0.98966 3.5696 7.0712 8.0225 7.0712 8.0225s-5.0268-4.0312-7.2115-3.0179c-2.4404 1.1319 0.15365 8.0689 0.15365 8.0689-3.9976 2.6263-1.664 8.0705-0.33349 9.5994-0.22468 1.173-0.65868 4.069 0.33351 4.4941 3.5449 1.4365 0.41666 3.602 0.45964 3.6204 0 0-0.93322 0.45981-1.1693 0.88868-0.26411 0.47978-0.14032 1.637-0.14032 1.637s0.19298 0.77268 0.5145 0.8419c0.39964 0.086 2.3182-7e-3 2.3182-7e-3s-1.2159 0.74406-1.8698 1.1812c-0.57558 0.38478-0.69709 0.0846-1.165 0.59483-0.48466 0.52851-0.28613 1.3664-0.0227 1.9668 0.22838 0.52049 1.268 1.14 1.268 1.14s-1.2644 0.0224-1.6838 0.42095c-0.69719 0.66242-1.0649 1.8241-0.8419 2.7596 0.23239 0.97478 0.37694 1.4924 0.37694 1.4924 1.3722 0.79004 3.3799 2.9007 3.235 3.6948-0.0848 0.46461-1.9482-0.59634-3.0234-0.48642-0.79028 0.0808 0.90913 1.5559 1.5848 2.363 1.6271 1.9434 3.7472 3.7642 3.7472 3.7642-0.0666 0.33316-4.4268-4.2291-5.0046-3.6482-0.92151 0.92644-0.21028 3.962-0.21164 3.9601-0.71626 0.6418-0.87184-1.4781 0.87878 1.2883 1.2258 1.2966 2.5309 3.9924 5.4094 4.1146-3.5001 0.0743-4.1481-0.11197-5.8267 0.76198-0.82946 1.2442-0.52513 3.2125 0.45167 4.3276 1.8036 2.059 8.0876 1.4226 8.0876 1.4226-3.3013 0.93328-6.6259 0.75235-9.9713-0.4309-0.16052-3.095 0.3794-7.3013 0.41265-11.791 0.0045-0.60491-0.9328-1.6009-0.9548-2.2117-0.09113-2.5303-0.26194-4.8677-0.41754-7.1976-0.08236-1.2335 0.07606-0.47907 0.09857-1.6616l0.13516-7.1003s0.09292-2.8812-0.04392-7.2947c0 0-0.05755-13.355-0.1091-15.835l-0.18306-24.061 3.4237 0.44526s15.974-0.8942 14.494-0.48134c-0.0637 0.0178 2.1266-0.10984 2.2485 0.12485 0.027 0.052-2.0956 0.37965-2.0604 0.44019 0.75562 1.2996 3.3558 4.486 6.1385 5.8136-1.6531 0.43578-7.666-5.7938-7.5168-5.8407 3.5959-1.1302-8.7068 2.1476-10.811 4.2678-2.4697 2.4885-2.0554 6.3928-2.2691 7.5469z" filter="url(#filter14972)" opacity=".14634" stroke="#000" stroke-width=".26459" style="mix-blend-mode:normal"/>
    <g id="g7788" transform="matrix(4.1461 0 0 4.1461 133.65 58.02)" fill="#0f3d5f" stroke="#000" stroke-width=".60298">
     <g id="g7784"></g>
     <path id="path7786" d="m96.006 191.49 0.99069-27.591c1.1592-17.777 0.0558 1.8562 0 0-0.0181-0.60255-7.0243-1.1932-7.0014-1.7266 4.3241-18.294 11.98-26.757 15.137-26.73l6.8725-0.30901c4.7439 1.9038 10.739 10.264 14.789 26.565 0.11994 0.48271-6.5557 2.3753-6.563 1.8413-0.89131-15.941 0 0 0 0l1.3892 26.496c0.0112 0.57745 0.27153 1.6331-0.96477 1.6389-5.0236-0.17121-24.235 0.79042-24.649-0.18495z"/>
    </g>
    <g id="g7715" transform="matrix(4.1461 0 0 4.1461 132.54 58.189)" stroke="#000">
     <g id="g7709" fill-opacity=".72065">
      <path id="path7707" d="m104.3 135.46c4.5239 0.18121 5.5734 0.0568 8.2794-0.27937l-4.0294 5.8484z" stroke-width=".26458px"/>
     </g>
     <g id="g7713" stroke-width=".26458px"></g>
    </g>
    <path id="path7717" transform="matrix(.26458 0 0 .26458 .48578 -.37089)" d="m2215.4 3393.8-59.99-13.715 50.343 39.822-3.6254 56.812c-2.523 25.114-3.6404 50.364-4.9668 75.756l-27.986-17.621c31.013 29.133 26.693 61.741 35.455 92.11 1.4196-27.691-0.949 81.98-0.4417 157.83l13.762-326.97c6.0013 61.652 25.41 323.04 32.426 391.18l6.8867 82.41c-11.493 93.225 9.3722 356.2 1.252 430.61-0.4027 3.6969 70.52-12.207 53.26-24.424-9.4108-6.6608-48.309 3.8525-41.896-40.754 0 0-2.5117-24.381 48.402 7.7812 5.6665 3.5796-18.595-18.491-15.242-27.508 4.6414-12.483 19.787-22.902 24.914-41.846 3.2469-11.997-26.622-32.758-23.654-82.518 2.9153-48.887 10.822-118.36 24.098-146.8 4.6811-10.03 23.645-4.5225 24.449-5.6601 7.2153-10.206-27.646-20.613-47.684-72.203-5.4512-14.035-7.8848-58.952-10.387-74.248-7.3436-44.898-20.586-87.2-17.283-95.113 16.37-39.218 20.211-82.922 20.211-82.922-3.8596 17.498-23.163 31.37-33.553 35.91 3.1845-21.089 33.033-71.89 26.816-98.619 1.6877-20.649-2.4002-85.294 13.475-104.17-22.112 21.277-57.059 53.26-62.709 30.059l-4.666-19.162-10.95-100.86 52.428-24.829z" fill-opacity=".99763" filter="url(#filter13717)" opacity=".14634" style="mix-blend-mode:normal"/>
    <path id="path7723" transform="matrix(4.1461 0 0 4.1461 133.91 58.187)" d="m104.97 219.94-2.4143-4.2003c0.80112 3.5606 3.1872 6.7338 5.6555 9.8557z" filter="url(#filter14976)" opacity=".14634" stroke="#000" stroke-width=".26459" style="mix-blend-mode:normal"/>
    <path id="path7727" transform="matrix(4.1461 0 0 -4.1461 133.91 2263.2)" d="m122.78 264.78c-3.9361 2.9688-7.1734 2.3595-9.7896 1.9844 1.9252 0.85563 2.9141 2.6724 5.2586 1.5875 0.22371-0.10352 4.531-3.5719 4.531-3.5719z" filter="url(#filter14992)" opacity=".14634" stroke="#000" stroke-width=".26459" style="mix-blend-mode:normal"/>
    <path id="path7729" transform="matrix(4.1461 0 0 4.1461 133.91 58.187)" d="m117.05 259.32 2.745-3.9688s-0.53703 1.425-0.95911 2.0505c-0.48867 0.72418-1.7859 1.9182-1.7859 1.9182z" filter="url(#filter14996)" opacity=".14634" style="mix-blend-mode:normal"/>
    <path id="path7731" transform="matrix(4.1461 0 0 4.1461 133.91 58.187)" d="m116.35 256.35s2.4009-3.415 4.2664-3.8364c0.30281-0.0684 0.89296 0.26458 0.89296 0.26458l-5.0602 3.605" filter="url(#filter15000)" opacity=".14634" style="mix-blend-mode:normal"/>
    <path id="path7733" transform="matrix(4.1461 0 0 4.1461 133.91 58.187)" d="m118.29 236.67c-0.45454 1e-3 -1.3744 0.16966-1.3744 0.16966 2.4351 1.4758 3.4836 2.9516 5.1447 4.4275 0 0-1.7885-4.6017-3.7703-4.5971z" filter="url(#filter15004)" opacity=".14634" style="mix-blend-mode:normal"/>
    <path id="path7735" transform="translate(19.4 11.241)" d="m518.61 1109.2-0.56793 2.6928c2.7186 2.8564 12.987 17.957 15.177 16.124-4.8698-5.5964-9.7397-11.76-14.61-18.817z" color="#000000" stroke-width="4.1461" style="-inkscape-stroke:none"/>
    <path id="path7737" transform="matrix(4.1461 0 0 4.1461 133.91 58.187)" d="m106.27 234.94s-2.0789 0.48974-2.8999 1.1225c-0.44212 0.3408-0.98222 1.3564-0.98222 1.3564z" filter="url(#filter14980)" opacity=".14634" style="mix-blend-mode:normal"/>
    <path id="path7739" transform="matrix(4.1461 0 0 4.1461 133.91 58.187)" d="m104.49 238.44s-1.4902 0.10949-2.1983 0.3274c-0.92638 0.2851-2.6192 1.2628-2.6192 1.2628z" filter="url(#filter14984)" opacity=".14634" style="mix-blend-mode:normal"/>
    <path id="path7741" transform="matrix(4.1461 0 0 4.1461 133.91 58.187)" d="m107.06 255.66-3.695 3.695 3.8353-3.0402z" filter="url(#filter14988)" opacity=".14634" style="mix-blend-mode:normal"/>
    <path id="path7792" transform="matrix(4.1461 0 0 4.1461 134.07 58.019)" d="m97.614 156.44c0.91734 2.2779 2.2714 5.9952 3.4768 9.035 1.5976 3.7893 1.9529 2.9277-1.2924 1.676-4.1037-0.72341 0.62322 5.5778 2.5164 7.3598 2.8349 2.6683 1.2376 4.7909 3.0478 7.9755 0.8073 1.4203 3.6425 2.2236 4.5919 3.4749 2.3414 3.0859 5.4394 5.4029 10.894 5.694-11.967-0.88938-16.618 0.71207-24.943-0.1666 0.66647-11.883-0.11189-23.396 1.7081-35.049z" filter="url(#filter15122)" opacity=".095528" style="mix-blend-mode:normal"/>
    <path id="path7794" transform="matrix(4.1461 0 0 4.1461 134.06 58.019)" d="m116.15 138.43-14.999 4.1438c-4.1347 3.9763-6.7623 11.413-6.9438 15.722-0.06384 1.5157 1.5739 1.4504 2.8311 0.52664 0.86486-0.63546 0.49 3.0658-0.07874 4.5691l-7.0634-1.2186c1.9501-6.1531 3.0918-12.306 7.1282-18.459 2.4066-4.3917 5.5793-7.6597 8.0088-8.2708l6.8725-0.30901z" fill-opacity=".99763" filter="url(#filter15118)" opacity=".14634" style="mix-blend-mode:normal"/>
    <path id="path7796" transform="translate(19.4 11.241)" d="m574.22 671.15c11.815 2.0602 20.887-0.7227 27.758 0v28.851c-14.357 6.3807-20.355 2.3131-27.758 0z" fill="#0f3d5f" opacity=".70833" stroke="#000" stroke-linecap="round" stroke-linejoin="round" stroke-width="1.7579"/>
    <path id="path7798" transform="matrix(4.1461 0 0 4.1461 133.91 58.187)" d="m110.88 150.55c0.30928 0.58337 1.0677 0.0241 1.1935 0.5592 0.89568 3.8092-2.4134 7.3724 5.5014 6.3995-3.4628 1.539-4.9096 0.55789-6.6949 0z" filter="url(#filter15126)" opacity=".14634" style="mix-blend-mode:normal"/>
    <path id="path17392" d="m561.31 623.56 20.77 26.458 21.894-27.98" fill="none" stroke="#000" stroke-width=".26458px"/>
    <path id="path17394" d="m508.94 724.83c9.1428 3.153 17.841 2.948 26.458 5.0932" fill="none" stroke="#000" stroke-width=".26458px"/>
    <path id="path17600" d="m657.06 723.33c-8.9757 3.9805-17.243 5.6588-25.532 7.4083" fill="none" stroke="#000" stroke-width=".26458px"/>
    <path id="path22079" d="m597.15 683.77 21.839-0.36948 0.0661 9.7896-22.117 0.63406z" fill="#fff" stroke="#000" stroke-width=".26458px"/>
    <path id="path21303" d="m604.86 682.13v2.058l6.7352-0.42096v-2.0112z" fill="#c6c6c6" stroke="#000" stroke-width=".26458px"/>
    <path id="path22953" d="m605.22 682.43 6.0689-0.34726 0.0331 1.356c-0.30891-1.4389-3.8895-0.78655-6.102-1.0087z" fill="#fff"/>
   </g>
  </g>
 </g>
</svg>
