<?xml version="1.0" encoding="UTF-8"?>
<svg id="svg5" width="1200mm" height="1200mm" version="1.1" viewBox="0 0 1200 1200" xmlns="http://www.w3.org/2000/svg" xmlns:xlink="http://www.w3.org/1999/xlink">
 <defs id="defs77">
  <filter id="filter5543-6" x="-.0052063" y="-.0015574" width="1.0065" height="1.0053" color-interpolation-filters="sRGB">
   <feGaussianBlur id="feGaussianBlur15-9" stdDeviation="0.0045646585"/>
  </filter>
  <filter id="filter6257-4" x="-.018017" y="-.002053" width="1.0398" height="1.0064" color-interpolation-filters="sRGB">
   <feGaussianBlur id="feGaussianBlur18-0" stdDeviation="0.020753834"/>
  </filter>
  <filter id="filter6257-8-7" x="-.03649" y="-.0052644" width="1.0778" height="1.0146" color-interpolation-filters="sRGB">
   <feGaussianBlur id="feGaussianBlur21-0" stdDeviation="0.087166883"/>
  </filter>
  <filter id="filter6257-8-1-6" x="-.00993" y="-.0026757" width="1.0199" height="1.0054" color-interpolation-filters="sRGB">
   <feGaussianBlur id="feGaussianBlur24-5" stdDeviation="0.0042469749"/>
  </filter>
 </defs>
 <g id="layer60" transform="translate(19.4 11.241)">
  <g id="layer15">
   <g id="g3573">
    <g id="g3551" transform="matrix(4.1461 0 0 4.1461 114.51 46.948)" stroke="#000">
     <g id="g3545" transform="translate(.2152 -.49518)" fill="none" stroke-width=".26458px">
      <path id="path3541" d="m96.609 192.57 11.343 0.10336h0.12919"/>
      <path id="path3543" d="m109.11 192.6 11.834-0.41341"/>
     </g>
     <path id="path3547" d="m94.818 192.64 2.3939-29.201c1.6164-15.491 0.28632-2.4608-0.12932-0.68121-2.8822 5.6622-6.7456 40.224-6.5868 40.184-3.8093 3.409-7.991 0.97006-7.9762 0.625-1.2036-7.3752 5.8572-40.027 11.718-56.209 4.4271-12.224 11.07-12.086 11.07-12.086l6.3064-0.0928c12.62 2.726 24.638 47.671 21.511 68.26-2.6741 0.66409-5.6368 0.0508-5.6368 0.0508-0.8192 0.16747-4.4365-36.677-6.5336-40.077-1.423-13.845-0.52232-3.1692-0.50412-1.1418l2.9628 31.443c-7.772 2.3295-24.57 3.1188-28.596-1.0727z" fill="#383838" fill-opacity=".99763" stroke-linejoin="round" stroke-width=".724"/>
    </g>
    <g id="g3571" transform="matrix(4.1461 0 0 4.1461 114.51 46.948)" stroke="#000">
     <g id="g3569" stroke-width=".26458px">
      <g id="g3563" fill-opacity=".99763">
       <path id="path3555" d="m97.941 155.84c5.6508 14.032-13.638 40.452 25.473 37.865-13.242 2.5658-23.569 2.8345-28.596-1.0727z" filter="url(#filter5543-6)" opacity=".16"/>
       <path id="path3557" d="m120.3 156.5s3.3796 9.5251 4.0224 14.499c1.8323 14.18 6.0845 32.445 6.0845 32.445l-2.9918-0.268c-2.3709-15.711-4.7659-31.136-7.1151-46.676z" filter="url(#filter6257-4)" opacity=".16"/>
       <path id="path3559" transform="matrix(-1,0,0,1,185.48,1.4479)" d="m87.536 154.4s3.3796 9.5251 4.0224 14.499c1.8323 14.18 5.3361 33.568 5.3361 33.568l-1.9134-0.97339c-1.6043-15.763-4.6424-31.59-7.4451-47.094z" filter="url(#filter6257-8-7)" opacity=".16"/>
       <path id="path3561" transform="matrix(-1,0,0,1.1552,179.47,-30.16)" d="m79.009 145.1c0.4935-0.23003 3.5245 3.2482 5.5972 7.3873 1.9802 3.9546 3.919 9.3404 4.3424 11.848 5.7894 15.291 8.5837 35.716 7.8611 38.135l-2.3339 0.72292c1.4406-0.65492-6.31-36.035-15.022-52.127-1.0103-2.2178-2.3459-3.2207-5.0427-3.8618-18.095-4.3078-4.0054-3.8591 1.2913-3.8008z" filter="url(#filter6257-8-1-6)" opacity=".16" stroke-linejoin="round" stroke-width=".26423"/>
      </g>
      <path id="path3565" d="m82.657 201.64c2.712 1.4525 5.6147 0.92033 8.3266-0.35947" fill="none" stroke-dasharray="0.52916, 0.26458" stroke-width=".26458"/>
      <path id="path3567" d="m127.23 201.68c0.86409-0.46657 3.8472-0.24534 6.0552-0.39571" fill="none" stroke-dasharray="0.52916, 0.26458" stroke-width=".26458"/>
     </g>
    </g>
    <g id="g19109" transform="matrix(3.6913 0 0 3.6913 165.8 115.12)">
     <path id="path11014" transform="matrix(.33381 -.078459 .078459 .33381 -64.524 -2.8025)" d="m413.59 552.71-0.75007 2.9222-2.8848 0.88326-2.1107 2.1557-2.9399-0.67746-2.9058 0.81153-2.2073-2.0566-2.9222-0.75007-0.88326-2.8848-2.1557-2.1107 0.67747-2.9399-0.81154-2.9058 2.0567-2.2073 0.75007-2.9222 2.8848-0.88326 2.1107-2.1557 2.9399 0.67747 2.9058-0.81154 2.2073 2.0567 2.9222 0.75007 0.88326 2.8848 2.1557 2.1107-0.67746 2.9399 0.81154 2.9058z" fill="#dcdcdc" stroke="#fff" stroke-linejoin="round" stroke-width=".41374"/>
     <path id="path11014-5" d="m116.91 146.41 5e-3 1.0345 0.49889 0.9063-0.51335 0.89819-0.0211 1.0343-0.89367 0.52118-0.53544 0.88519-1.0345 5e-3 -0.90631 0.49888-0.89818-0.51335-1.0343-0.0211" fill="#fff"/>
    </g>
    <path id="path6149-5" d="m592.51 656.91c-0.48746 1.0001-1.6933 1.4156-2.6934 0.92818-1-0.48745-1.3553-1.4782-0.86786-2.4783 0.48745-1 1.5676-1.5387 2.5677-1.0513 1.0001 0.48749 1.4811 1.6014 0.99361 2.6015z" stroke="#fff" stroke-linejoin="round" stroke-width=".33438"/>
    <circle id="path4066" cx="584.95" cy="662.88" r="9.0535" stroke="#fff" stroke-linejoin="round" stroke-width=".35242"/>
    <path id="path6149" d="m577.83 658.56c-0.51838-0.28442-1.2038-0.58099-1.513-1.633-0.31386-1.0674 0.44479-2.1618 1.531-2.4025 1.0862-0.24047 1.7814 0.52904 2.4025 1.531" stroke="#fff" stroke-linejoin="round" stroke-width=".33438"/>
    <path id="path8290" d="m577.9 655.23c-0.25292 0.09-0.50251 0.28733-0.72831 0.63406-0.32298 0.49579-0.21684 0.95651-0.0166 1.2375 0.1986 0.2811 0.47286 0.42638 0.47286 0.42638-0.19486-0.59471-0.51934-1.0349-0.14387-1.4626 0.60844-0.92072 1.3594-0.4059 1.7693-0.32464 0 0-0.25291-0.32837-0.65234-0.48567-0.19943-0.0784-0.44492-0.11236-0.69882-0.0249z" color="#000000" fill="#fff" stroke-width="2.2503" style="-inkscape-stroke:none"/>
    <path id="path9226" d="m588.97 662.48c-0.11153-0.33625 1.6505-0.33293 1.5357-0.0207-0.0954 0.1932-0.59016 0.66001-0.70649 0.6523-0.2127 8e-3 -0.73486-0.44906-0.82922-0.63157z" fill="#fff"/>
    <g id="g27609" transform="matrix(4.1461 0 0 4.1461 114.51 46.946)">
     <g id="g12677" transform="matrix(.58466 0 0 .58466 47.679 61.361)">
      <circle id="path9838" cx="113.41" cy="148.36" r=".70544" stroke="#fff" stroke-linejoin="round" stroke-width=".165"/>
      <ellipse id="path10126" cx="113.46" cy="148.09" rx=".29633" ry=".23803" fill="#fff"/>
      <circle id="path10358" cx="113.81" cy="148.41" r=".11077" fill="#fff"/>
      <circle id="path9838-3" cx="115.27" cy="148.71" r=".31396" stroke="#fff" stroke-linejoin="round" stroke-width=".073436"/>
      <ellipse id="path10126-9" cx="115.3" cy="148.62" rx=".13189" ry=".10594" fill="#fff"/>
      <circle id="path10358-5" cx="115.46" cy="148.77" r=".0493" fill="#fff"/>
     </g>
    </g>
    <path id="path12712" d="m588.73 663.54 2.0208-0.0207" fill="none" stroke="#fff" stroke-linecap="round" stroke-width=".10272"/>
    <path id="path13321" d="m589.41 663.55s0.0166 0.65869 0.36403 0.66308c0.34371 2e-3 0.35946-0.67511 0.35946-0.67511z" fill="#f47575" stroke="#fff" stroke-width=".087181"/>
    <path id="path14216" d="m584.5 662.03-1.8387-0.29064" fill="none" stroke="#fff" stroke-width=".22673"/>
    <path id="path14216-1" d="m584.46 663.1-0.99684-0.15756-0.84178-0.13309" fill="none" stroke="#fff" stroke-width=".22673"/>
    <path id="path14216-8" d="m593.26 662.01 1.8387-0.29064" fill="none" stroke="#fff" stroke-width=".22673"/>
    <path id="path14216-1-9" d="m593.3 663.09 0.99684-0.15755 0.84178-0.13309" fill="none" stroke="#fff" stroke-width=".22673"/>
   </g>
  </g>
 </g>
</svg>
