<?xml version="1.0" encoding="UTF-8"?>
<svg width="1200mm" height="1200mm" version="1.1" viewBox="0 0 1200 1200" xmlns="http://www.w3.org/2000/svg" xmlns:xlink="http://www.w3.org/1999/xlink">
 <defs>
  <filter id="filter33290-0" x="-.02348" y="-.035063" width="1.047" height="1.0701" color-interpolation-filters="sRGB">
   <feGaussianBlur stdDeviation="0.69827714"/>
  </filter>
  <filter id="filter21702-9-0" x="-.014368" y="-.017114" width="1.0287" height="1.0342" color-interpolation-filters="sRGB">
   <feGaussianBlur stdDeviation="0.15584947"/>
  </filter>
  <filter id="filter23958-9" x="-.024325" y="-.079322" width="1.0486" height="1.1586" color-interpolation-filters="sRGB">
   <feGaussianBlur stdDeviation="0.75675472"/>
  </filter>
  <filter id="filter21702-0" x="-.010905" y="-.010518" width="1.0218" height="1.021" color-interpolation-filters="sRGB">
   <feGaussianBlur stdDeviation="0.15876734"/>
  </filter>
  <filter id="filter22301-2-1" x="-.0061683" y="-.005954" width="1.0123" height="1.0119" color-interpolation-filters="sRGB">
   <feGaussianBlur stdDeviation="0.067466026"/>
  </filter>
  <filter id="filter22301-3" x="-.019872" y="-.01826" width="1.0397" height="1.0365" color-interpolation-filters="sRGB">
   <feGaussianBlur stdDeviation="0.16541507"/>
  </filter>
 </defs>
 <g transform="translate(19.4 11.241)">
  <g transform="matrix(4.1461 0 0 4.1461 114.5 46.942)" fill="#ff8080" stroke="#000">
   <path d="m69.236 123.63s-8.7787-8.7579-8.102-16.44c-3.8647 1.0197-4.0806-2.3632-4.1212-3.0672-0.043-2.8312 4.4142-3.1769 5.1474-2.0463-2.8714-2.1877-2.103-22.318 4.929-29.285 5.7511-5.6979 8.1348-7.4917 18.417-10.743 1.173-0.2284 2.4479-0.39111 3.8014-0.49707 15.831-1.2394 42.411 5.2856 42.411 5.2856 4.8482 3.4141 8.6154 8.1268 11.084 13.628 3.9396 8.7799 4.8234 27.406 4.8234 27.406s3.7874-0.86084 3.9464 2.3386c0.12591 2.5332-3.1573 2.7718-3.1573 2.7718-1.7917 4.2649-6.2938 9.6097-9.8212 12.431-0.25385 1.5231 0.35751 3.0798 1.6034-0.42585 0.1914-0.53854 1.5496 2.1148 1.7635 1.2382 0.46012-1.8853 1.2619-3.0667 1.3797-3.7548 0.14496-0.8464 1.6307 3.4479 1.6537 2.5155 0.0472-1.9123 1.432-5.4791 2.0451-5.872 0.71832-0.46029 1.205 4.8705 1.335 4.0408 0.44318-2.828 3.1794-8.5634 3.7118-9.3261 0.33948-0.48638 2.4002 0.72802 1.9827 0.15843-1.0726-1.4634-0.18313-4.0926 0.0947-5.4289 1.68-8.0811 0.64103-20.873-0.42554-26.483-0.21411-1.1262-1.212-0.71319-1.4096-1.7326-1.7517-9.0656-9.0261-17.915-16.472-23.376-3.2965-2.2028-7.6429-5.9127-13.268-7.5952-7.9885-2.3897-21-4.9572-30.814-3.6342-6.8725 0.92646-20.046 5.3849-26.479 8.9203-1.5808 0.86871 7.6843-2.1714 6.0967-0.94613-7.0584 5.4475-16.122 21.429-18.564 29.687-0.32154 1.0873 3.8389-7.2227 3.5922-6.0749-1.8586 8.6504-2.8048 35.023-1.1338 36.883l1.3531-3.5583c-0.0033 5.9869 0.9982 6.9735 2.7435 10.842l1.3073-3.8407c0.86771 3.6125 1.3982 3.9686 1.7338 5.4033 0 0 0.96894-1.6907 1.7993-2.2207 0.30682-0.19585 1.3709 2.6964 1.7795 4.0745 0.19645 0.66255 1.4598-2.3288 1.6298-1.954 2.2613 4.9828 1.6967 0.50549 1.6042 0.67719z" stroke-linecap="round" stroke-linejoin="round" stroke-width=".565"/>
   <path d="m84.921 50.719 0.58465 11.328c14.608 7.0729 29.706 18.016 36.979 31.937l0.14616-3.5079c4.3061 6.2977 21.95 11.511 24.994 19.367 0 0 2.8402-5.5332 4.0926-8.6967s1.9012-5.9705 2.5794-12.275c0.12299-1.1434 2.42 4.0091 2.5791 3.0125 0.16439-1.03-2.4334-8.2097-2.7071-9.446-1.9986-9.0293-9.411-23.564-19.956-30.183s-28.17-8.0961-36.375-6.8302c-8.2048 1.266-12.918 5.2961-12.918 5.2961z" stroke-width=".52917"/>
  </g>
  <path d="m618.01 253.9-27.693-78.78c-2.118 19.493 4.8542 46.561-6.3539 58.481l34.047 20.301" fill-opacity="0" stroke-width="4.1461"/>
  <path transform="matrix(4.1461 0 0 4.1461 114.51 46.946)" d="m97.977 65.75-2.0118-3.3421 19.704 21.01 0.27406 0.73082c-5.7669-6.849-13.523-11.497-17.966-18.398z" color="#000000" filter="url(#filter22301-3)" opacity=".11401" style="-inkscape-stroke:none;mix-blend-mode:normal"/>
  <path transform="matrix(-4.0889 -.68644 .68644 -4.0889 812.11 651.23)" d="m23.308 54.503-2.0118-3.3421s6.8639 9.395 11.929 15.827 14.321 11.368 14.321 11.368c-11.116-3.7503-18.264-13.696-24.238-23.852z" color="#000000" filter="url(#filter22301-2-1)" opacity=".081433" style="-inkscape-stroke:none"/>
  <path transform="matrix(4.1461 0 0 4.1461 114.51 46.946)" d="m91.192 54.629c-8.787 1.5842 3.2856 0.83452 4.8704 1.4261 0.81987 0.30606 1.6289 0.65607 2.3867 1.0938 11.881 6.8619 17.037 21.581 23.869 33.549 0.12664 0.22182 0.74551-0.21814 0.625-0.44336-3.0536-4.0772-15.263-37.79-31.751-35.625z" color="#000000" filter="url(#filter21702-0)" opacity=".11401" style="-inkscape-stroke:none;mix-blend-mode:normal"/>
  <path transform="matrix(4.1461 0 0 4.1461 114.51 46.946)" d="m81.84 48.236c-0.52411 0.94554-9.4484 3.0195-9.8096 4.2804-0.35628 1.2439-14.294 15.835-13.247 17.095 1.1351 1.3657 14.352-10.761 17.699-10.738 3.0129 0.02156 3.2519 3.9149 3.5354 5.0967 3.9762-1.4295 3.759-2.1105 5.7064-1.8879 1.6185 1.5381 3.8979 4.0201 3.8979 4.0201-3.2682-2.7881-5.0116-18.238 12.776-18.545 1.0767-0.01857 22.895 0.46585 35.937 7.7101 3.3845 1.8799-9.6082-9.3001-27.628-9.8263-10.884-1.1324-27.239 1.3236-28.868 2.7941z" filter="url(#filter23958-9)" opacity=".10749" stroke="#000" stroke-width=".26458px" style="mix-blend-mode:normal"/>
  <path transform="matrix(-3.6704 0 0 5.3804 550.96 -213.94)" d="m28.749 93.288s7.4233 1.9801 10.229 3.8142c7.3634 4.8143 15.923 18.099 15.802 17.874-3.0536-4.0772-9.5422-23.853-26.031-21.688z" color="#000000" filter="url(#filter21702-9-0)" opacity=".10749" style="-inkscape-stroke:none;mix-blend-mode:normal"/>
  <path transform="matrix(4.1461 0 0 4.1461 114.51 46.946)" d="m85.505 62.046c17.463 8.2382 29.717 18.806 36.979 31.937l0.14616-3.5079c4.3061 6.2977 21.95 11.511 24.994 19.367 0 0 2.8402-5.5332 4.0926-8.6967 1.2524-3.1635 1.9012-5.9705 2.5794-12.275 0.12299-1.1434 2.42 4.0091 2.5791 3.0125 0.16439-1.03-3.8717-14.078-4.4662-12.96-11.3 21.253-24.292 12.093-34.836 5.4734s-14.058-14.691-22.836-18.418c0 0-6.267-2.9483-9.2316-3.9317z" fill="#050400" filter="url(#filter33290-0)" opacity=".10424" style="mix-blend-mode:normal"/>
 </g>
</svg>
