<?xml version="1.0" encoding="UTF-8"?>
<svg width="1200mm" height="1200mm" version="1.1" viewBox="0 0 1200 1200" xmlns="http://www.w3.org/2000/svg" xmlns:xlink="http://www.w3.org/1999/xlink">
 <g>
  <path d="m787.24 313.86c-2.7223-0.46389-5.3052 1.367-5.7689 4.0893l-72.773 414.21-0.66371 3.7779c1.5785 2.021 7.0123 4.2237-1.0193 5.8013l-0.56212 3.2017-0.0177 0.1992c-0.42879 4.8354-4.394 7.7203-5.7283 7.6201-0.66713-0.0501-1.2083-0.0914-2.0924-1.9605-0.88417-1.8691-1.6129-5.7215-0.84008-11.804 0.34762-2.739-1.5907-5.2414-4.3296-5.5896-2.7396-0.34877-5.2432 1.5896-5.5915 4.3293-0.92807 7.3042-0.35008 12.957 1.7232 17.34 2.0733 4.3828 6.1416 7.3388 10.381 7.6573 8.4785 0.63684 15.569-6.8813 16.439-16.71l-0.0511 0.3976 0.52113-2.9906c-9.3285-4.7589-3.6859-8.9023 1.5522-8.8936l72.912-414.91c0.46266-2.7218-1.3681-5.3034-4.0896-5.767z" color="#000000" fill="#595959" stroke="#000" stroke-linecap="round"/>
  <path d="m830.96 63.896c-164.96-5.5127-418.13-32.874-486.41 189.5 73.633-19.035 142.41-10.845 205.14 31.227 97.037-25.539 177.3-1.9124 250.42 42.532 89.102-29.55 154.99 7.5392 221.18 43.764 65.302-27.321 141.63 7.8012 169.45 32.385 19.146-238.21-213.71-289.46-359.78-339.41z" fill="#ffdb13" stroke="#000" stroke-width="2"/>
  <g fill="none" stroke="#000" stroke-linecap="round" stroke-width="2">
   <path d="m549.23 286.8c22.317-102.16 113.65-177.5 280.54-222.33 0.1412 70.628-14.848 159.83-30.693 265.44"/>
   <path d="m831.9 64.764c201.14 140.68 183.24 222.81 189.51 309.37"/>
   <path d="m344.7 253.07-1.3186 3.8129"/>
   <path d="m1190.6 401.95-0.1341 5.0122"/>
  </g>
  <g stroke="#000" stroke-width=".26458px">
   <path d="m822.52 66.411s-138.86 14.724-202.72 44.408c-69.781 31.198-125.47 81.745-154.18 138.21 8.45-7.8834 89.87 33.343 83.529 36.189-1.5504 0.69569 17.215-81.072 93.412-136.13 79.143-57.187 179.95-82.675 179.95-82.675z" opacity=".065"/>
   <path d="m825.05 66.578c-0.0803 0.55662 2.0483 1.6495 1.9687 2.2054-37.991 84.164-89.338 148.41-104.61 220.61l75.674 36.438c19.3-84.23 26.131-171.16 32.395-257.72z" opacity=".065"/>
   <path d="m831.91 68.087c82.765 98.229 167.09 147.04 159.21 285.73l30.01 17.137c0.6717-9.9097-0.5511-20.053-0.7806-29.362-0.9089-36.882-7.4179-69.304-19.246-97.631-37.867-90.685-120.27-141.14-165.04-176.01-5.2085-4.0571 1.2352 4.5861-4.1454 0.1442z" opacity=".065"/>
   <path d="m915.73 92.544c312.86 125.69 252.3 265.57 253.93 293.9 0.4226 7.4453 15.018 9.3 20.722 15.84 0 0 20.885-125.92-76.923-207.95-97.808-82.028-197.73-101.79-197.73-101.79z" opacity=".065"/>
  </g>
  <ellipse transform="rotate(10.117)" cx="828.27" cy="-81.386" rx="6.4492" ry="2.927" fill="#ffdb13" fill-rule="evenodd" stroke-linecap="round" stroke-width="3.0775" style="paint-order:fill markers stroke"/>
  <path d="m831.62 54.785c-2.7185-0.48506-5.3155 1.3255-5.8005 4.044l-0.93659 5.2491c0.65255 2.8483 8.8306 4.3371 9.8445 1.7565l0.93656-5.2492c0.48506-2.7185-1.3255-5.3155-4.044-5.8005z" color="#000000" stroke-linecap="round" style="-inkscape-stroke:none"/>
  <path d="m775.25 369.27-53.459 301.75c15.413-102.95 41.289-214.03 53.459-301.75z" color="#000000" fill="#fff" opacity=".57114" style="-inkscape-stroke:none"/>
 </g>
</svg>
