<?xml version="1.0" encoding="UTF-8"?>
<svg id="svg5" width="1200mm" height="1200mm" version="1.1" viewBox="0 0 1200 1200" xmlns="http://www.w3.org/2000/svg" xmlns:xlink="http://www.w3.org/1999/xlink">
 <defs id="defs77">
  <filter id="filter230958" x="-.014378" y="-.0047655" width="1.0288" height="1.0095" color-interpolation-filters="sRGB">
   <feGaussianBlur id="feGaussianBlur230960" stdDeviation="0.090146468"/>
  </filter>
  <filter id="filter231330" x="-.27696" y="-.15068" width="1.5539" height="1.3014" color-interpolation-filters="sRGB">
   <feGaussianBlur id="feGaussianBlur231332" stdDeviation="5.6192224"/>
  </filter>
  <filter id="filter233957" x="-.084703" y="-.058555" width="1.1694" height="1.1171" color-interpolation-filters="sRGB">
   <feGaussianBlur id="feGaussianBlur233959" stdDeviation="1.7398939"/>
  </filter>
  <filter id="filter230958-6" x="-.014378" y="-.0047655" width="1.0288" height="1.0095" color-interpolation-filters="sRGB">
   <feGaussianBlur id="feGaussianBlur230960-1" stdDeviation="0.090146468"/>
  </filter>
  <filter id="filter231330-0" x="-.27696" y="-.15068" width="1.5539" height="1.3014" color-interpolation-filters="sRGB">
   <feGaussianBlur id="feGaussianBlur231332-0" stdDeviation="5.6192224"/>
  </filter>
  <filter id="filter233957-9" x="-.084703" y="-.058555" width="1.1694" height="1.1171" color-interpolation-filters="sRGB">
   <feGaussianBlur id="feGaussianBlur233959-2" stdDeviation="1.7398939"/>
  </filter>
 </defs>
 <g id="layer60" transform="translate(19.4 11.241)">
  <g id="layer214">
   <g id="layer184" transform="translate(-19.4 -11.241)">
    <path id="path229288-4-0" transform="matrix(1.3665 0 0 1.1084 -157.67 -29.858)" d="m415.28 337.17c14.794-0.98358 32.539-7.1115 45.315-27.344-5.4284-4.605-3.3743-16.198-9.3472-15.582-15.022 1.5491 0.97434-7.8101 0.57727-28.388-13.078 15.788-35.529-18.953-24.797 26.874 5.5339 23.632-2.687 0.28219-12.873 1.9667 8.6272 11.07 2.7857 15.184 3.3034 20.571 0.79336 8.2572-5.9877 8.328-2.27-3.036-8.2529 1.1764-2.6245 20.141 9.7726 21.587z" fill="#fd9b37" filter="url(#filter233957)" opacity=".48374" style="mix-blend-mode:normal"/>
    <path id="path229288" d="m423.02 340.14c14.794-0.98358 35.917-6.3611 48.693-26.593-16.638-14.114-21.216-36.097-22.137-66.074-27.39 22.015-24.86 61.615-26.556 92.667z" fill="#9b0b0b" stroke="#000" stroke-width="1.5"/>
    <path id="path229288-4" transform="matrix(1.3665 0 0 1.1084 -153.67 -31.068)" d="m415.28 337.17c14.794-0.98358 35.917-6.3611 48.693-26.593-16.638-14.114-19.44-32.929-20.361-62.906-27.39 22.015-26.636 58.447-28.333 89.499z" fill="#9b0b0b" filter="url(#filter231330)" opacity=".45732" style="mix-blend-mode:normal"/>
    <path id="path229895" d="m449.58 247.48c-12.412 29.688-11.374 56.706-0.57231 85.789-7.6182 5.373-16.926 5.758-25.984 6.8782 3.698-29.315-5.5857-59.924 26.556-92.667z" opacity=".26829" stroke="#000" stroke-width=".26458px"/>
    <path id="path230386" d="m447.62 275.42c1.2368 16.913 5.4811 31.595 11.339 44.631 1.1213 2.1612 4.9203-0.62442 3.3205-3.5388-5.9918-12.121-11.475-24.78-14.659-41.092z" fill="#fd9b37" filter="url(#filter230958)"/>
    <path id="path235157" d="m423.59 279.7s-2.1251 1.2463-4.0606 2.7129c-0.96772 0.73331-1.8897 1.5138-2.5078 2.2832-0.30904 0.38473-0.55203 0.76493-0.6582 1.2051s5e-3 0.99993 0.36914 1.3477c2.2811 2.1795 5.0384 5.3913 5.4453 7.666 0.41594 3.7058-1.9754 6.6262-3.8164 9.2774-2.2188 3.2-4.4334 6.7935-3.1504 11.273 0.67868 2.3698 2.8805 4.5041 5.7207 6.4961 2.8402 1.992 6.358 3.8228 9.7949 5.3867 6.8737 3.1279 13.432 5.1914 13.432 5.1914-6.8885-3.988-11.161-5.5569-12.908-6.3438-4.4488-2.1646-11.065-6.8207-12.532-11.484-1.129-3.9423-1.5105-6.6366 0.68214-9.7988 2.3578-3.5536 5.5723-7.9308 4.0215-10.221-8.1008-11.318-4.2385-8.6659 0.16797-14.992z" color="#000000" fill="#fffefd" style="-inkscape-stroke:none"/>
    <path id="path235159" d="m456.88 278.59s0.63333 0.19264 1.3613 0.92382c0.72799 0.73119 1.5106 1.967 1.6367 4.1309 0.14486 4.5338-3.0015 7.0762-3.7774 11.887 0 0 1.3114-1.872 2.5938-4.2773 1.2823-2.4054 2.5835-5.3117 2.4453-7.6836 0.13232-2.6744-2.8984-4.0566-4.2598-4.9805z" color="#000000" fill="#fffefd" style="-inkscape-stroke:none"/>
    <path id="path229288-4-0-4" transform="matrix(-1.3665 0 0 1.1084 1292.2 -30.153)" d="m415.28 337.17c14.794-0.98358 32.539-7.1115 45.315-27.344-5.4284-4.605-3.3743-16.198-9.3472-15.582-15.022 1.5491 0.97434-7.8101 0.57727-28.388-13.078 15.788-35.529-18.953-24.797 26.874 5.5339 23.632-2.687 0.28219-12.873 1.9667 8.6272 11.07 2.7857 15.184 3.3034 20.571 0.79336 8.2572-5.9877 8.328-2.27-3.036-8.2529 1.1764-2.6245 20.141 9.7726 21.587z" fill="#fd9b37" filter="url(#filter233957-9)" opacity=".48374" style="mix-blend-mode:normal"/>
    <path id="path229288-48" d="m711.52 339.85c-14.794-0.98358-35.917-6.3611-48.693-26.593 16.638-14.114 21.216-36.097 22.137-66.074 27.39 22.015 24.86 61.615 26.556 92.667z" fill="#9b0b0b" stroke="#000" stroke-width="1.5"/>
    <path id="path229288-4-6" transform="matrix(-1.3665 0 0 1.1084 1288.2 -31.363)" d="m415.28 337.17c14.794-0.98358 35.917-6.3611 48.693-26.593-16.638-14.114-19.44-32.929-20.361-62.906-27.39 22.015-26.636 58.447-28.333 89.499z" fill="#9b0b0b" filter="url(#filter231330-0)" opacity=".45732"/>
    <path id="path229895-9" d="m684.96 247.18c2.7193 35.463-14.663 61.296-22.137 66.074 5.5774 6.8543 9.4294 16.417 18.606 17.452-3.698-29.315 26.226-48.883 3.5311-83.525z" opacity=".26829" stroke="#000" stroke-width=".26458px"/>
    <path id="path230386-9" transform="matrix(-.94872 .31611 .31611 .94872 1257.1 -228.91)" d="m688.13 303.93c1.2368 16.913 5.4811 31.595 11.339 44.631 1.1213 2.1612 4.9203-0.62442 3.3205-3.5388-5.9918-12.121-11.475-24.78-14.659-41.092z" fill="#fd9b37" filter="url(#filter230958-6)"/>
    <path id="path235157-4" d="m721.43 315.55c-2.3556 5.306-12.714 9.2561-17.615 11.5-6.8737 3.1279-13.432 5.1914-13.432 5.1914 8.1486-4.9854 23.443-8.4833 26.622-17.44 3.0117-5.2759-0.61022-12.194-5.7401-18.645 1.1722-1.0312 13.059 12.876 10.165 19.394z" color="#000000" fill="#fffefd" style="-inkscape-stroke:none"/>
    <path id="path235159-0" d="m680.51 258.39c-0.89809 0.90203-1.8636 2.4266-2.0191 5.096-0.17871 5.5932 9.9158 9.0705 10.068 21.128-4.3016-12.912-11.875-14.19-11.624-21.219-0.2648-2.2621 7.0388-8.4072 3.5757-5.0045z" color="#000000" fill="#fffefd" style="-inkscape-stroke:none"/>
   </g>
  </g>
 </g>
</svg>
