<?xml version="1.0" encoding="UTF-8"?>
<svg width="1200mm" height="1200mm" version="1.1" viewBox="0 0 1200 1200" xmlns="http://www.w3.org/2000/svg" xmlns:xlink="http://www.w3.org/1999/xlink">
 <g>
  <g>
   <path transform="translate(19.4 11.241)" d="m491.41 267.91s-21.506 7.1306-32.73 12.675c-23.296 11.508-43.292 26.981-59.98 46.412-22.535 26.238-36.234 57-41.229 92.577-1.1092 7.9026-0.93727 34.289 0.27639 42.422l0.95556 6.404-1.1441 0.79916c-5.3279 3.7306-7.183 6.9139-6.8347 11.728 0.46137 6.3789 4.9709 10.842 11.784 11.662 1.9657 0.23666 3.6917 0.54858 3.8351 0.69203 0.14337 0.14333 0.62524 2.8601 1.0713 6.0376 2.5684 18.297 8.9002 32.187 21.588 47.356 9.934 11.876 23.602 22.729 39.813 31.871 44.122 9.8714 70.125 0.87527 93.903-13.171 35.419-20.922 62.057-58.684 75.145-114.97 9.5936-41.256-8.3805-84.183-18.873-102.83-12.991-23.083-28.482-40.61-55.29-54.485-12.508-6.4738-32.292-25.186-32.292-25.186z" fill="#f9a6c9" fill-opacity=".74949" stroke-width="1.097" style="mix-blend-mode:normal"/>
   <g fill="none" stroke="#000" stroke-linecap="round" stroke-width="2">
    <path d="m510.74 279.12c24.059 23.898 59.212 37.548 76.872 61.629 46.912 63.968 44.561 165.18-32.379 226.75-19.072 15.263-57.526 32.672-103.59 23.047"/>
    <path d="m467.25 586.05 2.6458 10.583"/>
    <path d="m483.66 596.64-3.175-8.7312"/>
    <path d="m504.03 594.25-5.8208-7.6729"/>
    <path d="m492.92 597.43-3.175-9.525"/>
    <path d="m516.73 592.67-4.2333-8.7312"/>
    <path d="m527.84 587.37-3.175-8.2021"/>
    <path d="m540.54 582.08-5.2917-9.7896"/>
    <path d="m551.92 576.79-6.8792-7.9375"/>
    <path d="m561.97 568.59-9.7896-5.2917"/>
    <path d="m573.88 558.27-14.023-3.7042"/>
    <path d="m582.35 549.01-9.525-5.2917"/>
    <path d="m588.7 539.75-5.5562-7.1438"/>
    <path d="m596.11 529.17-6.0854-5.2917"/>
    <path d="m601.66 519.91-5.8208-3.9688"/>
    <path d="m605.63 510.91-5.5562-3.4396"/>
    <path d="m621.24 461.7-7.1438-1.8521"/>
    <path d="m623.89 447.94-9.2604-1.3229"/>
    <path d="m623.62 439.47-12.435-2.6458"/>
    <path d="m622.56 418.31-13.494 3.4396"/>
    <path d="m625.47 425.71-11.642 4.7625"/>
    <path d="m619.92 405.34-12.77-0.66811"/>
    <path d="m618.6 396.08-13.758-4.4979"/>
    <path d="m612.77 375.18-12.051 1.9617"/>
    <path d="m605.9 361.95-10.319 3.175"/>
    <path d="m597.96 347.66-9.525 4.4979"/>
    <path d="m589.82 334.97-11.177 6.3395"/>
    <path d="m583.94 329.67-15.346 5.2917"/>
    <path d="m576 320.94h-16.669"/>
    <path d="m560.39 310.09-9.7896 5.5562"/>
    <path d="m553.24 300.83-12.965 6.8792"/>
    <path d="m537.1 294.48-7.6757 6.2592"/>
    <path d="m528.37 286.28-9.525 4.7625"/>
    <path d="m522.02 281.25-12.171 3.175"/>
   </g>
  </g>
 </g>
</svg>
