<?xml version="1.0" encoding="UTF-8"?>
<svg id="svg5" width="1200mm" height="1200mm" version="1.1" viewBox="0 0 1200 1200" xmlns="http://www.w3.org/2000/svg" xmlns:xlink="http://www.w3.org/1999/xlink">
 <defs id="defs77">
  <filter id="filter77347" x="-.0088079" y="-.008582" width="1.0165" height="1.0163" color-interpolation-filters="sRGB">
   <feGaussianBlur id="feGaussianBlur77349" stdDeviation="0.36207386"/>
  </filter>
 </defs>
 <g id="layer60" transform="translate(19.4 11.241)">
  <g id="layer17">
   <g id="layer198" transform="translate(-19.4 -11.241)">
    <path id="path56255" d="m637.12 849.84c21.402 110.29 17.968 214.73 39.588 317.75-3.6151 1.9675-9.8677 2.5977-14.713 4.0723l-0.20228-2.0215c-5.7934 1.8995-11.552 4.7449-17.052 4.671l-0.0866-2.447c-6.2361 2.7019-11.251 3.5462-17.018 4.3481l-0.11169-2.5385c-6.4185 1.5597-12.248 4.4247-19.06 3.7442l-0.0587-2.3009c-6.0179 1.1828-11.488 3.4292-17.698 2.6364l-0.16136-1.774c-6.1389 2.385-11.745 2.0285-17.702 1.5683l0.057-1.772c-5.034 2.0635-9.8914 2.0506-14.823 1.2825l0.0609-1.7404c-5.5737 1.6222-11.033 2.7292-16.498 1.0636l0.026-2.0023c-3.5841 0.9686-10.121 1.8256-15.44 1.0728l0.13746-1.4936c-3.6597 0.4645-9.0907 0.923-13.082 0.2915l0.21892-2.5543c-1.4503 0.062-6.7133 1.0067-13.305 0.012 13.681-103.11 17.987-241.16 33.182-322.42 2.5531 0.24785 70.632 3.6283 103.74 0.55663z" fill="#414f61" stroke="#000" stroke-width="2"/>
    <path id="path57733" d="m532.74 855.4c34.583 2.4421 68.814 3.809 105.3 0.39687" fill="none" stroke="#000" stroke-width="2"/>
    <path id="path57848" d="m512.4 1173.1 1.9941 0.1582 24.829-316.45c-10.122 104.58-18.174 211.56-26.823 316.29z" color="#000000" style="-inkscape-stroke:none"/>
    <path id="path57848-4" d="m525.32 1174.7 1.9941 0.1386 21.973-317.68c-9.5621 105.85-16.702 212.85-23.967 317.54z" color="#000000" style="-inkscape-stroke:none"/>
    <path id="path57848-4-8" d="m540.63 1176.3 1.9961 0.1133 18.326-318.84c-8.1791 110.83-14.289 211.76-20.322 318.73z" color="#000000" style="-inkscape-stroke:none"/>
    <path id="path57848-4-5" d="m557.27 1177.2 1.998 0.07 10.926-319.82c-5.7166 103.52-9.2805 214.31-12.924 319.75z" color="#000000" style="-inkscape-stroke:none"/>
    <path id="path57848-4-0" d="m571.89 1176.8 2 0.039 6.2364-319.47c-4.5665 125.2-6.1759 214.33-8.2364 319.43z" color="#000000" style="-inkscape-stroke:none"/>
    <path id="path57848-4-59" d="m589.6 857.79c-1.6218 135.45-0.61729 213.73 0.0115 318.88l2-0.012z" color="#000000" style="-inkscape-stroke:none"/>
    <path id="path57848-4-09" d="m599.78 857.35c1.3182 101.54 4.6383 214.45 7.7612 319.61l1.998-0.061z" color="#000000" style="-inkscape-stroke:none"/>
    <path id="path57848-4-07" d="m609.54 856.86c4.8552 101.96 10.766 214 17.12 318.94l1.9961-0.1211z" color="#000000" style="-inkscape-stroke:none"/>
    <path id="path57848-4-01" d="m620.13 857.01c8.0596 114.25 15.328 212.41 23.78 316.6l1.9941-0.1601z" color="#000000" style="-inkscape-stroke:none"/>
    <path id="path57848-4-3" d="m630.58 856.6c9.5498 102.16 19.662 210.79 30.284 313.68l1.9883-0.2051z" color="#000000" style="-inkscape-stroke:none"/>
    <path id="path73064" d="m499.71 1171.2 3.1805-22.264c7.2787 54.521 21.988-158.46 33.676-262.67l-23.199 287.74c1.5966-2.6741 0.071-20.957 1.2698-17.299 7.4738 22.805 14.684-82.798 21.181-126.01l-9.7286 144.06 2.2847-17.269c8.147 28.334 14.942-97.869 22.411-146.81l-9.1674 165.2 1.5509-17.788c11.003 37.541 14.931-130.08 22.396-195.12l-7.2965 213.66 0.91568-17.477c9.6575 32.576 11.244-90.863 16.858-136.31l-2.9934 154.35 1.0237-19.473c17.824 43.08 10.271-127.71 15.253-191.56l1.1225 209.73 0.70635-18.549c20.131 38.729 8.4416-100.97 12.016-151.51l5.4256 171.56-0.1655-21.119c24.171 49.556 4.285-135.2 6.1523-202.83l13.283 221.89-1.398-21.442c27.089 56.755-1.9028-167.93-2.9051-251.89l21.328 271.65-1.5802-23.331c24.468 50.51 0.63639-102.8 0.64477-154.22l18.709 174.37-2.2451-1.3096-15.341 5.6126-0.74835-2.9934-16.09 4.3031-1.6838-2.6193-18.148 4.3031-0.18709-2.8064-17.773 2.8064 0.56126-2.058-17.773 2.4321-0.74835-2.0579-14.78 1.1225 0.74835-1.6838-16.838 0.5613-0.56126-1.4967-14.967 1.4967 0.18709-1.8709-13.283 0.1871 0.74834-2.8064z" opacity=".14634" stroke="#000" stroke-width=".26458px"/>
    <path id="path75616" d="m632.73 851.07-98.97-1.8709-14.593 116.93c2.935-12.3 8.2464-25.046 13.498-35.06 0.22268-0.42464 0.3536-3.3729 0.57983-3.7934 3.5651-6.6266 7.5728-12.669 11.975-18.225 0.27883-0.35187-0.13429-4.0666 0.14768-4.4146 4.0813-5.0365 8.6444-8.0178 13.381-12.218 0.38007-0.33703-0.17333-2.6494 0.21065-2.9818 3.2706-2.8307 6.7071-4.1524 10.287-6.6483 0.41111-0.28661-0.39195-2.565 0.0229-2.8478 3.5018-2.3865 6.5267-3.357 10.347-5.4497 0.53384-0.29246-0.55785-2.4442-0.0172-2.7324 3.1592-1.684 6.6252-2.3326 10.078-3.8365 0.49458-0.21539-0.6374-2.1973-0.13829-2.4098 3.2564-1.3865 6.8328-1.7391 10.375-2.9663 0.59541-0.20626-0.49019-1.3465 0.11035-1.5501 3.6807-1.248 7.662-2.3335 11.696-3.4019 7.3269-1.9406-34.004-4.7602 21.01-6.5236z" filter="url(#filter77347)" opacity=".075203" stroke="#000" stroke-width=".26458px"/>
   </g>
  </g>
 </g>
</svg>
