<?xml version="1.0" encoding="UTF-8"?>
<svg width="1200mm" height="1200mm" version="1.1" viewBox="0 0 1200 1200" xmlns="http://www.w3.org/2000/svg" xmlns:xlink="http://www.w3.org/1999/xlink">
 <g>
  <path transform="scale(.26458)" d="m2434.3 731.03c-181.32-29.559-558.55-1.6666-750.55 140.49-27.335 20.239-42.4-8.1012-59.036-41.729-77.136 48.727-87.32 153.32-80.711 226.21-71.356 26.786-234.27 209.84-250.16 332.61 71.301-37.323 98.283-8.8559 98.283-8.8559-39.614 149.55-27.806 302.4 9.7173 454.3-6.4578 22.241-6.4376 42.366 17.575 62.896 10.962 36.242 23.831 69.028 37.589 102.05 89.967 203.14 127.33 235.33 191 353-7.5621 45.622-27.254 73.093-50 101 37.891-18.435 79.845-20.619 113-58 6.4875 25.333 16.458 59.667 5 85 26.889-20.178 69.043-34.25 72-64 22.353 18.568 30.689 47.65 72 52-4.968-32.648 14.232-50.46 31.031-59.099 10.762 27.615 41.036 56.907 41.036 56.907-2.052-20.497 15.231-36.58 24.217-55.908l85.574 52.728 96.684-12.72 141.49 17.904 100.81-45.427 63.517 39.323c7.9608-14.629-6.4818-39.214 24.848-43.457 21.77-3.2496 29.796 17.061 38.783 35.725 24.423-9.1067 30.764-32.179 38.759-47.674 26.562 3.2368 47.723 26.971 68.79 43.03 0.9259-24.549 6.4239-40.461 15.834-48.984 18.508 13.997 30.383 32.417 59.026 39.659 1.9188-24.77-14.069-48.643 2.4511-65.683 22.667 11.969 52.404 23.023 75.071 14.253-23.833-24.558-58.353-44.891-43.924-84.575l116-284c4.9654-14.669 14.59-23.29 22.054-35.765 21.958-17.142 18.979-37.62 17.129-51.664 18.046-74.354 46.457-290.7 38.816-460.57 0 0 23.911-38.581 67.673 12.27-13.168-146.68-101.52-302.29-218.17-413.77 0 0 56.334-32.66 100.25-21.256-98.616-120.01-338.67-253.94-501.49-277.25 3.2362-3.3373 10.011-10.168 68.045-40.967zm283.01 547.35c6.9212 8.059 13.622 16.231 20.102 24.516 73.267 93.672 80.509 196.84 87.722 321.38 6.9269 119.6-17.538 275.94-33.877 397.93 14.141-16.188 22.807-69.947 36.983-96.301 12.011-22.329 26.085-15.757 28.103-15.152 17.866 5.353 27.239 27.344 23.934 44.707-3.8873 20.421-11.904 26.945-35.346 31.99l-13.189 2.8398-10.894 20.248c-19.731 47.878-46.543 86.026-89.596 127.52-24.811 23.915-37.244 33.61-64.006 52.352-101.22 70.885-225.41 120.49-369.46 140-34.95 4.7332-48.016 1.6243-48.016 4.502-35.237 0.7442-38.895 4.5726-86.844 5.1875-0.8761-2.2827-14.006-1.4082-30.232-1.4122-65.694-0.015-172.61-12.186-246.11-31.965-145.35-39.114-270.5-111.38-343.01-198.06-47.956-57.331-71.886-109.83-81.594-178.98-1.6858-12.009-3.507-22.279-4.0489-22.82-0.5419-0.5422-7.0668-1.7208-14.496-2.6153-25.749-3.1004-42.793-19.967-44.537-44.076-1.3163-18.194 3.1952-33.224 24.818-42.834 21.623-9.609 49.123-5.4761 48.569 9.0368-2.8862 75.555 13.489 126.64 25.716 147.53 3.8072-18.602-28.664-286.93-23.398-348.45 11.579-135.29 20.449-247.9 105.62-347.07 24.88-28.969 51.705-55.61 80.473-79.922 327.8 8.0339 669.88 298.88 1056.6 79.92z" fill="#ff8080" stroke="#000" stroke-width="7.5591"/>
  <g>
   <path d="m730.94 289.97-1.627 0.57227c-5.6628 1.992-11.243 4.2237-16.789 5.252-17.28 1.5092-51.04-15.663-51.04-15.663s25.108 19.464 51.405 17.63c5.3504-0.37318 10.259-2.8862 15.279-4.6914-4.1393 17.614-18.724 24.427-27.035 28.578l-2.2578 1.127 2.418 0.72461c10.726 3.2147 22.931 1.1142 35.594-2.7227-5.0917 5.7281-10.932 11.565-18.734 16.594-51.069 27.805-97.271 24.307-142.51 12.936-45.214-11.365-87.04-29.258-133.71-32.866-9.7508 0.14628-10.643-17.434-9.9293-18.855 0.0716 1.5027 1.3542 13.813 11.864 15.935 19.19 3.8747 13.732 2.7192 24.478 4.3935 28.658 5.0864 61.344 21.903 106.82 33.332 45.471 11.429 92.402 14.967 144-13.141l0.0312-0.0176 0.0312-0.0195c9.2378-5.9486 16.042-13.003 21.668-19.619l2.291-2.6934-3.3633 1.0938c-12.753 4.153-24.882 6.5858-35.373 4.3262 8.8805-4.4548 22.803-12.136 26.189-30.508z" color="#000000" stroke-linecap="round" style="-inkscape-stroke:none"/>
   <g>
    <path d="m524.61 233.38c98.502-21.899 90.134 21.833 146.28 52.313 8.6111 4.6744 40.373 13.372 48.797 9.5339-6.7311 3.6244-58.974-21.8-77.425-39.232-39.204-37.04-72.818-34.711-117.66-22.615z" opacity=".1"/>
    <path d="m411.96 246.06c-0.93836 14.816-2.7073 31.902 10.345 37.667-26.194 0.94677-36.761 20.9-54.795 34.564 12.007-14.248 21.342-30.722 41.275-38.365-1.2311-10.962-2.7913-21.877 3.175-33.867z" opacity=".1" stroke="#000" stroke-width=".26458px"/>
    <path d="m390.37 483.47c0.37901-7.3588-5.4642-16.437-7.9579-23.796 4.654 22.497-4.0953 20.782-9.7286 24.696 3.6489-4.9556 8.3631-5.4062 14.5-2.4254 0.44149 0.21444 1.0204 12.717 1.472 12.966 0.46713 0.25816 1.2372-11.735 1.7147-11.44z" opacity=".1"/>
    <path d="m747.4 509.19c-0.37901-7.3588 4.9731-17.677 7.4668-25.036-4.654 22.497-1.2368 19.683 4.3966 23.597-2.1755-1.284-4.8968-1.8918-7.2034-0.53114-2.5499 1.5042-6.6564 14.05-7.108 14.299-0.46713 0.25816 2.9255-12.624 2.448-12.329z" opacity=".1"/>
    <path d="m375.49 500.65c9.4872 36.919 29.308 68.164 48.269 100.09 14.286 5.5002 22.793 13.72 28.625 23.199 5.4257-15.465 14.826-12.385 23.012-14.967 1.4168 9.4128 1.9913 18.631-2.9934 26.567l14.78-19.27c8.1772 7.4426 18.243 16.684 12.722 21.328l11.599 14.406 6.174-14.219 10.29 5.4256 17.399 8.2319 100.28-3.9288 4.303-6.1739 6.1739-2.058 6.361 7.6706 0.93546 2.8063c5.3796-3.6604 9.4967-7.8258 9.9157-13.47-9.3612-6.5714-3.2114-11.733 3.5547-16.838 4.8979 2.5199 10.645 4.8218 18.709 11.412-5.4321-6.5481-4.0023-15.154-1.3096-21.702 4.3654 3.3101 8.7308 8.6539 13.096 9.7286-5.443-10.857 1.9179-23.421 3.1805-35.173 0 0 20.97-20.254 29.186-32.179 4.092-5.9395 9.4835-17.852 11.425-22.258 0.46837-1.0631 3.0179-2.9791 3.0179-2.9791l-4.9013 0.16732-20.206 33.302-29.934 25.444-42.843 20.018-49.578 11.6-36.482 2.245-14.967-0.93544-41.347-4.1159-30.87-8.7932-30.87-13.47-36.669-26.192-11.412-13.657-11.225-18.522-5.2385-17.212-1.3096-12.348z" opacity=".1"/>
   </g>
   <path d="m516.83 275.08c-7.0598 0.12002-14.291 1.0699-21.686 3.0879 28.707-3.9696 57.061 2.9302 79.438 13.566 6.7538 3.2103 43.344 24.628 61.479 20.822-16.395 0.60075-36.95-11.855-60.65-22.643-17.775-8.0909-37.401-15.194-58.58-14.834z" color="#000000" opacity=".1" style="-inkscape-stroke:none"/>
   <path d="m707.38 321.04c2.4321 1.1225 33.302-2.8063 33.302-2.8063s-13.331 13.501-21.232 20.759c-9.1812 8.4341-12.432 10.334-32.005 18.025-19.691 7.7375-60.06 7.8663-78.982 3.7778-17.01-3.6755-34.664-11.318-34.664-11.318 57.149 2.7734 79.544 28.367 166.13-29.934-12.447 3.2097-24.929 6.2083-38.353 3.5547z" opacity=".1" stroke="#000" stroke-width=".26458px"/>
   <path d="m627.19 203.8c-19.032-0.62276-29.022 1.1889-43.524 1.7859 19.417 0.80768 34.323-3.0683 59.002 3.175l-15.346-4.8286z" stroke="#000" stroke-width=".26458px"/>
  </g>
 </g>
</svg>
