<?xml version="1.0" encoding="UTF-8"?>
<svg id="svg5" width="1200mm" height="1200mm" version="1.1" viewBox="0 0 1200 1200" xmlns="http://www.w3.org/2000/svg" xmlns:xlink="http://www.w3.org/1999/xlink">
 <defs id="defs77">
  <filter id="filter8667" x="-.023122" y="-.0078975" width="1.0462" height="1.0158" color-interpolation-filters="sRGB">
   <feGaussianBlur id="feGaussianBlur29-7" stdDeviation="0.073773287"/>
  </filter>
  <filter id="filter8266" x="-.031164" y="-.07979" width="1.0562" height="1.1619" color-interpolation-filters="sRGB">
   <feGaussianBlur id="feGaussianBlur26-3" stdDeviation="0.073773287"/>
  </filter>
  <filter id="filter5908" x="-.030077" y="-.027516" width="1.0602" height="1.055" color-interpolation-filters="sRGB">
   <feGaussianBlur id="feGaussianBlur20" stdDeviation="0.073773287"/>
  </filter>
 </defs>
 <g id="layer60" transform="translate(19.4 11.241)">
  <g id="layer16">
   <g id="g23156">
    <g id="g23106" transform="translate(-9.3103e-6 .00033395)" fill="none" stroke="#000"></g>
    <g id="g23110" transform="matrix(4.1461 0 0 4.2539 312.56 54.726)" fill="#382e85" fill-opacity=".99763">
     <path id="path23108" d="m49.027 184.87c-0.62775-0.30974 1.0308-15.588 5.3882-40.191 0.12756-0.81753-7.1293 19.88-6.985 18.933 0.12173-0.79863-5.4247-0.31831-4.8412-2.6575 0.93854-3.7627 4.7033-17.479 9.4848-24.959 1.1581-1.8118 2.0608-3.048 4.0278-5.0596 1.1458-1.0073 1.7876-0.77852 1.7876-0.77852l5.5934-0.31303c1.2234-0.10501 4.122 1.3795 6.9069 5.1249 3.1035 4.1739 5.5151 15.37 8.8643 23.38-0.79617 1.5947-3.4474 2.8842-4.87 3.8178-0.56973-0.47523-5.6089-18.665-5.4997-18.062 3.7502 20.711 4.3157 39.054 4.1296 40.005-4.4478 0.83025-20.063 1.1248-23.987 0.76006z" fill="#b4e3fc" fill-opacity="1" stroke="#000" stroke-width=".71478"/>
    </g>
    <g id="g23140" transform="matrix(4.1461 0 0 4.1461 114.51 46.948)" stroke="#000">
     <path id="path23112" d="m109.96 136.53 0.5858 54.965c-0.47221 0.0516-3.7131 0.22829-2.4666 0.12602l-0.4121-55.315" fill="none" stroke-width=".565"/>
     <path id="path23114" d="m103.69 135.2 4.4618 0.52634 1.6305-0.032c0.87499-0.40253 3.0161 0.10576 2.8104-0.77713-0.46578 0.46775-6.121 0.73723-8.903 0.28279z" stroke-width=".26458px"/>
     <g id="g23120" fill="#b4e3fc" stroke-width=".565">
      <path id="path23116" d="m114.38 140.49-5.5967-4.8394c0.999 0.0437 1.8872-0.26591 3.8094-0.73339l2.4351 1.5213s-1.0708 1.2734-0.64778 4.0514z"/>
      <path id="path23118" d="m103.94 141.19 4.8515-5.5417c-1.75-0.0561-3.6585 0.0988-5.0932-0.44449l-1.3808 1.3229s2.0367 1.8852 1.6225 4.6633z"/>
     </g>
     <path id="path23122" d="m90.921 163.25c2.0274 1.181 3.6291 2.9065 5.98 2.8744 0.73511-0.0283-1.0666 2.6147-1.5999 3.9221-1.9359-0.3855-3.8898-0.5911-5.6555-2.6789z" fill="#b4e3fc" stroke-width=".565"/>
     <g id="g23138" fill="none" stroke-linejoin="round" stroke-width=".165">
      <circle id="circle23124" cx="109.21" cy="186.43" r=".51449"/>
      <circle id="circle23126" cx="109.17" cy="179.02" r=".51449"/>
      <circle id="circle23128" cx="109.07" cy="171.42" r=".51449"/>
      <circle id="circle23130" cx="109.11" cy="162.92" r=".51449"/>
      <circle id="circle23132" cx="109.01" cy="155.08" r=".51449"/>
      <circle id="circle23134" cx="108.94" cy="146.88" r=".51449"/>
      <circle id="circle23136" cx="108.88" cy="138.64" r=".51449"/>
     </g>
    </g>
    <path id="path23142" transform="matrix(4.1461 0 0 4.1461 114.51 46.946)" d="m108.55 136.19 5.8867 5.8945-0.048-1.5953-5.5967-4.8394" filter="url(#filter5908)" opacity=".18892" style="mix-blend-mode:normal"/>
    <g id="g23146" transform="matrix(4.1461 0 0 4.1461 114.51 46.948)" stroke="#000" stroke-width=".26458px">
     <path id="path23144" d="m113.33 134.97c-1.6685 1.8723-3.0332 3.068-9.7116 3.8269l-1.3102-2.2714 1.3808-1.3229 8.9031-0.28189" filter="url(#filter8266)" opacity=".18892" style="mix-blend-mode:normal"/>
    </g>
    <path id="path23148" d="m642.05 725.5c-6.9356 8.084-15.623 11.978-24.017 18.047 3.5853 6.38 5.5197 11.589 8.4991 16.114 4.5864-2.048 22.17-7.8734 23.317-18.321z" fill="#b4e3fc" stroke="#000" stroke-width="2.5463"/>
    <path id="path23150" transform="matrix(4.1461 0 0 4.1461 114.51 46.946)" d="m116.9 149.48 2.866 8.3338 3.0457 9.5196c0.67599 1.8023 0.58032 3.3069 1.7457 4.0948l-1.0618 0.47112-2.0499-3.8865 0.40579-0.78049z" filter="url(#filter8667)" opacity=".18892" style="mix-blend-mode:normal"/>
    <path id="path23152" transform="matrix(.26458 0 0 .26458 -19.4 -11.241)" d="m2133.1 2331.5-21.639 20.73 7.4766 13.994c-93.214 115.72-130.63 277.41-190.32 417.92l-17.881 57.527 17.287 15.32c1.274-23.62 10.536-43.301 23.545-63.055 3.9959-3.2376-16.99-13.94-16.99-13.94l13.272 3.2149c54.558-126.33 83.756-259.31 173.16-384.31 1.8662 6.9772 3.5053 14.233 4.3907 22.498 0.7662 7.1394 0.9692 15.031 0.2734 24.144l21.768-32.65v-0.029c-0.01-24.377-9.7645-58.5 1.3027-71.801zm-28.9 233.38c-1.2703 0.029-2.8346 0.8369-4.7637 2.7442-16.82 16.629-52.924 166.81-53.398 168.58 0 0 64.292-156.07 63.547-153.53 1e-4 -0.01-2e-4 -0.01 0-0.016 0 0 0.7359-17.924-5.3848-17.783zm5.3848 17.799c-14.793 49.962-52.484 245.37-56.972 356.41 35.076-115.51 52.661-240.47 56.972-356.41zm-56.972 356.41c-34.35 83.964-24.423 193.05-31.291 275.63l98.2 9.0841-12.855-18c-43.067-52.024-65.088-30.165-54.054-266.72z" opacity=".12195" style="mix-blend-mode:normal"/>
    <path id="path23154" d="m579.21 656.48 12.604-0.6522" fill="none" stroke="#000" stroke-width="2"/>
   </g>
  </g>
 </g>
</svg>
