<svg width="1200mm" height="1200mm" version="1.1" viewBox="0 0 1200 1200" xml:space="preserve" xmlns="http://www.w3.org/2000/svg">
    <defs>
        <linearGradient id="LinearGradient" x1="507.26" x2="647.51" y1="180.07" y2="180.07" gradientUnits="userSpaceOnUse">
            <stop stop-color="#03d6ff" stop-opacity=".21171" offset="0"/>
            <stop stop-color="#fafafa" stop-opacity=".95045" offset="1"/>
        </linearGradient>
        <linearGradient id="LinearGradient_2" x1="17.25" x2="211.53" y1="478.96" y2="478.96" gradientUnits="userSpaceOnUse">
            <stop stop-color="#03d6ff" stop-opacity=".13739" offset="0"/>
            <stop stop-color="#fafafa" stop-opacity=".95045" offset="1"/>
        </linearGradient>
    </defs>
    
        <g transform="matrix(.88086 0 0 .88086 73.469 26.872)" stroke-width="1.062">
            <path d="m-92.928-89.206h1509.2v1415.1h-1509.2z" fill="#7503ba"/>
            <path d="m1266.4 229.2s-211.4-177.83-433.28-164.61c-113.97 6.7928-165.77 52.552-228.2 87.545-59.118 33.137-127.76 56.619-267.74 28.21-179.12-36.352-209.09 137.75-416.29 165.67s-137.26 415.6-137.26 415.6l1657.6-55.841z" fill="#540088"/>
            <path d="m-32.239 965.88 485.43 111.87 939.98-242.65-96.735-470.45s-184.75 185.25-331.33 211.33c-146.58 26.083-295.75-202.33-475.76-177.35-180.01 24.981-351.5 308.23-466.12 272.96-114.62-35.267-240.85-140.43-305.51-112.52-64.658 27.92 39.923 587.55 39.923 587.55z" fill="#3e0263"/>
            <path d="m-100.34 903.56s225.14 110.44 699.84 21.239c541.68-101.79 619.18-195.47 714.71-164.61 95.514 30.859 174.04 398.21 174.04 398.21l-63.187 245.4-1387.1 51.431-221.89-55.838z" fill="#26013d"/>
        </g>
        <g id="Shooting-stars" transform="matrix(.93547 0 0 .93547 49.817 16.094)">
            <path d="m106 44.775s92.864 101.82 106.5 110.54c13.64 8.715 30.952-10.579 21.176-24.675-9.776-14.095-127.68-85.863-127.68-85.863z" fill="#fafafa" fill-opacity=".95045" opacity=".56202"/>
            <path d="m205.99 141.06c0-7.993 6.414-14.471 14.326-14.471 7.913 0 14.327 6.478 14.327 14.471 0 7.992-6.414 14.47-14.327 14.47-7.912 0-14.326-6.478-14.326-14.47z" fill="#ffe200"/>
            <path d="m507.26 116.58s101.72 116.06 115.36 124.77 31.904-10.155 22.128-24.25c-9.776-14.096-137.48-100.52-137.48-100.52z" fill="url(#LinearGradient)" opacity=".56202"/>
            <path d="m616.34 226.99c0-7.992 6.415-14.471 14.327-14.471s14.327 6.479 14.327 14.471-6.415 14.471-14.327 14.471-14.327-6.479-14.327-14.471z" fill="#ffe200"/>


            <path d="m880.43 32.064s64.566 84.952 78.207 93.666 31.904-10.155 22.128-24.25c-9.776-14.096-100.34-69.416-100.34-69.416z" fill="#fafafa" fill-opacity=".95045" opacity=".56202"/>
            <path d="m952.35 111.37c0-7.992 6.414-14.471 14.327-14.471 7.912 0 14.326 6.4787 14.326 14.471s-6.414 14.471-14.326 14.471c-7.913 0-14.327-6.479-14.327-14.471z" fill="#ffe200"/>


            <path d="m937.62 259.47s177.18 197.17 190.82 205.89 31.9-10.155 22.13-24.25c-9.78-14.096-212.96-181.64-212.96-181.64z" fill="#fafafa" fill-opacity=".95045" opacity=".56202"/>
            <path d="m1122.2 451c0-7.992 6.41-14.471 14.32-14.471s14.33 6.479 14.33 14.471-6.42 14.471-14.33 14.471-14.32-6.479-14.32-14.471z" fill="#ffe200"/>


            <path d="m17.25 389.19s155.75 168.62 169.39 177.34c13.64 8.715 31.904-10.155 22.128-24.251-9.776-14.095-191.52-153.08-191.52-153.08z" fill="url(#LinearGradient_2)" opacity=".56202"/>
            <g fill="#ffe200">
                <path d="m180.36 552.16c0-7.992 6.414-14.471 14.327-14.471 7.912 0 14.326 6.479 14.326 14.471s-6.414 14.471-14.326 14.471c-7.913 0-14.327-6.479-14.327-14.471z"/>

                <g fill-opacity=".5" opacity=".71705">
                    <path d="m100.91 28.25c1.339 1.7875 2.653 3.5668 3.875 5.4375 2.135 3.2672 4.066 6.662 6.188 9.9375 1.536 2.3706 3.108 4.7219 4.593 7.125 0.862 1.3939 1.663 2.8277 2.626 4.1562 1.1 1.5183 2.417 2.9007 3.406 4.5 6.525 10.556 12.667 21.316 20.187 31.219 2.611 3.4379 5.408 6.7258 8.219 10 3.294 3.837 6.654 7.66 10.406 11.063 1.095 0.992 2.223 1.939 3.438 2.781 1.637 1.135 3.469 2.022 5.062 3.219 0.616 0.462 1.194 1.12 1.75 1.624 1.516 1.375 3.018 2.778 4.5 4.188 2.371 2.255 4.558 4.639 6.782 7.031 0.818 0.881 1.748 1.646 2.562 2.531 0.751 0.817 1.353 1.768 2.094 2.594 1.131 1.261 2.465 2.361 3.656 3.563 0.059 0.059 0.041 0.153 0.094 0.219 0.182 0.226 0.373 0.466 0.562 0.687 0.576 0.671 1.179 1.32 1.813 1.937 1.224 1.193 2.57 2.163 3.906 3.219 2.091 1.654 4.023 3.521 6.156 5.125 2.387 1.795 4.955 3.289 7.375 5.032 7.454 5.454 17.921 3.828 23.375-3.626 5.455-7.453 3.829-17.92-3.625-23.374-2.219-1.642-4.613-3.044-6.781-4.75-2.477-1.951-4.781-4.057-7.344-5.907 0.046 0.041 0.176 0.191 0.125 0.157-0.081-0.056-0.318-0.286-0.344-0.313-0.02-0.022-0.041-0.041-0.062-0.063-0.01-9e-3 -0.017-0.016-0.031-0.031-0.012-8e-3 -0.019-0.023-0.031-0.031-0.234-0.244-0.451-0.478-0.688-0.719-0.905-0.921-1.844-1.839-2.844-2.656-1.437-1.174-3.022-2.321-4.594-3.313-1.119-0.706-2.33-1.263-3.468-1.937-1.639-0.969-3.19-2.083-4.844-3.031-3.211-1.84-6.525-3.52-9.812-5.219-2.846-1.4708-5.672-3.0367-8.626-4.2812-1.086-0.4577-2.214-0.8201-3.343-1.1563-1.303-0.3877-2.477-0.6446-3.688-1.2813-5.761-3.0297-11.079-7.0022-16.219-10.969-6.871-5.304-13.156-11.329-19.218-17.531-3.529-3.61-6.88-7.3903-10.406-11-1.653-1.6908-3.65-2.9819-5.313-4.6562-2.812-2.8299-5.553-5.7408-8.375-8.5625-2.752-2.7526-5.362-5.6329-8.125-8.375-1.599-1.5871-3.272-3.082-4.969-4.5625z"/>


                    <path d="m921.03 256.66c1.24 1.411 2.622 2.78 3.75 4.282 0.531 0.706 0.933 1.503 1.407 2.25 0.473 0.746 0.996 1.484 1.437 2.25 3.115 5.414 5.33 11.27 9.281 16.187 2.16 2.687 4.734 5.032 7.282 7.344 5.507 4.996 11.412 9.741 15.562 16 2.995 4.516 5.013 9.585 7.312 14.469 2.19 4.649 4.67 9.187 7.969 13.156 5.693 6.847 13.126 11.86 19.5 18 3.823 3.682 7.339 7.694 10.999 11.531 7.14 7.468 14.42 14.847 22.22 21.625 4.43 3.847 9.07 7.461 13.84 10.875 6.25 4.47 12.62 8.759 18.6 13.594 3.36 2.717 6.62 5.59 9.43 8.875 1.9 2.211 3.6 4.593 5.32 6.937 1.22 1.664 2.53 3.282 3.72 4.969 1.29 1.829 2.42 3.747 3.78 5.531 2.22 2.923 4.69 5.679 7.25 8.313 4.02 4.149 8.45 7.929 13.5 10.781 3.66 2.07 7.54 3.631 11.4 5.281 0.5 0.213 1.01 0.404 1.5 0.625 1.58 8.245 9.03 14.213 17.6 13.563 9.19-0.698 16.07-8.692 15.4-17.875-0.01 0.012 0.01-0.043 0-0.063 0-0.038 0.01-0.163 0-0.125 0.01-0.17 0.03-0.361 0.03-0.531 0.02-0.273 0.03-0.539 0.04-0.812 0.02-0.825 0.04-1.747 0-2.563-0.11-2.179-0.41-4.367-1.13-6.437-0.61-1.758-1.45-3.442-2.47-5-2.24-3.441-5.53-6.08-9.15-7.938-1.64-0.837-3.36-1.386-5.03-2.125-2.15-0.947-4.29-1.927-6.44-2.844-2.28-0.968-4.68-1.846-6.75-3.219-4.19-2.768-7.71-6.735-11.25-10.25-1.48-1.472-3.09-2.833-4.56-4.312-1.59-1.592-3.06-3.26-4.66-4.844-6.07-6.018-12.72-11.348-20-15.812-11.08-6.791-23.16-11.8-34.22-18.625-9.45-5.83-18.2-12.638-26.81-19.625-3.98-3.228-7.85-6.625-11.91-9.75-5.551-4.276-11.736-7.63-17.374-11.782-2.815-2.073-5.44-4.421-7.625-7.156-5.267-6.592-8.678-14.456-14.156-20.906-4.433-5.219-9.982-9.204-15.563-13.094-3.621-2.524-7.431-5.023-10.593-8.125-4.366-4.283-7.131-9.702-10.75-14.562-0.803-1.077-1.715-2.115-2.563-3.157-0.287-0.353-0.56-0.733-0.875-1.062-1.309-1.37-2.84-2.577-4.25-3.844z"/>


                    <path d="m493.25 108.53c4.435 4.115 8.544 8.526 12.438 13.157 6.326 7.522 12.13 15.439 18.562 22.874 3.871 4.476 8.04 8.69 12.219 12.876 4.34 4.347 8.736 8.739 12.281 13.781 4.859 6.91 7.158 15.255 12.375 21.969 0.879 1.131 1.88 2.195 2.813 3.281 1.636 1.906 3.184 3.916 4.968 5.687 3.629 3.602 7.382 7.084 11.156 10.532 2.93 2.675 5.777 5.434 8.719 8.093 0.83 0.75 1.731 1.438 2.531 2.219 0.785 0.765 1.457 1.651 2.219 2.438 0.724 0.746 1.52 1.447 2.281 2.156 1.437 1.338 2.878 2.658 4.282 4.031 0.789 0.772 1.619 1.512 2.312 2.375 0.806 1.002 1.511 2.095 2.282 3.125 1.646 2.204 3.407 4.353 5.468 6.187 1.366 1.216 2.833 2.331 4.375 3.313 1.622 1.032 3.371 1.849 5.031 2.813 7.957 4.69 18.216 2.049 22.907-5.907s2.05-18.215-5.907-22.906c-1.26-0.751-2.562-1.472-3.843-2.187-5e-3 -7e-3 5e-3 -0.026 0-0.032-0.077-0.095-0.175-0.185-0.25-0.281-0.113-0.145-0.202-0.29-0.313-0.437-0.319-0.426-0.654-0.853-0.968-1.282-1.066-1.455-1.932-2.674-3.126-4.062-3.112-3.622-6.832-6.78-10.656-9.625-1.399-1.041-2.863-2.096-4.375-2.969-1.122-0.649-2.305-1.153-3.437-1.781-1.092-0.606-2.128-1.328-3.219-1.938-2.442-1.364-4.992-2.545-7.469-3.843-4.045-2.122-8.086-4.239-12-6.594-0.675-0.407-1.311-0.868-2-1.25-0.371-0.206-0.778-0.349-1.125-0.594-1.593-1.126-3.125-2.332-4.687-3.5-0.654-0.489-1.353-0.943-2-1.438-1.253-0.957-2.366-2.135-3.406-3.312-1.991-2.252-3.781-4.662-5.626-7.031-2.533-3.254-5.265-6.344-8.343-9.094-6.741-6.021-14.505-10.624-21.907-15.75-2.517-1.744-4.973-3.599-7.374-5.5-7.656-6.061-14.807-12.74-22.376-18.906-4.74-3.862-9.631-7.439-14.812-10.688z"/>


                    <path d="m866.94 30.281c2.775 4.4251 5.098 9.364 8.718 13.188 3.818 4.0328 8.627 6.7664 12.875 10.281 3.622 2.9963 7.193 6.0382 10.844 9 5.594 4.5377 11.266 8.9868 16.563 13.875 4.354 4.0184 7.891 8.7449 11.75 13.219 2.925 3.3921 6.014 6.6607 9 10 2.096 2.3442 4.161 4.7112 6.281 7.0312 0.859 0.941 1.558 2.017 2.406 2.969 0.816 0.917 1.757 1.727 2.656 2.562 1.347 1.25 2.728 2.433 4.125 3.625 3.72 3.176 7.527 6.241 11.282 9.375 7.032 5.988 17.606 5.158 23.593-1.875 5.988-7.032 5.127-17.606-1.906-23.594-4.348-3.7764-8.701-7.5366-13.281-11.031-1.998-1.5242-4.049-3.1514-6.25-4.375-1.114-0.6191-2.331-1.0858-3.438-1.7187-5.405-3.0926-10.966-5.8981-16.406-8.9375-4.601-2.5707-8.854-5.7336-13.375-8.4375-3.962-2.3698-8.126-4.4052-12.313-6.3437-6.696-3.1009-13.538-5.8399-20.25-8.9063-2.835-1.2954-5.603-2.7387-8.468-3.9687-4.416-1.8964-9.042-3.2711-13.156-5.8126-2.46-1.5194-4.582-3.572-6.626-5.5937-1.536-1.5197-3.05-3.0515-4.624-4.5313z"/>


                    <path d="m13.844 392.34c3.089 5.678 6.7216 11.235 8.6874 17.437 1.474 4.651 1.9788 9.539 3.3438 14.219 1.0047 3.444 2.5105 6.658 4.625 9.562 3.0529 4.194 6.9754 7.566 11.031 10.75 2.7863 2.188 5.7197 4.291 8.25 6.782 3.8368 3.777 6.676 8.406 10.406 12.281 3.8713 4.022 8.076 7.766 12.25 11.469 4.5923 4.073 9.3055 8.192 14.406 11.625 1.8411 1.239 3.7025 2.516 5.625 3.625 3.7713 2.176 7.7152 4.119 11.593 6.094 4.848 2.467 9.848 4.917 14.063 8.406 3.358 2.779 5.769 6.691 8.25 10.218 3.151 4.482 6.396 8.872 10.25 12.782 2.066 2.096 4.218 4.091 6.344 6.125 1.221 1.168 2.355 2.413 3.562 3.593 1.194 1.168 2.507 2.236 3.781 3.313 10.383 8.778 21.866 16.23 33.188 23.719 7.676 5.137 18.05 3.082 23.188-4.594 5.137-7.676 3.081-18.051-4.594-23.188-10.69-7.239-21.183-14.75-31.844-22.031-1.278-0.872-2.551-1.791-3.875-2.593-1.322-0.802-2.71-1.491-4-2.344-1.608-1.064-3.175-2.214-4.781-3.282-1.378-0.915-2.798-1.761-4.125-2.75-3.562-2.653-6.593-5.959-9.813-9-3.882-3.665-8.012-7.161-12.687-9.781-9.495-5.32-20.159-7.442-30.25-11.25-1.7075-0.644-3.4066-1.453-5.0628-2.219-1.7961-0.83-3.5317-1.834-5.25-2.812-3.8202-2.174-7.5494-4.518-11.219-6.938-2.5704-1.694-5.1032-3.421-7.625-5.187-1.3648-0.956-2.7419-1.911-4.0313-2.969-3.91-3.207-7.2761-6.976-11.375-9.968-6.7594-4.935-14.912-7.835-20.844-13.907-1.3695-1.402-2.5525-2.925-3.5313-4.625-2.9197-5.071-4.0887-10.94-6.625-16.187-2.8968-5.994-7.3557-11.075-11.312-16.375z"/>
                </g>
                <path d="m140.44 258.26-3.73-6.82-6.82-3.73 6.82-3.73 3.73-6.82 3.73 6.82 6.82 3.73-6.82 3.73z" opacity=".71705"/>
                <path d="m866.28 150.65-4.103-7.502-7.502-4.103 7.502-4.103 4.103-7.502 4.103 7.502 7.502 4.103-7.502 4.103z" opacity=".71705"/>
                <path d="m386.25 46.2-1.865-3.41-3.41-1.865 3.41-1.8651 1.865-3.41 1.866 3.41 3.41 1.8651-3.41 1.865z" opacity=".71705"/>
                <path d="m1072 592.7-5.22-9.548-9.55-5.222 9.55-5.222 5.22-9.548 5.22 9.548 9.55 5.222-9.55 5.222z" opacity=".71705"/>
                <path d="m1156.4 193.9-3.36-6.138-6.13-3.357 6.13-3.357 3.36-6.138 3.36 6.138 6.14 3.357-6.14 3.357z" opacity=".71705"/>
                <path d="m337.72 252.98-1.492-2.728-2.728-1.492 2.728-1.492 1.492-2.728 1.492 2.728 2.728 1.492-2.728 1.492z" opacity=".71705"/>
                <path d="m23.33 577.93-2.984-5.456-5.4561-2.984 5.4561-2.984 2.984-5.456 2.984 5.456 5.4561 2.984-5.4561 2.984z" opacity=".71705"/>
                <path d="m25.44 47.255-2.984-5.456-5.4561-2.9841 5.4561-2.984 2.984-5.4561 2.984 5.4561 5.4561 2.984-5.4561 2.9841z" opacity=".71705"/>
                <path d="m1037.2 233.99 1.86 3.41 3.41 1.865-3.41 1.865-1.86 3.41-1.87-3.41-3.41-1.865 3.41-1.865z" opacity=".71705"/>
            </g>
        </g>
    
</svg>
