<?xml version="1.0" encoding="UTF-8"?>
<svg id="svg5" width="1200mm" height="1200mm" version="1.1" viewBox="0 0 1200 1200" xmlns="http://www.w3.org/2000/svg" xmlns:xlink="http://www.w3.org/1999/xlink">
 <g id="layer60" transform="translate(19.4 11.241)">
  <g id="layer214">
   <g id="layer200">
    <path id="path755102" d="m691.33 674.66c7.3493-6.6281 13.407-5.6294 19.655-5.7566l-9.1772 55.289-3.4655 2.4923c0.58339 2.0475-0.25121 4.4691 2.3821 5.9757l-5.3924 33.507z" color="#000000" fill="#d68323" style="-inkscape-stroke:none"/>
    <path id="path755104" d="m712.34 667.59-1.496 0.0293c-6.0984 0.12422-12.818-0.82006-20.467 6.0786l-0.4376 0.39514 0.0256 0.58705 4.0025 91.509 2.4824 0.14518 5.2253-32.471c-5.96-7.6956-0.70675-8.0636 1.6604-10.318zm-2.9376 2.5329-8.464 52.59c-6.7713 3.567-3.9021 10.231-1.8601 11.558l-3.149 19.566-3.4367-78.591c6.265-5.4189 11.295-5.1263 16.91-5.1226z" color="#000000" style="-inkscape-stroke:none"/>
    <path id="path731532-9-1" transform="matrix(.26458 0 0 .26458 -19.4 -11.241)" d="m2745 2569.1-1.3184 9.8711c-2.3794 0.2403-4.6348 0.5294-6.7813 0.8633l1.2149-10.631c-1.0092 0.026-2.0255 0.075-3.1543 0.1523l-1.1914 11.01c-2.263 0.4165-4.4 0.8828-6.4316 1.3887l1.0566-11.746c-1.0708 0.1663-2.1068 0.3253-3.1348 0.5351l-1.0215 12.035c-2.1478 0.6091-4.1742 1.2644-6.1113 1.9492 0.2771-4.1426 0.5591-8.2845 0.8477-12.42-0.9981 0.2967-1.9553 0.6474-2.9258 0.9785-0.2944 4.2183-0.5717 8.3859-0.8399 12.522-1.902 0.7341-3.7246 1.4922-5.4921 2.2656l0.7421-12.383-3.1582 1.6523-0.6035 12.082c-2.2757 1.0386-4.4906 2.0839-6.7109 3.1074l0.5996-10.807-2.7148 1.9921-0.3516 9.9375c-1.1006 0.4937-3.7642 1.5277-4.8887 2l0.1621 3.2188c1.0312-0.4333 3.6009-1.4232 4.6055-1.8711l-0.5059 14.285c-0.651 0.2097-2.8162 0.914-3.4687 1.123l0.1484 3.1211c0.5549-0.178 2.6542-0.9485 3.209-1.127l-1.4551 15.602-1.0996 0.2402 0.1699 3.1973c0.01 0.1712 0.5465-0.098 0.5313 0.078-0.1977 2.1938-0.3418 4.3828-0.3418 4.3828l0.7109 14.752 2.4629-20c2.255-0.5437 4.5465-1.1034 6.8614-1.6719l-0.9571 19.195c-2.4947 0.7147-6.2988 1.7506-8.3672 2.4766l0.1368 3.7383c1.9266-0.6763 5.6741-1.9625 8.0507-2.6563l-0.7441 14.904c-1.6863 0.5874-4.9222 1.6769-6.6484 2.375l0.1406 3.0645c1.63-0.6591 4.7475-1.6226 6.3457-2.1856l-0.8887 17.754c-1.0584 0.2926-3.6084 1.0254-4.6777 1.3125l0.1933 3.3926c0.9626-0.2585 3.3681-1.1344 4.3184-1.3984l-0.9961 19.934c-0.3296 0.091-2.1925 0.6316-2.5234 0.7226l0.123 2.9453c0.2275-0.067 2.0151-0.4487 2.2422-0.5136l-0.373 7.4609s-0.4791 7.9155-0.7208 12.182c-0.01 0.1297-0.2382 0.1836-0.2382 0.1836-0.078 1.3799 0.092 2.4856 0.1035 2.4668l0.7109 16.07 0.8399-15.889c1.8025-0.5058 3.6269-1.03 5.4609-1.541-0.4416 5.428-0.9136 10.91-1.4219 16.451-1.0515 0.2192-3.7005 0.7205-4.8789 0.9786l0.1855 3.3496c0.998-0.2306 3.4775-0.7184 4.3789-0.9121-0.6215 6.6067-1.293 13.306-2.0293 20.119l-1.5058 0.2148 0.1543 3.1172 1.0293-0.2011-0.7364 7.1699 0.5528 11.904c0.3643-3.3705 1.8666-15.922 2.2109-19.297 1.1715-0.1686 2.3324-0.3386 3.4844-0.4961l-1.9629 23.129c-0.6525 0.058-2.8672 0.4086-3.5801 0.4805l0.1426 3.1328c0.5744-0.058 2.637-0.3274 3.1641-0.375l-1.0801 12.746-0.6055 9.2773-0.4609 0.2403 0.1855 3.9765c0.607-0.1028 2.7081-0.7647 3.2774-0.8828l-2.7129 13.588 0.4961 12.072 3.8437-25.996c0.6339-0.1198 1.2439-0.2189 1.834-0.2696l-5.1074 38.59 0.5468 10.611 1.1387-7.1816 5.3594-41.957c0.2661 0.046 1.0814 0.3162 1.3398 0.4043l0.5235-3.8867c-0.2994-0.054-1.0769-0.1528-1.3555-0.1894l1.4045-10.197-1.77-1.9119-1.5759 11.954c-0.6713-0.01-1.2903 0.034-1.8906 0.1035l1.5038-15.074-1.2075-2.4006-1.9369 17.725c-0.5929 0.1077-1.1943 0.2288-1.834 0.3535l1.9648-21.854-0.1264-2.1715c-0.4101-2.5893-0.8137-4.7559-0.4924-8.4626 0.4243-2.4528 0.8777-4.9461 2.2179-7.6444l0.7837-8.1981c0.9077-0.1092 1.8096-0.2029 2.711-0.2773l-0.4652 3.7866 0.896-1.1247 1.3544-1.3778 0.1249-1.4072c0.9384-0.042 0.6266-0.1812 1.5645-0.1562 1.2661-0.952 2.4364-1.9518 3.9198-2.7951l2.9063-21.642c0.7979-0.057 2.2171-0.084 3.0547-0.1465l0.4844-3.1484c-0.865 0.064-2.2556 0.095-3.1055 0.1484l2.4356-17.635c0.9841-0.03 2.492 0.047 3.4551 0.096l0.5136-3.2539c-0.9852-0.05-2.5385-0.077-3.5254-0.055l2.7637-20.008c1.1349-0.099 2.8272-0.1087 3.9688-0.1582l0.5586-3.3125c-1.1629 0.05-2.9377 0.1901-4.0879 0.2891l2.9433-21.307c1.3074-0.1626 3.1818-0.2692 4.5-0.3633l0.5274-3.252c-1.3458 0.097-3.2685 0.3335-4.5977 0.4922l2.4434-17.682c1.4752-0.1962 3.5144-0.3776 5-0.5684l0.5117-3.1895c-1.503 0.1928-3.5817 0.4246-5.0781 0.6192l2.0547-14.867c1.7632-0.1621 3.9139-0.2072 5.3222-0.2109l0.502-3.211c-1.4576 0-3.6468 0.085-5.3828 0.2207l2.8437-20.584c2.1735-0.2925 4.4836-0.3129 5.8066-0.2558l0.4336-3.0527c-1.4795-0.064-3.7321-0.1208-5.7988 0.121l2.4688-17.885c2.097-0.2083 4.5726-0.1986 6.2754-0.098l0.4355-3.1054c-1.7851-0.1055-4.2255-0.054-6.2832 0.1171l2.8359-16.642c1.9743-0.1565 4.0292-0.279 6.1797-0.3633l0.5-3.2442c-2.1675 0.085-4.7666 0.1268-6.7597 0.2832l1.3242-9.6015zm-1.7539 13.113-2.2422 16.779c-2.0394 0.2713-4.1858 0.6467-6.4179 1.1074l1.9414-17.016c2.1244-0.3364 4.3571-0.6305 6.7168-0.8711zm-9.8301 1.4062-1.8555 17.146c-1.9679 0.4548-3.9925 0.9616-6.0703 1.5195l1.5527-17.262c2.0119-0.5122 4.1304-0.9836 6.3731-1.4043zm-9.4571 2.2422-1.4609 17.25c-1.8622 0.5251-3.7591 1.0816-5.6855 1.6621 0.3586-5.6509 0.7199-11.3 1.0937-16.939 1.9219-0.6943 3.9279-1.3566 6.0527-1.9727zm-8.9628 3.0723c-0.3583 5.6358-0.6928 11.196-1.0137 16.705-1.7906 0.5523-3.6045 1.1218-5.4336 1.7032l0.9648-16.104c1.7735-0.7868 3.5894-1.5594 5.4825-2.3046zm-8.4688 3.6562-0.7812 15.644c-2.2338 0.7166-4.4984 1.4478-6.7657 2.1797l0.8164-14.699c2.2462-1.0321 4.4675-2.0832 6.7305-3.125zm34.059 9.5352-2.3946 17.914c-1.8568 0.2892-3.869 0.6539-6.0078 1.0821l2.0352-17.82c2.2372-0.4876 4.3659-0.8794 6.3652-1.1758zm-9.373 1.8613-1.92 17.732c-1.4213 0.3028-2.8822 0.6263-4.3867 0.9629-0.4229 0.096-0.849 0.1984-1.2773 0.291l1.5703-17.453c2.064-0.5557 4.0742-1.0724 6.0137-1.5332zm-8.9883 2.3535-1.4668 17.301c-1.7116 0.4027-3.451 0.8198-5.2071 1.2461 0.3485-5.6441 0.7047-11.279 1.0606-16.914 1.9032-0.5691 3.7768-1.1148 5.6133-1.6328zm-8.4278 2.4844c-0.3227 5.618-0.6342 11.197-0.9316 16.715-1.8205 0.4454-3.6533 0.8981-5.4902 1.3516l0.9824-16.379c1.8306-0.5757 3.6456-1.1398 5.4394-1.6875zm-8.2089 2.5625-0.8067 16.146c-2.2923 0.5657-4.5759 1.1251-6.8437 1.6738l0.8691-15.65c2.2696-0.7293 4.5342-1.4565 6.7813-2.1699zm32.176 11.881-2.7246 20.398c-1.7569 0.1878-3.6029 0.4247-5.5078 0.707l2.2813-19.98c2.136-0.4401 4.1349-0.8186 5.9511-1.125zm-8.83 1.7325-2.1426 19.803c-1.713 0.282-3.4564 0.5925-5.2129 0.9297l1.75-19.475c0.7584-0.1769 1.5234-0.3548 2.2618-0.5196 1.1388-0.2596 2.2554-0.5031 3.3418-0.7382zm-8.4532 1.9238-1.6425 19.354c-1.5635 0.3212-3.124 0.6645-4.6719 1.0136 0.3939-6.3828 0.7886-12.764 1.1816-19.139 1.7407-0.4219 3.45-0.8326 5.1328-1.2305zm-7.7871 1.877c-0.3416 6.399-0.6746 12.758-1.0039 19.07-1.9348 0.4644-3.8323 0.9454-5.6582 1.4414l1.1484-19.16c1.8445-0.4546 3.6833-0.9045 5.5137-1.3515zm21.912 18.105-1.9942 14.928c-1.7184 0.2328-3.4368 0.4755-5.1582 0.7382l1.6973-14.881c1.8976-0.3107 3.7259-0.5737 5.4531-0.7852zm-8.1758 1.2539-1.6055 14.83c-1.6194 0.2672-3.2446 0.5558-4.8769 0.873l1.3222-14.709c1.7395-0.358 3.4672-0.6922 5.1582-0.9942zm-7.8828 1.5703-1.2422 14.672c-1.4166 0.3016-2.8416 0.6288-4.2753 0.9824 0.3076-4.8706 0.6204-9.7417 0.9218-14.609 1.521-0.3625 3.0573-0.7102 4.5957-1.045zm-7.0429 1.6446c-0.2551 4.8857-0.5172 9.7429-0.7774 14.605-1.9125 0.5144-3.846 1.0845-5.8008 1.7207l0.8907-14.834c1.8273-0.5075 3.7353-1.006 5.6875-1.4922zm20.688 13.605-2.3594 17.666c-1.5955 0.2369-3.1823 0.5129-4.7636 0.8203l2.0234-17.73c1.6988-0.2687 3.3957-0.5181 5.0977-0.7559zm-7.709 1.1836-1.9297 17.816c-1.5049 0.3239-3.0045 0.6735-4.5059 1.0411l1.6153-17.961c1.6114-0.319 3.2167-0.6219 4.8203-0.8965zm-7.4492 1.4492-1.5293 18.047c-1.2794 0.3292-2.5607 0.6733-3.8438 1.0215 0.4006-6.0272 0.7832-12.053 1.166-18.078 1.4089-0.3568 2.8106-0.6838 4.2071-0.9903zm-6.4786 1.5899c-0.325 6.0145-0.6529 12.033-1.0039 18.055-1.9539 0.5399-3.9167 1.0914-5.8945 1.6426l1.0742-17.943c1.9601-0.6466 3.8998-1.2274 5.8242-1.7539zm18.861 16.58-2.8301 21.189c-1.4272 0.1644-2.8488 0.3598-4.2656 0.586l2.3886-20.922c1.5676-0.3175 3.1351-0.6079 4.7071-0.8535zm-7.209 1.3906-2.2481 20.789c-1.3499 0.2453-2.6992 0.5125-4.0488 0.8007l1.8457-20.514c1.487-0.3801 2.9696-0.7421 4.4512-1.0762zm-6.9805 1.7383-1.7285 20.393c-1.1507 0.2657-2.303 0.5418-3.459 0.832 0.4857-6.7273 0.9507-13.455 1.4024-20.184 1.2663-0.3557 2.529-0.7043 3.7851-1.041zm-5.873 1.6269c-0.3957 6.6693-0.8121 13.359-1.2656 20.096-1.9277 0.5017-3.8696 1.0299-5.8301 1.5723l1.1992-19.996c1.9868-0.5591 3.9495-1.1204 5.8965-1.6719zm16.807 19.619-2.6523 19.871c-1.2679 0.096-2.5352 0.242-3.8008 0.4277l2.248-19.713c1.4006-0.226 2.8026-0.4226 4.2051-0.5859zm-6.5508 0.9843v0.01l-2.1289 19.672c-1.2108 0.2203-2.4197 0.4707-3.625 0.7402l1.7618-19.617c1.3326-0.2883 2.662-0.5552 3.9882-0.8008zm-6.3808 1.3438-1.6621 19.629c-1.0904 0.2718-2.1771 0.5581-3.2578 0.8535 0.5225-6.5486 1.019-13.099 1.498-19.652 1.1451-0.289 2.2861-0.5654 3.4219-0.8301zm-5.3574 1.3223c-0.4476 6.5022-0.9353 13.062-1.461 19.684-1.8603 0.5216-3.7015 1.057-5.5215 1.5703l1.1797-19.69c1.956-0.5415 3.8881-1.0671 5.8028-1.5644zm15.203 19.457-2.3574 17.644c-1.0643 0.075-2.1733 0.1619-3.3789 0.2832l1.9941-17.471c1.2569-0.1961 2.504-0.3517 3.7403-0.457zm-5.9434 0.8359-1.875 17.328c-0.9974 0.1228-2.0657 0.269-3.2226 0.4492l1.5312-17.025c1.1923-0.2744 2.3826-0.5255 3.5664-0.752zm-5.8437 1.3008-1.4258 16.834c-1.0046 0.1777-2.079 0.3738-3.2227 0.5997 0.4854-5.5253 0.9597-11.053 1.4082-16.584 1.0796-0.2918 2.1596-0.579 3.2403-0.8516zm9.0078 18.686-2.832 21.189c-0.9688-0.034-1.9255-0.026-2.8731 0.012l2.3828-20.859c1.1833-0.1425 2.269-0.2511 3.3223-0.3418zm-5.3946 0.6152-2.2402 20.699c-0.929 0.074-1.851 0.171-2.7695 0.2832l1.8418-20.48c1.145-0.1976 2.192-0.362 3.1679-0.5019zm-5.3261 0.8926-1.7265 20.363c-1.1406 0.1613-2.2796 0.335-3.4219 0.5058 0.675-6.7353 1.301-13.48 1.9062-20.228 1.1597-0.2392 2.2348-0.4474 3.2403-0.6406z" color="#000000" fill="#fff" opacity=".2622" stroke-width="3.1354" style="-inkscape-stroke:none"/>
    <path id="path740312-4" d="m714.78 657.89c-0.57582 4.917-1.288 11.31-5.6404 12.75-1.5615 0.5168-3.9693 1.6151-5.5612 4.651-2.036 3.8829-5.5065 4.881-7.5885 2.8842-1.6212-1.5548-4.5126 0.50331-6.8576 0.22869-12.664-1.4831-21.714-13.072-20.214-25.885 1.5005-12.813 12.983-21.997 25.648-20.514 12.664 1.4831 21.714 13.072 20.214 25.885z" fill="#683400" stroke="#000" stroke-linecap="round" stroke-width="2.5"/>
    <g id="path730572-0" transform="matrix(-.97944 .20174 .20174 .97944 1227.5 -132.35)" stroke="#000" stroke-width="2.5">
     <path id="path736193-4" d="m686.85 680.48c6.5285-7.4379 11.968-6.9066 18.516-7.6644l-2.2209 55.732c-3.5492 2.4799-6.8426 5.1662-0.67182 13.002l-1.2598 27.952z" color="#000000" fill="#d68323" stroke="#000" stroke-linecap="round" stroke-width="2.5"/>
    </g>
    <path id="path731532-9" transform="matrix(.26458 0 0 .26458 -19.4 -11.241)" d="m2640.3 2572.9c-1.1312 0.022-2.1466 0.065-3.1543 0.1269l2.1426 10.484c-2.1674-0.144-4.4388-0.2334-6.8301-0.2637l-2.1816-9.7187-3.125 0.2793 2.166 9.4414c-1.9992 0.02-4.5933 0.2082-6.7598 0.3145l0.7852 3.1874c2.1496-0.1054 4.2072-0.1627 6.1875-0.1816l4.2891 16.328c-2.0649 0.01-4.5007 0.1733-6.2696 0.4356l0.7071 3.0547c1.6872-0.25 4.1525-0.4758 6.2597-0.4532l4.0332 17.598c-2.0798-0.059-4.319 0.1944-5.7871 0.3887l0.7012 3.0019c1.3129-0.1735 3.6158-0.354 5.8066-0.2539l4.6426 20.254c-1.7413 0.017-3.9287 0.1292-5.3808 0.2539l0.7812 3.1543c1.4032-0.1202 3.5496-0.2673 5.3203-0.2597l3.3555 14.629c-1.5078-0.062-3.5992-0.1102-5.1133-0.17l0.791 3.1329c1.4967 0.059 3.5426 0.061 5.0293 0.1269l3.9883 17.396c-1.338-0.041-3.2721-0.1067-4.6211-0.084l0.8105 3.1934c1.3214-0.023 3.1991-0.082 4.5157-0.035l4.8047 20.965c-1.1545 0-2.9349 0.02-4.0977 0.072l0.8496 3.252c1.1415-0.051 2.8276-0.1901 3.9668-0.1914l4.5117 19.686c-0.985 0.065-2.5288 0.2292-3.5058 0.3653l0.7968 3.1953c0.9551-0.133 2.4507-0.3434 3.4336-0.4004l3.9786 17.354c-0.8513 0.021-2.2402 0.1137-3.1075 0.125l0.7598 3.0937c0.8398-0.012 2.2567-0.1117 3.0566-0.123l4.1075 17.914c0.8282 0.3815 1.6761 0.8125 2.5312 1.289l-4.3164-19.228c1.0571 0 2.1485 0.01 3.3398 0.047l4.2071 20.57c-0.281 0.014-0.5635 0.037-0.8457 0.057 1.3847 0.9104 2.7484 1.937 4.0293 3.0742 0.067 0 0.1041-2e-4 0.1562 0 0.6475 0 1.2967 0.015 1.9492 0.037l0.42 2.3378 0.033 0.1856c0.9982 1.1348 1.8967 2.3489 2.6523 3.6387l-0.016-0.088-1.0449-5.9883c1.1613 0.056 2.3319 0.1225 3.5136 0.1875 0.6401 3.3311 3.2411 15.702 3.9004 19.027l-0.498-11.906-1.3633-7.0781 1.043 0.1093-0.1211-3.1171-1.5176-0.084c-1.3328-6.7223-2.5931-13.335-3.793-19.861 0.915 0.1138 3.4291 0.3798 4.4434 0.5215l-0.1113-3.3496c-1.1958-0.1534-3.8782-0.4191-4.9454-0.545-0.9937-5.4751-1.948-10.893-2.8652-16.262 1.8718 0.3478 3.7341 0.7077 5.5742 1.0528l2.2364 15.754-0.7051-16.07c0.013 0.018 0.084-1.099-0.1153-2.4667 0 0-0.233-0.034-0.2519-0.1622-0.6162-4.2283-1.791-12.07-1.791-12.07l-1.0274-7.3984c0.2319 0.045 2.0449 0.2683 2.2774 0.3144l-0.1348-2.9472c-0.3376-0.062-2.2398-0.4338-2.5762-0.4961l-2.748-19.77c0.9698 0.1793 3.4443 0.8409 4.4258 1.0136l-0.1055-3.3965c-1.0905-0.192-3.6953-0.698-4.7754-0.8964l-2.4472-17.608c1.6415 0.4202 4.8319 1.106 6.5136 1.6192l-0.1308-3.0625c-1.781-0.5436-5.0987-1.3445-6.8301-1.7813l-2.0547-14.781c2.4285 0.4821 6.2752 1.4333 8.2539 1.9375l-0.1934-3.7363c-2.1242-0.5413-6.0028-1.24-8.5507-1.7325l-2.6426-19.035c2.3559 0.3626 4.6883 0.7193 6.9824 1.0625l4.2109 19.705-0.5878-14.758s-0.3371-2.168-0.7266-4.3359c-0.03-0.1712 0.531 0.05 0.5234-0.1211l-0.1133-3.2012-1.1152-0.1425-2.8223-15.412c0.5685 0.129 2.7266 0.7114 3.295 0.8399l-0.125-3.1211c-0.6684-0.1508-2.8877-0.6629-3.5547-0.8145l-1.7617-14.186c1.0401 0.3578 3.6867 1.1181 4.7519 1.459l-0.1211-3.2207c-1.1617-0.3716-3.9052-1.1676-5.0449-1.5625l-1.2246-9.8672-2.8809-1.7442 1.5489 10.711c-2.3018-0.8242-4.6008-1.6714-6.959-2.5059l-1.6641-11.98-3.291-1.3692 1.8301 12.268c-1.8287-0.6149-3.7126-1.2095-5.6719-1.7734-0.6308-4.0961-1.273-8.2205-1.9375-12.396-0.9959-0.2445-1.9798-0.5109-3-0.7188 0.6514 4.094 1.2949 8.1948 1.9355 12.297-1.9898-0.5117-4.0666-0.9865-6.2597-1.4043l-2.0742-11.898c-1.0424-0.1187-2.0886-0.1841-3.17-0.2559l2.086 11.606c-2.0683-0.3252-4.2385-0.6006-6.5293-0.8164zm-7.123 13.539c2.3717 0.032 4.6217 0.1272 6.7676 0.2753l3.4316 16.781c-2.264-0.2625-4.4368-0.4503-6.4922-0.541zm9.916 0.5351c2.2709 0.2218 4.4235 0.5065 6.4727 0.8399l3.0644 17.057c-2.1188-0.373-4.1794-0.7004-6.1797-0.9805zm9.6172 1.4023c2.1708 0.4269 4.2277 0.9092 6.2031 1.4317 0.8684 5.5849 1.7255 11.182 2.5801 16.779-1.9701-0.4088-3.9094-0.7968-5.8106-1.1563zm9.1992 2.2696c1.9513 0.5758 3.8284 1.1866 5.6641 1.8144l2.3769 15.957c-1.8731-0.4182-3.7303-0.8261-5.5625-1.2188-0.8042-5.4599-1.6256-10.97-2.4785-16.553zm8.7559 2.8984c2.3458 0.8387 4.6521 1.691 6.9804 2.5215l2.1055 14.57c-2.3228-0.5296-4.6416-1.059-6.9297-1.5762zm-33.088 12.494c2.0176 0.1194 4.1738 0.3225 6.4453 0.6113l3.5937 17.572c-2.1681-0.2382-4.205-0.4242-6.08-0.5489zm9.5019 1.0293c1.9725 0.2884 4.0201 0.6261 6.125 0.998l3.0996 17.248c-0.4348-0.055-0.8671-0.12-1.2968-0.1778-1.5283-0.2027-3.0146-0.3957-4.4571-0.5722zm9.1602 1.5546c1.8749 0.3545 3.7904 0.7334 5.7363 1.1329 0.8502 5.5821 1.6992 11.162 2.543 16.754-1.7868-0.2702-3.5565-0.5307-5.2969-0.7813zm8.6133 1.7325c1.835 0.3878 3.6922 0.7907 5.5664 1.2031l2.4199 16.23c-1.8698-0.2902-3.7354-0.5818-5.5879-0.8653-0.7816-5.4704-1.5832-10.998-2.3984-16.566zm8.4023 1.83c2.3011 0.513 4.6223 1.0376 6.9473 1.5645l2.2422 15.514c-2.3073-0.3471-4.6317-0.7024-6.9649-1.0645zm-31.006 14.666c1.8362 0.1454 3.8609 0.347 6.0274 0.5976l4.0293 19.703c-1.9224-0.1137-3.7822-0.1866-5.5488-0.2207zm8.9473 0.9492c1.1028 0.1387 2.2373 0.283 3.3945 0.4414 0.75 0.099 1.528 0.2091 2.2989 0.3183l3.457 19.246c-1.7793-0.1812-3.5422-0.3387-5.2734-0.4687zm8.5918 1.1738c1.7113 0.2484 3.4497 0.5062 5.2207 0.7734 0.9523 6.3154 1.9054 12.638 2.8594 18.961-1.5727-0.2116-3.1565-0.4171-4.7422-0.5996zm7.9199 1.1836c1.8626 0.2843 3.7361 0.5707 5.6133 0.8613l2.8301 18.984c-1.8624-0.3334-3.7955-0.645-5.7637-0.9375-0.8833-6.2593-1.7763-12.564-2.6797-18.908zm-20.234 19.963c1.7391 0.059 3.5843 0.1602 5.5019 0.3027l3 14.674c-1.7378-0.1104-3.4708-0.2008-5.2031-0.2813zm8.2539 0.5293c1.711 0.152 3.4624 0.3338 5.2265 0.5371l2.6114 14.535c-1.654-0.1726-3.2971-0.3179-4.9336-0.4415zm7.9922 0.8711c1.5618 0.1981 3.123 0.4096 4.6699 0.6367 0.7284 4.8223 1.4684 9.646 2.2031 14.471-1.4593-0.2259-2.9061-0.4254-4.3438-0.6016zm7.1601 1.0176c1.9874 0.3126 3.9321 0.6435 5.7969 0.9882l2.1914 14.697c-2.0032-0.4617-3.9774-0.8592-5.9277-1.2031-0.687-4.8214-1.3764-9.6375-2.0606-14.482zm-19.412 15.375c1.7163 0.087 3.4307 0.1844 5.1465 0.3027l3.5762 17.484c-1.6023-0.167-3.2081-0.3028-4.8184-0.3985zm7.7852 0.5c1.6214 0.1324 3.2475 0.2906 4.8808 0.4668l3.1895 17.75c-1.5279-0.2341-3.0545-0.4482-4.5821-0.6387zm7.5488 0.7871c1.4179 0.1824 2.8425 0.3855 4.2773 0.6172 0.9114 5.9682 1.8229 11.936 2.752 17.904-1.3088-0.234-2.6146-0.4623-3.918-0.6778zm6.5918 1.0136c1.9633 0.3552 3.9457 0.7648 5.9551 1.2364l2.6503 17.779c-2.0186-0.3751-4.0236-0.7533-6.0175-1.1192-0.8793-5.9671-1.7353-11.934-2.5879-17.896zm-17.33 18.176c1.5874 0.1062 3.1742 0.2572 4.7637 0.4356l4.2207 20.631c-1.4313-0.1005-2.8647-0.1708-4.3008-0.209l-4.6836-20.855zm7.3027 0.75c1.5053 0.2026 3.0148 0.4337 4.5293 0.6817l3.6426 20.273c-1.3697-0.1685-2.7353-0.3175-4.1015-0.4434l-4.0704-20.51zm7.1075 1.1192c1.2809 0.2249 2.5686 0.4604 3.8613 0.7031 1.0419 6.6631 2.0984 13.324 3.1738 19.982-1.177-0.1873-2.3499-0.3617-3.5195-0.5254zm5.9941 1.1035c1.988 0.378 3.9912 0.7663 6.0195 1.1484l2.9532 19.811c-2.0007-0.3679-3.981-0.7205-5.9454-1.0508-1.0444-6.6708-2.0464-13.3-3.0273-19.908zm-15.016 21.022c1.4113 0.039 2.8232 0.1131 4.2383 0.2148l3.9746 19.438c-1.2771-0.072-2.5509-0.1069-3.8223-0.092zm6.6094 0.4043c1.3426 0.1278 2.6901 0.2775 4.0429 0.4472l3.4824 19.387c-1.2243-0.1624-2.4502-0.3049-3.6757-0.4179l-3.8516-19.408zm6.4746 0.7773c1.1552 0.1638 2.3156 0.3379 3.4824 0.5254 1.0536 6.4862 2.1261 12.968 3.2226 19.445-1.1025-0.1991-2.2103-0.3898-3.3203-0.5644zm5.4531 0.8457c1.951 0.327 3.9219 0.6815 5.918 1.0488l2.9082 19.508c-1.8582-0.3511-3.7398-0.7201-5.6387-1.0761-1.1059-6.5492-2.1698-13.043-3.1875-19.48zm-13.432 20.719c1.2409 0 2.4965 0.043 3.7657 0.1269l3.5234 17.227c-1.2117-0.015-2.322 0-3.3887 0.016zm5.9961 0.3105c1.1992 0.1214 2.4054 0.267 3.6172 0.4355l3.0235 16.824c-1.1683-0.078-2.2457-0.1301-3.25-0.1641zm5.9336 0.7832c1.1005 0.1764 2.2018 0.3652 3.3028 0.5606 0.9332 5.4701 1.8902 10.936 2.8613 16.396-1.1591-0.1243-2.2454-0.226-3.2617-0.3144zm-1.9023 19.543c0.9845 0.054 2.0433 0.1247 3.2012 0.2207l3.6347 20.238c-0.9248-0.031-1.8512-0.047-2.7832-0.039zm5.3848 0.4199c1.0185 0.1039 2.1089 0.2171 3.2851 0.3535 1.1968 6.6688 2.413 13.331 3.6777 19.98-1.1528-0.07-2.3027-0.1427-3.4531-0.2031zm7.8535 45c-0.1672 1.931-0.4822 3.8137-0.9004 5.6543l3.6543 20.332c-0.6483-0.068-1.2595-0.1342-1.8594-0.1894l-3.0664-15.449c0-0.016-0.01-0.031-0.012-0.047-0.491 1.5324-1.0324 3.0383-1.6016 4.5215l0.5215-1.3575 2.502 12.227c-0.6039-0.015-1.2246 0-1.8926 0.062l-1.9649-8.7519 0.834-2.1797c-0.693 1.8057-1.424 3.5769-2.1465 5.3242l1.3594 5.9277c-0.2742 0.061-1.0403 0.2289-1.334 0.3086l0.8653 3.8262c0.2496-0.1104 1.036-0.4516 1.2968-0.5215l9.0313 41.324 1.7656 7.0547-0.3887-10.619-8.4843-37.992c0.5922 0 1.2114 0.044 1.8535 0.1074l6.1152 25.559-0.5684-12.072-3.8984-13.295c0.5774 0.068 2.7281 0.5427 3.3418 0.5918l-0.1641-3.9785-0.4804-0.1973-1.418-9.1875-2.1973-12.604c0.5292 0 2.6063 0.09 3.1836 0.098l-0.1328-3.1348c-0.7164-0.01-2.9544-0.1638-3.6094-0.1641l-0.1582-0.9043z" color="#000000" fill="#fff" opacity=".2622" stroke-width="3.1354" style="-inkscape-stroke:none"/>
    <path id="path740312-7" d="m713.35 632.19c-0.32164 2.7465 0.0307 7.5606 0.22868 10.148 0.32717 4.2757-1.6232 3.7571-7.2853 1.395-2.0604-0.85955-2.7591 3.3084-5.3685 3.3594-2.1162 0.0413-6.8377-3.4274-7.171-0.7052-0.76269 6.228-0.34633 10.428-3.8141 9.8366-4.5652-0.77869-2.5578-7.3843-2.4232-10.803 0.0974-2.4734-3.7828-3.6502-5.7941-0.81755-4.1585 5.8569-8.1498 4.3888-6.8306-1.2648 0.20129-0.86252-4.4863 0.9652-5.3599-1.6531-1.0924-3.2742 2.0006-9.2038 1.2096-14.485-1.8704-12.487 12.197-21.59 23.963-20.212s20.114 12.661 18.645 25.202z" fill="#fff" stroke="#000" stroke-linecap="round" stroke-width="2.5"/>
    <path id="path740312" d="m711.61 607.98c-0.23088 1.9715 2.405 9.9338 1.6742 11.128-2.29 3.742-7.3175-1.4862-6.4037 0.71819 1.6696 4.0274 0.16351 8.4115-3.7646 6.2347-2.4085-1.3347-3.4931-6.6899-6.0616-5.8104-2.3427 0.80224-2.6354 3.7528-5.1974 3.2693-3.2886-0.62058-1.7935-7.3573-5.6501-3.5341-1.3642 1.3524-2.0105 7.8312-3.7293 9.2225-4.2903 3.4727-9.332-0.14727-3.408-12.293 1.147-2.3517-5.0756-0.3626-5.7571-2.9989-0.60106-2.325 2.5289-7.3967 2.8282-9.9524 1.2241-10.452 10.242-18.957 19.552-15.671 4.4859 1.5834 8.6788 3.8229 11.652 6.9178 3.1144 3.2417 4.8909 7.4217 4.2647 12.769z" fill="#ffa2a2" stroke="#000" stroke-linecap="round" stroke-width="2.5"/>
    <path id="path740312-4-2" d="m691.44 587.3c-7.6241 0.13343-14.206 7.5665-15.238 16.386-0.2993 2.5557-3.4288 7.6273-2.8277 9.9524 0.14081 0.54468 0.52011 0.88993 1.0201 1.1188-2.776 3.3431-4.2862 7.5188-3.5905 12.164 0.791 5.2808-2.3022 11.211-1.2098 14.485 0.37631 1.128 1.4603 1.4302 2.5564 1.4785-1.6548 2.7685-2.7669 5.9287-3.1672 9.3478-0.48375 4.1307 0.79224 11.071 3.168 18.631 4.9932 15.888 7.7654 51.08 16.347 52.085 2.2662 0.24499-11.493-53.167 7.557-45.059 2.0821 1.9968 5.5527 0.9988 7.5887-2.8841 1.5919-3.0359 3.9994-4.1346 5.5609-4.6514 1.4428-0.47752-6.3006 4.9045-11.51 4.3655-3.7793-0.39108-4.3194-6.5572-8.2616-7.485-7.0152-1.651-11.036-5.1876-10.79-7.292 0.13561-1.1579 9.8315 1.5166 13.535 0.21626 3.3782-1.1862 0.57637-6.3396 4.8004-7.5642 1.7815-0.51645 4.2029 0.0896 5.8788-0.42397 1.7273-0.52936 2.7032-2.1782 4.1544-2.6983 4.2191-1.5123 6.3846-3.2778 5.864-4.4123 0.66706-0.37603 0.89381-1.3144 0.7648-3.0003 0.57881 4.5111-4.5241 3.2439-7.2755 1.1502-1.8164-1.3821-1.5373 2.2239-4.2526 2.893-2.3904 0.58904-4.3242-1.4525-6.6027-0.50891-3.0226 1.2517-2.6469 6.2323-5.6509 6.4313-2.3277 0.15419-2.6782-9.3291-4.8665-9.1999-2.4119 0.1425-4.4 2.596-6.377 2.4325-2.4009-0.19855-0.23967-5.9693-1.9245-6.3006-2.9957-0.58894-0.79063-3.9052-0.71724-4.5319 0.0354-0.30234 2.6973-0.82711 5.8638-1.5763 1.9691-0.46588 4.9608-7.7968 6.1335-6.1427 2.9953 4.2246 7.42-0.48406 9.2455-0.62802 4.7872-0.37751 3.987 7.6338 9.5367 3.6829 1.3491-0.96047 2.1038-2.7271 3.0694-4.0634 1.5234-2.1082 2.6287-4.0956 2.0146-5.6034 0.56052-0.18052 1.0823-0.56634 1.5089-1.2635 0.10202-0.16671-2.1778 1.3637-4.446 0.29871-1.7523-0.82274-1.6138-1.0802-2.8085-0.40227-1.3898 0.78868 0.0384 4.7401-1.8728 5.0335-1.67 0.25638-4.4764-3.4872-6.1972-3.174-2.2262 0.40525-3.9233 1.8142-5.9486 2.0284-2.1776 0.23031-3.1276-2.7449-4.7475-2.4505-2.3715 0.43094-4.214 5.11-4.1624 4.67-6.1724 6.2584-2.1504-2.5697-0.44409-13.102 0.30066-1.8559-3.3521-0.48986-3.1416-1.1488 0.92147-2.8847 4.1164-6.5459 3.7493-10.438-0.32554-3.4511 9.4555-9.7764 9.7434-8.6346 0.55661 2.2071 8.5569 5.2517 9.3343 2.5971 0.95565-3.2632-0.0778-2.2538-6.1816-4.4082-1.4548-0.51348-3.3703-2.4232-4.7822-2.3985z" opacity=".099594"/>
    <path id="path770655" d="m683.17 594.84 4.5837-2.1515" fill="none" stroke="#8afdff" stroke-linecap="round" stroke-width="1.5"/>
    <path id="path770657" d="m692.03 595.3 4.8966 2.8666" fill="none" stroke="#ff0" stroke-linecap="round" stroke-width="1.3677"/>
    <path id="path770659" d="m703.56 596.75 3.0402 3.9289" fill="none" stroke="#3cfa3c" stroke-linecap="round" stroke-width="1.5"/>
    <path id="path770661" d="m680.17 602.24 5.1594-0.84442" fill="none" stroke="#ff0" stroke-linecap="round" stroke-width="1.5"/>
    <path id="path770665" d="m699.54 602.32 3.8365 2.9104" fill="none" stroke="#8afdff" stroke-linecap="round" stroke-width="1.5"/>
    <path id="path770667" d="m692.27 600.83-1.8521 4.3656" fill="none" stroke="#3cfa3c" stroke-linecap="round" stroke-width="1.5"/>
    <circle id="path770691" cx="699.78" cy="595.82" r="1.0583" fill="#fff" style="paint-order:markers stroke fill"/>
    <circle id="path770691-5" cx="686.56" cy="597.61" r="1.0583" fill="#fff" style="paint-order:markers stroke fill"/>
    <circle id="path770691-2" cx="696.01" cy="606.46" r="1.0583" fill="#fff" style="paint-order:markers stroke fill"/>
    <circle id="path770691-3" cx="692.33" cy="591.88" r="1.0583" fill="#fff" style="paint-order:markers stroke fill"/>
    <circle id="path770691-8" cx="707.68" cy="604.97" r="1.0583" fill="#fff" style="paint-order:markers stroke fill"/>
    <path id="path780359" d="m705.1 588.14c0 2.7216-2.2655 4.9279-5.0602 4.9279s-4.3586-1.1305-4.3586-3.8521c0-2.7216 1.5639-6.0036 4.3586-6.0036 1.0592 0 1.2005 1.6733 2.0132 2.2151 1.3315 0.88771 3.047 1.0227 3.047 2.7128z" fill="#c60000" stroke="#000" stroke-linecap="round" stroke-width="1.5" style="paint-order:markers stroke fill"/>
    <path id="path780359-8" d="m702.71 591.38c0 2.7216 0.11574 1.6867-2.6789 1.6867s-4.3586-1.1305-4.3586-3.8521c0-2.7216 1.5639-6.0036 4.3586-6.0036 1.0592 0-1.5776 3.9884-0.76497 4.5302 1.3315 0.88771 3.4439 1.9487 3.4439 3.6388z" opacity=".17886" style="paint-order:markers stroke fill"/>
    <path id="path781036" d="m702.48 585.15c0.81171-1.1693 0.84097-1.4032 3.3208-2.5725" fill="none" stroke="#000" stroke-width="1.2"/>
   </g>
  </g>
 </g>
</svg>
