<?xml version="1.0" encoding="UTF-8"?>
<svg width="1200mm" height="1200mm" version="1.1" viewBox="0 0 1200 1200" xmlns="http://www.w3.org/2000/svg" xmlns:xlink="http://www.w3.org/1999/xlink">
 <g>
  <g>
   <path d="m377.92 479.7s-7.9038-87.962-0.37419-130.96c3.8852-22.187 4.4462-50.926 23.143-63.488 96.369-64.747 260.52-63.022 348.05 13.251 21.742 18.946 13.792 56.381 15.088 85.191 1.7986 39.966-10.231 119.58-10.231 119.58l-8.9569 3.7605s-0.76623-75.972-26.853-97.139c-22.093-17.927-85.189-5.3084-85.189-5.3084s-59.725-112.29-158.61-82.067c-107.74 32.934-81.844 160.17-81.844 160.17z" fill="#ff8080" stroke="#000" stroke-width="2"/>
   <g fill="#fff">
    <path d="m387.88 387.88 11.112-5.2917 4.2333-19.579-14.817-1.0583-4.7625-17.462-1.5875 22.754z"/>
    <path d="m394.23 311.68 2.6458 30.162 6.35-1.5875 11.642 12.171 15.875-14.288-12.171-8.4667-12.7-4.2333-11.112-25.929z"/>
    <path d="m750.56 457.58-6.5845-5.0443-0.0492-13.499 9.9154 1.377 5.5846-10.845-2.1395 15.222z"/>
    <path d="m757.04 406.46-5.9675 19.513-3.9637-1.9356-9.3784 6.393-8.4644-11.641 9.2086-3.8771 8.9647-1.0124 10.956-15.537z"/>
   </g>
   <path d="m377.92 479.7s-7.9038-87.962-0.37419-130.96c3.8852-22.187 4.4462-50.926 23.143-63.488 49.353-33.158 116.48-48.883 181.99-46.09-138.9 36.747-122.82 45.817-108.7 83.359-107.74 32.934-81.844 160.17-81.844 160.17z" opacity=".11179" stroke="#000" stroke-width="2"/>
  </g>
 </g>
</svg>
