<?xml version="1.0" encoding="UTF-8" standalone="no"?>
<svg
   id="svg5"
   width="1200mm"
   height="1200mm"
   version="1.1"
   viewBox="0 0 1200 1200"
   sodipodi:docname="CBS White Collar Chibi.svg"
   inkscape:version="1.3.2 (091e20e, 2023-11-25, custom)"
   xmlns:inkscape="http://www.inkscape.org/namespaces/inkscape"
   xmlns:sodipodi="http://sodipodi.sourceforge.net/DTD/sodipodi-0.dtd"
   xmlns="http://www.w3.org/2000/svg"
   xmlns:svg="http://www.w3.org/2000/svg">
  <sodipodi:namedview
     id="namedview1"
     pagecolor="#ffffff"
     bordercolor="#000000"
     borderopacity="0.25"
     inkscape:showpageshadow="2"
     inkscape:pageopacity="0.0"
     inkscape:pagecheckerboard="0"
     inkscape:deskcolor="#d1d1d1"
     inkscape:document-units="mm"
     inkscape:zoom="0.73289583"
     inkscape:cx="1855.6525"
     inkscape:cy="2837.3746"
     inkscape:window-width="1920"
     inkscape:window-height="1009"
     inkscape:window-x="-8"
     inkscape:window-y="-8"
     inkscape:window-maximized="1"
     inkscape:current-layer="svg5" />
  <defs
     id="defs77">
    <filter
       id="filter8667"
       x="-1.6188331e-05"
       y="-8.1029202e-06"
       width="1.0000324"
       height="1.0000162"
       color-interpolation-filters="sRGB">
      <feGaussianBlur
         id="feGaussianBlur29-7"
         stdDeviation="9.3370321e-05" />
    </filter>
    <filter
       id="filter8266"
       x="-0.031163811"
       y="-0.079789596"
       width="1.0561887"
       height="1.1619047"
       color-interpolation-filters="sRGB">
      <feGaussianBlur
         id="feGaussianBlur26-3"
         stdDeviation="0.073773287" />
    </filter>
    <filter
       id="filter5908"
       x="-0.030077274"
       y="-0.027515796"
       width="1.0601545"
       height="1.0550316"
       color-interpolation-filters="sRGB">
      <feGaussianBlur
         id="feGaussianBlur20"
         stdDeviation="0.073773287" />
    </filter>
  </defs>
  <g
     id="layer60"
     transform="translate(19.4 11.241)">
    <g
       id="layer16">
      <g
         id="g297227">
        <g
           id="g297165"
           transform="translate(-9.3103e-6 .00033395)"
           fill="none"
           stroke="#000" />
        <g
           id="g297169"
           transform="matrix(4.1461 0 0 4.2539 312.56 54.726)"
           fill="#382e85"
           fill-opacity=".99763">
          <path
             id="path297167"
             d="m 48.928231,184.58142 c -0.280756,-2.22998 -0.162914,-14.63992 3.886163,-37.50205 0.127578,-0.81752 -1.425248,9.3415 -2.523982,15.26242 -1.097283,-0.77741 -11.855942,-3.42877 -11.272442,-5.76796 0.93854,-3.7627 6.180968,-15.01862 10.962468,-22.49862 1.1581,-1.8118 3.829978,-1.48547 6.121162,-3.13931 0.993748,-0.71731 3.229483,0.0524 5.262244,0.10261 2.441543,0.0603 4.672027,-0.49246 5.19723,-0.23402 2.951279,1.45228 4.562876,1.60087 6.414344,2.5445 4.711695,2.40138 8.532005,16.15012 10.772954,23.86007 -0.79617,1.5947 -9.027283,4.49314 -10.75773,5.1267 -0.56973,-0.47523 -2.676505,-16.13331 -2.567305,-15.53031 3.7502,20.711 4.143798,36.80636 3.957698,37.75736 -0.997867,0.84383 -4.369257,1.39392 -6.920882,1.86018 -1.71029,-0.67508 -4.013345,-2.71283 -6.340385,-4.07922 -0.155145,-0.0911 0.159395,-0.30469 0.537173,-0.50378 0.532352,-0.28054 1.190278,-0.53228 0.836437,-0.37187 -2.626428,1.19069 -7.406077,4.41975 -8.985955,4.95623 -2.319635,-0.54017 -4.529673,-1.44962 -4.579192,-1.84294 z"
             fill="#ffffff"
             fill-opacity="0.99763"
             stroke="#000000"
             stroke-width="0.71478"
             sodipodi:nodetypes="sccccsssscccccssscss" />
        </g>
        <g
           id="g297207"
           transform="matrix(4.1461 0 0 4.1461 114.51 46.948)"
           stroke="#000">
          <path
             id="path297177"
             d="m 109.56817,144.30121 0.88528,43.7459"
             fill="none"
             stroke-width="0.565"
             sodipodi:nodetypes="cc"
             style="stroke-width:0.482381;stroke-dasharray:none" />
          <g
             id="g297187"
             fill="#fff"
             fill-opacity=".99763"
             stroke-width=".565" />
          <g
             id="g297205"
             fill="none"
             stroke-linejoin="round"
             stroke-width=".165">
            <circle
               id="circle297193"
               cx="109.04686"
               cy="185.52013"
               r="0.51449001" />
            <circle
               id="circle297195"
               cx="108.85451"
               cy="175.11929"
               r="0.51449001" />
            <circle
               id="circle297197"
               cx="108.68958"
               cy="165.69667"
               r="0.51449001" />
            <circle
               id="circle297199"
               cx="108.5843"
               cy="154.99823"
               r="0.51449001" />
            <circle
               id="circle297201"
               cx="108.57059"
               cy="144.38643"
               r="0.51449001" />
            <circle
               id="circle297203"
               cx="108.88"
               cy="138.64"
               r=".51449" />
          </g>
        </g>
        <g
           id="g297215"
           transform="matrix(4.1461 0 0 4.1461 114.51 46.948)"
           stroke="#000"
           stroke-width=".26458px" />
        <path
           id="path297219"
           transform="matrix(4.1461,0,0,4.1461,114.51,46.946)"
           d="m 118.65775,152.51883 4.27709,12.41336 c 0.67599,1.8023 6.98354,-2.11121 8.14892,-1.32331 l -10.25601,4.64153 c -1.35925,-5.13916 -0.64439,-7.30078 -0.92386,-7.37327 -0.73233,-0.18995 1.27409,12.47118 0.94268,14.16252 l -3.10458,-20.07433 c -1.26721,-7.70927 0.25779,-2.74513 0.35833,-3.75057 0.96385,-9.63889 0.28101,2.04253 0.55743,1.30407 z"
           filter="url(#filter8667)"
           opacity="0.18892"
           style="opacity:0.122;mix-blend-mode:normal;filter:url(#filter8667)"
           sodipodi:nodetypes="ccccsccsc" />
        <path
           id="path297223"
           transform="matrix(0.26458,0,0,0.26458,-19.4,-11.241)"
           d="m 2101.0884,2371.5305 c -10.332,12.8266 -46.9046,11.6448 -55.8137,25.3303 -73.9271,134.1393 -137.2876,226.0919 -182.7793,372.4484 26.3929,40.4549 117.8787,72.9215 182.272,90.5763 0,0 17.5366,-49.1487 1.7668,-50.9158 -206.6,-23.1503 -37.066,-225.1203 29.1297,-360.8627 33.5009,-21.1651 62.2412,-9.9974 52.4229,1.7776 l 95.0946,40.1942 c 0,0 -33.2093,-31.658 -34.9452,-52.6503 -1.1168,-13.5061 16.6135,-37.1073 16.6135,-37.1073 1.1417,-2.55 -35.7653,20.2165 -36.7709,18.1944 -14.8384,-29.8375 39.8684,-35.5277 34.4797,-47.1741 -9.7819,-21.1409 -24.6005,-23.8335 -53.8131,-30.2786 l -22.109,-3.7303 z m -37.8329,227.9329 c -4.6215,61.0265 -10.1345,152.3752 -4.1921,138.6704 0,0 16.7744,-85.3966 16.0294,-82.8566 52.6592,-108.509 29.5857,-143.7168 6.8287,-68.0281 -3.9076,12.9964 -12.527,-68.852 -18.666,12.2143 z m 19.3142,50.9945 c -14.793,49.962 -42.8357,179.5207 -47.3237,290.5607 42.9973,-98.5358 53.0488,-153.1148 47.3237,-290.5607 z m -44.4293,322.3999 c -34.35,83.964 -9.9506,159.2812 -16.8186,241.8612 18.2495,6.5169 40.3929,50.1581 84.8282,24.9079 17.3399,-9.8534 59.2989,-34.7792 92.1091,-55.0773 8.4368,-5.2195 108.1682,63.9173 114.821,59.6448 6.2121,-3.9896 -80.5033,-81.4705 -76.8146,-84.0697 l -129.5987,45.6784 c -38.359,-78.133 -41.9265,-81.627 -34.7575,-315.926 z"
           opacity="0.12195"
           style="mix-blend-mode:normal"
           sodipodi:nodetypes="csccscccssssccccccsccccccssscccc" />
      </g>
    </g>
  </g>
  <path
     style="display:inline;fill:none;fill-opacity:0.99763;stroke:#ffc500;stroke-width:2;stroke-linecap:round;stroke-linejoin:round;stroke-dasharray:none;stroke-opacity:1"
     d="m 673.60434,720.02854 c -0.45937,3.98572 -37.81153,19.69096 -41.99244,22.40022"
     id="path1-7"
     sodipodi:nodetypes="cc"
     transform="translate(1.3576335,0.67414796)" />
  <path
     style="display:inline;fill:none;fill-opacity:0.99763;stroke:#191ad9;stroke-width:2;stroke-linecap:round;stroke-linejoin:round;stroke-dasharray:none;stroke-opacity:1"
     d="m 672.90854,718.79874 c -0.45937,3.98572 -36.21607,17.7126 -42.18389,22.46404"
     id="path1-6-8"
     sodipodi:nodetypes="cc"
     transform="translate(1.3576335,0.67414796)" />
  <path
     style="display:inline;fill:none;fill-opacity:0.99763;stroke:#ffc500;stroke-width:2;stroke-linecap:round;stroke-linejoin:round;stroke-dasharray:none;stroke-opacity:1"
     d="m 497.81472,719.15338 c 8.62811,15.98356 36.98189,17.07442 43.46026,20.80476"
     id="path1-6"
     sodipodi:nodetypes="cc"
     transform="translate(1.3576335,0.67414796)" />
  <path
     style="display:inline;fill:none;fill-opacity:0.99763;stroke:#191ad9;stroke-width:2;stroke-linecap:round;stroke-linejoin:round;stroke-dasharray:none;stroke-opacity:1"
     d="m 498.14001,717.57517 c 9.39393,11.38865 16.68767,14.77696 42.82208,20.03895"
     id="path1"
     sodipodi:nodetypes="cc"
     transform="translate(1.3576335,0.67414796)" />
  <path
     id="path4"
     d="m 48.928231,184.58142 c -0.280756,-2.22998 -0.162914,-14.63992 3.886163,-37.50205 0.12756,-0.81753 -2.129642,13.81503 -2.400843,15.32243 -1.097283,-0.77741 -11.979081,-3.48878 -11.395581,-5.82797 0.93854,-3.7627 6.180968,-15.01862 10.962468,-22.49862 1.1581,-1.8118 3.829978,-1.48547 6.121162,-3.13931 0.993748,-0.71731 3.229483,0.0524 5.262244,0.10261 2.441543,0.0603 4.672027,-0.49246 5.19723,-0.23402 2.951279,1.45228 4.562876,1.60087 6.414344,2.5445 4.711695,2.40138 8.532005,16.15012 10.772954,23.86007 -0.79617,1.5947 -9.245417,4.38084 -10.975864,5.0144 -0.110345,-1.33325 -2.29413,-15.99433 -2.349171,-15.41801 3.7502,20.711 4.143798,36.80636 3.957698,37.75736 -0.997867,0.84383 -4.369257,1.39392 -6.920882,1.86018 -1.71029,-0.67508 -4.013345,-2.71283 -6.340385,-4.07922 -0.155145,-0.0911 0.159395,-0.30469 0.537173,-0.50378 0.532352,-0.28054 1.190278,-0.53228 0.836437,-0.37187 -2.626428,1.19069 -7.406077,4.41975 -8.985955,4.95623 -2.319635,-0.54017 -4.529673,-1.44962 -4.579192,-1.84294 z"
     fill="#ffffff"
     fill-opacity="0.99763"
     stroke="#000000"
     stroke-width="0.71478"
     sodipodi:nodetypes="sccccsssscccccssscss"
     style="fill:none"
     transform="matrix(4.1460999,0,0,4.2538999,331.96001,65.966999)" />
  <path
     id="path2"
     style="fill:#ffffff;fill-opacity:1;stroke:#000000;stroke-width:1.27709;stroke-linecap:round;stroke-linejoin:round;stroke-dasharray:none"
     d="m 614.16406,670.34823 c 0,0 -7.4982,0.40946 -11.25103,0.4101 -3.36662,-0.0408 -6.73249,-0.33407 -10.0996,-0.32018 l 0.0522,16.73438 c 3.1171,2.20083 6.46774,4.04418 10.81381,4.36665 5.12582,-0.46902 8.00653,-2.54764 10.69806,-5.07772 z"
     sodipodi:nodetypes="ccccccc" />
  <text
     xml:space="preserve"
     style="font-size:2.52524px;font-family:Arial;-inkscape-font-specification:Arial;fill:#ffc500;fill-opacity:1;stroke:#ffc500;stroke-width:0.742954;stroke-linecap:round;stroke-linejoin:round;stroke-dasharray:none;stroke-dashoffset:4.57323;stroke-opacity:1"
     x="594.9198"
     y="674.23199"
     id="text6"><tspan
       sodipodi:role="line"
       id="tspan6"
       style="fill:#ffc500;fill-opacity:1;stroke-width:0.742954;stroke-dasharray:none"
       x="594.9198"
       y="674.23199"><tspan
         style="font-size:2.69359px;fill:#ffc500;fill-opacity:1;stroke-width:0.742954;stroke-dasharray:none"
         id="tspan14">C</tspan><tspan
         style="font-size:2.3569px;fill:#ffc500;fill-opacity:1;stroke-width:0.742954;stroke-dasharray:none"
         id="tspan9">OCKLE</tspan></tspan></text>
  <text
     xml:space="preserve"
     style="font-size:2.52524px;font-family:Arial;-inkscape-font-specification:Arial;fill:#ffc500;fill-opacity:1;stroke:#ffc500;stroke-width:0.742954;stroke-linecap:round;stroke-linejoin:round;stroke-dasharray:none;stroke-dashoffset:4.57323;stroke-opacity:1"
     x="605.92712"
     y="674.1991"
     id="text7"><tspan
       sodipodi:role="line"
       style="fill:#ffc500;fill-opacity:1;stroke-width:0.742954;stroke-dasharray:none"
       x="605.92712"
       y="674.1991"
       id="tspan8"><tspan
         style="font-size:2.69359px;fill:#ffc500;fill-opacity:1;stroke-width:0.742954;stroke-dasharray:none"
         id="tspan13">B</tspan><tspan
         style="font-size:2.3569px;fill:#ffc500;fill-opacity:1;stroke-width:0.742954;stroke-dasharray:none"
         id="tspan10">AY</tspan></tspan></text>
  <text
     xml:space="preserve"
     style="font-size:2.3569px;font-family:Arial;-inkscape-font-specification:Arial;fill:#ffc500;fill-opacity:1;stroke:#ffc500;stroke-width:0.742954;stroke-linecap:round;stroke-linejoin:round;stroke-dasharray:none;stroke-dashoffset:4.57323;stroke-opacity:1"
     x="598.36426"
     y="677.39777"
     id="text11"><tspan
       sodipodi:role="line"
       id="tspan11"
       style="fill:#ffc500;fill-opacity:1;stroke-width:0.742954;stroke-dasharray:none"
       x="598.36426"
       y="677.39777"><tspan
   style="font-size:2.69359px;fill:#ffc500;fill-opacity:1;stroke-width:0.742954;stroke-dasharray:none"
   id="tspan12">S</tspan>CHOOL</tspan></text>
  <g
     id="g2"
     inkscape:label="Collar"
     transform="translate(1.3576335,0.67414797)"
     style="display:inline">
    <path
       id="path23118-5"
       d="m 596.75155,638.67483 5.56765,5.16706 -18.07746,8.76598 c -1.15065,-35.26036 11.68073,-36.50547 24.7591,-36.77245 4.27868,4.32317 16.21019,16.91169 13.15162,24.28053 -6.46317,-5.43276 -17.79069,-2.3991 -25.40091,-1.44112 z"
       style="display:inline;fill:#ffffff;fill-opacity:1;stroke:#000000;stroke-width:3;stroke-dasharray:none;stroke-opacity:1"
       sodipodi:nodetypes="ccccsc" />
    <path
       id="path23118-24-4"
       d="m 595.82118,638.30085 6.39729,5.54997 -18.07746,8.76598 c -0.34403,-10.54247 0.56185,-18.04417 2.35055,-23.3881 z"
       style="display:inline;fill:#ffffff;fill-opacity:1;stroke:#000000;stroke-width:1;stroke-dasharray:none;stroke-opacity:1"
       sodipodi:nodetypes="ccccc" />
    <path
       id="path23118"
       d="m 573.80519,641.08752 -5.56765,5.16706 18.07746,8.76598 c 1.15065,-35.26036 -11.68073,-36.50547 -24.7591,-36.77245 -4.27868,4.32317 -8.16909,8.61531 -11.87526,21.21726 6.46317,-5.43276 16.51433,0.66417 24.12455,1.62215 z"
       style="display:inline;fill:#ffffff;fill-opacity:1;stroke:#000000;stroke-width:3;stroke-dasharray:none;stroke-opacity:1"
       sodipodi:nodetypes="cccccc" />
    <path
       id="path23118-24"
       d="m 574.73556,640.71354 -6.39729,5.54997 18.07746,8.76598 c 0.34403,-10.54247 -0.56185,-18.04417 -2.35055,-23.3881 z"
       style="display:inline;fill:#ffffff;fill-opacity:1;stroke:#000000;stroke-width:1;stroke-dasharray:none;stroke-opacity:1"
       sodipodi:nodetypes="ccccc" />
  </g>
  <path
     style="fill:none;fill-opacity:1;stroke:#000000;stroke-width:0.3;stroke-linecap:round;stroke-linejoin:round;stroke-dasharray:0.6, 0.6;stroke-dashoffset:0"
     d="m 592.59927,677.07581 10.92058,2.66246 10.51443,-2.48196 m -73.99984,-42.57435 c 0,0 4.91371,12.41387 6.32566,18.87231 2.76708,12.65692 4.77079,38.61702 4.77079,38.61702"
     id="path3"
     sodipodi:nodetypes="ccccsc" />
  <path
     d="m 634.71871,634.65919 c 0,0 -4.91371,12.41387 -6.32566,18.87231 -2.76708,12.65691 -4.77079,38.61701 -4.77079,38.61701"
     style="fill:none;fill-opacity:1;stroke:#000000;stroke-width:0.3;stroke-linecap:round;stroke-linejoin:round;stroke-dasharray:0.6, 0.6;stroke-dashoffset:0"
     id="path1-4" />
  <path
     d="m 554.97183,805.21008 c -0.96274,19.76527 -0.42382,36.52721 -0.0794,53.67814"
     style="fill:none;fill-opacity:1;stroke:#000000;stroke-width:0.3;stroke-linecap:round;stroke-linejoin:round;stroke-dasharray:0.6, 0.6;stroke-dashoffset:0"
     id="path1-0"
     sodipodi:nodetypes="cc" />
  <path
     d="m 612.46266,804.08117 c 0.90506,18.14798 1.44841,36.29597 -0.33468,54.44395"
     style="fill:none;fill-opacity:1;stroke:#000000;stroke-width:0.3;stroke-linecap:round;stroke-linejoin:round;stroke-dasharray:0.6, 0.6;stroke-dashoffset:0"
     id="path1-07"
     sodipodi:nodetypes="cc" />
</svg>
