<svg width="1200mm" height="1200mm" version="1.1" viewBox="0 0 1200 1200" xml:space="preserve" xmlns="http://www.w3.org/2000/svg"><defs>
        

        
        
    
            
            
            
        <filter id="filter1163" x="-.29237" y="-.29309" width="1.5847" height="1.5862" color-interpolation-filters="sRGB"><feGaussianBlur stdDeviation="119.28281"/></filter></defs>

    <g transform="matrix(1.0021 0 0 1.0021 -38.781 .29703)">
            <path d="m-62.221-72.479h1421.1v1332.5h-1421.1z" fill="#0b00cb"/>
            <path d="m1188.7-28.199s-114.85 193.72-323.8 206.18-322.41-156.36-451.1-134.22-279.52 204.79-474.62 231.08-117.62 453.87-117.62 453.87l1560.9-52.582-23.52-751.37z" fill="#070087"/>
            <path d="m-1.3366 933.5 1342.2-123.15-63.65-622.68s-64 214.83-202.03 239.39c-138.02 24.562-186.11-26.291-355.62-2.767s-273.98 101.01-350.09 101.01-186.8-51.198-294.74-84.408c-107.93-33.21-240.77 15.221-301.66 41.512-60.885 26.291 27.674 621.3 27.674 621.3z" fill="#06015c"/>
            <path d="m-2.7204 937.65s102.4-243.54 608.85-130.07c506.44 113.47 581.17-352.85 671.11-323.8 89.94 29.058 149.44 618.54 149.44 618.54l-59.5 231.08-1306.2 48.43-208.94-52.58z" fill="#030037"/>
        </g><g transform="matrix(1.0021 0 0 1.0021 20.847 8.8568)" fill="#ffe200" filter="url(#filter1163)">
            <path d="m106.21 503.19c0-269.73 219.2-488.39 489.58-488.39s489.59 218.66 489.59 488.39-219.2 488.38-489.59 488.38-489.58-218.66-489.58-488.38z" fill="#ffe200"/>
        </g><path d="m127.28 513.12c0-270.31 219.67-489.44 490.63-489.44 270.96 0 490.64 219.13 490.64 489.44 0 270.31-219.67 489.43-490.64 489.43-270.97 0-490.63-219.13-490.63-489.43z" fill="#ffe200" stroke-width="1.0021"/><path d="m400.75 636.21c-110.05-153.7-53.804-612.52 217.16-612.52 270.97 0 490.64 219.13 490.64 489.44 0 85.21-21.837 165.33-60.219 235.11-83.376 151.57-497.85 97.099-647.58-112.02z" fill="#fff" opacity=".35569" stroke-width="1.0021"/><g transform="matrix(.26452 0 0 .26452 5.089 -29.613)" fill="#ffe200" stroke-width="3.8312">
                <path d="m1194.5 941.17c0-149.17 120.93-270.1 270.1-270.1s270.1 120.93 270.1 270.1-120.93 270.1-270.1 270.1-270.1-120.93-270.1-270.1z"/>
                <path d="m1857.3 682.56c0-78.29 49.744-141.75 111.1-141.75 61.364 0 111.1 63.464 111.1 141.75s-49.74 141.75-111.1 141.75-111.1-63.468-111.1-141.75z"/>
                <path d="m2347.7 1125.1c0-163.98 124.36-296.92 277.76-296.92s277.76 132.93 277.76 296.92-124.36 296.92-277.76 296.92-277.76-132.93-277.76-296.92z"/>
                <path d="m3278.3 1266.6c0-176.56 143.6-319.69 320.75-319.69 177.14 0 320.77 143.13 320.77 319.69s-143.62 319.69-320.77 319.69c-177.14 0-320.75-143.13-320.75-319.69z"/>
                <path d="m1137 2981.3c0-234.87 196.4-425.26 438.67-425.26s438.67 190.39 438.67 425.26c0 234.86-196.4 425.26-438.67 425.26s-438.67-190.4-438.67-425.26z"/>
                <path d="m1773 2073.3c0-150.23 121.79-272.01 272.01-272.01 150.23 0 272.01 121.78 272.01 272.01s-121.78 272.01-272.01 272.01-272.01-121.79-272.01-272.01z"/>
                <path d="m2956.9 3105.8c0-140.71 117.5-254.77 262.44-254.77s262.44 114.07 262.44 254.77c0 140.71-117.5 254.77-262.44 254.77s-262.44-114.07-262.44-254.77z"/>
                <path d="m3489.4 2406.6c0-122.72 100.35-222.21 224.12-222.21 123.76 0 224.14 99.485 224.14 222.21 0 122.72-100.38 222.21-224.14 222.21-123.78 0-224.12-99.488-224.12-222.21z"/>
                <path d="m3148.4 2398.9c0-57.131 41.166-103.44 91.949-103.44s91.948 46.312 91.948 103.44c0 57.127-41.166 103.44-91.948 103.44s-91.949-46.315-91.949-103.44z"/>
                <path d="m2435.8 3475.5c0-44.434 39.454-80.455 88.118-80.455 48.668 0 88.117 36.021 88.117 80.455s-39.45 80.455-88.117 80.455c-48.664 0-88.118-36.021-88.118-80.455z"/>
                <path d="m2386 1653.8c0-45.495 25.73-82.37 57.468-82.37 31.741 0 57.468 36.875 57.468 82.37 0 45.492-25.726 82.371-57.468 82.371-31.738 0-57.468-36.879-57.468-82.371z"/>
                <path d="m3167.6 565.71c0-41.262 30.876-74.708 68.961-74.708s68.961 33.446 68.961 74.708c0 41.258-30.876 74.708-68.961 74.708s-68.961-33.45-68.961-74.708z"/>
                <path d="m2418.6 1649.6c0-0.6322 0.8084-1.1416 1.8006-1.1416 0.9961 0 1.8007 0.5094 1.8007 1.1416s-0.8046 1.1417-1.8007 1.1417c-0.9922 0-1.8006-0.5095-1.8006-1.1417z"/>
            </g>
</svg>
