<?xml version="1.0" encoding="UTF-8"?>
<svg id="svg5" width="1200mm" height="1200mm" version="1.1" viewBox="0 0 1200 1200" xmlns="http://www.w3.org/2000/svg" xmlns:xlink="http://www.w3.org/1999/xlink">
 <g id="layer60" transform="translate(19.4 11.241)">
  <g id="layer4">
   <g id="layer218">
    <path id="path91588" d="m365.36 615.2c2.3517-0.64693 4.5468-1.7418 6.7359-2.7961 2.2854-1.0116 4.3995-2.2971 6.5568-3.5585l-3.661 1.434v0c6.5628-3.7372 1.5528-0.85574 0.0154-0.19934-2.1056 1.0387-4.2214 2.0913-6.4824 2.7514l-3.1648 2.3687z" fill="none" stroke="#000" stroke-linecap="round" stroke-linejoin="round" style="paint-order:markers stroke fill"/>
    <path id="path26320" d="m532.39 244.07c-45.144 0.62836-106.51 18.958-138.46 45.414-44.638 36.953-64.159 80.405-70.84 125.67-6.6659 45.159 10.024 122.89 20.123 165.33 3.8213 16.055 3.3455 39.451 3.3455 39.451-0.0374 3.2791 2.3736 6.0726 5.6229 6.5148 0.18772 0.0872 0.40632 0.15076 0.69916 0.15865 0.87995 0.0239 1.7231-0.13012 2.497-0.42633l6e-3 -2e-3c1.6049-0.61592 2.9083-1.851 3.6096-3.4204l5.3e-4 -2e-3c0.338-0.75722 0.53742-1.5912 0.56118-2.4717 0 0 0.80692-23.897-3.6954-42.812-3.747-15.743-8.3068-36.66-12.234-58.748-0.22196-1.2483-0.42781-2.5168-0.64545-3.7719 1.4639 6.366 3.16 12.713 4.9888 18.973 7.1805 41.547 15.207 75.34 15.207 75.34 0.0166 0.0413 0.0337 0.0825 0.0512 0.12351 2.258 10.118 3.8571 16.238 3.8571 16.238 0.90715 3.4734 4.4585 5.5534 7.9318 4.6462 3.4735-0.90802 6.8762-4.3277 5.9676-7.8011 0 0-0.80719-3.115-2.0459-8.369 2.1663 4.5513 3.5739 7.3479 3.5739 7.3479 1.6307 3.1986 5.5458 4.4694 8.7442 2.8381 3.1974-1.6307 4.468-5.5443 2.8381-8.7421 0 0-0.839-1.6826-1.8593-3.7749 0.25884-0.0564 0.51721-0.12361 0.77362-0.21344 1.6184-0.56724 2.8646-1.713 3.6018-3.1212 0.76896 3.1892 1.3652 5.9579 1.7477 8.2129 0.60092 3.5382 3.9556 5.9202 7.4941 5.3206 1.1258-0.19076 2.1338-0.66095 2.9668-1.3265 0.13605 0.62023 0.26942 1.2291 0.39015 1.7632 0.79179 3.5014 5.9559 5.4173 9.4573 4.6256 1.2244-0.27689 2.2885-0.88294 3.1218-1.7033 1.1482 3.3198 4.7394 5.1376 8.107 4.0685 2.4577-0.7802 4.1266-2.885 4.4695-5.2772 0.13234 0.41981 0.25482 0.81468 0.39584 1.2578 1.0887 3.4212 4.7448 5.3118 8.1659 4.2225 1.2359-0.39341 2.2705-1.1227 3.0386-2.0542 1.0683 1.1603 2.5586 1.9383 4.2545 2.0758 3.578 0.29004 8.3035-2.4687 8.5938-6.0466 0.0167-0.20601 0.0312-0.40839 0.0445-0.60876 0.4554 3.3475 3.4274 5.8231 6.8518 5.6048 3.2843-0.20897 7.8871-2.9016 8.4548-6.1087 0.43145 3.4955 3.5993 6.1738 7.119 5.825 3.5727-0.35362 8.5907-1.9898 8.2367-5.5625 0.34647-3.7858 0.62466-16.486-3.1501-23.004-21.928-4.8864-46.377-14.888-61.48-24.899-0.0123-0.0493-0.0217-0.0911-0.0341-0.14057-3.1095-1.8251-8.6835-5.6048-15.388-10.067-0.18692-0.12441-0.35023-0.23421-0.53898-0.35967h-5.3e-4c0.84225 3.0782 1.595 5.9357 2.28 8.6212 0.0388 0.1519 0.0759 0.2999 0.11419 0.45061 0.6662 2.6232 1.2682 5.0823 1.8046 7.3675 3e-3 0.0114 6e-3 0.0232 8e-3 0.0346-0.0283-0.0994-0.0621-0.21669-0.0904-0.31628-1.4892-5.2342-3.0778-10.78-4.7563-16.61-0.0587-0.20388-0.1075-0.37674-0.16643-0.58134-0.50511-0.3366-1.0456-0.7375-1.6097-1.1839-0.0349-0.0276-0.0708-0.0567-0.10594-0.0847-0.52189-0.41627-1.0664-0.87662-1.6258-1.3663-0.14203-0.12446-0.28798-0.25752-0.43202-0.38603-0.41822-0.37291-0.8441-0.76158-1.2759-1.1637-0.17002-0.15849-0.3379-0.3111-0.50953-0.47337-0.25493-0.24082-0.51486-0.49615-0.77256-0.74414-0.0771-0.30089-0.30934-1.2085-0.43232-1.5036 0 0-10.216-24.449-7.5936-55.191 0.68397-8.0186 1.0527-19.253 1.7622-32.141 0.15846-2.8785 0.33356-5.8396 0.53332-8.8656 0.2577-3.9039 0.55621-7.9161 0.91054-11.999 0.3212-3.7018 0.68842-7.4615 1.1136-11.252 0.5546-4.944 1.2076-9.9398 1.9849-14.926 1.115-7.1518 2.2989-14.053 3.7646-20.691 1.2069-5.4657 2.6048-10.753 4.3124-15.854 1.1172-3.3377 2.3666-6.5958 3.7822-9.7725 1.6377-3.6753 3.4975-7.2418 5.6306-10.696 2.7042-4.3788 5.8479-8.5774 9.5358-12.589 2.5615-2.7866 5.3857-5.4833 8.5075-8.0879 4.8391-4.0374 9.9296-7.5699 15.166-10.657 4.3144-2.5437 8.7278-4.7849 13.181-6.7567 7.5958-3.3636 15.307-5.9433 22.838-7.9024 4.17-1.0848 8.285-1.9793 12.295-2.7115 8.3961-1.533 16.332-2.354 23.348-2.7182 9.6862-0.50274 17.619-0.13502 22.592 0.43251 8.2768 0.94456 16.08 2.4943 23.24 4.3889 6.7761 1.7929 12.976 3.8949 18.458 6.0844 3.4935 1.3954 6.6611 2.8243 9.5338 4.2339 0.79859 0.55078 1.961 1.1256 3.2732 1.6681 0.34575 0.18362 0.71958 0.37047 1.0531 0.55242 0.84987 0.46376 1.7575 0.71133 2.6639 0.77359 2.5477 0.78341 5.0023 1.2988 6.18 1.2056 3.5098 0.65573 2.832 4.1236 7.1949 4.9615 69.593 33.882 111.7 95.994 113.74 157.03-3.7653 9.6992-8.0222 19.914-12.413 30.35-8.6184 20.485-17.329 40.917-23.341 61.164-0.75549 2.4831-1.4828 4.9616-2.158 7.4311 0.17536-0.91418 0.337-1.782 0.53692-2.7776v-5.3e-4c1.7103-8.5181 4.3256-19.956 7.97-33.275-4.9681 4.4183-11.963 9.3446-16.766 12.742-0.5389 2.1074-1.0248 4.0779-1.4712 5.9448-6e-3 0.0242-0.0108 0.0472-0.0165 0.0713-0.44278 1.8535-0.84174 3.591-1.2046 5.2302 0.0205-0.16698 0.0418-0.34269 0.0625-0.5116 0.35737-2.9098 0.73845-6.0032 1.1823-9.5581-0.39931 0.33303-0.79357 0.65077-1.1834 0.95652-0.0262 0.0206-0.0524 0.0411-0.0785 0.0615-1.9842 1.55-3.8389 2.758-5.5196 3.7388-0.0234 0.0136-0.0465 0.0267-0.0698 0.0403-7.0032 4.0141-2.8396 2.1107-15.618 8.2372-7.1929 3.4286-13.426 5.9811-19.655 8.0393-1.3692 7.1842-2.928 25.217-1.672 32.019 0.97301 5.2695 10.003 4.61 10.803-3.8852 0.77639-12.206 0.54906-8.5418 3.1171-28.117 4e-3 -0.0283 7e-3 -0.0501 0.0108-0.0786-0.16417 1.3877-0.29469 2.6282-0.40722 3.775-3e-3 0.0304-5e-3 0.0556-8e-3 0.0858-0.11115 1.1376-0.20463 2.1741-0.2899 3.1347-0.0828 0.93154-0.15957 1.79-0.24083 2.6112-4e-3 0.0416-8e-3 0.0842-0.0119 0.12557-0.0833 0.83251-0.17219 1.6235-0.27853 2.4019-2e-3 0.0118-3e-3 0.0238-5e-3 0.0356-0.83339 6.0676-0.89525 9.8389-0.29869 17.197 0.0136 0.16844 0.036 0.33399 0.062 0.49816 0.0185 0.1229 0.041 0.23855 0.0651 0.35192 0.0127 0.0587 0.0251 0.11758 0.0393 0.17569 0.0194 0.0778 0.0387 0.15628 0.061 0.22944 0.8297 2.9243 3.6315 4.9528 6.7764 4.6979 1.6955-0.13759 3.1858-0.91501 4.254-2.0748 0.76819 0.93175 1.8027 1.6617 3.0391 2.0552 3.421 1.0878 7.0765-0.80351 8.1644-4.2245 0.1416-0.44503 0.26397-0.83992 0.39687-1.2614 0.34182 2.3935 2.0113 4.5002 4.47 5.2808 3.2248 1.0238 6.6554-0.59947 7.9488-3.6541-0.0251 0.26175-0.056 0.5252-0.0796 0.78653-0.32176 3.5752 2.3154 6.7343 5.8906 7.0564 3.5754 0.32207 6.7349-2.3152 7.0569-5.8906 0.77076-8.5549 2.5856-17.636 5.0943-27.023-0.62351 3.1349-1.1756 6.2986-1.6386 9.5007-0.71072 4.3495-1.2885 8.6958-1.679 13.03-0.32176 3.5752 2.3154 6.7343 5.8906 7.0564 3.5759 0.32298 6.7364-2.3146 7.0585-5.8906 1.2345-13.702 4.4579-27.915 8.6636-42.213-1.5637 12-3.1925 25.686-4.7062 42.487-0.32207 3.5754 2.3152 6.7349 5.8906 7.0569 3.5002 0.30153 6.6066-2.2327 7.014-5.7221 1.516-0.19214 2.9159-0.9123 3.9538-2.034 1.1922 0.87065 2.6453 1.3095 4.1202 1.2444 3.5843-0.19541 6.3316-3.2592 6.1366-6.8435-0.59412-10.926-0.52922-21.269-0.0465-31.177 0.92247 5.2411 4.444 11.652 9.278 9.6289 0.39448-0.12256 0.77638-0.28245 1.1405-0.4775l0.01-4e-3 2e-3 -2e-3c2.5861-1.3875 3.9217-4.3358 3.2592-7.1949-10.152-69.918 19.434-126.89-5.2405-190.81-15.676-51.657-60.388-98.297-118.61-126.55-1.0472-0.50516-2.2107-0.7202-3.3693-0.62269-2.6278 0.0103-3.8824 1.4684-5.8244 4.4426l-1.9844 0.85989c0.79375-1.5213 0.64532-2.8482 0.53382-3.5161-0.0367-1.2033-0.40684-2.3728-1.0692-3.3781-0.69485-1.2375-1.5788-1.8123-2.4996-2.2257-0.2063-0.10673-43.005-22.228-88.471-21.595zm-115.34 99.334c-17.099 19.196-26.258 48.027-30.619 76.003-5.0241 32.227-4.2926 65.068-5.6183 80.609-1.128 13.224-0.0812 25.443 1.6201 35.492-3.8034-5.4405-7.4459-11.499-8.7473-16.009l-5e-4 5e-4c-0.22024 0.24824-0.4187 0.51369-0.59791 0.79119-1.5072-7.3846-5.5279-19.658-5.1753-27.225-3.8871-1.1817-8.7032-0.0131-12.347-3.7713-9.3875-8.0224-1.1937-21.781 7.7752-21.239 6.4258-43.532 19.161-90.083 48.76-120.12 1.5188-1.541 3.1757-3.0523 4.9501-4.5351zm-75.774 48.146c-1.1423 4.756-2.1024 9.6217-2.8381 14.606-2.1507 14.57-1.9617 32.954-0.44286 52.699-0.6671 6.2018-0.78648 12.686-0.45734 19.348-0.59864-5.0153-1.1481-9.9887-1.5736-14.827-1.4021-15.945-1.7711-30.673-0.49713-42.495 0.14155-1.3135 0.30385-2.5914 0.48681-3.8308 0.19783-1.3403 0.4064-2.6777 0.62682-4.0116 0.22043-1.334 0.45228-2.6644 0.6961-3.992 0.73141-3.9828 1.57-7.9367 2.5264-11.86 0.45984-1.8865 0.95718-3.7634 1.4728-5.6358zm296.85 201.9c-0.50207 0.49041-2.519 1.1856-4.8974 1.9017-0.0175 5e-3 -0.0352 0.0102-0.0527 0.0155-0.78505 0.23598-1.6075 0.47426-2.4283 0.70797-3.3313 0.94845-6.6181 1.8241-7.1107 2.189-2e-3 0.1057-4e-3 0.21069-6e-3 0.31626-0.0244 1.2618-0.0497 2.5163-0.0822 3.7961-3e-3 0.12796-6e-3 0.25387-9e-3 0.3824-0.11877 4.4745-0.33822 9.3396-1.0294 16.243-0.35784 3.574 0.18684 7.4452 5.8286 7.1091 3.5852 0.42344 7.3804 1.0318 7.1091-5.826 1.1827-11.94-0.58136 3.8234 2.6784-26.835zm-15.907 5.1883-14.711 3.8571c-8e-3 2e-3 -0.0165 4e-3 -0.0243 5e-3 -0.45857 0.0985-1.0023 0.19841-1.6108 0.30022-8e-3 1e-3 -0.0171 3e-3 -0.0253 4e-3 -0.61542 0.10273-1.2919 0.20716-2.005 0.31366-6.906 0.55195-20.481 3.0074-24.209 3.9176v5.3e-4c0 0.76335 8.9157 3.9938-1.4805 11.606-2.8966 2.1208 1.5899 6.9425 5.1113 7.6409 3.3644 0.66762 6.6371-1.392 7.5313-4.6483 0.42889 2.9807 2.8968 5.3554 6.0213 5.5542 3.5822 0.22728 6.6704-2.4919 6.8983-6.074 0.50234-7.8974 2.6235-13.363 3.793-18.619-0.76375 4.8967-0.59444 9.143-1.4025 17.3-0.35391 3.5727 2.2554 6.7555 5.8281 7.1091 3.5726 0.35404 6.756-2.2554 7.1096-5.8281 0.0925-11.622 2.2906-16.042 3.1755-22.439zm-118.5 24.005c0.88082 0.91182-1.4911 6.9234 10.144 6.5895 3.4078-0.21674 4.1193-3.3816 3.9842-6.7732 3.5788 7.4921 9.7578 8.3454 13.908 0.96667 0 0-0.11443 0.3919 0.19638 0.47802 1.2235 2.677 4.1624 4.2662 7.1753 3.6685 3.5214-0.69835 1.3114-7.0299 0.61288-10.551-1.2018-6.0582 5.9996-5.989 5.7618-9.6253 0 0-13.814-0.0488-17.062-0.77874 0 0-9.8505-1.0298-13.099-1.7597-3.7366-0.45863-24.388-3.663-27.234-4.104 1.5919 6.4037 1.6731 14.645 1.7975 22.096 0.1703 10.201 12.135 5.249 13.816-0.20652z" color="#000000" fill="#ff8080" stroke="#000" stroke-linecap="round" stroke-linejoin="round" stroke-width="2"/>
    <path id="path84375-4-3-41-4-66" d="m696.46 576.37c1.0612 3.0517-10.212 1.7448-13.537 1.2317" fill="none" opacity=".1" stroke="#000" stroke-width="1.0806"/>
    <path id="path84375-4-3-41-4-309" d="m707.14 585.35c0.90881 3.0517-8.7457 1.7448-11.593 1.2317" fill="none" opacity=".1" stroke="#000"/>
    <path id="path84375-4-3-41-4-1" d="m706.12 589.78c1.0305 2.9992-9.9165 1.7148-13.145 1.2105" fill="none" opacity=".1" stroke="#000" stroke-width="1.0556"/>
    <path id="path84375-4-3-41-4-7" d="m687.17 617.43c1.0406 0.54811-9.3297-0.58157-12.295 1.1381" fill="none" opacity=".1" stroke="#000"/>
    <path id="path84375-4-3-41-4-30" d="m686.77 621.37c1.433-0.46828-9.3875-0.68086-12.575 1.0914" fill="none" opacity=".1" stroke="#000"/>
    <path id="path84375-4-3-354" d="m376.7 605.95c0.84253 4.6016-11.434 6.6407-12.716 7.312" fill="none" opacity=".1" stroke="#000"/>
    <path id="path84375-4-3-9-03" d="m377.66 611.45c0.0718 3.1251-11.238 0.9654-12.298 3.7425" fill="none" opacity=".1" stroke="#000"/>
    <path id="path84375-4-3-6" d="m520.93 300.85c2.1548 1.646 4.1118 9.558 0.0699 12.424" fill="none" opacity=".1" stroke="#000"/>
    <path id="path84375-4-3-9-93" d="m524.93 300.39c2.2143 3.8392 1.658 10.683-0.32699 13.152" fill="none" opacity=".1" stroke="#000"/>
    <path id="path84375-4-3-99" d="m561.31 288.98c0.21534 2.6017-0.64701 8.7058-1.5476 11.308" fill="none" opacity=".1" stroke="#000" stroke-width="1.0969"/>
    <path id="path84375-4-3-9-0" d="m565.01 290.12c0.0707 4.0251 5e-3 7.9951-1.0387 11.572" fill="none" opacity=".1" stroke="#000" stroke-width="1.1263"/>
    <path id="path84375-4-3-4" d="m564.19 267.51c0.22037 2.1129-0.66214 7.07-1.5838 9.1829" fill="none" opacity=".1" stroke="#000"/>
    <path id="path84375-4-3-9-4" d="m568.5 267.47c-0.59954 3.5857-1.3253 7.0878-2.9554 9.9928" fill="none" opacity=".1" stroke="#000" stroke-width="1.0811"/>
    <path id="path84375-2" d="m395.91 567.15c2.1388 10.505 4.9475 15.938 4.9475 15.938" fill="none" opacity=".1" stroke="#000" stroke-width="2"/>
    <path id="path84375-54" d="m413.14 580.73c2.8497 11.034 0.43001 10.035 3.5933 20.878" fill="none" opacity=".1" stroke="#000" stroke-width="2"/>
    <path id="path84375-26" d="m424.89 574.81 2.344 9.934" fill="none" opacity=".1" stroke="#000" stroke-width="2"/>
    <path id="path84375-1" d="m437.28 582.59 4.5714 10.129" fill="none" opacity=".1" stroke="#000" stroke-width="2"/>
    <path id="path84375-24" d="m470.44 595.14c2.1297 9.1933 2.4822 18.209 3.7224 27.313" fill="none" opacity=".1" stroke="#000" stroke-width="2"/>
    <path id="path84375-3" d="m515.34 604.85 1.8991 16.107" fill="none" opacity=".1" stroke="#000" stroke-width="2"/>
    <path id="path84375-4" d="m530.46 607.1-1.2861 6.3387" fill="none" opacity=".1" stroke="#000" stroke-width="2"/>
    <path id="path84375-4-3" d="m533.57 251.85c-7.5082 0.0191-14.82 0.58113-20.795 2.1875l0.51935 1.9317c8.1268-2.1849 19.226-2.3542 29.823-1.8645 0.17018 1.9467-0.7076 6.9282-1.5513 8.8625l0.91776 0.4005c0.95901-2.1986 1.812-6.8101 1.6423-9.2134 0.73379 0.0368 1.4654 0.0755 2.1921 0.11782 0.071 3.1062-7e-3 6.1178-1.0237 8.7829l0.93585 0.35761c1.0898-2.8562 1.1565-5.9717 1.0878-9.0796 4.8544 0.29927 9.5005 0.70186 13.582 1.0718l0.18139-1.9921c-7.0039-0.63477-15.667-1.395-24.285-1.5389-1.0773-0.018-2.1536-0.0265-3.2261-0.0238z" color="#000000" opacity=".1" style="-inkscape-stroke:none"/>
    <path id="path84375-4-3-98" d="m483.61 261.26c0.87701 2.4826 1.6229 8.8843 1.4296 11.838" fill="none" opacity=".1" stroke="#000" stroke-width="1.128"/>
    <path id="path84375-4-3-9-2" d="m486.7 260.26c1.059 3.7767 1.9744 7.5585 1.8625 11.378" fill="none" opacity=".1" stroke="#000" stroke-width="1.128"/>
    <path id="path84375-30" d="m667.28 580.36-2.6288 16.811 1.9746 0.3085 0.39378-2.5177c1.5162 0.26461 4.5017 0.68633 7.1045 0.69557 1.3558 5e-3 2.5991-0.0906 3.5331-0.42995 0.46699-0.16971 0.87323-0.40474 1.1426-0.78137 0.26932-0.37661 1.3653-1.353 1.2185-1.8459l-0.95911 0.28525c0.0804 0.27009 0.0489 0.38172-0.047 0.51573-0.0958 0.13404-1.3422 0.75787-1.6971 0.88678-0.70959 0.25783-1.8873 0.37356-3.1874 0.36896-2.5048-9e-3 -5.4867-0.42746-6.9536-0.68369l2.0805-13.305z" color="#000000" opacity=".1" style="-inkscape-stroke:none"/>
    <path id="path84375-27" d="m681.5 581.71-1.5046 7.7262" fill="none" opacity=".1" stroke="#000" stroke-width="2"/>
    <path id="path84375-18" d="m730.08 518.07-6.4296 16.334" fill="none" opacity=".1" stroke="#000" stroke-width="2"/>
    <path id="path84375-7" d="m719.99 374.04-1.4645 1.3617c12.326 13.264 26.627 44.395 32.037 64.869l1.9337-0.5116c-2.9102-11.015-8.2409-24.893-14.518-37.572 1.2818-1.0002 2.9817-2.4197 4.3563-3.8442 0.94147-0.97565 1.7336-1.9387 2.1348-2.8479 0.20055-0.45458 0.31247-0.90977 0.22685-1.3648-0.0856-0.455-0.4082-0.86315-0.86558-1.0981l-0.45683 0.88884c0.25069 0.12877 0.30959 0.23082 0.34004 0.39275 0.0305 0.16192-8e-3 0.43182-0.1602 0.77721-0.30475 0.69075-1.0351 1.6229-1.9379 2.5585-1.263 1.3088-2.8562 2.65-4.0943 3.6246-0.56404-1.1257-1.1345-2.2418-1.712-3.344 1.4248-0.72268 3.2558-1.73 4.7987-2.7983 1.1147-0.77186 2.0787-1.5618 2.6505-2.3745 0.28588-0.4064 0.48504-0.83206 0.49041-1.295 5e-3 -0.46296-0.23067-0.92622-0.63304-1.2464l-0.6232 0.7834c0.2205 0.1755 0.2582 0.28639 0.2563 0.45115-3e-3 0.16475-0.0918 0.42195-0.30904 0.73069-0.43442 0.61749-1.333 1.3884-2.4019 2.1286-1.4848 1.0282-3.295 2.0241-4.6958 2.7357-4.904-9.2444-10.23-17.494-15.352-23.005z" color="#000000" opacity=".1" style="-inkscape-stroke:none"/>
    <path id="path84375-6" d="m685.71 338.07-0.18966 0.98238c0.24646 0.0476 0.38627 0.15785 0.52348 0.41031 0.13722 0.25244 0.23313 0.65254 0.25011 1.1482 0.034 0.99145-0.2327 2.3445-0.71106 3.6546-0.47837 1.3101-1.168 2.5849-1.9255 3.4628-0.75747 0.87794-1.5287 1.3067-2.1994 1.201l-0.0377 0.2408c-3.1426-2.822-6.0877-5.3612-8.5891-7.3892l-1.2599 1.5549c9.0254 7.3176 24.193 21.686 33.123 31.584 0.13333 1.047 0.0312 0.5918 0.13333 1.047 0.0509 0.23945 0.0198 0.5684-0.11732 0.96324-0.27459 0.78968-0.96332 1.796-1.8516 2.7538-0.88823 0.95779-1.9715 1.879-3.0096 2.5662s-2.052 1.1279-2.6799 1.1855l0.092 0.99631c0.95086-0.0872 2.0259-0.61312 3.1388-1.3498 1.113-0.73667 2.2455-1.6985 3.1915-2.7187 0.9461-1.0202 1.7107-2.0863 2.0645-3.1037 0.12155-0.34954 0.19529-0.6985 0.19637-1.0403 1.4479 1.6436 2.6987 3.1421 3.6726 4.4251l1.5937-1.2087c-5.4064-7.1214-18.175-19.856-28.906-29.551 0.81436-0.18217 1.5607-0.76025 2.2004-1.5017 0.87117-1.0098 1.5974-2.3732 2.1094-3.7755 0.51207-1.4023 0.81034-2.8366 0.76946-4.0292-0.0204-0.59627-0.12234-1.1379-0.36896-1.5916s-0.67572-0.81253-1.2128-0.91623z" color="#000000" opacity=".1" style="-inkscape-stroke:none"/>
    <path id="path84375-63" d="m672.65 314.01-1.0821 1.6816c8.7412 5.6185 19.943 14.839 26.311 21.697l1.465-1.3612c-2.6471-2.8509-6.056-6.0553-9.7668-9.2408 0.39616-0.20637 0.7925-0.49022 1.1906-0.8196 0.79076-0.6542 1.5662-1.513 2.1777-2.4319 0.6115-0.91892 1.0661-1.8928 1.1601-2.8262 0.094-0.93334-0.27101-1.8867-1.1973-2.3688l-0.46252 0.88675c0.58991 0.30708 0.73292 0.7144 0.66561 1.3829-0.0673 0.66844-0.44402 1.5386-0.99788 2.3709-0.55388 0.83235-1.2772 1.6336-1.9823 2.2169-0.51406 0.42529-1.03 0.72001-1.4134 0.8563-5.2516-4.4484-11.026-8.8032-16.067-12.044z" color="#000000" opacity=".1" style="-inkscape-stroke:none"/>
    <path id="path84375-8" d="m650.41 288.28c-4.4758-2.8564-11.147-6.4559-11.147-6.4559" fill="none" opacity=".1" stroke="#000" stroke-width="2"/>
    <path id="path84375-52" d="m388.91 354.99c-3.182 2.1885-6.3108 6.5904-9.4511 12.199-3.1403 5.6089-6.2358 12.429-9.0527 19.405-1.6261 4.0268-3.1534 8.0955-4.5439 12.015-0.14566-0.11972-0.30388-0.23397-0.47181-0.34673-0.94528-0.63476-2.2334-1.1972-3.545-1.7699-1.3116-0.57264-2.6445-1.1535-3.6168-1.7575-0.48617-0.30202-0.87818-0.60944-1.1328-0.90072s-0.36539-0.54425-0.37103-0.78912l-1.0005 0.0217c0.0124 0.53641 0.2621 1.019 0.61754 1.4257 0.35547 0.40672 0.82238 0.75854 1.3591 1.0919 1.0734 0.6668 2.4347 1.2523 3.7445 1.8242 1.3098 0.57189 2.5708 1.1346 3.3884 1.6836 0.2799 0.18796 0.50432 0.37518 0.66249 0.5452-0.40016 1.1402-0.78256 2.2586-1.1565 3.3641-0.16939-0.15036-0.3583-0.29665-0.5643-0.44285-0.90805-0.64461-2.1527-1.2803-3.4241-1.9177-1.2714-0.63738-2.5675-1.2725-3.5352-1.8614-0.48384-0.29446-0.88455-0.57865-1.1482-0.82632-0.26371-0.24768-0.36049-0.45077-0.36743-0.51729l-0.99581 0.10337c0.0482 0.46173 0.32869 0.815 0.67749 1.1426 0.34878 0.32759 0.79598 0.63699 1.3126 0.95137 1.0332 0.62878 2.345 1.2661 3.6096 1.9002 1.2646 0.63403 2.4855 1.2687 3.2928 1.8417 0.35645 0.25302 0.6278 0.49655 0.78393 0.69091-2.4781 7.4153-4.3106 13.844-5.116 17.688l1.957 0.40978c1.2034-5.7436 4.9457-18.016 9.7271-30.459 1.7784 0.70247 4.224 1.7845 6.1619 2.9259 1.0501 0.61852 1.9521 1.2604 2.498 1.8283 0.27294 0.28398 0.4523 0.54734 0.53276 0.75189 0.0805 0.20458 0.0777 0.32607 0.0196 0.45889l0.91623 0.4005c0.17272-0.39547 0.14562-0.83923-6e-3 -1.2247-0.15166-0.38553-0.41158-0.73623-0.74208-1.0801-0.66095-0.68763-1.6185-1.3523-2.7109-1.9957-2.0163-1.1876-4.4908-2.2807-6.304-2.9962 0.39455-1.0163 0.7865-2.0328 1.1937-3.0458 1.4995 0.52975 4.1048 1.3135 6.3252 2.2722 1.2269 0.52983 2.3302 1.1155 3.0138 1.6893 0.34179 0.28691 0.57177 0.56866 0.68162 0.80512 0.10986 0.23643 0.12243 0.41124 0.0372 0.63458l0.93536 0.35555c0.17968-0.47096 0.13592-0.98089-0.0646-1.4123-0.20047-0.43143-0.53469-0.80195-0.94723-1.1483-0.8251-0.69262-1.9893-1.2952-3.2598-1.8438-2.2728-0.98145-4.9038-1.7779-6.3438-2.281 2.736-6.7315 5.7217-13.283 8.7168-18.633 3.0762-5.4944 6.2126-9.7202 8.8403-11.527z" color="#000000" opacity=".1" style="-inkscape-stroke:none"/>
    <path id="path107162-3" d="m590.62 325.95c9.1276 3.5299 13.484-7.3666 8.0295-9.7896l-0.59063-1.4552c4.8794-1.6124 8.4849-2.8756 6.5357-10.186 0 0-1.4515-0.98202-0.75942-0.92604 4.1883 0.33872 7.3066-9.4916 4.4606-10.054 1.3392-3.7228 8.3931-6.5766 2.3377-11.707 4.135-2.6354 4.4567-5.5298 3.5007-9.154 3.6804-1.1885 4.2369-3.3627 2.7453-8.0111 3.0945 1.3768 7.0903 0.75354 7.8168 8.8596l1.5188 0.39687c2.5056-4.5964 7.5701-5.9248 14.544-2.5764-8.5873 1.445-3.9541 7.4524-1.4917 10.483-5.4103-0.25334-11.233 2.2037-7.1865 7.9137l3.6704 2.4686c-7.4602-0.3504-8.2383 5.3536-6.9784 9.6063-0.2136-0.0147 3.2537 3.6755 5.8488 3.8544-2.9177 3.1757-15.53-1.2245-9.0825 7.5129l5.9219 2.9382c-6.9129 1.7471-12.583 4.1013-10.309 10.319l4.8948 1.8521c-11.358 0.67262 0.70341 13.9-5.3358 11.509-3.0461-1.2095-12.709-7.1379-15.491-6.9654-3.1781 0.19704-11.125-4.8258-14.6-6.8892z" opacity=".1"/>
    <path id="path107162-1" d="m601.37 330.58c7.1553 3.5299 11.817-6.9697 7.5406-9.3927l-1.5875-1.4552c3.8251-1.6124 7.788-1.8533 6.26-9.1641 0 0-2.1062-2.5997-1.5637-2.5437 3.2833 0.33872 6.8613-10.219 4.6302-10.782 1.0498-3.7228 7.2367-6.4155 2.4897-11.545 3.2415-2.6354 2.3015-5.1317 1.5521-8.7559 2.8852-1.1885 4.4697-2.4007 3.3004-7.0491 2.4258 1.3768 0.13428-4.472 0.70375 3.6341l1.1906 0.39687c-0.20401 2.3583 0.1421 3.5711 0.92604 4.9609-2.219 3.1862-3.6676 4.2899-0.49507 9.9998l2.281 1.1126c-5.8482-0.3504-5.574 6.2135-4.5863 10.466-0.16745-0.0147-0.0939 0.732 1.9405 0.91091-3.3456 0.52986-9.4206 1.8843-4.3664 10.622l1.3237 0.82151c-5.4192 1.7471-7.0086 5.4242-5.2255 11.642-4.9628 5.1705-5.2538 4.6397-5.887 9.4588-2.3879-1.2095-0.18845-1.2509-2.3691-1.0784-2.4914 0.19704-5.3341-0.19556-8.0581-2.259z" opacity=".49594"/>
    <path id="path40728" d="m603.25 331.63c6.8417-0.54003 9.9893-8.0615 4.4222-11.247-17.659-10.024-31.227-16.736-52.328-20.447s-59.942 3.83-73.335 8.0338" fill="none" stroke="#000" stroke-linecap="round" stroke-linejoin="round" stroke-width="2"/>
    <path id="path40730" d="m382.43 535.5s4.835 16.75 6.1206 25.225c0.86653 5.7126 5.1088 6.8056 8.4667 5.8208s5.4747-3.9296 4.7724-8.7387" fill="none" stroke="#000" stroke-linecap="round" stroke-linejoin="round" stroke-width="2"/>
    <path id="path40732" d="m442.57 323.31c-9.3205 5.7461-17.694 12.597-25.52 20.087" fill="none" stroke="#000" stroke-linecap="round" stroke-linejoin="round" stroke-width="2"/>
    <path id="path40734" d="m389.48 355.81c22.448-33.015 62.362-50.009 95.237-58.887 25.866-7.6847 55.404-11.231 76.61-7.9203 17.889 4.0055 37.862 9.7125 52.255 21.564 2.7542 3.3266-0.40163 7.0332-2.3812 7.8383" fill="none" stroke="#000" stroke-linecap="round" stroke-linejoin="round" stroke-width="2"/>
    <path id="path40738" d="m617.97 295.98s2.1579-2.6298 2.3812-4.2333c0.31287-2.2458 0.33421-4.7496-1.5875-5.9531-8.2314-5.1552-22.115-10.419-22.115-10.419s-31.273-10.008-47.494-11.089c-16.399-1.0931-32.934 1.6616-49.079 4.7388-11.27 2.1479-33.073 9.525-33.073 9.525" fill="none" stroke="#000" stroke-linecap="round" stroke-linejoin="round" stroke-width="2"/>
    <path id="path40740" d="m619.14 285.69v0s2.4159-2.6506 2.712-4.4979c0.28293-1.765 0.15099-3.3109-1.0276-4.6548-3.0873-3.5204-7.5454-5.4323-11.739-7.516-11.164-5.5478-23.432-8.6084-35.454-11.906-4.1538-1.1394-12.634-2.712-12.634-2.712" fill="none" stroke="#000" stroke-linecap="round" stroke-linejoin="round" stroke-width="2"/>
    <path id="path40744" d="m610.84 307.95c4.431-0.74729 11.878-8.158 1.9963-12.599-13.852-6.5614-26.513-12.283-41.487-15.974-13.273-3.1741-27.057-3.8663-40.699-3.389s-41.748 6.8673-41.748 6.8673" fill="none" stroke="#000" stroke-linecap="round" stroke-linejoin="round" stroke-width="2"/>
    <path id="path54811" d="m426.91 296.39c-61.864 39.876-73.492 84.406-77.516 115.12" fill="none" stroke="#000" stroke-linecap="round" stroke-linejoin="round" stroke-width="2"/>
    <path id="path54813" d="m391.6 339.14c-35.79 36.767-45.507 78.097-53.601 119.71" fill="none" stroke="#000" stroke-linecap="round" stroke-linejoin="round" stroke-width="2"/>
    <path id="path54815" d="m359.85 421.95s-10.182 39.364-11.642 59.531c-1.4404 19.903 2.9104 59.796 2.9104 59.796l3.5057 28.906" fill="none" stroke="#000" stroke-linecap="round" stroke-linejoin="round" stroke-width="2"/>
    <path id="path54817" d="m361.57 492.6c0.65951 25.059 2.282 50.792 7.2467 74.051l10.127 47.445" fill="none" stroke="#000" stroke-linecap="round" stroke-linejoin="round" stroke-width="2"/>
    <path id="path54819" d="m364.98 543.46c5.3986 21.213 18.614 47.481 27.257 68.305" fill="none" stroke="#000" stroke-linecap="round" stroke-linejoin="round" stroke-width="2"/>
    <path id="path54821" d="m373.09 520.29 12.159 47.983 11.906 32.808c0.50319 2.6456 0.68625 5.1997-0.54022 7.3511" fill="none" stroke="#000" stroke-linecap="round" stroke-linejoin="round" stroke-width="2"/>
    <path id="path54823" d="m400.86 583.09 7.9642 37.55" fill="none" stroke="#000" stroke-linecap="round" stroke-linejoin="round" stroke-width="2"/>
    <path id="path54825" d="m416.73 601.61 5.0584 23.714" fill="none" stroke="#000" stroke-linecap="round" stroke-linejoin="round" stroke-width="2"/>
    <path id="path54827" d="m427.24 584.75s1.2951 15.201 2.7246 22.68c1.0799 5.65 4.4058 16.685 4.4058 16.685" fill="none" stroke="#000" stroke-linecap="round" stroke-linejoin="round" stroke-width="2"/>
    <path id="path54829" d="m445.97 627.54c-3.1287-2.6716-2.221-7.3921-0.65781-13.34 1.9665-7.4823-2.739-17.822-3.4587-21.479" fill="none" stroke="#000" stroke-linecap="round" stroke-linejoin="round" stroke-width="2"/>
    <path id="path54833" d="m337.54 478.2 5.4449 36.745" fill="none" stroke="#000" stroke-linecap="round" stroke-linejoin="round" stroke-width="2"/>
    <path id="path54835" d="m412.03 291.22c-43.465 28.703-61.38 68.346-70.758 100.33" fill="none" stroke="#000" stroke-linecap="round" stroke-linejoin="round" stroke-width="2"/>
    <path id="path54837" d="m513.04 255c-24.544 3.5122-46.296 10.891-67.64 18.834" fill="none" stroke="#000" stroke-linecap="round" stroke-linejoin="round" stroke-width="2"/>
    <path id="path62922" d="m471.74 601.94 2.4244 20.518" fill="none" stroke="#000" stroke-linecap="round" stroke-linejoin="round" stroke-width="2"/>
    <path id="path62922-2" d="m504.35 608.08c-0.11251 3.5386 0.18106 11.645-0.89701 16.01" fill="none" stroke="#000" stroke-linecap="round" stroke-linejoin="round" stroke-width="2"/>
    <path id="path62924" d="m455.28 595.58c0.46773 6.7352 2.8564 9.7563 3.4612 14.78 0.50207 4.171 0.12049 12.603 0.12049 12.603" fill="none" stroke="#000" stroke-linecap="round" stroke-linejoin="round" stroke-width="2"/>
    <path id="path62926" d="m517.85 622.45c-0.83336-2.8838-1.7113-5.723-1.8606-9.2909" fill="none" stroke="#000" stroke-linecap="round" stroke-linejoin="round" stroke-width="2"/>
    <path id="path62928" d="m531.95 623.9c-1.1008-3.3227-3.7116-5.2515-2.7749-10.455" fill="none" stroke="#000" stroke-linecap="round" stroke-linejoin="round" stroke-width="2"/>
    <path id="path67380" d="m730.36 494.83c1.2032 28.559-4.1338 57.117-7.4885 85.676" fill="none" stroke="#000" stroke-linecap="round" stroke-linejoin="round" stroke-width="2"/>
    <path id="path67382" d="m611.79 333.91c-0.29241-3.5305 2.7578-10.41 7.449-8.3723 22.092 9.597 39.261 22.113 43.231 25.47s51.64 38.395 67.129 83.156c8.6905 25.114 13.945 51.958 12.873 78.511-1.0894 26.987-5.2179 55.66-8.4245 83.661-1.0672 9.3196-2.9829 27.983-2.9829 27.983" fill="none" stroke="#000" stroke-linecap="round" stroke-linejoin="round" stroke-width="2"/>
    <path id="path67384" d="m735.02 622.29s5.0122-35.227 7.9961-52.625c2.9838-17.398 6.6608-26.378 8.419-44.995 1.7582-18.617 2.6808-43.943-1.4032-63.142-4.084-19.2-12.66-41.281-20.299-53.694s-19.412-27.789-19.412-27.789" fill="none" stroke="#000" stroke-linecap="round" stroke-linejoin="round" stroke-width="2"/>
    <path id="path67386" d="m617.68 324.46c-2.1307-5.4217-0.50994-14.046 8.9958-10.451 12.969 4.9054 16.852 8.3672 45.526 28.557" fill="none" stroke="#000" stroke-linecap="round" stroke-linejoin="round" stroke-width="2"/>
    <path id="path67388" d="m621.58 311.99c-4.8846-9.11 4.3664-10.622 6.7299-9.571 39.9 15.936 65.833 40.869 90.946 72.297" fill="none" stroke="#000" stroke-linecap="round" stroke-linejoin="round" stroke-width="2"/>
    <path id="path67392" d="m751.53 440.01c7.5969 27.919 5.1017 58.805 1.2161 78.764-4.3311 22.248-7.5145 66.737-7.5145 66.737" fill="none" stroke="#000" stroke-linecap="round" stroke-linejoin="round" stroke-width="2"/>
    <path id="path67394" d="m624.01 300.46c-2.5451-6.3718 0.74271-13.978 8.7535-9.6063l39.35 23.996" fill="none" stroke="#000" stroke-linecap="round" stroke-linejoin="round" stroke-width="2"/>
    <path id="path67396" d="m698.62 336.71c25.5 27.189 50.432 51.75 59.746 96.476" fill="none" stroke="#000" stroke-linecap="round" stroke-linejoin="round" stroke-width="2"/>
    <path id="path67398" d="m639.26 281.83c-5.0459-3.0122-6.4923-4.8592-11.392-3.0025-5.0176 1.9013-2.8348 8.8579-1.5569 10.056" fill="none" stroke="#000" stroke-linecap="round" stroke-linejoin="round" stroke-width="2"/>
    <path id="path67400" d="m650.41 288.28c52.842 28.929 70.486 62.514 94.228 94.119" fill="none" stroke="#000" stroke-linecap="round" stroke-linejoin="round" stroke-width="2"/>
    <path id="path67402" d="m627.19 272.05c-0.64938 1.1843-1.2939 3.309-0.66861 6.0885" fill="none" stroke="#000" stroke-linecap="round" stroke-linejoin="round" stroke-width="2"/>
    <path id="path79988" d="m704.58 599.02c5.5918-23.834 12.485-43.766 19.071-64.616" fill="none" stroke="#000" stroke-linecap="round" stroke-linejoin="round" stroke-width="2"/>
    <path id="path79990" d="m692.45 593.77c-3.22 10.288-5.0832 20.383-5.8344 30.318" fill="none" stroke="#000" stroke-linecap="round" stroke-linejoin="round" stroke-width="2"/>
    <path id="path79992" d="m674.2 622.46c0.83228-2.5776 0.91741 0.57294 5.796-33.026" fill="none" stroke="#000" stroke-linecap="round" stroke-linejoin="round" stroke-width="2"/>
    <path id="path79994" d="m662.59 625.89c2.2177-2.3142-0.94322-19.159 3.0488-28.569" fill="none" stroke="#000" stroke-linecap="round" stroke-linejoin="round" stroke-width="2"/>
    <path id="path79996" d="m589.26 624.53c2.1385-2.8935 5.1742-14.431 5.3773-17.482" fill="none" stroke="#000" stroke-linecap="round" stroke-linejoin="round" stroke-width="2"/>
    <path id="path84369" d="m482.01 307.97c-15.192 2.8122-26.894 9.5503-39.436 15.343" fill="none" opacity=".1" stroke="#000" stroke-width="2"/>
    <path id="path84371" d="m466.73 277.59c-16.203 4.6372-27.471 11.722-40.252 17.898l0.87124 1.8009c11.016-5.3227 20.723-11.189 33.231-15.627l-4e-3 6e-3c0.92805 0.68921 1.6782 2.5238 1.9906 4.4416 0.24075 1.478 0.22596 3.0147 0.0351 4.0354-44.507 15.909-52.474 30.322-71.686 48.265l1.3653 1.463c14.743-13.769 22.575-25.161 44.869-36.745 0.15732 0.39182 0.35983 0.81372 0.58806 1.2717 0.47445 0.95216 1.0682 2.0256 1.6211 3.0918 0.5529 1.0662 1.0642 2.1268 1.373 3.0194s0.36597 1.6063 0.2367 1.9027l0.91569 0.39997c0.3315-0.76001 0.13325-1.6485-0.20672-2.6308-0.33993-0.98238-0.871-2.0706-1.432-3.1522-0.56094-1.0817-1.1514-2.155-1.6113-3.0778-0.23847-0.47855-0.43783-0.9249-0.58033-1.2955 1.1128-0.56843 2.264-1.137 3.4504-1.7069 1.0366 0.95298 2.1136 2.6068 2.8174 4.3326 0.78404 1.9226 1.0838 3.9404 0.6408 5.1015l0.93326 0.35708c0.61661-1.616 0.18926-3.7847-0.64802-5.8379-0.69024-1.6926-1.6739-3.3018-2.7714-4.409 11.406-5.3899 26.244-10.862 46.699-16.675l-0.54674-1.9234c-7.8036 2.2175-14.798 4.3922-21.116 6.5376 0.46469-1.1328 0.70932-2.4886 0.65424-3.8153-0.0443-1.0674-0.29396-2.1202-0.84543-3.0019-0.41555-0.66434-1.0117-1.2234-1.7854-1.5875 0.5757-0.17489 1.1556-0.34729 1.7441-0.51573zm-2.7404 2.9285c0.37462 0.32506 2.0603 0.99793 2.4841 1.6299 0.43199 0.69057 0.65665 1.5747 0.69557 2.512 0.0633 1.5259-0.39111 3.1793-1.018 4.2385-0.83206 0.28649-1.6517 0.57237-2.4598 0.85783 0.13896-1.1206 0.0793-2.466-0.13954-3.8096-0.29215-1.7936-0.86178-3.5714-1.9043-4.6597 0.76658-0.2635 1.5528-0.51692 2.342-0.76893z" color="#000000" opacity=".1" style="-inkscape-stroke:none"/>
    <path id="path84375" d="m445.4 273.84c-11.62 4.552-22.418 11.156-33.367 17.385" fill="none" opacity=".1" stroke="#000" stroke-width="2"/>
    <circle id="path91358" cx="418.23" cy="343.29" r=".18837" fill="#fff" stroke="#000" stroke-width=".26458"/>
    <circle id="path91360" cx="418.23" cy="343.29" r=".18837" fill="#fff" stroke="#000" stroke-width=".26458"/>
    <path id="path84375-4-3-3" d="m496.85 248.66c0.79902 1.9684 1.3293 6.9755 1.0313 9.2613" fill="none" opacity=".1" stroke="#000"/>
    <path id="path84375-4-3-9-8" d="m500 248.02c0.93767 2.982 1.7303 5.9614 1.4844 8.9236" fill="none" opacity=".1" stroke="#000"/>
    <path id="path84375-4-3-2" d="m582.97 251.37c0.22037 2.1129-0.66214 7.07-1.5838 9.1829" fill="none" opacity=".1" stroke="#000"/>
    <path id="path84375-4-3-9-23" d="m587.11 252.03c0.0718 3.1251 5e-3 6.2074-1.0546 8.9845" fill="none" opacity=".1" stroke="#000"/>
    <path id="path84375-4-3-8" d="m583.96 308.52c0.22037 2.1129-0.99287 10.973-1.9145 13.086" fill="none" opacity=".1" stroke="#000"/>
    <path id="path84375-4-3-9-9" d="m586.78 309.91c0.0718 3.1251 0.60032 11.102-0.45928 13.879" fill="none" opacity=".1" stroke="#000"/>
    <path id="path84375-4-3-7" d="m419.71 341.8c1.7171 0.99036 9.8881 3.6635 7.2467 10.241" fill="none" opacity=".1" stroke="#000"/>
    <path id="path84375-4-3-9-7" d="m423.68 338.23c1.9427 2.1429 10.258 3.0985 8.4043 9.3152" fill="none" opacity=".1" stroke="#000"/>
    <path id="path84375-4-3-0" d="m402.46 298.8c0.22037 2.1129 7.3415 8.2607 6.4199 10.374" fill="none" opacity=".1" stroke="#000"/>
    <path id="path84375-4-3-9-5" d="m405.2 296.42c3.1145 2.4636 7.4795 8.5886 6.4199 11.366" fill="none" opacity=".1" stroke="#000"/>
    <path id="path84375-4-3-33" d="m389.89 308.66c0.85037 0.9789 7.9177 7.2632 5.8907 11.366" fill="none" opacity=".1" stroke="#000"/>
    <path id="path84375-4-3-9-1" d="m392.84 306.61c2.5853 1.8683 7.7441 7.0673 6.6845 9.8444" fill="none" opacity=".1" stroke="#000"/>
    <path id="path84375-4-3-88" d="m373.08 310.03c3.2138 0.61618 8.5988 6.2282 7.6771 8.341" fill="none" opacity=".1" stroke="#000"/>
    <path id="path84375-4-3-9-12" d="m377.22 305.9c4.5619 1.4413 6.8337 6.8622 5.7741 9.6393" fill="none" opacity=".1" stroke="#000"/>
    <path id="path84375-4-3-20" d="m358.14 429.81c2.9324 0.19466 12.435 1.1169 11.513 3.2298" fill="none" opacity=".1" stroke="#000"/>
    <path id="path84375-4-3-9-6" d="m357.84 432.39c3.0484 0.14852 12.11 0.78343 11.05 3.5605" fill="none" opacity=".1" stroke="#000"/>
    <path id="path84375-4-3-68" d="m338.21 412.43c1.411-2.848 11.839-0.0737 10.918 2.0392" fill="none" opacity=".1" stroke="#000"/>
    <path id="path84375-4-3-9-02" d="m337.84 415.27c2.5192-1.1744 11.184-1.3994 10.124 1.3777" fill="none" opacity=".1" stroke="#000"/>
    <path id="path84375-4-3-06" d="m334.7 449.16c0.22037 2.1129-11.973-1.132-12.895 0.98086" fill="none" opacity=".1" stroke="#000"/>
    <path id="path84375-4-3-9-97" d="m334.8 454.19c-4.0292-0.84367-10.777-0.80407-11.836 1.973" fill="none" opacity=".1" stroke="#000"/>
    <path id="path84375-4-3-32" d="m382.97 451.52c0.22037 2.1129 14.684 1.2492 13.762 3.3621" fill="none" opacity=".1" stroke="#000"/>
    <path id="path84375-4-3-9-3" d="m384.06 446.49c2.7176-1.6374 14.292-1.8624 13.233 0.9147" fill="none" opacity=".1" stroke="#000"/>
    <path id="path84375-4-3-982" d="m349.64 469.71c0.22037 2.1129-10.716-1.9919-11.638 0.12096" fill="none" opacity=".1" stroke="#000"/>
    <path id="path84375-4-3-9-86" d="m348.41 472.75c0.0718 3.1251-10.711-1.1348-11.77 1.6423" fill="none" opacity=".1" stroke="#000"/>
    <path id="path84375-4-3-980" d="m341.34 503.42c-2.8127 7.6438-12.861 6.788-12.809 7.125" fill="none" opacity=".1" stroke="#000"/>
    <path id="path84375-4-3-9-47" d="m342.02 508.83c0.0718 3.1251-9.6301 5.6461-12.093 6.0846" fill="none" opacity=".1" stroke="#000"/>
    <path id="path84375-4-3-07" d="m362.29 508.66c0.22037 2.1129-10.578 3.4218-13.745 1.6994" fill="none" opacity=".1" stroke="#000"/>
    <path id="path84375-4-3-9-57" d="m362.04 513.7c0.0718 3.1251-11.782-1.1826-12.841 1.5945" fill="none" opacity=".1" stroke="#000"/>
    <path id="path84375-4-3-93" d="m392.98 506.89c0.22037 2.1129-9.923 3.3283-12.341 1.0446" fill="none" opacity=".1" stroke="#000"/>
    <path id="path84375-4-3-9-41" d="m392.82 512.2c0.0718 3.1251-10.004 0.0335-11.999 0.28486" fill="none" opacity=".1" stroke="#000"/>
    <path id="path84375-4-3-69" d="m398.87 550.2c0.22037 2.1129-10.845 4.5993-10.845 4.5993" fill="none" opacity=".1" stroke="#000"/>
    <path id="path84375-4-3-9-24" d="m399.74 552.71c0.0718 3.1251-7.9463 6.8622-11.344 6.1782" fill="none" opacity=".1" stroke="#000"/>
    <path id="path84375-4-3-25" d="m377.54 539.53c0.5208 2.9541-10.756 4.2859-12.561 3.9256" fill="none" opacity=".1" stroke="#000"/>
    <path id="path84375-4-3-9-59" d="m378.69 544.57c0.0718 3.1251-8.9753 4.0559-11.906 3.746" fill="none" opacity=".1" stroke="#000"/>
    <path id="path84375-4-3-41" d="m383.43 561.42c0.90881 3.0517-7.0619 8.5735-9.9092 8.0604" fill="none" opacity=".1" stroke="#000"/>
    <path id="path84375-4-3-9-00" d="m385.25 568.27c0.0718 3.1251-7.766 3.7408-8.8256 6.518" fill="none" opacity=".1" stroke="#000"/>
    <path id="path84375-4-3-26" d="m370.81 578.07c-0.55209 6.7477-12.251 8.8774-12.716 8.2475" fill="none" opacity=".1" stroke="#000"/>
    <path id="path84375-4-3-9-53" d="m372.7 586.01c0.0718 3.6723-11.875 4.5558-12.935 4.6815" fill="none" opacity=".1" stroke="#000"/>
    <path id="path84375-4-3-28" d="m349.1 547.76c0.22037 2.1129-8.9876 4.4508-12.248 4.038" fill="none" opacity=".1" stroke="#000"/>
    <path id="path84375-4-3-9-07" d="m349.69 552.52c0.0718 3.1251-10.659 0.87537-11.719 3.6525" fill="none" opacity=".1" stroke="#000"/>
    <path id="path84375-4-3-78" d="m400.77 584.98c0.22037 2.1129-6.7701 3.812-7.6917 5.9249" fill="none" opacity=".1" stroke="#000"/>
    <path id="path84375-4-3-9-972" d="m401.89 588.16c0.61983 4.2211-5.7213 4.9512-7.2285 6.833" fill="none" opacity=".1" stroke="#000"/>
    <path id="path84375-4-3-41-4" d="m417.1 605.82c0.90881 3.0517-8.7457 1.7448-11.593 1.2317" fill="none" opacity=".1" stroke="#000"/>
    <path id="path84375-4-3-41-4-6" d="m444 600.22c0.90881 3.0517-12.02 1.7448-14.867 1.2317" fill="none" opacity=".1" stroke="#000"/>
    <path id="path84375-4-3-41-4-3" d="m445.87 606.3c0.90881 3.0517-12.581 2.5867-15.428 2.0736" fill="none" opacity=".1" stroke="#000"/>
    <path id="path84375-4-3-9-00-5" d="m418.54 610.7c0.0718 3.1251-9.824 0.74744-10.884 3.5245" fill="none" opacity=".1" stroke="#000"/>
    <path id="path84375-4-3-41-4-4" d="m458.78 619.02c0.90881 3.0517-12.113-0.31321-14.961-0.8263" fill="none" opacity=".1" stroke="#000"/>
    <path id="path84375-4-3-41-4-2" d="m472.16 604.52c0.90881 3.0517-11.987-0.3719-14.834-0.88499" fill="none" opacity=".1" stroke="#000"/>
    <path id="path84375-4-3-41-4-9" d="m472.21 608.75c0.22667 3.2953-14.142-0.95826-15.297-2.0756" fill="none" opacity=".1" stroke="#000"/>
    <path id="path84375-4-3-41-4-8" d="m504.28 613.91c0.90881 3.0517-11.358 0.1242-14.206-0.38889" fill="none" opacity=".1" stroke="#000"/>
    <path id="path84375-4-3-41-4-26" d="m503.92 609.94c0.90881 3.0517-10.862 1.381-13.71 0.86788" fill="none" opacity=".1" stroke="#000"/>
    <path id="path84375-4-3-41-4-90" d="m528.86 613.88c0.90881 3.0517-8.7457 1.7448-11.593 1.2317" fill="none" opacity=".1" stroke="#000"/>
    <path id="path84375-4-3-41-4-67" d="m540.85 622.48c0.73391 3.0517-7.0626 1.7448-9.362 1.2317" fill="none" opacity=".1" stroke="#000" stroke-width=".89864"/>
    <path id="path84375-4-3-41-4-60" d="m603.96 615.84c0.90881 3.0517-8.7457 1.7448-11.593 1.2317" fill="none" opacity=".1" stroke="#000"/>
    <path id="path84375-4-3-41-4-5" d="m603.96 619.4c0.90881 3.0517-8.7457 1.7448-11.593 1.2317" fill="none" opacity=".1" stroke="#000"/>
    <path id="path84375-4-3-41-4-93" d="m619.77 606.49c0.97195 3.0517-9.3532 1.7448-12.398 1.2317" fill="none" opacity=".1" stroke="#000" stroke-width="1.0342"/>
    <path id="path84375-4-3-41-4-0" d="m635.81 616.03c1.0294 3.0517-9.9061 1.7448-13.131 1.2317" fill="none" opacity=".1" stroke="#000" stroke-width="1.0643"/>
    <path id="path84375-4-3-41-4-52" d="m635.86 611.73c1.0001 3.0517-9.6241 1.7448-12.757 1.2317" fill="none" opacity=".1" stroke="#000" stroke-width="1.049"/>
    <path id="path84375-4-3-41-4-01" d="m652.23 597.13c0.90881 3.0517-8.7457 1.7448-11.593 1.2317" fill="none" opacity=".1" stroke="#000"/>
    <path id="path84375-4-3-41-4-42" d="m651.39 600.31c0.90881 3.0517-9.494 3.4286-12.341 2.9155" fill="none" opacity=".1" stroke="#000"/>
    <path id="path84375-4-3-41-4-20" d="m663.36 608.55c0.90881 3.0517-8.7457 1.7448-11.593 1.2317" fill="none" opacity=".1" stroke="#000"/>
    <path id="path84375-4-3-41-4-68" d="m662.99 613.41c0.90881 5.6219-8.7457 2.0792-11.593 1.2317" fill="none" opacity=".1" stroke="#000"/>
    <path id="path84375-4-3-41-4-37" d="m726.41 559.62c0.90881 3.0517-8.7457 1.7448-11.593 1.2317" fill="none" opacity=".1" stroke="#000"/>
    <path id="path84375-4-3-41-4-89" d="m732.4 608.17c0.0577 3.5181-10.206 0.82793-13.183 0.29623" fill="none" opacity=".1" stroke="#000"/>
    <path id="path84375-4-3-41-4-87" d="m731.5 614.16c1.0586 3.0517-10.187 1.7448-13.503 1.2317" fill="none" opacity=".1" stroke="#000" stroke-width="1.0792"/>
    <path id="path84375-4-3-41-4-63" d="m745.12 613.04c0.90881 3.0517-6.5006 1.7448-9.348 1.2317" fill="none" opacity=".1" stroke="#000"/>
    <path id="path84375-4-3-41-4-81" d="m723.14 535.96c0.90881 3.0517-8.7457 1.7448-11.593 1.2317" fill="none" opacity=".1" stroke="#000"/>
    <path id="path84375-4-3-41-4-51" d="m739.51 542.13c0.90881 3.0517-8.7457 1.7448-11.593 1.2317" fill="none" opacity=".1" stroke="#000"/>
    <path id="path84375-4-3-41-4-17" d="m740.07 546.15c0.90881 3.0517-8.7457 1.7448-11.593 1.2317" fill="none" opacity=".1" stroke="#000"/>
    <path id="path84375-4-3-41-4-64" d="m756.44 567.86c0.90881 3.0517-7.3425 2.0254-10.19 1.5123" fill="none" opacity=".1" stroke="#000"/>
    <path id="path84375-4-3-41-4-95" d="m757.84 579.74c0.90881 3.0517-9.7631 6.2918-12.61 5.7787" fill="none" opacity=".1" stroke="#000"/>
    <path id="path84375-4-3-41-4-96" d="m756.93 575.1c4.2773 4.4746-8.6363 7.4917-11.656 7.9642" fill="none" opacity=".1" stroke="#000"/>
    <path id="path84375-4-3-41-4-76" d="m752.48 487.23c1.8604 2.5841-7.688 4.5194-10.546 4.9696" fill="none" opacity=".1" stroke="#000"/>
    <path id="path84375-4-3-41-4-44" d="m752.07 483.5c2.3454 2.1536-6.6128 5.9834-9.3203 7.0034" fill="none" opacity=".1" stroke="#000"/>
    <path id="path84375-4-3-41-4-22" d="m737.79 424.73c2.2154 2.287-6.9514 5.5866-9.7138 6.4464" fill="none" opacity=".1" stroke="#000"/>
    <path id="path84375-4-3-41-4-43" d="m741.14 376.18c3.1827 0.0947-1.0878 8.8514-2.4685 11.394" fill="none" opacity=".1" stroke="#000"/>
    <path id="path84375-4-3-41-4-78" d="m721.63 361.07c1.9962 2.4807-7.4347 4.925-10.264 5.5277" fill="none" opacity=".1" stroke="#000"/>
    <path id="path84375-4-3-41-4-53" d="m718.06 357.08c2.3201 2.1808-6.6821 5.906-9.4013 6.8943" fill="none" opacity=".1" stroke="#000"/>
    <path id="path84375-4-3-41-4-813" d="m674.93 361.5c2.7358 1.8996-5.9866 7.1655-8.6425 8.6142" fill="none" opacity=".1" stroke="#000" stroke-width="1.0467"/>
    <path id="path84375-4-3-41-4-82" d="m671.81 358.85c2.7358 1.8996-5.9866 7.1655-8.6425 8.6142" fill="none" opacity=".1" stroke="#000" stroke-width="1.0467"/>
    <path id="path84375-4-3-41-4-761" d="m663.27 310.05c2.268 1.52-4.826 5.9316-6.9879 7.1484" fill="none" opacity=".1" stroke="#000" stroke-width=".85746"/>
    <path id="path84375-4-3-41-4-958" d="m659.51 307.33c2.5476 1.5871-5.4209 6.1934-7.8493 7.4638" fill="none" opacity=".1" stroke="#000" stroke-width=".92861"/>
    <path id="path58255-9-7" d="m373.68 519.49c-1.4481 1.6319 0.0756 3.69 0.7519 5.9319 4.8858 16.184 7.4768 30.613 11.441 42.899 4.5143 13.99 10.182 25.24 11.934 33.835 0.337 1.6524-1.0942 5.0345-0.85636 6.4367 0.60092 3.5382 4.5637 11.439 8.1021 10.84 1.8527-0.31401 3.6213-1.4306 4.5783-2.8859-0.15654-3.2502 1.1303 6.4394 6.482 7.5038 4.1944 0.65855 3.8086-3.1046 4.6419-3.9249 1.1482 3.3197 4.2249 6.3069 7.8731 6.1732 2.5764-0.0944 5.3887 0.20255 5.7318-2.1892 0.13227 0.41955-0.54018-2.6939-0.39929-2.2511 1.0887 3.4212 4.7454 5.3123 8.1664 4.223 1.2357-0.39333 1.662-1.1698 2.43-2.1009 1.0683 1.1604 4.0939 2.4497 5.79 2.5873 3.5779 0.29006 6.4413-1.905 6.7316-5.4829 0.59655-7.3585 0.67501-8.5589-0.15837-14.626-0.53507-3.8956-1.7769-8.9077-2.9388-17.083-1.3731-0.50951-6.3698-2.9578-13.3-5.9242 1.6945 12.574 2.7446 20.3 3.3595 24.776 0.25313 1.843 0.42373 3.2674 0.52038 4.6044-1.7618-6.6316-2.2668-11.772-4.4752-29.995-3.1652-1.3412-7.5252-3.97-13.939-6.888 0.41085 3.3077 0.74967 6.0742 1.0832 8.7943-0.66588-3.004-1.4466-6.3322-2.3792-10.074-3.2016-1.8792-8.9524-5.7895-15.927-10.426 1.7239 6.3003 3.0949 11.734 4.2086 16.481-1.5652-5.5031-3.24-11.351-5.0152-17.515-4.9354-2.5775-4.8496-1.5e-4 -6.3305-5.403 4.0646 9.3737-10.38 11.102-12.116 7.1922-1.3151-1.141-4.222-18.778-6.8128-26.94-2.8464-8.9669-7.8174-12.944-9.1786-18.568zm327.27 38.224c-4.9681 4.4183-11.963 9.3446-16.766 12.742-1.0822 4.2318-1.9608 7.9399-2.6934 11.25 0.37335-3.0411 0.77808-6.3267 1.2459-10.073-6.5958 5.5011-11.943 7.1628-14.469 8.8785-2.3217 19.1-2.6312 24.068-4.2659 30.51 0.0986-1.2893 0.26583-2.6723 0.50851-4.439 0.65098-4.7396 1.8948-12.02 3.7574-26.071-4.4118 2.7468-11.981 5.7656-14.82 7.7106 0 0-10.663 3.5494-13.297 4.4183-2.3897 18.186-2.62 15.457-3.3781 27.375-0.22725 3.5822 2.9129 3.4436 6.495 3.6715 3.5822 0.22727 4.5656-2.6328 4.7935-6.2149 0.77806-12.232 2.2308-5.149 4.8164-24.866-0.66566 5.6158-0.80713 9.0133-1.2459 12.208-0.83341 6.0676-0.89524 9.8389-0.29869 17.197 0.29028 3.5779 2.5838 3.6239 6.1618 3.3339 1.6955-0.13756 5.9448-4.61 6.5453-6.3311 1.1892-0.0971 1.5766 5.2914 3.7412 5.8437 3.7464 0.95592 5.5288-0.58437 6.6166-4.0054 0.14166-0.44522 1.1054-2.3242 1.2383-2.7459 0.34152 2.3939 1.0792 6.0588 3.5383 6.8395 3.4216 1.0862 6.4222-2.737 7.5084-6.1586 2.6197-8.2514 3.0997-8.4176 4.1695-15.843 1.0699-7.4251 4.2669-23.919 10.098-45.231zm-245.9 32.267c2.9521 22.703 3.0119 15.321 3.823 28.073 0.22791 3.583 3.0528 7.2951 6.6357 7.0667 3.5822-0.22791 5.7722-5.0364 5.5449-8.6186-0.75224-11.826 1.7184-3.6378-0.61392-21.364 0 0-14.009-4.2958-15.39-5.1568zm183.07 3.4587c-1.3423 1.3111-13.503 4.0848-14.489 4.8147-0.11428 5.8929-0.21066 11.486-1.1271 20.737-0.35391 3.5727 2.4425 4.0427 6.0152 4.3963 3.572 0.35406 5.726-1.459 6.0806-5.0309 1.1827-11.94 2.7875-16.585 3.5198-24.917zm-167.68 1.6981c0.73089 8.3076 1.4273 11.559 2.6076 23.474 0.35362 3.5727 3.2719 6.4467 6.8446 6.0927 3.5727-0.35361 8.361-2.4413 8.007-6.014-0.93353-9.424 0.79403-11.847 0.20396-17.947-2.0244-0.31194-15.296-4.7945-17.663-5.6058zm151.77 3.4902-14.711 3.8576c-0.7639 4.8971 0.24752 6.4769-0.5606 14.635-0.35391 3.5727 2.0215 6.2883 5.5942 6.6419 3.5726 0.35404 5.8206-3.7526 6.1742-7.3253 1.0346-10.445 2.618-11.412 3.5029-17.809zm-14.711 3.8576c-3.7152 0.80257-13.311 1.7078-14.475 2.8195-1.6091 0.0367-13.793 2.1649-13.808 3.0989-0.0847 3.2506 7.6579 1.5353-1.7276 9.5731-2.7267 2.3352 4.5838 4.6039 8.1052 5.3023 3.3644 0.66763 4.3452-2.2334 5.7072-4.6478 0.80326 2.7933 3.7856 5.5893 6.91 5.788 3.5822 0.22728 4.4721-2.3989 4.7-5.981 0.50237-7.8979 3.4187-10.697 4.5882-15.953zm-121.13-2.7766c0.88344 6.3358 2.0592 9.8161 3.084 20.161 0.35362 3.5727 3.3386 5.9836 6.9112 5.6296 3.5719-0.3546 7.3347-4.6641 6.9806-8.2361-0.83452-8.4246 0.32672-8.1952-0.45152-13.197 0 0-14.398-3.7152-16.524-4.3575zm15.011 3.1393c1.1798 5.4951 2.6692 8.8993 3.2008 17.257 0.22791 3.5829 3.119 6.6337 6.7019 6.4053 3.1251-0.19876 5.5269-2.5749 5.9552-5.5562 0.89347 3.2571 3.6372 4.7882 7.0022 4.1207 3.5214-0.69837 5.5453-2.9284 4.8467-6.4498-1.0056-5.0694-0.21822-7.0263-0.5059-10.201 0.41777 3.7553 1.5596 7.2489 2.9042 14.027 1.4259 0.9417 1.7009 1.8121 7.5374 1.1797 2.8343-0.65254 1.7287-7.2054 3.8111-10.912 3.025-5.3847 3.2928-0.52854 3.055-4.1649 0 0-14.202-1.2167-17.45-1.9467 0 0-9.8508-1.0302-13.099-1.7601-3.7366-0.45863-11.113-1.5579-13.959-1.9988z" color="#000000" opacity=".28455" stroke="#000" stroke-linecap="round" style="-inkscape-stroke:none"/>
    <path id="path58255-4-4-5" d="m729.41 499.35c-2.9636 4.4727-8.0785 17.77-11.467 25.823-13.752 32.687-27.746 65.242-30.618 97.12-0.3219 3.5753 1.3893 5.2132 4.9646 5.5353 3.5753 0.32189 6.47-7.6732 6.7921-11.248 1.288-14.296 6.2712-30.61 12.303-47.471-1.2146-1.4616-13.947 62.532-7.7346 56.138 4.6613-4.7976 11.037-31.967 18.928-45.636 6.5484-25.889 4.559-52.689 7.4956-61.545-4.0061-83.361 1.8268 43.725-0.66336-18.715z" color="#000000" opacity=".16667"/>
    <path id="path59904-3-5" d="m363.01 534.87c7.7961 43.208 17.946 76.205 15.93 79.23 1.586 6.8258 12.851 17.349 14.07-2.5441 3.3874-1.1873 5.1712-4.8956 3.9844-8.2832 0 0-11.246-32.1-21.393-71.633-3.3739-13.145-7.6898-38.574-8.0708-37.663 6.2989 5.8748-5.9734-1.3579-5.9734-1.3579 0.48288 21.085 1.4524 42.251 1.4524 42.251z" color="#000000" opacity=".13821" style="-inkscape-stroke:none"/>
   </g>
  </g>
 </g>
</svg>
