<?xml version="1.0" encoding="UTF-8"?>
<svg id="svg5" width="1200mm" height="1200mm" version="1.1" viewBox="0 0 1200 1200" xmlns="http://www.w3.org/2000/svg" xmlns:xlink="http://www.w3.org/1999/xlink">
 <g id="layer60" transform="translate(19.4 11.241)">
  <g id="layer263">
   <g id="layer203" transform="translate(-19.4 -11.241)" fill="#fff">
    <path id="path92195" d="m588.96 650.32c72.553-176.85 58.667-461.46 334.17-491.67-58.711 65.372 56.914 69.749-36.341 186.41 15.749-7.8158 24.73-14.209 41.694-8.6734-53.682 54.357 19.516 34.866-1.0632 120.13-16.094 66.679-128.43 21.432-83.097 195.3 0 0-21.142 17.396-14.74 24.428 10.737 11.794 43.104-20.774 43.104-20.774-46.699 85.809-113.07 134.83-280.2 34.512l3.1591 21.817c57.003-2.5561 142.47 83.993 173.09 84.449-8.8077 11.948-19.754 12.635-35.1 14.668 9.8386 20.286 44.603 2.6232 71.76 46.323-85.836-29.096-173.71 16.114-215.73-81.945z" opacity=".62602"/>
    <path id="path92195-2" d="m572.97 648.26c-72.553-176.85-58.667-461.46-334.17-491.67 58.711 65.372-56.914 69.749 36.341 186.41-15.749-7.8158-24.73-14.209-41.694-8.6734 53.682 54.357-19.516 34.866 1.0632 120.13 16.094 66.679 128.43 21.432 83.097 195.3 0 0 21.142 17.396 14.74 24.428-10.737 11.794-43.104-20.774-43.104-20.774 46.699 85.809 113.07 134.83 280.2 34.512l-3.1591 21.817c-57.003-2.5561-142.47 83.993-173.09 84.449 8.8077 11.948 19.754 12.635 35.1 14.668-9.8386 20.286-44.603 2.6232-71.76 46.323 85.836-29.096 173.71 16.114 215.73-81.945z" opacity=".62602"/>
   </g>
  </g>
 </g>
</svg>
