<?xml version="1.0" encoding="UTF-8"?>
<svg width="1200mm" height="1200mm" version="1.1" viewBox="0 0 1200 1200" xmlns="http://www.w3.org/2000/svg" xmlns:xlink="http://www.w3.org/1999/xlink">
 <g>
  <g stroke="#000">
   <path d="m375.11 481.38c3.1134-56.065 2.6606-262.18 2.6606-262.18l382.6-1.1326-6.7846 286.14c-3.3747-1.1092-6.4769 0.50643-9.6117 1.796-3.6977-56.609-20.777-84.024-42.293-131.99l-29.56 22.735-21.844-35.152-31.448 32.408-30.39-76.203-34.379 27.691-47.641-32.927-37.736 34.826-27.225-9.8372c-66.168 52.127-49.328 144.28-49.328 144.28-4.5486-1.8807-12.124-0.72661-17.025-0.44971z" fill="#ff8080" stroke-width="2"/>
   <path transform="scale(.26458)" d="m2264.1 823.29-11.283 449.86 86.131 215.97 75.922-78.238 7.0547-587.37zm197.3 0.28515-11.211 550.92 7.6191-7.8516 33.215 53.449 19.961-596.44z" fill="#fff" stroke-width="7.5591"/>
   <path d="m376.05 481.94c0.24535-52.167-0.14657-258.44 2.6606-262.18l231.95-1.9112s-212.75-1.3443-208.53 13.976c10.285 37.289 31.88 85.416 31.88 85.416l34.678 30.148-27.225-9.8372c-66.168 52.127-49.972 143.62-49.972 143.62-4.2818-1.4349-10.771 0.68339-15.445 0.773z" opacity=".071138" stroke-width="2"/>
  </g>
 </g>
</svg>
