<?xml version="1.0" encoding="UTF-8"?>
<svg id="svg5" width="1200mm" height="1200mm" version="1.1" viewBox="0 0 1200 1200" xmlns="http://www.w3.org/2000/svg" xmlns:xlink="http://www.w3.org/1999/xlink">
 <defs id="defs77">
  <filter id="filter83355-9" x="-.0038486" y="-.0036515" width="1.0077" height="1.0073" color-interpolation-filters="sRGB">
   <feGaussianBlur id="feGaussianBlur14" stdDeviation="0.042099781"/>
  </filter>
  <filter id="filter51069-8" x="-.14923" y="-2.558" width="1.2928" height="6.132" color-interpolation-filters="sRGB">
   <feGaussianBlur id="feGaussianBlur26" stdDeviation="0.20956735"/>
  </filter>
  <filter id="filter5543-6-9" x="-.0040508" y="-.0028216" width="1.0081" height="1.0056" color-interpolation-filters="sRGB">
   <feGaussianBlur id="feGaussianBlur15-9-7" stdDeviation="0.042099781"/>
  </filter>
  <filter id="filter50638" x="-.013119" y="-.011283" width="1.0262" height="1.0226" color-interpolation-filters="sRGB">
   <feGaussianBlur id="feGaussianBlur50640" stdDeviation="0.036595986"/>
  </filter>
  <filter id="filter50644" x="-.0055203" y="-.0038983" width="1.011" height="1.0078" color-interpolation-filters="sRGB">
   <feGaussianBlur id="feGaussianBlur50642" stdDeviation="0.057372289"/>
  </filter>
  <filter id="filter52460" x="-.0052448" y="-.0049761" width="1.0105" height="1.01" color-interpolation-filters="sRGB">
   <feGaussianBlur id="feGaussianBlur52458" stdDeviation="0.057372289"/>
  </filter>
 </defs>
 <g id="layer60" transform="translate(19.4 11.241)">
  <g id="layer16">
   <g id="g48309">
    <path id="path48287" transform="matrix(4.1461 0 0 4.1461 114.51 46.946)" d="m97.944 155.85c5.6508 14.032-5.1676 33.625 22.905 35.809-12.774-0.94211-17.39 0.41978-24.943-0.1666 0.66647-11.883 0.21791-23.99 2.0379-35.642z" filter="url(#filter5543-6-9)" opacity=".14332" style="mix-blend-mode:normal"/>
    <path id="path48289" transform="matrix(4.1461 0 0 4.1461 114.51 46.946)" d="m116.15 138.43-14.999 4.1438c-6.807 6.5461-6.594 13.462-9.1551 20.231l-2.0997-0.63203c1.9501-6.1531 3.0918-12.306 7.1282-18.459 2.4066-4.3917 5.5793-7.6597 8.0088-8.2708l6.8725-0.30901z" fill-opacity=".99763" filter="url(#filter83355-9)" opacity=".14332" style="mix-blend-mode:normal"/>
    <path id="path48291" d="m558.72 839.76c3.3097 1.4768 10.353 1.3386 15.453-4e-5" fill="none" stroke="#000" stroke-width="1.097px"/>
    <path id="path48293" transform="matrix(4.1461 0 0 4.1461 114.51 46.946)" d="m107.21 191.46c0.78911 0.34701 2.4848 0.31059 3.7272-1e-5" fill="none" filter="url(#filter51069-8)" stroke="#000" stroke-width=".26458px"/>
    <g id="g48301" transform="matrix(4.1461 0 0 4.1461 114.09 46.948)" fill="#353535" stroke="#000">
     <g id="g48297"></g>
     <path id="path48299" d="m96.006 191.49 0.99069-27.591c1.1592-17.777 0.0558 1.8562 0 0-0.0181-0.60255-7.0243-1.1932-7.0014-1.7266 4.3241-18.294 11.98-26.757 15.137-26.73l6.8725-0.30901c4.7439 1.9038 10.739 10.264 14.789 26.565 0.11994 0.48271-6.5557 2.3753-6.563 1.8413-0.89131-15.941 0 0 0 0l1.3892 26.496c0.0112 0.57745 0.27153 1.6331-0.96477 1.6389-5.0236-0.17121-24.235 0.79042-24.649-0.18495z" stroke-width=".724"/>
    </g>
    <path id="path48305" transform="matrix(4.1461 0 0 4.1461 114.51 46.946)" d="m97.614 156.44c5.6508 14.032 3.3473 34.154 23.235 35.215-11.967-0.88938-16.618 0.71207-24.943-0.1666 0.66647-11.883-0.11189-23.396 1.7081-35.049z" filter="url(#filter50644)" opacity=".369" style="mix-blend-mode:normal"/>
    <path id="path48307" transform="matrix(4.1461 0 0 4.1461 114.51 46.946)" d="m116.15 138.43-14.999 4.1438c-6.807 6.5461-6.594 13.462-9.1551 20.231l-2.0997-0.63203c1.9501-6.1531 3.0918-12.306 7.1282-18.459 2.4066-4.3917 5.5793-7.6597 8.0088-8.2708l6.8725-0.30901z" fill-opacity=".99763" filter="url(#filter52460)" opacity=".362" style="mix-blend-mode:normal"/>
    <path id="rect49028" d="m574.22 671.15c12.026 4.1673 21.19 2.306 27.758 0v28.851c-14.357 6.3807-20.355 2.3131-27.758 0z" fill="#353535" opacity=".70833" stroke="#000" stroke-linecap="round" stroke-linejoin="round" stroke-width="1.7579"/>
    <path id="rect49028-3" transform="matrix(4.1461 0 0 4.1461 114.51 46.946)" d="m110.88 150.55c0.30928 0.58337 1.0677 0.0241 1.1935 0.5592 0.89568 3.8092-2.4134 7.3724 5.5014 6.3995-3.4628 1.539-4.9096 0.55789-6.6949 0z" filter="url(#filter50638)" opacity=".36859" style="mix-blend-mode:normal"/>
    <g id="g52420" transform="matrix(4.9639 0 0 4.9639 20.769 -76.839)">
     <path id="path347-9" d="m115.19 146c-0.89802 1e-4 -1.8728 0.3454-2.4844 0.93619-0.53904 0.52077-0.85779 1.3166-0.75741 2.022 0.0974 0.68475 0.76799 1.2957 1.3826 1.7099 0.30293 0.20414 0.5871 0.33431 0.96538 0.32045 0.67055-0.0247 1.2443-0.32568 1.7631-0.70815 0.54285-0.40011 1.0649-0.93921 1.2519-1.5472 0.1941-0.63091 0.1764-1.2784-0.23747-1.8171-0.42014-0.54689-1.1442-0.91615-1.8839-0.91607z" fill="#91f091" stroke="#000" stroke-width=".14789px"/>
     <ellipse id="ellipse359-1" transform="rotate(-11.721)" cx="80.906" cy="168.74" rx="1.6958" ry="1.6254" fill="#0f1b0f" stroke="#000" stroke-linecap="round" stroke-linejoin="round" stroke-width=".27499"/>
     <ellipse id="ellipse361-7" transform="rotate(-11.721)" cx="83.518" cy="169.69" rx=".96802" ry=".99447" fill="#0f1b0f" stroke="#000" stroke-linecap="round" stroke-linejoin="round" stroke-width=".23808"/>
     <ellipse id="ellipse363-0" transform="rotate(-12.136)" cx="78.967" cy="168.7" rx=".7011" ry=".6347" fill="#fff" stroke-width=".63117"/>
     <ellipse id="ellipse365-5" transform="rotate(-12.136)" cx="81.794" cy="169.93" rx=".3764" ry=".35627" fill="#fff" stroke-width=".63117"/>
     <ellipse id="path51182" cx="113.18" cy="150.89" rx=".71094" ry=".30525" fill="#91f091" stroke="#000" stroke-linecap="round" stroke-linejoin="round" stroke-width=".074877"/>
     <ellipse id="path51182-2" cx="115.44" cy="150.9" rx=".71094" ry=".30525" fill="#91f091" stroke="#000" stroke-linecap="round" stroke-linejoin="round" stroke-width=".074877"/>
    </g>
   </g>
  </g>
 </g>
</svg>
