<?xml version="1.0" encoding="UTF-8"?>
<svg id="svg5" width="1200mm" height="1200mm" version="1.1" viewBox="0 0 1200 1200" xmlns="http://www.w3.org/2000/svg" xmlns:xlink="http://www.w3.org/1999/xlink">
 <g id="layer60" transform="translate(19.4 11.241)">
  <g id="layer214">
   <g id="layer272" stroke="#000" stroke-width="4">
    <path id="path816291" d="m372.74 257.39 42.282-41.908 45.275 48.269 45.275-46.398 46.398 50.14 50.514-51.636 56.501 56.127 48.643-55.378 20.58 55.378-1.1225 78.577-355.84-1.8709z" fill="#181c97"/>
    <path id="path816085" d="m366.3 351.71v-143.93l53.975 68.527 39.158-67.469 49.212 64.823 44.979-60.59 49.742 62.706 57.15-65.881 38.1 70.908 49.742-60.325-14.023 130.97c-123.12 4.7741-242.23 14.981-368.04 0.26458z" fill="#1e26f5"/>
    <path id="path824493" d="m366.3 351.71v-143.93l53.975 68.527 39.158-67.469 49.212 64.823c14.184 46.541 18.931 75.132 225.69 77.788-123.12 4.7741-242.23 14.981-368.04 0.26458z" opacity=".10969"/>
   </g>
  </g>
 </g>
</svg>
