<?xml version="1.0" encoding="UTF-8"?>
<svg id="svg5" width="1200mm" height="1200mm" version="1.1" viewBox="0 0 1200 1200" xmlns="http://www.w3.org/2000/svg" xmlns:xlink="http://www.w3.org/1999/xlink">
 <defs id="defs77">
  <linearGradient id="linearGradient9009" x1="123.66" x2="114.77" y1="91.869" y2="114.29" gradientTransform="matrix(4.1461 0 0 4.1461 114.67 47.238)" gradientUnits="userSpaceOnUse">
   <stop id="stop8" offset="0"/>
   <stop id="stop10" stop-opacity="0" offset="1"/>
  </linearGradient>
 </defs>
 <g id="layer60" transform="translate(19.4 11.241)">
  <g id="layer45">
   <g id="layer46" stroke-width="4.1461">
    <path id="path9-4" d="m649.56 536.14c-0.73373-0.13019-2.7748-0.49219-4.5358-0.80414-4.1714-0.73904-11.364-3.7855-15.789-6.6868-4.5259-2.9681-10.949-9.7018-13.733-14.397-15.623-26.349-1.7877-59.936 27.92-67.776 5.1345-1.3554 17.234-1.388 22.081-0.0597 10.443 2.8628 18.419 8.0306 24.893 16.128 11.639 14.559 12.994 34.973 3.4194 51.519-2.5395 4.389-8.1653 10.504-12.529 13.618-4.2137 3.0068-11.165 6.2494-15.877 7.4066-3.5659 0.87544-13.232 1.5172-15.85 1.0524zm-170.76-14.119c-9.7209-1.1919-17.352-3.3406-25.434-7.1615-20.589-9.7338-36.248-28.367-41.992-49.969-2.1-7.8991-2.6885-12.444-2.6885-20.76 0-4.2555 0.30473-9.5385 0.67726-11.74 4.4243-26.145 19.601-46.743 43.235-58.671 4.9546-2.501 15.021-5.7228 21.133-6.7639 7.0102-1.194 19.084-1.2039 26.007-0.0207 29.998 5.1241 54.811 27.532 62.498 56.436 2.1 7.8991 2.6885 12.444 2.6885 20.76 0 21.41-7.7001 40.01-22.878 55.263-11.767 11.826-26.124 19.242-42.406 21.906-6.0433 0.98884-15.87 1.3275-20.839 0.71822z" fill="url(#linearGradient9009)"/>
    <path id="path11" d="m478.24 515.46c-12.941-1.8426-25.302-7.0289-35.549-14.915-4.421-3.4026-11.93-11.527-15.182-16.425-3.1925-4.8094-6.8655-12.216-8.9112-17.97-2.8888-8.125-0.67772-17.863 5.3936-23.752 2.4803-2.4061 7.5774-4.7896 11.085-5.183 9.8478-1.105 19.757 7.0065 21.75 17.804 0.34993 1.895 0.85729 4.6668 1.1277 6.1594 1.1512 6.3543 7.0168 14.849 12.454 18.035 5.7651 3.3786 11.837 4.6664 18.225 3.8653 5.4305-0.68091 7.7474-1.5405 12.194-4.5234 5.0408-3.3821 6.8593-5.5931 14.562-17.705 1.9114-3.0056 5.897-6.7763 8.6044-8.1408 14.44-7.2768 30.348 4.9533 27.523 21.161-1.1352 6.5143-7.2668 15.506-16.019 23.492-9.0526 8.2594-21.232 14.45-33.503 17.03-5.846 1.229-18.597 1.8024-23.754 1.0681zm-0.50014-35.922c-8.4978-3.0314-14.353-9.837-16.991-19.748-1.3481-5.0644-1.2376-13.421 0.24835-18.788 3.2518-11.744 11.183-20.897 21.177-24.439 2.9084-1.0308 4.404-1.2269 8.5596-1.1226 4.3998 0.11029 5.4902 0.33915 8.6334 1.8113 11.357 5.3186 17.584 19.257 15.191 34.005-1.2541 7.7291-6.3489 17.26-11.791 22.058-1.5162 1.3367-4.7564 3.4272-7.2005 4.6457-4.2166 2.1019-4.7182 2.2232-9.8063 2.3703-4.1109 0.11899-5.9824-0.0663-8.0198-0.79286zm38.172-54.023c-3.4801-1.4588-5.9413-3.7355-7.5255-6.9613-2.0622-4.1996-2.0755-9.6023-0.0332-14.026 1.9607-4.2497 6.0371-8.3966 10.092-10.267 2.8154-1.2984 3.9578-1.5205 7.8038-1.5171 5.0553 4e-3 7.4912 0.93809 10.626 4.0728 4.2684 4.2684 5.2647 11.575 2.4218 17.763-1.8137 3.9478-6.4729 8.6392-10.229 10.301-3.48 1.5389-10.221 1.864-13.155 0.63435zm-29.688-13.891c-7.9344-3.6045-10.411-16.155-5.3178-26.95 3.2336-6.8531 8.3262-10.723 14.141-10.745 4.3849-0.0166 7.5239 2.2 9.9464 7.0251 5.1362 10.23 0.4195 25.748-9.2105 30.304-3.3976 1.6073-6.5604 1.7285-9.5596 0.3661z" fill="#fff" fill-opacity=".99763"/>
    <path id="path13-4" d="m663.94 531.13c8.7516-1.8375 16.566-6.2249 22.605-12.691 5.0872-5.4471 6.7676-8.6823 6.783-13.059 8e-3 -2.4759-0.29645-4.0341-1.0851-5.5375-2.3599-4.4985-7.6056-6.9223-12.277-5.6731-3.577 0.95666-5.5632 2.6911-9.0915 7.9385-3.2486 4.8314-6.2253 7.8904-9.1736 9.4274-2.5861 1.3482-9.1757 1.6148-12.513 0.50628-5.4086-1.7965-9.7528-7.3166-10.762-13.675-1.427-8.9908-7.7076-13.962-14.972-11.85-5.3982 1.5693-8.7167 6.9206-8.1947 13.215 0.31842 3.8393 4.734 12.793 8.4704 17.176 5.4028 6.3377 13.56 11.542 21.375 13.636 4.4243 1.186 14.487 1.4991 18.836 0.58601zm-4.61-20.712c4.4628-1.6973 8.4195-5.6511 10.876-10.868 1.2132-2.5763 1.3745-3.5935 1.387-8.7462 0.0124-5.1797-0.13889-6.1565-1.3551-8.7495-2.6744-5.7009-7.0459-8.7026-12.677-8.7051-9.6811-4e-3 -17.559 9.2536-17.559 20.635 0 6.9065 2.6769 12.237 7.7072 15.347 2.069 1.2792 3.2514 1.6146 6.0773 1.7243 2.1165 0.0821 4.3161-0.17081 5.5429-0.63754zm18.638-30.978c8.0538-1.9537 11.999-11.428 6.9832-16.77-6.016-6.4065-17.574-0.69318-17.491 8.6462 0.0498 5.6312 5.0018 9.4597 10.508 8.1238zm-16.044-9.3158c5.836-3.9657 7.3605-14.268 2.8231-19.079-1.4565-1.5443-2.1161-1.8518-3.9716-1.8518-1.2238 0-2.7461 0.26701-3.3829 0.59363-7.089 3.635-9.0567 15.969-3.2732 20.518 2.0492 1.6119 5.2763 1.5372 7.8046-0.18077z" fill="#fff" fill-opacity=".99763"/>
   </g>
  </g>
 </g>
</svg>
