<?xml version="1.0" encoding="UTF-8"?>
<svg width="1200mm" height="1200mm" version="1.1" viewBox="0 0 1200 1200" xmlns="http://www.w3.org/2000/svg" xmlns:xlink="http://www.w3.org/1999/xlink">
 <defs>
  <filter id="filter216308" x="-.33604" y="-.36112" width="1.6721" height="1.7222" color-interpolation-filters="sRGB">
   <feGaussianBlur stdDeviation="0.67607452"/>
  </filter>
  <filter id="filter217808" x="-.2669" y="-.28597" width="1.5338" height="1.5719" color-interpolation-filters="sRGB">
   <feGaussianBlur stdDeviation="0.29565397"/>
  </filter>
  <filter id="filter217812" x="-.034407" y="-.07239" width="1.0688" height="1.1448" color-interpolation-filters="sRGB">
   <feGaussianBlur stdDeviation="0.099111574"/>
  </filter>
  <filter id="filter217808-9" x="-.2669" y="-.28597" width="1.5338" height="1.5719" color-interpolation-filters="sRGB">
   <feGaussianBlur stdDeviation="0.29565397"/>
  </filter>
  <filter id="filter216308-2" x="-.33604" y="-.36112" width="1.6721" height="1.7222" color-interpolation-filters="sRGB">
   <feGaussianBlur stdDeviation="0.67607452"/>
  </filter>
  <filter id="filter217812-6" x="-.034407" y="-.07239" width="1.0688" height="1.1448" color-interpolation-filters="sRGB">
   <feGaussianBlur stdDeviation="0.099111574"/>
  </filter>
 </defs>
 <g>
  <g fill-rule="evenodd">
   <ellipse cx="381.23" cy="496.77" rx="3.3431" ry="3.2246" stroke="#000" stroke-linecap="round" stroke-width="2" style="paint-order:fill markers stroke"/>
   <ellipse transform="matrix(1.0737 0 0 1.0737 -27.916 -36.425)" cx="380.58" cy="497.5" rx="2.4142" ry="2.2466" fill="#fff" filter="url(#filter216308)" opacity=".41463" style="mix-blend-mode:normal;paint-order:fill markers stroke"/>
   <ellipse transform="matrix(1.0737 0 0 1.0737 -28.319 -38.133)" cx="380.58" cy="497.5" rx="2.4142" ry="2.2466" fill="#f5cc21" filter="url(#filter216308)" opacity=".12602" style="mix-blend-mode:normal;paint-order:fill markers stroke"/>
   <ellipse transform="matrix(1.3548 0 0 1.3548 -134.97 -176.18)" cx="381.08" cy="495.5" rx="1.3293" ry="1.2407" fill="#fff" filter="url(#filter217808)" opacity=".62805" style="mix-blend-mode:normal;paint-order:fill markers stroke"/>
  </g>
  <path d="m377.89 497.2c-0.16545 1.0268 1.1865 3.0265 2.537 3.2246 3.4433 0.50515 4.3626-2.2762 4.3626-2.2762s-1.917 1.2354-3.675 1.0433c-0.83554-0.0913-2.5449-0.48676-3.2246-1.9917z" fill="#fff" filter="url(#filter217812)" opacity=".42683"/>
  <g fill-rule="evenodd">
   <ellipse cx="752.31" cy="521.12" rx="2.4574" ry="2.3702" stroke="#000" stroke-linecap="round" stroke-width="1.4701" style="paint-order:fill markers stroke"/>
   <ellipse transform="matrix(.7892 0 0 .7892 451.56 129.19)" cx="380.58" cy="497.5" rx="2.4142" ry="2.2466" fill="#fff" filter="url(#filter216308-2)" opacity=".41463" style="mix-blend-mode:normal;paint-order:fill markers stroke"/>
   <ellipse transform="matrix(.7892 0 0 .7892 451.27 127.94)" cx="380.58" cy="497.5" rx="2.4142" ry="2.2466" fill="#f5cc21" filter="url(#filter216308-2)" opacity=".12602" style="mix-blend-mode:normal;paint-order:fill markers stroke"/>
   <ellipse transform="matrix(.99587 0 0 .99587 372.88 26.468)" cx="381.08" cy="495.5" rx="1.3293" ry="1.2407" fill="#fff" filter="url(#filter217808-9)" opacity=".62805" style="mix-blend-mode:normal;paint-order:fill markers stroke"/>
  </g>
  <path transform="matrix(.73505 0 0 .73505 199.18 138.08)" d="m749.16 521.54c-0.16545 1.0268 1.1865 3.0265 2.537 3.2246 3.4433 0.50515 4.3626-2.2762 4.3626-2.2762s-1.917 1.2354-3.675 1.0433c-0.83554-0.0913-2.5449-0.48676-3.2246-1.9917z" fill="#fff" filter="url(#filter217812-6)" opacity=".42683"/>
 </g>
</svg>
