<?xml version="1.0" encoding="UTF-8"?>
<svg id="svg5" width="1200mm" height="1200mm" version="1.1" viewBox="0 0 1200 1200" xmlns="http://www.w3.org/2000/svg" xmlns:xlink="http://www.w3.org/1999/xlink">
 <defs id="defs77">
  <filter id="filter14634" x="-.098266" y="-.047923" width="1.1965" height="1.0958" color-interpolation-filters="sRGB">
   <feGaussianBlur id="feGaussianBlur14636" stdDeviation="0.49136978"/>
  </filter>
  <filter id="filter21702-6-5" x="-.032229" y="-.018609" width="1.0645" height="1.0372" color-interpolation-filters="sRGB">
   <feGaussianBlur id="feGaussianBlur13-58-6" stdDeviation="0.15876734"/>
  </filter>
  <filter id="filter22301-2-81-3" x="-.0072256" y="-.0052516" width="1.0145" height="1.0105" color-interpolation-filters="sRGB">
   <feGaussianBlur id="feGaussianBlur10-32-8" stdDeviation="0.067466026"/>
  </filter>
  <filter id="filter22301-4-1-6" x="-.033355" y="-.018045" width="1.0667" height="1.0361" color-interpolation-filters="sRGB">
   <feGaussianBlur id="feGaussianBlur25-2" stdDeviation="0.16541507"/>
  </filter>
  <filter id="filter22301-4-9-8" x="-.014115" y="-.014309" width="1.0282" height="1.0286" color-interpolation-filters="sRGB">
   <feGaussianBlur id="feGaussianBlur7-42-8" stdDeviation="0.16541507"/>
  </filter>
  <filter id="filter22301-4-9" x="-.026834" y="-.024287" width="1.0537" height="1.0486" color-interpolation-filters="sRGB">
   <feGaussianBlur id="feGaussianBlur7-42" stdDeviation="0.16541507"/>
  </filter>
  <filter id="filter26045-8" x="-.026865" y="-.013716" width="1.0537" height="1.0274" color-interpolation-filters="sRGB">
   <feGaussianBlur id="feGaussianBlur28-47" stdDeviation="0.20385625"/>
  </filter>
  <linearGradient id="linearGradient81068" x1="52.81" x2="155.62" y1="70.219" y2="70.219" gradientUnits="userSpaceOnUse">
   <stop id="stop2" offset="0"/>
   <stop id="stop4" stop-opacity="0" offset="1"/>
  </linearGradient>
 </defs>
 <g id="layer60" transform="translate(19.4 11.241)">
  <g id="layer4">
   <g id="layer247" transform="translate(-19.4 -11.241)">
    <path id="path8074" d="m637.41 265.14-27.693-78.78c-2.118 19.493 4.8542 46.561-6.3539 58.481l34.047 20.301" fill-opacity="0" stroke-width="4.1461"/>
    <path id="path8076" d="m753.21 504.89s0.622-3.8626 1.5947-7.3274c1.9966-7.1122 3.9064-16.198 5.1121-24.316 1.2091-8.1404 1.3786-34.54 0.27199-42.423-4.9944-35.578-18.693-66.337-41.229-92.578-5.3845-6.2693-16.158-16.974-21.792-21.652-29.279-24.315-64.778-39.491-104.36-44.612-5.3202-0.68817-14.802-1.0327-24.282-1.0327l1.3e-4 6e-5c-9.4796 0-18.959 0.34454-24.28 1.0327-24.145 3.1232-44.931 9.359-66.167 19.851-23.297 11.509-43.293 26.982-59.981 46.411-22.536 26.239-36.235 57-41.229 92.578-1.1092 7.9024-0.9373 34.289 0.27655 42.423l0.95559 6.404" fill="none" stroke="#000" stroke-width="2.1767" style="mix-blend-mode:normal"/>
    <path id="path8094" d="m480.64 321.14c-73.082 32.723-98.916 88.449-93.47 159.4l-9.0675-0.90326c-7.4319-60.518-0.14263-121.04 86.504-181.55" fill-opacity=".55466"/>
    <path id="path8094-5" d="m677.43 332.29c66.562 44.513 82.857 105.54 65.593 174.57l9.9966-1.9749c17.473-58.415 19.357-118.45-55.918-192.64" fill-opacity=".55466"/>
    <path id="path39-7-2" d="m424.83 329.55 3.5101-24.882c5.3176-11.38 10.175-17.971 41.962-25.8-4.4482 3.5913-4.1296 4.7323-6.1944 7.0984 18.662-1.025 30.727-15.803 34.683-30.592l-1.5652 13.035c22.632-9.9459 50.803 2.3019 55.843-33.176 0 0 58.79 21.133 70.863 38.153 0 0 13.827-0.55985 10.826-7.0405 19.674 4.2871 39.059 17.022 39.419 25.032 0.10719 2.391 11.576-1.4563 11.371-9.5132 17.179 33.446 36.798 23.254 32.022 53.886-24.583 4.7218-57.779 6.2943-67.986 4.9785 4.7033 8.5286-7.7839 19.072-9.6762 21.049-18.815-14.691-54.84-9.9349-73.493-20.49 0.80041 4.6789 3.574 12.303-0.12138 12.642-35.469-26.517-99.339-15.175-141.46-24.381z" fill="#ff8080" stroke="#000" stroke-width="1.8552"/>
    <path id="path41-9-0" transform="matrix(6.4586 0 0 2.4117 -106.92 178.63)" d="m82.596 63.103c4.6921 1.4288 15.869 2.1955 18.211 4.8157 0 0-3.3111-3.1346-3.565-5.2309-2.1414-17.68-1.7762-19.077 3.3836-30.182 0.48136 0.7405-7.5981 3.6205-7.0803 4.5983 0.4407 0.8323 0.22753-4.2326 0.19957-4.8503-0.0126-0.27841-0.57184 8.7301-5.164 12.046-0.91231 0.65874 0.66971-2.5985 0.66971-2.5985-0.50923-2.649-7.227 7.587-6.3416 10.876z" fill="url(#linearGradient81068)" filter="url(#filter26045-8)" opacity=".21173" stroke-linecap="round" stroke-linejoin="round" stroke-width=".565"/>
    <path id="path43-18-1" transform="matrix(-4.2458 -1.5378 3.8743 -1.4915 841.65 579.4)" d="m96.206 62.459 14.52 15.615 0.27406 0.73082c-10.497-10.753-6.133-5.4552-14.794-16.346z" color="#000000" filter="url(#filter22301-4-9)" opacity=".11401" style="-inkscape-stroke:none;mix-blend-mode:normal"/>
    <path id="path43-18-1-1" transform="matrix(-3.4197 2.9492 .59641 -4.1085 924.53 325.45)" d="m94.787 59.197c3.1626 4.4624 27.517 23.225 28.126 27.745-10.357-10.357-19.465-16.854-28.126-27.745z" color="#000000" filter="url(#filter22301-4-9-8)" opacity=".11401" style="-inkscape-stroke:none;mix-blend-mode:normal"/>
    <path id="path45-41-2" transform="matrix(4.2458 1.5378 -3.8743 1.4915 272.43 25.953)" d="m103.24 69.805 0.67298-5.9961c0.96831 9.7387 5.4049 13.362 11.229 21.894l-0.95022 0.10625c-5.7726-6.8517-6.4993-6.5576-10.952-16.003z" color="#000000" filter="url(#filter22301-4-1-6)" opacity=".11401" style="-inkscape-stroke:none;mix-blend-mode:normal"/>
    <path id="path47-3-8" transform="matrix(3.1961 1.8544 -4.7468 1.0914 684.71 164.75)" d="m23.308 54.503 0.45891-7.9784s-0.45891 7.9784 9.4583 20.463c5.091 6.4092 12.492 10.369 12.492 10.369-9.8968-3.339-14.819-10.59-20.397-19.527-0.68717-1.101-1.3565-2.2124-2.0118-3.3263z" color="#000000" filter="url(#filter22301-2-81-3)" opacity=".081433" style="-inkscape-stroke:none"/>
    <path id="path49-4-8" transform="matrix(4.8097 1.2856 -3.239 1.6896 322.4 32.047)" d="m104.73 62.37c0.47297 1.1044 2.0344 2.2908 2.9783 3.3737 3.7115 4.2579 6.207 9.2325 8.4768 13.214-3.2001-9.4795-5.9701-14.85-11.823-20.476 1.8369 2.4537 0.93037 3.0547 0.3672 3.8876z" color="#000000" filter="url(#filter21702-6-5)" opacity=".060976" style="-inkscape-stroke:none;mix-blend-mode:normal"/>
    <path id="path12941" d="m551.16 342.82c-367.44-228.55-183.72-114.27 0 0z" color="#000000" style="-inkscape-stroke:none"/>
    <path id="path12943" d="m555.88 329.6c1.4126 4.4388 4.8392 9.0648 10.475 13.051l1.1543-1.6328c-4.5458-2.5971-6.7801-6.9156-11.629-11.418z" color="#000000" style="-inkscape-stroke:none"/>
    <path id="path12943-5" d="m638.1 330.73c3.6503 2.4982 7.886 5.1358 10.996 10.957l1.7637-0.94141c-1.9104-2.6353-5.0801-7.4858-12.76-10.016z" color="#000000" style="-inkscape-stroke:none"/>
    <path id="path14385" d="m555.8 329.36 10.668 12.122 1.3334 10.183-1.8183 2.3032-5.0814-4.7057c2.2549-6.8469-2.9191-13.397-5.1012-19.902z" filter="url(#filter14634)" opacity=".17276" style="mix-blend-mode:normal"/>
   </g>
  </g>
 </g>
</svg>
