<?xml version="1.0" encoding="UTF-8"?>
<svg id="svg5" width="1200mm" height="1200mm" version="1.1" viewBox="0 0 1200 1200" xmlns="http://www.w3.org/2000/svg" xmlns:xlink="http://www.w3.org/1999/xlink">
 <defs id="defs77">
  <linearGradient id="linearGradient42652">
   <stop id="stop42648" stop-color="#616161" offset="0"/>
   <stop id="stop42650" stop-color="#616161" stop-opacity="0" offset="1"/>
  </linearGradient>
  <filter id="filter14925" x="-.0089874" y="-.0097492" width="1.0203" height="1.0189" color-interpolation-filters="sRGB">
   <feGaussianBlur id="feGaussianBlur14927" stdDeviation="0.13978675"/>
  </filter>
  <filter id="filter22216" x="-.96871" y="-.0033538" width="2.9374" height="1.0067" color-interpolation-filters="sRGB">
   <feGaussianBlur id="feGaussianBlur22218" stdDeviation="0.045618121"/>
  </filter>
  <linearGradient id="linearGradient42654" x1="121.82" x2="122.69" y1="37.307" y2="36.4" gradientTransform="matrix(5.8122 0 0 5.8122 -89.612 -14.554)" gradientUnits="userSpaceOnUse" xlink:href="#linearGradient42652"/>
  <linearGradient id="linearGradient53263" x1="121.82" x2="122.69" y1="37.307" y2="36.4" gradientTransform="matrix(5.8122 0 0 5.8122 -245.45 -16.216)" gradientUnits="userSpaceOnUse" xlink:href="#linearGradient42652"/>
  <linearGradient id="linearGradient69318" x1="51.28" x2="159.8" y1="70.107" y2="70.107" gradientTransform="matrix(1.1404 -.00083248 .00086336 1.1828 -12.695 -17.435)" gradientUnits="userSpaceOnUse">
   <stop id="stop70658" stop-opacity="0" offset="0"/>
   <stop id="stop72080" stop-opacity=".070588" offset=".034291"/>
   <stop id="stop71564" stop-opacity=".75" offset=".12345"/>
   <stop id="stop72850" offset=".29788"/>
   <stop id="stop70794" offset=".49297"/>
   <stop id="stop72980" offset=".68454"/>
   <stop id="stop71694" stop-opacity=".75" offset=".88708"/>
   <stop id="stop70664" stop-opacity="0" offset=".97133"/>
   <stop id="stop70660" stop-opacity="0" offset="1"/>
  </linearGradient>
  <filter id="filter73342" x="-.0037018" y="-.015368" width="1.0074" height="1.0307" color-interpolation-filters="sRGB">
   <feGaussianBlur id="feGaussianBlur73344" stdDeviation="0.16738467"/>
  </filter>
 </defs>
 <g id="layer60" transform="translate(19.4 11.241)">
  <g id="layer214">
   <g id="layer159">
    <path id="path8150-0-9" transform="matrix(4.1461 0 0 4.1461 114.51 46.946)" d="m51.345 79.556c-0.61896 5.1044 3.2985 3.0235 6.0147 2.1343 34.077-9.2557 64.544-4.9317 101.12 1.3968 1.1099 0.49541 1.7365-1.1342 1.0009-2.8774l-1.7524-3.9024c-13.693-9.7226-34.749-19.136-53.082-19.268-16.348-0.11793-38.004 7.626-51.431 17.991z" fill="url(#linearGradient69318)" filter="url(#filter73342)" opacity=".30769"/>
    <path id="path6106" d="m329.9 354.78s0.0614-44.1 13.417-80.103c12.636-34.064 37.949-59.737 59.765-73.077 44.282-27.076 86.487-30.936 141.34-36.816 55.978 5.6766 97.551 11.395 143.81 37.644 32.297 18.328 56.499 37.732 68.427 80.039 4.9435 17.533 8.2239 60.712 8.3927 74.929-171.95-47.762-264.66-44.964-435.15-2.6161z" fill="#838383" stroke="#000" stroke-width="2.3425"/>
    <path id="path8150-3" d="m544.88 306.5c-67.744-0.13106-150.68 16.149-214.82 44.046l-7.9896 11.469c-4.2392 6.6694-0.81157 17.392 8.6366 15.208 156.34-53.506 288.48-49.6 437.11-0.46493 7.4193 2.0519 7.4543-8.651 4.5701-13.022l-7.636-10.111c-62.085-25.228-143.09-46.976-219.87-47.125z" fill="#4a4a4a" stroke="#000" stroke-width="2.3425"/>
    <path id="path8150-0" d="m322.99 362.7c-2.454 3.7725 3.1248 10.182 8.0943 8.6779 149.96-51.771 281.27-51.124 436.1-2e-3 4.6018 1.2172 7.1996-2.7866 4.1498-7.0695l-7.2658-9.5879c-56.77-23.888-144.07-47.015-220.08-47.34-67.78-0.28976-157.57 18.736-213.24 44.201z" fill="#838383"/>
    <ellipse id="path11744" cx="543.99" cy="164.24" rx="8.1865" ry="3.1723" fill="#616161" stroke="#000" stroke-linejoin="round" stroke-width="1.6662"/>
    <path id="path11744-3" d="m551.09 163.91c0 0.81952-2.8816 0.99335-6.9069 0.99335-4.0253 0-7.2475-0.14657-7.2475-0.96609s2.977-2.0016 7.0022-2.0016c4.0253 0 7.1522 1.1549 7.1522 1.9744z" fill="#838383" stroke-linejoin="round" stroke-width="1.0753"/>
    <path id="path11878" d="m544.42 167.94c1.308 65.58-0.85638 86.257 0.45171 138.55" fill="none" stroke="#000" stroke-width="1.105px"/>
    <path id="path11878-9" transform="matrix(4.1461 0 0 4.1461 114.51 46.946)" d="m103.85 29.193c0.31549 15.817-0.40178 20.823-0.0863 33.437" fill="none" filter="url(#filter22216)" opacity=".15385" stroke="#000" stroke-width=".26652px" style="mix-blend-mode:normal"/>
    <path id="path11878-2" d="m541.01 167.51c1.2857 64.46-1.7683 82.577-0.59053 133.86-20.146-0.52583-133.34 6.1915-209.08 45.237" fill="none" opacity=".3782" stroke="#000" stroke-dasharray="2.76958, 2.76958" stroke-width=".6924"/>
    <path id="path11878-2-1" d="m547.55 167.5c1.299 65.127 2.6892 134.09 2.6892 134.09 48.369-3.489 160.46 20.88 212.65 46.806" fill="none" opacity=".3782" stroke="#000" stroke-dasharray="2.76958, 2.76958" stroke-width=".6924"/>
    <ellipse id="path42178" cx="619.35" cy="199.59" rx="6.6489" ry="3.2724" fill="url(#linearGradient42654)" stroke="#3f3f3f" stroke-linejoin="round" stroke-width=".27317"/>
    <path id="path45325" d="m625.93 198.83-5.4434 0.78841 5.646-0.19155-5.6291 0.29417 5.6254 0.31158-5.6436-0.20901 5.4339 0.80522-5.4868-0.70583 5.0773 1.2744-5.1632-1.1812 4.5665 1.7049-4.6827-1.6207 3.9168 2.0835-4.0599-2.0109 3.1482 2.3989-3.3138-2.3401 2.2839 2.6414-2.4671-2.5981 1.3502 2.8036-1.5453-2.7772 0.37522 2.8806-0.57656-2.8719-0.61067 2.8701 0.40963-2.8794-1.5782 2.7724 1.3834-2.7994-2.4978 2.5905 2.3151-2.6343-3.3415 2.3298 3.1766-2.3891-4.0837 1.9984 3.9415-2.0714-4.7019 1.6062 4.5866-1.6907-5.1771 1.1652 5.0924-1.2587-5.4951 0.68886 5.4434-0.7884-5.646 0.19154 5.629-0.29416-5.6254-0.31154 5.6436 0.20901-5.4339-0.80522 5.4868 0.70584-5.0773-1.2744 5.1632 1.1812-4.5664-1.7049 4.6827 1.6207-3.9168-2.0836 4.06 2.011-3.1482-2.3989 3.3138 2.3401-2.2839-2.6414 2.467 2.5981-1.3502-2.8036 1.5453 2.7772-0.37563-2.8806 0.57659 2.8719 0.61068-2.8701-0.40963 2.8794 1.5782-2.7724-1.3834 2.7994 2.4979-2.5905-2.3152 2.6343 3.3416-2.3298-3.1766 2.3891 4.0838-1.9984-3.9415 2.0714 4.7019-1.6062-4.5866 1.6907 5.1771-1.1652-5.0923 1.2587z" opacity=".36218" stroke-width="0"/>
    <path id="path12927" d="m540.79 306.5c-82.045 0.772-164.98 24.949-210.73 44.046 5.8285-42.168 1.786-86.302 67.865-145.76 33.137-28.979 142.44-40.338 142.69-38.364 0.15631 0 0.35491 19.816-0.0498 45.657-0.47369 30.244-1.4713 68.801 0.22928 94.418z" opacity=".060898" stroke="#000" stroke-width="1.097px"/>
    <path id="path14106" transform="matrix(4.1461 0 0 4.1461 114.51 46.946)" d="m102.23 28.79c-18.941 1.9419-18.279 2.7303-26.514 5.3496-6.3724 2.3424-14.863 9.2911-18.604 16.57-4.3054 8.3758-4.3287 18.003-4.9599 22.767-2.1129 2.58-3.171 6.8287-0.12389 5.941 8.9395-2.6044 39.792-10.893 48.539-9.0441-54.457 8.0432-35.217-3.4884-10.295-6.8301-15.008-3.4302-24.328-5.6772-16.753-18.672 9.8983-16.981 27.136-13.573 28.71-16.08z" filter="url(#filter14925)" opacity=".21154" stroke="#000" stroke-width=".26458px"/>
    <ellipse id="path42178-4" cx="463.52" cy="197.93" rx="6.6489" ry="3.2724" fill="url(#linearGradient53263)" stroke="#3f3f3f" stroke-linejoin="round" stroke-width=".27317"/>
    <path id="path45325-1" d="m470.1 197.16-5.4434 0.78842 5.646-0.19155-5.629 0.29416 5.6254 0.31158-5.6436-0.209 5.4339 0.80522-5.4868-0.70583 5.0773 1.2744-5.1632-1.1812 4.5664 1.7049-4.6827-1.6207 3.9168 2.0835-4.0599-2.0109 3.1482 2.3989-3.3138-2.3401 2.2839 2.6414-2.4671-2.5981 1.3502 2.8036-1.5453-2.7772 0.37522 2.8806-0.57655-2.8719-0.61068 2.8701 0.40964-2.8794-1.5782 2.7724 1.3834-2.7993-2.4978 2.5905 2.3151-2.6343-3.3415 2.3298 3.1766-2.3891-4.0837 1.9984 3.9415-2.0714-4.7019 1.6062 4.5866-1.6907-5.1771 1.1652 5.0924-1.2587-5.495 0.68885 5.4434-0.7884-5.646 0.19155 5.629-0.29416-5.6254-0.31154 5.6436 0.209-5.4339-0.80522 5.4868 0.70585-5.0773-1.2744 5.1632 1.1812-4.5664-1.7049 4.6827 1.6207-3.9168-2.0835 4.06 2.011-3.1482-2.3989 3.3138 2.3401-2.2839-2.6414 2.467 2.5981-1.3502-2.8036 1.5453 2.7772-0.37564-2.8806 0.5766 2.872 0.61068-2.8701-0.40964 2.8794 1.5782-2.7724-1.3834 2.7994 2.4979-2.5904-2.3152 2.6343 3.3416-2.3298-3.1766 2.3891 4.0838-1.9984-3.9415 2.0714 4.7019-1.6062-4.5866 1.6907 5.1771-1.1652-5.0923 1.2587z" opacity=".36218" stroke-width="0"/>
    <ellipse id="path42494-9" cx="463.46" cy="197.99" rx="2.5336" ry="1.1435" fill="#202020"/>
    <ellipse id="path42494" cx="619.3" cy="199.65" rx="2.5336" ry="1.1435" fill="#202020"/>
    <path id="path53438" d="m596.36 171.82c1.707 0.43544 16.961 4.2688 18.63 4.7172 120.83 32.452 143.78 98.562 141.12 173.48" fill="none" stroke="#000" stroke-width=".6924"/>
    <path id="path53438-7" d="m567.36 168.5s32.075 7.145 41.928 9.6102c116.99 29.269 146.45 94.948 143.24 171.65" fill="none" opacity=".378" stroke="#000" stroke-dasharray="2.76958, 2.76958" stroke-dashoffset=".76164" stroke-width=".6924"/>
    <path id="path57550" d="m538.38 166.31c-140.63 5.5126-203.13 93.385-199.78 180.25" fill="none" stroke="#000" stroke-width=".6924"/>
    <path id="path57550-3" d="m540.61 166.42c-131.43 10.119-199.02 87.925-197.49 177.85" fill="none" opacity=".378" stroke="#000" stroke-dasharray="2.76958, 2.76958" stroke-width=".6924"/>
    <path id="path62210" d="m338.6 346.56-3.4492 11.459c-2.3273 6.1114 7.4847 3.0719 10.642 2.1218 35.399-10.72 137.15-40.077 200.05-37.875 66.437 2.3255 123.42 10.949 203.67 36.832 5.7159 1.9975 10.686 4.8165 8.5868-0.61832l-1.9842-8.4652" fill="none" opacity=".55" stroke="#000" stroke-dasharray="2.76958, 2.76958" stroke-width=".6924"/>
    <path id="path62210-6" d="m345.59 343.81-2.9012 8.6887c-2.2517 5.913 7.2417 2.9722 10.297 2.0528 34.25-10.372 132.69-37.904 193.55-35.773 64.28 2.25 119.41 9.7217 197.05 34.764 5.5303 1.9327 10.339 4.6601 8.308-0.59825l-1.3803-5.0301" fill="none" opacity=".55" stroke="#000" stroke-dasharray="2.67966, 2.67966" stroke-width=".66991"/>
   </g>
  </g>
 </g>
</svg>
