<?xml version="1.0" encoding="UTF-8"?>
<svg id="svg5" width="1200mm" height="1200mm" version="1.1" viewBox="0 0 1200 1200" xmlns="http://www.w3.org/2000/svg" xmlns:xlink="http://www.w3.org/1999/xlink">
 <g id="layer60" transform="translate(19.4 11.241)">
  <g id="layer23">
   <g id="layer267">
    <path id="path70997" d="m-28.532 961.33s216.28-166.04 503.71-44.747c258.23 108.97 190.02-26.236 349.16 95.596 103.17 78.981 329.76-95.485 362.98 17.914l-3.5586 78.414c-0.02 0.2076-315.03 43.076-474.48-62.731-130.84-86.819-219.45-49.448-219.45-49.461l-284.69-57.906-236.05 103.75z" fill="#b4e1ef"/>
    <path id="path61781" d="m937.52 1073.2c-2.3339-0.085-6.3611-0.2979-8.9492-0.4728-26.837-1.8137-47.872-5.4765-73.548-12.807-4.809-1.373-5.7246-1.7176-5.4058-2.0347 0.0742-0.074 3.0546 0.062 6.6231 0.3015 11.101 0.7454 14.181 0.854 26.197 0.9239 12.057 0.07 19.11-0.054 34.07-0.5985 4.8018-0.1749 9.915-0.2603 11.363-0.1897 2.8874 0.1406 17.201-0.6716 21.435-1.2164 1.272-0.1636 3.8512-0.4804 5.7315-0.7039 1.8804-0.2235 5.1383-0.6255 7.2398-0.8934 9.9526-1.2685 12.291-1.5486 18.393-2.2026 18.895-2.0253 25.658-2.9037 41.537-5.3947 25.196-3.9528 47.546-6.1101 77.728-7.5025 4.858-0.2242 9.0184-0.5107 9.9549-0.6857 1.5326-0.2864 5.7488-0.6076 15.083-1.1492 5.7739-0.3351 31.994-0.3331 38.612 0 5.2649 0.2672 11.098 0.6565 15.938 1.0636l2.8658 0.2411v12.13h-4.3741c-4.9843 0-22.252 0.4812-29.01 0.8071-17.089 0.8243-25.757 1.5175-43.841 3.5065-20.842 2.2922-35.276 4.399-58.924 8.6006-12.995 2.3088-25.191 4.1025-33.886 4.9838-27.921 2.8299-54.91 4.0164-74.832 3.2897zm-147.3-14.865c-10.632-3.6311-18.615-6.711-30.656-11.826-14.697-6.2439-28.244-12.845-54.6-26.606-20.078-10.483-27.726-14.39-35.898-18.341-11.416-5.5193-18.796-8.8546-27.451-12.407-4.9702-2.0398-5.5442-2.3254-5.2539-2.6141 0.23465-0.23342 1.7742-0.0844 9.7788 0.94639 4.8691 0.62702 9.1377 1.3645 15.755 2.7219 5.9424 1.219 18.718 4.5937 24.121 6.3716 6.7857 2.2329 13.259 4.6496 19.049 7.1113 6.7243 2.8592 17.254 8.3315 22.968 11.936 1.4608 0.9215 4.3551 2.6658 6.432 3.8761 6.0422 3.5211 12.437 7.6134 24.799 15.869 17.713 11.83 29.257 19.423 34.505 22.695 1.004 0.6259 1.9909 1.3198 2.1931 1.542 0.3609 0.3967 0.35674 0.404-0.22932 0.404-0.32826 0-2.8084-0.7553-5.5113-1.6785zm-814.47-78.84v-3.2993l2.4357-1.2146c1.3396-0.66802 4.1225-2.0074 6.184-2.9763 2.0616-0.96896 6.5085-3.09 9.8821-4.7134 11.579-5.5718 12.782-6.1501 17.907-8.6045 21.255-10.179 40.946-17.952 70.781-27.937 18.647-6.2408 34.912-10.753 59.628-16.54 40.68-9.5259 77.731-14.7 117.65-16.431 18.065-0.78306 40.395-0.69586 53.897 0.21045 25.128 1.6868 57.002 7.5893 82.152 15.213 5.4666 1.6571 13.014 4.1619 15.586 5.1727 1.3273 0.52161 4.4042 1.6024 6.8376 2.4016 10.334 3.3945 22.638 8.1154 41.327 15.857 19.403 8.0372 23.23 9.5698 34.691 13.893 17.357 6.5479 30.784 10.938 48.768 15.945 3.7733 1.0506 4.4243 1.2821 4.4243 1.5735 0 0.36449-13.992-0.26745-18.904-0.85382-3.879-0.46303-3.357-0.37787-14.077-2.2963-24.967-4.4677-39.631-7.9561-84.565-20.116-32.929-8.9112-40.933-10.884-58.847-14.503-22.9-4.6272-50.801-8.472-82.732-11.401-8.1034-0.74322-27.424-1.1227-36.468-0.71631-11.255 0.50576-20.203 1.2939-37.741 3.324-4.2031 0.48656-10.085 1.1585-13.072 1.4932-20.288 2.274-32.55 4.1782-39.92 6.1994-1.6038 0.43986-5.3142 1.256-8.2454 1.8136-8.1566 1.5517-16.987 3.4998-34.892 7.6982-2.9 0.68001-18.38 4.5222-28.859 7.1629-3.263 0.82226-7.4711 1.8646-9.3515 2.3163-4.374 1.0507-14.961 3.7358-22.826 5.7892-3.3736 0.8808-11.038 2.8265-17.033 4.3238-12.573 3.1406-19.541 5.0852-25.501 7.1175-11.821 4.0305-27.499 10.934-36.622 16.126-1.2283 0.69899-2.2916 1.2709-2.363 1.2709-0.07138 0-0.12979-1.4847-0.12979-3.2993z" fill="#7bbfd4" stroke-width=".20058"/>
    <path id="path61773" d="m883.29 1040.7c-61.786 1.188-116.52-28.769-170.67-54.277-76.959-25.938-159.76-31.07-235.44-61.829-77.499-32.684-162.03-53.655-246.61-42.584-88.287 9.2811-173.05 38.83-252.93 76.407-0.13628-80.286-0.05969-160.57-0.07985-240.86h1204.8c-0.3694 101.77 0.7363 205.02-0.5523 305.88-98.75-10.124-196.25 14.072-294.49 17.351l-4.0568-0.082z" fill="#4a90a5" stroke-width=".20043"/>
    <path id="path61771" d="m1093.2 924.54c-83.884-2.7163-168.63-7.2913-250.8-24.859-146.89-40.509-289.01-101.64-441.81-117.93-12.794-2.1754-67.901-5.4849-23.785-5.189 134.86-3.088 269.26 16.039 400.85 43.987 117.8 27.976 236.22 62.21 358.93 56.925 20.941-0.90188 45.382-0.87394 45.382-0.87394l0.2907 48.845c-17.779 3.0605-64.494-0.57043-89.063-0.90328zm-1116.1-66.138c-8.8564-27.017 21.313-26.031 39.611-33.641 98.908-36.445 206.02-41.329 310.3-33.436 119.82 5.6938 237.21 35.146 350.16 73.92-143.07-35.074-291.48-66.401-439.33-44.598-88.815 9.3681-176.25 29.654-260.74 58.13zm1106.9 3.3484c-147.6-4.0584-286.01-63.627-431.88-80.478-115.61-20.053-233.2-24.088-350.24-18.136-70.103 4.5948-140.47 10.488-209.56 23.431-39.348 8.3906-77.186 22.266-115.26 34.974v-103.6c401.76-0.14472 803.52-0.0348 1205.3 2e-5v142.77c-32.773 0.56601-65.549 1.6953-98.33 1.0415z" fill="#418398" stroke-width=".20046"/>
    <path id="path61767" d="m1129.6 829.55c-157.34-4.0072-301.38-80.566-457.94-90.739-129.41-10.117-259.39-3.6381-389.06-5.2108-102.8 1.8558-205.43 18.91-303.58 49.35-0.0277-3.8053-3.226-9.9154-0.34276-10.988 29.34-10.913 53.363-15.364 75.173-21.657 21.809-6.293 71.116-14.026 71.49-16.756-48.814-0.1549-97.629-0.24057-146.44-0.21117-2.617-8.2883-8.5173-12.568-4.7509-14.491 418.67-2.4819 848.93-0.94392 1208.2-0.91117 0.1832 8.1948-0.041 16.684-0.041 16.684-19.791 1.1464-70.691-1.2163-94.295-1.0994-18.04 0.0893-66.743-1.534-70.447 1.7135 54.021 11.692 109.6 16.836 164.79 12.256 0.2031 10.924 0.016 17.183 0.016 17.183-18.4 4.3105-64.714-0.69152-80.112-1.7334-55.312-3.7426-108.67-20.436-162.74-29.501-66.261 0.26825-132.68-0.64289-198.82 0.58593 144.75 23.761 292.09 90.563 441.56 81.618l0.1651 12.704s-11.682 1.5482-52.832 1.2037z" fill="#376e80" stroke-width=".20031"/>
    <path id="path61785" d="m-28.781 1113v-82.217l1.3626-0.92c428.15-117.77 746.85 157.78 1206.9 74.558l2.8765 0.2346v90.561h-1211.2z" fill="#e9c07b" stroke-width=".20095"/>
    <path id="path61779" d="m955.04 1194.7c-96.715-16.98-190.08-47.374-283.62-76.18-93.289-22.301-187.52-43.062-283.88-45.225-75.175-3.7035-218.98 13.07-233.21 17.523-23.985 7.5113 7.1358 13.048 4.247 27.475-1.3119 6.5521 13.113 12.294 14.393 21.246 4.1279 28.88-18.542 12.594-24.795 10.043-3.6919-1.5062-7.9264 10.835-12.507 16.452-9.6617 11.848-27.736-5.0822-23.828-26.549 0.97535-5.3584-8.9753-7.793-15.302-10.22-19.937-7.6503 6.9536-26.504 6.9536-26.504-23.962 9.3046-53.275 18.854-74.964 24.456-14.754 3.8104-68.012 32.249-53.588 1.7612 48.815-14.063 96.512-31.636 145.53-45.076 28.963-7.941 38.483-8.8953 77.226-15.402 64.746-10.873 130.54-12.348 196-10.114-60.089-9.7283-121.95-6.4705-182.61-3.6271-81.198 9.8985-160.87 29.916-238.52 55.211v-79.185c69.773-42.736 143.86-88.656 227.77-93.971 75.65 4.0372 146.33 38.778 222.5 41.228 80.317 7.7802 166.61-5.6122 239.82 35.922 61.546 36.243 126.65 69.853 198.93 77.99 106.31 14.26 213.93 7.8656 320.78 12.704-0.3117 22.083 0.6121 45.167-0.4537 66.64-112.26 8.3309-224.97-0.378-336.02-16.19 109.36 29.499 223.16 43.819 336.48 35.711-5.52 9.9049-29.26 1.7303-42.076 4.3954-61.737-0.3366-123.61 0.6339-185.27-0.5147z" fill="#d3b078" stroke-width=".20084"/>
    <path id="path61777" d="m1046.2 1166.8c-3.605-0.8728-5.3974-4.5333-6.0711-7.8701-0.9439-1.053-2.9472 1.573-4.6322 0.9349-4.4416 0.3504-8.7775-3.5439-8.4616-8.081-0.015-1.4879-0.013-2.976-0.02-4.4639-1.7538 0.2858-3.9912 0.042-4.6505-1.9069-1.0834-4.5488 1.6171-8.7324 3.5423-12.636 0.8417-1.5804 1.7485-3.1246 2.6314-4.682-1.1198-1.8448-1.8809-4.3717-0.1824-6.149 2.5393-2.6786 6.4936-2.9809 9.9145-3.6836 3.8777-0.5121 7.8648-1.2164 11.757-0.5354 2.6879 0.6455 3.6077 3.5449 3.313 6.0022 4.8206 2.9119 9.5746 6.1199 13.458 10.23 2.1502 2.5287 3.8313 6.4854 1.5873 9.4723-0.6464 1.9656-3.8414 1.7221-4.2558 3.1664 0.926 2.9668 1.1305 6.53-0.5045 9.2886-1.424 2.3923-4.3786 2.7251-6.8241 2.0187-0.9725 2.279-1.1998 5.6165-3.6218 7.3193-1.8784 1.7976-4.5481 2.0723-6.979 1.5754z" fill="#9d67b1" stroke-width=".20005"/>
    <path id="path61777-9" transform="matrix(.26458 0 0 .26458 -19.4 -11.241)" d="m4028.6 4261.3c-2.8834 0.02-5.753 0.1629-8.6055 0.3867-0.01 6e-4 -0.016 0-0.023 0-7.6207 0.6012-15.106 1.7794-22.369 2.7383l-0.1308 0.037-0.1328 0.037c-12.576 2.5833-28.61 3.5868-39.457 15.029-4.0127 4.2077-5.1966 9.6333-4.664 14.529 0.4376 4.0233 2.2097 7.5557 3.9921 10.894-3.0651 5.3794-6.208 10.763-9.1757 16.336l-0.074 0.106c-7.13 14.457-18.216 31.231-13.672 50.309l0.037 0.1699 0.061 0.1621c1.6464 4.8673 5.6194 7.8962 9.6934 9.168 2.5984 0.8115 5.1318 0.4371 7.6992 0.3555 0 4.3675 0 8.7388 0.059 13.133-1.3358 19.666 16.903 36.036 36.055 34.525l0.2305-0.037 0.2187-0.047c8.2303-1.6611 11.614-3.4516 13.629-4.502 1.4162 6.0779 3.6299 12.334 7.3301 17.76 4.1023 6.0159 10.008 11.026 17.856 12.926l0.1328 0.039c9.8808 2.0197 21.228 0.9373 29.461-6.7325 9.7489-6.9978 11.372-18.532 13.967-26.34 4.1465 0.7536 8.4403 1.0057 12.623 0 5.4119-1.3013 10.573-4.5075 13.812-9.9492 6.6395-11.203 5.8076-24.775 2.539-36.312 0.1172-0.2495 0.1698-0.4629 0.5977-0.7754 0.6036-0.4418 1.7342-0.9993 3.2324-1.6758 2.9964-1.3527 7.3908-3.3212 11.228-7.7734l0.086-0.094 0.076-0.1016c4.9943-6.6478 5.6079-14.591 3.875-21.711s-5.637-13.659-10.016-18.809l-0.068-0.076-0.068-0.074c-14.563-15.414-32.155-27.341-49.873-38.129 0.1966-4.5483-0.3506-9.2399-2.3613-13.471-2.3807-5.0071-6.7801-9.333-13.014-10.83l-0.1172-0.037-0.1171-0.039c-4.8681-0.8518-9.726-1.1608-14.547-1.127zm0.019 7.5918c4.4346-0.038 8.8101 0.2336 13.107 0.9746 3.8688 0.9581 6.2718 3.3054 7.877 6.6817 1.1392 2.3954 1.7394 5.2983 1.834 8.205l-0.068-0.086c1.692 6.2983-25.972 8.3523-48.766 12.184-18.881 3.1737-36.384 6.0944-39.617 3.6894-1.1654-2.4184-2.0294-4.9737-2.2852-7.3242-0.359-3.2965 0.2316-5.9958 2.6289-8.5039 8.3188-8.7749 22.118-10.084 35.359-12.793 7.3395-0.971 14.656-2.0749 21.857-2.6426l0.031-0.016c2.6984-0.2124 5.3802-0.3462 8.041-0.3691zm26.637 24.506c17.317 10.566 34.12 22.141 47.83 36.631 3.7236 4.3983 7.0308 10.082 8.3789 15.621 1.344 5.5215 0.8807 10.647-2.5254 15.258-2.4531 2.7995-5.0141 4.1405-7.6875 5.3692-3.3829-0.547-11.721-2.4257-14.932-6.418l-44.076-63.027zm-21.389 4.666c18.144 26.734 43.134 48.19 60.148 85.893 1.4197 8.558 0.7896 17.513-3.3457 24.49-2.143 3.6-5.2522 5.5387-9.0801 6.459-0.5975 0.1436-1.2153 0.2493-1.8418 0.3359-3.2604-0.04-8.156-1.4845-11.146-8.164-2.8885-6.4518-2.8668-8.2053-4.8496-13.604-3.9655-10.797-9.2021-24.584-14.484-38.373-5.2822-13.789-10.606-27.578-14.748-38.348-3.0606-7.9581-5.5306-14.473-6.7578-17.791zm-13.756 2.0254c1.1027 3.158 3.7213 9.9466 7.3496 19.381 4.1458 10.78 9.473 24.559 14.75 38.334 5.277 13.775 10.506 27.545 14.447 38.275 5.2904 19.648 4.7468 23.989 4.1758 31.637-1.9156 6.0762-4.0004 11.651-8.5723 14.865l-0.2305 0.1621-0.207 0.2011c-5.9282 5.6731-14.571 6.6761-22.936 4.9825-5.7433-1.4102-10.017-4.9505-13.332-9.8106-1.869-2.7404-3.3748-5.8943-4.5586-9.1797 0.018-0.273 0.019-0.5877-0.029-1.0039-0.6676-5.8171-0.2494-19.338-0.059-25.301 0.3825-11.925-0.1877-27.214-1.1133-42.379-1.6504-27.101-4.3123-52.558-4.8867-57.928 6.5969-0.7398 11.181-1.4977 15.201-2.2363zm-22.688 3.3379c0.628 5.9062 3.2101 30.817 4.8223 57.285 0.9161 15.045-0.101 31.001-0.4688 42.473-0.115 5.9398-0.5286 12.929-7.8633 16.73-1.7423 0.5368-3.9319 1.1094-6.7929 1.7012-14.344 1.0084-28.739-11.94-27.727-26.484v-0.2949c-0.01-0.981-0.01-1.9667-0.016-2.9492 2.7807-14.484 14.218-36.582 19.686-54.965 2.7746-9.3287 5.0379-18.043 6.5489-24.44 0.7416-3.1396 1.3039-5.7035 1.6601-7.5644 3.0265-0.3954 4.7662-0.4232 10.15-1.4922zm-18.109 2.664c-0.2894 1.3432-0.6364 2.8936-1.0527 4.6563-1.4755 6.2468-3.7095 14.849-6.4375 24.022-4.6525 15.642-8.1787 34.581-15.924 39.344l-0.9786 0.1582c-2.8939 0.4717-6.173 0.4421-8.6074-0.3183-2.3743-0.7416-3.8392-1.8592-4.6953-4.2305-3.5221-15.239 5.7201-30.027 13.111-45.014 2.9121-5.4612 6.0601-10.867 9.1817-16.352z" color="#000000" fill="#9255aa" stroke-width="3.7795" style="-inkscape-stroke:none"/>
    <path id="path61775" d="m131.65 1160c-4.0176-1.8524-4.8915-6.8939-5.4511-10.836-0.45843-5.5632 0.43242-11.268-0.82665-16.735-1.02-4.2561-6.1235-4.436-9.6046-5.3253-5.8719-0.9344-12.835-3.4102-14.541-9.7968-1.2513-5.701 3.8466-10.727 8.8108-12.578 5.4998-2.5931 11.979-2.4184 17.244-5.4953 1.8412-4.128 0.80787-9.0581 1.9031-13.455 0.84574-5.285 3.2564-11.561 9.1237-12.788 6.6654-0.7209 11.622 5.089 14.227 10.546 2.1529 3.0259 3.3956 8.9324 8.0745 8.4164 6.403-0.1513 13.573-3.3878 19.37 0.8471 3.8605 3.3889 4.757 9.6417 2.7871 14.278-2.6317 5.1642-8.1136 8.1823-10.851 13.23 0.86694 5.1437 6.2095 8.7386 7.5976 13.995 2.0667 4.4913 1.3122 10.63-3.2572 13.278-4.3328 3.1122-9.8605 1.1006-14.033-1.243-3.5536-1.2831-7.5761-5.0127-11.389-2.942-4.1232 5.4096-5.8577 13.059-12.431 16.263-2.0757 0.9401-4.6079 1.1595-6.7533 0.3409z" fill="#e27831"/>
    <path id="path72771" d="m1182.8 1068.6c-58.897-5.4627-105.17 10.922-162.34 17.483 53.354 5.3216 107.66 3.9887 161.51 5.8277z" fill="#c7ecf8"/>
    <path id="path74762" d="m286.13 935.66c48.665 10.981 97.33 24.998 145.99 26.785-70.525-19.338-116.65-27.055-145.99-26.785z" fill="#c7ecf8"/>
    <path id="path78048" d="m-26.73 1014.2-0.48075-13.112c24.106-13.599 40.438-15.877 67.545-23.103-22.031 11.792-44.392 23.868-67.064 36.215z" fill="#c7ecf8"/>
    <path id="path87137" d="m133.1 1159.5c-4.0176-1.8524-4.8915-6.8939-5.4511-10.836-0.45843-5.5632 0.43242-11.268-0.82665-16.735-1.02-4.2561-6.1235-4.436-9.6046-5.3253-5.8719-0.9344-12.835-3.4102-14.541-9.7968-1.2513-5.701 3.8466-10.727 8.8108-12.578 5.4998-2.5931 11.979-2.4184 17.244-5.4953 1.8412-4.128 0.80787-9.0581 1.9031-13.455 0.84574-5.285 3.2564-11.561 9.1237-12.788 6.6654-0.7209 11.622 5.089 14.227 10.546 2.1529 3.0259 3.3956 8.9324 8.0745 8.4164 6.403-0.1513 13.573-3.3878 19.37 0.8471 3.8605 3.3889 4.757 9.6417 2.7871 14.278-2.6317 5.1642-8.1136 8.1823-10.851 13.23 0.86694 5.1437 6.2095 8.7386 7.5976 13.995 2.0667 4.4913 1.3122 10.63-3.2572 13.278-4.3328 3.1122-9.8605 1.1006-14.033-1.243-3.5536-1.2831-7.5761-5.0127-11.389-2.942-4.1232 5.4096-5.8577 13.059-12.431 16.263-2.0757 0.9401-4.6079 1.1595-6.7533 0.3409z" fill="#e97d35" stroke="#d16c29" stroke-miterlimit="3.9" stroke-width="2"/>
    <ellipse id="path87844" cx="158.57" cy="1098.6" rx="2.7057" ry="2.6017" fill="#d16c29" fill-rule="evenodd" style="paint-order:stroke markers fill"/>
    <ellipse id="path87844-2" cx="139.84" cy="1139.8" rx="2.7057" ry="2.6017" fill="#d16c29" fill-rule="evenodd" style="paint-order:stroke markers fill"/>
    <ellipse id="path87846" cx="166.67" cy="1098.7" rx="1.7691" ry="1.6651" fill="#d16c29" fill-rule="evenodd" style="paint-order:stroke markers fill"/>
    <ellipse id="path87846-1" cx="157.35" cy="1135.4" rx="1.7691" ry="1.6651" fill="#d16c29" fill-rule="evenodd" style="paint-order:stroke markers fill"/>
    <ellipse id="path87846-3" cx="149.26" cy="1134.1" rx="1.7691" ry="1.6651" fill="#d16c29" fill-rule="evenodd" style="paint-order:stroke markers fill"/>
    <ellipse id="path87846-0" cx="146.17" cy="1129" rx="1.7691" ry="1.6651" fill="#d16c29" fill-rule="evenodd" style="paint-order:stroke markers fill"/>
    <circle id="path87848" cx="150.68" cy="1100.8" r="1.6335" fill="#d16c29" fill-rule="evenodd" style="paint-order:stroke markers fill"/>
    <ellipse id="path87850" cx="152.31" cy="1090.6" rx="1.5883" ry="1.664" fill="#d16c29" fill-rule="evenodd" style="paint-order:stroke markers fill"/>
    <ellipse id="path87846-8" cx="139.4" cy="1150.4" rx="1.7691" ry="1.6651" fill="#d16c29" fill-rule="evenodd" style="paint-order:stroke markers fill"/>
    <ellipse id="ellipse108714" cx="567.23" cy="1162.4" rx="139.32" ry="19.844" fill-rule="evenodd" opacity=".095528" style="paint-order:fill markers stroke"/>
   </g>
  </g>
 </g>
</svg>
