<?xml version="1.0" encoding="UTF-8"?>
<svg id="svg5" width="1200mm" height="1200mm" version="1.1" viewBox="0 0 1200 1200" xmlns="http://www.w3.org/2000/svg" xmlns:xlink="http://www.w3.org/1999/xlink">
 <g id="layer60" transform="translate(19.4 11.241)">
  <g id="layer214">
   <g id="layer191" transform="translate(-19.4 -11.241)">
    <path id="path322234-2" d="m563.52 763.94-10.086-41.934c15.639 5.6282 26.762 12.347 51.377 15.808l-16.949 88.357-21.854-46.321-2.4891-15.908" fill="#020012" stroke="#000" stroke-width="2.5"/>
    <path id="path322234" d="m561.22 788.88-10.086-41.934c15.639 5.6282 26.762 12.347 51.377 15.808l-16.949 88.357-21.854-46.321-2.4891-15.908" fill="#b2a7ff" stroke="#000" stroke-width="2.5"/>
    <path id="path337210-17" transform="matrix(-.016151 -.26161 .28171 -.014328 -137.27 1286.3)" d="m2162.1 2771.5c-4.03 4.4401-54.834-49.327-59.51-45.572-4.6751 3.755 36.869 64.96 31.664 67.938-5.2048 2.9775-36.908-63.858-42.514-61.731-5.6066 2.1266 14.99 73.174 9.1201 74.398-5.8702 1.2234-15.368-72.137-21.358-71.847-5.9893 0.29-8.3553 74.225-14.316 73.575s7.6753-73.356 1.8895-74.931-30.883 68.01-36.351 65.55 29.968-67.394 24.952-70.679-50.388 55.138-54.828 51.108c-4.4402-4.0301 49.327-54.835 45.572-59.51s-64.96 36.869-67.938 31.664 63.857-36.908 61.731-42.514c-2.1266-5.6065-73.174 14.99-74.398 9.1202-1.2233-5.8702 72.137-15.368 71.847-21.358s-74.225-8.3554-73.574-14.316c0.6505-5.961 73.356 7.6753 74.931 1.8895s-68.01-30.883-65.55-36.351 67.394 29.968 70.679 24.952c3.2859-5.016-55.138-50.388-51.108-54.828 4.03-4.4402 54.834 49.327 59.51 45.572 4.675-3.7551-36.869-64.96-31.664-67.938 5.2049-2.9775 36.908 63.857 42.514 61.731s-14.99-73.174-9.1201-74.398c5.8702-1.2234 15.368 72.137 21.358 71.847 5.9893-0.29 8.3553-74.225 14.316-73.575s-7.6754 73.356-1.8895 74.931c5.7858 1.575 30.883-68.01 36.351-65.55s-29.968 67.394-24.952 70.679c5.0159 3.2858 50.388-55.138 54.828-51.108 4.4402 4.03-49.327 54.834-45.572 59.51s64.96-36.869 67.938-31.664-63.857 36.908-61.731 42.514 73.174-14.99 74.398-9.1202c1.2234 5.8703-72.137 15.368-71.847 21.358 0.2901 5.9894 74.225 8.3554 73.575 14.316-0.6505 5.9609-73.356-7.6754-74.931-1.8896-1.575 5.7859 68.01 30.883 65.55 36.352s-67.394-29.968-70.679-24.952c-3.2858 5.0159 55.138 50.388 51.108 54.828z" fill="#ffcf00"/>
    <path id="path337210-1-8" transform="matrix(-.068108 -.25463 .27419 -.060419 -10.255 1396.7)" d="m2162.1 2771.5c-4.03 4.4401-54.834-49.327-59.51-45.572-4.6751 3.755 36.869 64.96 31.664 67.938-5.2048 2.9775-36.908-63.858-42.514-61.731-5.6066 2.1266 14.99 73.174 9.1201 74.398-5.8702 1.2234-15.368-72.137-21.358-71.847-5.9893 0.29-8.3553 74.225-14.316 73.575s7.6753-73.356 1.8895-74.931-30.883 68.01-36.351 65.55 29.968-67.394 24.952-70.679-50.388 55.138-54.828 51.108c-4.4402-4.0301 49.327-54.835 45.572-59.51s-64.96 36.869-67.938 31.664 63.857-36.908 61.731-42.514c-2.1266-5.6065-73.174 14.99-74.398 9.1202-1.2233-5.8702 72.137-15.368 71.847-21.358s-74.225-8.3554-73.574-14.316c0.6505-5.961 73.356 7.6753 74.931 1.8895s-68.01-30.883-65.55-36.351 67.394 29.968 70.679 24.952c3.2859-5.016-55.138-50.388-51.108-54.828 4.03-4.4402 54.834 49.327 59.51 45.572 4.675-3.7551-36.869-64.96-31.664-67.938 5.2049-2.9775 36.908 63.857 42.514 61.731s-14.99-73.174-9.1201-74.398c5.8702-1.2234 15.368 72.137 21.358 71.847 5.9893-0.29 8.3553-74.225 14.316-73.575s-7.6754 73.356-1.8895 74.931c5.7858 1.575 30.883-68.01 36.351-65.55s-29.968 67.394-24.952 70.679c5.0159 3.2858 50.388-55.138 54.828-51.108 4.4402 4.03-49.327 54.834-45.572 59.51s64.96-36.869 67.938-31.664-63.857 36.908-61.731 42.514 73.174-14.99 74.398-9.1202c1.2234 5.8703-72.137 15.368-71.847 21.358 0.2901 5.9894 74.225 8.3554 73.575 14.316-0.6505 5.9609-73.356-7.6754-74.931-1.8896-1.575 5.7859 68.01 30.883 65.55 36.352s-67.394-29.968-70.679-24.952c-3.2858 5.0159 55.138 50.388 51.108 54.828z" fill="#ffcf00"/>
    <path id="path337210-1-1-5" transform="matrix(-.03534 -.26005 .28003 -.031351 -93.836 1328.8)" d="m2162.1 2771.5c-4.03 4.4401-54.834-49.327-59.51-45.572-4.6751 3.755 36.869 64.96 31.664 67.938-5.2048 2.9775-36.908-63.858-42.514-61.731-5.6066 2.1266 14.99 73.174 9.1201 74.398-5.8702 1.2234-15.368-72.137-21.358-71.847-5.9893 0.29-8.3553 74.225-14.316 73.575s7.6753-73.356 1.8895-74.931-30.883 68.01-36.351 65.55 29.968-67.394 24.952-70.679-50.388 55.138-54.828 51.108c-4.4402-4.0301 49.327-54.835 45.572-59.51s-64.96 36.869-67.938 31.664 63.857-36.908 61.731-42.514c-2.1266-5.6065-73.174 14.99-74.398 9.1202-1.2233-5.8702 72.137-15.368 71.847-21.358s-74.225-8.3554-73.574-14.316c0.6505-5.961 73.356 7.6753 74.931 1.8895s-68.01-30.883-65.55-36.351 67.394 29.968 70.679 24.952c3.2859-5.016-55.138-50.388-51.108-54.828 4.03-4.4402 54.834 49.327 59.51 45.572 4.675-3.7551-36.869-64.96-31.664-67.938 5.2049-2.9775 36.908 63.857 42.514 61.731s-14.99-73.174-9.1201-74.398c5.8702-1.2234 15.368 72.137 21.358 71.847 5.9893-0.29 8.3553-74.225 14.316-73.575s-7.6754 73.356-1.8895 74.931c5.7858 1.575 30.883-68.01 36.351-65.55s-29.968 67.394-24.952 70.679c5.0159 3.2858 50.388-55.138 54.828-51.108 4.4402 4.03-49.327 54.834-45.572 59.51s64.96-36.869 67.938-31.664-63.857 36.908-61.731 42.514 73.174-14.99 74.398-9.1202c1.2234 5.8703-72.137 15.368-71.847 21.358 0.2901 5.9894 74.225 8.3554 73.575 14.316-0.6505 5.9609-73.356-7.6754-74.931-1.8896-1.575 5.7859 68.01 30.883 65.55 36.352s-67.394-29.968-70.679-24.952c-3.2858 5.0159 55.138 50.388 51.108 54.828z" fill="#ffcf00"/>
    <path id="path337210-1-5-0" transform="matrix(-.13368 -.23224 .25008 -.11859 193.79 1506.8)" d="m2162.1 2771.5c-4.03 4.4401-54.834-49.327-59.51-45.572-4.6751 3.755 36.869 64.96 31.664 67.938-5.2048 2.9775-36.908-63.858-42.514-61.731-5.6066 2.1266 14.99 73.174 9.1201 74.398-5.8702 1.2234-15.368-72.137-21.358-71.847-5.9893 0.29-8.3553 74.225-14.316 73.575s7.6753-73.356 1.8895-74.931-30.883 68.01-36.351 65.55 29.968-67.394 24.952-70.679-50.388 55.138-54.828 51.108c-4.4402-4.0301 49.327-54.835 45.572-59.51s-64.96 36.869-67.938 31.664 63.857-36.908 61.731-42.514c-2.1266-5.6065-73.174 14.99-74.398 9.1202-1.2233-5.8702 72.137-15.368 71.847-21.358s-74.225-8.3554-73.574-14.316c0.6505-5.961 73.356 7.6753 74.931 1.8895s-68.01-30.883-65.55-36.351 67.394 29.968 70.679 24.952c3.2859-5.016-55.138-50.388-51.108-54.828 4.03-4.4402 54.834 49.327 59.51 45.572 4.675-3.7551-36.869-64.96-31.664-67.938 5.2049-2.9775 36.908 63.857 42.514 61.731s-14.99-73.174-9.1201-74.398c5.8702-1.2234 15.368 72.137 21.358 71.847 5.9893-0.29 8.3553-74.225 14.316-73.575s-7.6754 73.356-1.8895 74.931c5.7858 1.575 30.883-68.01 36.351-65.55s-29.968 67.394-24.952 70.679c5.0159 3.2858 50.388-55.138 54.828-51.108 4.4402 4.03-49.327 54.834-45.572 59.51s64.96-36.869 67.938-31.664-63.857 36.908-61.731 42.514 73.174-14.99 74.398-9.1202c1.2234 5.8703-72.137 15.368-71.847 21.358 0.2901 5.9894 74.225 8.3554 73.575 14.316-0.6505 5.9609-73.356-7.6754-74.931-1.8896-1.575 5.7859 68.01 30.883 65.55 36.352s-67.394-29.968-70.679-24.952c-3.2858 5.0159 55.138 50.388 51.108 54.828z" fill="#ffcf00"/>
    <path id="path337210-7-3" transform="matrix(.00026976 -.26202 .28215 .00023931 -172.84 1247.8)" d="m2162.1 2771.5c-4.03 4.4401-54.834-49.327-59.51-45.572-4.6751 3.755 36.869 64.96 31.664 67.938-5.2048 2.9775-36.908-63.858-42.514-61.731-5.6066 2.1266 14.99 73.174 9.1201 74.398-5.8702 1.2234-15.368-72.137-21.358-71.847-5.9893 0.29-8.3553 74.225-14.316 73.575s7.6753-73.356 1.8895-74.931-30.883 68.01-36.351 65.55 29.968-67.394 24.952-70.679-50.388 55.138-54.828 51.108c-4.4402-4.0301 49.327-54.835 45.572-59.51s-64.96 36.869-67.938 31.664 63.857-36.908 61.731-42.514c-2.1266-5.6065-73.174 14.99-74.398 9.1202-1.2233-5.8702 72.137-15.368 71.847-21.358s-74.225-8.3554-73.574-14.316c0.6505-5.961 73.356 7.6753 74.931 1.8895s-68.01-30.883-65.55-36.351 67.394 29.968 70.679 24.952c3.2859-5.016-55.138-50.388-51.108-54.828 4.03-4.4402 54.834 49.327 59.51 45.572 4.675-3.7551-36.869-64.96-31.664-67.938 5.2049-2.9775 36.908 63.857 42.514 61.731s-14.99-73.174-9.1201-74.398c5.8702-1.2234 15.368 72.137 21.358 71.847 5.9893-0.29 8.3553-74.225 14.316-73.575s-7.6754 73.356-1.8895 74.931c5.7858 1.575 30.883-68.01 36.351-65.55s-29.968 67.394-24.952 70.679c5.0159 3.2858 50.388-55.138 54.828-51.108 4.4402 4.03-49.327 54.834-45.572 59.51s64.96-36.869 67.938-31.664-63.857 36.908-61.731 42.514 73.174-14.99 74.398-9.1202c1.2234 5.8703-72.137 15.368-71.847 21.358 0.2901 5.9894 74.225 8.3554 73.575 14.316-0.6505 5.9609-73.356-7.6754-74.931-1.8896-1.575 5.7859 68.01 30.883 65.55 36.352s-67.394-29.968-70.679-24.952c-3.2858 5.0159 55.138 50.388 51.108 54.828z" fill="#ffc700"/>
    <path id="path337210-9-0" transform="matrix(.051056 -.25789 .27771 .045293 -266.1 1117.9)" d="m2162.1 2771.5c-4.03 4.4401-54.834-49.327-59.51-45.572-4.6751 3.755 36.869 64.96 31.664 67.938-5.2048 2.9775-36.908-63.858-42.514-61.731-5.6066 2.1266 14.99 73.174 9.1201 74.398-5.8702 1.2234-15.368-72.137-21.358-71.847-5.9893 0.29-8.3553 74.225-14.316 73.575s7.6753-73.356 1.8895-74.931-30.883 68.01-36.351 65.55 29.968-67.394 24.952-70.679-50.388 55.138-54.828 51.108c-4.4402-4.0301 49.327-54.835 45.572-59.51s-64.96 36.869-67.938 31.664 63.857-36.908 61.731-42.514c-2.1266-5.6065-73.174 14.99-74.398 9.1202-1.2233-5.8702 72.137-15.368 71.847-21.358s-74.225-8.3554-73.574-14.316c0.6505-5.961 73.356 7.6753 74.931 1.8895s-68.01-30.883-65.55-36.351 67.394 29.968 70.679 24.952c3.2859-5.016-55.138-50.388-51.108-54.828 4.03-4.4402 54.834 49.327 59.51 45.572 4.675-3.7551-36.869-64.96-31.664-67.938 5.2049-2.9775 36.908 63.857 42.514 61.731s-14.99-73.174-9.1201-74.398c5.8702-1.2234 15.368 72.137 21.358 71.847 5.9893-0.29 8.3553-74.225 14.316-73.575s-7.6754 73.356-1.8895 74.931c5.7858 1.575 30.883-68.01 36.351-65.55s-29.968 67.394-24.952 70.679c5.0159 3.2858 50.388-55.138 54.828-51.108 4.4402 4.03-49.327 54.834-45.572 59.51s64.96-36.869 67.938-31.664-63.857 36.908-61.731 42.514 73.174-14.99 74.398-9.1202c1.2234 5.8703-72.137 15.368-71.847 21.358 0.2901 5.9894 74.225 8.3554 73.575 14.316-0.6505 5.9609-73.356-7.6754-74.931-1.8896-1.575 5.7859 68.01 30.883 65.55 36.352s-67.394-29.968-70.679-24.952c-3.2858 5.0159 55.138 50.388 51.108 54.828z" fill="#ffcf00"/>
    <path id="path338511-8" d="m583.93 752.49s11.189-4.0274 14.233-8.6754c3.6906-5.635 2.7453-20.021 2.7453-20.021s-11.575 5.9405-14.658 11.28c-2.9288 5.0719-2.3198 17.417-2.3198 17.417s4.0278 4.5034 6.6519 5.8637c4.9178 2.5494 16.165 3.8534 16.165 3.8534-6.8148-12.534-14.977-9.2334-22.817-9.7171" fill="#004512" stroke="#000" stroke-width=".26458px"/>
    <path id="path337210-73-8" transform="matrix(.029448 -.26066 .28068 .026124 -230.25 1174.7)" d="m2162.1 2771.5c-4.03 4.4401-54.834-49.327-59.51-45.572-4.6751 3.755 36.869 64.96 31.664 67.938-5.2048 2.9775-36.908-63.858-42.514-61.731-5.6066 2.1266 14.99 73.174 9.1201 74.398-5.8702 1.2234-15.368-72.137-21.358-71.847-5.9893 0.29-8.3553 74.225-14.316 73.575s7.6753-73.356 1.8895-74.931-30.883 68.01-36.351 65.55 29.968-67.394 24.952-70.679-50.388 55.138-54.828 51.108c-4.4402-4.0301 49.327-54.835 45.572-59.51s-64.96 36.869-67.938 31.664 63.857-36.908 61.731-42.514c-2.1266-5.6065-73.174 14.99-74.398 9.1202-1.2233-5.8702 72.137-15.368 71.847-21.358s-74.225-8.3554-73.574-14.316c0.6505-5.961 73.356 7.6753 74.931 1.8895s-68.01-30.883-65.55-36.351 67.394 29.968 70.679 24.952c3.2859-5.016-55.138-50.388-51.108-54.828 4.03-4.4402 54.834 49.327 59.51 45.572 4.675-3.7551-36.869-64.96-31.664-67.938 5.2049-2.9775 36.908 63.857 42.514 61.731s-14.99-73.174-9.1201-74.398c5.8702-1.2234 15.368 72.137 21.358 71.847 5.9893-0.29 8.3553-74.225 14.316-73.575s-7.6754 73.356-1.8895 74.931c5.7858 1.575 30.883-68.01 36.351-65.55s-29.968 67.394-24.952 70.679c5.0159 3.2858 50.388-55.138 54.828-51.108 4.4402 4.03-49.327 54.834-45.572 59.51s64.96-36.869 67.938-31.664-63.857 36.908-61.731 42.514 73.174-14.99 74.398-9.1202c1.2234 5.8703-72.137 15.368-71.847 21.358 0.2901 5.9894 74.225 8.3554 73.575 14.316-0.6505 5.9609-73.356-7.6754-74.931-1.8896-1.575 5.7859 68.01 30.883 65.55 36.352s-67.394-29.968-70.679-24.952c-3.2858 5.0159 55.138 50.388 51.108 54.828z" fill="#f2d34e"/>
    <ellipse id="path330563-3" transform="matrix(-.06162 -.9981 .99871 -.050795 0 0)" cx="-732.31" cy="544.59" rx="11.276" ry="12.156" fill="#341200" stroke="#341200" stroke-linecap="round" stroke-linejoin="round" stroke-width="1.9486"/>
    <ellipse id="path329747-3" transform="matrix(-.06162 -.9981 .99871 -.050795 0 0)" cx="-732.23" cy="544.5" rx="8.9638" ry="9.6102" fill="#231812" stroke="#402206" stroke-linecap="round" stroke-linejoin="round" stroke-width="1.9486"/>
    <path id="path338513" d="m585.68 706.9c0.64529-3.0087 1.1567-6.1246 3.5413-7.7418 4.2212 1.6146 4.3545 4.7008 5.8353 7.3018l-7.2806 12.434c-1.0731-3.6609-3.2164-6.3586-2.096-11.994" fill="#00761e" stroke="#000" stroke-width=".26458px"/>
    <path id="path337210-3-1" d="m554.84 708.3c0.0668 0.45686 1.957 0.42493 4.4884 0.22098-1.9369 0.48009-3.2138 0.93048-3.1266 1.3205 0.11692 0.5234 2.5814 0.22272 5.7183-0.31324-2.935 0.79982-5.1665 1.5314-5.021 2.0338 0.0969 0.33478 1.161 0.27096 2.7192 5e-3 -1.9201 0.71118-3.1911 1.3196-3.0489 1.7044 0.0897 0.24243 0.70861 0.22649 1.6265 0.0654-0.43927 0.2629-0.66799 0.4889-0.60211 0.66234 0.0939 0.24706 0.73941 0.21396 1.6988 0.0217-1.2032 0.6263-1.9308 1.1342-1.7922 1.4256 0.13994 0.29415 1.0492 0.12508 2.3758-0.29474 0.23099 0.045 0.6276 2e-3 1.1126-0.088-2.0405 0.99683-3.4491 1.8233-3.2456 2.2165 0.28107 0.54312 3.104-0.51992 6.5288-1.9619-2.7309 1.5249-4.7906 2.8134-4.5054 3.2773 0.30494 0.4961 2.8052-0.64158 5.8872-2.2108-2.8239 1.7705-4.976 3.263-4.6474 3.7328 0.16177 0.23122 0.82406 0.0444 1.7801-0.38734-1.0748 0.89147-1.7028 1.5648-1.4902 1.828 0.1812 0.22434 0.84168-9e-3 1.7875-0.51399-0.55575 0.54668-0.85468 0.96305-0.70066 1.149 0.15593 0.18828 0.67647 0.0198 1.4019-0.34953-0.66702 0.71754-1.0195 1.2456-0.82672 1.4451 0.22684 0.23466 1.0087-0.16353 2.0988-0.9138-0.21206 0.27272-0.30973 0.48426-0.27172 0.62364-0.98322 1.0222-1.5431 1.7761-1.2946 2.0191 0.57622 0.56369 4.2511-2.6116 7.9927-5.8634-3.1461 3.2481-5.9815 6.2632-5.4137 6.7427 0.47908 0.40455 2.6576-1.5943 5.2374-4.1582-2.2994 2.7145-4.0486 4.9678-3.5502 5.343 0.20048 0.15094 0.66604-0.12487 1.2811-0.64065-0.51033 0.88247-0.73961 1.4966-0.49448 1.6574 0.24807 0.16268 0.8011-0.25242 1.5368-1.0129-0.43555 0.79903-0.63037 1.3617-0.39981 1.5077 0.22111 0.14004 0.69077-0.20093 1.2994-0.81168-0.31798 0.74537-0.44001 1.267-0.21239 1.3891 0.28493 0.15282 0.86513-0.40076 1.6174-1.3662-0.81616 1.6219-1.2354 2.7638-0.86492 2.952 0.35984 0.18279 1.1302-0.71779 2.1068-2.1605 0.75632-0.78339 1.769-2.114 2.8904-3.6763-1.5061 3.2161-2.6135 5.8653-2.0235 6.1125 0.61076 0.25585 2.0992-2.4678 3.7685-5.802-1.3689 3.4355-2.3972 6.3202-1.7727 6.5437 0.23624 0.0845 0.5783-0.29586 0.98077-0.93937-0.13047 0.80249-0.12296 1.3433 0.13104 1.4169 0.27538 0.0797 0.64123-0.43193 1.0587-1.2835-0.16082 0.9199-0.16273 1.5313 0.11223 1.6055 0.29554 0.0797 0.68583-0.49583 1.1343-1.4708-0.059 0.81887-4e-3 1.362 0.25734 1.4133 0.18609 0.0365 0.38811-0.18478 0.60093-0.5875-0.10101 1.1816-0.0447 1.949 0.27979 2.0067 0.21801 0.0388 0.44409-0.27037 0.67629-0.81286 0.0148 7e-3 0.0253 0.0243 0.0417 0.0284 0.57278 0.14221 1.379-2.1063 2.2509-5.0225-0.28172 2.9786-0.37445 5.3111 0.20134 5.37 0.66051 0.0675 1.167-2.8972 1.6417-6.5061-0.15763 3.6651-0.17523 6.7084 0.49292 6.742 0.2709 0.0136 0.48071-0.51133 0.65585-1.3387 0.1415 0.74374 0.32355 1.2176 0.57841 1.215 0.26545-3e-3 0.43399-0.51893 0.54819-1.3228 0.15255 0.89637 0.35224 1.4648 0.63529 1.4565 0.36831-0.0104 0.55112-0.96271 0.63873-2.3988 0.24429 1.0461 0.51311 1.6832 0.82217 1.6528 0.0464-5e-3 0.0873-0.0293 0.12586-0.0616 0.25046 0.82178 0.50795 1.3367 0.77869 1.3053 0.15233-0.0176 0.25348-0.19394 0.31495-0.49292 0.1219 0.26246 0.25489 0.4112 0.40289 0.40448 0.65005-0.0294 0.60412-2.8667 0.39665-6.3622 0.74394 3.0268 1.4522 5.3755 2.034 5.2634 0.61714-0.11888 0.19812-2.7834-0.48588-6.102 1.0184 3.3287 1.9575 5.972 2.5764 5.8189 0.29945-0.074 0.30564-0.75788 0.13359-1.8148 0.40491 0.72756 0.75511 1.1655 1.0072 1.0864 0.2258-0.0709 0.23953-0.5136 0.12728-1.1775 0.42496 0.75688 0.79002 1.2104 1.0484 1.1244 0.43465-0.14479 0.10061-1.6056-0.54568-3.6016 0.42958 0.75678 0.81875 1.3725 1.1399 1.7491 0.67612 1.0328 1.2146 1.6397 1.514 1.509 0.0373-0.0163 0.0617-0.0502 0.085-0.0852 0.34612 0.49228 0.63579 0.75672 0.84166 0.6842 0.75086-0.26453-0.96865-4.3691-2.8111-8.6688 2.1843 3.4906 4.1701 6.4981 4.7951 6.1668 0.50908-0.26988-0.60202-2.4171-2.1661-5.0909 1.9148 2.6278 3.5285 4.6306 4.0337 4.3265 0.30513-0.18365-0.0663-1.0652-0.7882-2.3091 0.79443 0.78402 1.3815 1.2046 1.63 1.0324 0.16308-0.11308 0.10145-0.42896-0.12334-0.89225 0.60342 0.53246 1.0639 0.82015 1.2698 0.6729 0.35631-0.25485-0.38741-1.4747-1.6068-3.1126 0.90751 0.80575 1.7057 1.4645 2.266 1.8033 1.0908 1.0396 1.9074 1.6535 2.1911 1.4403 0.79945-0.60076-4.3831-6.1055-8.266-10.551 4.2321 3.5359 8.7986 7.4636 9.4223 6.8266 0.35785-0.36549-1.1025-1.8403-3.1379-3.666 2.3748 1.6931 4.2796 2.9024 4.6262 2.5051 0.28069-0.32179-0.74484-1.3461-2.3399-2.6766 1.4468 0.81142 2.4832 1.2534 2.7053 0.96056 0.0883-0.11652 0.0164-0.30674-0.18011-0.55397 0.66999 0.28176 1.1425 0.39071 1.2798 0.2055 0.1399-0.18874-0.15553-0.56795-0.70251-1.0576 1.7612 0.92318 3.0218 1.4368 3.2507 1.1053 0.20015-0.28983-0.5865-0.98448-1.8763-1.885-0.057-0.14856-0.22462-0.33383-0.49022-0.55203 0.051-0.0193 0.0925-0.0457 0.11705-0.0851 0.47416-0.75773-5.114-3.6754-10.079-6.3745 5.4743 2.2395 11.948 5.0925 12.357 4.2505 0.19507-0.40155-1.2772-1.2264-3.3868-2.2137 2.3888 0.75923 4.1987 1.2081 4.3754 0.77986 0.20349-0.49307-2.0001-1.4653-4.9021-2.5773 2.5599 0.65212 4.5125 1.0265 4.6619 0.57472 0.0236-0.0714-0.0144-0.15122-0.0806-0.23506 0.52475 0.0436 0.89268 0.0188 1.0425-0.1016 1.2982 0.20031 2.1538 0.21987 2.2355-0.0775 0.1173-0.42728-1.5332-1.0309-3.8459-1.7005 0.7783 0.0183 1.2895-0.0526 1.3339-0.27892 0.0332-0.16919-0.20025-0.34612-0.62004-0.5292 0.32596-0.0348 0.52398-0.11533 0.55641-0.25459 0.16992-0.7292-4.4141-1.6872-9.2511-2.6591 5.2286 0.51513 10.444 1.0296 10.537 0.24539 0.0462-0.3898-1.2194-0.72232-3.145-1.0258 2.0926 3e-3 3.5412-0.12221 3.5638-0.53046 0.0374-0.67626-3.8511-0.97614-8.2652-1.2271 2.818-0.058 5.3142-0.15871 6.5355-0.43292 2.0949-0.1969 3.5307-0.45921 3.5006-0.86645-0.0294-0.39424-1.3814-0.53286-3.3815-0.54693-1.303-0.1165-3.2532-0.11897-5.4418-0.0796 3.2195-0.43831 5.7144-0.89777 5.6359-1.4348-0.0189-0.12912-0.18786-0.21784-0.46179-0.27854 0.48419-0.15781 0.75909-0.32556 0.73924-0.50735-0.0701-0.64191-3.6103-0.4201-7.7526-0.0493 4.3333-0.86465 8.1437-1.7046 7.9954-2.369-0.0795-0.35583-1.2402-0.33203-2.9435-0.11805 1.7514-0.54581 2.8831-1.0314 2.777-1.398-0.13602-0.46998-2.2016-0.14553-4.8914 0.43552 3.2091-1.1924 5.6932-2.2432 5.4648-2.7696-0.089-0.20516-0.56375-0.20526-1.269-0.0822-1e-3 -6e-3 3e-3 -0.0142 7.6e-4 -0.0205-0.2255-0.59363-3.4708 0.34525-7.2973 1.5779-1.0372 0.30838-2.1352 0.64655-3.2441 0.98966 4.3243-1.9119 8.3189-3.7333 7.9792-4.3896-0.0124-0.0239-0.0418-0.0372-0.0637-0.0549 0.501-0.33159 0.76041-0.60276 0.67257-0.78743-0.2543-0.53449-2.9742 0.41454-6.3275 1.7439 3.2868-1.7958 5.9005-3.3539 5.5774-3.8797-0.18677-0.30385-1.2158 0.0186-2.6724 0.65951 1.3482-0.94552 2.1742-1.6757 1.9628-1.9779-0.23153-0.33093-1.4501 0.16244-3.1607 1.0659 1.7585-1.4435 2.9475-2.5832 2.6412-2.9252-0.12294-0.1373-0.43031-0.083-0.86745 0.10505 0.0633-0.13752 0.072-0.24749 0.0106-0.32164-0.14116-0.17039-0.5762-0.0529-1.1918 0.24119-1.3192 0.17434-5.6572 3.2284-9.7092 6.0064 2.9966-2.6474 6.0734-5.3432 7.0911-6.7366 0.91077-0.91816 1.4137-1.5902 1.1881-1.8236-0.40981-0.42396-2.5984 1.1816-5.2584 3.3241 2.3523-2.4832 4.1222-4.5311 3.6629-4.919-0.27646-0.23347-1.1363 0.35776-2.2937 1.3696 0.91965-1.2355 1.431-2.1296 1.1372-2.3508-0.32004-0.24093-1.2692 0.52959-2.5334 1.8068 0.96603-1.5958 1.4958-2.7385 1.1319-2.9546-0.10724-0.0637-0.26523-0.0187-0.45781 0.1 0.0551-0.22975 0.0441-0.3946-0.0649-0.46357-0.14624-0.0927-0.39764 0.0184-0.72413 0.27549-0.0168-0.0371-0.0343-0.0735-0.0672-0.0952-0.86809-0.5693-5.3662 5.7346-8.9809 10.355 3.0322-5.0511 7.5802-11.825 6.6392-12.33-0.26091-0.13994-0.77238 0.3194-1.4331 1.1363-0.47121 0.24905-1.233 1.2645-2.1287 2.6318 1.1108-2.4743 1.8422-4.4104 1.3511-4.6161-0.34598-0.14493-0.98031 0.68988-1.7612 2.021 0.46156-1.4372 0.64899-2.4331 0.29658-2.5592-0.43334-0.15505-1.2078 1.1855-2.1193 3.1235 0.41365-1.9206 0.56813-3.2866 0.13478-3.3942-0.0225-6e-3 -0.0466 6e-3 -0.0699 7e-3 -0.0101-0.30672-0.0806-0.4964-0.22839-0.53626-0.15788-0.0426-0.34293 0.1029-0.54895 0.39236-0.0262-0.21078-0.0899-0.35028-0.20904-0.38479-0.92688-0.26832-2.818 5.784-4.5828 10.985 1.2152-5.4509 2.8765-11.961 1.902-12.152-0.3008-0.0592-0.64136 0.54033-1.0067 1.54-0.0532-0.16408-0.13132-0.26397-0.23948-0.28321-0.28094-0.0499-0.57564 0.48788-0.87913 1.3615 0.0578-1.5239-0.031-2.5489-0.4096-2.5876-0.38921-0.0398-0.72407 0.99373-1.0315 2.566-0.0362-1.5452-0.18845-2.5786-0.57191-2.5979-0.55512-0.0278-0.86237 2.1231-1.0959 4.9247-0.20694-1.8516-0.44566-3.3712-0.77563-3.951-0.1407-0.61446-0.31591-0.99039-0.54624-0.98363-0.13045 4e-3 -0.23654 0.13368-0.32549 0.34812-0.11535-0.33836-0.25248-0.53114-0.41951-0.5294-0.8796 9e-3 -0.77707 5.2173-0.70792 10.265-0.58848-5.152-1.1533-10.643-2.0546-10.554-0.40959 0.0403-0.49825 1.2101-0.42596 2.9459-0.27075-0.9573-0.55025-1.5476-0.84454-1.5135-0.20464 0.0237-0.31789 0.33016-0.36416 0.84415-0.32208-0.85-0.62727-1.3726-0.9029-1.3195-0.39928 0.077-0.35988 1.2314-0.10121 2.9256-0.56929-1.5392-1.076-2.5334-1.4581-2.4389-0.64532 0.15962 0.057 3.1277 1.0374 6.6781-0.49151-1.0762-0.9615-2.066-1.3856-2.8714-0.82916-1.8836-1.5398-3.1679-1.9682-3.0252-0.0495 0.0165-0.089 0.0497-0.11991 0.098-0.24629-0.34143-0.46207-0.5199-0.63345-0.46612-0.76812 0.24097 0.74546 4.4836 2.3556 8.9007-2.0998-4.3664-4.1721-8.6438-4.9353-8.3283-0.53242 0.22007 0.31928 2.4298 1.5615 5.2026-1.2413-2.2044-2.2873-3.8065-2.7494-3.6048-0.17453 0.0762-0.18585 0.37237-0.0819 0.82361-0.42122-0.45335-0.7528-0.68614-0.94721-0.58308-0.3709 0.19661 0.10277 1.3719 0.98938 3.0264-1.1193-1.4016-1.9802-2.266-2.3258-2.058-0.67922 0.40881 1.8878 4.1679 4.5993 8.0796-0.0705-0.0776-0.14048-0.15462-0.21063-0.23178-2.6205-3.1326-5.1139-6.051-6.0791-6.3568-0.50855-0.43637-0.8939-0.65754-1.0798-0.52869-0.61704 0.42776 1.9388 3.7201 4.7682 7.262-3.2518-3.3319-6.3307-6.419-6.9188-5.9287-0.59119 0.49287 2.4162 3.6977 5.6534 7.0779-3.1905-3.0835-6.1172-5.8151-6.6604-5.3392-0.16654 0.1459-2e-3 0.52797 0.3682 1.058-0.48731-0.26018-0.82699-0.34915-0.96651-0.20667-0.30607 0.31257 0.70432 1.4281 2.2642 2.8791-1.693-1.1429-2.9448-1.8317-3.2214-1.5146-0.53956 0.61857 3.6153 3.7608 7.7338 6.8863-1.1142-0.69976-2.2272-1.3983-3.277-2.042-3.4048-2.1877-6.3541-3.9663-6.7511-3.4427-0.20296 0.2676 0.44893 0.92714 1.5554 1.7956-0.0692 0.36255 0.87267 1.1396 2.3598 2.1401-2.8497-1.4535-5.1377-2.485-5.4316-2.0153-0.48624 0.77702 5.4019 3.825 10.455 6.5793-5.1057-2.5574-10.753-5.5058-11.2-4.7396-0.14166 0.24254 0.36006 0.69992 1.2414 1.2842-0.69162-0.16152-1.1605-0.18745-1.2579 0.013-0.20208 0.41598 1.3924 1.2884 3.6293 2.3242-2.2452-0.70255-3.9174-1.0978-4.0872-0.68637-0.24636 0.59701 2.9546 1.8803 6.7789 3.2889-4.3418-1.2287-8.2492-2.2604-8.4672-1.6013-0.0678 0.20541 0.28289 0.46776 0.89182 0.76551-0.046 0.24669 0.47501 0.55947 1.3297 0.91189-0.10428 0.0374-0.18094 0.0863-0.2007 0.15836-0.028 0.102 0.0474 0.21398 0.19908 0.33387-1.7098-0.2221-2.876-0.25072-2.9591 0.10569-0.21338 0.9156 7.017 2.1891 12.897 3.4017-5.944-1.0011-13.146-2.4266-13.326-1.5099-0.0686 0.34943 0.97938 0.73345 2.5911 1.1345-1.165 2e-3 -1.8984 0.11259-1.9326 0.40081-0.0583 0.49165 2.0618 0.88763 4.8697 1.254-2.6974-0.0517-4.7308 0.0277-4.7574 0.50589-0.0261 0.46939 1.9144 0.75047 4.5245 0.96761-3.126 0.10173-5.5456 0.29873-5.536 0.8261 4e-3 0.22542 0.47117 0.37798 1.2085 0.48783-0.16392 0.083-0.25478 0.17483-0.25217 0.27724 8e-3 0.33075 0.97069 0.49327 2.4359 0.56694-1.9955 0.301-3.3317 0.63312-3.2883 1.031 0.0743 0.68068 4.0491 0.39014 8.5114-0.0203 0.31958-9e-3 0.61003-0.0121 0.94182-0.0231-4.9417 0.59268-9.6505 1.1901-9.5418 1.9331z" fill="none" stroke="#070504" stroke-linecap="round" stroke-linejoin="round" stroke-width=".51383"/>
    <path id="path342315" d="m583.81 759.23c-9.9344 27.61-6.1157 51.099-1.0162 78.883 0.87648-27.351 0.49834-53.753 4.6336-80.747l-1.8588 93.746c-8.5002-15.873-16.934-30.971-21.688-45.418-5.9905-18.206-7.616-35.908-12.741-58.747z" opacity=".14431" stroke="#000" stroke-width=".26458px"/>
    <path id="path337210" transform="matrix(.28466 0 0 .27822 -26.109 -22.104)" d="m2162.1 2771.5c-4.03 4.4401-54.834-49.327-59.51-45.572-4.6751 3.755 36.869 64.96 31.664 67.938-5.2048 2.9775-36.908-63.858-42.514-61.731-5.6066 2.1266 14.99 73.174 9.1201 74.398-5.8702 1.2234-15.368-72.137-21.358-71.847-5.9893 0.29-8.3553 74.225-14.316 73.575s7.6753-73.356 1.8895-74.931-30.883 68.01-36.351 65.55 29.968-67.394 24.952-70.679-50.388 55.138-54.828 51.108c-4.4402-4.0301 49.327-54.835 45.572-59.51s-64.96 36.869-67.938 31.664 63.857-36.908 61.731-42.514c-2.1266-5.6065-73.174 14.99-74.398 9.1202-1.2233-5.8702 72.137-15.368 71.847-21.358s-74.225-8.3554-73.574-14.316c0.6505-5.961 73.356 7.6753 74.931 1.8895s-68.01-30.883-65.55-36.351 67.394 29.968 70.679 24.952c3.2859-5.016-55.138-50.388-51.108-54.828 4.03-4.4402 54.834 49.327 59.51 45.572 4.675-3.7551-36.869-64.96-31.664-67.938 5.2049-2.9775 36.908 63.857 42.514 61.731s-14.99-73.174-9.1201-74.398c5.8702-1.2234 15.368 72.137 21.358 71.847 5.9893-0.29 8.3553-74.225 14.316-73.575s-7.6754 73.356-1.8895 74.931c5.7858 1.575 30.883-68.01 36.351-65.55s-29.968 67.394-24.952 70.679c5.0159 3.2858 50.388-55.138 54.828-51.108 4.4402 4.03-49.327 54.834-45.572 59.51s64.96-36.869 67.938-31.664-63.857 36.908-61.731 42.514 73.174-14.99 74.398-9.1202c1.2234 5.8703-72.137 15.368-71.847 21.358 0.2901 5.9894 74.225 8.3554 73.575 14.316-0.6505 5.9609-73.356-7.6754-74.931-1.8896-1.575 5.7859 68.01 30.883 65.55 36.352s-67.394-29.968-70.679-24.952c-3.2858 5.0159 55.138 50.388 51.108 54.828z" fill="#ffcf00"/>
    <path id="path337210-1" transform="matrix(.27995 -.051576 .050409 .27362 -152.89 96.229)" d="m2162.1 2771.5c-4.03 4.4401-54.834-49.327-59.51-45.572-4.6751 3.755 36.869 64.96 31.664 67.938-5.2048 2.9775-36.908-63.858-42.514-61.731-5.6066 2.1266 14.99 73.174 9.1201 74.398-5.8702 1.2234-15.368-72.137-21.358-71.847-5.9893 0.29-8.3553 74.225-14.316 73.575s7.6753-73.356 1.8895-74.931-30.883 68.01-36.351 65.55 29.968-67.394 24.952-70.679-50.388 55.138-54.828 51.108c-4.4402-4.0301 49.327-54.835 45.572-59.51s-64.96 36.869-67.938 31.664 63.857-36.908 61.731-42.514c-2.1266-5.6065-73.174 14.99-74.398 9.1202-1.2233-5.8702 72.137-15.368 71.847-21.358s-74.225-8.3554-73.574-14.316c0.6505-5.961 73.356 7.6753 74.931 1.8895s-68.01-30.883-65.55-36.351 67.394 29.968 70.679 24.952c3.2859-5.016-55.138-50.388-51.108-54.828 4.03-4.4402 54.834 49.327 59.51 45.572 4.675-3.7551-36.869-64.96-31.664-67.938 5.2049-2.9775 36.908 63.857 42.514 61.731s-14.99-73.174-9.1201-74.398c5.8702-1.2234 15.368 72.137 21.358 71.847 5.9893-0.29 8.3553-74.225 14.316-73.575s-7.6754 73.356-1.8895 74.931c5.7858 1.575 30.883-68.01 36.351-65.55s-29.968 67.394-24.952 70.679c5.0159 3.2858 50.388-55.138 54.828-51.108 4.4402 4.03-49.327 54.834-45.572 59.51s64.96-36.869 67.938-31.664-63.857 36.908-61.731 42.514 73.174-14.99 74.398-9.1202c1.2234 5.8703-72.137 15.368-71.847 21.358 0.2901 5.9894 74.225 8.3554 73.575 14.316-0.6505 5.9609-73.356-7.6754-74.931-1.8896-1.575 5.7859 68.01 30.883 65.55 36.352s-67.394-29.968-70.679-24.952c-3.2858 5.0159 55.138 50.388 51.108 54.828z" fill="#ffcf00"/>
    <path id="path337210-1-1" transform="matrix(.28403 -.018987 .018557 .2776 -74.575 18.072)" d="m2162.1 2771.5c-4.03 4.4401-54.834-49.327-59.51-45.572-4.6751 3.755 36.869 64.96 31.664 67.938-5.2048 2.9775-36.908-63.858-42.514-61.731-5.6066 2.1266 14.99 73.174 9.1201 74.398-5.8702 1.2234-15.368-72.137-21.358-71.847-5.9893 0.29-8.3553 74.225-14.316 73.575s7.6753-73.356 1.8895-74.931-30.883 68.01-36.351 65.55 29.968-67.394 24.952-70.679-50.388 55.138-54.828 51.108c-4.4402-4.0301 49.327-54.835 45.572-59.51s-64.96 36.869-67.938 31.664 63.857-36.908 61.731-42.514c-2.1266-5.6065-73.174 14.99-74.398 9.1202-1.2233-5.8702 72.137-15.368 71.847-21.358s-74.225-8.3554-73.574-14.316c0.6505-5.961 73.356 7.6753 74.931 1.8895s-68.01-30.883-65.55-36.351 67.394 29.968 70.679 24.952c3.2859-5.016-55.138-50.388-51.108-54.828 4.03-4.4402 54.834 49.327 59.51 45.572 4.675-3.7551-36.869-64.96-31.664-67.938 5.2049-2.9775 36.908 63.857 42.514 61.731s-14.99-73.174-9.1201-74.398c5.8702-1.2234 15.368 72.137 21.358 71.847 5.9893-0.29 8.3553-74.225 14.316-73.575s-7.6754 73.356-1.8895 74.931c5.7858 1.575 30.883-68.01 36.351-65.55s-29.968 67.394-24.952 70.679c5.0159 3.2858 50.388-55.138 54.828-51.108 4.4402 4.03-49.327 54.834-45.572 59.51s64.96-36.869 67.938-31.664-63.857 36.908-61.731 42.514 73.174-14.99 74.398-9.1202c1.2234 5.8703-72.137 15.368-71.847 21.358 0.2901 5.9894 74.225 8.3554 73.575 14.316-0.6505 5.9609-73.356-7.6754-74.931-1.8896-1.575 5.7859 68.01 30.883 65.55 36.352s-67.394-29.968-70.679-24.952c-3.2858 5.0159 55.138 50.388 51.108 54.828z" fill="#ffcf00"/>
    <path id="path337210-1-5" transform="matrix(.25928 -.11749 .11483 .25342 -283.52 290.42)" d="m2162.1 2771.5c-4.03 4.4401-54.834-49.327-59.51-45.572-4.6751 3.755 36.869 64.96 31.664 67.938-5.2048 2.9775-36.908-63.858-42.514-61.731-5.6066 2.1266 14.99 73.174 9.1201 74.398-5.8702 1.2234-15.368-72.137-21.358-71.847-5.9893 0.29-8.3553 74.225-14.316 73.575s7.6753-73.356 1.8895-74.931-30.883 68.01-36.351 65.55 29.968-67.394 24.952-70.679-50.388 55.138-54.828 51.108c-4.4402-4.0301 49.327-54.835 45.572-59.51s-64.96 36.869-67.938 31.664 63.857-36.908 61.731-42.514c-2.1266-5.6065-73.174 14.99-74.398 9.1202-1.2233-5.8702 72.137-15.368 71.847-21.358s-74.225-8.3554-73.574-14.316c0.6505-5.961 73.356 7.6753 74.931 1.8895s-68.01-30.883-65.55-36.351 67.394 29.968 70.679 24.952c3.2859-5.016-55.138-50.388-51.108-54.828 4.03-4.4402 54.834 49.327 59.51 45.572 4.675-3.7551-36.869-64.96-31.664-67.938 5.2049-2.9775 36.908 63.857 42.514 61.731s-14.99-73.174-9.1201-74.398c5.8702-1.2234 15.368 72.137 21.358 71.847 5.9893-0.29 8.3553-74.225 14.316-73.575s-7.6754 73.356-1.8895 74.931c5.7858 1.575 30.883-68.01 36.351-65.55s-29.968 67.394-24.952 70.679c5.0159 3.2858 50.388-55.138 54.828-51.108 4.4402 4.03-49.327 54.834-45.572 59.51s64.96-36.869 67.938-31.664-63.857 36.908-61.731 42.514 73.174-14.99 74.398-9.1202c1.2234 5.8703-72.137 15.368-71.847 21.358 0.2901 5.9894 74.225 8.3554 73.575 14.316-0.6505 5.9609-73.356-7.6754-74.931-1.8896-1.575 5.7859 68.01 30.883 65.55 36.352s-67.394-29.968-70.679-24.952c-3.2858 5.0159 55.138 50.388 51.108 54.828z" fill="#ffcf00"/>
    <path id="path337210-7" transform="matrix(.2842 .016192 -.015825 .27777 17.62 -54.786)" d="m2162.1 2771.5c-4.03 4.4401-54.834-49.327-59.51-45.572-4.6751 3.755 36.869 64.96 31.664 67.938-5.2048 2.9775-36.908-63.858-42.514-61.731-5.6066 2.1266 14.99 73.174 9.1201 74.398-5.8702 1.2234-15.368-72.137-21.358-71.847-5.9893 0.29-8.3553 74.225-14.316 73.575s7.6753-73.356 1.8895-74.931-30.883 68.01-36.351 65.55 29.968-67.394 24.952-70.679-50.388 55.138-54.828 51.108c-4.4402-4.0301 49.327-54.835 45.572-59.51s-64.96 36.869-67.938 31.664 63.857-36.908 61.731-42.514c-2.1266-5.6065-73.174 14.99-74.398 9.1202-1.2233-5.8702 72.137-15.368 71.847-21.358s-74.225-8.3554-73.574-14.316c0.6505-5.961 73.356 7.6753 74.931 1.8895s-68.01-30.883-65.55-36.351 67.394 29.968 70.679 24.952c3.2859-5.016-55.138-50.388-51.108-54.828 4.03-4.4402 54.834 49.327 59.51 45.572 4.675-3.7551-36.869-64.96-31.664-67.938 5.2049-2.9775 36.908 63.857 42.514 61.731s-14.99-73.174-9.1201-74.398c5.8702-1.2234 15.368 72.137 21.358 71.847 5.9893-0.29 8.3553-74.225 14.316-73.575s-7.6754 73.356-1.8895 74.931c5.7858 1.575 30.883-68.01 36.351-65.55s-29.968 67.394-24.952 70.679c5.0159 3.2858 50.388-55.138 54.828-51.108 4.4402 4.03-49.327 54.834-45.572 59.51s64.96-36.869 67.938-31.664-63.857 36.908-61.731 42.514 73.174-14.99 74.398-9.1202c1.2234 5.8703-72.137 15.368-71.847 21.358 0.2901 5.9894 74.225 8.3554 73.575 14.316-0.6505 5.9609-73.356-7.6754-74.931-1.8896-1.575 5.7859 68.01 30.883 65.55 36.352s-67.394-29.968-70.679-24.952c-3.2858 5.0159 55.138 50.388 51.108 54.828z" fill="#ffc700"/>
    <path id="path337210-9" transform="matrix(.27692 .065941 -.064449 .27065 163.65 -138.71)" d="m2162.1 2771.5c-4.03 4.4401-54.834-49.327-59.51-45.572-4.6751 3.755 36.869 64.96 31.664 67.938-5.2048 2.9775-36.908-63.858-42.514-61.731-5.6066 2.1266 14.99 73.174 9.1201 74.398-5.8702 1.2234-15.368-72.137-21.358-71.847-5.9893 0.29-8.3553 74.225-14.316 73.575s7.6753-73.356 1.8895-74.931-30.883 68.01-36.351 65.55 29.968-67.394 24.952-70.679-50.388 55.138-54.828 51.108c-4.4402-4.0301 49.327-54.835 45.572-59.51s-64.96 36.869-67.938 31.664 63.857-36.908 61.731-42.514c-2.1266-5.6065-73.174 14.99-74.398 9.1202-1.2233-5.8702 72.137-15.368 71.847-21.358s-74.225-8.3554-73.574-14.316c0.6505-5.961 73.356 7.6753 74.931 1.8895s-68.01-30.883-65.55-36.351 67.394 29.968 70.679 24.952c3.2859-5.016-55.138-50.388-51.108-54.828 4.03-4.4402 54.834 49.327 59.51 45.572 4.675-3.7551-36.869-64.96-31.664-67.938 5.2049-2.9775 36.908 63.857 42.514 61.731s-14.99-73.174-9.1201-74.398c5.8702-1.2234 15.368 72.137 21.358 71.847 5.9893-0.29 8.3553-74.225 14.316-73.575s-7.6754 73.356-1.8895 74.931c5.7858 1.575 30.883-68.01 36.351-65.55s-29.968 67.394-24.952 70.679c5.0159 3.2858 50.388-55.138 54.828-51.108 4.4402 4.03-49.327 54.834-45.572 59.51s64.96-36.869 67.938-31.664-63.857 36.908-61.731 42.514 73.174-14.99 74.398-9.1202c1.2234 5.8703-72.137 15.368-71.847 21.358 0.2901 5.9894 74.225 8.3554 73.575 14.316-0.6505 5.9609-73.356-7.6754-74.931-1.8896-1.575 5.7859 68.01 30.883 65.55 36.352s-67.394-29.968-70.679-24.952c-3.2858 5.0159 55.138 50.388 51.108 54.828z" fill="#ffcf00"/>
    <path id="path337210-73" transform="matrix(.28111 .044835 -.043821 .27475 100.08 -106.87)" d="m2162.1 2771.5c-4.03 4.4401-54.834-49.327-59.51-45.572-4.6751 3.755 36.869 64.96 31.664 67.938-5.2048 2.9775-36.908-63.858-42.514-61.731-5.6066 2.1266 14.99 73.174 9.1201 74.398-5.8702 1.2234-15.368-72.137-21.358-71.847-5.9893 0.29-8.3553 74.225-14.316 73.575s7.6753-73.356 1.8895-74.931-30.883 68.01-36.351 65.55 29.968-67.394 24.952-70.679-50.388 55.138-54.828 51.108c-4.4402-4.0301 49.327-54.835 45.572-59.51s-64.96 36.869-67.938 31.664 63.857-36.908 61.731-42.514c-2.1266-5.6065-73.174 14.99-74.398 9.1202-1.2233-5.8702 72.137-15.368 71.847-21.358s-74.225-8.3554-73.574-14.316c0.6505-5.961 73.356 7.6753 74.931 1.8895s-68.01-30.883-65.55-36.351 67.394 29.968 70.679 24.952c3.2859-5.016-55.138-50.388-51.108-54.828 4.03-4.4402 54.834 49.327 59.51 45.572 4.675-3.7551-36.869-64.96-31.664-67.938 5.2049-2.9775 36.908 63.857 42.514 61.731s-14.99-73.174-9.1201-74.398c5.8702-1.2234 15.368 72.137 21.358 71.847 5.9893-0.29 8.3553-74.225 14.316-73.575s-7.6754 73.356-1.8895 74.931c5.7858 1.575 30.883-68.01 36.351-65.55s-29.968 67.394-24.952 70.679c5.0159 3.2858 50.388-55.138 54.828-51.108 4.4402 4.03-49.327 54.834-45.572 59.51s64.96-36.869 67.938-31.664-63.857 36.908-61.731 42.514 73.174-14.99 74.398-9.1202c1.2234 5.8703-72.137 15.368-71.847 21.358 0.2901 5.9894 74.225 8.3554 73.575 14.316-0.6505 5.9609-73.356-7.6754-74.931-1.8896-1.575 5.7859 68.01 30.883 65.55 36.352s-67.394-29.968-70.679-24.952c-3.2858 5.0159 55.138 50.388 51.108 54.828z" fill="#f2d34e"/>
    <ellipse id="path330563" cx="566.27" cy="728.37" rx="12.246" ry="11.989" fill="#341200" stroke="#341200" stroke-linecap="round" stroke-linejoin="round" stroke-width="2.0168"/>
    <ellipse id="path329747" cx="566.36" cy="728.28" rx="9.735" ry="9.4788" fill="#231812" stroke="#402206" stroke-linecap="round" stroke-linejoin="round" stroke-width="2.0168"/>
    <path id="path337210-3" d="m562.68 694.42c-0.49924 0.038-0.56888 1.9008-0.48731 4.4054-0.41389-1.9361-0.83198-3.2205-1.2599-3.1585-0.57418 0.0833-0.38399 2.5279 0.0243 5.6488-0.70564-2.9381-1.376-5.1795-1.9291-5.0669-0.36849 0.0751-0.35796 1.1266-0.15452 2.6768-0.66548-1.9336-1.2553-3.2219-1.6805-3.1052-0.26791 0.0735-0.28477 0.68387-0.16071 1.5973-0.26093-0.44844-0.49344-0.68736-0.68521-0.63304-0.27316 0.0774-0.27287 0.71496-0.11732 1.6712-0.61296-1.2227-1.1238-1.9698-1.4475-1.851-0.32678 0.1199-0.19356 1.0253 0.18863 2.357-0.0616 0.22468-0.037 0.61775 0.0341 1.1007-0.96869-2.0695-1.7874-3.5065-2.2252-3.33-0.60462 0.24371 0.39272 3.0875 1.7679 6.5469-1.5034-2.7813-2.7873-4.8874-3.3063-4.6349-0.55494 0.27006 0.54115 2.8008 2.0732 5.9304-1.7647-2.8878-3.2649-5.0973-3.7925-4.8023-0.25972 0.14521-0.0936 0.8086 0.32194 1.7761-0.90767-1.1123-1.6033-1.7715-1.9007-1.5782-0.25333 0.16476-0.0369 0.82918 0.4589 1.7911-0.56232-0.58037-0.99746-0.89998-1.2077-0.75965-0.21283 0.14208-0.0588 0.66479 0.30179 1.4015-0.7415-0.7003-1.2949-1.0794-1.5219-0.90175-0.26704 0.20907 0.12174 1.003 0.8754 2.1218-0.28411-0.22535-0.50818-0.33436-0.66145-0.30541-1.0546-1.0301-1.8414-1.6271-2.1187-1.3973-0.64321 0.53303 2.5983 4.344 5.919 8.2253-3.3496-3.2948-6.4636-6.2696-7.0151-5.7397-0.46524 0.44707 1.5827 2.7133 4.2215 5.409-2.8176-2.4288-5.1652-4.2878-5.5996-3.8199-0.17478 0.1882 0.0987 0.66331 0.62424 1.3002-0.92906-0.55607-1.5825-0.81912-1.7704-0.58756-0.19013 0.23434 0.22961 0.80404 1.0139 1.5746-0.84267-0.47736-1.4422-0.70337-1.6134-0.48525-0.16409 0.20918 0.17984 0.69229 0.80873 1.3286-0.79095-0.35835-1.35-0.5102-1.495-0.29353-0.18147 0.27123 0.38698 0.87609 1.3927 1.6754-1.7142-0.9021-2.9297-1.3843-3.1543-1.031-0.21812 0.34316 0.71623 1.1563 2.2273 2.2055 0.80801 0.79222 2.1954 1.8701 3.8282 3.0691-3.4054-1.6783-6.2178-2.9295-6.5185-2.3637-0.31121 0.58576 2.561 2.2167 6.0854 4.0628-3.6509-1.5565-6.7232-2.7443-7.0001-2.143-0.10472 0.22744 0.28901 0.58732 0.96481 1.0227-0.86326-0.17722-1.4503-0.2027-1.5441 0.0429-0.10168 0.26627 0.43313 0.65756 1.3338 1.1204-0.98893-0.21424-1.652-0.25329-1.7477 0.0129-0.10281 0.28612 0.49999 0.70535 1.5327 1.2061-0.88495-0.10792-1.4771-0.0864-1.5472 0.16745-0.0499 0.18098 0.17902 0.39333 0.6041 0.62733-1.2761-0.17121-2.1116-0.16253-2.1921 0.15349-0.0541 0.21227 0.26876 0.45365 0.84439 0.71522-9e-3 0.0141-0.0278 0.0234-0.0331 0.0393-0.18585 0.55526 2.2086 1.4857 5.3237 2.5213-3.2154-0.4584-5.7402-0.69147-5.8358-0.12817-0.10964 0.64617 3.0782 1.325 6.9665 2.0118-3.9668-0.37796-7.2669-0.58026-7.3401 0.0755-0.0297 0.26588 0.52811 0.50435 1.4159 0.72707-0.81454 0.0941-1.3386 0.24453-1.3498 0.4956-0.0116 0.26151 0.53893 0.45881 1.4046 0.6201-0.9807 0.0957-1.6083 0.25776-1.6149 0.53692-9e-3 0.36325 1.0138 0.60111 2.5668 0.77465-1.1481 0.17692-1.854 0.40285-1.8381 0.70897 2e-3 0.046 0.0269 0.0878 0.0599 0.12766-0.90519 0.19664-1.4779 0.41884-1.4588 0.68729 0.0107 0.15105 0.19637 0.26135 0.51728 0.34004-0.29141 0.10406-0.46008 0.22595-0.46095 0.37206-4e-3 0.64177 3.0761 0.76901 6.8792 0.77721-3.3242 0.54845-5.9108 1.1029-5.8214 1.6826 0.0949 0.61481 3.0082 0.36423 6.6456-0.10747-3.6668 0.80028-6.5858 1.5642-6.4539 2.1828 0.0638 0.29932 0.8052 0.34697 1.9611 0.24183-0.81151 0.35441-1.3059 0.67257-1.234 0.92554 0.0644 0.22661 0.54388 0.26704 1.2702 0.19687-0.84442 0.37238-1.3565 0.70422-1.2775 0.96378 0.13308 0.43672 1.7361 0.19666 3.9367-0.31833-0.84457 0.37693-1.5339 0.72266-1.9601 1.016-1.1575 0.60288-1.8456 1.0961-1.7203 1.3989 0.0156 0.0377 0.051 0.0638 0.0878 0.0889-0.55306 0.31083-0.85587 0.57994-0.78856 0.78703 0.2455 0.75531 4.7926-0.68808 9.5581-2.2407-3.9068 1.9383-7.2785 3.7105-6.9536 4.346 0.26464 0.5176 2.655-0.44577 5.6415-1.8231-2.956 1.7255-5.2174 3.1924-4.9155 3.7083 0.18237 0.31157 1.1591-5.9e-4 2.5482-0.63564-0.89424 0.73448-1.3829 1.2869-1.2098 1.542 0.11366 0.16742 0.45969 0.12594 0.97462-0.0672-0.61085 0.56171-0.9483 0.99758-0.79994 1.2092 0.25677 0.36629 1.621-0.29178 3.4649-1.3927-0.92406 0.84449-1.6826 1.5903-2.081 2.1213-1.1878 1.0107-1.8987 1.7773-1.6831 2.0696 0.60754 0.82359 6.8644-3.9441 11.9-7.4967-4.0689 3.9516-8.5811 8.2086-7.9246 8.8615 0.37669 0.37452 2.057-0.97356 4.1496-2.8665-1.9675 2.2351-3.3843 4.0369-2.9724 4.4023 0.33356 0.29591 1.5012-0.65148 3.0324-2.141-0.95996 1.375-1.4966 2.3685-1.1912 2.605 0.1215 0.0941 0.33181 0.0348 0.61082-0.14365-0.34259 0.64249-0.48684 1.1011-0.29351 1.2475 0.19701 0.1492 0.62463-0.11861 1.186-0.62735-1.0985 1.6778-1.7251 2.8877-1.3782 3.1331 0.30334 0.21466 1.1002-0.51758 2.1482-1.7327 0.16428-0.0471 0.37449-0.20085 0.62582-0.44908 0.0182 0.0514 0.0445 0.0938 0.0858 0.12041 0.79574 0.51287 4.2688-4.8114 7.4704-9.5353-2.7312 5.2534-6.1829 11.453-5.2922 11.907 0.42479 0.21646 1.4007-1.1828 2.588-3.1998-0.95531 2.3057-1.542 4.0602-1.0873 4.2602 0.52361 0.2303 1.6997-1.88 3.066-4.6695-0.84857 2.4806-1.3624 4.3802-0.88058 4.5548 0.0762 0.0276 0.16483-5e-3 0.25942-0.0651-0.0763 0.51396-0.0696 0.87771 0.0527 1.0325-0.2889 1.266-0.35732 2.1071-0.0393 2.2056 0.45699 0.14145 1.2028-1.4468 2.0567-3.683-0.0628 0.76513-0.0141 1.2727 0.22895 1.3302 0.18169 0.0429 0.38648-0.17611 0.60822-0.57827 0.0198 0.32303 0.0962 0.52287 0.24546 0.56327 0.78158 0.21161 2.0736-4.2432 3.3946-8.9462-0.8472 5.1163-1.6929 10.22-0.84749 10.359 0.42026 0.0692 0.85077-1.1566 1.2862-3.0339-0.11822 2.06-0.0628 3.4938 0.37878 3.5409 0.73146 0.078 1.2713-3.7321 1.787-8.0626-0.0926 2.7778-0.12102 5.2416 0.10904 6.4606 0.098 2.0744 0.30332 3.5039 0.7467 3.499 0.42926-5e-3 0.65421-1.3277 0.77981-3.2959 0.19825-1.2758 0.30851-3.1956 0.38653-5.3526 0.29782 3.1963 0.65855 5.6805 1.2454 5.6358 0.1411-0.0107 0.24665-0.17171 0.32761-0.4377 0.14446 0.48628 0.31125 0.76711 0.50953 0.75862 0.70014-0.03 0.65485-3.5289 0.48112-7.6295 0.69882 4.3187 1.3996 8.1212 2.1286 8.0155 0.39034-0.0566 0.42857-1.2008 0.29043-2.8908 0.49541 1.7574 0.95964 2.9012 1.3632 2.819 0.51729-0.10536 0.27932-2.1587-0.20256-4.8421 1.1163 3.2319 2.1192 5.7414 2.7027 5.5485 0.22744-0.0752 0.25374-0.54255 0.15918-1.2444 7e-3 -1e-3 0.0152 4e-3 0.0222 2e-3 0.65635-0.18592-0.18301-3.438-1.309-7.2802-0.27728-1.0398-0.58351-2.1414-0.8945-3.254 1.8352 4.3735 3.5905 8.417 4.3212 8.1225 0.0266-0.0107 0.0426-0.0389 0.063-0.0594 0.33203 0.5134 0.61185 0.78528 0.81701 0.71003 0.59378-0.21788-0.28557-2.9533-1.5426-6.3356 1.7666 3.3451 3.3124 6.013 3.9005 5.7268 0.33988-0.16542 0.0469-1.1981-0.56793-2.6712 0.95121 1.3848 1.6976 2.2424 2.0371 2.0526 0.37172-0.20783-0.0962-1.4375-0.98184-3.1766 1.4687 1.819 2.6393 3.0588 3.0272 2.7781 0.15571-0.11268 0.11385-0.41859-0.0661-0.86039 0.14568 0.0707 0.26448 0.0859 0.3483 0.03 0.19261-0.12861 0.0892-0.56406-0.19587-1.188-0.11632-1.3094-3.1897-5.7658-5.9795-9.9239 2.7062 3.1111 5.4606 6.3041 6.9159 7.3908 0.94568 0.95247 1.6469 1.4885 1.9125 1.2805 0.48247-0.37769-1.1384-2.63-3.3155-5.379 2.5638 2.4668 4.6875 4.3338 5.1335 3.9052 0.2685-0.25799-0.32536-1.1404-1.3591-2.3414 1.2894 0.98049 2.231 1.5383 2.4872 1.2625 0.27898-0.30044-0.50442-1.2818-1.82-2.604 1.6777 1.0481 2.8879 1.639 3.1424 1.294 0.075-0.1017 0.0349-0.25998-0.0832-0.4568 0.24617 0.0682 0.42558 0.0674 0.50641-0.0357 0.10856-0.13835 2e-3 -0.39261-0.25889-0.72967 0.0412-0.0143 0.0817-0.0293 0.10697-0.0604 0.6654-0.82005-5.9242-5.6317-10.737-9.4713 5.3115 3.2923 12.409 8.1816 13.008 7.2859 0.16618-0.24836-0.30385-0.77983-1.1534-1.48-0.24415-0.47905-1.3036-1.2908-2.7373-2.2557 2.6226 1.244 4.6822 2.0818 4.9325 1.6108 0.17629-0.33181-0.69422-1.0071-2.095-1.8567 1.5334 0.54176 2.6033 0.78682 2.7595 0.44752 0.19209-0.4172-1.2193-1.2612-3.2711-2.2764 2.0605 0.52398 3.5336 0.75909 3.6742 0.33899 7e-3 -0.0218-4e-3 -0.0463-4e-3 -0.0692 0.33324 9e-3 0.5429-0.0492 0.59428-0.19225 0.0549-0.15285-0.0927-0.34388-0.39531-0.5643 0.23008-0.013 0.38491-0.0672 0.42891-0.18241 0.34219-0.89622-6.1184-3.1259-11.663-5.1795 5.8455 1.5277 12.815 3.559 13.077 2.6112 0.0808-0.29255-0.55071-0.66427-1.6149-1.0847 0.18092-0.0425 0.29358-0.11324 0.32041-0.21857 0.0696-0.27355-0.49744-0.59637-1.4284-0.94827 1.6498 0.14949 2.7664 0.12438 2.8293-0.24598 0.0646-0.38076-1.0379-0.77325-2.7264-1.1715 1.6781 0.0583 2.8074-0.0288 2.8494-0.40515 0.0608-0.54483-2.2554-0.97806-5.2813-1.3782 2.0198-0.0912 3.6813-0.23386 4.3284-0.52348 0.67426-0.10117 1.0917-0.25082 1.0971-0.47799 3e-3 -0.12867-0.13194-0.24101-0.35964-0.34161 0.37338-0.093 0.59004-0.21629 0.59737-0.38084 0.0385-0.86653-5.6163-1.0821-11.095-1.3208 5.6208-0.26622 11.608-0.48855 11.562-1.3813-0.0211-0.40569-1.2851-0.56409-3.1719-0.59841 1.0533-0.20838 1.709-0.44767 1.6883-0.73948-0.0144-0.20291-0.34058-0.33303-0.89554-0.40982 0.93975-0.26543 1.5234-0.53414 1.481-0.80872-0.0614-0.39778-1.3158-0.42916-3.1678-0.2775 1.7009-0.46693 2.8074-0.90535 2.7259-1.2873-0.13754-0.64503-3.3957-0.13396-7.3009 0.61547 1.1945-0.41849 2.294-0.82103 3.191-1.1896 2.0888-0.70184 3.5211-1.3234 3.39-1.7539-0.0151-0.0497-0.049-0.0907-0.0997-0.12401 0.38393-0.22172 0.58941-0.42331 0.54054-0.59531-0.219-0.77087-4.9045 0.4614-9.7844 1.7782 4.852-1.8018 9.606-3.5821 9.3059-4.3527-0.20933-0.53755-2.6532 0.16666-5.7294 1.2211 2.4595-1.0881 4.255-2.0205 4.0618-2.4877-0.073-0.17645-0.39364-0.2056-0.88884-0.13075 0.51499-0.38714 0.78579-0.69943 0.68472-0.8971-0.1928-0.37711-1.4937 0.0178-3.3373 0.79012 1.5821-1.0167 2.5671-1.8118 2.3606-2.1647-0.40595-0.69355-4.625 1.6052-9.0175 4.037 0.0881-0.0647 0.17547-0.12891 0.26302-0.19328 3.5425-2.3895 6.8456-4.6669 7.2306-5.5986 0.50138-0.47416 0.76255-0.8401 0.63304-1.031-0.42995-0.63349-4.1421 1.6826-8.1401 4.253 3.7935-2.999 7.3119-5.8425 6.8125-6.4513-0.502-0.61199-4.1441 2.154-7.9892 5.1356 3.5207-2.9536 6.645-5.669 6.1588-6.2327-0.14907-0.17283-0.57256-0.0344-1.1679 0.29819 0.30909-0.46395 0.42434-0.79296 0.27749-0.93898-0.32215-0.32033-1.5879 0.60661-3.2479 2.0541 1.3331-1.5973 2.1493-2.7878 1.8206-3.0794-0.64119-0.56881-4.2788 3.3308-7.8962 7.1954 0.8205-1.0544 1.6396-2.1077 2.3957-3.1021 2.5608-3.2191 4.6527-6.0146 4.1067-6.4373-0.27906-0.21608-1.0304 0.38563-2.0335 1.4221-0.38944-0.0901-1.2843 0.78989-2.4515 2.1931 1.7338-2.7172 2.9788-4.9071 2.4856-5.225-0.816-0.52594-4.447 5.0858-7.7132 9.8929 3.0557-4.8712 6.5653-10.252 5.7588-10.739-0.25527-0.1542-0.77906 0.31194-1.4614 1.1441 0.21336-0.67109 0.26736-1.1311 0.0553-1.2392-0.44005-0.22423-1.4744 1.2926-2.7213 3.4319 0.88591-2.1677 1.407-3.79 0.96999-3.9822-0.63399-0.27884-2.2025 2.7946-3.9414 6.474 1.5723-4.1999 2.9069-7.9841 2.204-8.2388-0.21907-0.0793-0.52298 0.25008-0.87955 0.83148-0.26504-0.0603-0.63305 0.43365-1.0625 1.2537-0.0348-0.10493-0.0837-0.18338-0.16071-0.20722-0.10909-0.0338-0.23471 0.0336-0.37312 0.17571 0.33523-1.6698 0.43061-2.8163 0.0486-2.9197-0.98137-0.26572-2.7616 6.7753-4.4013 12.491 1.4138-5.7911 3.3574-12.795 2.373-13.028-0.37525-0.0887-0.8496 0.91964-1.3736 2.482 0.0624-1.147-0.0174-1.8758-0.32814-1.927-0.53007-0.0873-1.0765 1.9759-1.6288 4.718 0.20489-2.6525 0.23098-4.6593-0.28628-4.7144-0.50771-0.0542-0.91964 1.8391-1.2992 4.3956 0.0621-3.0838-0.0181-5.4778-0.59066-5.5004-0.24471-0.01-0.43598 0.4409-0.59581 1.1601-0.081-0.16642-0.17558-0.26146-0.28681-0.26511-0.35923-0.0118-0.58859 0.92567-0.74933 2.3637-0.2164-1.9829-0.50294-3.3186-0.93689-3.3-0.74242 0.0318-0.64656 3.9627-0.44751 8.3809-8e-3 0.31518-0.0206 0.60132-0.0269 0.92864-0.37026-4.9012-0.75853-9.5733-1.5705-9.5116z" fill="none" stroke="#070504" stroke-linecap="round" stroke-linejoin="round" stroke-width=".53182"/>
    <path id="path338511" d="m587.43 757.37s-6.5448-9.9285-11.778-11.795c-6.3447-2.2625-20.105 2.0382-20.105 2.0382s8.4952 9.8545 14.409 11.596c5.6183 1.6544 17.474-1.8395 17.474-1.8395s3.4303-4.9736 4.1356-7.844c1.3218-5.3793-0.0547-16.618-0.0547-16.618-10.58 9.5703-5.4539 16.728-4.0809 24.462" fill="#00a42a" stroke="#000" stroke-width=".5"/>
    <path id="path322238" d="m587.43 757.37-1.8784 95.944 36.369-106.72c-11.497 3.5928-26.677 8.2378-34.491 10.778z" fill="#b2a7ff" stroke="#000" stroke-width="2.5"/>
    <path id="path342317" d="m595.33 753.47c-3.1908-16.355-10.185-18.699-10.321-8.9369-0.0612 4.3836 2.4126 12.837 11.481 15.843 0.96454 0.31971 0.65384 1.985 0.90136 3.1022 0.21411 0.96641 0.68426 1.5622 1.5288 1.5992 1.1221-0.0823 2.1493-0.44879 2.917-0.12755 2.6934 1.127 4.1183 0.2607 5.0642 0.0174 2.1309-0.54815 3.6639-1.6433 4.7642-1.4043 5.0059 1.0873 1.4454-3.7915 5.9832-6.7401l-22.318-3.3525" opacity=".14431" stroke="#000" stroke-width=".26458px"/>
    <path id="path337210-96" transform="matrix(.1953 -.096696 .06804 .26514 19.75 215.65)" d="m2162.1 2771.5c-4.03 4.4401-54.834-49.327-59.51-45.572-4.6751 3.755 36.869 64.96 31.664 67.938-5.2048 2.9775-36.908-63.858-42.514-61.731-5.6066 2.1266 14.99 73.174 9.1201 74.398-5.8702 1.2234-15.368-72.137-21.358-71.847-5.9893 0.29-8.3553 74.225-14.316 73.575s7.6753-73.356 1.8895-74.931-30.883 68.01-36.351 65.55 29.968-67.394 24.952-70.679-50.388 55.138-54.828 51.108c-4.4402-4.0301 49.327-54.835 45.572-59.51s-64.96 36.869-67.938 31.664 63.857-36.908 61.731-42.514c-2.1266-5.6065-73.174 14.99-74.398 9.1202-1.2233-5.8702 72.137-15.368 71.847-21.358s-74.225-8.3554-73.574-14.316c0.6505-5.961 73.356 7.6753 74.931 1.8895s-68.01-30.883-65.55-36.351 67.394 29.968 70.679 24.952c3.2859-5.016-55.138-50.388-51.108-54.828 4.03-4.4402 54.834 49.327 59.51 45.572 4.675-3.7551-36.869-64.96-31.664-67.938 5.2049-2.9775 36.908 63.857 42.514 61.731s-14.99-73.174-9.1201-74.398c5.8702-1.2234 15.368 72.137 21.358 71.847 5.9893-0.29 8.3553-74.225 14.316-73.575s-7.6754 73.356-1.8895 74.931c5.7858 1.575 30.883-68.01 36.351-65.55s-29.968 67.394-24.952 70.679c5.0159 3.2858 50.388-55.138 54.828-51.108 4.4402 4.03-49.327 54.834-45.572 59.51s64.96-36.869 67.938-31.664-63.857 36.908-61.731 42.514 73.174-14.99 74.398-9.1202c1.2234 5.8703-72.137 15.368-71.847 21.358 0.2901 5.9894 74.225 8.3554 73.575 14.316-0.6505 5.9609-73.356-7.6754-74.931-1.8896-1.575 5.7859 68.01 30.883 65.55 36.352s-67.394-29.968-70.679-24.952c-3.2858 5.0159 55.138 50.388 51.108 54.828z" fill="#ffcf00"/>
    <path id="path342319" d="m608.7 783.49c-4.886 6.0162-7.6599 12.334-14.735 18.038l4.827-2.2864c0.82507 3.8442-1.6253 7.4155-4.827 10.924l9.1458-6.3513z" opacity=".14431" stroke="#000" stroke-width=".26458px"/>
    <path id="path337210-1-7" transform="matrix(.17946 -.14425 .1015 .24362 -38.292 371.49)" d="m2162.1 2771.5c-4.03 4.4401-54.834-49.327-59.51-45.572-4.6751 3.755 36.869 64.96 31.664 67.938-5.2048 2.9775-36.908-63.858-42.514-61.731-5.6066 2.1266 14.99 73.174 9.1201 74.398-5.8702 1.2234-15.368-72.137-21.358-71.847-5.9893 0.29-8.3553 74.225-14.316 73.575s7.6753-73.356 1.8895-74.931-30.883 68.01-36.351 65.55 29.968-67.394 24.952-70.679-50.388 55.138-54.828 51.108c-4.4402-4.0301 49.327-54.835 45.572-59.51s-64.96 36.869-67.938 31.664 63.857-36.908 61.731-42.514c-2.1266-5.6065-73.174 14.99-74.398 9.1202-1.2233-5.8702 72.137-15.368 71.847-21.358s-74.225-8.3554-73.574-14.316c0.6505-5.961 73.356 7.6753 74.931 1.8895s-68.01-30.883-65.55-36.351 67.394 29.968 70.679 24.952c3.2859-5.016-55.138-50.388-51.108-54.828 4.03-4.4402 54.834 49.327 59.51 45.572 4.675-3.7551-36.869-64.96-31.664-67.938 5.2049-2.9775 36.908 63.857 42.514 61.731s-14.99-73.174-9.1201-74.398c5.8702-1.2234 15.368 72.137 21.358 71.847 5.9893-0.29 8.3553-74.225 14.316-73.575s-7.6754 73.356-1.8895 74.931c5.7858 1.575 30.883-68.01 36.351-65.55s-29.968 67.394-24.952 70.679c5.0159 3.2858 50.388-55.138 54.828-51.108 4.4402 4.03-49.327 54.834-45.572 59.51s64.96-36.869 67.938-31.664-63.857 36.908-61.731 42.514 73.174-14.99 74.398-9.1202c1.2234 5.8703-72.137 15.368-71.847 21.358 0.2901 5.9894 74.225 8.3554 73.575 14.316-0.6505 5.9609-73.356-7.6754-74.931-1.8896-1.575 5.7859 68.01 30.883 65.55 36.352s-67.394-29.968-70.679-24.952c-3.2858 5.0159 55.138 50.388 51.108 54.828z" fill="#ffcf00"/>
    <path id="path337210-1-1-2" transform="matrix(.19022 -.11457 .080621 .25824 -3.6763 270.41)" d="m2162.1 2771.5c-4.03 4.4401-54.834-49.327-59.51-45.572-4.6751 3.755 36.869 64.96 31.664 67.938-5.2048 2.9775-36.908-63.858-42.514-61.731-5.6066 2.1266 14.99 73.174 9.1201 74.398-5.8702 1.2234-15.368-72.137-21.358-71.847-5.9893 0.29-8.3553 74.225-14.316 73.575s7.6753-73.356 1.8895-74.931-30.883 68.01-36.351 65.55 29.968-67.394 24.952-70.679-50.388 55.138-54.828 51.108c-4.4402-4.0301 49.327-54.835 45.572-59.51s-64.96 36.869-67.938 31.664 63.857-36.908 61.731-42.514c-2.1266-5.6065-73.174 14.99-74.398 9.1202-1.2233-5.8702 72.137-15.368 71.847-21.358s-74.225-8.3554-73.574-14.316c0.6505-5.961 73.356 7.6753 74.931 1.8895s-68.01-30.883-65.55-36.351 67.394 29.968 70.679 24.952c3.2859-5.016-55.138-50.388-51.108-54.828 4.03-4.4402 54.834 49.327 59.51 45.572 4.675-3.7551-36.869-64.96-31.664-67.938 5.2049-2.9775 36.908 63.857 42.514 61.731s-14.99-73.174-9.1201-74.398c5.8702-1.2234 15.368 72.137 21.358 71.847 5.9893-0.29 8.3553-74.225 14.316-73.575s-7.6754 73.356-1.8895 74.931c5.7858 1.575 30.883-68.01 36.351-65.55s-29.968 67.394-24.952 70.679c5.0159 3.2858 50.388-55.138 54.828-51.108 4.4402 4.03-49.327 54.834-45.572 59.51s64.96-36.869 67.938-31.664-63.857 36.908-61.731 42.514 73.174-14.99 74.398-9.1202c1.2234 5.8703-72.137 15.368-71.847 21.358 0.2901 5.9894 74.225 8.3554 73.575 14.316-0.6505 5.9609-73.356-7.6754-74.931-1.8896-1.575 5.7859 68.01 30.883 65.55 36.352s-67.394-29.968-70.679-24.952c-3.2858 5.0159 55.138 50.388 51.108 54.828z" fill="#ffcf00"/>
    <path id="path337210-1-5-8" transform="matrix(.14916 -.20004 .14076 .20249 -80.428 600.93)" d="m2162.1 2771.5c-4.03 4.4401-54.834-49.327-59.51-45.572-4.6751 3.755 36.869 64.96 31.664 67.938-5.2048 2.9775-36.908-63.858-42.514-61.731-5.6066 2.1266 14.99 73.174 9.1201 74.398-5.8702 1.2234-15.368-72.137-21.358-71.847-5.9893 0.29-8.3553 74.225-14.316 73.575s7.6753-73.356 1.8895-74.931-30.883 68.01-36.351 65.55 29.968-67.394 24.952-70.679-50.388 55.138-54.828 51.108c-4.4402-4.0301 49.327-54.835 45.572-59.51s-64.96 36.869-67.938 31.664 63.857-36.908 61.731-42.514c-2.1266-5.6065-73.174 14.99-74.398 9.1202-1.2233-5.8702 72.137-15.368 71.847-21.358s-74.225-8.3554-73.574-14.316c0.6505-5.961 73.356 7.6753 74.931 1.8895s-68.01-30.883-65.55-36.351 67.394 29.968 70.679 24.952c3.2859-5.016-55.138-50.388-51.108-54.828 4.03-4.4402 54.834 49.327 59.51 45.572 4.675-3.7551-36.869-64.96-31.664-67.938 5.2049-2.9775 36.908 63.857 42.514 61.731s-14.99-73.174-9.1201-74.398c5.8702-1.2234 15.368 72.137 21.358 71.847 5.9893-0.29 8.3553-74.225 14.316-73.575s-7.6754 73.356-1.8895 74.931c5.7858 1.575 30.883-68.01 36.351-65.55s-29.968 67.394-24.952 70.679c5.0159 3.2858 50.388-55.138 54.828-51.108 4.4402 4.03-49.327 54.834-45.572 59.51s64.96-36.869 67.938-31.664-63.857 36.908-61.731 42.514 73.174-14.99 74.398-9.1202c1.2234 5.8703-72.137 15.368-71.847 21.358 0.2901 5.9894 74.225 8.3554 73.575 14.316-0.6505 5.9609-73.356-7.6754-74.931-1.8896-1.575 5.7859 68.01 30.883 65.55 36.352s-67.394-29.968-70.679-24.952c-3.2858 5.0159 55.138 50.388 51.108 54.828z" fill="#ffcf00"/>
    <path id="path337210-7-7" transform="matrix(.19895 -.081109 .057073 .27008 41.76 169.66)" d="m2162.1 2771.5c-4.03 4.4401-54.834-49.327-59.51-45.572-4.6751 3.755 36.869 64.96 31.664 67.938-5.2048 2.9775-36.908-63.858-42.514-61.731-5.6066 2.1266 14.99 73.174 9.1201 74.398-5.8702 1.2234-15.368-72.137-21.358-71.847-5.9893 0.29-8.3553 74.225-14.316 73.575s7.6753-73.356 1.8895-74.931-30.883 68.01-36.351 65.55 29.968-67.394 24.952-70.679-50.388 55.138-54.828 51.108c-4.4402-4.0301 49.327-54.835 45.572-59.51s-64.96 36.869-67.938 31.664 63.857-36.908 61.731-42.514c-2.1266-5.6065-73.174 14.99-74.398 9.1202-1.2233-5.8702 72.137-15.368 71.847-21.358s-74.225-8.3554-73.574-14.316c0.6505-5.961 73.356 7.6753 74.931 1.8895s-68.01-30.883-65.55-36.351 67.394 29.968 70.679 24.952c3.2859-5.016-55.138-50.388-51.108-54.828 4.03-4.4402 54.834 49.327 59.51 45.572 4.675-3.7551-36.869-64.96-31.664-67.938 5.2049-2.9775 36.908 63.857 42.514 61.731s-14.99-73.174-9.1201-74.398c5.8702-1.2234 15.368 72.137 21.358 71.847 5.9893-0.29 8.3553-74.225 14.316-73.575s-7.6754 73.356-1.8895 74.931c5.7858 1.575 30.883-68.01 36.351-65.55s-29.968 67.394-24.952 70.679c5.0159 3.2858 50.388-55.138 54.828-51.108 4.4402 4.03-49.327 54.834-45.572 59.51s64.96-36.869 67.938-31.664-63.857 36.908-61.731 42.514 73.174-14.99 74.398-9.1202c1.2234 5.8703-72.137 15.368-71.847 21.358 0.2901 5.9894 74.225 8.3554 73.575 14.316-0.6505 5.9609-73.356-7.6754-74.931-1.8896-1.575 5.7859 68.01 30.883 65.55 36.352s-67.394-29.968-70.679-24.952c-3.2858 5.0159 55.138 50.388 51.108 54.828z" fill="#ffc700"/>
    <path id="path337210-9-8" transform="matrix(.20612 -.031226 .021972 .27982 121.43 40.072)" d="m2162.1 2771.5c-4.03 4.4401-54.834-49.327-59.51-45.572-4.6751 3.755 36.869 64.96 31.664 67.938-5.2048 2.9775-36.908-63.858-42.514-61.731-5.6066 2.1266 14.99 73.174 9.1201 74.398-5.8702 1.2234-15.368-72.137-21.358-71.847-5.9893 0.29-8.3553 74.225-14.316 73.575s7.6753-73.356 1.8895-74.931-30.883 68.01-36.351 65.55 29.968-67.394 24.952-70.679-50.388 55.138-54.828 51.108c-4.4402-4.0301 49.327-54.835 45.572-59.51s-64.96 36.869-67.938 31.664 63.857-36.908 61.731-42.514c-2.1266-5.6065-73.174 14.99-74.398 9.1202-1.2233-5.8702 72.137-15.368 71.847-21.358s-74.225-8.3554-73.574-14.316c0.6505-5.961 73.356 7.6753 74.931 1.8895s-68.01-30.883-65.55-36.351 67.394 29.968 70.679 24.952c3.2859-5.016-55.138-50.388-51.108-54.828 4.03-4.4402 54.834 49.327 59.51 45.572 4.675-3.7551-36.869-64.96-31.664-67.938 5.2049-2.9775 36.908 63.857 42.514 61.731s-14.99-73.174-9.1201-74.398c5.8702-1.2234 15.368 72.137 21.358 71.847 5.9893-0.29 8.3553-74.225 14.316-73.575s-7.6754 73.356-1.8895 74.931c5.7858 1.575 30.883-68.01 36.351-65.55s-29.968 67.394-24.952 70.679c5.0159 3.2858 50.388-55.138 54.828-51.108 4.4402 4.03-49.327 54.834-45.572 59.51s64.96-36.869 67.938-31.664-63.857 36.908-61.731 42.514 73.174-14.99 74.398-9.1202c1.2234 5.8703-72.137 15.368-71.847 21.358 0.2901 5.9894 74.225 8.3554 73.575 14.316-0.6505 5.9609-73.356-7.6754-74.931-1.8896-1.575 5.7859 68.01 30.883 65.55 36.352s-67.394-29.968-70.679-24.952c-3.2858 5.0159 55.138 50.388 51.108 54.828z" fill="#ffcf00"/>
    <path id="path337210-73-0" transform="matrix(.20383 -.052762 .037126 .27671 85.595 92.015)" d="m2162.1 2771.5c-4.03 4.4401-54.834-49.327-59.51-45.572-4.6751 3.755 36.869 64.96 31.664 67.938-5.2048 2.9775-36.908-63.858-42.514-61.731-5.6066 2.1266 14.99 73.174 9.1201 74.398-5.8702 1.2234-15.368-72.137-21.358-71.847-5.9893 0.29-8.3553 74.225-14.316 73.575s7.6753-73.356 1.8895-74.931-30.883 68.01-36.351 65.55 29.968-67.394 24.952-70.679-50.388 55.138-54.828 51.108c-4.4402-4.0301 49.327-54.835 45.572-59.51s-64.96 36.869-67.938 31.664 63.857-36.908 61.731-42.514c-2.1266-5.6065-73.174 14.99-74.398 9.1202-1.2233-5.8702 72.137-15.368 71.847-21.358s-74.225-8.3554-73.574-14.316c0.6505-5.961 73.356 7.6753 74.931 1.8895s-68.01-30.883-65.55-36.351 67.394 29.968 70.679 24.952c3.2859-5.016-55.138-50.388-51.108-54.828 4.03-4.4402 54.834 49.327 59.51 45.572 4.675-3.7551-36.869-64.96-31.664-67.938 5.2049-2.9775 36.908 63.857 42.514 61.731s-14.99-73.174-9.1201-74.398c5.8702-1.2234 15.368 72.137 21.358 71.847 5.9893-0.29 8.3553-74.225 14.316-73.575s-7.6754 73.356-1.8895 74.931c5.7858 1.575 30.883-68.01 36.351-65.55s-29.968 67.394-24.952 70.679c5.0159 3.2858 50.388-55.138 54.828-51.108 4.4402 4.03-49.327 54.834-45.572 59.51s64.96-36.869 67.938-31.664-63.857 36.908-61.731 42.514 73.174-14.99 74.398-9.1202c1.2234 5.8703-72.137 15.368-71.847 21.358 0.2901 5.9894 74.225 8.3554 73.575 14.316-0.6505 5.9609-73.356-7.6754-74.931-1.8896-1.575 5.7859 68.01 30.883 65.55 36.352s-67.394-29.968-70.679-24.952c-3.2858 5.0159 55.138 50.388 51.108 54.828z" fill="#f2d34e"/>
    <ellipse id="path330563-5" transform="matrix(.89617 -.4437 .24857 .96861 0 0)" cx="418.27" cy="944.85" rx="9.3749" ry="11.796" fill="#341200" stroke="#341200" stroke-linecap="round" stroke-linejoin="round" stroke-width="1.7503"/>
    <ellipse id="path329747-1" transform="matrix(.89617 -.4437 .24857 .96861 0 0)" cx="418.34" cy="944.77" rx="7.4528" ry="9.3257" fill="#231812" stroke="#402206" stroke-linecap="round" stroke-linejoin="round" stroke-width="1.7503"/>
    <path id="path337210-3-2" d="m598.94 698.48c-0.33322 0.20579 0.0746 2.0047 0.74304 4.3638-0.75744-1.7044-1.3584-2.7865-1.6368-2.582-0.37356 0.27443 0.35476 2.5394 1.3981 5.3749-1.2027-2.5603-2.2108-4.4685-2.5626-4.1733-0.23445 0.19674 0.0299 1.1952 0.54862 2.6034-0.92944-1.6166-1.6492-2.644-1.9124-2.3883-0.16583 0.16106-0.0281 0.74844 0.28037 1.5768-0.28869-0.33871-0.50664-0.48741-0.62492-0.3705-0.16849 0.16655-0.0124 0.77402 0.32821 1.6325-0.71955-0.95697-1.2527-1.4955-1.4458-1.2723-0.19487 0.22526 0.11796 1.0429 0.70583 2.182 0.0127 0.23504 0.12569 0.60128 0.29258 1.0374-1.1707-1.6432-2.0838-2.7344-2.3411-2.4176-0.35523 0.43764 1.0245 2.8089 2.814 5.6385-1.7116-2.1398-3.1076-3.7108-3.4019-3.2938-0.31469 0.44587 1.0562 2.4853 2.8727 4.9472-1.9169-2.1525-3.4866-3.7485-3.7764-3.2882-0.14268 0.22661 0.13353 0.80237 0.65523 1.5832-0.89476-0.75171-1.5333-1.1436-1.69-0.85835-0.13351 0.24307 0.17747 0.80273 0.75288 1.551-0.52774-0.36206-0.90445-0.51883-1.0144-0.31369-0.11128 0.20769 0.12224 0.6535 0.54979 1.233-0.68-0.4155-1.1524-0.58882-1.2647-0.34238-0.13209 0.28995 0.3288 0.91446 1.1195 1.7247-0.25003-0.11823-0.43042-0.14601-0.5285-0.0664-0.97544-0.62348-1.6613-0.92512-1.7954-0.6119-0.31094 0.72645 2.845 3.2571 6.0725 5.8279-3.1039-2.0021-5.9679-3.7791-6.2166-3.0868-0.20986 0.58408 1.7494 2.0481 4.2191 3.7206-2.5271-1.3575-4.5924-2.3316-4.776-1.7382-0.0739 0.23871 0.22994 0.59858 0.74626 1.027-0.77342-0.21433-1.2861-0.24304-1.3584 0.0415-0.0731 0.28791 0.35417 0.68824 1.0807 1.1561-0.69488-0.16867-1.1615-0.18039-1.2256 0.0856-0.0614 0.25508 0.29269 0.59865 0.87978 0.99142-0.63029-0.0728-1.051-0.0276-1.0975 0.2281-0.0582 0.32012 0.47975 0.70344 1.3652 1.1235-1.3967-0.27739-2.3486-0.32401-2.4163 0.089-0.0657 0.40112 0.77417 0.85861 2.0675 1.3452 0.74811 0.48049 1.9636 1.0364 3.377 1.6244-2.7468-0.44261-4.9824-0.67965-5.0503-0.0382-0.0703 0.66393 2.2992 1.2425 5.1687 1.8046-2.8855-0.24312-5.2838-0.3314-5.3267 0.3356-0.0163 0.25232 0.34192 0.46153 0.91204 0.64684-0.63561 0.12436-1.0446 0.2995-1.0489 0.56539-4e-3 0.2883 0.45797 0.47951 1.1891 0.6146-0.73089 0.13177-1.1954 0.3198-1.1959 0.60597-5.6e-4 0.30759 0.51554 0.50234 1.3465 0.62874-0.63354 0.19776-1.0346 0.41941-1.0206 0.68513 0.01 0.18943 0.21901 0.31403 0.56788 0.39263-0.91742 0.27033-1.4885 0.56241-1.4664 0.8909 0.0148 0.22067 0.29533 0.34102 0.75423 0.39476-3e-3 0.0165-0.0133 0.0318-0.0131 0.0487 8e-3 0.59229 1.8786 0.66555 4.2691 0.59434-2.3181 0.65538-4.1074 1.2909-4.0352 1.8602 0.0828 0.65303 2.4359 0.21707 5.2716-0.44929-2.814 0.98729-5.1276 1.9155-5.0175 2.5653 0.0447 0.26347 0.48567 0.30125 1.1493 0.2119-0.53583 0.36637-0.85861 0.68775-0.80487 0.9308 0.056 0.25316 0.48197 0.25417 1.1153 0.11383-0.64945 0.42434-1.0404 0.79195-0.97665 1.0602 0.0827 0.34923 0.84258 0.22846 1.9505-0.13368-0.74446 0.5586-1.1735 1.0137-1.0877 1.3 0.0126 0.0432 0.0399 0.0746 0.0723 0.10131-0.57295 0.49488-0.91157 0.90118-0.8328 1.1505 0.0443 0.14032 0.19864 0.18236 0.43805 0.14834-0.17449 0.19815-0.2604 0.37161-0.22526 0.51114 0.1542 0.61296 2.2985-0.31207 4.9098-1.5961-2.1466 1.6518-3.7856 3.0589-3.5825 3.5809 0.21547 0.55366 2.1529-0.67474 4.5332-2.3598-2.32 2.0082-4.1359 3.7278-3.8941 4.2725 0.11698 0.26356 0.6373 0.0572 1.4046-0.43572-0.47009 0.61341-0.73146 1.0845-0.62029 1.3012 0.0996 0.19408 0.43845 0.0697 0.91961-0.24386-0.48827 0.64171-0.75848 1.1319-0.64075 1.3524 0.19811 0.37099 1.2392-0.4023 2.6231-1.6406-0.48726 0.6461-0.87567 1.2097-1.0964 1.634-0.64672 0.96772-0.99814 1.6715-0.83816 1.9174 0.02 0.0307 0.0506 0.0435 0.082 0.0549-0.30343 0.48408-0.44537 0.84339-0.34855 1.0179 0.35315 0.6364 3.1199-2.2837 6.0097-5.3821-2.2064 3.1742-4.0862 6.0085-3.7079 6.5037 0.30814 0.40337 1.7125-1.3267 3.4247-3.6538-1.6061 2.6484-2.7988 4.8146-2.4656 5.2036 0.20132 0.23497 0.79509-0.39429 1.5928-1.4713-0.4339 1.0037-0.63406 1.6961-0.45288 1.8805 0.11893 0.12094 0.34619-0.0361 0.65224-0.3951-0.28172 0.7428-0.40665 1.2728-0.2531 1.4241 0.26574 0.26184 1.0408-0.82869 2.0366-2.5042-0.42746 1.1187-0.76551 2.0871-0.90897 2.7284-0.56774 1.3666-0.86804 2.3387-0.64862 2.5441 0.61824 0.57848 3.745-6.0904 6.3311-11.186-1.8252 5.148-3.8799 10.738-3.2698 11.137 0.35004 0.22896 1.1732-1.6265 2.146-4.1413-0.80326 2.7983-1.3347 4.9967-0.96274 5.205 0.30122 0.16869 0.87061-1.1308 1.5569-3.0703-0.32234 1.6365-0.44756 2.7655-0.18016 2.8871 0.10637 0.0484 0.23616-0.0795 0.38394-0.34439-0.0779 0.72865-0.0648 1.2147 0.10371 1.2885 0.17165 0.0753 0.39954-0.32521 0.66025-1.0007-0.34336 1.9721-0.47739 3.3379-0.17934 3.454 0.26061 0.10153 0.62826-0.86696 1.0501-2.3809 0.10119-0.10067 0.20782-0.31862 0.31954-0.64054 0.0251 0.0428 0.0535 0.0743 0.0883 0.0856 0.67137 0.21844 1.7521-6.0352 2.7934-11.625-0.58907 5.9341-1.441 13.015-0.7189 13.145 0.34438 0.062 0.67175-1.603 0.99304-3.9284-0.0916 2.5218-0.0651 4.3931 0.29589 4.4292 0.41556 0.0416 0.70639-2.369 0.96156-5.4914 0.0245 2.6522 0.13647 4.637 0.50974 4.6397 0.0591 4.2e-4 0.11187-0.0607 0.16207-0.15016 0.0733 0.51571 0.1669 0.86008 0.28865 0.96604 0.11139 1.3046 0.27016 2.1294 0.51243 2.1152 0.34812-0.0204 0.47137-1.7873 0.51038-4.2084 0.14403 0.75048 0.30157 1.2176 0.48238 1.1898 0.13514-0.0208 0.22209-0.29911 0.27587-0.75768 0.0926 0.30111 0.19387 0.4656 0.30616 0.4534 0.58798-0.0638 0.38493-4.748 0.14116-9.6786 0.66996 5.1635 1.3378 10.314 1.9519 10.16 0.30526-0.0768 0.30085-1.3912 0.14049-3.3282 0.42269 2.0033 0.81133 3.3508 1.1258 3.2457 0.52093-0.17414-0.0405-3.9885-0.74571-8.2904 0.6158 2.6786 1.1988 5.0362 1.6548 6.1197 0.57454 1.9436 1.065 3.2361 1.368 3.0808 0.29328-0.15057 0.12416-1.4874-0.27102-3.4058-0.17598-1.2831-0.56983-3.1501-1.0438-5.2322 0.986 2.9448 1.841 5.1897 2.2327 4.9477 0.0942-0.0582 0.12723-0.24742 0.11773-0.5284 0.21803 0.41434 0.40114 0.62531 0.53511 0.54986 0.47301-0.26641-0.41373-3.5854-1.5358-7.4341 1.5356 3.8782 2.9464 7.2639 3.4206 6.9155 0.25396-0.18654 3.7e-4 -1.2899-0.5077-2.8535 0.76968 1.5065 1.3679 2.4387 1.6247 2.2233 0.32914-0.27611-0.33628-2.152-1.3231-4.5456 1.5563 2.7007 2.858 4.7515 3.2112 4.3695 0.13764-0.14892 0.0414-0.60323-0.19511-1.2399 4e-3 -3e-3 0.0114-1e-3 0.0157-6e-3 0.40485-0.40013-0.96635-3.2142-2.6785-6.4932-0.44454-0.89674-0.92404-1.8425-1.4095-2.7972 2.3287 3.5444 4.5218 6.8015 4.9511 6.2727 0.0157-0.0192 0.0197-0.0516 0.0287-0.078 0.35336 0.37647 0.61183 0.54051 0.73419 0.39911 0.35409-0.40934-0.91818-2.7174-2.6077-5.5136 2.0301 2.5877 3.7431 4.605 4.0766 4.1325 0.19273-0.27309-0.26083-1.1577-1.0429-2.3526 0.99128 0.99659 1.7131 1.5602 1.8996 1.2641 0.20421-0.32432-0.41755-1.3372-1.4505-2.6937 1.4525 1.2346 2.5589 2.0184 2.7563 1.6192 0.0793-0.16028-0.0243-0.43759-0.25577-0.79748 0.11724 0.0179 0.20247-8e-3 0.24631-0.0897 0.10069-0.18798-0.0767-0.56783-0.42493-1.0656-0.40003-1.2083-3.5984-4.4111-6.5294-7.4261 2.6176 2.0455 5.2882 4.1528 6.5523 4.694 0.88175 0.58644 1.494 0.85905 1.6253 0.57065 0.23865-0.52383-1.4242-2.1196-3.5902-3.9998 2.3622 1.4799 4.2759 2.5377 4.4771 1.9777 0.12113-0.33706-0.50212-0.97627-1.5051-1.7697 1.1244 0.4964 1.9069 0.70808 2.0152 0.35822 0.11793-0.38108-0.65953-1.0501-1.8855-1.8633 1.4073 0.42891 2.3822 0.58098 2.4724 0.16568 0.0266-0.1224-0.0396-0.25961-0.1688-0.40706 0.18557-0.0186 0.30847-0.0803 0.33871-0.20604 0.0407-0.16872-0.0946-0.37483-0.35607-0.60741 0.0248-0.0276 0.0489-0.0556 0.0586-0.0939 0.25597-1.0075-5.4418-3.3544-9.6826-5.3787 4.4493 1.3332 10.514 3.5818 10.706 2.5246 0.0532-0.29313-0.39918-0.63994-1.1533-1.0186-0.28466-0.37359-1.21-0.78729-2.4297-1.2198 2.1036 0.29464 3.7215 0.39337 3.778-0.14051 0.0398-0.37609-0.72257-0.72388-1.8914-1.0578 1.1846-5e-3 1.9785-0.13449 2.0027-0.5109 0.0298-0.46283-1.145-0.7877-2.801-1.0581 1.5418-0.20058 2.61-0.47694 2.6037-0.92504-5.3e-4 -0.0232-0.0141-0.0428-0.0197-0.0645 0.23084-0.10462 0.36045-0.2313 0.36071-0.38508 2.9e-4 -0.16431-0.1477-0.29621-0.40922-0.40347 0.15468-0.0906 0.24766-0.1948 0.24967-0.31953 0.0156-0.97032-4.9622-0.90055-9.2684-0.97422 4.3841-0.52979 9.6626-0.96154 9.6103-1.9536-0.0161-0.30625-0.54028-0.44596-1.3732-0.48513 0.11373-0.10196 0.17372-0.20764 0.16637-0.31713-0.0192-0.28432-0.48713-0.39935-1.2119-0.41849 1.1684-0.41793 1.9284-0.82119 1.881-1.1955-0.0488-0.3848-0.90122-0.38431-2.1571-0.19027 1.1656-0.51446 1.9191-0.98109 1.8559-1.354-0.0915-0.53986-1.7866-0.16594-3.9605 0.4806 1.3634-0.77302 2.4685-1.4734 2.8417-1.9692 0.43785-0.32544 0.68765-0.60985 0.63577-0.82817-0.0294-0.12364-0.14946-0.18486-0.33028-0.20337 0.23343-0.21546 0.35192-0.40655 0.31671-0.56586-0.1855-0.83885-4.1179 0.87654-7.9351 2.5101 3.7912-2.163 7.8446-4.4086 7.5944-5.2437-0.11369-0.37945-1.0196-0.10107-2.3225 0.50717 0.6717-0.55637 1.0631-1.0072 0.97745-1.2782-0.0595-0.18849-0.31512-0.20168-0.71465-0.0863 0.57984-0.57217 0.91457-1.0265 0.81834-1.2738-0.1394-0.35822-1.0077 0.038-2.2412 0.81159 1.0528-1.0228 1.7047-1.8164 1.5554-2.1527-0.25211-0.56798-2.3625 1.0258-4.8585 3.0665 0.71716-0.80456 1.3731-1.5617 1.8984-2.2176 1.2615-1.3784 2.0922-2.4573 1.8969-2.823-0.0225-0.0422-0.0558-0.0698-0.0987-0.0843 0.20918-0.34171 0.30086-0.60362 0.22527-0.75094-0.33878-0.66023-3.2521 2.1057-6.2781 5.0182 2.8883-3.3653 5.7145-6.6767 5.3202-7.3091-0.27509-0.44117-1.7796 1.0601-3.6322 3.1099 1.4214-1.8724 2.4252-3.3709 2.1784-3.7504-0.0932-0.14335-0.32036-0.0622-0.6418 0.17733 0.25865-0.54387 0.36808-0.93346 0.25039-1.0875-0.2245-0.29389-1.0205 0.52435-2.0964 1.8866 0.8368-1.5063 1.3182-2.5986 1.0902-2.8648-0.44813-0.52303-2.7806 3.1008-5.1995 6.9103 0.0446-0.0916 0.0889-0.18245 0.13318-0.27354 1.8461-3.4804 3.5554-6.7728 3.5916-7.7915 0.22803-0.62218 0.31772-1.0596 0.18219-1.1975-0.4499-0.45766-2.4303 3.0105-4.5447 6.818 1.8692-4.1465 3.5878-8.0515 3.0963-8.462-0.49409-0.4127-2.3165 3.4604-4.2253 7.6079 1.6931-4.0107 3.1727-7.6596 2.7012-8.0317-0.14454-0.11406-0.40124 0.16171-0.72836 0.68089 0.0986-0.54712 0.0972-0.89981-0.0393-0.98908-0.29936-0.19584-0.94106 1.1175-1.726 3.0608 0.52403-1.975 0.79282-3.3868 0.49599-3.553-0.57902-0.32426-2.121 4.6276-3.6578 9.5393 0.30507-1.2836 0.60947-2.5656 0.88502-3.7701 0.96967-3.9376 1.7213-7.3122 1.2433-7.5296-0.24431-0.11113-0.61265 0.71752-1.0473 2.046-0.28922 0.0464-0.68795 1.189-1.1456 2.9227 0.52501-3.1783 0.84368-5.6882 0.42757-5.8236-0.68847-0.22403-1.8072 6.3572-2.8726 12.048 0.9052-5.6801 1.9973-12 1.3248-12.19-0.21284-0.0602-0.45821 0.56191-0.72285 1.5867-0.0177-0.71201-0.0932-1.1688-0.26512-1.1997-0.35675-0.0643-0.69544 1.7326-1.0278 4.1949 0.0777-2.3667 0.0384-4.0897-0.30837-4.1244-0.50317-0.0504-0.82768 3.4113-1.1209 7.5084 0.0516-4.5364 0.0418-8.5961-0.5027-8.6-0.16969-1e-3 -0.29765 0.41597-0.4001 1.0912-0.19658 0.0326-0.32827 0.62829-0.42235 1.5556-0.0495-0.0882-0.10227-0.14632-0.16093-0.14288-0.0831 5e-3 -0.15282 0.11174-0.21303 0.29418-0.17836-1.7051-0.3933-2.8301-0.68069-2.7989-0.73829 0.0801-0.23775 7.3948 0.035 13.398-0.44624-5.999-0.82576-13.334-1.558-13.222-0.27915 0.0429-0.35799 1.165-0.33539 2.8318-0.2377-1.1143-0.47068-1.7817-0.69639-1.7249-0.38502 0.0968-0.25539 2.2486 0.0363 5.0495-0.5081-2.5973-0.98097-4.5186-1.3494-4.3955-0.36159 0.12081-0.18119 2.065 0.18363 4.6302-0.71154-2.9598-1.352-5.2141-1.7504-5.0411-0.17033 0.0736-0.19129 0.56825-0.12505 1.308-0.0963-0.13109-0.18441-0.18952-0.26162-0.15523-0.24935 0.11079-0.17744 1.0821 0.0639 2.5071-0.63339-1.8161-1.1566-2.9917-1.4498-2.8266-0.50158 0.2825 0.5255 3.996 1.7426 8.1388 0.0716 0.30306 0.13292 0.58003 0.20865 0.8941-1.4526-4.5449-2.8616-8.8655-3.4036-8.5308z" fill="none" stroke="#070504" stroke-linecap="round" stroke-linejoin="round" stroke-width=".45653"/>
    <path id="path341200" d="m587.43 757.37-8.2538-2.1371c-1.7967-0.81329-2.9784 1.0627-4.2218 2.6686l2.2029-2.4692c-2.3073-0.0836-5.0873-0.049-9.4134 0.37216 0 0 4.6635-0.8043 4.3487-2.2072-0.25635-1.1423-13.835-5.3963-13.876-5.3508l8.3836 2.2229-1.7148-3.3662c1.759 2.3351 4.3599 4.413 9.0823 5.8432l-1.195-5.5772c0.21293 2.8648 1.6834 4.8912 3.926 6.4028z" opacity=".13821" stroke="#000" stroke-width=".26458px"/>
    <path id="path342071" d="m555.54 747.61c6.5751 7.3548 12.036 15.838 31.883 9.7565z" opacity=".1626" stroke="#000" stroke-width=".26458px"/>
   </g>
  </g>
 </g>
</svg>
