<?xml version="1.0" encoding="UTF-8"?>
<svg id="svg5" width="1200mm" height="1200mm" version="1.1" viewBox="0 0 1200 1200" xmlns="http://www.w3.org/2000/svg" xmlns:xlink="http://www.w3.org/1999/xlink">
 <g id="layer60" transform="translate(19.4 11.241)">
  <g id="layer214">
   <g id="layer172">
    <path id="path42930" d="m600.09 831.5c-0.56138 3.8091 13.405-8.7104 16.357-16.147 9.6977-24.43 5.0606-55.078-10.267-79.073-11.883-18.602-31.382-34.74-52.841-39.912-9.9161-2.39-23.345 2.403-23.345 2.403 18.368-6.5728 41.833 25.964 54.025 46.065 28.164 46.433 16.07 86.665 16.07 86.665z" fill="#fff" stroke="#000" stroke-width="1.097px"/>
    <path id="path43744" d="m597.83 833.31c1.7128 1.4042-14.464 4.6154-23.218 1.351-19.916-7.4271-37.121-19.849-48.754-36.482-11.886-16.995-19.659-38.912-17.924-59.578 1.4555-17.332 10.525-30.095 10.525-30.095-4.0047 7.6532-13.766 41.445-1.7277 60.859 10.054 16.214 20.282 34.104 35.826 45.867 12.944 9.7958 45.272 18.079 45.272 18.079z" fill="#fff" stroke="#000" stroke-width="1.097px"/>
    <path id="path41032" d="m530 698.77c-22.161 5.475-24.366 53.401-7.7386 83.818 16.628 30.417 71.145 62.545 78.686 47.807 7.5412-14.738-0.12189-56.156-16.08-82.332-15.958-26.176-32.706-54.768-54.868-49.293z" fill="#fff" stroke="#000" stroke-width="1.097px"/>
    <path id="path45617" d="m588.76 822.63c2.7946-1.2649 3.3932-4.4861 3.5198-7.5817 1.0489-25.671-6.4666-47.391-9.1432-55.393-5.9329-17.737-15.336-32.27-23.759-41.048-9.7712-10.183-28.154-23.321-36.351-15.083-1.3535 1.3603-2.6855 2.4471-4.0988 4.5602-2.5576 3.8246 0.45565-2.4301 2.4518-4.0329 8.7377-7.0161 26.077-13.094 34.389-5.5784 39.367 35.592 58.067 110.76 59.899 111.22 2.0485 0.51644 4.3227-5.3784 3.9499-3.7132-5.1554 23.042-19.524 25.524-20.695 26.686-3.3529 3.3269-12.076 3.8772-18.427 2.22-7.6031-1.984-14.932-5.0473-21.687-9.1171-9.8307-5.923-18.925-12.466-25.905-21.576-10.714-13.982-19.358-30.327-23.094-47.541-2.1286-9.8085-1.3501-19.935 0.53697-29.792 0.51061-2.6673 6.5106-15.744 5.5048-13.221-5.1354 12.879-4.791 34.567-1.3206 48.451 2.185 8.7412 6.452 17.094 11.901 24.269 8.154 10.737 20.675 21.1 30.202 26.902 11.171 6.8043 24.197 12.958 32.127 9.3693z" opacity=".88008"/>
    <path id="path52218" d="m527.54 714.12c3.5721 38.867 23.674 66.517 47.706 91.925l2.6156-0.86894c-18.08-28.253-35.36-57.151-48.318-91.952z" fill="#1e1e1e"/>
   </g>
  </g>
 </g>
</svg>
