<?xml version="1.0" encoding="UTF-8"?>
<svg id="svg5" width="1200mm" height="1200mm" version="1.1" viewBox="0 0 1200 1200" xmlns="http://www.w3.org/2000/svg" xmlns:xlink="http://www.w3.org/1999/xlink">
 <g id="layer60" transform="translate(19.4 11.241)">
  <g id="layer253">
   <g id="layer254">
    <path id="path997" d="m-18.825 588.76v-600l1199.4-2.3e-4v1200l-1199.4 2e-4z" fill="#a6f9de"/>
    <path id="path995" d="m-18.825 876.76c0.01426-104-0.02096-208 0.07789-312 97.167 48.234 203.76 73.975 311.46 83.818 86.233 8.9512 173.38 13.833 259.26-1.117 54.224-6.9534 113.67-19.95 162.16-37.435-236.31 38.887-517.99-13.623-733.53-117.23l0.7413-26.046c220.56 110.77 503.81 163.55 746.99 120 55.705-8.1992 111.44-18.497 162.46-43.396 95.13-36.657 188.76-80.476 289.75-98.595v744h-1199.4z" fill="#fae086"/>
    <path id="path987" d="m-19.177 963.51s238.75 37.547 336.27 40.749c166.72 3.3645 334.36-5.9413 498.84-35.106 123.13-22.123 243.48-57.012 364.3-88.998l0.3639 308.6h-1197.8zm0.75793-30.988-0.41484-35.075c130.83 31.493 264.86 46.969 399.16 51.523-117.88 39.799-270.8 5.2504-398.75-16.449z" fill="#f3c470"/>
    <path id="path993" d="m304.98 430.36c-110.37-2.6872-220.57-23.182-323.8-62.662v-378.94h1199.4c-0.6382 75.21 2.2126 152.64 0 226.48-134.29 16.842-263.86 71.138-391.92 112.08-112.47 42.038-226.06 84.982-346.59 96.291-45.439 6.276-91.29 8.1848-137.12 6.7583zm420.41-36.412c130.1-58.568 318.28-104.52 455.26-142.98l-0.1077 24.685c-151.27 28.421-307.11 77.296-455.16 118.3z" fill="#82f8cd"/>
    <path id="path983" d="m206.84 319.23c-78.197-3.9842-225.8-58.437-225.8-58.437l0.14584-47.877s153.35 81.767 229.02 106.13l-3.3666 0.18042zm198.41-9.7913c-150.98-1.5185-296.88-55.914-423.97-134.91l-0.41279-72.201c180.73 122.63 407.21 172.47 623.39 153.02 185.13-24.435 568.77-116.61 576.34-110.84v31.551s-433.46 93.482-615.68 124.39c-52.927 6.5111-106.36 9.2611-159.67 8.9899zm99.305-82.818c-178.2-2.9695-375.64-61.495-523.53-163.02l0.15216-74.835h1199.5c-0.6507 41.199 2.1165 84.674-0.1102 124.48-228.96 14.215-445.45 114.73-676.04 113.38z" fill="#5ccaa1"/>
    <path id="path991" d="m432.62 213.54c-69.304-1.6291-121.54-79.863-94.712-144.44 22.447-71.505 125.86-93.914 176.26-38.934 50.91 47.495 36.802 142.47-27.082 171.09-16.258 9.6242-35.792 12.863-54.461 12.278zm-82.366-169.55c1.5173-1.4681-1.0456 1.4372 0 0zm1.7149-2.1632c1.049-1.8604 1.1676-1.2436 0 0zm1.6139-2.3513c0.011-0.95939 1.053 0.12282 0 0zm1.3113-1.5378c3.0311-2.8942-2.5571 2.8627 0 0zm1.513-1.6902c0.011-0.9593 1.0529 0.12282 0 0zm1.8157-2.2191c0.011-0.95937 1.0529 0.12282 0 0zm3.0262-3.2279c0.011-0.95935 1.0529 0.12282 0 0zm0.807-0.60523c0.011-0.95935 1.0529 0.12282 0 0zm1.0087-1.2105c0.011-0.95932 1.0529 0.12282 0 0zm1.9165-1.9412c1.5172-1.4681-1.0456 1.4372 0 0zm1.0087-0.80698c1.5172-1.468-1.0456 1.4372 0 0zm1.3114-1.1096c2.6612-2.5369-2.1876 2.5054 0 0zm1.5131-1.3113c1.5172-1.468-1.0459 1.4371 0 0zm2.1182-1.8919c0.011-0.95939 1.0529 0.12282 0 0zm4.4384-3.4543c1.9081-1.8235-1.4354 1.7923 0 0zm1.8157-1.1858c0.011-0.95936 1.0529 0.12282 0 0zm2.4209-1.6139c0.011-0.95934 1.0529 0.12282 0 0zm102.6-8.1764c0.3827-0.52015 0.6746 0.83171 0 0zm-1.8259-0.82347c0.3036-0.43155 0.5186 0.78514 0 0zm-3.9732-1.5523c0.8858-0.28764 0.085 0.39065 0 0zm-3.0262-1.2105c0.8858-0.28765 0.085 0.39066 0 0zm-1.2105-0.40347c0.886-0.28767 0.085 0.39065 0 0zm-61.746-0.60105c1.111-0.32723 0.2017 0.35283 0 0zm56.904-0.81116c0.886-0.28763 0.085 0.39065 0 0zm-3.1358-0.80895c1.332-0.29803 0.2546 0.33155 0 0zm-46.203-0.40274c1.5626-0.31366 0.3001 0.32418 0 0zm44.686 4e-3c1.111-0.32723 0.2017 0.35282 0 0zm-1.3113-0.20738c1.5626-0.31366 0.3 0.32418 0 0zm-41.256-0.19638c1.111-0.32723 0.2017 0.35283 0 0zm39.554-0.20588c0.886-0.28769 0.085 0.39064 0 0zm-1.0213-0.19744c1.111-0.32723 0.2016 0.35282 0 0zm-1.1058-0.20801c1.3321-0.29804 0.2547 0.33154 0 0zm-31.068-0.20188c1.332-0.29804 0.2546 0.33154 0 0zm28.946-0.19554c1.1109-0.32723 0.2017 0.35284 0 0zm-14.526-0.4122c2.0127-0.30371 0.3937 0.3093 0 0zm12.209 2e-3c1.332-0.29804 0.2546 0.33154 0 0zm-19.863-0.19976c0.8859-0.28769 0.085 0.39064 0 0zm0.7943 4e-3c1.111-0.32723 0.2017 0.35283 0 0zm1.8157 0c1.111-0.32723 0.2017 0.35283 0 0zm1.517-7e-3c1.332-0.29804 0.2546 0.33155 0 0zm13.92 0c1.332-0.29804 0.2546 0.33155 0 0z" fill="#f3e06f"/>
   </g>
  </g>
 </g>
</svg>
