<?xml version="1.0" encoding="UTF-8"?>
<svg id="svg5" width="1200mm" height="1200mm" version="1.1" viewBox="0 0 1200 1200" xmlns="http://www.w3.org/2000/svg" xmlns:xlink="http://www.w3.org/1999/xlink">
 <g id="layer60" transform="translate(19.4 11.241)">
  <g id="layer253">
   <g id="layer256">
    <path id="path172595" d="m-19.4 588.76v-600h1200v1200h-1200z" fill="#f4c46e" stroke-width=".2"/>
    <path id="path172589" d="m-19.163 774.4v-37.323c131.72 3.3093 600.24-6.3077 826.97-102.82 97.204-36.556 193.97-77.227 297.74-91.409 24.99-4.092 50.094-7.6489 75.296-10.088-3.4887 13.14 9.8323 41.335-14.01 36.091-94.382 10.019-186.63 34.526-274.42 70.229-118.85 47.036-241.16 87.426-367.98 106.84-109.62 28.956-447.09 33.848-543.6 28.477zm310.53-90.733c-71.242 0.90527-142.62 2.479-213.72-2.0029-32.424-2.0438-64.604-7.0417-96.806-11.332 0.71239-47.032-1.5806-102.32 1.1143-148.34 20.232 5.8641 40.796 10.499 60.586 14.687 123.7 26.178 251.23 16.782 374.7-3.3284 67.885-14.345 134.38-34.505 201.9-50.504 115.78-34.989 228.08-80.746 345.1-111.89 71.494-21.145 143.01-42.975 216.6-55.748-0.1762 44.368 0.4237 88.786-0.4153 133.11-187.06 47.216-369.88 109.17-552.72 170.43-103.09 30.815-209.83 47.441-316.11 62.928-6.7211 0.63556-13.524 1.9254-20.23 1.9812zm-57.599-185.84c-85.279 0.72568-171.29-14.447-252.73-35.365-0.36645-157.9-0.1361-315.8-0.2-473.7h1200c-0.6785 80.395 1.5828 162.61-1.45 241.6-11.256 1.6427-25.979 3.6869-35.167 6.6018 10.801 3.5764 33.714-10.394 36.608 1.62 5.7852 45.665-69.119 27.183-97.992 46.507-140.98 36.605-275.47 93.127-414.1 136.98-141.56 40.754-286.36 79.422-434.97 75.759zm909.5-260.36c-0.194-1.3564-2.5196 1.3478 0 0z" fill="#f4b46e" stroke-width=".2"/>
    <path id="path172587" d="m250.2 390.32c-91.436 0.84633-181.24-18.743-269.45-40.792l-0.15-42.685c141.54 34.891 335.98 43.432 480.7 26.737 186.34-28.833 366.15-88.483 551.31-123.03-27.954 9.9958-63.621 17.497-93.61 28.42-145.67 49.754-291.87 100.09-442.6 132.39-74.594 12.872-150.5 19.156-226.2 18.957zm62.375-85.244c-107.6 1.0473-227.94-17.019-331.98-43.117 0 0 2.6097-22.661 0-36.317v-236.88h1200c-0.1675 55.367 0.4117 111.04-0.4 166.17-154.34 2.7308-303.01 49.041-452.1 84.027-136.5 32.551-273.7 71.432-415.52 66.116zm701.57-94.343c-1.1161-1.1522 1.2262-0.25603 0 0z" fill="#f4a470" stroke-width=".2"/>
    <circle id="path11065" cx="245.37" cy="619.19" r="106.66" fill="#f3e06e" fill-rule="evenodd" style="paint-order:fill markers stroke"/>
   </g>
  </g>
 </g>
</svg>
