<?xml version="1.0" encoding="UTF-8"?>
<svg id="svg5" width="1200mm" height="1200mm" version="1.1" viewBox="0 0 1200 1200" xmlns="http://www.w3.org/2000/svg" xmlns:xlink="http://www.w3.org/1999/xlink">
 <g id="layer60" transform="translate(19.4 11.241)">
  <g id="layer214">
   <g id="layer170">
    <circle id="path15808" cx="473.29" cy="1127" r="53.134" fill="#fff" stroke="#000" stroke-linecap="round" stroke-linejoin="round" stroke-width="2.3425"/>
    <path id="path35675" d="m473.68 1108.2c-8.4404 3.5539-14.638 7.7485-20.556 12.023 1.2419 8.2152 2.383 16.506 5.042 23.658 7.6437 1.5945 15.888 2.3889 24.628 2.521l9.1143-21.913c-4.5698-5.6809-11.551-10.96-18.229-16.289z" stroke="#000" stroke-width="1.097px"/>
    <path id="path35677" d="m458.36 1080.8c7.35 1.0509 13.027 3.5658 17.453 7.1751 6.7226-2.4749 13.445-4.2795 20.168-3.4906l-3.8285-7.2523c-7.9002-2.5955-17.721-3.2658-26.348-2.9541z" stroke="#000" stroke-width="1.097px"/>
    <path id="path35679" d="m513.05 1099.6c0.40425 5.1567 1.0661 9.9594-1.3574 19.004 4.2819 5.3361 7.0271 10.98 9.5021 16.677l5.2359-4.4602c0.40963-9.4902-2.6592-18.594-5.4298-27.731z" stroke="#000" stroke-width="1.097px"/>
    <path id="path35681" d="m511.89 1156.8c-6.4722 3.293-12.281 4.2646-18.035 5.0419-3.481 4.8389-7.4968 9.464-12.799 13.574l5.9157 3.1977c7.7775-3.5548 13.567-2.8854 25.112-14.445z" stroke="#000" stroke-width="1.097px"/>
    <path id="path35685" d="m450.8 1175.1 6.7872-1.1636c-5.1962-3.7063-7.9236-10.375-11.441-16.095-6.3487-0.5399-11.362-5.0862-16.677-8.7265l-0.19391 7.7569c5.1296 7.3779 12.374 13.41 21.525 18.229z" stroke="#000" stroke-width="1.097px"/>
    <path id="path35687" d="m420.8 1121.9 3.0419 4.8671c2.9271-4.4334 5.2126-8.6743 11.635-14.156 0.58028-6.5933 0.95427-13.187 3.2967-19.78l-7.5629 0.9696c-7.7734 9.134-9.2737 18.607-10.411 28.1z" stroke="#000" stroke-width="1.097px"/>
    <path id="path37578" d="m473.68 1108.2c1.3874-6.4971 1.8279-13.31 2.1331-20.168" fill="none" stroke="#000" stroke-width=".6841"/>
    <path id="path37580" d="m491.91 1124.5c6.8885-1.8432 13.406-3.8531 19.78-5.8176" fill="none" stroke="#000" stroke-width=".6841"/>
    <path id="path37582" d="m495.98 1084.5c6.4966 4.099 12.732 8.5024 17.065 15.126" fill="none" stroke="#000" stroke-width=".6841"/>
    <path id="path37584" d="m521.19 1135.3c-1.9163 8.0226-4.835 15.329-9.3082 21.525" fill="none" stroke="#000" stroke-width=".6841"/>
    <path id="path37586" d="m493.85 1161.9c-5.1393-5.7813-7.9078-10.554-11.054-15.514" fill="none" stroke="#000" stroke-width=".6841"/>
    <path id="path37588" d="m458.17 1143.8c-4.6157 4.5021-8.8617 9.0967-12.023 13.962" fill="none" stroke="#000" stroke-width=".6841"/>
    <path id="path37590" d="m457.59 1173.9c7.8215 2.4755 15.643 2.3386 23.464 1.5514" fill="none" stroke="#000" stroke-width=".6841"/>
    <path id="path37592" d="m429.47 1149.1c-3.7767-6.7996-5.1195-14.41-5.6237-22.301" fill="none" stroke="#000" stroke-width=".6841"/>
    <path id="path37594" d="m435.48 1112.6c4.9127 1.5514 11.313 4.5908 17.647 7.5629" fill="none" stroke="#000" stroke-width=".6841"/>
    <path id="path37596" d="m438.78 1092.8c5.3846-4.7227 11.304-9.1113 19.586-12.023" fill="none" stroke="#000" stroke-width=".6841"/>
    <path id="path15808-5" d="m527.2 1126.2c0 29.345-23.789 53.134-53.134 53.134-29.345 0-53.134-23.789-53.134-53.134 1e-5 -21.018 12.203-39.185 29.91-47.804-10.296 14.914-5.6081 28.764 1.7793 41.856 14.168 25.11 48.132 40.424 74.579 5.9474z" opacity=".095528" stroke-linecap="round" stroke-linejoin="round" stroke-width="2.3425"/>
   </g>
  </g>
 </g>
</svg>
