<?xml version="1.0" encoding="UTF-8"?>
<svg id="svg5" width="1200mm" height="1200mm" version="1.1" viewBox="0 0 1200 1200" xmlns="http://www.w3.org/2000/svg" xmlns:xlink="http://www.w3.org/1999/xlink">
 <defs id="defs77">
  <filter id="filter729281" x="-.0059103" y="-.0055617" width="1.0118" height="1.0111" color-interpolation-filters="sRGB">
   <feGaussianBlur id="feGaussianBlur729283" stdDeviation="0.1797318"/>
  </filter>
 </defs>
 <g id="layer60" transform="translate(19.4 11.241)">
  <g id="layer214">
   <g id="layer199" transform="translate(-19.4 -11.241)">
    <path id="path721890" d="m727.48 104.83c49.827-135.63 154.96-61.261 163.04-4.6917 12.009 99.101-104.81 143-166.56 204.09-60.156-63.855-168.03-114.71-167.73-194.71 4.0762-65.646 119.92-132.95 171.25-4.6917z" fill="#ff3e3e" opacity=".86585" stroke="#000" stroke-width="2.5"/>
    <path id="path723183" d="m723.96 304.23-11.786 425.32m1.0083 18.437c0.30182 4.6337 4.7571 8.5122 0.18709 14.032-3.0433 3.5707-5.5968 6.2672-7.6706 9.3544-5.6238 10.04 7.9178 14.824 12.535 22.638 5.8504 9.2174-6.5442 9.8856-11.787 13.096-15.534 10.134 0.86889 18.273 5.7998 27.128 4.47 5.605 1.3616 9.789-5.4256 13.283-7.7069 4.9539-3.4468 10.858 3.103 13.97" fill="none" stroke="#000" stroke-width="5"/>
    <path id="path724739" d="m716.89 297.26-8.4667 18.124 8.599-3.5719 0.52917 7.1438 6.4823-6.0854 5.8208 6.6146v-6.7469l8.8635 5.2917-8.2021-20.373c-3.7099 1.8236-9.2125 1.2981-13.626-0.39688z" fill="#ff3e3e" opacity=".86585" stroke="#000" stroke-width="2.5"/>
    <path id="path725424" d="m716.27 307.57c1.2854-1.323 2.4832-3.2594 3.9289-3.4611-1.1332 3.7152 0.79489 4.6914 1.2161 7.0158 1.1888-1.2784 2.9553-2.59 3.2523-3.8684 1.1513 1.3738 2.3641 2.7015 4.2095 3.5547l0.30237 6.3005-5.1458-4.2455-6.4823 6.0854-0.52919-7.1438-8.5989 3.5719 9.104-17.58c-0.90784 3.5012-1.4062 6.7976-1.257 9.7702z" opacity=".2378" stroke="#000" stroke-width=".26458px"/>
    <path id="path726332" d="m727.48 104.83c-14.711-18.117-27.524-27.833-39.491-33.798-26.985-15.42-44.863-7.8302-61.285 15.769-44.276 64.766 73.566 116.56 92.841 176.24 4.9051 19.529 38.264 1.8485 68.1-11.225-11.789 9.6359-28.221 22.63-41.59 33.042-12.853 10.01-22.76 17.732-28.527 12.94-55.301-58.342-149.05-100.6-161.87-182.93 5.7174-28.161 6.5483-59.834 71.842-81.196 74.017-7.4481 89.287 49.431 99.983 71.155z" opacity=".12805" stroke="#000" stroke-width=".26458px"/>
    <path id="path727887" d="m845.64 41.16c-62.869-12.384-96.018 33.475-118.16 63.671 13.728-20.137 13.336-47.142 57.92-73.026 21.307-3.6237 42.811-8.3363 60.243 9.3544z" opacity=".10976" stroke="#000" stroke-width=".26458px"/>
    <path id="path728496" d="m826 51.636c-22.265-8.8261-39.194 14.563-12.535 18.709 42.345 2.0243 47.917 37.298 58.372 56.875 4.8214-28.302-7.7557-61.25-45.837-75.584z" fill="#fff" filter="url(#filter729281)" opacity=".44309"/>
   </g>
  </g>
 </g>
</svg>
