<?xml version="1.0" encoding="UTF-8"?>
<svg width="1200mm" height="1200mm" version="1.1" viewBox="0 0 1200 1200" xmlns="http://www.w3.org/2000/svg" xmlns:xlink="http://www.w3.org/1999/xlink">
 <g>
  <g stroke="#000" stroke-width="2">
   <path d="m726.5 562.25 10.976 0.94774 3.7465-14.94 13.995-2.0335-13.438 48.486-12.623-1.4973 5.7833-19.165-21.174 0.11914z" fill="#a7a7a7"/>
   <path d="m726.5 562.25 10.976 0.94774 3.7465-14.94 5.0426 0.40912-13.132 31.892-3.9757 12.655 5.7833-19.165-21.174 0.11914z" opacity=".14228"/>
   <path d="m399.92 546.91-10.987-0.8098-1.3229-15.346-13.494-4.2333 5.5562 50.006 12.7 0.52916-2.6619-19.841 20.886 3.485z" fill="#a7a7a7"/>
   <path d="m399.92 546.91-10.987-0.8098-1.3229-15.346-9.752-2.3624 10.795 37.191 3.7197 11.474-2.6619-19.841 20.886 3.485z" opacity=".14228"/>
  </g>
 </g>
</svg>
