<?xml version="1.0" encoding="UTF-8"?>
<svg id="svg5" width="1200mm" height="1200mm" version="1.1" viewBox="0 0 1200 1200" xmlns="http://www.w3.org/2000/svg" xmlns:xlink="http://www.w3.org/1999/xlink">
 <defs id="defs77">
  <linearGradient id="linearGradient25594" x1="123.66" x2="114.77" y1="91.869" y2="114.29" gradientTransform="matrix(4.1461 0 0 4.1461 114.51 46.948)" gradientUnits="userSpaceOnUse">
   <stop id="stop8" offset="0"/>
   <stop id="stop10" stop-opacity="0" offset="1"/>
  </linearGradient>
 </defs>
 <g id="layer60" transform="translate(19.4 11.241)">
  <g id="layer45">
   <g id="layer116">
    <path id="path9-9" d="m649.4 535.85c-0.73374-0.13019-2.7748-0.49218-4.5358-0.80413-4.1714-0.73904-11.364-3.7855-15.789-6.6868-4.5259-2.9681-10.949-9.7018-13.733-14.397-15.623-26.349-1.7877-59.936 27.92-67.776 5.1345-1.3554 17.234-1.388 22.081-0.0597 10.443 2.8628 18.419 8.0305 24.893 16.128 11.639 14.559 12.994 34.973 3.4194 51.519-2.5395 4.389-8.1653 10.504-12.529 13.618-4.2137 3.0068-11.165 6.2494-15.877 7.4066-3.5659 0.87545-13.232 1.5172-15.85 1.0524zm-170.76-14.119c-9.7209-1.1919-17.352-3.3406-25.434-7.1615-20.589-9.7338-36.248-28.367-41.992-49.969-2.1-7.8991-2.6885-12.444-2.6885-20.76 0-4.2555 0.30474-9.5385 0.67727-11.74 4.4243-26.145 19.601-46.743 43.235-58.671 4.9546-2.501 15.021-5.7228 21.133-6.7639 7.0102-1.194 19.084-1.2039 26.007-0.0207 29.998 5.1241 54.811 27.532 62.498 56.436 2.1 7.8991 2.6885 12.444 2.6885 20.76 0 21.41-7.7001 40.011-22.878 55.263-11.767 11.826-26.124 19.242-42.406 21.906-6.0433 0.98885-15.87 1.3275-20.839 0.71823z" fill="url(#linearGradient25594)" stroke-width="4.1461"/>
    <path id="path11-2" d="m485.16 457.23c-7.0546 0.16046-10.924-7.6148-9.9058-13.798 1.6858-10.233 12.898-15.394 22.337-13.052 13.379 3.3205 19.909 18.242 16.177 30.91-4.8775 16.554-23.571 24.488-39.435 19.328-19.707-6.4104-29.043-28.946-22.448-48.022 7.9158-22.897 34.279-33.655 56.533-25.604 26.052 9.4244 38.218 39.67 28.719 65.136-10.911 29.252-44.996 42.848-73.631 31.881-32.405-12.411-47.41-50.4-34.989-82.248 13.889-35.612 55.72-52.053 90.73-38.157 38.761 15.386 56.611 61.133 41.26 99.36-16.856 41.975-66.446 61.265-107.83 44.433-45.12-18.353-65.818-71.87-47.531-116.47 1.9116-4.6628 4.2067-9.1676 6.852-13.456" fill="none" stroke="#fff" stroke-linecap="round" stroke-linejoin="round" stroke-width="13.122" style="paint-order:normal"/>
    <path id="path13-2" d="m651.41 496.35c-4.042 0.0916-6.2593-4.3517-5.6757-7.8854 0.96587-5.8479 7.3898-8.7974 12.798-7.459 7.6654 1.8976 11.407 10.425 9.2689 17.665-2.7946 9.46-13.505 13.994-22.594 11.045-11.291-3.6634-16.641-16.542-12.862-27.444 4.5354-13.085 19.64-19.233 32.391-14.632 14.927 5.3858 21.897 22.67 16.455 37.224-6.2516 16.717-25.781 24.487-42.187 18.219-18.567-7.0928-27.164-28.803-20.047-47.003 7.9577-20.352 31.926-29.747 51.985-21.806 22.208 8.7927 32.436 34.936 23.64 56.782-9.658 23.988-38.071 35.012-61.781 25.392-25.852-10.489-37.711-41.072-27.233-66.563 1.0953-2.6647 2.4102-5.2391 3.9259-7.69" fill="none" stroke="#fff" stroke-linecap="round" stroke-linejoin="round" stroke-width="7.3179" style="paint-order:normal"/>
   </g>
  </g>
 </g>
</svg>
