<?xml version="1.0" encoding="UTF-8"?>
<svg id="svg5" width="1200mm" height="1200mm" version="1.1" viewBox="0 0 1200 1200" xmlns="http://www.w3.org/2000/svg" xmlns:xlink="http://www.w3.org/1999/xlink">
 <defs id="defs77">
  <filter id="filter83355-6-4-5" x="-.010396" y="-.010504" width="1.0208" height="1.021" color-interpolation-filters="sRGB">
   <feGaussianBlur id="feGaussianBlur29-6-2" stdDeviation="0.087039062"/>
  </filter>
  <filter id="filter6257-5-45" x="-.019591" y="-.0043151" width="1.0392" height="1.0086" color-interpolation-filters="sRGB">
   <feGaussianBlur id="feGaussianBlur18-1-6" stdDeviation="0.087166883"/>
  </filter>
  <filter id="filter6257-8-1-9-5" x="-.013175" y="-.0038699" width="1.0263" height="1.0077" color-interpolation-filters="sRGB">
   <feGaussianBlur id="feGaussianBlur24-0-8" stdDeviation="0.087166883"/>
  </filter>
  <filter id="filter6257-8-6-6" x="-.022696" y="-.0042622" width="1.0454" height="1.0085" color-interpolation-filters="sRGB">
   <feGaussianBlur id="feGaussianBlur21-6-3" stdDeviation="0.087166883"/>
  </filter>
 </defs>
 <g id="layer60" transform="translate(19.4 11.241)">
  <g id="layer15">
   <g id="layer90">
    <path id="path16059" d="m568.16 843.13s-44.309 20.435-53.501 5.0562c0 0 14.012-71.993 32.109-190.95 2.9072-19.117 7.4219-47.809 7.4219-47.809l23.191-1.3316c0.19943 1.2276 5.1266 33.002 7.9999 49.285 15.549 88.102 35.118 191.05 35.118 191.05-10.044 13.131-52.336-5.2995-52.336-5.2995z" fill="#2a2a2a" stroke-width="4.1996"/>
    <g id="g16121" transform="matrix(4.1461 0 0 4.1461 115.83 48.416)" stroke="#000" stroke-width=".565">
     <path id="path16117" d="m100.85 185.37-4.0234 6.7065" fill="none"/>
     <path id="path16119" d="m110.84 202.83c3.3033 1.837 14.62 4.1561 15.709 0.93429l-2.9901-9.8558c-0.6003-1.6194-1.0985-3.7888-0.67725-7.0066l-3.0926-30.786 7.4451 47.094c5.8637 2.7043 6.812 0.80038 9.0292 0.0861-3.1008-19.946-3.8184-38.192-13.801-59.17-2.7053-2.148-8.695-6.9891-11.393-8.8408-4.2088 29.063-1.2938 38.482-0.22923 67.545zm-3.3959 0.0177c-4.8316 2.572-12.719 5.5519-16.426 0.91152l3.1182-10.792c0.66498-2.2021 1.064-4.4042 0.67679-6.6062l3.1256-30.51c-2.794 15.386-5.1288 31.23-7.4451 47.094-3.4876 4.4695-6.6974 1.5542-9.0292 0.0861 4.31-28.83 7.6477-48.886 13.572-59.353l10.614-8.2636c5.8548 29.851 2.0264 38.703 1.7941 67.433z" fill="#424242"/>
    </g>
    <path id="path16123" d="m614.02 796.55 11.305 26.771c4.7804 0.15382-7.2747-22.563-11.305-26.771z" color="#000000" stroke-width="4.1461" style="-inkscape-stroke:none"/>
    <path id="path16125" d="m621.39 648.16-7.0313 40.086c3.0976-11.642 8.4062-30.972 7.0313-40.086z" color="#000000" stroke-width="4.1461" style="-inkscape-stroke:none"/>
    <path id="path16127" d="m644.99 750.03-9.1828 32.699c2.1993-3.1793 9.8913-28.543 9.1828-32.699z" color="#000000" stroke-width="4.1461" style="-inkscape-stroke:none"/>
    <path id="path16129" d="m639.27 789.37s-3.3229 0.50931-5.8464 2.0892c2.3824-0.0912 3.9526-0.82337 5.8464-2.0892z" color="#000000" stroke-width="4.1461" style="-inkscape-stroke:none"/>
    <path id="path16131" d="m542.38 615.35-0.77569 50.226" fill="none" stroke-width="4.1461"/>
    <path id="path16133" d="m592.51 615.68 0.19404 47.9" fill="none" stroke-width="4.1461"/>
    <path id="path16135" d="m454.03 875.88c9.9898 4.3126 26.559 6.5189 40.336 1.3575l-1.2865 12.406c-14.116 19.234-32.995 6.017-41.309 1.2238z" fill="#565656" stroke="#000" stroke-width="1.097px"/>
    <path id="path16137" transform="matrix(-4.1461 0 0 4.1461 884.85 54.419)" d="m87.536 154.4s3.3796 9.5251 4.0224 14.499c1.8323 14.18 5.1953 34.583 5.1953 34.583-0.79674-0.53572-1.6422-0.90901-2.2623-2.0336-0.14769-0.73104-0.16658-2.1706-0.28356-2.9352-0.02313-0.15123 0.396 0.23796 0.36769 0.0931-2.8818-14.748-5.1305-29.492-7.0395-44.207z" filter="url(#filter6257-8-6-6)" opacity=".16"/>
    <path id="path16139" transform="matrix(-4.1461 0 0 4.7896 859.93 -76.63)" d="m82.578 149.62c0.2543-0.11853 1.3677 0.13195 2.0775 1.0672 1.9836 2.6137 4.5513 8.6888 5.1895 12.468 3.4143 10.933 6.4313 28.482 7.6908 35.771 0.02833 0.16394 0.38537-0.1247 0.41593 0.025 0.37305 1.8273 0.5559 3.0493 0.49301 3.0493-1.3479 0.64122-2.6738 1.3205-4.2019 1.6497 0.77903-13.566-4.6844-36.01-11.665-54.03z" filter="url(#filter6257-8-1-9-5)" opacity=".16" stroke-linejoin="round" stroke-width=".26423"/>
    <path id="path16141" d="m554.19 609.43c0.5824 3.3892 6.1802 39.881 6.3707 41.072 6.5719 41.076 6.8121 153.64 7.2933 186.24l-6.2255 52.267c-44.88 22.724-60.519 11.498-68.105 3.7792l3.4641-10.534c6.8623 4.3436 17.444 15.756 54.37-3.8401l5.2862-40.577c-0.88988-38.146-6.246-145.29-9.9946-186.04-0.27654-1.6481-0.57166-2.6096-1.642-3.2728-7.9616-4.8199-15.923-6.839-23.885-15.529 6.057-15.501 22.102-22.889 33.068-23.57z" fill="#565656" stroke="#000" stroke-width="1.0987"/>
    <path id="path16143" d="m512.69 650.1 7.0313 40.086c-3.0976-11.642-8.4061-30.972-7.0313-40.086z" color="#000000" stroke-width="4.1461" style="-inkscape-stroke:none"/>
    <path id="path16145" d="m493.48 738.96 9.1827 32.699c-2.1993-3.1793-9.8913-28.543-9.1827-32.699z" color="#000000" stroke-width="4.1461" style="-inkscape-stroke:none"/>
    <path id="path16149" d="m492.63 769.53s3.3229 0.50931 5.8464 2.0892c-2.3824-0.0912-3.9526-0.82337-5.8464-2.0892z" color="#000000" stroke-width="4.1461" style="-inkscape-stroke:none"/>
    <path id="path16151" d="m572.4 648.81c-7.0212 37.895-4.0856 154.73-4.5808 188.28l7.5829 52.267c39.644 14.386 59.871 11.205 65.13 3.8736l-3.2043-10.434c-7.0642 1.3326-17.147 7.8247-50.979-4.3083l-6.6901-36.14c-5.3724-29.022 1.5594-135.9 5.2909-183.83-0.18907-4.117 1.376-5.8793 4.1874-7.7596 7.7864-5.1805 24.76-14.143 24.933-15.794 0 0-7.9428-22.726-36.682-26.874-3.281 8.2385-0.63634 18.382-4.9882 40.719z" fill="#565656" stroke="#000" stroke-width="1.0987"/>
    <path id="path16153" d="m639.59 875.57 1.9392 16.23c10.86 4.5409 25.181 9.8213 41.314-0.029l-3.0971-21.377c-13.233 9.1166-27.671 6.2843-40.156 5.1774z" fill="#565656" stroke="#000" stroke-width="1.097px"/>
    <path id="path16155" transform="matrix(4.1461 0 0 4.1461 114.51 46.946)" d="m120.62 156.85s3.3796 9.5251 4.0224 14.499c1.8323 14.18 6.1492 33.595 6.1492 33.595-1.2259-0.0611-2.4518-0.63103-3.6777-1.1766-0.23214-1.149-0.33833-2.6503-0.5561-3.7986-0.0351-0.18495 0.37442-0.0191 0.3398-0.20398-2.6667-14.244-4.9349-29.045-6.7845-43.302z" filter="url(#filter6257-5-45)" opacity=".16"/>
    <path id="path16169" transform="matrix(4.1461 0 0 4.1461 114.51 46.946)" d="m117.3 137.55-5.0356 2.1227c-0.60166 3.306-1.1643 5.7076-1.5564 8.1558-0.48721 3.0416-0.78735 5.851-1.4649 6.986-1.15 1.9266-1.2902-1.835-3.1562-14.088l-8.8806 2.3079c0.33716-0.65773 1.2381-0.83696 0.85379-1.674 1.7148-3.5354 6.3395-6.4361 7.7333-5.4092l5.7719-0.50833c3.2301-0.36602 4.9156 2.0424 5.7347 2.1074z" fill-opacity=".99763" filter="url(#filter83355-6-4-5)" opacity=".21474"/>
    <path id="path16171" d="m521.91 694.58c1.1648 34.167-2.2676 78.283-5.3356 121.61-0.0601 3.007 0.33169 3.7127 1.4852 5.3538 5.4172 7.6657 14.663 11.194 15.504 16.834 0.72581 4.866-13.49 6.1879-18.34 12.846-1.1159 1.3367-1.1411 2.8109-1.2291 4.3481-5.4268 38.039 6.816 29.258 22.984 43.937-18.398 2.851-33.424 7.1307-43.762-6.2995l13.879-46.607 1.8553-25.527z" opacity=".22756"/>
    <path id="path16173" d="m613.82 691.79c-0.98511 28.896 1.318 64.909 3.9081 101.54 0.22928 3.2446-0.22264 6.494-2.3837 4.6845 4.259 10.227 3.5678 11.945 3.8113 15.383 0.0601 3.007-0.33169 3.7127-1.4852 5.3538-5.4172 7.6657-17.042 11.343-15.504 16.834 1.2935-1.0652 19.661 18.702 38.51 57.024 2.6164 5.3195-9.9294-25.35-13.926-48.263-5.8661-33.63-7.403-83.035-12.93-152.56z" opacity=".22756"/>
   </g>
  </g>
 </g>
</svg>
