<?xml version="1.0" encoding="UTF-8"?>
<svg id="svg5" width="1200mm" height="1200mm" version="1.1" viewBox="0 0 1200 1200" xmlns="http://www.w3.org/2000/svg" xmlns:xlink="http://www.w3.org/1999/xlink">
 <defs id="defs77">
  <filter id="filter48371-3-3" x="-.3762" y="-.11261" width="1.7524" height="1.2252" color-interpolation-filters="sRGB">
   <feGaussianBlur id="feGaussianBlur12-6" stdDeviation="1.2069309"/>
  </filter>
  <filter id="filter25136" x="-.041762" y="-.0068998" width="1.0872" height="1.0155" color-interpolation-filters="sRGB">
   <feGaussianBlur id="feGaussianBlur25138" stdDeviation="0.1605801"/>
  </filter>
  <filter id="filter25140" x="-.022331" y="-.024991" width="1.0447" height="1.05" color-interpolation-filters="sRGB">
   <feGaussianBlur id="feGaussianBlur25142" stdDeviation="0.047869003"/>
  </filter>
  <filter id="filter25144" x="-.022267" y="-.029619" width="1.0445" height="1.0592" color-interpolation-filters="sRGB">
   <feGaussianBlur id="feGaussianBlur25146" stdDeviation="0.047869003"/>
  </filter>
  <filter id="filter25148" x="-.041852" y="-.028948" width="1.0837" height="1.0579" color-interpolation-filters="sRGB">
   <feGaussianBlur id="feGaussianBlur25150" stdDeviation="0.047869003"/>
  </filter>
  <filter id="filter25152" x="-.017224" y="-.056427" width="1.0374" height="1.1187" color-interpolation-filters="sRGB">
   <feGaussianBlur id="feGaussianBlur25154" stdDeviation="0.047869003"/>
  </filter>
  <filter id="filter25156" x="-.023558" y="-.0031682" width="1.0379" height="1.0063" color-interpolation-filters="sRGB">
   <feGaussianBlur id="feGaussianBlur25158" stdDeviation="0.047869003"/>
  </filter>
  <filter id="filter25160" x="-.029955" y="-.031092" width="1.0599" height="1.0622" color-interpolation-filters="sRGB">
   <feGaussianBlur id="feGaussianBlur25162" stdDeviation="0.047869003"/>
  </filter>
  <filter id="filter25164" x="-.023847" y="-.072244" width="1.0477" height="1.1445" color-interpolation-filters="sRGB">
   <feGaussianBlur id="feGaussianBlur25166" stdDeviation="0.047869003"/>
  </filter>
  <filter id="filter25168" x="-.029594" y="-.046345" width="1.0592" height="1.0927" color-interpolation-filters="sRGB">
   <feGaussianBlur id="feGaussianBlur25170" stdDeviation="0.047869003"/>
  </filter>
  <filter id="filter25176" x="-.043135" y="-.018346" width="1.0837" height="1.0383" color-interpolation-filters="sRGB">
   <feGaussianBlur id="feGaussianBlur25178" stdDeviation="0.047869003"/>
  </filter>
 </defs>
 <g id="layer60" transform="translate(19.4 11.241)">
  <g id="layer17">
   <g id="g6826">
    <path id="path6770" d="m615.54 838.55s-11.333 0.683-48.824 0.92139c-44.492 0.28276-48.218-0.0718-48.218-0.0718l-4.2483-0.13694 1.9022 263.47s0.0988 1.7178 0.3638 3.3594c0.26503 1.6418 1.8206 6.2767 1.8206 6.2767l-1.7606 49.054c8.441 3.7936 15.156 4.8527 24.161 4.4323l17.181-2.6458 2.5854-135.7 6.395-133.63 12.095 130.06 0.0169 139.82c20.611 6.2883 29.908 2.1949 46.759-0.7994z" fill="#126dc1" stroke="#000" stroke-width="2"/>
    <g id="g6786" transform="matrix(4.1461 0 0 4.1461 114.03 44.895)" fill="none" stroke="#000">
     <g id="g6778" stroke-width=".26458px">
      <path id="path6772" d="m101.34 192.61s-1.5751 3.9808-4.8013 3.3323"/>
      <path id="path6774" d="m116.69 192.51s0.89821 3.6198 4.305 3.242"/>
      <path id="path6776" d="m108.15 191.64c0.01 9.218-0.0101 9.1013 1.0847 9.5084l-0.20324-9.6037"/>
     </g>
     <path id="path6780" d="m109.31 200.51-0.16955 0.14616-0.0822 4.3513 0.42738-0.0197z" color="#000000" fill="#000" stroke="none" style="-inkscape-stroke:none"/>
     <path id="path6782" d="m96.609 192.57 11.343 0.10336h0.12919" stroke-width=".26458px"/>
     <path id="path6784" d="m109.11 192.6 11.834-0.41341" stroke-width=".26458px"/>
    </g>
    <g id="g6798" transform="matrix(4.1461 0 0 4.1461 113.14 46.948)" stroke="#000">
     <g id="g6796" stroke-width=".26458px"></g>
    </g>
    <path id="path6800" transform="matrix(4.1461 0 0 4.1461 114.51 46.946)" d="m108.61 203.54-3.4705 0.0248 2.8345 1.316 0.14839 22.18 1.0167-22.992 2.6308 25.194-2.0001-24.667 3.1971-1.2812z" fill-opacity=".99763" filter="url(#filter48371-3-3)" opacity=".18567" stroke-width=".26458px" style="mix-blend-mode:normal"/>
    <path id="path6802" transform="matrix(4.1461 0 0 4.1461 114.51 46.946)" d="m99.592 203.77c0.98966 3.5696 6.259 7.4359 6.259 7.4359s-4.2146-3.4446-6.3993-2.4313c-2.4404 1.1319 0.15365 8.0689 0.15365 8.0689-3.9976 2.6263-1.664 8.0705-0.33349 9.5994-0.22468 1.173-0.65868 4.069 0.33351 4.4941 3.5449 1.4365 0.41666 3.602 0.45964 3.6204 0 0-0.93322 0.45981-1.1693 0.88868-0.26411 0.47978-0.14032 1.637-0.14032 1.637s0.19298 0.77268 0.5145 0.8419c0.39964 0.086 2.9048 0.35399 2.9048 0.35399s-1.8025 0.38307-2.4564 0.82023c-0.57558 0.38478-0.69709 0.0846-1.165 0.59483-0.48466 0.52851-0.28613 1.3664-0.0227 1.9668 0.22838 0.52049 1.268 1.14 1.268 1.14s-1.2644 0.0224-1.6838 0.42095c-0.69719 0.66242-1.0649 1.8241-0.8419 2.7596 0.23239 0.97478 0.37694 1.4924 0.37694 1.4924 1.3722 0.79004 3.3799 2.9007 3.235 3.6948-0.0848 0.46461-1.9482-0.59634-3.0234-0.48642-0.79028 0.0808 0.90913 1.5559 1.5848 2.363 1.6271 1.9434 3.7472 3.7642 3.7472 3.7642-0.0666 0.33316-4.4268-4.2291-5.0046-3.6482-0.92151 0.92644-0.21028 3.962-0.21164 3.9601-0.71626 0.6418-0.87184-1.4781 0.87878 1.2883 1.2258 1.2966 2.5309 3.9924 5.4094 4.1146-3.5001 0.0743-4.1481-0.11197-5.8267 0.76198-0.82946 1.2442-0.52513 3.2125 0.45167 4.3276 1.8036 2.059 8.0876 1.4226 8.0876 1.4226-3.3013 0.93328-6.6259 0.75235-9.9713-0.4309-0.16052-3.095 0.3794-7.3013 0.41265-11.791 0.0045-0.60491-0.43644-1.3302-0.45843-1.9409-0.09113-2.5303 0.0088-5.0482-0.14679-7.3781-0.08236-1.2335 0.06086-0.38863 0.05345-1.5713l-0.04534-7.2357s0.0478-2.7909-0.08904-7.2044c0 0-0.05755-13.4-0.1091-15.88l-0.17834-24.701 2.5617-0.0429s-0.56618 8.7583 0.58465 12.909z" filter="url(#filter25156)" opacity=".18567" stroke="#000" stroke-width=".26458px" style="mix-blend-mode:normal"/>
    <path id="path6806" transform="matrix(4.1461 0 0 4.1461 114.51 46.946)" d="m104.97 219.94-2.4143-4.2003c0.27552 1.2246 2.0994 3.4359 1.911 4.619-0.15887 0.99741-2.3876 0.97681-1.7478 1.906 0.80791 1.1733 4.5885 2.1878 5.4922 3.3308z" filter="url(#filter25176)" opacity=".18567" stroke="#000" stroke-width=".26458px" style="mix-blend-mode:normal"/>
    <path id="path6808" transform="matrix(4.1461 0 0 4.1461 114.51 46.946)" d="m112.06 235.44c-0.73341 5.9492 0.59809 22.731 0.0799 27.48-0.0257 0.23592 4.5002-0.77898 3.3987-1.5586-0.60055-0.42506-3.0828 0.24588-2.6735-2.6007 0 0-0.16027-1.5559 3.0888 0.49654 0.36161 0.22843-1.1866-1.18-0.9727-1.7554 0.29619-0.79663 1.2627-1.4615 1.5899-2.6704 0.2072-0.76559-1.6989-2.0904-1.5095-5.2658 0.18604-3.1197 0.69051-7.5531 1.5377-9.3685 0.29873-0.64009 1.1992-2.1662 1.1992-2.1662 0.30444 0.73722-1.3129 0.57985-2.5916-2.7124-0.34787-0.89565 1.4371-3.9426 1.2774-4.9187-0.12723-0.77787-2.6881 0.0876-3.0602-0.61555-0.99858-1.8868-0.2269-4.996-0.0733-5.3638 1.0446-2.5027 1.2898-5.2917 1.2898-5.2917-0.2463 1.1166-1.4781 2.0018-2.1412 2.2916 0.20322-1.3458 2.1079-4.5877 1.7112-6.2934 0.1077-1.3177-0.15315-5.4431 0.8599-6.6476-1.4111 1.3578-3.6412 3.3989-4.0018 1.9183l-1.9081-7.8352c-0.6748 2.8702-0.78323 5.7679-0.93614 8.6951l-1.7859-1.1245c1.9791 1.8591 1.5906 3.8498 2.1497 5.7878-0.39026-9.5182 0.70976-9.3298 0.70976-9.3298s1.8015 18.53 2.3224 23.59" filter="url(#filter25136)" opacity=".18567" stroke="#000" stroke-width=".26458px" style="mix-blend-mode:normal"/>
    <path id="path6810" transform="matrix(4.1461 0 0 -4.1461 114.51 2252)" d="m122.78 264.78c-3.9361 2.9688-7.1734 2.3595-9.7896 1.9844 1.9252 0.85563 2.9141 2.6724 5.2586 1.5875 0.22371-0.10352 4.531-3.5719 4.531-3.5719z" filter="url(#filter25152)" opacity=".18567" stroke="#000" stroke-width=".26458px" style="mix-blend-mode:normal"/>
    <path id="path6812" transform="matrix(4.1461 0 0 4.1461 114.51 46.946)" d="m117.05 259.32 2.745-3.9688s-0.53703 1.425-0.95911 2.0505c-0.48867 0.72418-1.7859 1.9182-1.7859 1.9182z" filter="url(#filter25148)" opacity=".18567" style="mix-blend-mode:normal"/>
    <path id="path6814" transform="matrix(4.1461 0 0 4.1461 114.51 46.946)" d="m116.35 256.35s2.4009-3.415 4.2664-3.8364c0.30281-0.0684 0.89296 0.26458 0.89296 0.26458l-5.0602 3.605" filter="url(#filter25144)" opacity=".18567" style="mix-blend-mode:normal"/>
    <path id="path6816" transform="matrix(4.1461 0 0 4.1461 114.51 46.946)" d="m118.29 236.67c-0.45454 1e-3 -1.3744 0.16966-1.3744 0.16966 2.4351 1.4758 3.4836 2.9516 5.1447 4.4275 0 0-1.7885-4.6017-3.7703-4.5971z" filter="url(#filter25140)" opacity=".18567" style="mix-blend-mode:normal"/>
    <path id="path6818" d="m518.61 1109.2-0.56793 2.6928c2.7186 2.8564 12.987 17.957 15.177 16.124-4.8698-5.5964-9.7397-11.76-14.61-18.817z" color="#000000" stroke-width="4.1461" style="-inkscape-stroke:none"/>
    <path id="path6820" transform="matrix(4.1461 0 0 4.1461 120.12 24.309)" d="m106.27 234.94s-2.0789 0.48974-2.8999 1.1225c-0.44212 0.3408-0.98222 1.3564-0.98222 1.3564z" filter="url(#filter25168)" opacity=".18567" style="mix-blend-mode:normal"/>
    <path id="path6822" transform="matrix(4.1461 0 0 4.1461 118.06 56.862)" d="m104.49 238.44s-1.4902 0.10949-2.1983 0.3274c-0.92638 0.2851-2.6192 1.2628-2.6192 1.2628z" filter="url(#filter25164)" opacity=".18567" style="mix-blend-mode:normal"/>
    <path id="path6824" transform="matrix(4.1461 0 0 4.1461 114.51 46.946)" d="m107.06 255.66-3.695 3.695 3.8353-3.0402z" filter="url(#filter25160)" opacity=".18567" style="mix-blend-mode:normal"/>
    <path id="path9186" d="m539.97 928.2c5.2385-0.32741 18.918-5.0224 18.918-5.0224s-15.181-1.5736-21.141-1.4967c-3.5139 0.0453-7.9247 0.52501-10.953 0.91108-2.108 0.26873-3.5462 0.4921-3.5462 0.4921 4.1032 2.5866 11.878 4.896 16.722 5.116z" fill="#70b4f3"/>
    <path id="path8767" d="m525.11 923.33c11.662-1.2563 21.843-0.63195 31.948 0.19844 0 0-12.436 3.9546-18.686 3.4396-5.4941-0.45271-11.546-2.5894-12.963-3.4522-0.0895-0.0545-0.15995-0.0981-0.21-0.12937-0.059-0.0368-0.0896-0.0565-0.0896-0.0565z" fill="#bbb"/>
    <path id="path10778" d="m525.91 922.44 0.47956 1.1245" fill="#70b4f3" stroke="#126dc1" stroke-width=".26458px"/>
    <path id="path12323" d="m527.46 922.03 0.34727 1.0583 0.34726-0.54571 0.87644 0.33073 0.0827-1.1741 2.1663 1.0418" fill="#126dc1" stroke="#126dc1" stroke-width=".26458px"/>
    <path id="path12325" d="m533 921.71 0.13229 1.4221 0.57878-1.0253 1.1906 0.54571-0.0164-1.1906" fill="#126dc1" stroke="#126dc1" stroke-width=".26458px"/>
    <path id="path12327" d="m536.19 921.6 0.0164 1.3229" fill="none" stroke="#126dc1" stroke-width=".26458px"/>
    <path id="path12329" d="m536.67 921.51-0.0496 1.1245" fill="none" stroke="#126dc1" stroke-width=".26458px"/>
    <path id="path12331" d="m537.48 921.37-0.0661 0.89297" fill="none" stroke="#126dc1" stroke-width=".26458px"/>
    <path id="path12333" d="m541.04 921.2-0.11575 1.3229 0.38034-0.28111 0.76067 0.1819 0.87644-1.0583" fill="#126dc1" stroke="#126dc1" stroke-width=".26458px"/>
    <path id="path12335" d="m545.2 921.73 0.0661 0.95912" fill="none" stroke="#126dc1" stroke-width=".26458px"/>
    <path id="path12337" d="m544.43 921.65-0.0827 0.678" fill="none" stroke="#126dc1" stroke-width=".26458px"/>
    <path id="path12339" d="m538.9 921.48-0.0496 0.67799" fill="none" stroke="#126dc1" stroke-width=".26458px"/>
    <path id="path12341" d="m531.86 921.81 0.16536 0.49609" fill="none" stroke="#126dc1" stroke-width=".26458px"/>
    <path id="path12343" d="m548.13 921.91-0.3638 1.5214" fill="none" stroke="#126dc1" stroke-width=".26458px"/>
    <path id="path12345" d="m550.41 922.01 0.39687 1.3229 0.49609-0.49609 0.62839 0.42995 0.92604-0.26459 0.42995 0.39688 0.92604-0.99219" fill="#126dc1" stroke="#126dc1" stroke-width=".26458px"/>
    <path id="path12347" d="m555.08 922.51 0.29765 0.95911 0.42995-0.52916 0.46302 0.39687 0.8599-0.92604" fill="#126dc1" stroke="#126dc1" stroke-width=".26458px"/>
    <path id="path10778-9" d="m525.74 921.94 0.47956 1.1245" fill="none" stroke="#000" stroke-width=".26458px"/>
    <path id="path12323-3" d="m527.3 921.53 0.34727 1.0583 0.34726-0.54571 0.87644 0.33073 0.0827-1.1741 2.1663 1.0418" fill="none" stroke="#000" stroke-width=".26458px"/>
    <path id="path12325-3" d="m532.84 921.22 0.13229 1.4221 0.57878-1.0253 1.1906 0.54571-0.0164-1.1906" fill="none" stroke="#000" stroke-width=".26458px"/>
    <path id="path12327-7" d="m536.03 921.1 0.0164 1.3229" fill="none" stroke="#000" stroke-width=".26458px"/>
    <path id="path12329-7" d="m536.51 921.02-0.0496 1.1245" fill="none" stroke="#000" stroke-width=".26458px"/>
    <path id="path12331-9" d="m537.32 920.87-0.0661 0.89297" fill="none" stroke="#000" stroke-width=".26458px"/>
    <path id="path12333-2" d="m540.87 920.7-0.11575 1.3229 0.38034-0.28111 0.76067 0.1819 0.87644-1.0583" fill="none" stroke="#000" stroke-width=".26458px"/>
    <path id="path12335-3" d="m545.04 921.23 0.0661 0.95912" fill="none" stroke="#000" stroke-width=".26458px"/>
    <path id="path12337-8" d="m544.26 921.15-0.0827 0.678" fill="none" stroke="#000" stroke-width=".26458px"/>
    <path id="path12339-3" d="m538.74 920.99-0.0496 0.67799" fill="none" stroke="#000" stroke-width=".26458px"/>
    <path id="path12341-4" d="m531.69 921.32 0.16536 0.49609" fill="none" stroke="#000" stroke-width=".26458px"/>
    <path id="path12343-9" d="m547.97 921.42-0.3638 1.5214" fill="none" stroke="#000" stroke-width=".26458px"/>
    <path id="path12345-3" d="m550.25 921.51 0.39687 1.3229 0.49609-0.49609 0.62839 0.42995 0.92604-0.26459 0.42995 0.39688 0.92604-0.99219" fill="none" stroke="#000" stroke-width=".26458px"/>
    <path id="path12347-1" d="m554.91 922.01 0.29765 0.95911 0.42995-0.52916 0.46302 0.39687 0.8599-0.92604" fill="none" stroke="#000" stroke-width=".26458px"/>
    <path id="path10778-2" d="m526.71 925.41 0.3883-0.85423" fill="#70b4f3" stroke="#126dc1" stroke-width=".20751px"/>
    <path id="path12323-2" d="m527.96 925.73 0.28119-0.80399 0.28118 0.41456 0.70966-0.25125 0.067 0.89193 1.754-0.79143" fill="#126dc1" stroke="#126dc1" stroke-width=".20751px"/>
    <path id="path12325-8" d="m532.18 926.94 0.27834-1.0494 0.33818 0.84373 1.0179-0.2552-0.15764 0.89074" fill="#126dc1" stroke="#126dc1" stroke-width=".20751px"/>
    <path id="path12327-9" d="m534.54 927.56 0.0133-1.005" fill="none" stroke="#126dc1" stroke-width=".20751px"/>
    <path id="path12329-4" d="m534.93 927.62-0.0402-0.85423" fill="none" stroke="#126dc1" stroke-width=".20751px"/>
    <path id="path12331-5" d="m535.59 927.74-0.0535-0.67836" fill="none" stroke="#126dc1" stroke-width=".20751px"/>
    <path id="path12333-29" d="m536.66 927.81 0.25222-0.97731 0.21743 0.30524 0.62632 0.0786 0.3954 0.99684" fill="#126dc1" stroke="#126dc1" stroke-width=".20751px"/>
    <path id="path12335-6" d="m543.82 927.62 0.0535-0.72861" fill="none" stroke="#126dc1" stroke-width=".20751px"/>
    <path id="path12337-3" d="m543.34 927.88-0.067-0.51505" fill="none" stroke="#126dc1" stroke-width=".20751px"/>
    <path id="path12339-31" d="m542.17 927.93-0.0402-0.51505" fill="none" stroke="#126dc1" stroke-width=".20751px"/>
    <path id="path12341-9" d="m531.39 926.72 0.13389-0.37687" fill="none" stroke="#126dc1" stroke-width=".20751px"/>
    <path id="path12343-0" d="m549.07 926.38-0.29458-1.1557" fill="none" stroke="#126dc1" stroke-width=".20751px"/>
    <path id="path12345-2" d="m545.02 927.62 0.0677-1.0529 0.48119 0.26804 0.41426-0.44041 0.77619 0.0129 0.26449-0.37702 0.91042 0.54909" fill="#126dc1" stroke="#126dc1" stroke-width=".20751px"/>
    <path id="path12347-9" d="m550.32 925.36 0.24101-0.72861 0.34814 0.40199 0.37491-0.30149 0.69626 0.70349" fill="#126dc1" stroke="#126dc1" stroke-width=".20751px"/>
    <path id="path10778-9-0" d="m526.57 925.79 0.3883-0.85423" fill="none" stroke="#000" stroke-width=".20751px"/>
    <path id="path12323-3-3" d="m527.83 926.1 0.28119-0.80399 0.28118 0.41456 0.70966-0.25125 0.067 0.89192 1.754-0.79142" fill="none" stroke="#000" stroke-width=".20751px"/>
    <path id="path12325-3-5" d="m531.99 927.29 0.27836-1.0494 0.33818 0.84373 1.0179-0.2552-0.15764 0.89074" fill="none" stroke="#000" stroke-width=".20751px"/>
    <path id="path12327-7-1" d="m534.41 927.94 0.0133-1.005" fill="none" stroke="#000" stroke-width=".20751px"/>
    <path id="path12329-7-0" d="m534.8 928-0.0402-0.85424" fill="none" stroke="#000" stroke-width=".20751px"/>
    <path id="path12331-9-4" d="m535.45 928.11-0.0535-0.67837" fill="none" stroke="#000" stroke-width=".20751px"/>
    <path id="path12333-2-5" d="m536.4 928.12 0.25222-0.97732 0.21744 0.30523 0.62631 0.0786 0.39539 0.99683" fill="none" stroke="#000" stroke-width=".20751px"/>
    <path id="path12335-3-2" d="m543.69 928 0.0535-0.72862" fill="none" stroke="#000" stroke-width=".20751px"/>
    <path id="path12337-8-4" d="m543.06 928.06-0.067-0.51506" fill="none" stroke="#000" stroke-width=".20751px"/>
    <path id="path12339-3-5" d="m542.04 928.3-0.0402-0.51505" fill="none" stroke="#000" stroke-width=".20751px"/>
    <path id="path12341-4-7" d="m531.26 927.09 0.13389-0.37686" fill="none" stroke="#000" stroke-width=".20751px"/>
    <path id="path12343-9-3" d="m548.93 926.75-0.29457-1.1557" fill="none" stroke="#000" stroke-width=".20751px"/>
    <path id="path12345-3-4" d="m544.98 928.02 0.0677-1.0529 0.48118 0.26803 0.41426-0.44041 0.77619 0.0129 0.2645-0.37701 0.91042 0.54908" fill="none" stroke="#000" stroke-width=".20751px"/>
    <path id="path12347-1-3" d="m550.19 925.74 0.24101-0.72861 0.34813 0.40199 0.37491-0.30149 0.69627 0.70348" fill="none" stroke="#000" stroke-width=".20751px"/>
    <path id="path9186-3" d="m539.74 967.2c5.2385-0.32741 18.918-5.0224 18.918-5.0224s-15.181-1.5736-21.141-1.4967c-3.5139 0.0453-7.9247 0.52501-10.953 0.91108-2.108 0.26873-3.5462 0.4921-3.5462 0.4921 4.1032 2.5866 11.878 4.896 16.722 5.116z" fill="#70b4f3"/>
    <path id="path8767-4" d="m524.88 962.33c11.662-1.2563 21.843-0.63195 31.948 0.19844 0 0-12.436 3.9546-18.686 3.4396-5.4941-0.45271-11.546-2.5894-12.963-3.4522-0.0895-0.0545-0.15995-0.0981-0.21-0.12937-0.059-0.0368-0.0896-0.0565-0.0896-0.0565z" fill="#bbb"/>
    <path id="path10778-1" d="m525.67 961.44 0.47956 1.1245" fill="#70b4f3" stroke="#126dc1" stroke-width=".26458px"/>
    <path id="path12323-9" d="m527.23 961.03 0.34727 1.0583 0.34726-0.54571 0.87644 0.33073 0.0827-1.1741 2.1663 1.0418" fill="#126dc1" stroke="#126dc1" stroke-width=".26458px"/>
    <path id="path12325-0" d="m532.77 960.71 0.13229 1.4221 0.57878-1.0253 1.1906 0.54571-0.0164-1.1906" fill="#126dc1" stroke="#126dc1" stroke-width=".26458px"/>
    <path id="path12327-8" d="m535.96 960.6 0.0164 1.3229" fill="none" stroke="#126dc1" stroke-width=".26458px"/>
    <path id="path12329-0" d="m536.44 960.52-0.0496 1.1245" fill="none" stroke="#126dc1" stroke-width=".26458px"/>
    <path id="path12331-92" d="m537.25 960.37-0.0661 0.89297" fill="none" stroke="#126dc1" stroke-width=".26458px"/>
    <path id="path12333-0" d="m540.81 960.2-0.11575 1.3229 0.38034-0.28111 0.76067 0.1819 0.87644-1.0583" fill="#126dc1" stroke="#126dc1" stroke-width=".26458px"/>
    <path id="path12335-1" d="m544.97 960.73 0.0661 0.95912" fill="none" stroke="#126dc1" stroke-width=".26458px"/>
    <path id="path12337-2" d="m544.2 960.65-0.0827 0.678" fill="none" stroke="#126dc1" stroke-width=".26458px"/>
    <path id="path12339-37" d="m538.67 960.48-0.0496 0.67799" fill="none" stroke="#126dc1" stroke-width=".26458px"/>
    <path id="path12341-1" d="m531.63 960.81 0.16536 0.49609" fill="none" stroke="#126dc1" stroke-width=".26458px"/>
    <path id="path12343-5" d="m547.9 960.91-0.3638 1.5214" fill="none" stroke="#126dc1" stroke-width=".26458px"/>
    <path id="path12345-39" d="m550.18 961.01 0.39687 1.3229 0.49609-0.49609 0.62839 0.42995 0.92604-0.26459 0.42995 0.39688 0.92604-0.99219" fill="#126dc1" stroke="#126dc1" stroke-width=".26458px"/>
    <path id="path12347-94" d="m554.84 961.51 0.29765 0.95911 0.42995-0.52916 0.46302 0.39687 0.8599-0.92604" fill="#126dc1" stroke="#126dc1" stroke-width=".26458px"/>
    <path id="path10778-9-09" d="m525.51 960.95 0.47956 1.1245" fill="none" stroke="#000" stroke-width=".26458px"/>
    <path id="path12323-3-8" d="m527.06 960.53 0.34727 1.0583 0.34726-0.54571 0.87644 0.33073 0.0827-1.1741 2.1663 1.0418" fill="none" stroke="#000" stroke-width=".26458px"/>
    <path id="path12325-3-7" d="m532.6 960.22 0.13229 1.4221 0.57878-1.0253 1.1906 0.54571-0.0164-1.1906" fill="none" stroke="#000" stroke-width=".26458px"/>
    <path id="path12327-7-5" d="m535.79 960.1 0.0164 1.3229" fill="none" stroke="#000" stroke-width=".26458px"/>
    <path id="path12329-7-2" d="m536.27 960.02-0.0496 1.1245" fill="none" stroke="#000" stroke-width=".26458px"/>
    <path id="path12331-9-6" d="m537.08 959.87-0.0661 0.89297" fill="none" stroke="#000" stroke-width=".26458px"/>
    <path id="path12333-2-59" d="m540.64 959.7-0.11575 1.3229 0.38034-0.28111 0.76067 0.1819 0.87644-1.0583" fill="none" stroke="#000" stroke-width=".26458px"/>
    <path id="path12335-3-6" d="m544.81 960.23 0.0661 0.95912" fill="none" stroke="#000" stroke-width=".26458px"/>
    <path id="path12337-8-2" d="m544.03 960.15-0.0827 0.678" fill="none" stroke="#000" stroke-width=".26458px"/>
    <path id="path12339-3-6" d="m538.51 959.99-0.0496 0.67799" fill="none" stroke="#000" stroke-width=".26458px"/>
    <path id="path12341-4-77" d="m531.46 960.32 0.16536 0.49609" fill="none" stroke="#000" stroke-width=".26458px"/>
    <path id="path12343-9-5" d="m547.73 960.42-0.3638 1.5214" fill="none" stroke="#000" stroke-width=".26458px"/>
    <path id="path12345-3-3" d="m550.02 960.52 0.39687 1.3229 0.49609-0.49609 0.62839 0.42995 0.92604-0.26459 0.42995 0.39688 0.92604-0.99219" fill="none" stroke="#000" stroke-width=".26458px"/>
    <path id="path12347-1-5" d="m554.68 961.01 0.29765 0.95911 0.42995-0.52916 0.46302 0.39687 0.8599-0.92604" fill="none" stroke="#000" stroke-width=".26458px"/>
    <path id="path10778-2-4" d="m526.47 964.41 0.3883-0.85423" fill="#70b4f3" stroke="#126dc1" stroke-width=".20751px"/>
    <path id="path12323-2-8" d="m527.73 964.73 0.28119-0.80399 0.28118 0.41456 0.70966-0.25125 0.067 0.89193 1.754-0.79143" fill="#126dc1" stroke="#126dc1" stroke-width=".20751px"/>
    <path id="path12325-8-7" d="m531.95 965.94 0.27834-1.0494 0.33818 0.84373 1.0179-0.2552-0.15764 0.89074" fill="#126dc1" stroke="#126dc1" stroke-width=".20751px"/>
    <path id="path12327-9-5" d="m534.31 966.56 0.0133-1.005" fill="none" stroke="#126dc1" stroke-width=".20751px"/>
    <path id="path12329-4-4" d="m534.7 966.62-0.0402-0.85423" fill="none" stroke="#126dc1" stroke-width=".20751px"/>
    <path id="path12331-5-2" d="m535.36 966.74-0.0535-0.67836" fill="none" stroke="#126dc1" stroke-width=".20751px"/>
    <path id="path12333-29-6" d="m536.42 966.81 0.25222-0.97731 0.21743 0.30524 0.62632 0.0786 0.3954 0.99684" fill="#126dc1" stroke="#126dc1" stroke-width=".20751px"/>
    <path id="path12335-6-7" d="m543.59 966.62 0.0535-0.72861" fill="none" stroke="#126dc1" stroke-width=".20751px"/>
    <path id="path12337-3-1" d="m543.11 966.88-0.067-0.51505" fill="none" stroke="#126dc1" stroke-width=".20751px"/>
    <path id="path12339-31-2" d="m541.94 966.93-0.0402-0.51505" fill="none" stroke="#126dc1" stroke-width=".20751px"/>
    <path id="path12341-9-3" d="m531.16 965.72 0.13389-0.37687" fill="none" stroke="#126dc1" stroke-width=".20751px"/>
    <path id="path12343-0-1" d="m548.83 965.38-0.29458-1.1557" fill="none" stroke="#126dc1" stroke-width=".20751px"/>
    <path id="path12345-2-2" d="m544.79 966.62 0.0677-1.0529 0.48119 0.26804 0.41426-0.44041 0.77619 0.0129 0.26449-0.37702 0.91042 0.54909" fill="#126dc1" stroke="#126dc1" stroke-width=".20751px"/>
    <path id="path12347-9-1" d="m550.09 964.36 0.24101-0.72861 0.34814 0.40199 0.37491-0.30149 0.69626 0.70349" fill="#126dc1" stroke="#126dc1" stroke-width=".20751px"/>
    <path id="path10778-9-0-5" d="m526.34 964.79 0.3883-0.85423" fill="none" stroke="#000" stroke-width=".20751px"/>
    <path id="path12323-3-3-5" d="m527.6 965.1 0.28119-0.80399 0.28118 0.41456 0.70966-0.25125 0.067 0.89192 1.754-0.79142" fill="none" stroke="#000" stroke-width=".20751px"/>
    <path id="path12325-3-5-6" d="m531.75 966.29 0.27836-1.0494 0.33818 0.84373 1.0179-0.2552-0.15764 0.89074" fill="none" stroke="#000" stroke-width=".20751px"/>
    <path id="path12327-7-1-3" d="m534.18 966.94 0.0133-1.005" fill="none" stroke="#000" stroke-width=".20751px"/>
    <path id="path12329-7-0-1" d="m534.57 967-0.0402-0.85424" fill="none" stroke="#000" stroke-width=".20751px"/>
    <path id="path12331-9-4-3" d="m535.22 967.11-0.0535-0.67837" fill="none" stroke="#000" stroke-width=".20751px"/>
    <path id="path12333-2-5-2" d="m536.17 967.12 0.25222-0.97732 0.21744 0.30523 0.62631 0.0786 0.39539 0.99683" fill="none" stroke="#000" stroke-width=".20751px"/>
    <path id="path12335-3-2-3" d="m543.45 967 0.0535-0.72862" fill="none" stroke="#000" stroke-width=".20751px"/>
    <path id="path12337-8-4-5" d="m542.82 967.06-0.067-0.51506" fill="none" stroke="#000" stroke-width=".20751px"/>
    <path id="path12339-3-5-1" d="m541.81 967.3-0.0402-0.51505" fill="none" stroke="#000" stroke-width=".20751px"/>
    <path id="path12341-4-7-9" d="m531.03 966.09 0.13389-0.37686" fill="none" stroke="#000" stroke-width=".20751px"/>
    <path id="path12343-9-3-7" d="m548.7 965.75-0.29457-1.1557" fill="none" stroke="#000" stroke-width=".20751px"/>
    <path id="path12345-3-4-1" d="m544.75 967.02 0.0677-1.0529 0.48118 0.26803 0.41426-0.44041 0.77619 0.0129 0.2645-0.37701 0.91042 0.54908" fill="none" stroke="#000" stroke-width=".20751px"/>
    <path id="path12347-1-3-2" d="m549.96 964.74 0.24101-0.72861 0.34813 0.40199 0.37491-0.30149 0.69627 0.70348" fill="none" stroke="#000" stroke-width=".20751px"/>
    <path id="path9186-5" d="m537.95 1004.3c5.2385-0.3274 18.918-5.0224 18.918-5.0224s-15.181-1.5736-21.141-1.4967c-3.5139 0.0453-7.9247 0.52501-10.953 0.91108-2.108 0.26873-3.5462 0.4921-3.5462 0.4921 4.1032 2.5866 11.878 4.896 16.722 5.116z" fill="#70b4f3"/>
    <path id="path8767-2" d="m523.09 999.39c11.662-1.2563 21.843-0.63195 31.948 0.19844 0 0-12.436 3.9546-18.686 3.4396-5.4941-0.4527-11.546-2.5894-12.963-3.4522-0.0895-0.0545-0.15995-0.0981-0.21-0.12937-0.059-0.0368-0.0896-0.0565-0.0896-0.0565z" fill="#bbb"/>
    <path id="path10778-23" d="m523.88 998.5 0.47956 1.1245" fill="#70b4f3" stroke="#126dc1" stroke-width=".26458px"/>
    <path id="path12323-5" d="m525.44 998.09 0.34727 1.0583 0.34726-0.5457 0.87644 0.33073 0.0827-1.1741 2.1663 1.0418" fill="#126dc1" stroke="#126dc1" stroke-width=".26458px"/>
    <path id="path12325-83" d="m530.98 997.77 0.13229 1.4221 0.57878-1.0253 1.1906 0.54571-0.0164-1.1906" fill="#126dc1" stroke="#126dc1" stroke-width=".26458px"/>
    <path id="path12327-2" d="m534.17 997.66 0.0164 1.3229" fill="none" stroke="#126dc1" stroke-width=".26458px"/>
    <path id="path12329-8" d="m534.65 997.57-0.0496 1.1245" fill="none" stroke="#126dc1" stroke-width=".26458px"/>
    <path id="path12331-4" d="m535.46 997.43-0.0661 0.89297" fill="none" stroke="#126dc1" stroke-width=".26458px"/>
    <path id="path12333-3" d="m539.01 997.26-0.11575 1.3229 0.38034-0.28111 0.76067 0.1819 0.87644-1.0583" fill="#126dc1" stroke="#126dc1" stroke-width=".26458px"/>
    <path id="path12335-32" d="m543.18 997.79 0.0661 0.95912" fill="none" stroke="#126dc1" stroke-width=".26458px"/>
    <path id="path12337-6" d="m542.4 997.71-0.0827 0.678" fill="none" stroke="#126dc1" stroke-width=".26458px"/>
    <path id="path12339-2" d="m536.88 997.54-0.0496 0.67799" fill="none" stroke="#126dc1" stroke-width=".26458px"/>
    <path id="path12341-7" d="m529.84 997.87 0.16536 0.49609" fill="none" stroke="#126dc1" stroke-width=".26458px"/>
    <path id="path12343-4" d="m546.11 997.97-0.3638 1.5214" fill="none" stroke="#126dc1" stroke-width=".26458px"/>
    <path id="path12345-9" d="m548.39 998.07 0.39687 1.3229 0.49609-0.49609 0.62839 0.42995 0.92604-0.26459 0.42995 0.39688 0.92604-0.99219" fill="#126dc1" stroke="#126dc1" stroke-width=".26458px"/>
    <path id="path12347-8" d="m553.05 998.57 0.29765 0.95911 0.42995-0.52916 0.46302 0.39687 0.8599-0.92604" fill="#126dc1" stroke="#126dc1" stroke-width=".26458px"/>
    <path id="path10778-9-7" d="m523.72 998 0.47956 1.1245" fill="none" stroke="#000" stroke-width=".26458px"/>
    <path id="path12323-3-2" d="m525.27 997.59 0.34727 1.0584 0.34726-0.54571 0.87644 0.33073 0.0827-1.1741 2.1663 1.0418" fill="none" stroke="#000" stroke-width=".26458px"/>
    <path id="path12325-3-75" d="m530.81 997.28 0.13229 1.4221 0.57878-1.0253 1.1906 0.54571-0.0164-1.1906" fill="none" stroke="#000" stroke-width=".26458px"/>
    <path id="path12327-7-2" d="m534 997.16 0.0164 1.3229" fill="none" stroke="#000" stroke-width=".26458px"/>
    <path id="path12329-7-9" d="m534.48 997.08-0.0496 1.1245" fill="none" stroke="#000" stroke-width=".26458px"/>
    <path id="path12331-9-8" d="m535.29 996.93-0.0661 0.89297" fill="none" stroke="#000" stroke-width=".26458px"/>
    <path id="path12333-2-4" d="m538.85 996.76-0.11575 1.3229 0.38034-0.28111 0.76067 0.1819 0.87644-1.0583" fill="none" stroke="#000" stroke-width=".26458px"/>
    <path id="path12335-3-7" d="m543.02 997.29 0.0661 0.95912" fill="none" stroke="#000" stroke-width=".26458px"/>
    <path id="path12337-8-5" d="m542.24 997.21-0.0827 0.678" fill="none" stroke="#000" stroke-width=".26458px"/>
    <path id="path12339-3-7" d="m536.72 997.04-0.0496 0.67799" fill="none" stroke="#000" stroke-width=".26458px"/>
    <path id="path12341-4-3" d="m529.67 997.38 0.16536 0.49609" fill="none" stroke="#000" stroke-width=".26458px"/>
    <path id="path12343-9-7" d="m545.94 997.47-0.3638 1.5214" fill="none" stroke="#000" stroke-width=".26458px"/>
    <path id="path12345-3-0" d="m548.22 997.57 0.39687 1.3229 0.49609-0.49609 0.62839 0.42995 0.92604-0.26459 0.42995 0.39688 0.92604-0.99219" fill="none" stroke="#000" stroke-width=".26458px"/>
    <path id="path12347-1-6" d="m552.89 998.07 0.29765 0.95911 0.42995-0.52916 0.46302 0.39687 0.8599-0.92603" fill="none" stroke="#000" stroke-width=".26458px"/>
    <path id="path10778-2-8" d="m524.68 1001.5 0.3883-0.8542" fill="#70b4f3" stroke="#126dc1" stroke-width=".20751px"/>
    <path id="path12323-2-5" d="m525.94 1001.8 0.28119-0.804 0.28118 0.4145 0.70966-0.2512 0.067 0.8919 1.754-0.7914" fill="#126dc1" stroke="#126dc1" stroke-width=".20751px"/>
    <path id="path12325-8-71" d="m530.16 1003 0.27834-1.0493 0.33818 0.8437 1.0179-0.2552-0.15764 0.8908" fill="#126dc1" stroke="#126dc1" stroke-width=".20751px"/>
    <path id="path12327-9-3" d="m532.52 1003.6 0.0133-1.005" fill="none" stroke="#126dc1" stroke-width=".20751px"/>
    <path id="path12329-4-8" d="m532.91 1003.7-0.0402-0.8543" fill="none" stroke="#126dc1" stroke-width=".20751px"/>
    <path id="path12331-5-24" d="m533.56 1003.8-0.0535-0.6783" fill="none" stroke="#126dc1" stroke-width=".20751px"/>
    <path id="path12333-29-7" d="m534.63 1003.9 0.25222-0.9773 0.21743 0.3052 0.62632 0.079 0.3954 0.9968" fill="#126dc1" stroke="#126dc1" stroke-width=".20751px"/>
    <path id="path12335-6-1" d="m541.8 1003.7 0.0535-0.7287" fill="none" stroke="#126dc1" stroke-width=".20751px"/>
    <path id="path12337-3-6" d="m541.32 1003.9-0.067-0.515" fill="none" stroke="#126dc1" stroke-width=".20751px"/>
    <path id="path12339-31-6" d="m540.15 1004-0.0402-0.515" fill="none" stroke="#126dc1" stroke-width=".20751px"/>
    <path id="path12341-9-5" d="m529.37 1002.8 0.13389-0.3769" fill="none" stroke="#126dc1" stroke-width=".20751px"/>
    <path id="path12343-0-7" d="m547.04 1002.4-0.29458-1.1557" fill="none" stroke="#126dc1" stroke-width=".20751px"/>
    <path id="path12345-2-6" d="m542.99 1003.7 0.0677-1.0529 0.48119 0.268 0.41426-0.4404 0.77619 0.013 0.26449-0.377 0.91042 0.5491" fill="#126dc1" stroke="#126dc1" stroke-width=".20751px"/>
    <path id="path12347-9-4" d="m548.3 1001.4 0.24101-0.7286 0.34814 0.402 0.37491-0.3015 0.69626 0.7035" fill="#126dc1" stroke="#126dc1" stroke-width=".20751px"/>
    <path id="path10778-9-0-4" d="m524.55 1001.8 0.3883-0.8543" fill="none" stroke="#000" stroke-width=".20751px"/>
    <path id="path12323-3-3-3" d="m525.81 1002.2 0.28119-0.804 0.28118 0.4146 0.70966-0.2513 0.067 0.892 1.754-0.7915" fill="none" stroke="#000" stroke-width=".20751px"/>
    <path id="path12325-3-5-3" d="m529.96 1003.3 0.27836-1.0494 0.33818 0.8438 1.0179-0.2552-0.15764 0.8907" fill="none" stroke="#000" stroke-width=".20751px"/>
    <path id="path12327-7-1-1" d="m532.39 1004 0.0133-1.005" fill="none" stroke="#000" stroke-width=".20751px"/>
    <path id="path12329-7-0-0" d="m532.77 1004.1-0.0402-0.8542" fill="none" stroke="#000" stroke-width=".20751px"/>
    <path id="path12331-9-4-9" d="m533.43 1004.2-0.0535-0.6784" fill="none" stroke="#000" stroke-width=".20751px"/>
    <path id="path12333-2-5-4" d="m534.38 1004.2 0.25222-0.9773 0.21744 0.3052 0.62631 0.079 0.39539 0.9969" fill="none" stroke="#000" stroke-width=".20751px"/>
    <path id="path12335-3-2-2" d="m541.66 1004.1 0.0535-0.7286" fill="none" stroke="#000" stroke-width=".20751px"/>
    <path id="path12337-8-4-9" d="m541.03 1004.1-0.067-0.515" fill="none" stroke="#000" stroke-width=".20751px"/>
    <path id="path12339-3-5-6" d="m540.02 1004.4-0.0402-0.515" fill="none" stroke="#000" stroke-width=".20751px"/>
    <path id="path12341-4-7-1" d="m529.24 1003.2 0.13389-0.3768" fill="none" stroke="#000" stroke-width=".20751px"/>
    <path id="path12343-9-3-4" d="m546.91 1002.8-0.29457-1.1557" fill="none" stroke="#000" stroke-width=".20751px"/>
    <path id="path12345-3-4-13" d="m542.96 1004.1 0.0677-1.0529 0.48118 0.268 0.41426-0.4404 0.77619 0.013 0.2645-0.377 0.91042 0.5491" fill="none" stroke="#000" stroke-width=".20751px"/>
    <path id="path12347-1-3-1" d="m548.17 1001.8 0.24101-0.7286 0.34813 0.402 0.37491-0.3015 0.69627 0.7035" fill="none" stroke="#000" stroke-width=".20751px"/>
    <path id="path9186-1" d="m537.92 1034.3c5.2385-0.3274 18.918-5.0224 18.918-5.0224s-15.181-1.5736-21.141-1.4967c-3.5139 0.045-7.9247 0.525-10.953 0.9111-2.108 0.2687-3.5462 0.4921-3.5462 0.4921 4.1032 2.5866 11.878 4.896 16.722 5.1159z" fill="#70b4f3"/>
    <path id="path8767-5" d="m523.06 1029.5c11.662-1.2563 21.843-0.6319 31.948 0.1985 0 0-12.436 3.9546-18.686 3.4395-5.4941-0.4527-11.546-2.5894-12.963-3.4522-0.0895-0.054-0.15995-0.098-0.21-0.1293-0.059-0.037-0.0896-0.056-0.0896-0.056z" fill="#bbb"/>
    <path id="path10778-96" d="m523.85 1028.6 0.47956 1.1245" fill="#70b4f3" stroke="#126dc1" stroke-width=".26458px"/>
    <path id="path12323-1" d="m525.41 1028.2 0.34727 1.0584 0.34726-0.5457 0.87644 0.3307 0.0827-1.1741 2.1663 1.0418" fill="#126dc1" stroke="#126dc1" stroke-width=".26458px"/>
    <path id="path12325-9" d="m530.95 1027.9 0.13229 1.4222 0.57878-1.0253 1.1906 0.5457-0.0164-1.1906" fill="#126dc1" stroke="#126dc1" stroke-width=".26458px"/>
    <path id="path12327-1" d="m534.14 1027.7 0.0164 1.3229" fill="none" stroke="#126dc1" stroke-width=".26458px"/>
    <path id="path12329-89" d="m534.62 1027.7-0.0496 1.1245" fill="none" stroke="#126dc1" stroke-width=".26458px"/>
    <path id="path12331-59" d="m535.43 1027.5-0.0661 0.8929" fill="none" stroke="#126dc1" stroke-width=".26458px"/>
    <path id="path12333-25" d="m538.98 1027.3-0.11575 1.3229 0.38034-0.2811 0.76067 0.1819 0.87644-1.0583" fill="#126dc1" stroke="#126dc1" stroke-width=".26458px"/>
    <path id="path12335-7" d="m543.15 1027.9 0.0661 0.9591" fill="none" stroke="#126dc1" stroke-width=".26458px"/>
    <path id="path12337-0" d="m542.37 1027.8-0.0827 0.678" fill="none" stroke="#126dc1" stroke-width=".26458px"/>
    <path id="path12339-1" d="m536.85 1027.6-0.0496 0.678" fill="none" stroke="#126dc1" stroke-width=".26458px"/>
    <path id="path12341-0" d="m529.81 1028 0.16536 0.4961" fill="none" stroke="#126dc1" stroke-width=".26458px"/>
    <path id="path12343-48" d="m546.08 1028.1-0.3638 1.5213" fill="none" stroke="#126dc1" stroke-width=".26458px"/>
    <path id="path12345-7" d="m548.36 1028.2 0.39687 1.3229 0.49609-0.4961 0.62839 0.43 0.92604-0.2646 0.42995 0.3969 0.92604-0.9922" fill="#126dc1" stroke="#126dc1" stroke-width=".26458px"/>
    <path id="path12347-83" d="m553.02 1028.6 0.29765 0.9591 0.42995-0.5292 0.46302 0.3969 0.8599-0.926" fill="#126dc1" stroke="#126dc1" stroke-width=".26458px"/>
    <path id="path10778-9-4" d="m523.69 1028.1 0.47956 1.1244" fill="none" stroke="#000" stroke-width=".26458px"/>
    <path id="path12323-3-1" d="m525.24 1027.7 0.34727 1.0584 0.34726-0.5457 0.87644 0.3307 0.0827-1.1741 2.1663 1.0418" fill="none" stroke="#000" stroke-width=".26458px"/>
    <path id="path12325-3-54" d="m530.78 1027.4 0.13229 1.4222 0.57878-1.0253 1.1906 0.5457-0.0164-1.1906" fill="none" stroke="#000" stroke-width=".26458px"/>
    <path id="path12327-7-3" d="m533.97 1027.2 0.0164 1.3229" fill="none" stroke="#000" stroke-width=".26458px"/>
    <path id="path12329-7-7" d="m534.45 1027.2-0.0496 1.1245" fill="none" stroke="#000" stroke-width=".26458px"/>
    <path id="path12331-9-84" d="m535.26 1027-0.0661 0.893" fill="none" stroke="#000" stroke-width=".26458px"/>
    <path id="path12333-2-53" d="m538.82 1026.8-0.11575 1.3229 0.38034-0.2811 0.76067 0.1819 0.87644-1.0583" fill="none" stroke="#000" stroke-width=".26458px"/>
    <path id="path12335-3-4" d="m542.99 1027.4 0.0661 0.9591" fill="none" stroke="#000" stroke-width=".26458px"/>
    <path id="path12337-8-52" d="m542.21 1027.3-0.0827 0.678" fill="none" stroke="#000" stroke-width=".26458px"/>
    <path id="path12339-3-57" d="m536.69 1027.1-0.0496 0.678" fill="none" stroke="#000" stroke-width=".26458px"/>
    <path id="path12341-4-8" d="m529.64 1027.5 0.16536 0.4961" fill="none" stroke="#000" stroke-width=".26458px"/>
    <path id="path12343-9-56" d="m545.91 1027.6-0.3638 1.5213" fill="none" stroke="#000" stroke-width=".26458px"/>
    <path id="path12345-3-9" d="m548.2 1027.7 0.39687 1.3229 0.49609-0.4961 0.62839 0.43 0.92604-0.2646 0.42995 0.3969 0.92604-0.9922" fill="none" stroke="#000" stroke-width=".26458px"/>
    <path id="path12347-1-1" d="m552.86 1028.2 0.29765 0.9591 0.42995-0.5292 0.46302 0.3969 0.8599-0.926" fill="none" stroke="#000" stroke-width=".26458px"/>
    <path id="path10778-2-43" d="m524.65 1031.6 0.3883-0.8542" fill="#70b4f3" stroke="#126dc1" stroke-width=".20751px"/>
    <path id="path12323-2-1" d="m525.91 1031.9 0.28119-0.804 0.28118 0.4146 0.70966-0.2513 0.067 0.8919 1.754-0.7914" fill="#126dc1" stroke="#126dc1" stroke-width=".20751px"/>
    <path id="path12325-8-3" d="m530.13 1033.1 0.27834-1.0494 0.33818 0.8438 1.0179-0.2552-0.15764 0.8907" fill="#126dc1" stroke="#126dc1" stroke-width=".20751px"/>
    <path id="path12327-9-9" d="m532.49 1033.7 0.0133-1.005" fill="none" stroke="#126dc1" stroke-width=".20751px"/>
    <path id="path12329-4-5" d="m532.88 1033.8-0.0402-0.8542" fill="none" stroke="#126dc1" stroke-width=".20751px"/>
    <path id="path12331-5-8" d="m533.54 1033.9-0.0535-0.6784" fill="none" stroke="#126dc1" stroke-width=".20751px"/>
    <path id="path12333-29-1" d="m534.6 1034 0.25222-0.9773 0.21743 0.3052 0.62632 0.079 0.3954 0.9969" fill="#126dc1" stroke="#126dc1" stroke-width=".20751px"/>
    <path id="path12335-6-4" d="m541.77 1033.8 0.0535-0.7286" fill="none" stroke="#126dc1" stroke-width=".20751px"/>
    <path id="path12337-3-7" d="m541.29 1034-0.067-0.515" fill="none" stroke="#126dc1" stroke-width=".20751px"/>
    <path id="path12339-31-9" d="m540.12 1034.1-0.0402-0.5151" fill="none" stroke="#126dc1" stroke-width=".20751px"/>
    <path id="path12341-9-8" d="m529.34 1032.9 0.13389-0.3768" fill="none" stroke="#126dc1" stroke-width=".20751px"/>
    <path id="path12343-0-9" d="m547.01 1032.5-0.29458-1.1558" fill="none" stroke="#126dc1" stroke-width=".20751px"/>
    <path id="path12345-2-67" d="m542.97 1033.8 0.0677-1.053 0.48119 0.2681 0.41426-0.4405 0.77619 0.013 0.26449-0.377 0.91042 0.5491" fill="#126dc1" stroke="#126dc1" stroke-width=".20751px"/>
    <path id="path12347-9-9" d="m548.27 1031.5 0.24101-0.7286 0.34814 0.402 0.37491-0.3015 0.69626 0.7035" fill="#126dc1" stroke="#126dc1" stroke-width=".20751px"/>
    <path id="path10778-9-0-0" d="m524.52 1031.9 0.3883-0.8542" fill="none" stroke="#000" stroke-width=".20751px"/>
    <path id="path12323-3-3-1" d="m525.78 1032.2 0.28119-0.804 0.28118 0.4145 0.70966-0.2512 0.067 0.8919 1.754-0.7914" fill="none" stroke="#000" stroke-width=".20751px"/>
    <path id="path12325-3-5-2" d="m529.93 1033.4 0.27836-1.0493 0.33818 0.8437 1.0179-0.2552-0.15764 0.8907" fill="none" stroke="#000" stroke-width=".20751px"/>
    <path id="path12327-7-1-7" d="m532.36 1034.1 0.0133-1.005" fill="none" stroke="#000" stroke-width=".20751px"/>
    <path id="path12329-7-0-8" d="m532.75 1034.1-0.0402-0.8543" fill="none" stroke="#000" stroke-width=".20751px"/>
    <path id="path12331-9-4-0" d="m533.4 1034.3-0.0535-0.6783" fill="none" stroke="#000" stroke-width=".20751px"/>
    <path id="path12333-2-5-29" d="m534.35 1034.3 0.25222-0.9774 0.21744 0.3053 0.62631 0.079 0.39539 0.9968" fill="none" stroke="#000" stroke-width=".20751px"/>
    <path id="path12335-3-2-7" d="m541.63 1034.1 0.0535-0.7287" fill="none" stroke="#000" stroke-width=".20751px"/>
    <path id="path12337-8-4-3" d="m541 1034.2-0.067-0.5151" fill="none" stroke="#000" stroke-width=".20751px"/>
    <path id="path12339-3-5-3" d="m539.99 1034.4-0.0402-0.515" fill="none" stroke="#000" stroke-width=".20751px"/>
    <path id="path12341-4-7-18" d="m529.21 1033.2 0.13389-0.3769" fill="none" stroke="#000" stroke-width=".20751px"/>
    <path id="path12343-9-3-2" d="m546.88 1032.9-0.29457-1.1557" fill="none" stroke="#000" stroke-width=".20751px"/>
    <path id="path12345-3-4-6" d="m542.93 1034.2 0.0677-1.053 0.48118 0.2681 0.41426-0.4405 0.77619 0.013 0.2645-0.377 0.91042 0.5491" fill="none" stroke="#000" stroke-width=".20751px"/>
    <path id="path12347-1-3-8" d="m548.14 1031.9 0.24101-0.7287 0.34813 0.402 0.37491-0.3015 0.69627 0.7035" fill="none" stroke="#000" stroke-width=".20751px"/>
    <path id="path9186-16" d="m599.8 936.24c5.2385-0.32741 18.918-5.0224 18.918-5.0224s-15.181-1.5736-21.141-1.4967c-3.5139 0.0453-7.9247 0.52501-10.953 0.91108-2.108 0.26873-3.5462 0.4921-3.5462 0.4921 4.1032 2.5866 11.878 4.896 16.722 5.116z" fill="#70b4f3"/>
    <path id="path8767-6" d="m584.94 931.38c11.662-1.2563 21.843-0.63195 31.948 0.19844 0 0-12.436 3.9546-18.686 3.4396-5.4941-0.45271-11.546-2.5894-12.963-3.4522-0.0895-0.0545-0.15995-0.0981-0.21-0.12937-0.059-0.0368-0.0896-0.0565-0.0896-0.0565z" fill="#bbb"/>
    <path id="path10778-5" d="m585.73 930.49 0.47956 1.1245" fill="#70b4f3" stroke="#126dc1" stroke-width=".26458px"/>
    <path id="path12323-8" d="m587.28 930.07 0.34727 1.0583 0.34726-0.54571 0.87644 0.33073 0.0827-1.1741 2.1663 1.0418" fill="#126dc1" stroke="#126dc1" stroke-width=".26458px"/>
    <path id="path12325-4" d="m592.82 929.76 0.13229 1.4221 0.57878-1.0253 1.1906 0.54571-0.0164-1.1906" fill="#126dc1" stroke="#126dc1" stroke-width=".26458px"/>
    <path id="path12327-5" d="m596.02 929.64 0.0164 1.3229" fill="none" stroke="#126dc1" stroke-width=".26458px"/>
    <path id="path12329-9" d="m596.5 929.56-0.0496 1.1245" fill="none" stroke="#126dc1" stroke-width=".26458px"/>
    <path id="path12331-2" d="m597.31 929.41-0.0661 0.89297" fill="none" stroke="#126dc1" stroke-width=".26458px"/>
    <path id="path12333-7" d="m600.86 929.25-0.11575 1.3229 0.38034-0.28111 0.76067 0.1819 0.87644-1.0583" fill="#126dc1" stroke="#126dc1" stroke-width=".26458px"/>
    <path id="path12335-2" d="m605.03 929.77 0.0661 0.95912" fill="none" stroke="#126dc1" stroke-width=".26458px"/>
    <path id="path12337-9" d="m604.25 929.69-0.0827 0.678" fill="none" stroke="#126dc1" stroke-width=".26458px"/>
    <path id="path12339-14" d="m598.73 929.53-0.0496 0.67799" fill="none" stroke="#126dc1" stroke-width=".26458px"/>
    <path id="path12341-3" d="m591.68 929.86 0.16536 0.49609" fill="none" stroke="#126dc1" stroke-width=".26458px"/>
    <path id="path12343-92" d="m607.95 929.96-0.3638 1.5214" fill="none" stroke="#126dc1" stroke-width=".26458px"/>
    <path id="path12345-6" d="m610.24 930.06 0.39687 1.3229 0.49609-0.49609 0.62839 0.42995 0.92604-0.26459 0.42995 0.39688 0.92604-0.99219" fill="#126dc1" stroke="#126dc1" stroke-width=".26458px"/>
    <path id="path12347-12" d="m614.9 930.55 0.29765 0.95911 0.42995-0.52916 0.46302 0.39687 0.8599-0.92604" fill="#126dc1" stroke="#126dc1" stroke-width=".26458px"/>
    <path id="path10778-9-43" d="m585.56 929.99 0.47956 1.1245" fill="none" stroke="#000" stroke-width=".26458px"/>
    <path id="path12323-3-9" d="m587.12 929.58 0.34727 1.0583 0.34726-0.54571 0.87644 0.33073 0.0827-1.1741 2.1663 1.0418" fill="none" stroke="#000" stroke-width=".26458px"/>
    <path id="path12325-3-2" d="m592.66 929.26 0.13229 1.4221 0.57878-1.0253 1.1906 0.54571-0.0164-1.1906" fill="none" stroke="#000" stroke-width=".26458px"/>
    <path id="path12327-7-9" d="m595.85 929.15 0.0164 1.3229" fill="none" stroke="#000" stroke-width=".26458px"/>
    <path id="path12329-7-1" d="m596.33 929.06-0.0496 1.1245" fill="none" stroke="#000" stroke-width=".26458px"/>
    <path id="path12331-9-5" d="m597.14 928.91-0.0661 0.89297" fill="none" stroke="#000" stroke-width=".26458px"/>
    <path id="path12333-2-55" d="m600.7 928.75-0.11575 1.3229 0.38034-0.28111 0.76067 0.1819 0.87644-1.0583" fill="none" stroke="#000" stroke-width=".26458px"/>
    <path id="path12335-3-8" d="m604.86 929.28 0.0661 0.95912" fill="none" stroke="#000" stroke-width=".26458px"/>
    <path id="path12337-8-45" d="m604.09 929.2-0.0827 0.678" fill="none" stroke="#000" stroke-width=".26458px"/>
    <path id="path12339-3-3" d="m598.56 929.03-0.0496 0.67799" fill="none" stroke="#000" stroke-width=".26458px"/>
    <path id="path12341-4-2" d="m591.52 929.36 0.16536 0.49609" fill="none" stroke="#000" stroke-width=".26458px"/>
    <path id="path12343-9-71" d="m607.79 929.46-0.3638 1.5214" fill="none" stroke="#000" stroke-width=".26458px"/>
    <path id="path12345-3-00" d="m610.07 929.56 0.39687 1.3229 0.49609-0.49609 0.62839 0.42995 0.92604-0.26459 0.42995 0.39688 0.92604-0.99219" fill="none" stroke="#000" stroke-width=".26458px"/>
    <path id="path12347-1-4" d="m614.73 930.06 0.29765 0.95911 0.42995-0.52916 0.46302 0.39687 0.8599-0.92604" fill="none" stroke="#000" stroke-width=".26458px"/>
    <path id="path10778-2-49" d="m586.53 933.46 0.3883-0.85423" fill="#70b4f3" stroke="#126dc1" stroke-width=".20751px"/>
    <path id="path12323-2-9" d="m587.79 933.77 0.28119-0.80399 0.28118 0.41456 0.70966-0.25125 0.067 0.89193 1.754-0.79143" fill="#126dc1" stroke="#126dc1" stroke-width=".20751px"/>
    <path id="path12325-8-8" d="m592 934.98 0.27834-1.0494 0.33818 0.84373 1.0179-0.2552-0.15764 0.89074" fill="#126dc1" stroke="#126dc1" stroke-width=".20751px"/>
    <path id="path12327-9-8" d="m594.37 935.61 0.0133-1.005" fill="none" stroke="#126dc1" stroke-width=".20751px"/>
    <path id="path12329-4-86" d="m594.75 935.67-0.0402-0.85423" fill="none" stroke="#126dc1" stroke-width=".20751px"/>
    <path id="path12331-5-3" d="m595.41 935.78-0.0535-0.67836" fill="none" stroke="#126dc1" stroke-width=".20751px"/>
    <path id="path12333-29-14" d="m596.48 935.86 0.25222-0.97731 0.21743 0.30524 0.62632 0.0786 0.3954 0.99684" fill="#126dc1" stroke="#126dc1" stroke-width=".20751px"/>
    <path id="path12335-6-3" d="m603.64 935.67 0.0535-0.72861" fill="none" stroke="#126dc1" stroke-width=".20751px"/>
    <path id="path12337-3-74" d="m603.16 935.93-0.067-0.51505" fill="none" stroke="#126dc1" stroke-width=".20751px"/>
    <path id="path12339-31-92" d="m602 935.97-0.0402-0.51505" fill="none" stroke="#126dc1" stroke-width=".20751px"/>
    <path id="path12341-9-30" d="m591.22 934.76 0.13389-0.37687" fill="none" stroke="#126dc1" stroke-width=".20751px"/>
    <path id="path12343-0-2" d="m608.89 934.42-0.29458-1.1557" fill="none" stroke="#126dc1" stroke-width=".20751px"/>
    <path id="path12345-2-1" d="m604.84 935.66 0.0677-1.0529 0.48119 0.26804 0.41426-0.44041 0.77619 0.0129 0.26449-0.37702 0.91042 0.54909" fill="#126dc1" stroke="#126dc1" stroke-width=".20751px"/>
    <path id="path12347-9-93" d="m610.15 933.41 0.24101-0.72861 0.34814 0.40199 0.37491-0.30149 0.69626 0.70349" fill="#126dc1" stroke="#126dc1" stroke-width=".20751px"/>
    <path id="path10778-9-0-49" d="m586.39 933.83 0.3883-0.85423" fill="none" stroke="#000" stroke-width=".20751px"/>
    <path id="path12323-3-3-6" d="m587.65 934.15 0.28119-0.80399 0.28118 0.41456 0.70966-0.25125 0.067 0.89192 1.754-0.79142" fill="none" stroke="#000" stroke-width=".20751px"/>
    <path id="path12325-3-5-39" d="m591.81 935.34 0.27836-1.0494 0.33818 0.84373 1.0179-0.2552-0.15764 0.89074" fill="none" stroke="#000" stroke-width=".20751px"/>
    <path id="path12327-7-1-8" d="m594.23 935.98 0.0133-1.005" fill="none" stroke="#000" stroke-width=".20751px"/>
    <path id="path12329-7-0-2" d="m594.62 936.05-0.0402-0.85424" fill="none" stroke="#000" stroke-width=".20751px"/>
    <path id="path12331-9-4-00" d="m595.28 936.16-0.0535-0.67837" fill="none" stroke="#000" stroke-width=".20751px"/>
    <path id="path12333-2-5-7" d="m596.23 936.17 0.25222-0.97732 0.21744 0.30523 0.62631 0.0786 0.39539 0.99683" fill="none" stroke="#000" stroke-width=".20751px"/>
    <path id="path12335-3-2-36" d="m603.51 936.04 0.0535-0.72862" fill="none" stroke="#000" stroke-width=".20751px"/>
    <path id="path12337-8-4-35" d="m602.88 936.11-0.067-0.51506" fill="none" stroke="#000" stroke-width=".20751px"/>
    <path id="path12339-3-5-4" d="m601.86 936.35-0.0402-0.51505" fill="none" stroke="#000" stroke-width=".20751px"/>
    <path id="path12341-4-7-4" d="m591.08 935.14 0.13389-0.37686" fill="none" stroke="#000" stroke-width=".20751px"/>
    <path id="path12343-9-3-9" d="m608.76 934.8-0.29457-1.1557" fill="none" stroke="#000" stroke-width=".20751px"/>
    <path id="path12345-3-4-0" d="m604.8 936.06 0.0677-1.0529 0.48118 0.26803 0.41426-0.44041 0.77619 0.0129 0.2645-0.37701 0.91042 0.54908" fill="none" stroke="#000" stroke-width=".20751px"/>
    <path id="path12347-1-3-27" d="m610.01 933.78 0.24101-0.72861 0.34813 0.40199 0.37491-0.30149 0.69627 0.70348" fill="none" stroke="#000" stroke-width=".20751px"/>
    <path id="path9186-9" d="m598.79 1002.1c5.2385-0.3274 18.918-5.0225 18.918-5.0225s-15.181-1.5736-21.141-1.4967c-3.5139 0.0453-7.9247 0.52501-10.953 0.91108-2.108 0.26873-3.5462 0.4921-3.5462 0.4921 4.1032 2.5866 11.878 4.896 16.722 5.116z" fill="#70b4f3"/>
    <path id="path8767-7" d="m583.93 997.27c11.662-1.2563 21.843-0.63195 31.948 0.19844 0 0-12.436 3.9546-18.686 3.4396-5.4941-0.4528-11.546-2.5895-12.963-3.4522-0.0895-0.0545-0.15995-0.0981-0.21-0.12937-0.059-0.0368-0.0896-0.0565-0.0896-0.0565z" fill="#bbb"/>
    <path id="path10778-6" d="m584.72 996.38 0.47956 1.1245" fill="#70b4f3" stroke="#126dc1" stroke-width=".26458px"/>
    <path id="path12323-55" d="m586.28 995.96 0.34727 1.0583 0.34726-0.54571 0.87644 0.33073 0.0827-1.1741 2.1663 1.0418" fill="#126dc1" stroke="#126dc1" stroke-width=".26458px"/>
    <path id="path12325-5" d="m591.82 995.65 0.13229 1.4221 0.57878-1.0253 1.1906 0.54571-0.0164-1.1906" fill="#126dc1" stroke="#126dc1" stroke-width=".26458px"/>
    <path id="path12327-11" d="m595.01 995.53 0.0164 1.3229" fill="none" stroke="#126dc1" stroke-width=".26458px"/>
    <path id="path12329-74" d="m595.49 995.45-0.0496 1.1245" fill="none" stroke="#126dc1" stroke-width=".26458px"/>
    <path id="path12331-6" d="m596.3 995.3-0.0661 0.89297" fill="none" stroke="#126dc1" stroke-width=".26458px"/>
    <path id="path12333-75" d="m599.85 995.14-0.11575 1.3229 0.38034-0.28111 0.76067 0.1819 0.87644-1.0583" fill="#126dc1" stroke="#126dc1" stroke-width=".26458px"/>
    <path id="path12335-19" d="m604.02 995.67 0.0661 0.95912" fill="none" stroke="#126dc1" stroke-width=".26458px"/>
    <path id="path12337-38" d="m603.24 995.58-0.0827 0.678" fill="none" stroke="#126dc1" stroke-width=".26458px"/>
    <path id="path12339-0" d="m597.72 995.42-0.0496 0.67799" fill="none" stroke="#126dc1" stroke-width=".26458px"/>
    <path id="path12341-01" d="m590.67 995.75 0.16536 0.49609" fill="none" stroke="#126dc1" stroke-width=".26458px"/>
    <path id="path12343-6" d="m606.95 995.85-0.3638 1.5214" fill="none" stroke="#126dc1" stroke-width=".26458px"/>
    <path id="path12345-28" d="m609.23 995.95 0.39687 1.3229 0.49609-0.49609 0.62839 0.42995 0.92604-0.26459 0.42995 0.39688 0.92604-0.99219" fill="#126dc1" stroke="#126dc1" stroke-width=".26458px"/>
    <path id="path12347-7" d="m613.89 996.44 0.29765 0.95911 0.42995-0.52916 0.46302 0.39687 0.8599-0.92604" fill="#126dc1" stroke="#126dc1" stroke-width=".26458px"/>
    <path id="path10778-9-44" d="m584.56 995.88 0.47956 1.1245" fill="none" stroke="#000" stroke-width=".26458px"/>
    <path id="path12323-3-87" d="m586.11 995.47 0.34727 1.0583 0.34726-0.54571 0.87644 0.33073 0.0827-1.1741 2.1663 1.0418" fill="none" stroke="#000" stroke-width=".26458px"/>
    <path id="path12325-3-6" d="m591.65 995.15 0.13229 1.4221 0.57878-1.0253 1.1906 0.54571-0.0164-1.1906" fill="none" stroke="#000" stroke-width=".26458px"/>
    <path id="path12327-7-58" d="m594.84 995.04 0.0164 1.3229" fill="none" stroke="#000" stroke-width=".26458px"/>
    <path id="path12329-7-75" d="m595.32 994.96-0.0496 1.1245" fill="none" stroke="#000" stroke-width=".26458px"/>
    <path id="path12331-9-1" d="m596.13 994.81-0.0661 0.89297" fill="none" stroke="#000" stroke-width=".26458px"/>
    <path id="path12333-2-8" d="m599.69 994.64-0.11575 1.3229 0.38034-0.28111 0.76067 0.1819 0.87644-1.0583" fill="none" stroke="#000" stroke-width=".26458px"/>
    <path id="path12335-3-1" d="m603.85 995.17 0.0661 0.95912" fill="none" stroke="#000" stroke-width=".26458px"/>
    <path id="path12337-8-7" d="m603.08 995.09-0.0827 0.678" fill="none" stroke="#000" stroke-width=".26458px"/>
    <path id="path12339-3-1" d="m597.55 994.92-0.0496 0.67799" fill="none" stroke="#000" stroke-width=".26458px"/>
    <path id="path12341-4-4" d="m590.51 995.25 0.16536 0.49609" fill="none" stroke="#000" stroke-width=".26458px"/>
    <path id="path12343-9-75" d="m606.78 995.35-0.3638 1.5214" fill="none" stroke="#000" stroke-width=".26458px"/>
    <path id="path12345-3-5" d="m609.06 995.45 0.39687 1.3229 0.49609-0.49609 0.62839 0.42995 0.92604-0.26459 0.42995 0.39688 0.92604-0.99219" fill="none" stroke="#000" stroke-width=".26458px"/>
    <path id="path12347-1-10" d="m613.73 995.95 0.29765 0.95911 0.42995-0.52916 0.46302 0.39687 0.8599-0.92604" fill="none" stroke="#000" stroke-width=".26458px"/>
    <path id="path10778-2-1" d="m585.52 999.35 0.3883-0.85423" fill="#70b4f3" stroke="#126dc1" stroke-width=".20751px"/>
    <path id="path12323-2-81" d="m586.78 999.66 0.28119-0.80399 0.28118 0.41456 0.70966-0.25125 0.067 0.89193 1.754-0.79143" fill="#126dc1" stroke="#126dc1" stroke-width=".20751px"/>
    <path id="path12325-8-4" d="m590.99 1000.9 0.27834-1.0493 0.33818 0.84374 1.0179-0.2552-0.15764 0.8907" fill="#126dc1" stroke="#126dc1" stroke-width=".20751px"/>
    <path id="path12327-9-0" d="m593.36 1001.5 0.0133-1.005" fill="none" stroke="#126dc1" stroke-width=".20751px"/>
    <path id="path12329-4-6" d="m593.75 1001.6-0.0402-0.8542" fill="none" stroke="#126dc1" stroke-width=".20751px"/>
    <path id="path12331-5-243" d="m594.4 1001.7-0.0535-0.6784" fill="none" stroke="#126dc1" stroke-width=".20751px"/>
    <path id="path12333-29-2" d="m595.47 1001.8 0.25222-0.9773 0.21743 0.3053 0.62632 0.079 0.3954 0.9968" fill="#126dc1" stroke="#126dc1" stroke-width=".20751px"/>
    <path id="path12335-6-8" d="m602.63 1001.6 0.0535-0.7286" fill="none" stroke="#126dc1" stroke-width=".20751px"/>
    <path id="path12337-3-79" d="m602.15 1001.8-0.067-0.5151" fill="none" stroke="#126dc1" stroke-width=".20751px"/>
    <path id="path12339-31-5" d="m600.99 1001.9-0.0402-0.515" fill="none" stroke="#126dc1" stroke-width=".20751px"/>
    <path id="path12341-9-4" d="m590.21 1000.7 0.13389-0.3768" fill="none" stroke="#126dc1" stroke-width=".20751px"/>
    <path id="path12343-0-12" d="m607.88 1000.3-0.29458-1.1557" fill="none" stroke="#126dc1" stroke-width=".20751px"/>
    <path id="path12345-2-7" d="m603.83 1001.6 0.0677-1.053 0.48119 0.2681 0.41426-0.4404 0.77619 0.013 0.26449-0.37704 0.91042 0.54904" fill="#126dc1" stroke="#126dc1" stroke-width=".20751px"/>
    <path id="path12347-9-98" d="m609.14 999.3 0.24101-0.72861 0.34814 0.40199 0.37491-0.30149 0.69626 0.70349" fill="#126dc1" stroke="#126dc1" stroke-width=".20751px"/>
    <path id="path10778-9-0-8" d="m585.39 999.73 0.3883-0.85423" fill="none" stroke="#000" stroke-width=".20751px"/>
    <path id="path12323-3-3-53" d="m586.64 1e3 0.28119-0.804 0.28118 0.41456 0.70966-0.25125 0.067 0.89189 1.754-0.79139" fill="none" stroke="#000" stroke-width=".20751px"/>
    <path id="path12325-3-5-0" d="m590.8 1001.2 0.27836-1.0493 0.33818 0.8437 1.0179-0.2552-0.15764 0.8908" fill="none" stroke="#000" stroke-width=".20751px"/>
    <path id="path12327-7-1-4" d="m593.22 1001.9 0.0133-1.005" fill="none" stroke="#000" stroke-width=".20751px"/>
    <path id="path12329-7-0-83" d="m593.61 1001.9-0.0402-0.8542" fill="none" stroke="#000" stroke-width=".20751px"/>
    <path id="path12331-9-4-4" d="m594.27 1002.1-0.0535-0.6784" fill="none" stroke="#000" stroke-width=".20751px"/>
    <path id="path12333-2-5-5" d="m595.22 1002.1 0.25222-0.9773 0.21744 0.3052 0.62631 0.079 0.39539 0.9968" fill="none" stroke="#000" stroke-width=".20751px"/>
    <path id="path12335-3-2-76" d="m602.5 1001.9 0.0535-0.7286" fill="none" stroke="#000" stroke-width=".20751px"/>
    <path id="path12337-8-4-0" d="m601.87 1002-0.067-0.5151" fill="none" stroke="#000" stroke-width=".20751px"/>
    <path id="path12339-3-5-0" d="m600.85 1002.2-0.0402-0.5151" fill="none" stroke="#000" stroke-width=".20751px"/>
    <path id="path12341-4-7-96" d="m590.07 1001 0.13389-0.3768" fill="none" stroke="#000" stroke-width=".20751px"/>
    <path id="path12343-9-3-5" d="m607.75 1000.7-0.29457-1.1558" fill="none" stroke="#000" stroke-width=".20751px"/>
    <path id="path12345-3-4-9" d="m603.79 1002 0.0677-1.0529 0.48118 0.268 0.41426-0.4404 0.77619 0.013 0.2645-0.377 0.91042 0.549" fill="none" stroke="#000" stroke-width=".20751px"/>
    <path id="path12347-1-3-6" d="m609.01 999.68 0.24101-0.72861 0.34813 0.40199 0.37491-0.30149 0.69627 0.70348" fill="none" stroke="#000" stroke-width=".20751px"/>
    <path id="path9186-51" d="m601.79 1034.8c5.2385-0.3274 18.918-5.0225 18.918-5.0225s-15.181-1.5736-21.141-1.4967c-3.5139 0.045-7.9247 0.525-10.953 0.9111-2.108 0.2687-3.5462 0.4921-3.5462 0.4921 4.1032 2.5866 11.878 4.896 16.722 5.116z" fill="#70b4f3"/>
    <path id="path8767-0" d="m586.93 1030c11.662-1.2563 21.843-0.632 31.948 0.1984 0 0-12.436 3.9546-18.686 3.4396-5.4941-0.4527-11.546-2.5895-12.963-3.4522-0.0895-0.054-0.15995-0.098-0.21-0.1294-0.059-0.037-0.0896-0.057-0.0896-0.057z" fill="#bbb"/>
    <path id="path10778-24" d="m587.73 1029.1 0.47956 1.1245" fill="#70b4f3" stroke="#126dc1" stroke-width=".26458px"/>
    <path id="path12323-7" d="m589.28 1028.7 0.34727 1.0583 0.34726-0.5457 0.87644 0.3307 0.0827-1.174 2.1663 1.0418" fill="#126dc1" stroke="#126dc1" stroke-width=".26458px"/>
    <path id="path12325-42" d="m594.82 1028.3 0.13229 1.4221 0.57878-1.0252 1.1906 0.5457-0.0164-1.1907" fill="#126dc1" stroke="#126dc1" stroke-width=".26458px"/>
    <path id="path12327-91" d="m598.01 1028.2 0.0164 1.323" fill="none" stroke="#126dc1" stroke-width=".26458px"/>
    <path id="path12329-1" d="m598.49 1028.1-0.0496 1.1245" fill="none" stroke="#126dc1" stroke-width=".26458px"/>
    <path id="path12331-1" d="m599.3 1028-0.0661 0.893" fill="none" stroke="#126dc1" stroke-width=".26458px"/>
    <path id="path12333-4" d="m602.86 1027.8-0.11575 1.3229 0.38034-0.2811 0.76067 0.1819 0.87644-1.0584" fill="#126dc1" stroke="#126dc1" stroke-width=".26458px"/>
    <path id="path12335-8" d="m607.03 1028.4 0.0661 0.9591" fill="none" stroke="#126dc1" stroke-width=".26458px"/>
    <path id="path12337-4" d="m606.25 1028.3-0.0827 0.678" fill="none" stroke="#126dc1" stroke-width=".26458px"/>
    <path id="path12339-5" d="m600.72 1028.1-0.0496 0.678" fill="none" stroke="#126dc1" stroke-width=".26458px"/>
    <path id="path12341-8" d="m593.68 1028.4 0.16536 0.4961" fill="none" stroke="#126dc1" stroke-width=".26458px"/>
    <path id="path12343-47" d="m609.95 1028.5-0.3638 1.5214" fill="none" stroke="#126dc1" stroke-width=".26458px"/>
    <path id="path12345-76" d="m612.23 1028.6 0.39687 1.323 0.49609-0.4961 0.62839 0.4299 0.92604-0.2646 0.42995 0.3969 0.92604-0.9922" fill="#126dc1" stroke="#126dc1" stroke-width=".26458px"/>
    <path id="path12347-943" d="m616.9 1029.1 0.29765 0.9592 0.42995-0.5292 0.46302 0.3969 0.8599-0.9261" fill="#126dc1" stroke="#126dc1" stroke-width=".26458px"/>
    <path id="path10778-9-78" d="m587.56 1028.6 0.47956 1.1245" fill="none" stroke="#000" stroke-width=".26458px"/>
    <path id="path12323-3-98" d="m589.12 1028.2 0.34727 1.0583 0.34726-0.5457 0.87644 0.3308 0.0827-1.1741 2.1663 1.0418" fill="none" stroke="#000" stroke-width=".26458px"/>
    <path id="path12325-3-3" d="m594.66 1027.8 0.13229 1.4221 0.57878-1.0252 1.1906 0.5457-0.0164-1.1906" fill="none" stroke="#000" stroke-width=".26458px"/>
    <path id="path12327-7-8" d="m597.85 1027.7 0.0164 1.323" fill="none" stroke="#000" stroke-width=".26458px"/>
    <path id="path12329-7-4" d="m598.33 1027.6-0.0496 1.1244" fill="none" stroke="#000" stroke-width=".26458px"/>
    <path id="path12331-9-49" d="m599.14 1027.5-0.0661 0.893" fill="none" stroke="#000" stroke-width=".26458px"/>
    <path id="path12333-2-3" d="m602.69 1027.3-0.11575 1.3229 0.38034-0.2811 0.76067 0.1819 0.87644-1.0584" fill="none" stroke="#000" stroke-width=".26458px"/>
    <path id="path12335-3-19" d="m606.86 1027.9 0.0661 0.9592" fill="none" stroke="#000" stroke-width=".26458px"/>
    <path id="path12337-8-9" d="m606.08 1027.8-0.0827 0.6779" fill="none" stroke="#000" stroke-width=".26458px"/>
    <path id="path12339-3-35" d="m600.56 1027.6-0.0496 0.678" fill="none" stroke="#000" stroke-width=".26458px"/>
    <path id="path12341-4-48" d="m593.51 1027.9 0.16536 0.4961" fill="none" stroke="#000" stroke-width=".26458px"/>
    <path id="path12343-9-35" d="m609.79 1028-0.3638 1.5214" fill="none" stroke="#000" stroke-width=".26458px"/>
    <path id="path12345-3-40" d="m612.07 1028.1 0.39687 1.323 0.49609-0.4961 0.62839 0.4299 0.92604-0.2646 0.42995 0.3969 0.92604-0.9922" fill="none" stroke="#000" stroke-width=".26458px"/>
    <path id="path12347-1-8" d="m616.73 1028.6 0.29765 0.9591 0.42995-0.5292 0.46302 0.3969 0.8599-0.9261" fill="none" stroke="#000" stroke-width=".26458px"/>
    <path id="path10778-2-6" d="m588.53 1032 0.3883-0.8542" fill="#70b4f3" stroke="#126dc1" stroke-width=".20751px"/>
    <path id="path12323-2-19" d="m589.78 1032.4 0.28119-0.8039 0.28118 0.4145 0.70966-0.2512 0.067 0.8919 1.754-0.7914" fill="#126dc1" stroke="#126dc1" stroke-width=".20751px"/>
    <path id="path12325-8-9" d="m594 1033.6 0.27834-1.0493 0.33818 0.8437 1.0179-0.2552-0.15764 0.8908" fill="#126dc1" stroke="#126dc1" stroke-width=".20751px"/>
    <path id="path12327-9-2" d="m596.36 1034.2 0.0133-1.0049" fill="none" stroke="#126dc1" stroke-width=".20751px"/>
    <path id="path12329-4-7" d="m596.75 1034.2-0.0402-0.8542" fill="none" stroke="#126dc1" stroke-width=".20751px"/>
    <path id="path12331-5-7" d="m597.41 1034.4-0.0535-0.6783" fill="none" stroke="#126dc1" stroke-width=".20751px"/>
    <path id="path12333-29-9" d="m598.48 1034.4 0.25222-0.9773 0.21743 0.3052 0.62632 0.079 0.3954 0.9968" fill="#126dc1" stroke="#126dc1" stroke-width=".20751px"/>
    <path id="path12335-6-2" d="m605.64 1034.2 0.0535-0.7286" fill="none" stroke="#126dc1" stroke-width=".20751px"/>
    <path id="path12337-3-0" d="m605.16 1034.5-0.067-0.5151" fill="none" stroke="#126dc1" stroke-width=".20751px"/>
    <path id="path12339-31-69" d="m603.99 1034.6-0.0402-0.515" fill="none" stroke="#126dc1" stroke-width=".20751px"/>
    <path id="path12341-9-1" d="m593.21 1033.3 0.13389-0.3769" fill="none" stroke="#126dc1" stroke-width=".20751px"/>
    <path id="path12343-0-23" d="m610.89 1033-0.29458-1.1557" fill="none" stroke="#126dc1" stroke-width=".20751px"/>
    <path id="path12345-2-3" d="m606.84 1034.2 0.0677-1.0529 0.48119 0.268 0.41426-0.4404 0.77619 0.013 0.26449-0.377 0.91042 0.5491" fill="#126dc1" stroke="#126dc1" stroke-width=".20751px"/>
    <path id="path12347-9-44" d="m612.15 1032 0.24101-0.7286 0.34814 0.402 0.37491-0.3015 0.69626 0.7035" fill="#126dc1" stroke="#126dc1" stroke-width=".20751px"/>
    <path id="path10778-9-0-48" d="m588.39 1032.4 0.3883-0.8542" fill="none" stroke="#000" stroke-width=".20751px"/>
    <path id="path12323-3-3-4" d="m589.65 1032.7 0.28119-0.804 0.28118 0.4146 0.70966-0.2513 0.067 0.892 1.754-0.7915" fill="none" stroke="#000" stroke-width=".20751px"/>
    <path id="path12325-3-5-7" d="m593.81 1033.9 0.27836-1.0494 0.33818 0.8437 1.0179-0.2552-0.15764 0.8908" fill="none" stroke="#000" stroke-width=".20751px"/>
    <path id="path12327-7-1-5" d="m596.23 1034.6 0.0133-1.005" fill="none" stroke="#000" stroke-width=".20751px"/>
    <path id="path12329-7-0-4" d="m596.62 1034.6-0.0402-0.8542" fill="none" stroke="#000" stroke-width=".20751px"/>
    <path id="path12331-9-4-6" d="m597.27 1034.7-0.0535-0.6784" fill="none" stroke="#000" stroke-width=".20751px"/>
    <path id="path12333-2-5-8" d="m598.22 1034.7 0.25222-0.9773 0.21744 0.3052 0.62631 0.079 0.39539 0.9969" fill="none" stroke="#000" stroke-width=".20751px"/>
    <path id="path12335-3-2-8" d="m605.51 1034.6 0.0535-0.7286" fill="none" stroke="#000" stroke-width=".20751px"/>
    <path id="path12337-8-4-01" d="m604.88 1034.7-0.067-0.515" fill="none" stroke="#000" stroke-width=".20751px"/>
    <path id="path12339-3-5-43" d="m603.86 1034.9-0.0402-0.5151" fill="none" stroke="#000" stroke-width=".20751px"/>
    <path id="path12341-4-7-5" d="m593.08 1033.7 0.13389-0.3768" fill="none" stroke="#000" stroke-width=".20751px"/>
    <path id="path12343-9-3-22" d="m610.75 1033.4-0.29457-1.1557" fill="none" stroke="#000" stroke-width=".20751px"/>
    <path id="path12345-3-4-62" d="m606.8 1034.6 0.0677-1.0529 0.48118 0.268 0.41426-0.4404 0.77619 0.013 0.2645-0.377 0.91042 0.5491" fill="none" stroke="#000" stroke-width=".20751px"/>
    <path id="path12347-1-3-0" d="m612.01 1032.4 0.24101-0.7286 0.34813 0.402 0.37491-0.3015 0.69627 0.7035" fill="none" stroke="#000" stroke-width=".20751px"/>
   </g>
  </g>
 </g>
</svg>
