<?xml version="1.0" encoding="UTF-8"?>
<svg width="1200mm" height="1200mm" version="1.1" viewBox="0 0 1200 1200" xmlns="http://www.w3.org/2000/svg" xmlns:xlink="http://www.w3.org/1999/xlink">
 <defs>
  <linearGradient id="linearGradient56205" x1="306.98" x2="318.62" y1="93.199" y2="92.162" gradientTransform="matrix(.31637 -1.3096 1.3096 .31637 405.7 648.96)" gradientUnits="userSpaceOnUse" xlink:href="#linearGradient57039"/>
  <linearGradient id="linearGradient57039">
   <stop stop-color="#106a03" offset="0"/>
   <stop stop-color="#a0e597" offset="1"/>
  </linearGradient>
  <linearGradient id="linearGradient56203" x1="302.57" x2="312.19" y1="104.88" y2="108.29" gradientTransform="matrix(.31637 -1.3096 1.3096 .31637 398.79 641.36)" gradientUnits="userSpaceOnUse" xlink:href="#linearGradient56201"/>
  <linearGradient id="linearGradient56201">
   <stop stop-color="#106a03" offset="0"/>
   <stop stop-color="#b5f4ac" offset="1"/>
  </linearGradient>
  <linearGradient id="linearGradient56203-7" x1="302.57" x2="312.19" y1="104.88" y2="108.29" gradientTransform="matrix(1.3472 0 0 1.3472 229.5 167.18)" gradientUnits="userSpaceOnUse" xlink:href="#linearGradient56201"/>
  <linearGradient id="linearGradient56205-9" x1="306.98" x2="318.62" y1="93.199" y2="92.162" gradientTransform="matrix(1.3472 0 0 1.3472 223.73 175.67)" gradientUnits="userSpaceOnUse" xlink:href="#linearGradient57039"/>
  <linearGradient id="linearGradient15159" x1="302.57" x2="312.19" y1="104.88" y2="108.29" gradientTransform="matrix(.59848 2.128 -2.128 .59848 664.6 -385.8)" gradientUnits="userSpaceOnUse" xlink:href="#linearGradient56201"/>
  <linearGradient id="linearGradient15161" x1="306.98" x2="318.62" y1="93.199" y2="92.162" gradientTransform="matrix(.59848 2.128 -2.128 .59848 648.61 -391.15)" gradientUnits="userSpaceOnUse" xlink:href="#linearGradient57039"/>
 </defs>
 <g>
  <g>
   <path transform="translate(19.4 11.241)" d="m548.76 276.46c-55.334 2.0363-113.46 14.332-149.2 57.673-18.092 21.94-32.17 50.525-36.74 77.834-4.6206 27.614 0.54215 57.225 0.54215 57.225l6.8546 0.22058s-4.6781-28.989 0.7254-55.81c5.4035-26.821 18.616-43.055 35.015-62.943 33.242-40.312 89.01-52.678 143.11-54.669 53.564-1.9712 111.49 18.439 147.11 56.288 16.78 17.828 29.111 44.219 31.352 78.008 2.2411 33.79 2.4197 63.621 2.4197 63.621l8.2679 0.65591s-0.12522-30.353-2.4114-64.828c-2.2865-34.475-13.724-73.287-33.587-94.39-37.661-40.013-97.594-60.943-153.46-58.887z" color="#000000" fill="#fffff6" stroke="#000" stroke-width="2"/>
   <path d="m619.8 322.4c-1.4266 1.1922-1.8996 3.4063-1.842 5.2646 0.11407 3.6821 1.8939 14.903 5.2988 16.309 1.8422 0.76083 2.9656-7.1471 4.5224-8.3917 1.6908-1.3518 3.3881-3.1812 3.7251-5.3195 0.50341-3.1946-0.10667-7.5632-2.8514-9.2734-2.5362-1.5803-6.56-0.50539-8.853 1.4108z" fill="url(#linearGradient15159)" stroke="#0a4f00" stroke-width=".58487px"/>
   <path d="m628.66 320.99c-1.476 1.4536-2.719 3.8339-2.1581 5.8282 0.56086 1.9942 3.318 2.4877 4.8797 3.8488 4.1144 3.586 11.801 11.35 11.801 11.35s4.7019-13.599 2.0526-19.616c-1.1101-2.5213-3.9193-4.5072-6.6437-4.9158-3.4717-0.52067-7.43 1.0418-9.9313 3.505z" fill="url(#linearGradient15161)" stroke="#0a4f00" stroke-width=".58487px"/>
  </g>
  <path d="m635.16 321.35-0.52357 0.25926 6.1804 12.551c-1.0625-4.587-4.6877-10.844-5.6568-12.81z" color="#000000" fill="#0a4f00" stroke-width="2.2105" style="-inkscape-stroke:none"/>
  <path d="m626.33 321.58 0.55279 0.18913-4.4986 13.247c0.45795-4.6862 3.2402-11.36 3.9458-13.436z" color="#000000" fill="#0a4f00" stroke-width="2.2105" style="-inkscape-stroke:none"/>
  <g transform="matrix(2.0092 -.80953 .80953 2.0092 -808.58 233.02)">
   <path d="m637.62 310.32c0.46407 1.0337 1.685 1.6765 2.7848 1.9494 2.1791 0.54064 9.0563 1.348 10.443-0.41771 0.75033-0.95532-3.7039-2.9193-4.1772-4.038-0.51413-1.215-1.3074-2.5128-2.5063-3.0633-1.7912-0.82248-4.455-1.1854-5.9113 0.14275-1.3456 1.2272-1.379 3.7654-0.63306 5.4269z" fill="url(#linearGradient56203-7)" stroke="#0a4f00" stroke-width=".35646px"/>
   <path d="m638.25 304.89c0.60926 1.1059 1.8007 2.2279 3.0633 2.2279 1.2626 0 2.007-1.5362 3.0633-2.2279 2.7828-1.8222 8.6064-5.0508 8.6064-5.0508s-7.2029-5.0026-11.17-4.4411c-1.6624 0.23529-3.2911 1.5558-3.9804 3.0868-0.87834 1.951-0.61474 4.5311 0.4177 6.4051z" fill="url(#linearGradient56205-9)" stroke="#0a4f00" stroke-width=".35646px"/>
   <path d="m639.53 301.13 0.0657 0.34996 8.3834-1.5551c-2.8665-0.13351-7.1354 0.96104-8.4491 1.2051z" color="#000000" fill="#0a4f00" stroke-width="1.3472" style="-inkscape-stroke:none"/>
   <path d="m638.21 306.35 0.20219-0.29312 7.0298 4.8252c-2.6738-1.0419-6.1305-3.7756-7.2319-4.532z" color="#000000" fill="#0a4f00" stroke-width="1.3472" style="-inkscape-stroke:none"/>
   <g fill="#fffff6" stroke="#000" stroke-width=".35646px">
    <path d="m619.44 290.54c-2.799-0.76329-6.7416-6.0528-7.7515-9.1468-1.0099-3.094-0.64228-5.9845 0.5426-7.519s2.5957-0.93085 3.8758-1.3178c1.28-0.3869 2.4524-1.1569 3.7982-1.0077 1.3459 0.14922 3.4106 1.7053 3.7207 1.9379 0.31007 0.23254 1.0546 0.0965 1.6278 2.0154 0.57321 1.9189-0.85269 8.9918-0.93018 9.3793-0.0775 0.38758 0.62012 3.8758 0.23255 3.8758-0.38758 0-2.317 2.5461-5.116 1.7828z"/>
    <path d="m623.39 289.07c-1.2518-2.5596-0.37722-11.139 1.8604-13.565 2.2376-2.4266 4.1221-1.5141 5.9687-1.3177 1.8466 0.19636 3.4492 1.7333 4.5734 2.0929 1.1242 0.35959 1.0852-0.54261 2.0154 0.38757 0.93018 0.93019 3.0727 4.8557 1.8604 7.4414-1.2123 2.5858-6.3102 2.985-8.5267 4.1083-2.2165 1.1232-3.3315 2.5843-4.8059 2.558-1.4744-0.0263-1.6938 0.85425-2.9456-1.7053z"/>
    <path d="m626.34 290.77c0.93922-2.4074 7.248-6.5591 10.387-6.7438 3.139-0.1847 4.3957 1.2992 5.8136 2.8681 1.4179 1.5689 2.0929 5.426 2.1704 5.8136 0.0775 0.38759-1.0077 5.116-1.3178 5.4261-0.31006 0.31007-1.2538 2.7054-2.5286 3.0378-3.5719 0.93142-8.0289-2.459-10.339-3.968-2.31-1.509-2.7548-2.2604-3.4107-3.4107-0.65582-1.1502-1.7144-0.61563-0.77514-3.0231z"/>
    <path d="m627.11 293.8s8.7825 5.0955 10.31 8.5266 0.0775 9.0693-0.38757 9.1468c-0.46507 0.0775-3.0418 3.019-4.4371 2.7089-1.3953-0.31005-3.497 2.0883-5.2523 0.70173s-1.7093-3.5118-2.403-6.5113-2.1077-8.9638-1.1627-11.472c0.94494-2.5085 3.3414-3.1026 3.3331-3.1006-8e-3 1e-3 0 0 0 0"/>
    <path d="m623.78 296.9s6.4172 17.067 0.62012 17.131c-5.7971 0.0639-5.6364-1.1745-7.4455-1.6528-1.8092-0.47833-4.015-2.0865-4.8794-3.9282-0.86432-1.8417-0.62009-3.5657-0.0775-3.7982 0.54262-0.23254 4.6319-7.3091 6.5113-8.5267 1.8794-1.2176 1.695-0.74107 2.6355-0.62012 0.94052 0.12099 2.6355 1.3953 2.6355 1.3953"/>
    <path d="m621.14 295.5s-6.9582 8.3021-10.775 8.4492c-3.8164 0.14702-5.8607-2.7212-7.674-5.116-1.8133-2.3948-1.8393-5.6537-0.6454-8.0762 1.1939-2.4225 1.5596-2.542 4.9087-2.7759 3.3491-0.23389 10.228 0.57936 12.48 2.558"/>
    <path d="m620.44 293.56c-2.4718 1.1053-9.6223 3.4899-12.247 1.5503-2.6251-1.9396 0.62826-4.8843-1.2402-7.1314-1.8685-2.2471-0.39712-6.0462 0.15502-6.2787s4.3841-2.9695 6.2787-3.1781c1.8946-0.2086 3.1995 0.49312 4.2633 1.0852 1.0638 0.59209 0.89518 0.21636 2.0929 2.0154 1.1977 1.799 4.2023 7.1203 3.6432 9.3793-0.55908 2.2591-0.47375 1.4527-2.9456 2.558z"/>
    <path d="m623.39 289.07s-3.6119-6.6274-2.9456-8.9142c0.6663-2.2868 2.1915-2.3867 3.7982-3.1006 1.6067-0.71388 3.7891-1.3724 5.5811-0.85267 1.792 0.51977 3.7982 3.4882 4.1858 3.6432 0.38759 0.15503 2.3362-0.30224 2.1704 2.403-0.16577 2.7052-7.1187 8.2683-9.8444 8.5267s-2.9456-1.7053-2.9456-1.7053"/>
    <path d="m626.34 290.77s4.232-5.3154 6.6663-6.3562c2.4342-1.0408 5.0028-0.94117 6.6663-0.31007 1.6635 0.63112 2.0375 0.70548 2.8681 2.7906 0.83055 2.0851 1.4259 7.4181-0.38758 9.4568-1.8135 2.0388-4.1944 1.4281-6.8213 1.0852-2.6269-0.34287-6.913-2.1025-8.2166-3.6432s-0.77514-3.0231-0.77514-3.0231"/>
    <path d="m625.79 295.97c2.2482 0.9287 5.4758 6.3957 5.7361 9.3018 0.26027 2.9061-2.0929 6.1237-2.403 6.1237-0.31006 0-2.9448 2.9301-4.7284 2.6355s-2.6874-1.0655-3.6432-4.0308c-0.9558-2.9652-0.39513-11.064 1.4728-13.178 1.8679-2.114 1.3176-1.7814 3.5657-0.85266z"/>
    <path d="m620.06 297.36c-1.1037 1.9535-4.102 9.0505-5.0322 8.7404-0.93019-0.31005-3.3438-0.12085-4.6572-2.1516-1.3133-2.0308-4.4811-5.979-2.1704-8.8367 2.3107-2.8577 11.724-1.814 12.945 0.38757 1.221 2.2015 0.0185-0.0931-1.0853 1.8604z"/>
    <path d="m618.51 296.12s-3.3305 0.75617-5.1936-0.77514-3.6581-6.2023-3.1006-8.6817 2.6705-3.9817 4.2633-4.2633 4.8888-0.74972 6.4478 0.29109c1.559 1.0408 1.8817 4.0499 2.4664 6.3752 0.58474 2.3253-1.0683 5.372-2.2479 6.4337-1.1796 1.0618-2.6355 0.62012-2.6355 0.62012"/>
    <path d="m623.78 296.9c2.0122 1.4751 3.049 5.2084 3.0231 7.2864-0.0259 2.0781-0.11128 3.2114-1.8604 4.1858-1.7491 0.97443-5.4131 0.23651-7.3639-1.0077s-3.345-3.3154-3.4882-5.4261 0.85262-5.5036 2.6355-5.6586c1.7829-0.15504 5.0417-0.85501 7.0539 0.62012z"/>
    <path d="m627.11 293.8s8.2166 1.7053 8.5267 1.7053c0.31007 0 1.5845 1.1585 2.4239 2.6314s1.5029 3.487 1.63 4.9253c0.12705 1.4383-2.3002 2.0091-3.1528 2.6293-0.85266 0.62012-3.0943 2.2123-4.8772 1.7472-1.7828-0.4651-3.216-1.3951-4.8606-3.2516s-2.6398-3.4729-2.558-5.4261c0.0818-1.9531 2.8681-4.961 2.8681-4.961"/>
   </g>
   <ellipse cx="624.19" cy="293.33" rx="5.3313" ry="5.4409" fill="#fff4a7" fill-rule="evenodd" stroke="#000" stroke-linejoin="round" stroke-width=".31041"/>
  </g>
  <g transform="matrix(1.3034 .99668 -.99668 1.3034 103.28 -708.5)">
   <path d="m633.76 278.27c1.1138-0.20835 2.0254-1.2442 2.5488-2.2492 1.0372-1.9912 3.4369-8.4865 2.0463-10.249-0.75241-0.95369-3.7074 2.9148-4.906 3.1122-1.3018 0.21443-2.7495 0.68074-3.5662 1.7169-1.2201 1.548-2.1984 4.052-1.2494 5.7795 0.87692 1.5962 3.3363 2.2246 5.1265 1.8897z" fill="url(#linearGradient56203)" stroke="#0a4f00" stroke-width=".35646px"/>
   <path d="m628.64 276.38c1.218-0.33254 2.5884-1.2272 2.8849-2.4545 0.29649-1.2273-1.0219-2.3116-1.4462-3.5008-1.1178-3.1329-2.8885-9.5518-2.8885-9.5518s-6.5542 5.8268-6.94 9.815c-0.16167 1.6712 0.73941 3.5644 2.0657 4.594 1.6902 1.3119 4.26 1.6616 6.3241 1.0981z" fill="url(#linearGradient56205)" stroke="#0a4f00" stroke-width=".35646px"/>
   <path d="m625.29 274.25 0.35561 0.0183 0.45702-8.5141c-0.80291 2.755-0.74142 7.1616-0.81264 8.4959z" color="#000000" fill="#0a4f00" stroke-width="1.3472" style="-inkscape-stroke:none"/>
   <path d="m630.05 276.76-0.23744-0.26537 6.341-5.7001c-1.6407 2.3544-5.1096 5.0725-6.1036 5.9655z" color="#000000" fill="#0a4f00" stroke-width="1.3472" style="-inkscape-stroke:none"/>
   <g fill="#fffff6" stroke="#000" stroke-width=".35646px">
    <path d="m619.44 290.54c-2.799-0.76329-6.7416-6.0528-7.7515-9.1468-1.0099-3.094-0.64228-5.9845 0.5426-7.519s2.5957-0.93085 3.8758-1.3178c1.28-0.3869 2.4524-1.1569 3.7982-1.0077 1.3459 0.14922 3.4106 1.7053 3.7207 1.9379 0.31007 0.23254 1.0546 0.0965 1.6278 2.0154 0.57321 1.9189-0.85269 8.9918-0.93018 9.3793-0.0775 0.38758 0.62012 3.8758 0.23255 3.8758-0.38758 0-2.317 2.5461-5.116 1.7828z"/>
    <path d="m623.39 289.07c-1.2518-2.5596-0.37722-11.139 1.8604-13.565 2.2376-2.4266 4.1221-1.5141 5.9687-1.3177 1.8466 0.19636 3.4492 1.7333 4.5734 2.0929 1.1242 0.35959 1.0852-0.54261 2.0154 0.38757 0.93018 0.93019 3.0727 4.8557 1.8604 7.4414-1.2123 2.5858-6.3102 2.985-8.5267 4.1083-2.2165 1.1232-3.3315 2.5843-4.8059 2.558-1.4744-0.0263-1.6938 0.85425-2.9456-1.7053z"/>
    <path d="m626.34 290.77c0.93922-2.4074 7.248-6.5591 10.387-6.7438 3.139-0.1847 4.3957 1.2992 5.8136 2.8681 1.4179 1.5689 2.0929 5.426 2.1704 5.8136 0.0775 0.38759-1.0077 5.116-1.3178 5.4261-0.31006 0.31007-1.2538 2.7054-2.5286 3.0378-3.5719 0.93142-8.0289-2.459-10.339-3.968-2.31-1.509-2.7548-2.2604-3.4107-3.4107-0.65582-1.1502-1.7144-0.61563-0.77514-3.0231z"/>
    <path d="m627.11 293.8s8.7825 5.0955 10.31 8.5266 0.0775 9.0693-0.38757 9.1468c-0.46507 0.0775-3.0418 3.019-4.4371 2.7089-1.3953-0.31005-3.497 2.0883-5.2523 0.70173s-1.7093-3.5118-2.403-6.5113-2.1077-8.9638-1.1627-11.472c0.94494-2.5085 3.3414-3.1026 3.3331-3.1006-8e-3 1e-3 0 0 0 0"/>
    <path d="m623.78 296.9s6.4172 17.067 0.62012 17.131c-5.7971 0.0639-5.6364-1.1745-7.4455-1.6528-1.8092-0.47833-4.015-2.0865-4.8794-3.9282-0.86432-1.8417-0.62009-3.5657-0.0775-3.7982 0.54262-0.23254 4.6319-7.3091 6.5113-8.5267 1.8794-1.2176 1.695-0.74107 2.6355-0.62012 0.94052 0.12099 2.6355 1.3953 2.6355 1.3953"/>
    <path d="m621.14 295.5s-6.9582 8.3021-10.775 8.4492c-3.8164 0.14702-5.8607-2.7212-7.674-5.116-1.8133-2.3948-1.8393-5.6537-0.6454-8.0762 1.1939-2.4225 1.5596-2.542 4.9087-2.7759 3.3491-0.23389 10.228 0.57936 12.48 2.558"/>
    <path d="m620.44 293.56c-2.4718 1.1053-9.6223 3.4899-12.247 1.5503-2.6251-1.9396 0.62826-4.8843-1.2402-7.1314-1.8685-2.2471-0.39712-6.0462 0.15502-6.2787s4.3841-2.9695 6.2787-3.1781c1.8946-0.2086 3.1995 0.49312 4.2633 1.0852 1.0638 0.59209 0.89518 0.21636 2.0929 2.0154 1.1977 1.799 4.2023 7.1203 3.6432 9.3793-0.55908 2.2591-0.47375 1.4527-2.9456 2.558z"/>
    <path d="m623.39 289.07s-3.6119-6.6274-2.9456-8.9142c0.6663-2.2868 2.1915-2.3867 3.7982-3.1006 1.6067-0.71388 3.7891-1.3724 5.5811-0.85267 1.792 0.51977 3.7982 3.4882 4.1858 3.6432 0.38759 0.15503 2.3362-0.30224 2.1704 2.403-0.16577 2.7052-7.1187 8.2683-9.8444 8.5267s-2.9456-1.7053-2.9456-1.7053"/>
    <path d="m626.34 290.77s4.232-5.3154 6.6663-6.3562c2.4342-1.0408 5.0028-0.94117 6.6663-0.31007 1.6635 0.63112 2.0375 0.70548 2.8681 2.7906 0.83055 2.0851 1.4259 7.4181-0.38758 9.4568-1.8135 2.0388-4.1944 1.4281-6.8213 1.0852-2.6269-0.34287-6.913-2.1025-8.2166-3.6432s-0.77514-3.0231-0.77514-3.0231"/>
    <path d="m625.79 295.97c2.2482 0.9287 5.4758 6.3957 5.7361 9.3018 0.26027 2.9061-2.0929 6.1237-2.403 6.1237-0.31006 0-2.9448 2.9301-4.7284 2.6355s-2.6874-1.0655-3.6432-4.0308c-0.9558-2.9652-0.39513-11.064 1.4728-13.178 1.8679-2.114 1.3176-1.7814 3.5657-0.85266z"/>
    <path d="m620.06 297.36c-1.1037 1.9535-4.102 9.0505-5.0322 8.7404-0.93019-0.31005-3.3438-0.12085-4.6572-2.1516-1.3133-2.0308-4.4811-5.979-2.1704-8.8367 2.3107-2.8577 11.724-1.814 12.945 0.38757 1.221 2.2015 0.0185-0.0931-1.0853 1.8604z"/>
    <path d="m618.51 296.12s-3.3305 0.75617-5.1936-0.77514-3.6581-6.2023-3.1006-8.6817 2.6705-3.9817 4.2633-4.2633 3.4299 0.81656 5.2527 0.74221c1.8228-0.0744 3.0768 3.5988 3.6616 5.9241 0.58474 2.3253-1.0683 5.372-2.2479 6.4337-1.1796 1.0618-2.6355 0.62012-2.6355 0.62012"/>
    <path d="m623.78 296.9c2.0122 1.4751 3.049 5.2084 3.0231 7.2864-0.0259 2.0781-0.11128 3.2114-1.8604 4.1858-1.7491 0.97443-5.4131 0.23651-7.3639-1.0077s-3.345-3.3154-3.4882-5.4261 0.85262-5.5036 2.6355-5.6586c1.7829-0.15504 5.0417-0.85501 7.0539 0.62012z"/>
    <path d="m627.11 293.8s8.2166 1.7053 8.5267 1.7053c0.31007 0 1.5845 1.1585 2.4239 2.6314s1.5029 3.487 1.63 4.9253c0.12705 1.4383-2.3002 2.0091-3.1528 2.6293-0.85266 0.62012-3.0943 2.2123-4.8772 1.7472-1.7828-0.4651-3.216-1.3951-4.8606-3.2516s-2.6398-3.4729-2.558-5.4261c0.0818-1.9531 2.8681-4.961 2.8681-4.961"/>
   </g>
   <ellipse cx="624.19" cy="293.33" rx="5.3313" ry="5.4409" fill="#fff4a7" fill-rule="evenodd" stroke="#000" stroke-linejoin="round" stroke-width=".31041"/>
  </g>
  <path d="m381.87 480.62c2.9573-0.16167 5.8424-0.14383 8.5723 0.26368-0.92528-1.3788-7.4844-1.756-8.5723-0.26368z" color="#000000" style="-inkscape-stroke:none"/>
  <path d="m748.53 504.98c3.4887-0.013 6.8788 0.20645 10.057 0.93079-0.98235-1.8864-8.6639-2.8307-10.057-0.93079z" color="#000000" stroke-width="1.249" style="-inkscape-stroke:none"/>
  <path d="m584.17 275.18c-4.0828-0.0318-4.3994 3.7817-4.0969 8.2531 0.10766 1.5909 0.7131 3.6366 1.4571 5.6296-4.5797-3.759-10.481-6.0092-12.429-3.5015-3.6554 3.7018-0.60119 6.4307 3.5081 9.0282 0.0431 0.0272 0.0876 0.0542 0.13205 0.0812-4.3021 0.67558-7.8008 2.4131-7.7407 4.8434-0.48786 5.1795 3.6042 5.3597 8.4297 4.7705 1.2976-0.15844 2.8826-0.66769 4.4861-1.3144-4.2209 4.4125-7.0333 10.492-4.557 12.64 3.4994 3.8497 6.3889 0.9468 9.2042-3.0165 0.11159-0.15709 0.22155-0.32477 0.3302-0.50025 0.4424 4.3333 1.989 7.9218 4.4195 7.9928 5.1457 0.76635 5.5462-3.3099 5.218-8.1602-0.13722-2.0277-1.0827-4.7941-2.0937-7.2484 4.6628 4.8384 12.267 8.3494 14.531 5.4351 3.6555-3.7018 0.60119-6.4307-3.5081-9.0282-0.23593-0.14913-0.49248-0.2941-0.76559-0.43502 4.244-0.68958 7.6742-2.4161 7.6147-4.8225 0.48786-5.1795-3.6042-5.3597-8.4297-4.7705-1.2444 0.15195-2.7534 0.62711-4.2893 1.2362 4.3499-4.5167 7.0481-10.517 4.5616-12.661-3.4993-3.8497-6.3889-0.94696-9.2041 3.0164-0.39789 0.56013-0.77725 1.2459-1.1355 2.0042-0.22998-4.9271-1.836-9.3004-4.5215-9.3789-0.40201-0.0599-0.77496-0.0901-1.121-0.0928zm2.958 21.384c7e-3 4e-3 0.014 8e-3 0.0212 0.0121-0.0187 0.0249-0.0364 0.0502-0.0519 0.0762 0.0102-0.0294 0.0204-0.0591 0.0307-0.0883zm-0.14802 0.42461c-0.0588 0.38635 0.0865 0.84183 0.25525 1.3052-0.053 0.13059-0.10224 0.2674-0.15043 0.40569-0.17602-5e-3 -0.36463 0.0211-0.55979 0.0637-0.084-0.0553-0.17436-0.1072-0.26982-0.15617 0.0628-0.13576 0.0892-0.28385 0.089-0.44092 0.29451-0.26053 0.47186-0.70831 0.63579-1.1775z" fill="#fff" stroke="#000" stroke-width=".67158"/>
  <g>
   <g stroke-width=".33579">
    <path d="m584.17 274.8c-0.21516-2e-3 -0.42149 6e-3 -0.61895 0.0252-0.53537 0.0508-1.0087 0.17429-1.4251 0.36717-0.83288 0.38576-1.4165 1.0491-1.793 1.8692-0.75305 1.6401-0.75149 3.9085-0.58633 6.3492 0.0955 1.4115 0.55625 3.1216 1.1546 4.8369l0.97433 0.70553c-0.74694-1.9993-1.3544-4.0477-1.4586-5.5878-0.16306-2.4096-0.12558-4.6048 0.52595-6.0238 0.32576-0.70949 0.78657-1.2246 1.4657-1.5391 0.33959-0.1573 0.73928-0.2645 1.2095-0.30887v-1.8e-4c0.47016-0.0444 1.0109-0.0263 1.6323 0.0663l0.0196 4e-3 0.0198 5.7e-4c1.087 0.0318 2.0114 0.88129 2.7368 2.3557 0.72539 1.4745 1.21 3.5298 1.3981 5.7615 0.37272 4.4219-0.44045 9.5325-2.5334 12.288-0.3403 0.10329-0.67688 0.21542-0.96304 0.27139l-0.33387 0.70711c0.0981-3e-5 0.19563-7e-3 0.29083-0.0198 0.44994-0.0609 0.89716-0.22357 1.3111-0.34618l0.10291-0.0302 0.0663-0.0847c2.3325-2.9874 3.1148-8.2572 2.7283-12.842-0.19324-2.2926-0.68304-4.4131-1.4645-6.0016-0.77958-1.5846-1.8912-2.6822-3.3099-2.7288-0.40742-0.0594-0.79063-0.0909-1.1492-0.094z" color="#000000" style="-inkscape-stroke:none"/>
    <path d="m571.74 284.12c-1.2066-6e-3 -2.2352 0.34425-2.8909 1.1805-0.93161 0.94902-1.4668 1.8626-1.6455 2.7559-0.18011 0.90003 0.0108 1.7627 0.45063 2.5506 0.85039 1.5235 2.5919 2.824 4.5751 4.0898 0.29789-0.0152 0.55049-0.16146 0.99164-0.19883-0.21604-0.11463-0.23987-0.11876-0.42839-0.23792-2.0415-1.2904-3.791-2.6169-4.552-3.9803-0.38051-0.68169-0.52532-1.3575-0.37845-2.0915 0.14688-0.73394 0.5986-1.543 1.4815-2.4371l0.0144-0.0137 0.0118-0.0158c0.50037-0.6441 1.3183-0.9429 2.3787-0.93199 0.35346 4e-3 0.73404 0.0416 1.1386 0.11279 1.6184 0.28457 3.5636 1.1061 5.4762 2.2712 3.7896 2.3086 7.4357 5.9811 8.4254 9.297-0.0938 0.26815-0.1819 0.53734-0.27659 0.76975 0.28978 0.0726 0.52692 0.1328 0.65922 0.16815 0.10936-0.27555 0.1983-0.55911 0.29221-0.82181l0.0361-0.10169-0.0295-0.10359c-1.0351-3.646-4.8277-7.3871-8.7573-9.7811-1.9648-1.197-3.9655-2.053-5.7091-2.3596-0.43589-0.0766-0.85996-0.1187-1.2638-0.12077zm15.232 13.725c-0.13664 0.16474-0.30155 0.36824-0.47146 0.57956 0.19774-0.15442 0.35261-0.36016 0.46903-0.57488 1e-3 -2e-3 2e-3 -3e-3 2e-3 -4e-3z" color="#000000" style="-inkscape-stroke:none"/>
    <path d="m576.98 293.97c-0.11122-1e-3 -0.22242-1e-3 -0.33367 0-1.1868 8e-3 -2.3732 0.0961-3.5126 0.25438-2.2788 0.31655-4.3696 0.91992-5.9136 1.7859-1.54 0.86374-2.5755 2.0326-2.5459 3.4515-0.1203 1.3231 0.0429 2.3688 0.46956 3.173 0.43009 0.81087 1.1237 1.3583 1.9629 1.6901 1.6783 0.66355 3.9432 0.53976 6.3714 0.24328 1.2507-0.15271 2.7226-0.60813 4.217-1.1932l0.7864-1.0529c-1.8225 0.77325-3.6609 1.4052-5.0846 1.579-2.3974 0.29272-4.5909 0.3735-6.0429-0.20058-0.72602-0.28705-1.2658-0.71932-1.6165-1.3806-0.35073-0.66124-0.51276-1.5737-0.39494-2.8248l2e-3 -0.0196-1e-3 -0.0198c-0.0269-1.0871 0.77174-2.0562 2.205-2.86 1.4332-0.8038 3.4592-1.3983 5.6775-1.7064 1.1091-0.15405 2.2667-0.23587 3.4234-0.24015 3.4273-0.0126 6.8417 0.65591 8.9834 2.1072 0.36747 2.062 2.1606 0.68231 0.47146-0.50044-2.2587-1.5752-5.6764-2.2681-9.1247-2.2865z" color="#000000" style="-inkscape-stroke:none"/>
    <path d="m585.31 297.79-0.10499 0.0236c-3.6965 0.83704-7.6372 4.4226-10.24 8.2175-1.3012 1.8974-2.2631 3.8494-2.6632 5.5739-0.39899 1.7196-0.23239 3.2718 0.83551 4.2058 0.89697 0.98053 1.7801 1.5646 2.662 1.7911 0.88901 0.22836 1.7604 0.0845 2.5709-0.31217 1.621-0.7934 3.0554-2.5513 4.472-4.5456 0.0539-0.0759 0.10724-0.15447 0.16034-0.23427l-0.23547-0.89381c-0.15504 0.26664-0.31272 0.51427-0.4725 0.7392-1.3986 1.969-2.8171 3.6447-4.2195 4.3311-0.70122 0.34322-1.3835 0.4512-2.1085 0.26497-0.72496-0.18622-1.5086-0.68077-2.3538-1.6106l-0.0137-0.0151-0.015-0.0132c-0.82157-0.71246-0.99972-1.9553-0.62832-3.556 0.37139-1.6007 1.297-3.4987 2.5636-5.3457 2.5095-3.6594 6.3734-7.1015 9.7377-7.9112h1.7e-4c0.30446 0.12531 0.61112 0.24287 0.85911 0.3689 0.0173-0.0372 0.0297-0.0594 0.035-0.0621 0.0751-0.0375 0.73056-0.0285 0.95664-0.0243-0.13208-0.15585-0.29478-0.28512-0.46453-0.38938-0.38689-0.23763-0.83613-0.39431-1.2343-0.56135zm1.9252 1.1676 0.12633 0.87282c0.0179-0.0863 0.0477-0.22853 0.0477-0.22853l8e-3 -0.0439-3e-3 -0.0439c-0.0138-0.20977-0.0805-0.39458-0.17994-0.55649z" color="#000000" style="-inkscape-stroke:none"/>
    <path d="m586.46 298.39c-0.35632 0.0768-0.70734 0.19914-1.0368 0.29671l-0.1029 0.03-0.0663 0.0847c-2.3325 2.9874-3.1148 8.2574-2.7283 12.843 0.19324 2.2926 0.68373 4.413 1.4652 6.0014 0.7796 1.5846 1.8912 2.6824 3.31 2.729 1.3143 0.19129 2.3667 0.0841 3.1926-0.29845 0.83287-0.38578 1.4172-1.0491 1.7937-1.8692 0.75305-1.6401 0.75149-3.9084 0.58632-6.349-0.1456-2.1517-1.1381-4.9961-2.1777-7.4963l0.18654 0.77095-1.4295-1.9629c0.0958 0.21582 0.19226 0.43493 0.28962 0.66077 1.141 2.6468 2.3121 5.8768 2.4607 8.0728 0.16307 2.4096 0.12489 4.6048-0.52664 6.0238-0.32576 0.7095-0.78587 1.2246-1.465 1.5392-0.67918 0.31456-1.5989 0.42786-2.8418 0.24275l-0.0197-4e-3 -0.0198-5.8e-4c-1.087-0.0317-2.0121-0.88127-2.7375-2.3557-0.7254-1.4744-1.2094-3.5298-1.3976-5.7615-0.37271-4.4219 0.43995-9.5325 2.5329-12.288 0.25714-0.078 0.5121-0.1609 0.7451-0.22107l-0.11712-0.16085z" color="#000000" style="-inkscape-stroke:none"/>
    <path d="m587.96 296.96c-0.38871 0.12813-0.66396 0.4422-0.84609 0.77808-0.21643 0.39913-0.34922 0.85651-0.49455 1.2631l-0.0361 0.10099 0.0295 0.10376c1.0351 3.646 4.8277 7.3876 8.7573 9.7816 1.9648 1.197 3.9655 2.0525 5.7091 2.359 1.7383 0.30565 3.2794 0.0564 4.1547-1.0597 0.9316-0.94902 1.4668-1.8626 1.6455-2.7559 0.18012-0.90003-0.0107-1.7627-0.45046-2.5506-0.87962-1.5759-2.7119-2.9132-4.7797-4.2202-0.25628-0.162-0.5337-0.31847-0.82822-0.46973l-0.38818 0.38835-0.52802-0.0805c0.51581 0.23261 0.98427 0.47617 1.3856 0.72983 2.0415 1.2904 3.7912 2.6162 4.5522 3.9796 0.38052 0.6817 0.52463 1.3575 0.37776 2.0915-0.14688 0.73394-0.59859 1.543-1.4815 2.4371l-0.0139 0.0144-0.0123 0.0157c-0.66715 0.85879-1.8982 1.1038-3.5166 0.8192-1.6184-0.28456-3.5636-1.1068-5.4762-2.2719-3.7896-2.3086-7.4358-5.9811-8.4256-9.297 0.13615-0.38912 0.25996-0.78203 0.40986-1.0585 0.14262-0.26303 0.27818-0.40353 0.47338-0.45724z" color="#000000" style="-inkscape-stroke:none"/>
    <path d="m602.9 290.44c-0.96448 0.0123-1.9958 0.10905-3.0582 0.23877-0.98795 0.12062-2.1144 0.43072-3.2803 0.84332l-1.1857 1.1792c1.6426-0.66956 3.264-1.1995 4.5478-1.3562 1.1987-0.14636 2.3459-0.23943 3.3755-0.22437h1.6e-4c1.0296 0.0151 1.9412 0.13861 2.6672 0.42565 0.72602 0.28705 1.2658 0.71862 1.6165 1.3799 0.35073 0.66124 0.51278 1.5737 0.39494 2.8248l-2e-3 0.0197 5.7e-4 0.0203c0.0269 1.0871-0.77174 2.0557-2.205 2.8595-1.4332 0.80381-3.4592 1.399-5.6775 1.7071-4.3952 0.61053-9.5423 0.0741-12.407-1.8671-0.13947-0.38375-0.29076-0.76222-0.35086-1.0696l-0.63267 0.24936c0.0935 0.39978 0.25701 0.79126 0.38731 1.1574l0.0361 0.10168 0.0885 0.0609c3.1087 2.1681 8.4134 2.6656 12.971 2.0325 2.2789-0.31654 4.3696-0.92061 5.9136-1.7866 1.5401-0.86375 2.5755-2.0326 2.5459-3.4516 0.1203-1.323-0.0437-2.3688-0.47025-3.173-0.43009-0.81087-1.123-1.3583-1.9622-1.6901-0.83918-0.33178-1.8252-0.46649-2.9048-0.48135-0.13494-2e-3 -0.27138-2e-3 -0.40917 0z" color="#000000" style="-inkscape-stroke:none"/>
   </g>
   <path d="m600.38 279.39-0.43875 0.50827c0.79526 0.68558 1.0054 1.8444 0.70502 3.348-0.30037 1.5036-1.1204 3.2987-2.2928 5.0866-2.3448 3.576-6.1004 7.1242-9.7654 8.5009-0.31269 0.11746-0.51578 0.13398-0.63419 0.11871-0.1184-0.0153-0.16305-0.049-0.21249-0.10165-0.0494-0.0527-0.0914-0.13141-0.14035-0.22692-0.0245-0.0478-0.0484-0.0992-0.0997-0.16527-0.0513-0.066-0.16711-0.17173-0.32924-0.17511l-0.0144 0.67157c-0.10794-2e-3 -0.17846-0.0746-0.18626-0.0846-8e-3 -0.01 0.0102 0.017 0.0322 0.0597 0.0438 0.0854 0.11311 0.23625 0.24856 0.38039s0.3492 0.27385 0.61583 0.30824c0.26662 0.0344 0.57582-0.0132 0.9562-0.15608 3.8761-1.456 7.6783-5.0824 10.091-8.7613 1.2062-1.8395 2.0639-3.6918 2.3899-5.3234 0.32591-1.6316 0.11026-3.0959-0.92474-3.9881z" color="#000000" stroke-width=".33579" style="-inkscape-stroke:none"/>
  </g>
  <circle cx="586.31" cy="298.12" r="2.3885" fill="#e9e7e7" fill-rule="evenodd" style="paint-order:fill markers stroke"/>
  <ellipse cx="586.35" cy="298.36" rx="1.7621" ry="1.8085" fill="#fff000" fill-rule="evenodd" style="paint-order:fill markers stroke"/>
  <g fill="#fff">
   <ellipse cx="586.34" cy="298.41" rx="1.1667" ry="1.1462" fill-rule="evenodd" style="paint-order:fill markers stroke"/>
   <path transform="matrix(.053476 0 0 .053476 508.4 204.38)" d="m1482.5 1778.7c-2.1718 2.601-12.847-4.5994-15.849-3.0275s-3.1649 14.448-6.5398 14.751c-3.375 0.3035-5.8323-12.337-9.0665-13.348-3.2341-1.0112-12.454 7.9781-15.055 5.8063s4.5994-12.847 3.0275-15.849-14.448-3.1649-14.751-6.5398c-0.3035-3.375 12.337-5.8323 13.348-9.0665 1.0112-3.2341-7.9782-12.454-5.8063-15.055 2.1718-2.601 12.847 4.5994 15.849 3.0275s3.1649-14.448 6.5398-14.751 5.8323 12.337 9.0664 13.348c3.2342 1.0112 12.454-7.9782 15.055-5.8063 2.601 2.1718-4.5994 12.847-3.0275 15.849s14.448 3.1649 14.751 6.5398-12.337 5.8323-13.348 9.0664c-1.0112 3.2342 7.9782 12.454 5.8063 15.055z" fill-rule="evenodd" style="paint-order:fill markers stroke"/>
   <path d="m715.64 329.64c-6.2215-0.0484-6.704 5.7627-6.243 12.576 0.16405 2.4242 1.0866 5.5416 2.2203 8.5786-6.9787-5.7281-15.971-9.157-18.939-5.3357-5.5703 5.6409-0.91612 9.7994 5.3458 13.758 0.0656 0.0414 0.13353 0.0826 0.20122 0.12375-6.5557 1.0295-11.887 3.6772-11.796 7.3805-0.74341 7.8927 5.4921 8.1673 12.846 7.2694 1.9773-0.24142 4.3926-1.0174 6.8361-2.003-6.432 6.724-10.718 15.989-6.9442 19.261 5.3324 5.8663 9.7357 1.4428 14.026-4.5967 0.17005-0.23938 0.3376-0.4949 0.50318-0.76231 0.67414 6.6032 3.031 12.072 6.7345 12.18 7.8412 1.1678 8.4515-5.0438 7.9514-12.435-0.2091-3.0899-1.6498-7.3054-3.1905-11.045 7.1054 7.373 18.693 12.723 22.143 8.2822 5.5703-5.6409 0.91612-9.7993-5.3458-13.757-0.35952-0.22726-0.75045-0.44817-1.1666-0.66292 6.4671-1.0508 11.694-3.6818 11.604-7.3488 0.7434-7.8928-5.4922-8.1673-12.846-7.2694-1.8963 0.23155-4.1957 0.95562-6.5362 1.8837 6.6285-6.8828 10.74-16.027 6.9511-19.293-5.3324-5.8663-9.7357-1.443-14.026 4.5964-0.60632 0.85355-1.1844 1.8985-1.7304 3.054-0.35045-7.5082-2.7977-14.172-6.89-14.292-0.6126-0.0912-1.1809-0.13734-1.7082-0.14145zm4.5076 32.586c0.0108 7e-3 0.0213 0.0125 0.0323 0.0185-0.0285 0.038-0.0554 0.0765-0.0791 0.11607 0.0156-0.0448 0.0311-0.09 0.0468-0.13459zm-0.22556 0.64704c-0.0896 0.58873 0.13187 1.2828 0.38896 1.989-0.0807 0.19899-0.1558 0.40748-0.22923 0.6182-0.26823-8e-3 -0.55565 0.0322-0.85303 0.0971-0.12796-0.0843-0.26571-0.16335-0.41117-0.23797 0.0957-0.20689 0.13586-0.43255 0.13563-0.67189 0.44878-0.39702 0.71903-1.0794 0.96884-1.7944z" stroke="#000" stroke-width="1.0234"/>
  </g>
  <g>
   <g stroke-width=".51168">
    <path d="m715.64 329.06c-0.32786-3e-3 -0.64227 0.01-0.94317 0.0383-0.81582 0.0774-1.5371 0.26558-2.1717 0.55951-1.2692 0.58784-2.1585 1.5987-2.7322 2.8483-1.1475 2.4993-1.1452 5.956-0.89348 9.6751 0.14556 2.1509 0.84763 4.7568 1.7594 7.3707l1.4847 1.0751c-1.1382-3.0466-2.0639-6.168-2.2227-8.5148-0.24848-3.6719-0.19136-7.017 0.80146-9.1793 0.49641-1.0812 1.1986-1.866 2.2336-2.3454 0.51748-0.23969 1.1265-0.40306 1.843-0.47069v-2.5e-4c0.71646-0.0676 1.5404-0.04 2.4874 0.10101l0.0299 6e-3 0.0301 8.6e-4c1.6564 0.0484 3.065 1.343 4.1704 3.5898 1.1054 2.2468 1.8438 5.3789 2.1304 8.7795 0.56797 6.7383-0.67118 14.526-3.8605 18.725-0.51856 0.1574-1.0315 0.32828-1.4675 0.41356l-0.50876 1.0775c0.14942-4e-5 0.2981-0.0105 0.44317-0.0301 0.68564-0.0927 1.3671-0.34068 1.998-0.52752l0.1568-0.046 0.10101-0.12904c3.5543-4.5522 4.7464-12.583 4.1575-19.57-0.29447-3.4935-1.0408-6.7249-2.2317-9.1455-1.188-2.4147-2.8818-4.0872-5.0438-4.1583-0.62084-0.0904-1.2048-0.13851-1.7512-0.1433z" color="#000000" style="-inkscape-stroke:none"/>
    <path d="m696.71 343.26c-1.8386-9e-3 -3.406 0.52457-4.4052 1.7988-1.4196 1.4462-2.2351 2.8383-2.5075 4.1995-0.27445 1.3715 0.0164 2.686 0.6867 3.8867 1.2958 2.3216 3.9497 4.3033 6.9717 6.2321 0.45394-0.0232 0.83886-0.24605 1.5111-0.30299-0.32921-0.17467-0.36552-0.18097-0.6528-0.36254-3.1109-1.9664-5.7768-3.9877-6.9365-6.0653-0.57984-1.0388-0.80051-2.0686-0.5767-3.187 0.22382-1.1184 0.91216-2.3513 2.2576-3.7138l0.0219-0.0209 0.0179-0.0241c0.76248-0.98149 2.0088-1.4368 3.6247-1.4202 0.53862 6e-3 1.1186 0.0635 1.7351 0.17187 2.4662 0.43365 5.4304 1.6855 8.3448 3.461 5.7747 3.518 11.331 9.1142 12.839 14.167-0.14296 0.40862-0.27718 0.81882-0.42148 1.173 0.44157 0.11069 0.80294 0.20236 1.0045 0.25622 0.16664-0.41988 0.30218-0.85197 0.44528-1.2523l0.0549-0.15495-0.0449-0.15786c-1.5773-5.5559-7.3566-11.257-13.345-14.905-2.9941-1.824-6.0428-3.1284-8.6997-3.5956-0.66422-0.1168-1.3104-0.18089-1.9258-0.18405zm23.211 20.914c-0.20822 0.25104-0.45951 0.56114-0.71844 0.88316 0.30132-0.23532 0.53732-0.54884 0.71474-0.87603 2e-3 -3e-3 3e-3 -5e-3 4e-3 -7e-3z" color="#000000" style="-inkscape-stroke:none"/>
    <path d="m704.69 358.27c-0.16949-2e-3 -0.33893-2e-3 -0.50847 0-1.8085 0.0129-3.6164 0.14647-5.3526 0.38764-3.4726 0.48237-6.6586 1.4018-9.0114 2.7214-2.3468 1.3162-3.9247 3.0974-3.8796 5.2596-0.18331 2.0161 0.0654 3.6097 0.71553 4.8352 0.65539 1.2356 1.7124 2.0699 2.9911 2.5754 2.5575 1.0112 6.0088 0.82251 9.709 0.37072 1.9058-0.2327 4.1488-0.92669 6.4259-1.8182l1.1984-1.6045c-2.7772 1.1783-5.5787 2.1413-7.748 2.4062-3.6532 0.44606-6.9958 0.56915-9.2084-0.30566-1.1063-0.43741-1.9289-1.0961-2.4633-2.1037-0.53445-1.0076-0.78137-2.3981-0.60182-4.3045l4e-3 -0.0299-2e-3 -0.0301c-0.041-1.6566 1.176-3.1333 3.36-4.3582 2.184-1.2249 5.2713-2.1308 8.6516-2.6003 1.69-0.23475 3.454-0.35943 5.2167-0.36596 5.2227-0.0193 10.426 0.99951 13.689 3.2111 0.55997 3.1422 3.2924 1.0397 0.71842-0.76259-3.4419-2.4004-8.6498-3.4562-13.905-3.4842z" color="#000000" style="-inkscape-stroke:none"/>
    <path d="m717.38 364.09-0.15999 0.036c-5.6329 1.2755-11.638 6.7393-15.603 12.522-1.9828 2.8914-3.4486 5.8658-4.0583 8.4937-0.60798 2.6204-0.35412 4.9857 1.2732 6.409 1.3668 1.4942 2.7126 2.3842 4.0565 2.7294 1.3547 0.34799 2.6826 0.12882 3.9176-0.4757 2.4701-1.209 4.6559-3.8877 6.8146-6.9267 0.0822-0.11567 0.16342-0.23538 0.24434-0.35698l-0.35882-1.362c-0.23626 0.40632-0.47654 0.78366-0.72002 1.1264-2.1313 3.0004-4.2928 5.5539-6.4299 6.5999-1.0685 0.523-2.1082 0.68755-3.213 0.40378-1.1047-0.28379-2.2988-1.0374-3.5869-2.4544l-0.0209-0.0229-0.023-0.0201c-1.2519-1.0857-1.5234-2.9795-0.95746-5.4188 0.56594-2.4392 1.9765-5.3315 3.9065-8.146 3.824-5.5764 9.712-10.822 14.839-12.055h2.5e-4c0.46396 0.19095 0.93125 0.3701 1.3092 0.56215 0.0264-0.0566 0.0452-0.0905 0.0533-0.0947 0.11442-0.0572 1.1133-0.0434 1.4578-0.037-0.20126-0.2375-0.44919-0.43448-0.70786-0.59335-0.58955-0.36211-1.2741-0.60087-1.8808-0.8554zm2.9337 1.7793 0.19251 1.33c0.0273-0.13149 0.0727-0.34823 0.0727-0.34823l0.0129-0.0668-5e-3 -0.0669c-0.0211-0.31966-0.12263-0.60129-0.27421-0.848z" color="#000000" style="-inkscape-stroke:none"/>
    <path d="m719.13 365c-0.54297 0.11709-1.0779 0.30347-1.5799 0.45216l-0.15681 0.0458-0.101 0.12904c-3.5544 4.5522-4.7464 12.583-4.1575 19.57 0.29447 3.4935 1.0419 6.7246 2.2328 9.1452 1.188 2.4147 2.8818 4.0875 5.0438 4.1585 2.0028 0.2915 3.6065 0.1281 4.865-0.4548 1.2692-0.58785 2.1595-1.5987 2.7333-2.8483 1.1475-2.4993 1.1452-5.9557 0.89347-9.6749-0.22188-3.2789-1.7343-7.6133-3.3185-11.423l0.28424 1.1748-2.1783-2.9911c0.14595 0.32888 0.29297 0.66277 0.44133 1.0069 1.7388 4.0333 3.5233 8.9553 3.7497 12.302 0.24848 3.6719 0.19031 7.017-0.80251 9.1793-0.49641 1.0812-1.1976 1.866-2.2325 2.3454-1.035 0.47935-2.4364 0.65199-4.3304 0.36991l-0.0299-6e-3 -0.0301-8.8e-4c-1.6564-0.0483-3.0661-1.3429-4.1715-3.5898-1.1054-2.2468-1.843-5.3789-2.1296-8.7795-0.56796-6.7383 0.67041-14.526 3.8598-18.725 0.39184-0.11892 0.78036-0.24517 1.1354-0.33686l-0.17848-0.24512z" color="#000000" style="-inkscape-stroke:none"/>
    <path d="m721.41 362.82c-0.59233 0.19527-1.0118 0.67385-1.2893 1.1857-0.3298 0.6082-0.53215 1.3052-0.7536 1.9247l-0.055 0.1539 0.0449 0.1581c1.5773 5.5559 7.3566 11.258 13.345 14.906 2.9941 1.824 6.0428 3.1276 8.6997 3.5948 2.6489 0.46574 4.9973 0.0859 6.331-1.6148 1.4196-1.4462 2.2351-2.8383 2.5075-4.1995 0.27446-1.3715-0.0162-2.686-0.68643-3.8867-1.3404-2.4014-4.1325-4.4392-7.2834-6.4309-0.39052-0.24687-0.81327-0.4853-1.2621-0.7158l-0.59152 0.59178-0.80462-0.1227c0.78602 0.35446 1.4999 0.72561 2.1114 1.1122 3.1109 1.9664 5.7771 3.9866 6.9368 6.0642 0.57985 1.0388 0.79946 2.0686 0.57565 3.187-0.22382 1.1184-0.91216 2.3513-2.2576 3.7138l-0.0212 0.0219-0.0188 0.024c-1.0166 1.3086-2.8925 1.682-5.3587 1.2483-2.4662-0.43363-5.4304-1.6865-8.3448-3.462-5.7747-3.518-11.331-9.1142-12.839-14.167 0.20747-0.59295 0.39612-1.1917 0.62456-1.6129 0.21733-0.40081 0.4239-0.61491 0.72135-0.69675z" color="#000000" style="-inkscape-stroke:none"/>
    <path d="m744.19 352.89c-1.4697 0.0187-3.0413 0.16619-4.6601 0.36385-1.5055 0.18381-3.2219 0.65634-4.9986 1.2851l-1.8068 1.797c2.5031-1.0203 4.9738-1.8278 6.9302-2.0667 1.8266-0.22304 3.5748-0.36486 5.1438-0.34192h2.5e-4c1.569 0.0229 2.958 0.21123 4.0644 0.64864 1.1063 0.4374 1.9289 1.0951 2.4633 2.1027 0.53445 1.0076 0.78138 2.3981 0.60181 4.3045l-4e-3 0.0299 8.8e-4 0.031c0.041 1.6566-1.176 3.1325-3.36 4.3574s-5.2713 2.1318-8.6516 2.6014c-6.6976 0.93034-14.541 0.11293-18.906-2.8452-0.21254-0.58478-0.44307-1.1615-0.53466-1.6299l-0.96408 0.37998c0.14249 0.6092 0.39164 1.2058 0.59019 1.7637l0.055 0.15495 0.13484 0.0928c4.7372 3.3038 12.821 4.0619 19.766 3.0971 3.4726-0.48236 6.6586-1.4029 9.0114-2.7224 2.3468-1.3162 3.9247-3.0974 3.8796-5.2596 0.18331-2.0161-0.0666-3.6097-0.7166-4.8352-0.65537-1.2356-1.7113-2.0699-2.99-2.5754-1.2788-0.50558-2.7813-0.71085-4.4264-0.7335-0.20563-3e-3 -0.41354-3e-3 -0.62351 0z" color="#000000" style="-inkscape-stroke:none"/>
   </g>
   <path d="m740.34 336.05-0.66858 0.77453c1.2118 1.0447 1.532 2.8105 1.0743 5.1018-0.45772 2.2913-1.7073 5.0266-3.4938 7.7512-3.5732 5.4492-9.296 10.856-14.881 12.954-0.4765 0.17897-0.78598 0.20415-0.96641 0.18088-0.18043-0.0233-0.24846-0.0747-0.32379-0.1549-0.0753-0.0803-0.13934-0.20025-0.21388-0.34579-0.0373-0.0728-0.0737-0.15123-0.1519-0.25184-0.0782-0.1006-0.25465-0.26169-0.5017-0.26683l-0.022 1.0234c-0.16448-4e-3 -0.27194-0.11362-0.28382-0.12892-0.0119-0.0153 0.0156 0.0259 0.049 0.0909 0.0668 0.13022 0.17237 0.36 0.37876 0.57966 0.20641 0.21964 0.53213 0.4173 0.93843 0.4697 0.40629 0.0524 0.87746-0.0201 1.4571-0.23785 5.9066-2.2187 11.7-7.7447 15.376-13.351 1.838-2.803 3.1451-5.6258 3.6418-8.112 0.49665-2.4862 0.16802-4.7176-1.4091-6.0773z" color="#000000" stroke-width=".51168" style="-inkscape-stroke:none"/>
  </g>
  <g fill-rule="evenodd">
   <circle cx="718.9" cy="364.59" r="3.6396" fill="#e9e7e7" style="paint-order:fill markers stroke"/>
   <ellipse cx="718.96" cy="364.96" rx="2.6851" ry="2.7558" fill="#fff000" style="paint-order:fill markers stroke"/>
   <ellipse cx="718.95" cy="365.04" rx="1.7779" ry="1.7466" fill="#fff" style="paint-order:fill markers stroke"/>
   <path transform="matrix(.081489 0 0 .081489 600.18 221.75)" d="m1482.5 1778.7c-2.1718 2.601-12.847-4.5994-15.849-3.0275s-3.1649 14.448-6.5398 14.751c-3.375 0.3035-5.8323-12.337-9.0665-13.348-3.2341-1.0112-12.454 7.9781-15.055 5.8063s4.5994-12.847 3.0275-15.849-14.448-3.1649-14.751-6.5398c-0.3035-3.375 12.337-5.8323 13.348-9.0665 1.0112-3.2341-7.9782-12.454-5.8063-15.055 2.1718-2.601 12.847 4.5994 15.849 3.0275s3.1649-14.448 6.5398-14.751 5.8323 12.337 9.0664 13.348c3.2342 1.0112 12.454-7.9782 15.055-5.8063 2.601 2.1718-4.5994 12.847-3.0275 15.849s14.448 3.1649 14.751 6.5398-12.337 5.8323-13.348 9.0664c-1.0112 3.2342 7.9782 12.454 5.8063 15.055z" fill="#fff" style="paint-order:fill markers stroke"/>
  </g>
 </g>
</svg>
