<?xml version="1.0" encoding="UTF-8"?>
<svg id="svg5" width="1200mm" height="1200mm" version="1.1" viewBox="0 0 1200 1200" xmlns="http://www.w3.org/2000/svg" xmlns:xlink="http://www.w3.org/1999/xlink">
 <defs id="defs77">
  <filter id="filter48371-9-4" x="-.017013" y="-.025542" width="1.0349" height="1.0386" color-interpolation-filters="sRGB">
   <feGaussianBlur id="feGaussianBlur13-9" stdDeviation="0.041927809"/>
  </filter>
  <filter id="filter21173-6" x="-.0011081" y="-.00067677" width="1.0022" height="1.0014" color-interpolation-filters="sRGB">
   <feGaussianBlur id="feGaussianBlur21175-9" stdDeviation="0.047355852"/>
  </filter>
 </defs>
 <g id="layer60" transform="translate(19.4 11.241)">
  <g id="layer17">
   <g id="layer228" transform="translate(-19.4 -11.241)">
    <path id="path19-9" d="m533.86 849.53 0.13184 162.55c8.441 3.7934 15.156 4.8525 24.161 4.4321l17.181-2.6456 11.174-109.72 9.9208 110.27c20.611 6.2884 29.908 2.1946 46.76-0.7997l-8.0351-164.8s-11.332 0.68335-48.824 0.92175c-44.492 0.28277-52.469-0.20937-52.469-0.20937z" fill="#ecbf83" stroke="#000" stroke-width="2.1767"/>
    <path id="path21038-8" d="m636.1 872.16-70.894-0.37939c-0.62919 0.52526-0.35464 1.565-0.48559 2.1534-0.33215 1.4924-0.20146 2.5956-1.3907 3.5775-12.197 10.071-11.011 8.1317-3.7865 0.49109 1.4166-1.4982 1.7053-4.463 3.6611-6.2327l-1.9879-0.0106c-12.561 0.63134-19.181 4.942-18.267 13.919l1.0306 11.898s9.2526 6.5426 12.382 8.8874c-3.0857-1.035-6.2386-2.7984-9.1819-2.2886-3.1745 1.382-2.2081 2.2687-1.4157 4.9033 1.1948 3.9579 5.1509 6.9973 6.9536 9.8694 0.42533 0.67766-1.6504 1.8086-1.1824 2.4101 0.98514 1.2662 2.0685 2.3569 3.2658 3.2442-2.3913 2.9656-5.3513 3.2121-8.3745 3.1562-1.7871-0.28838-2.1198 2.1138-2.3983 3.4659-0.62371 3.1215 0.11642 6.231 2.049 9.3301 4.3646 6.1153 6.7168 4.2611 12.286 5.0464-2.4421 0.57734-12.081 16.634-13.182 29.565-1.3217 15.518 6.0236 28.456 4.2495 30.475l-0.11718 1.7209-2.9173-0.7682c-1.0581 3.0015-0.0715 5.7338 1.1233 7.3988 1.6627 1.2933 3.8648 0.92 5.8322 1.2718l-2.6376 0.9492 1.2022 1.3124-18.081-3.203-0.29784-10.19 0.8723-154.16 100.73-0.37744z" filter="url(#filter21173-6)" opacity=".054878"/>
    <g id="g43-6-0" transform="matrix(4.1461 0 0 4.1461 132.62 58.044)" stroke="#000" stroke-width=".26458px">
     <g id="g37-6-7" transform="translate(.2152 -.49518)" fill="none">
      <g id="g29-5-5">
       <path id="path23-1" d="m103.91 192.75s0.22989 5.2894-7.3734 3.1969"/>
       <path id="path25-21" d="m113.62 192.56s-0.1213 5.2265 7.482 3.134"/>
       <path id="path27-54" transform="matrix(.063815 0 0 .063815 -32.202 -13.505)" d="m2215.8 3214.7-4.1621 0.031 0.9844 135.07c-2.3918-0.7725-5.0365-1.4655-6.1524-2.4472-1.632-1.4354-2.9353-4.3566-3.7636-12.029-1.6567-15.346-1.2381-48.384-1.3164-120.62h-4.1622c0.078 72.215-0.3823 105.04 1.3477 121.08 0.865 8.0179 2.3268 12.19 5.1719 14.691 2.5102 2.2067 5.3878 2.719 8.8398 3.8535l-0.2656 67.721 8.8281 0.2168-4.3125-67.65z" color="#000000" fill="#000" stroke="none" style="-inkscape-stroke:none"/>
      </g>
      <path id="path33-4-2" d="m96.609 192.57 11.343 0.10336h0.12919"/>
      <path id="path35-5-2" d="m109.11 192.6 11.834-0.41341"/>
     </g>
     <path id="path39-4-5" d="m109.45 204.11-3.8718 0.11007 2.7388 0.64597-0.0387 7.8677 1.2038-8.6794 0.93432 6.186-0.3036-5.6586 3.1652-0.93017z" filter="url(#filter48371-9-4)" opacity=".054878"/>
    </g>
   </g>
  </g>
 </g>
</svg>
