<?xml version="1.0" encoding="UTF-8"?>
<svg id="svg5" width="1200mm" height="1200mm" version="1.1" viewBox="0 0 1200 1200" xmlns="http://www.w3.org/2000/svg" xmlns:xlink="http://www.w3.org/1999/xlink">
 <defs id="defs77">
  <filter id="filter20657" x="-.00058931" y="-.00046941" width="1.0012" height="1.0009" color-interpolation-filters="sRGB">
   <feGaussianBlur id="feGaussianBlur20659" stdDeviation="0.01637632"/>
  </filter>
  <filter id="filter20661" x="-.00041586" y="-.0007105" width="1.0008" height="1.0014" color-interpolation-filters="sRGB">
   <feGaussianBlur id="feGaussianBlur20663" stdDeviation="0.01637632"/>
  </filter>
  <filter id="filter24615" x="-.00092954" y="-.00080835" width="1.0019" height="1.0016" color-interpolation-filters="sRGB">
   <feGaussianBlur id="feGaussianBlur24617" stdDeviation="0.0098286337"/>
  </filter>
 </defs>
 <g id="layer60" transform="translate(19.4 11.241)">
  <g id="layer214">
   <g id="layer65">
    <path id="path2821" d="m740.17 332.8c-34.162 4.8879-127.36 11.671-136.92 7.0631 1.8622 7.6154 19.713 13.139 19.713 13.139-42.19-1.9393-130.97-11.949-164.52-15.72 0 0 7.3845 6.0694 15.895 9.2347-54.071 1.668-73.129 1.1553-109.11-13.208-24.09-54.496-6.3965-72.83 13.248-98.723 159.52 11.511 194.57-13.662 317.14-17.256 15.114 5.1084 29.526 8.1743 37.72 25.048 0 0-15.96-9.0735-18.474-4.7988 0.92955 3.6759 37.292 48.205 31.468 58.398-3.7653-6.4366-9.4594-7.5692-15.187-6.5435 0 0 15.317 23.333 9.0366 43.367z" fill="#fff" stroke="#000" stroke-width="2.5577"/>
    <path id="path2823" d="m696.2 217.03s-11.326-63.526-33.537-83.841c-24.605-22.506-63.479-20.616-95.819-28.746-40.702-10.232-82.147-33.046-123.37-25.152-51.551 9.8726-103.58 41.95-131.75 86.237-37.881 59.549-20.332 139.68-29.943 209.6-2.9066 21.145-8.3841 63.48-8.3841 63.48l39.525 15.571 94.621-240.74-8.3842 22.757c107.24 8.4136 200.38-8.5359 297.04-19.164" fill="#ea0d0d" stroke="#000" stroke-width="2.5577"/>
    <path id="path2823-3" transform="matrix(4.5269 0 0 4.5269 80.569 45.758)" d="m51.329 90.223 20.902-53.181-1.8521 5.0271c1.0325-1.5972-2.5186 3.6547-1.247 3.8075 0 0-7.2667 16.979-6.6406 17.036 0.01528 0.0014 8.3227 4.9135 22.68 3.2794 1.3271-0.15104-3.2422-2.1624-1.8275-2.0345 11.468 1.0368 25.259 2.9279 34.792 3.195 3.17 0.08882-4.94-2.2304-2.2467-2.2064 22.287 0.19864 30.266-1.9798 29.942-1.8124-1.4312 0.73808-80.272 0.25964-78.082-4.055 2.1196-4.1753 4.7106-13.085 5.1334-13.058 21.004 1.3605 44.054-6.2897 63.113-8.3853 0 0-43.607 5.1915-54.693 2.9598-12.827-2.5821-6.1087-10.998-10.057-1.4327-4.835 11.714-7.3136 13.25-12.551 31.29-0.34286 1.181-7.2488 18.459-7.3658 19.57z" filter="url(#filter20661)" opacity=".15385" style="mix-blend-mode:normal"/>
    <path id="path2823-9" transform="matrix(4.5269 0 0 4.5269 80.569 45.758)" d="m80.169 7.4083c-11.388 2.1809-22.881 9.2669-29.104 19.05-8.3681 13.155-4.4914 30.857-6.6146 46.302-0.64208 4.671-1.8521 14.023-1.8521 14.023l4.0349 4.0349c1.5099-7.6122 2.1977-12.572 2.4566-21.348 0.4568-15.485 2.3752-35.872 7.0396-41.634 5.6752-7.0107 15.78-15.939 24.602-17.954 9.1511-2.0904 19.85 1.5827 28.561 3.9239-8.9911-2.2603-20.018-8.1419-29.123-6.3981z" filter="url(#filter20657)" opacity=".15385" style="mix-blend-mode:normal"/>
    <path id="path2825" d="m329.87 470.7c-5.0171-46.157-78.147-50.61-103.18-34.481 7.8139 1.8822 12.347-1.5187 21.154 6.3328-37.476 6.6259-50.883 41.433-44.211 66.13 2.2571-2.9224 5.3475-12.038 11.943-9.6411-6.5731 23.056 2.2457 53.928 15.305 58.748-3.2726-4.8758-0.64349-9.7354 4.3474-7.3562 22.625 7.7863 64.254 15.578 81.636 1.7327 0 0-20.407-3.4378-15.847-9.6282 13.495-1.4137 36.988-17.241 37.637-25.429 0 0-18.949 9.2666-16.231-0.87524 5.8176-7.2073 25.089-39.255 15.655-50.07-5.6083 16.426-8.339 9.5414-8.2139 4.5377z" fill="#fff" stroke="#000" stroke-width="2.5577"/>
    <path id="path2825-4" transform="matrix(4.5269 0 0 4.5269 80.569 45.758)" d="m47.245 85.684c0-1.6799-12.685-2.0184-14.966 0.5697 1.7261 0.41578 2.7275-0.33548 4.673 1.3989-8.2786 1.4637-11.24 9.1526-9.7662 14.608 0.4986-0.64557 1.1813-2.6592 2.6383-2.1297-1.452 5.0933 0.49609 11.913 3.381 12.978-0.72292-1.0771-0.14215-2.1506 0.96036-1.625 4.998 1.72 14.194 3.4412 18.034 0.38277 0 0-4.508-0.75942-3.5007-2.1269-11.56 7.8016-30.541-20.339-1.4533-24.056z" filter="url(#filter24615)" opacity=".13141" style="mix-blend-mode:normal"/>
   </g>
  </g>
 </g>
</svg>
