<?xml version="1.0" encoding="UTF-8"?>
<svg width="1200mm" height="1200mm" version="1.1" viewBox="0 0 1200 1200" xmlns="http://www.w3.org/2000/svg" xmlns:xlink="http://www.w3.org/1999/xlink">
 <g>
  <g transform="translate(19.4 11.241)">
   <g stroke="#000">
    <path d="m561.36 610.27-74.348 105.57c6.0527-32.013 15.329-65.017 37.835-95.779l36.512-13.229 43.127 12.435c32.601 38.612 36.69 71.702 44.715 104.77z" fill="#212121" stroke-width="2"/>
    <path transform="matrix(.26458 0 0 .26458 -19.4 -11.241)" d="m1213.7 1787.7c50.006 223.54 219.47 435.04 414.47 548.31 163.22 94.821 389.24 68.094 566.33 14.617 345.27 92.789 660.96 52.095 820.85-193.77 46.821-72.001 48.986-136.7 55.69-221.49-81.327 102.14-184.15 96.795-277.3 139.84-31.123 46.576-70.042 90.174-114.77 131.6-117.63 108.95-280.37 121.89-478.38 134.07-166.04 10.212-456.35 1.0448-573.97-107.9-72.733-67.366-134.43-170.2-170.95-275.3-93.547-73.841-186.43-148.86-256.49-264.46z" fill="#212121" stroke-width="7.5591"/>
    <ellipse cx="542.57" cy="612.18" rx="2.0226" ry="1.7483" fill-opacity=".72065" fill-rule="evenodd" stroke-linecap="round" stroke-linejoin="round" stroke-width=".6841"/>
    <ellipse cx="575.98" cy="611.01" rx="2.0226" ry="1.7483" fill-opacity=".72065" fill-rule="evenodd" stroke-linecap="round" stroke-linejoin="round" stroke-width=".6841"/>
    <path d="m542.72 611.7-0.77569 50.226" fill="none" stroke-width="1.097px"/>
   </g>
   <path d="m346.04 489.17c7.3788 35.322 23.178 69.511 49.262 92.021 32.86 28.357 83.318 23.516 126.46 28.255 4.3613 0.47906 36.561-4.0751 66.533-2.6904 20.505 0.94735 75.555 5.9537 122.57-1.9949 31.116-5.2608 58.252-33.063 54.722-28.73-28.409 34.87-84.281 44.041-89.056 44.368-1.2227 0.0837-27.567 5.3539-50.375 2.4565-28.835-3.663-56.141-11.581-64.747-11.747-13.153-0.25377-25.95 6.2911-27.925 6.683-3.5406 0.70254-6.8603 1.3257-9.982 1.8768-42.734 7.5445-48.347 1.5874-75.111 0.9437-27.321-0.65706-97.113-48.468-126.23-105.27-13.906-27.124-21.165-52.83-23.521-77.323l26.806 35.612z" fill-opacity=".99763" opacity=".16"/>
   <path d="m575.71 610.24 0.19404 47.9" fill="none" stroke="#000" stroke-width="1.097px"/>
  </g>
 </g>
</svg>
