<?xml version="1.0" encoding="UTF-8"?>
<svg id="svg5" width="1200mm" height="1200mm" version="1.1" viewBox="0 0 1200 1200" xmlns="http://www.w3.org/2000/svg" xmlns:xlink="http://www.w3.org/1999/xlink">
 <g id="layer60" transform="translate(19.4 11.241)">
  <g id="layer104">
   <g id="layer51">
    <path id="path274" d="m646.78 554.34c-0.44023-0.10656-2.6014-0.4853-4.8024-0.84157-9.2056-1.4899-19.15-5.8485-27.255-11.946-16.244-12.22-25.574-30.99-25.574-51.449 0-3.8712-0.18782-5.9845-0.50346-5.6664-0.27696 0.27903-2.0916 3.7288-4.0327 7.6665-5.9612 12.093-14.114 23.201-23.332 31.789-42.912 39.978-108.4 39.978-151.31 0-9.4319-8.7872-17.592-19.994-23.595-32.406-4.3472-8.9887-6.9679-16.622-8.7922-25.61-4.8016-23.656-1.8853-47.983 8.2955-69.194 6.1034-12.715 12.245-21.446 21.82-31.022 43.177-43.177 112.67-43.177 155.85 0 9.5758 9.5758 15.717 18.307 21.82 31.022 8.0969 16.868 11.75 36.373 10.259 54.774-0.35076 4.3289-0.78008 8.4112-0.95401 9.0716-0.62515 2.3735 0.85886 1.1485 2.9535-2.438 3.2246-5.5213 6.455-9.5712 11.489-14.404 12.114-11.629 27.342-17.71 44.355-17.71 35.614 0 64.289 28.765 64.277 64.472-0.0124 25.954-15.748 49.276-40.046 59.347-7.1176 2.9499-13.754 4.2912-22.386 4.5246-4.2555 0.11485-8.0977 0.1219-8.538 0.0166zm21.988-5.251c9.9145-2.6206 18.804-7.6437 26.353-14.891 12.812-12.3 18.895-26.438 18.895-43.915 0-11.037-1.7875-18.506-6.7109-28.038-8.5082-16.473-23.902-28.025-42.302-31.746-6.2419-1.2621-20.97-0.85161-26.78 0.74637-21.643 5.9521-37.877 22.239-43.87 44.015-1.0659 3.8716-1.1952 5.5562-1.1741 15.29 0.0207 10.354 0.10199 11.196 1.482 15.742 1.6688 5.496 5.2912 13.335 8.213 17.773 2.8598 4.3443 11.333 12.926 15.808 16.01 7.0454 4.8559 14.483 8.0774 22.497 9.7445 7.2241 1.5028 20.47 1.1524 27.591-0.72983zm-171.52 0.66255c19.74-2.1455 39.855-10.574 55.607-23.301 4.7236-3.8161 13.694-12.964 17.152-17.492 4.4732-5.8568 8.4568-12.409 11.906-19.583 7.6943-16.005 10.925-31.654 10.272-49.761-0.83067-23.056-8.5011-43.832-23.058-62.461-3.7663-4.819-13.323-14.278-18.14-17.954-32.572-24.861-75.819-29.346-111.87-11.604-11.239 5.5313-18.757 10.837-27.872 19.668-19.975 19.355-31.195 44.57-32.196 72.349-0.65243 18.108 2.5782 33.758 10.272 49.761 5.5201 11.483 10.918 19.239 19.703 28.314 8.9784 9.274 17.71 15.693 29.193 21.461 10.375 5.2112 23.915 9.3067 34.858 10.543 6.0918 0.68829 18.106 0.71748 24.168 0.0589z" stroke-width="4.1461"/>
   </g>
  </g>
 </g>
</svg>
