<?xml version="1.0" encoding="UTF-8"?>
<svg id="svg5" width="1200mm" height="1200mm" version="1.1" viewBox="0 0 1200 1200" xmlns="http://www.w3.org/2000/svg" xmlns:xlink="http://www.w3.org/1999/xlink">
 <g id="layer60" transform="translate(19.4 11.241)">
  <g id="layer214">
   <g id="layer202" transform="translate(-19.4 -11.241)">
    <path id="path55868" d="m697.3 772.51c9.6356-4.205 24.606-3.6209 32.858-0.86381" fill="none" stroke="#000" stroke-width=".26458px"/>
    <path id="path46158" d="m709.25 714.3 0.22491 14.787c1.1755 3.4541 3.0016 6.7136 0.17286 11.366 4.198 1.9331 1.1068 4.2755 0.0989 6.5009l0.25173 16.551-14.219 8.9803c12.258 4.5732 23.117 5.0559 34.378-0.84131l-14.733-8.326-0.95788-28.34-0.21143-20.631s9.4492-2.6359 11.384-5.9675c8.1109-13.969-1.9498-48.788-1.9498-48.788-8.253-2.0435-16.952-1.5529-25.73 0.0993 0 0-9.9482 34.279-1.056 48.435 1.8989 3.023 12.348 6.1739 12.348 6.1739z" fill="#dedddd" opacity=".5813" stroke-width="0"/>
    <path id="path46158-6" d="m710.62 730.57c2.1924 3.4887 0.53151 6.2549 0.14083 9.2593 3.0397 2.0715 1.087 4.7671 0.11164 7.3405l0.2514 16.529-12.644 6.9686c-1.3243 0.82629-2.5685 1.8955-1.0047 2.4296 10.388 3.542 20.469 3.867 30.143-0.0863 1.338-0.68024 3.5239-1.6407 1.0626-2.9006l-13.254-6.7849c-0.16714-8.0301-0.35053-16.797-0.46845-24.389-3.247-3.7026-0.67085-6.3575-0.23946-9.2605l-0.41996-15.156s8.3214-2.278 11.433-6.3313c9.72-12.662-2.0733-47.762-2.0733-47.762-7.7103 1.3265-15.758 1.8717-25.631 1e-5 0 0-11.997 35.011-1.1225 47.708 3.1557 3.6845 13.47 6.3604 13.47 6.3604l0.23819 15.66z" fill="none" stroke="#000" stroke-width="2.5"/>
    <path id="path49348" d="m727.68 688.37c0.49796 5.7447 0.14488 9.2018-0.55027 12.537-0.32919 1.5793-0.95956 4.2938-3.0878 6.7717-1.9568 2.2784-5.9383 4.0053-9.8499 5.1076-1.1239 0.26633-2.1984 0.43397-3.6523 1e-3 -1.7186-0.48594-10.413-2.9305-13.145-6.7893-2.7328-3.8588-2.9004-7.9911-3.1947-10.31s-0.14501-7.3415-0.14501-7.3415c10.773 2.405 21.858 3.0887 33.625 0.0234z" fill="#feffb6" fill-opacity=".88578" stroke="#000" stroke-width=".26458px"/>
    <path id="path51530" d="m694.05 688.34c10.977 2.6121 22.15 3.018 33.625 0.0233-11.146-2.391-22.355-2.3719-33.625-0.0233" fill="#f1f4df" stroke="#000" stroke-width=".26458px"/>
    <path id="path53868" d="m724.42 659.48c-7.7601-0.85013-17.767-0.83737-27.128 6e-4 7.3127 2.7121 17.426 2.5873 27.128-6e-4z" fill="none" stroke="#000"/>
   </g>
  </g>
 </g>
</svg>
