<?xml version="1.0" encoding="UTF-8"?>
<svg id="svg5" width="1200mm" height="1200mm" version="1.1" viewBox="0 0 1200 1200" xmlns="http://www.w3.org/2000/svg" xmlns:xlink="http://www.w3.org/1999/xlink">
 <g id="layer60" transform="translate(19.4 11.241)">
  <g id="layer214">
   <g id="layer177" transform="translate(-19.4 -11.241)">
    <path id="path80057" d="m250.38 345.29c202.67-2.4701 159.38 16.224 212.97 19.569 66.04 4.1226 135.74-6.3261 201.82-2.533 131.68 7.5594 188.57-15.058 248.53-6.3188-45.382-31.472-98.162-64.584-176.17-88.487 0 0-24.127-58.245-15.974-86.809 7.8821-27.615 24.939-36.472 24.939-36.472 52.558 10.696 80.259 35.008 109.05 64.412 0 0 8.0353-100.98-30.153-126.72-40.1-27.03-105.36-36.554-157.75-26.941-32.917 6.0411-69.246 9.1653-98.613 25.029-37.655 12.644-71.411 28.373-94.392 46.813-43.744 37.183-51.919 90.255-69.888 139.19-63.222 23.534-155.09 78.381-154.37 79.267z" fill="#2c2929" stroke="#000" stroke-width="2.8876"/>
    <path id="path82496" d="m774.28 126.26c-1.9536 0.17301-3.9406 0.68251-5.8707 1.3867-3.8602 1.4084-7.6694 3.6349-11.093 5.9726-6.8464 4.6754-12.143 9.8535-12.143 9.8535l2.6448 1.5234s5.1719-5.0412 11.744-9.5293c3.286-2.244 6.9218-4.3377 10.306-5.5723 3.3838-1.2346 6.3387-1.5706 8.6432-0.74414 13.842 5.7797-0.16618 10.709-4.7893 12.471 4.3521 0.0336 7.6958-0.50177 10.149-1.5059 2.4535-1.0041 3.9993-2.555 4.3828-4.2695 0.76707-3.4291-2.6729-6.9305-8.3018-8.9492-1.7971-0.64452-3.719-0.80974-5.6727-0.63672z" color="#000000" stroke-width="1.155" style="-inkscape-stroke:none"/>
    <path id="path83561" d="m414.86 220.73c-6.4319 15.386-11.152 30.611-10.106 45.296 112.8 10.343 222.72 5.5374 332.78 1.4967 2.7723-14.93-5.1151-30.659-11.34-46.263-102.89 4.1602-206.57 4.4774-311.34-0.52917z" fill="#5e87c5" stroke="#000" stroke-width="2.8876"/>
    <path id="path85630" d="m709.87 221c-3.187-32.822-9.9597-55.975 26.957-78.577 18.914-11.58 25.318-11 37.46-16.159l12.96 7.1789s-7.8932 9.2187-13.517 8.1825c4.3554-4.0495 2.5425-5.8661-1.4587-6.6858-3.3849-0.69344-16.706 4.7608-20.917 6.3171-11.085 4.0974-13.528 8.65-13.528 8.65-28.22 42.665-18.764 56.34-14.722 70.867 0.52642 1.8921 2.9239-1.7189 3.0949 0.48323" opacity=".22968" stroke="#000" stroke-width=".3056px"/>
    <path id="path87603" d="m570.22 80.087-18.678 7.1806-9.4594 2.9879 18.301 10.566c16.804 2.4824 17.367 4.332 34.854 9.5749-10.71-5.7432-28.216-19.959-25.017-30.309zm-18.678 7.1806c-28.822 6.3667-60.197 29.062-84.44 46.412-34.343 34.202-32.093 58.042-47.389 86.849l-6.476 0.99357 33.73-0.90334c19.794-42.379 27.32-77.606 89.994-113.96 5.159-2.9924 17.735-4.6838 23.69-6.1611 1.545-0.3833-10.522-12.577-9.1096-13.232zm-136.68 133.46c-6.1345 15.853-9.1431 30.853-10.106 45.296-63.784 22.547-85.26 40.159-154.37 79.267l102.36 0.40712c36.158 3.4456 70.281 9.2168 101.5 18.303 77.042 2.6565 130.55-1.5345 207-4.6312 85.052 6.928 154.68 0.33332 225.21-6.35-114.46-25.215-128.44-39.484-233.68-38.1-263.62 56.038-257.56-16.38-80.528-35.693 36.826-4.0174 78.423-7.6144 122.64-10.591l-47.708-0.80154c-78.33-11.348-193.05 19.429-205.86-45.495z" opacity=".19716" stroke="#000" stroke-width=".3056px"/>
   </g>
  </g>
 </g>
</svg>
