<?xml version="1.0" encoding="UTF-8"?>
<svg id="svg5" width="1200mm" height="1200mm" version="1.1" viewBox="0 0 1200 1200" xmlns="http://www.w3.org/2000/svg" xmlns:xlink="http://www.w3.org/1999/xlink">
 <g id="layer60" transform="translate(19.4 11.241)">
  <g id="layer4">
   <g id="layer7">
    <path id="path2" d="m733.81 493.64c-0.30349-0.36569 0.622-3.8626 1.5947-7.3274 1.9966-7.1122 3.9064-16.198 5.1121-24.316 1.2091-8.1404 1.3786-34.54 0.27198-42.423-4.9944-35.578-18.693-66.337-41.229-92.578-5.3845-6.2693-16.158-16.974-21.792-21.653-29.279-24.315-64.778-39.491-104.36-44.612-5.3203-0.68817-14.802-1.0327-24.282-1.0327l1.2e-4 5e-5c-9.4796 0-18.959 0.34454-24.28 1.0327-24.145 3.1232-44.931 9.359-66.167 19.851-23.297 11.509-43.293 26.982-59.981 46.411-22.536 26.239-36.235 57-41.229 92.578-1.1092 7.9024-0.93731 34.289 0.27654 42.423l0.95559 6.404" fill="none" stroke="#000" stroke-width="2.1767" style="mix-blend-mode:normal"/>
   </g>
  </g>
 </g>
</svg>
