<?xml version="1.0" encoding="UTF-8"?>
<svg id="svg5" width="1200mm" height="1200mm" version="1.1" viewBox="0 0 1200 1200" xmlns="http://www.w3.org/2000/svg" xmlns:xlink="http://www.w3.org/1999/xlink">
 <defs id="defs77">
  <filter id="filter146738-9" x="-.67866" y="-.67866" width="2.3573" height="2.3573" color-interpolation-filters="sRGB">
   <feGaussianBlur id="feGaussianBlur146740-8" stdDeviation="8.4025401"/>
  </filter>
  <filter id="filter146738-9-3" x="-.52685" y="-.52685" width="2.0537" height="2.0537" color-interpolation-filters="sRGB">
   <feGaussianBlur id="feGaussianBlur146740-8-3" stdDeviation="6.5229244"/>
  </filter>
  <filter id="filter146738-9-6" x="-.67866" y="-.67866" width="2.3573" height="2.3573" color-interpolation-filters="sRGB">
   <feGaussianBlur id="feGaussianBlur146740-8-2" stdDeviation="8.4025401"/>
  </filter>
  <filter id="filter146738-9-2" x="-.67866" y="-.67866" width="2.3573" height="2.3573" color-interpolation-filters="sRGB">
   <feGaussianBlur id="feGaussianBlur146740-8-7" stdDeviation="8.4025401"/>
  </filter>
 </defs>
 <g id="layer60" transform="translate(19.4 11.241)">
  <g id="layer23">
   <g id="layer269">
    <path id="path122778" d="m-18.222 810.57s335.55 51.805 493.32 50.627c157.77-1.1774 303.76-31.789 437.98-48.272 134.22-16.483 271.97-20.015 271.97-20.015l1.1773 230.77c-6.4509 17.74-449.77 5.355-631.01-49.094-160.82-48.313-581.53-38.504-581.53-38.504z" fill="#58a64e"/>
    <path id="path119410" d="m58.026 816.29 0.83253-93.243 54.115-61.607 46.622 54.115 14.153-14.153 48.287 65.77v82.421z" fill="#d2f0d6"/>
    <rect id="rect137372" x="153.39" y="794.28" width="52.307" height="52.667" ry="5.7718" fill="#562326" fill-rule="evenodd" style="paint-order:stroke markers fill"/>
    <rect id="rect135977" x="98.561" y="773.72" width="28.859" height="56.635" ry="5.7718" fill="#562326" fill-rule="evenodd" style="paint-order:stroke markers fill"/>
    <path id="path119412" d="m383.55 787.99v81.588l82.837 0.83253v-82.421l-39.545-47.454z" fill="#d2f0d6"/>
    <path id="path119466" d="m898.05 781.33 30.206-29.971 25.629 29.971v35.799l-54.889 0.36074z" fill="#d2f0d6"/>
    <path id="path119468" d="m972.14 758.85v54.115h173.17v-115.72l-58.694-58.693-66.186 57.861v27.474z" fill="#d2f0d6"/>
    <rect id="rect137482" x="1075.8" y="752.08" width="24.53" height="51.224" ry="5.7718" fill="#562326" fill-rule="evenodd" style="paint-order:stroke markers fill"/>
    <rect id="rect137480" x="986.69" y="771.19" width="41.124" height="41.485" ry="5.7718" fill="#562326" fill-rule="evenodd" style="paint-order:stroke markers fill"/>
    <rect id="rect137668" x="416.73" y="823.86" width="18.037" height="42.206" ry="6.0838" fill="#223a56" fill-rule="evenodd" style="paint-order:stroke markers fill"/>
    <rect id="rect139315" x="919.96" y="790.67" width="12.265" height="24.53" ry="6.0838" fill="#223a56" fill-rule="evenodd" style="paint-order:stroke markers fill"/>
    <path id="path121126" d="m-36.791 830.77s25.756-3.0958 58.734 0.30136c92.135 9.491 280.42 41.944 409.08 48.641 150.97 7.8585 395.16-38.027 545.2-56.378 81.297-9.9433 214.28-10.004 214.28-10.004" fill="none" stroke="#478f52" stroke-width="40.158"/>
    <path id="path119208" d="m-17.243 1151.9v-41.727h601.52c330.84-1e-4 601.66 0.055 601.84 0.1216 0.2882 0.1106 0.3175 3.964 0.3175 41.728v41.606h-1203.7v-41.727z" fill="#7b7166" stroke-width=".20061"/>
    <path id="path119214" d="m-22.679 1151.3v-42.329h3.8618c5.0875-0.01 1195-0.01 1200.8-1e-4h4.4636v84.658h-1209.1v-42.329z" fill="#85776e" stroke-width=".20061"/>
    <path id="path132771" d="m-29.603 951.94v125.5l1218.3-5.1016 1.0203-39.792-380.58 3.0609-320.38-64.28-319.36-21.427z" fill="#75d171"/>
    <circle id="path129250-0-2" transform="matrix(1.5284 0 0 1.5284 -532.96 -480.92)" cx="1007.3" cy="908.11" r="14.857" fill="#f4c46e" fill-rule="evenodd" filter="url(#filter146738-9)" style="mix-blend-mode:normal;paint-order:stroke markers fill"/>
    <path id="ellipse147102" d="m1017.9 903.06c0 6.0923 1.904 18.519-11.414 18.046-14.998-0.53277-11.286-12.272-11.286-18.365s6.18-3.6975 11.286-3.6975c5.1061-1e-5 11.414-2.0759 11.414 4.0164z" fill="#f4c46e" fill-rule="evenodd" stroke-linecap="round" stroke-linejoin="bevel" stroke-width="27.465" style="paint-order:stroke markers fill"/>
    <circle id="path129250-0-2-1" transform="matrix(1.5393 0 0 1.5393 -703.41 -644.39)" cx="1007.3" cy="908.11" r="14.857" fill="#f4c46e" fill-rule="evenodd" filter="url(#filter146738-9-3)" style="mix-blend-mode:normal;paint-order:stroke markers fill"/>
    <circle id="path129250-0-2-3" transform="matrix(1.5284 0 0 1.5284 -1523.7 -641.42)" cx="1007.3" cy="908.11" r="14.857" fill="#f4c46e" fill-rule="evenodd" filter="url(#filter146738-9-2)" style="paint-order:stroke markers fill"/>
    <path id="ellipse147102-66" d="m20.238 744.27c0 4.7272 1.0751 14.369-6.4447 14.002-8.4684-0.4134-6.3726-9.5224-6.3726-14.25 0-4.7272 3.4895-2.869 6.3726-2.869 2.8831-1e-5 6.4447-1.6108 6.4447 3.1164z" fill="#f4c46e" fill-rule="evenodd" stroke-linecap="round" stroke-linejoin="bevel" stroke-width="18.179" style="paint-order:stroke markers fill"/>
    <path id="ellipse147102-8" d="m853.37 750.77c0 4.1617 1.0704 12.65-6.4165 12.327-8.4313-0.36394-6.3448-8.3834-6.3448-12.545 0-4.1617 3.4742-2.5258 6.3448-2.5258 2.8705-1e-5 6.4165-1.4181 6.4165 2.7436z" fill="#f4c46e" fill-rule="evenodd" stroke-linecap="round" stroke-linejoin="bevel" stroke-width="17.02" style="paint-order:stroke markers fill"/>
    <circle id="path129250-0-2-2" transform="matrix(1.2298 0 0 1.2298 -858.99 -258.75)" cx="1007.3" cy="908.11" r="14.857" fill="#f4c46e" fill-rule="evenodd" filter="url(#filter146738-9-6)" style="paint-order:stroke markers fill"/>
    <path id="ellipse147102-6" d="m387.77 854.84c0 4.902 1.4378 14.901-8.6191 14.52-11.326-0.42868-8.5227-9.8746-8.5227-14.777 0-4.902 4.6668-2.9751 8.5227-2.9751 3.8559-1e-5 8.6191-1.6703 8.6191 3.2317z" fill="#f4c46e" fill-rule="evenodd" stroke-linecap="round" stroke-linejoin="bevel" stroke-width="21.409" style="paint-order:stroke markers fill"/>
    <path id="path130348" d="m-33.057 944.65c11.548 0.10715 224.08-7.5328 408.55 14.129 246.36 28.929 313.34 68.705 522.76 76.53 205.66 7.684 332.02-7.0642 332.02-7.0642" fill="none" stroke="#57bc6a" stroke-width="35"/>
    <path id="path119468-8" d="m952.86 970.67-0.15528 40.449h-169.76l1.7856-73.671 42.269-53.679 43.593 49.872 17.389-19.124z" fill="#d2f0d6"/>
    <path id="path119412-6" d="m264.36 868.42v68.407l66.421 0.69802 0.51016-58.392-32.219-50.501z" fill="#d2f0d6"/>
    <path id="path119412-0" d="m1057.3 969.25-0.1804 46.675 70.855 0.6272-0.1804-56.501-33.645-41.341z" fill="#d2f0d6"/>
    <path id="path119412-5" d="m202.1 896.78-0.36074 35.529 49.632 0.4196v-31.259l-23.694-34.198z" fill="#d2f0d6"/>
    <circle id="path129250" cx="112.76" cy="741.16" r="11.031" fill="#f3e06e" fill-rule="evenodd" style="paint-order:stroke markers fill"/>
    <circle id="path129250-7" cx="425.06" cy="798.21" r="11.031" fill="#f3e06e" fill-rule="evenodd" style="paint-order:stroke markers fill"/>
    <circle id="path129250-5" cx="827.13" cy="951.26" r="11.031" fill="#f3e06e" fill-rule="evenodd" style="paint-order:stroke markers fill"/>
    <circle id="path129250-6" cx="1088.7" cy="718.47" r="11.031" fill="#f3e06e" fill-rule="evenodd" style="paint-order:stroke markers fill"/>
    <rect id="rect134004" x="-19.4" y="1072.3" width="1206" height="38.772" fill="#d4c7b9" fill-rule="evenodd" style="paint-order:stroke markers fill"/>
    <rect id="rect145372" x="201.73" y="919.82" width="49.421" height="24.53" ry="6.0838" fill="#d3f1d7" fill-rule="evenodd" style="paint-order:stroke markers fill"/>
    <path id="rect137478" d="m226.98 921.98h0.36071c3.5973 0 6.4932 2.896 6.4932 6.4932l-0.0638 15.885h-13.347l0.0638-15.885c0.0144-3.5972 2.896-6.4932 6.4932-6.4932z" fill="#562326" fill-rule="evenodd" stroke-linecap="round" stroke-linejoin="bevel" stroke-width="44.259" style="paint-order:stroke markers fill"/>
    <rect id="rect145793" x="1057" y="1009.6" width="70.885" height="24.891" ry="6.0838" fill="#d3f1d7" fill-rule="evenodd" style="paint-order:stroke markers fill"/>
    <path id="rect152238" d="m1089.8 997.92h9.1102c3.372 0 6.0866 2.7147 6.0866 6.0866l-0.064 30.565h-21.283l0.064-30.565c0.01-3.3719 2.7146-6.0866 6.0866-6.0866z" fill="#562326" fill-rule="evenodd" stroke-linecap="round" stroke-linejoin="bevel" stroke-width="41.076" style="paint-order:stroke markers fill"/>
    <rect id="rect145476" x="783.08" y="989.43" width="169.63" height="38.262" ry="6.0838" fill="#d3f1d7" fill-rule="evenodd" style="paint-order:stroke markers fill"/>
    <path id="rect139317" d="m823.18 985.81h5.4109c3.6508 0 6.5899 2.9391 6.5899 6.5899l0.0902 35.213h-18.591l-0.0902-35.213c-9e-3 -3.6508 2.9391-6.5899 6.5899-6.5899z" fill="#223a56" fill-rule="evenodd" stroke-linecap="round" stroke-linejoin="bevel" stroke-width="43.136" style="paint-order:stroke markers fill"/>
    <path id="rect139319" d="m888.62 994.99h37.333c3.3704 0 6.0838 2.7134 6.0838 6.0838l0.0902 26.702h-49.501l-0.0902-26.702c-0.0114-3.3704 2.7134-6.0838 6.0838-6.0838z" fill="#223a56" fill-rule="evenodd" stroke-linecap="round" stroke-linejoin="bevel" stroke-width="38.912" style="paint-order:stroke markers fill"/>
    <path id="path139354" d="m58.942 724.41 53.688-64.685 52.879 65.027" fill="none" stroke="#223a56" stroke-linecap="round" stroke-linejoin="round" stroke-width="15"/>
    <path id="path139535" d="m163.13 709.51 9.5467-8.1038 48.259 64.561" fill="none" stroke="#223a56" stroke-linecap="round" stroke-linejoin="round" stroke-width="15"/>
    <path id="path139537" d="m204.26 903.04 22.366-41.304 20.923 41.845" fill="none" stroke="#223a56" stroke-linecap="round" stroke-linejoin="round" stroke-width="15"/>
    <path id="path139539" d="m261.61 882.3 32.827-53.028 33.909 53.208" fill="none" stroke="#223a56" stroke-linecap="round" stroke-linejoin="round" stroke-width="15"/>
    <path id="path139541" d="m382.46 791.03 42.567-51.946 41.124 50.503" fill="none" stroke="#562326" stroke-linecap="round" stroke-linejoin="round" stroke-width="15"/>
    <path id="path139543" d="m779.99 947.59 49.06-64.932 46.174 64.211" fill="none" stroke="#562326" stroke-linecap="round" stroke-linejoin="round" stroke-width="15"/>
    <path id="path139545" d="m869.45 934.61 20.201-17.315 66.375 63.489" fill="none" stroke="#562326" stroke-linecap="round" stroke-linejoin="round" stroke-width="15"/>
    <path id="path139547" d="m1057 972.85 37.516-53.389 37.516 54.11" fill="none" stroke="#223a56" stroke-linecap="round" stroke-linejoin="round" stroke-width="15"/>
    <path id="path139549" d="m1140.7 696.52-59.161-53.389-57.718 53.389" fill="none" stroke="#223a56" stroke-linecap="round" stroke-linejoin="round" stroke-width="15"/>
    <path id="path139551" d="m1020.1 728.27-49.06 33.188" fill="none" stroke="#223a56" stroke-linecap="round" stroke-linejoin="round" stroke-width="15"/>
    <path id="path139553" d="m948.81 785.26-23.087-31.745-28.137 32.466" fill="none" stroke="#562326" stroke-linecap="round" stroke-linejoin="round" stroke-width="15"/>
    <rect id="rect144169" x="264.5" y="919.64" width="66.195" height="27.957" ry="7.9242" fill="#d3f1d7" fill-rule="evenodd" style="paint-order:stroke markers fill"/>
    <path id="rect137476" d="m293.69 907.91h8.3642c3.2789 0 5.9185 2.6397 5.9185 5.9185l-0.25508 33.853h-20.201l0.25508-33.853c0.0247-3.2788 2.6397-5.9185 5.9185-5.9185z" fill="#562326" fill-rule="evenodd" stroke-linecap="round" stroke-linejoin="bevel" stroke-width="42.444" style="paint-order:stroke markers fill"/>
    <path id="path119188" d="m1003.3 1021.6c-1.343-0.3615-2.1941-0.8011-2.4122-1.2458-0.1772-0.3613 0.056-17.48 0.2731-20.069 0.1156-1.3764 0.1717-1.5128 0.9324-2.266l0.8095-0.8014-0.1473-34.546c-0.094-22.122-0.2183-34.634-0.3446-34.79-0.1086-0.13398-0.8236-0.53226-1.589-0.88506-2.4434-1.1263-3.3798-2.613-4.4719-7.1011-1.9051-7.8288-3.1697-15.29-3.1782-18.753-9e-3 -3.6602 0.5873-4.9736 3.2037-7.0554 0.79402-0.63183 1.6023-1.519 2.0956-2.3 1.0298-1.6306 2.173-2.627 4.1237-3.594 2.2775-1.129 2.2639-1.1123 2.2639-2.8026 0-1.7705 0.4347-2.5036 1.4842-2.5036 1.0748 0 1.525 0.66527 1.525 2.2534 0 0.72862 0.057 1.4725 0.126 1.653 0.069 0.18051 0.9043 0.72088 1.8556 1.2008 2.4708 1.2465 3.3325 1.9439 4.3555 3.5254 0.5752 0.88913 1.4051 1.801 2.2895 2.5155 1.497 1.2096 2.4672 2.4932 2.8611 3.7857 0.6678 2.1911 0.091 7.8724-1.6776 16.52-1.5238 7.4516-2.3667 9.6768-4.3637 11.521-1.1362 1.049-2.5725 1.7618-3.5499 1.7618-0.1306 0-0.4822 0.19248-0.7813 0.42776l-0.5438 0.42775 0.1414 34.429c0.099 24.155 0.206 34.51 0.358 34.7 0.1192 0.1494 0.4188 0.3485 0.6659 0.4424 1.0015 0.3808 1.1242 0.909 1.2933 5.5683 0.2963 8.1656 0.4431 15.608 0.3178 16.108-0.1527 0.6084-1.1527 1.1928-3.0178 1.7638-1.5869 0.4859-3.3545 0.5256-4.8979 0.11zm5.8219-101.18c0.2845-0.10815 0.5779-0.3879 0.6521-0.62165 0.5194-1.6366 2.5964-16.268 2.413-16.999l-0.1138-0.45374-4.4599 2e-3c-4.9576 2e-3 -5.8941 0.0936-6.1651 0.59981-0.2374 0.4437 0.6925 7.4555 1.9704 14.857 0.4034 2.3365 0.4834 2.5392 1.1096 2.8127 0.5154 0.22502 3.8608 0.0814 4.5937-0.19723zm-6.7768-0.2907c0.359-0.26259 0.3471-0.41922-0.355-4.6642-0.3996-2.4159-0.9751-6.1949-1.2791-8.3977-0.4215-3.0555-0.6374-4.0901-0.91066-4.3633-0.50536-0.50536-3.9149-0.53239-4.1067-0.0325-0.14809 0.38594 0.10864 2.2016 1.0602 7.4983 1.363 7.5868 1.9498 9.4297 3.1187 9.7945 1.5504 0.48384 1.9958 0.51359 2.4725 0.16509zm11.24-0.73088c0.7899-0.74214 1.5387-3.6822 2.7937-10.971 0.2815-1.6348 0.6032-3.2876 0.715-3.6731 0.2964-1.0226 0.2488-1.9331-0.1205-2.3024-0.2498-0.2499-0.648-0.31027-1.7484-0.26509-1.2932 0.0531-1.4475 0.10484-1.6695 0.56001-0.1345 0.27584-0.5762 2.9841-0.9815 6.0184-0.4053 3.0343-0.9076 6.4002-1.1164 7.4799-0.4748 2.4556-0.489 3.4726-0.052 3.7172 0.4582 0.25644 1.6282-0.0464 2.1794-0.56421zm-637.82 26.385-1.0786-0.51176 0.13056-6.6678c0.18246-9.3189 0.2334-9.8896 0.94936-10.639l0.57568-0.60238-0.029-16.471c-0.0159-9.0588-0.0836-21.207-0.15046-26.996l-0.12145-10.526-1.3288-0.64196c-1.3951-0.67398-1.9191-1.2319-2.5591-2.7251-1.2242-2.8559-3.133-13.535-3.1298-17.509 2e-3 -2.3347 0.43774-3.2799 2.2457-4.8698 0.71829-0.63169 1.604-1.6118 1.9682-2.1781 0.74219-1.1539 1.4873-1.7762 3.1048-2.5931 1.7005-0.85882 1.8055-0.99235 1.8055-2.2954 0-0.85108 0.0934-1.226 0.36686-1.4735 0.90007-0.81455 1.6393-0.0408 1.6393 1.716v1.1563l1.4524 0.71781c1.9451 0.96132 2.6685 1.5435 3.4653 2.7891 0.36829 0.57572 1.1289 1.397 1.6903 1.8252 1.9018 1.4503 2.4196 2.5857 2.4194 5.3046-1.4e-4 1.7673-0.74933 7.6649-1.3029 10.256-0.17395 0.81442-0.40359 1.9233-0.51027 2.4642-0.30616 1.552-0.99193 3.7357-1.5373 4.8954-0.60954 1.2961-2.0581 2.5102-3.5091 2.9411-0.55867 0.16591-1.1396 0.40439-1.2909 0.52996-0.23057 0.19136-0.27512 4.5624-0.27512 26.992v26.764l0.69957 0.41274c0.49076 0.28956 0.75822 0.63187 0.89602 1.1468 0.28409 1.0615 0.66485 15.405 0.42102 15.861-0.37819 0.70667-2.1703 1.304-4.123 1.3743-1.5983 0.0575-1.9293 6e-3 -2.8841-0.44676zm4.7559-77.928c0.47782-0.0923 0.96394-0.26308 1.0803-0.37945 0.24697-0.24698 0.70078-2.8336 1.5665-8.9288 0.51211-3.6054 0.57622-4.4329 0.36331-4.6895-0.3791-0.45677-7.6457-0.29155-8.1219 0.18469-0.28681 0.28679-0.26591 0.67662 0.23045 4.2981 0.86608 6.3194 1.4106 9.1351 1.8252 9.4383 0.40281 0.29454 1.7532 0.32836 3.0561 0.0766zm-4.418-0.85025c0.034-0.29376-0.16408-1.9187-0.4401-3.611-0.27605-1.6923-0.69298-4.4762-0.92651-6.1864-0.23356-1.7102-0.5111-3.1969-0.61681-3.3038-0.26176-0.2646-2.8235-0.37089-3.1786-0.13186-0.35228 0.23711-0.14581 1.8248 0.99468 7.6485 1.0971 5.6021 1.4639 6.2657 3.4034 6.1578 0.59921-0.0333 0.71121-0.11738 0.76393-0.57317zm8.1612 0.23399c0.91802-0.34904 1.3781-1.8618 2.6405-8.6825 0.69727-3.7672 0.78516-4.7338 0.44029-4.8415-0.79634-0.2488-2.1513-0.28098-2.4558-0.0583-0.26056 0.19052-0.48779 1.3447-1.0156 5.1581-0.37395 2.702-0.77487 5.3189-0.89096 5.8154-0.1161 0.49651-0.2133 1.3316-0.216 1.8557-5e-3 0.87724 0.0339 0.95291 0.48357 0.95291 0.26866 0 0.72496-0.0899 1.014-0.19979zm461.21-40.851c-2.4822-0.54134-2.4463-0.47822-2.1275-3.7435 0.12191-1.2486 0.22976-3.5745 0.23963-5.1685 0.01-1.594 0.0776-3.9574 0.15046-5.2519 0.12019-2.1347 0.1745-2.383 0.58389-2.6695l0.45137-0.31585v-17.309c0-9.5201-0.0597-19.225-0.1326-21.567l-0.13263-4.2582-0.96191-0.48745c-1.9152-0.97049-2.3134-1.7803-3.3979-6.9092-0.69997-3.3105-1.3935-7.8648-1.3889-9.1209 6e-3 -1.5724 0.47892-2.5903 1.7306-3.7226 0.54628-0.49417 1.2783-1.3154 1.6267-1.825 0.59612-0.8719 1.7898-1.7833 3.1582-2.4113 0.53639-0.24617 0.61275-0.39382 0.70214-1.3577 0.1052-1.1342 0.46885-1.5941 1.0761-1.3611 0.23768 0.0912 0.32818 0.37909 0.32818 1.0441 0 0.70736 0.11304 1.0312 0.4924 1.4106 0.27083 0.27083 0.58545 0.49241 0.69914 0.49241 0.51535 0 2.2206 1.2877 2.7249 2.0576 0.30663 0.46817 1.0792 1.327 1.7167 1.9084 1.361 1.2412 1.6719 1.9848 1.6545 3.9582-0.021 2.3816-1.2065 9.0417-2.1881 12.292-0.61307 2.0302-1.6556 3.2654-3.0934 3.6653-1.7607 0.48963-1.6049-1.6573-1.6049 22.117v21.078l0.67874 0.62168 0.67871 0.62169 0.1253 3.6054c0.0689 1.983 0.22481 5.1401 0.34644 7.0158 0.12161 1.8757 0.18861 3.7681 0.14887 4.2052-0.0668 0.73463-0.13296 0.81218-0.87469 1.0248-0.97933 0.2808-2.8639 0.48043-3.4104 0.36125zm3.0789-64.822c0.34708-0.2936 0.51521-1.008 1.027-4.3633 0.33658-2.2067 0.63377-4.599 0.66039-5.3162l0.0484-1.304-3.0142-0.0551c-4.059-0.0742-3.8666-0.24733-3.4302 3.0846 0.47957 3.6616 1.1425 7.5411 1.3592 7.9541 0.14815 0.28228 0.45367 0.35107 1.5593 0.35107 1.0177 0 1.4829-0.0912 1.79-0.35107zm-4.2222-0.17227c0.1057-0.18887 0.10759-0.70892 5e-3 -1.2538-0.0968-0.5121-0.43878-2.7657-0.75992-5.008-0.32116-2.2423-0.69089-4.2058-0.82163-4.3633-0.315-0.37954-2.2617-0.38821-2.5744-0.0114-0.17331 0.20883-0.0576 1.2102 0.48095 4.1627 1.0393 5.6979 1.2859 6.3794 2.4064 6.6524 0.76774 0.18703 1.0845 0.14231 1.264-0.17845zm6.7498-0.32926c0.5916-0.52025 0.98517-1.9064 1.7939-6.3179 0.54031-2.9475 0.63352-3.9776 0.37332-4.1259-0.0828-0.0472-0.47081-0.14348-0.86235-0.21397-1.2548-0.22591-1.32-0.0746-2.0206 4.6896-0.8198 5.5742-0.84169 5.7641-0.70533 6.1195 0.16795 0.4377 0.8317 0.36704 1.4211-0.15128zm-840.1 55.387c-0.71129-0.25975-0.83018-0.77332-0.68001-2.9376 0.06656-0.95927 0.20571-4.0244 0.30921-6.8114l0.1882-5.0673 0.54771-0.65012 0.54771-0.65015-0.14574-20.154c-0.08081-11.176-0.22582-20.303-0.32553-20.49-0.09889-0.18478-0.40621-0.39277-0.68294-0.46223-0.83369-0.20924-1.8432-1.2607-2.2831-2.3779-0.82342-2.0912-2.4371-10.638-2.4334-12.889 0.00255-1.5427 0.46615-2.5484 1.7215-3.7344 0.53898-0.50921 1.2579-1.3249 1.5976-1.8127 0.4458-0.64017 1.0178-1.0972 2.0563-1.6429 1.4197-0.74603 1.4387-0.7666 1.4387-1.5607 0-1.0002 0.29591-1.5808 0.80569-1.5808 0.40873 0 0.54764 0.34578 0.64475 1.6049 0.04829 0.62617 0.17447 0.76726 1.1662 1.304 1.5767 0.85327 1.9819 1.1763 2.5763 2.0539 0.28846 0.42591 0.9602 1.1715 1.4928 1.6569 1.371 1.2495 1.6121 1.8057 1.6089 3.7119-0.0054 3.2058-1.6405 11.3-2.7055 13.394-0.46072 0.90553-1.7115 1.8586-2.6769 2.0397-0.38537 0.0723-0.79205 0.30218-0.90373 0.51086-0.13309 0.24868-0.20367 7.3136-0.20486 20.504l-0.0018 20.125 0.6121 0.50325 0.6121 0.50328 0.19472 4.813c0.1071 2.6471 0.28654 5.7941 0.39875 6.9933 0.11221 1.1992 0.15222 2.3436 0.08889 2.5431-0.21695 0.68355-4.1442 1.0789-5.5645 0.56013zm4.3911-61.196c0.50978-0.50978 1.9131-9.4877 1.6075-10.284-0.12164-0.31699-0.41671-0.34385-3.0339-0.27617-1.9217 0.0497-2.9816 0.15743-3.1438 0.31958-0.28596 0.28595-0.0486 2.7027 0.71982 7.3289 0.35721 2.1506 0.55872 2.8938 0.8423 3.1066 0.49732 0.3732 2.5746 0.23869 3.0081-0.19477zm-3.9393-0.53983c0-0.20173-0.08885-0.83529-0.19744-1.4079-0.10859-0.57263-0.42528-2.6387-0.70375-4.5913-0.56121-3.9352-0.6197-4.0538-1.9959-4.0487-1.4684 6e-3 -1.4695 9e-3 -0.93528 3.2472 0.54295 3.2907 1.3068 6.4964 1.645 6.904 0.32654 0.39346 1.4154 0.65538 1.8363 0.44169 0.19309-0.098 0.35107-0.34331 0.35107-0.54505zm6.2636 0.1883c0.59657-0.46928 0.9446-1.625 1.6548-5.4951 0.28048-1.5284 0.56429-2.9954 0.6307-3.26 0.06641-0.2646 0.0641-0.70677-0.0051-0.98262-0.11294-0.44999-0.22736-0.50153-1.1133-0.50153-0.54307 0-1.0394 0.0841-1.1029 0.18691-0.06353 0.1028-0.29225 1.4795-0.50825 3.0593-0.21601 1.5798-0.54295 3.7452-0.72654 4.812-0.18359 1.0668-0.279 2.0824-0.21203 2.2569 0.16597 0.4325 0.77906 0.39886 1.3826-0.0759z" fill="#1b2619" stroke-width=".20061"/>
    <path id="path15226-0" d="m948.13 904.18c-5.8149-2.8513-2.3454-8.1889 1.8682-4.0985 1.7766-5.4295 8.301-3.5094 4.4277 2.3991 6.0173 2.906 2.2791 7.4316-2.6212 4.4859-1.4734 5.8226-9.6115 1.6708-3.6747-2.7865z" fill="#cf4f9a"/>
    <circle id="path16723-92" transform="rotate(-41.267)" cx="119.16" cy="1306.4" r="2.1051" fill="#b1cb65" fill-rule="evenodd" opacity=".78658" style="paint-order:fill markers stroke"/>
    <path id="path15226-96" d="m736.25 905.57c-7.2667-11.818 6.3134-6.4902 3.6975-0.71324 9.3918-3.0019 5.4882 6.2646-0.0527 4.0563-3.5121 8.0209-8.1951-1.139-3.6448-3.3431z" fill="#acad43"/>
    <circle id="path16723-7" cx="738.66" cy="906.74" r="1.7655" fill="#b2cb65" fill-rule="evenodd" opacity=".78658" style="paint-order:fill markers stroke"/>
    <path id="path15226-96-3" d="m1167 851.66c11.818-7.2667 6.4903 6.3134 0.7133 3.6975 3.0019 9.3917-6.2646 5.4882-4.0563-0.053-8.0209-3.5122 1.1389-8.1951 3.343-3.6448z" fill="#acad43"/>
    <circle id="path16723-7-8" transform="rotate(90)" cx="854.23" cy="-1166.3" r="1.7655" fill="#b2cb65" fill-rule="evenodd" opacity=".78658" style="paint-order:fill markers stroke"/>
    <path id="path15226-96-7" d="m870.31 871.4c-9.9103-10.567 3.5305-9.9591 3.4628-1.4794 4.9758-7.4128 8.8694 5.2522 0.80676 3.9756-2.2595 8.511-11.128 0.22842-4.2696-2.4962z" fill="#48c6a8"/>
    <circle id="path16723-7-3" transform="rotate(-12.215)" cx="668.64" cy="1037" r="1.7655" fill="#b2cb65" fill-rule="evenodd" opacity=".78658" style="paint-order:fill markers stroke"/>
    <path id="path15226-1" d="m508.04 1012.4c4.8057-5.1942 9.3066 0.1092 3.7052 3.2391 5.1272 3.56 1.0741 9.7885-3.8979 3.8836-4.9264 5.3889-8.4931 0.058-3.875-4.1487-5.6337-3.3657 1.2609-10.584 4.0677-2.974z" fill="#b87d93"/>
    <circle id="path16723-2" transform="rotate(65.388)" cx="1135.2" cy="-38.733" r="2.3001" fill="#bedd74" fill-rule="evenodd" opacity=".78658" style="paint-order:fill markers stroke"/>
    <path id="path15226-5" d="m355.65 1050.5c0.16046-5.5013 6.9474-2.5562 4.3653 2.8502 4.8651-2.2194 6.8455 6.3835-2.4332 4.8606 2.1735 5.6781-10.135 6.0258-4.0906-2.6539-5.4454-1.4718-4.9763-14.549 2.1585-5.0569z" fill="#53d8b6"/>
    <circle id="path16723-99" cx="357.56" cy="1054.2" r="1.9104" fill="#bddd73" fill-rule="evenodd" opacity=".78658" style="paint-order:fill markers stroke"/>
    <path id="path15226-88" d="m143.54 1021.8c3.9604-2.7026-1.0216-7.6177-3.2011-3.6739-3.5165-5.0824-9.69-1.0794-3.8516 3.853-5.3436 4.869-0.0717 8.4092 4.1014 3.8436 3.3234 5.5834 10.482-1.2313 2.9513-4.0227z" fill="#b5bd51"/>
    <circle id="path16723-43" transform="matrix(-.90846 -.41796 -.41796 .90846 0 0)" cx="-554.37" cy="869.8" r="2.2774" fill="#a7dc82" fill-rule="evenodd" opacity=".78658" style="paint-order:fill markers stroke"/>
    <path id="path15226-3" d="m52.842 860.18c-0.39114-4.4064 6.1093-1.7214 3.6717 1.5446 4.8469 1.001 3.2143 6.7777-1.7236 4.827-2.468 5.1967-7.06 1.0579-4.0299-2.9264-5.2834-2.0692-2.0256-10.742 2.0818-3.4453z" fill="#acac43"/>
    <ellipse id="path16723-3" transform="rotate(42.641)" cx="624.06" cy="598.17" rx="1.8279" ry="1.8378" fill="#b2cb65" fill-rule="evenodd" opacity=".78658" style="paint-order:fill markers stroke"/>
    <path id="path15226-29" d="m-3.841 899.02c2.7182-4.4593 7.4222-1.1653 4.3402 2.5722 6.7416-0.0263 6.1525 6.6474-2.6782 4.4931-3.1745 6.9719-7.8738 3.8245-3.38-3.0148-5.8747-1.4708-2.1151-12.099 1.718-4.0505z" fill="#48c6a8"/>
    <circle id="path16723-38" transform="rotate(48.588)" cx="675.57" cy="598.37" r="2.1226" fill="#b1ca65" fill-rule="evenodd" opacity=".78658" style="paint-order:fill markers stroke"/>
    <path id="path15226-15" d="m172.7 910.23c-4.0797-5.1012 0.63953-8.5333 3.0072-2.7686 2.9066-3.0261 7.4443 1.0081 2.4742 3.9498 4.8757 3.8144 0.2658 7.1579-3.072 2.317-2.7287 4.4114-6.667-1.6108-2.4094-3.4982z" fill="#aa6b84"/>
    <circle id="path16723-30" transform="rotate(-18.407)" cx="-120.94" cy="919.45" r="1.9104" fill="#b2cb65" fill-rule="evenodd" opacity=".78658" style="paint-order:fill markers stroke"/>
    <ellipse id="ellipse198902" cx="567.23" cy="1162.4" rx="139.32" ry="19.844" fill-rule="evenodd" opacity=".095528" style="paint-order:fill markers stroke"/>
   </g>
  </g>
 </g>
</svg>
