<?xml version="1.0" encoding="UTF-8"?>
<svg id="svg5" width="1200mm" height="1200mm" version="1.1" viewBox="0 0 1200 1200" xmlns="http://www.w3.org/2000/svg" xmlns:xlink="http://www.w3.org/1999/xlink">
 <defs id="defs77">
  <filter id="filter22301-4" x="-.020664" y="-.017012" width="1.0413" height="1.034" color-interpolation-filters="sRGB">
   <feGaussianBlur id="feGaussianBlur7" stdDeviation="0.16541507"/>
  </filter>
  <filter id="filter22301-2-81" x="-.0066803" y="-.0050868" width="1.0134" height="1.0102" color-interpolation-filters="sRGB">
   <feGaussianBlur id="feGaussianBlur10-32" stdDeviation="0.067466026"/>
  </filter>
  <filter id="filter21702-6" x="-.018299" y="-.01044" width="1.0366" height="1.0209" color-interpolation-filters="sRGB">
   <feGaussianBlur id="feGaussianBlur13-58" stdDeviation="0.15876734"/>
  </filter>
  <filter id="filter21702-9-3" x="-.023797" y="-.028326" width="1.0476" height="1.0567" color-interpolation-filters="sRGB">
   <feGaussianBlur id="feGaussianBlur16" stdDeviation="0.15584947"/>
  </filter>
 </defs>
 <g id="layer60" transform="translate(19.4 11.241)">
  <g id="layer4">
   <g id="g6576">
    <path id="path2-8" d="m733.81 493.65c-0.3035-0.36569 0.62199-3.8626 1.5947-7.3274 1.9966-7.1122 3.9064-16.197 5.1121-24.316 1.2091-8.1404 1.3786-34.54 0.27199-42.423-4.9944-35.578-18.693-66.337-41.229-92.578-5.3845-6.2693-16.158-16.974-21.792-21.652-29.279-24.315-64.778-39.491-104.36-44.612-5.3202-0.68817-14.802-1.0327-24.282-1.0327l1.3e-4 6e-5c-9.4796 0-18.959 0.34454-24.28 1.0327-24.145 3.1232-44.931 9.359-66.167 19.851-23.297 11.509-43.293 26.982-59.981 46.411-22.536 26.239-36.235 57-41.229 92.578-1.1092 7.9024-0.93731 34.289 0.27654 42.423l0.95559 6.404" fill="none" stroke="#000" stroke-width="2.1767" style="mix-blend-mode:normal"/>
    <g id="g6574" transform="matrix(3.5779 0 0 4.1461 182.36 34.148)">
     <path id="path6556" d="m121.68 49.966-6.6792-19.001c-0.51083 4.7016 1.1708 11.23-1.5325 14.105l8.2118 4.8965" fill-opacity="0"/>
     <path id="path6558" d="m82.573 62.629c0.22293-10.719 5.4569-13.927 10.281-31.741-0.47842 2.0552-0.44416 2.7081-0.66623 4.0622 1.6894-2.7 3.8288-5.0509 5.0683-8.1l-0.11096 4.1696c2.4342-5.6917 5.1116 1.86 5.6537-18.443 0 0 6.7664 5.8503 8.0648 15.59 0 0 1.4872-0.32039 1.1644-4.0291 2.116 2.4534 5.0354 8.0762 5.074 12.66 0.0115 1.3683 1.245-0.83342 1.223-5.4441 1.8477 19.14 14.175 26.458 9.3064 34.334-10.165 4.7399-26.353 4.4421-33.727 2.6282-4.3545-0.86333-8.1854-2.6572-11.332-5.687z" fill="#ff8080" stroke="#000" stroke-width=".47006"/>
     <path id="path6562" transform="matrix(-.65739 -.63763 .59987 -.61846 147.11 166.23)" d="m98.218 65.801-2.0118-3.3421c8.2347 8.3286 18.042 15.036 27.143 22.471l0.51699 0.86559c-8.13-9.2771-19.862-10.043-25.648-19.994z" color="#000000" filter="url(#filter22301-4)" opacity=".11401" style="-inkscape-stroke:none;mix-blend-mode:normal"/>
     <path id="path6566" transform="matrix(.49486 .7689 -.73496 .45255 122.81 -5.7023)" d="m19.484 48.041-1.7613-6.9427s6.8127 11.94 16.73 24.424c5.091 6.4092 13.094 12.833 13.094 12.833-11.116-3.7503-18.045-19.308-28.062-30.314z" color="#000000" filter="url(#filter22301-2-81)" opacity=".081433" style="-inkscape-stroke:none"/>
     <path id="path6568" transform="matrix(.7447 .53307 -.5015 .70059 66.713 -60.727)" d="m95.695 54.068c0.77549 1.4309 2.6003 3.189 3.7903 4.8998 8.8042 12.656 16.238 19.814 23.07 31.782 0.12664 0.22182 0.74551-0.21814 0.625-0.44336-3.0536-4.0772-15.26-24.716-29.013-40.828 2.4516 3.4501 1.7948 3.8274 1.527 4.5892z" color="#000000" filter="url(#filter21702-6)" opacity=".11401" style="-inkscape-stroke:none;mix-blend-mode:normal"/>
     <path id="path6570" transform="matrix(-.76524 0 0 1.2527 98.911 -57.663)" d="m27.712 98.146c0.33623-0.30019 5.4655-0.92118 5.901-3.0607-0.67932-1.1818-7.7128-1.945-12.912-3.5226-1.3199-3.3022-7.4123-10.878-7.6657-12.874 2.5401 4.6245 1.2568 15.657-8.5977 22.286z" color="#000000" filter="url(#filter21702-9-3)" opacity=".10749" style="-inkscape-stroke:none;mix-blend-mode:normal"/>
    </g>
   </g>
  </g>
 </g>
</svg>
