<?xml version="1.0" encoding="UTF-8" standalone="no"?>
<svg
   id="svg5"
   width="1200mm"
   height="1200mm"
   version="1.1"
   viewBox="0 0 1200 1200"
   sodipodi:docname="Cookie Plushie.svg"
   inkscape:version="1.3.2 (091e20e, 2023-11-25, custom)"
   xmlns:inkscape="http://www.inkscape.org/namespaces/inkscape"
   xmlns:sodipodi="http://sodipodi.sourceforge.net/DTD/sodipodi-0.dtd"
   xmlns="http://www.w3.org/2000/svg"
   xmlns:svg="http://www.w3.org/2000/svg">
  <defs
     id="defs1" />
  <sodipodi:namedview
     id="namedview1"
     pagecolor="#ffffff"
     bordercolor="#000000"
     borderopacity="0.25"
     inkscape:showpageshadow="2"
     inkscape:pageopacity="0.0"
     inkscape:pagecheckerboard="0"
     inkscape:deskcolor="#d1d1d1"
     inkscape:document-units="mm"
     inkscape:zoom="0.73289583"
     inkscape:cx="1994.8265"
     inkscape:cy="2762.3298"
     inkscape:window-width="1920"
     inkscape:window-height="1009"
     inkscape:window-x="1912"
     inkscape:window-y="-8"
     inkscape:window-maximized="1"
     inkscape:current-layer="g7" />
  <g
     id="layer60"
     transform="translate(19.4 11.241)">
    <g
       id="layer214">
      <g
         id="layer206"
         transform="translate(-19.4 -11.241)">
        <g
           id="g79524"
           transform="matrix(1.8578 0 0 1.8578 -500.73 -693.61)">
          <g
             id="g11"
             inkscape:label="Tail">
            <path
               id="path30371"
               d="m582.03 810.77s-14.205 28.68-10.663 43.024c2.5846 10.466 8.8043 19.053 20.532 18.558 9.1776-0.38775 16.703-5.2586 17.923-13.581 0.92695-6.3262 1.381-14.946-5.1045-17.313-3.206-1.1702-7.8046-0.57128-11.797 3.3176-3.8292 3.7297-3.6412-10.435-1.7015-15.862 4.0906-11.444-2.609-17.832-2.609-17.832z"
               fill="#2c2c2c"
               stroke="#000"
               stroke-width=".98368" />
            <path
               id="path41928-24-3"
               d="m 595.16934,858.94398 c -1.63986,0.31793 -18.11716,5.68494 -15.23571,-5.53376 1.47951,-5.76036 -3.85488,-2.10383 -7.13805,4.80252 0.11889,1.82608 0.73271,2.44097 0.95052,2.92375 0.33919,0.75184 2.60269,4.65013 3.92486,5.76877 1.06663,0.90244 2.71573,1.83089 5.21857,3.63596 3.06286,2.20896 9.83859,1.95748 11.13257,1.70124 12.93322,-2.56111 12.61733,-6.56629 12.76911,-7.05786 1.76393,-5.71291 -5.75667,-25.94122 -5.69044,-20.23711 0.10005,8.61646 5.89728,15.41684 -2.11348,22.78454 -4.20711,3.86938 -11.48369,1.09278 -13.14442,0.3749 -2.5079,-1.08409 -5.19914,-2.88716 -4.64614,-2.93921 2.63637,-0.24814 14.71633,-3.31426 13.97261,-6.22374 z"
               fill="#ffa000"
               stroke="#000000"
               stroke-dasharray="1.06, 1.06"
               stroke-width="0.170362"
               sodipodi:nodetypes="cscsssssssssc"
               transform="translate(4.9341515e-6)"
               style="stroke-width:0.26913554;stroke-dasharray:1.67457332,1.67457332;stroke-dashoffset:0" />
            <path
               id="path41928"
               d="m 607.6215,863.71662 c 0.3377,-2.3047 2.27848,-5.57034 2.54895,-8.90532 0.47194,-5.81925 -1.33219,-11.84962 -5.45495,-13.3543 -7.50123,1.18727 -2.09534,5.7211 -0.5143,10.7187 2.01472,6.36841 -0.26549,17.75076 3.4203,11.54092 z"
               fill="#ffa000"
               stroke="#000000"
               stroke-dasharray="1.06, 1.06"
               stroke-width="0.265"
               style="fill:#ffffff;fill-opacity:1;stroke-width:0.26913554;stroke-dasharray:1.07654215,1.07654215;stroke-dashoffset:0"
               sodipodi:nodetypes="cscsc"
               transform="translate(4.9341515e-6)" />
            <path
               id="path41928-24"
               d="m 584.04809,848.62679 c -0.31719,-3.97711 -6.00862,-17.5233 -2.91241,-24.93302 2.51953,-6.02962 3.60139,-10.05606 0.83085,-11.06722 -1.82181,0.28835 -1.90575,0.82348 -1.94758,1.65727 -0.0705,1.40571 -1.56161,4.48599 -2.67764,7.6926 -0.90034,2.58687 -4.4597,10.1995 -5.83272,16.898 -0.7498,3.65803 -0.97959,8.54267 -0.72793,11.68282 0.22872,2.85395 0.90295,4.07566 1.03148,5.28363 0.17083,1.60549 1.08737,-3.96821 2.12505,-9.8038 1.08155,-6.08234 2.88042,-12.60932 2.93235,-11.26813 0.24756,6.39391 4.27586,15.66157 7.17855,13.85785 z"
               fill="#ffa000"
               stroke="#000000"
               stroke-dasharray="1.06, 1.06"
               stroke-width="0.265"
               transform="translate(4.9341515e-6)"
               sodipodi:nodetypes="cscsssssssc"
               style="stroke-width:0.26913554;stroke-dasharray:1.07654215,1.07654215;stroke-dashoffset:0" />
            <path
               id="path43407"
               d="m582.03 810.77s-14.205 28.68-10.663 43.024c2.5846 10.466 8.8043 19.053 20.532 18.558 9.1776-0.38775 16.703-5.2586 17.923-13.581 0.92695-6.3262-11.83 6.902-18.315 4.5349-3.206-1.1702-10.723-10.496-9.7647-16.752 1.6984-11.093 5.1235-14.5 7.0632-19.927 4.0906-11.444-0.19551-15.545-0.19551-15.545z"
               opacity=".30691"
               transform="translate(4.9341515e-6)" />
            <path
               id="path13"
               d="m582.03 810.77s-14.205 28.68-10.663 43.024c2.5846 10.466 8.8043 19.053 20.532 18.558 9.1776-0.38775 16.703-5.2586 17.923-13.581 0.92695-6.3262 1.381-14.946-5.1045-17.313-3.206-1.1702-7.8046-0.57128-11.797 3.3176-3.8292 3.7297-3.6412-10.435-1.7015-15.862 4.0906-11.444-2.609-17.832-2.609-17.832z"
               fill="#2c2c2c"
               stroke="#000"
               stroke-width=".98368"
               style="fill:none" />
          </g>
          <g
             id="g3"
             transform="translate(4.9341515e-6)"
             inkscape:label="Body">
            <path
               id="path28800"
               d="m566.41 768.7s-11.199 25.853-8.9317 38.993c1.0998 6.3735 3.988 15.692 10.42 16.368 4.6964 0.49308 9.9242-10.109 9.9242-10.109l15.382 0.48139s5.6341 11.964 10.917 11.554c6.4059-0.49742 9.9216-9.5386 10.917-15.886 2.2307-14.233-12.405-41.4-12.405-41.4z"
               fill="#2c2c2c"
               stroke="#000"
               stroke-width="1.0278"
               transform="translate(0)" />
            <path
               id="path39736-9"
               d="m 579.19688,812.88608 c 0,0 -5.6341,11.964 -10.917,11.554 -6.4059,-0.49742 -9.9216,-9.5386 -10.917,-15.886 0.81163,-1.85535 -0.92871,-5.14569 -0.0172,-6.46641 0.91545,-1.32644 2.16418,2.62788 3.17602,1.79964 1.08236,-0.88598 -1.22704,-5.4904 -0.083,-5.88371 2.17602,-0.74811 5.0901,2.58048 7.42191,3.13072 2.12156,0.50063 3.08954,5.59571 4.94813,6.5062 6.48074,3.17481 11.52375,3.76856 6.38721,5.24616 z"
               fill="#ffa000"
               stroke="#000000"
               stroke-dasharray="1.06, 1.06"
               stroke-width="0.265"
               style="display:inline"
               sodipodi:nodetypes="cccssssscc" />
            <path
               id="path43409"
               d="m566.41 768.7s-11.199 25.853-8.9317 38.993c1.0998 6.3735 3.988 15.692 10.42 16.368 4.6964 0.49308 9.9242-10.109 9.9242-10.109l15.382 0.48139s6.6737 14.727 10.917 11.554c-10.917-11.554-0.96016-14.79-4.1844-18.966-1.7011-2.2037-9.4326 1.8706-12.382 1.5666-5.461-0.5628-6.7108-3.7971-8.8464-2.6783-9.173 4.8055-18.201-0.63768-2.1149-11.072-6.7782 3.9355-11.549-7.8878-9.241-12.313 6.0383-11.58 35.28-13.824 35.28-13.824z"
               opacity=".30691"
               transform="translate(0)" />
            <path
               id="path39736"
               d="m 593.2,814.44 c 0,0 5.6341,11.964 10.917,11.554 6.4059,-0.49742 9.9216,-9.5386 10.917,-15.886 -1.59543,-3.6471 -3.55516,-2.08016 -5.47093,-3.77507 -11.20637,-9.91452 -25.4726,5.4869 -16.36207,8.10767 z"
               fill="#ffa000"
               stroke="#000000"
               stroke-dasharray="1.06, 1.06"
               stroke-width="0.265"
               style="display:inline"
               sodipodi:nodetypes="cccscc" />
            <path
               id="path28800-9"
               d="m 603.40059,770.67227 c 1.1703,3.0965 8.43276,19.30163 9.73366,23.80183 -1.44938,0.45351 -2.7774,0.80274 -3.99137,1.05908 -0.3214,0.0679 0.15873,-9.64555 -1.10027,-11.00299 -1.7341,-1.86969 -5.28829,4.47017 -5.38652,4.85264 -1.17183,4.56258 -9.26406,2.10797 -9.53109,1.04533 -0.40539,-1.61324 10.16556,-6.06492 9.87822,-6.04646 -14.10659,0.90621 -7.8894,-15.788 0.39737,-13.70943 z"
               fill="#ffa000"
               stroke="#000000"
               stroke-dasharray="1.06, 1.06"
               stroke-width="0.265"
               style="display:inline"
               sodipodi:nodetypes="ccsssssc" />
            <path
               id="path41928-1"
               d="m 608.08247,824.47758 c 4.58069,-3.35468 0.59718,-4.8198 -4.38448,-5.46475 -5.00765,0.37959 -6.22347,2.12029 -5.32919,3.73243 0.78111,1.40813 3.17,3.04035 5.24134,3.38834 1.18951,0.19985 3.50379,-0.87451 4.47233,-1.65602 z"
               fill="#ffa000"
               stroke="#000000"
               stroke-dasharray="1.06, 1.06"
               stroke-width="0.127853"
               style="fill:#fffdfb;fill-opacity:1;stroke-width:0.269136;stroke-dasharray:1.07654, 1.07654;stroke-dashoffset:0"
               sodipodi:nodetypes="ccssc" />
            <path
               id="path41928-8"
               d="m 599.92972,794.51482 c 3.99089,-3.36217 0.90121,-4.63581 -3.43901,-5.2822 -4.36288,0.38043 -4.87192,1.68683 -4.09278,3.30257 0.68053,1.41127 2.25392,2.85237 4.05856,3.20114 1.03635,0.2003 2.6294,-0.43826 3.47323,-1.22151 z"
               fill="#ffa000"
               stroke="#000000"
               stroke-dasharray="1.06, 1.06"
               stroke-width="0.127853"
               style="fill:#fffdfb;fill-opacity:1;stroke-width:0.251493;stroke-dasharray:1.00597, 1.00597;stroke-dashoffset:0"
               sodipodi:nodetypes="ccssc"
               transform="translate(0)" />
            <path
               id="path41928-2"
               d="m 571.95276,821.88257 c 3.28085,-2.88183 1.20652,-1.60574 -1.62933,-2.04507 -0.97446,-0.15096 -1.19057,-2.2616 -2.46367,-2.42378 -5.97562,0.009 -6.51509,3.1296 -4.2423,5.04899 0.98501,0.83186 3.19061,1.30491 4.584,1.31287 1.04863,0.006 2.93634,-1.23542 3.7513,-1.89301 z"
               fill="#ffa000"
               stroke="#000000"
               stroke-dasharray="1.06, 1.06"
               stroke-width="0.127853"
               style="fill:#fffdfb;fill-opacity:1;stroke-width:0.269136;stroke-dasharray:1.07654, 1.07654;stroke-dashoffset:0"
               sodipodi:nodetypes="cscssc" />
            <path
               id="path28800-9-3"
               d="m 590.61411,773.97424 c -2.95123,-0.79544 -7.7145,-1.71859 -11.57163,-0.96107 0.0239,0.62856 0.7499,1.17179 0.42445,1.48938 -1.44389,1.40905 -0.62058,0.81177 0.41857,1.01707 0.32276,0.0638 -0.004,0.94319 0.29629,1.21427 0.36898,0.33351 1.33662,0.0706 1.38476,0.17476 0.17099,0.36991 -1.15272,0.74008 -1.25858,1.30091 -0.0973,0.51559 1.58881,-0.61157 1.46118,0.092 -0.68693,3.78667 -2.23447,11.74165 -4.21967,16.4825 -2.21977,9.30371 -2.69406,12.11202 -1.69638,14.35989 0.56969,1.28354 1.6193,2.38436 3.09793,4.40738 l 13.66634,0.46629 c 4.00599,-4.24995 6.0663,-3.73069 1.91685,-19.5041 -4.34008,-3.17713 -4.85785,-10.73922 -5.37298,-15.81044 -0.18501,-1.82128 2.00814,-3.83089 1.45287,-4.72885 z"
               fill="#ffa000"
               stroke="#000000"
               stroke-dasharray="1.06, 1.06"
               stroke-width="0.265"
               style="display:inline;fill:#ffffff;fill-opacity:1;stroke-width:0.269136;stroke-dasharray:1.07654, 1.07654;stroke-dashoffset:0"
               sodipodi:nodetypes="ccsssssscscccsc" />
            <path
               id="path28800-9-8"
               d="m 567.61491,782.50024 c 0.58294,1.5424 -2.33238,2.91987 0.31431,4.12885 1.10056,0.50272 3.04091,0.91927 4.98635,1.3939 0.43409,0.10591 -0.85359,-1.4712 -0.48429,-2.19837 0.24472,-0.48189 2.14348,-0.23632 2.41472,-0.15683 0.31146,0.0913 2.12459,0.34979 2.46506,1.20807 0.31123,0.78459 -0.84769,2.17417 -0.60739,2.27124 1.12567,0.4547 1.94689,0.9932 2.1428,1.67093 -0.31233,1.48603 -1.43697,3.77054 -2.66991,4.18544 -5.45558,1.83589 -5.8029,-1.26661 -7.03202,-3.82683 -0.60767,-1.26576 -5.25796,-5.58035 -6.33567,-9.03746 -1.17124,-3.75712 1.26123,-6.65102 1.54093,-7.43947 0.12909,-0.36392 0.54319,3.93363 1.57682,6.31237 0.3677,0.84622 1.36543,1.40718 1.68829,1.48816 z"
               fill="#ffa000"
               stroke="#000000"
               stroke-dasharray="1.06, 1.06"
               stroke-width="0.265"
               style="display:inline"
               sodipodi:nodetypes="csssssscsssssc" />
            <path
               id="path41928-8-0"
               d="m 576.7079,794.55685 c 3.99089,-3.36217 2.74727,-3.71278 -1.59295,-4.35917 -0.69583,0.0607 -0.51471,5.07662 -1.10383,5.14243 -0.7357,0.0822 -1.55764,-2.81284 -2.15252,-3.10895 -1.91555,-0.95351 -2.84213,-0.44728 -2.34243,0.58896 0.68055,1.41126 1.91386,2.60947 3.7185,2.95824 1.03635,0.2003 2.6294,-0.43826 3.47323,-1.22151 z"
               fill="#ffa000"
               stroke="#000000"
               stroke-dasharray="1.06, 1.06"
               stroke-width="0.127853"
               style="fill:#fffdfb;fill-opacity:1;stroke-width:0.251493;stroke-dasharray:1.00597, 1.00597;stroke-dashoffset:0"
               sodipodi:nodetypes="ccssssc"
               inkscape:transform-center-x="-0.99325344"
               inkscape:transform-center-y="1.2471762" />
            <path
               id="path12"
               d="m566.41 768.7s-11.199 25.853-8.9317 38.993c1.0998 6.3735 3.988 15.692 10.42 16.368 4.6964 0.49308 9.9242-10.109 9.9242-10.109l15.382 0.48139s5.6341 11.964 10.917 11.554c6.4059-0.49742 9.9216-9.5386 10.917-15.886 2.2307-14.233-12.405-41.4-12.405-41.4z"
               fill="#2c2c2c"
               stroke="#000"
               stroke-width="1.0278"
               transform="translate(0)"
               style="fill:none" />
          </g>
          <g
             id="g10"
             inkscape:label="Arms"
             transform="translate(4.9341515e-6)">
            <path
               id="path31327"
               d="m589.22 778.4s1.1369 17.259 7.8707 17.396c5.8689 0.11938 7.5589-14.869 7.5589-14.869"
               fill="none"
               stroke="#000"
               stroke-linecap="round"
               stroke-width=".98644" />
            <path
               id="path31327-2"
               d="m 581.54,778.43 c 0,0 -1.1371,17.178 -7.8719,17.315 -5.8697,0.11884 -7.56,-14.799 -7.56,-14.799"
               fill="none"
               stroke="#000000"
               stroke-linecap="round"
               stroke-width="0.98419"
               inkscape:label="path31327-2"
               style="display:inline" />
            <path
               id="path53551"
               d="m 588.89,778.57 c 0,0 -1.4702,14.32 3.3662,18.006 1.9118,1.4568 6.7323,-0.82565 6.7323,-0.82565 -7.14233,0.8169 -7.57607,-6.15613 -8.76017,-12.34602 -0.1101,-0.57558 -0.2267,-1.14438 -0.35577,-1.69951 -0.26023,-1.11919 -0.5712,-2.18284 -0.98206,-3.13447 z"
               opacity="0.307"
               stroke="#000000"
               stroke-width="0.26458px"
               sodipodi:nodetypes="cccsscc" />
          </g>
          <g
             id="g2"
             inkscape:label="Cat Collar">
            <path
               id="path32117"
               d="m566.66 769.41-0.97917 2.1759c12.635 3.2803 24.479 3.8842 37.836-0.34885l-1.3055-2.5023c-12.268 4.4837-23.574 4.1616-35.552 0.67522z"
               fill="#42a05d"
               stroke="#000"
               stroke-width=".22661px"
               style="fill:#56788c;fill-opacity:1" />
            <path
               id="path52302"
               d="m 566.6,768.4 -1.0427,3.2556 c 8.4368,2.1904 16.55,2.706 24.986,1.5465 4.1978,-0.57695 8.4757,-1.5686 12.914,-2.975 l -1.03069,-1.23129 c -12.14838,3.27303 -24.02798,3.11706 -36.06727,0.60651 z"
               opacity="0.31504"
               transform="translate(4.9341515e-6)"
               sodipodi:nodetypes="ccscccc" />
          </g>
          <g
             id="g1"
             inkscape:label="Bell"
             transform="translate(4.9341515e-6)"
             sodipodi:insensitive="true"
             style="display:none">
            <ellipse
               id="path32635"
               cx="585.45001"
               cy="775.54999"
               rx="2.9919"
               ry="2.8015001"
               fill="#ffbd00"
               fill-rule="evenodd"
               stroke="#000000"
               stroke-linecap="round"
               stroke-width="1.0278"
               style="paint-order:markers stroke fill" />
            <path
               id="path32635-2"
               d="m 588.44,775.55 c 0,1.5472 -1.3395,2.8015 -2.9919,2.8015 -1.6524,0 -2.9919,-1.2543 -2.9919,-2.8015 0,-0.84076 0.39553,-1.595 1.0219,-2.1085 -0.76049,1.8518 1.6928,5.9167 4.9619,2.1085 z"
               fill-rule="evenodd"
               opacity="0.26829"
               stroke-linecap="round"
               stroke-width="1.0278"
               style="paint-order:markers stroke fill" />
            <path
               id="path32912"
               d="m 584.92,778.39 0.28849,-1.6828 -0.98377,-0.5723 c 0.81374,-0.4742 1.6828,-0.38291 2.6782,-0.0812 l -1.0309,0.56694 0.36541,1.7982 c -0.42096,0.0877 -0.8469,0.0788 -1.3174,-0.0289 z"
               fill="#715b00"
               stroke="#000000"
               stroke-linecap="round"
               stroke-linejoin="round"
               stroke-width="0.22697" />
            <path
               id="path33520"
               d="m 584.87,773.26 c 0,0 1.358,-0.17362 1.9311,0.12239 0.43527,0.22484 0.92475,1.1424 0.92475,1.1424 0,0 -0.88321,-0.50105 -1.3463,-0.70716 -0.49006,-0.21811 -1.5095,-0.55758 -1.5095,-0.55758 z"
               fill="#ffffff"
               opacity="0.77846" />
          </g>
          <g
             id="g7"
             inkscape:label="Base Head"
             transform="translate(4.9341515e-6)">
            <path
               id="path18810"
               inkscape:label="Head"
               d="m 605.59273,722.86847 c -6.25059,2.5764 -12.75165,4.81183 -14.24314,10.39592 -6.305,-1.02011 -10.34446,-1.20356 -17.14686,0.26453 -1.98799,-6.33309 -9.18317,-8.58455 -15.87816,-10.45795 -1.0027,6.19999 -1.917,12.36382 2.4453,16.36912 v 2.8e-4 c -1.18355,2.10999 -1.85106,4.60612 -1.65171,6.91392 -6.82072,4.66689 -8.21399,9.31309 -7.09562,13.05759 l -0.23583,0.39948 c -0.72219,1.66402 -3.22982,5.20003 -2.51595,5.05026 l 3.62414,-0.81139 0.47287,2.42805 3.42275,-0.30291 c 0.11968,0.22139 -0.23068,1.33348 0.0565,1.56436 0.46289,0.37216 2.12647,-0.27694 2.95655,0.10431 0.69612,0.31971 1.50657,0.63931 2.40663,0.95298 0.31871,0.11108 0.54558,0.6336 0.88566,0.74296 0.41148,0.1323 0.94103,-0.14898 1.38023,-0.02 0.79015,0.23203 1.622,0.45789 2.48424,0.6751 0.66931,0.16861 1.04761,1.19079 1.74823,1.34768 0.75813,0.16978 1.84063,-0.52694 2.62249,-0.37385 0.76123,0.14906 1.39321,0.63318 2.16435,0.76355 0.45736,0.0773 1.05276,-0.19262 1.51013,-0.12267 1.96404,0.30039 3.91624,0.53032 5.75428,0.66591 0.92497,0.0682 1.93905,0.0718 2.57214,0.64533 0.582,0.52724 1.24746,-0.50376 1.78634,-0.51765 1.65356,-0.0426 3.3345,-0.58343 4.97627,-0.31209 0.83123,0.13737 1.48885,0.60807 2.17715,0.51904 0.77959,-0.10083 1.45146,-0.97018 2.21916,-1.09623 1.84342,-0.30267 3.64499,-0.67677 5.36986,-1.11625 0.57244,-0.14586 1.41128,0.25069 1.96548,0.0907 0.53654,-0.15494 0.78917,-0.86611 1.30623,-1.03392 0.62152,-0.20172 1.67484,0.4119 2.2645,0.19221 0.68704,-0.25598 1.52264,-1.48583 2.16046,-1.7652 1.33482,-0.58465 1.93656,-1.08199 3.01219,-1.76158 0.49919,-0.3154 1.24145,0.52688 1.74489,0.74296 0.65681,0.28193 0.32979,-2.25899 0.63226,-2.5382 0.40609,-0.37487 3.12421,1.55999 3.44248,1.16545 0.57472,-0.79457 -1.9088,-3.26103 -2.30453,-4.33287 0.28354,-0.53772 0.51911,-1.1041 0.69618,-1.69421 1.15586,-3.85211 -0.18127,-8.71525 -6.94336,-13.21624 -0.8598,-3.4341 -1.36074,-5.1417 -2.67534,-7.0875 2.44544,-4.91399 0.86955,-11.35546 0.43059,-16.49095 z"
               style="display:inline;fill:#2c2c2c;fill-opacity:1;stroke:#000000;stroke-width:1.00011;stroke-dasharray:none;stroke-opacity:1"
               sodipodi:nodetypes="cccccccccccccssssssssssssssssssssssssccccccc" />
            <path
               style="display:inline;fill:#ffffff;fill-opacity:1;stroke:#000000;stroke-width:0.269136;stroke-linecap:round;stroke-linejoin:round;stroke-dasharray:1.07654, 1.07654;stroke-dashoffset:0;stroke-opacity:1"
               d="m 556.79056,766.17534 c 0.11968,0.22139 -0.23085,1.33348 0.0563,1.56436 0.4629,0.37216 2.12658,-0.27689 2.95666,0.10436 0.69612,0.31971 1.5066,0.63925 2.40667,0.95292 0.31871,0.11108 0.54561,0.63363 0.88569,0.74299 0.41148,0.1323 0.94085,-0.14905 1.38005,-0.0201 0.79015,0.23203 1.62201,0.45795 2.48425,0.67516 0.66931,0.16861 1.04777,1.19075 1.74839,1.34764 0.75813,0.16978 1.84066,-0.5268 2.62252,-0.37371 0.76123,0.14906 1.3931,0.633 2.16425,0.76337 0.45736,0.0773 1.05278,-0.19241 1.51015,-0.12246 1.96404,0.30039 3.91629,0.53011 5.75433,0.6657 0.92497,0.0682 1.93895,0.0719 2.57204,0.64547 0.582,0.52724 1.24756,-0.50379 1.78644,-0.51768 1.65356,-0.0426 3.3344,-0.58337 4.97617,-0.31203 0.83123,0.13738 1.48881,0.60798 2.17711,0.51895 0.77959,-0.10083 1.45146,-0.97022 2.21916,-1.09627 1.84342,-0.30267 3.64522,-0.67677 5.37009,-1.11625 0.57244,-0.14586 1.41122,0.25071 1.96542,0.0907 0.53654,-0.15494 0.78911,-0.86604 1.30617,-1.03385 0.62152,-0.20172 1.6747,0.41182 2.26436,0.19213 0.68704,-0.25598 1.52284,-1.48577 2.16066,-1.76514 1.33482,-0.58465 1.93646,-1.08189 3.01209,-1.76148 0.49919,-0.3154 1.24144,0.52677 1.74488,0.74285 0.65681,0.28193 0.32995,-2.25887 0.63242,-2.53808 0.40609,-0.37487 3.12411,1.55977 3.44238,1.16525 0.26874,-0.33313 -1.84913,-2.99271 -1.64787,-3.33904 0.32435,-0.55799 -0.54691,-0.57394 -0.41258,-1.16361 -1.32794,0.73351 -1.523,0.86002 -2.79676,1.49936 -0.90697,0.45524 -1.14865,3.22579 -1.80657,2.51144 -2.00809,-2.18033 -2.3545,-0.53753 -3.08082,-0.22244 -1.0228,0.44371 -1.59042,1.53694 -2.57802,1.921 -0.63144,0.24555 -1.69307,-0.20089 -2.3106,0.0213 -0.656,0.23604 -1.30425,0.45913 -1.94498,0.66974 -0.40727,0.13388 -0.497,1.573 -0.82412,1.30966 -0.40092,-0.32275 -1.18751,-0.6803 -1.58254,-0.56618 -3.48399,1.00653 -6.7409,1.64081 -9.80995,1.98708 -0.45902,0.0518 -0.67095,1.31165 -1.1217,1.35083 -0.52154,0.0453 -1.28052,-1.13207 -1.79136,-1.10279 -14.47198,0.97814 -32.37605,-11.30965 -32.48242,-11.33918 -0.72219,1.66402 -2.30223,3.70575 -2.92807,5.63425 l 3.62406,-0.81131 0.47277,2.42794 z"
               id="path11-9"
               sodipodi:nodetypes="csssssssssssssssssssssssssscsssssssssssccccc" />
            <path
               id="path16"
               d="m 597.37431,736.9207 c 5.36101,2.3749 4.31851,6.41462 5.17821,9.84862 1.09586,-2.77727 2.52956,-3.08665 4.23202,-1.98419 l 0.56475,2.04678 c 0.37817,0.31666 3.75048,2.6434 5.01305,4.43977 2.68065,3.81401 2.20201,6.28381 1.94446,7.5238 -1.92129,0.70987 -2.80831,-5.11269 -6.35392,-2.13131 -7.30173,6.13977 -14.1419,8.19831 -17.03333,8.22622 -0.11925,10e-4 -0.47631,-0.0531 -0.96695,-0.0407 -1.84472,0.0467 -2.88425,0.22489 -4.9599,-1.3936 -1.41661,1.78763 -0.39284,9.45809 -1.01973,9.64212 -0.68441,0.20091 -0.96696,-0.91944 -1.73179,-0.4369 -0.50287,0.31725 -1.74899,-0.45008 -2.37633,-0.42225 -0.71649,0.0318 -1.24913,-0.31313 -2.00401,-0.34479 -0.6298,-0.0264 -1.13342,0.0291 -1.78211,-0.0378 -0.68061,-0.0702 -1.64444,0.01 -2.33779,-0.10139 -0.72539,-0.11634 -0.94025,-0.42579 -1.67038,-0.58266 -0.74914,-0.16095 -1.49829,0.24188 -2.24236,0.0429 -0.92394,-0.24708 -0.98127,0.92111 -1.3989,0.0739 -0.3777,-0.76618 -2.12277,-1.20848 -2.8979,-1.51115 -0.75624,-0.29529 -1.32779,-0.0402 -2.05326,-0.3272 -1.33759,-1.35299 -1.53504,-0.34756 -3.49138,-1.50747 -0.43959,-0.25716 -2.50237,0.2144 -2.71176,-0.29345 -0.17916,-0.43455 0.0527,-1.26903 -0.27495,-1.50091 -0.43315,-0.30653 -3.04151,0.52137 -3.42348,0.22332 -0.21346,-0.16656 -0.44949,-1.74138 -0.4849,-2.17798 -0.0467,-0.57613 -3.27227,0.71947 -3.49492,0.52278 -1.1434,-1.01009 1.80537,-4.29131 1.88184,-4.45783 5.16011,-11.23679 17.85259,-5.71687 22.60319,-3.0046 0.1226,10.56969 7.40636,6.9764 7.36861,6.82348 -0.19113,-0.77447 -0.13451,-1.62128 0.59261,-1.4654 2.3128,0.49583 3.21805,-1.63097 3.6638,-2.05641 0.23394,-0.22328 3.65594,2.98024 4.40221,3.01395 5.46158,0.24674 3.50723,-4.0122 1.83817,-5.09651 -7.05074,-4.58052 -6.14654,-15.13961 -4.83956,-19.35261 2.4743,-7.9758 4.90568,-4.57549 10.26669,-2.20059 z"
               fill="#ffa000"
               style="display:inline;stroke:#000000;stroke-width:0.269136;stroke-dasharray:1.07654, 1.07654;stroke-dashoffset:0;stroke-opacity:1"
               sodipodi:nodetypes="ccccscssscsssssssssssssssssscssssscc" />
            <path
               id="path18810-0"
               d="m 597.37431,736.9207 c 5.36101,2.3749 4.31851,6.41462 5.17821,9.84862 1.09586,-2.77727 2.52956,-3.08665 4.23202,-1.98419 l 0.56475,2.04678 c 0.37817,0.31666 3.75048,2.6434 5.01305,4.43977 2.68065,3.81401 2.20201,6.28381 1.94446,7.5238 -1.92129,0.70987 -2.80831,-5.11269 -6.35392,-2.13131 -7.30173,6.13977 -14.1419,8.19831 -17.03333,8.22622 -0.11925,10e-4 -0.47631,-0.0531 -0.96695,-0.0407 -1.84472,0.0467 -2.88425,0.22489 -4.9599,-1.3936 -1.41661,1.78763 -0.66765,7.22524 -1.29454,7.40927 -0.68441,0.20091 -1.41353,-0.0263 -2.17836,0.45624 -0.50287,0.31725 -1.26807,-0.62184 -1.89541,-0.59401 -0.71649,0.0318 -1.31783,0.47696 -2.07271,0.4453 -0.6298,-0.0264 -0.85861,-0.79531 -1.5073,-0.86222 -0.68061,-0.0702 -1.85055,0.8686 -2.5439,0.7574 -0.72539,-0.11634 -1.45552,-1.38763 -2.18565,-1.5445 -0.74914,-0.16095 -1.49829,0.7915 -2.24236,0.59253 -0.92394,-0.24708 -2.97366,-1.75831 -3.39129,-2.60549 -0.3777,-0.76618 -0.95482,1.23048 -1.72995,0.92781 -0.75624,-0.29529 -0.94992,-1.7234 -1.67539,-2.01043 -0.383,-0.15154 -0.79528,0.96615 -1.1674,0.81159 -0.22412,-0.0931 -1.00405,-0.92174 -1.21815,-0.80622 -1.09302,0.58975 -0.79154,-1.10209 -1.5524,-1.54719 -0.43959,-0.25716 -1.88405,0.31746 -2.09344,-0.19039 -0.17916,-0.43455 0.60236,-1.13163 0.27468,-1.36351 -0.43315,-0.30653 -1.28958,-0.13131 -1.67155,-0.42936 -0.21346,-0.16656 -1.92661,-0.0238 -1.96202,-0.4604 -0.0467,-0.57613 1.29649,-1.34162 1.07384,-1.53831 -1.1434,-1.01009 -2.55728,-0.47829 -2.48081,-0.64481 5.16011,-11.23679 17.85259,-5.71687 22.60319,-3.0046 0.1226,10.56969 7.40636,6.9764 7.36861,6.82348 -0.19113,-0.77447 -0.13451,-1.62128 0.59261,-1.4654 2.3128,0.49583 3.21805,-1.63097 3.6638,-2.05641 0.23394,-0.22328 3.65594,2.98024 4.40221,3.01395 5.46158,0.24674 3.50723,-4.0122 1.83817,-5.09651 -7.05074,-4.58052 -6.14654,-15.13961 -4.83956,-19.35261 2.4743,-7.9758 4.90568,-4.57549 10.26669,-2.20059 z"
               fill="#ffa000"
               style="display:none;stroke:#000000;stroke-width:0.269136;stroke-dasharray:1.07654, 1.07654;stroke-dashoffset:0;stroke-opacity:1"
               sodipodi:nodetypes="ccccscssscsssssssssssssssssssscssssscc" />
            <path
               style="display:inline;opacity:1;fill:#ffffff;fill-opacity:1;stroke:#000000;stroke-width:0.269135;stroke-linecap:round;stroke-linejoin:round;stroke-dasharray:1.07654, 1.07654;stroke-dashoffset:0;stroke-opacity:1"
               d="m 582.74586,764.47689 c 0,0 -1.39544,2.72658 -2.40462,3.09164 -1.90499,0.6891 -5.16561,0.75689 -5.97716,-1.09925 -0.32578,-0.74512 0.5799,-1.69358 1.30535,-2.0611 1.49481,-0.75729 3.34061,0.28623 5.01532,0.34352 0.18311,0.006 0.54964,0 0.54964,0"
               id="path14"
               sodipodi:nodetypes="cssssc" />
            <path
               style="display:inline;opacity:1;fill:#ffa000;fill-opacity:1;stroke:#000000;stroke-width:0.269136;stroke-linecap:round;stroke-linejoin:round;stroke-dasharray:1.07654, 1.07654;stroke-dashoffset:0;stroke-opacity:1"
               d="m 590.3348,772.21245 c 0.83123,0.13738 1.59186,0.47058 2.28016,0.38155 0.77959,-0.10083 2.06979,-1.00458 2.83749,-1.13063 1.84342,-0.30267 3.19865,-0.47066 4.92352,-0.91014 0.57244,-0.14586 0.999,0.28506 1.5532,0.12505 0.53654,-0.15494 1.09828,-0.86604 1.61534,-1.03385 0.62152,-0.20172 1.64034,0.13701 2.23,-0.0827 0.68704,-0.25598 1.90071,-1.86363 2.53853,-2.143 l -4.17788,-1.97484 c -0.63144,0.24555 -1.69307,-0.20089 -2.3106,0.0213 -0.656,0.23604 -1.30425,0.45913 -1.94498,0.66974 -0.40727,0.13388 -0.497,1.573 -0.82412,1.30966 -0.40092,-0.32275 -1.18751,-0.6803 -1.58254,-0.56618 -3.48399,1.00653 -6.7409,1.64081 -9.80995,1.98708 -0.45902,0.0518 -0.84271,3.5445 -1.29346,3.58368 z"
               id="path17"
               sodipodi:nodetypes="cssssssccssssscc" />
            <path
               style="display:none;opacity:1;fill:#ffa000;fill-opacity:1;stroke:#000000;stroke-width:0.269136;stroke-linecap:round;stroke-linejoin:round;stroke-dasharray:1.07654, 1.07654;stroke-dashoffset:0;stroke-opacity:1"
               d="m 590.16304,770.83839 c 0.83123,0.13738 1.48881,0.60798 2.17711,0.51895 0.77959,-0.10083 1.45146,-0.97022 2.21916,-1.09627 1.84342,-0.30267 3.64522,-0.67677 5.37009,-1.11625 0.57244,-0.14586 1.41122,0.25071 1.96542,0.0907 0.53654,-0.15494 0.78911,-0.86604 1.30617,-1.03385 0.62152,-0.20172 1.33118,-0.0691 1.92084,-0.28879 0.68704,-0.25598 1.24803,-0.86744 1.88585,-1.14681 l -2.87252,-1.32216 c -0.63144,0.24555 -1.69307,-0.20089 -2.3106,0.0213 -0.656,0.23604 -1.30425,0.45913 -1.94498,0.66974 -0.40727,0.13388 -0.497,1.573 -0.82412,1.30966 -0.40092,-0.32275 -1.18751,-0.6803 -1.58254,-0.56618 -3.48399,1.00653 -6.7409,1.64081 -9.80995,1.98708 -0.45902,0.0518 -0.60225,2.89182 -1.053,2.931 z"
               id="path11"
               sodipodi:nodetypes="cssssssccssssscc" />
            <path
               id="path15"
               inkscape:label="Head"
               d="m 605.59273,722.86847 c -6.25059,2.5764 -12.75165,4.81183 -14.24314,10.39592 -6.305,-1.02011 -10.34446,-1.20356 -17.14686,0.26453 -1.98799,-6.33309 -9.18317,-8.58455 -15.87816,-10.45795 -1.0027,6.19999 -1.917,12.36382 2.4453,16.36912 v 2.8e-4 c -1.18355,2.10999 -1.85106,4.60612 -1.65171,6.91392 -6.82072,4.66689 -8.21399,9.31309 -7.09562,13.05759 l -0.23583,0.39948 c -0.72219,1.66402 -3.22982,5.20003 -2.51595,5.05026 l 3.62414,-0.81139 0.47287,2.42805 3.42275,-0.30291 c 0.11968,0.22139 -0.23068,1.33348 0.0565,1.56436 0.46289,0.37216 2.12647,-0.27694 2.95655,0.10431 0.69612,0.31971 1.50657,0.63931 2.40663,0.95298 0.31871,0.11108 0.54558,0.6336 0.88566,0.74296 0.41148,0.1323 0.94103,-0.14898 1.38023,-0.02 0.79015,0.23203 1.622,0.45789 2.48424,0.6751 0.66931,0.16861 1.04761,1.19079 1.74823,1.34768 0.75813,0.16978 1.84063,-0.52694 2.62249,-0.37385 0.76123,0.14906 1.39321,0.63318 2.16435,0.76355 0.45736,0.0773 1.05276,-0.19262 1.51013,-0.12267 1.96404,0.30039 3.91624,0.53032 5.75428,0.66591 0.92497,0.0682 1.93905,0.0718 2.57214,0.64533 0.582,0.52724 1.24746,-0.50376 1.78634,-0.51765 1.65356,-0.0426 3.3345,-0.58343 4.97627,-0.31209 0.83123,0.13737 1.48885,0.60807 2.17715,0.51904 0.77959,-0.10083 1.45146,-0.97018 2.21916,-1.09623 1.84342,-0.30267 3.64499,-0.67677 5.36986,-1.11625 0.57244,-0.14586 1.41128,0.25069 1.96548,0.0907 0.53654,-0.15494 0.78917,-0.86611 1.30623,-1.03392 0.62152,-0.20172 1.67484,0.4119 2.2645,0.19221 0.68704,-0.25598 1.52264,-1.48583 2.16046,-1.7652 1.33482,-0.58465 1.93656,-1.08199 3.01219,-1.76158 0.49919,-0.3154 1.24145,0.52688 1.74489,0.74296 0.65681,0.28193 0.32979,-2.25899 0.63226,-2.5382 0.40609,-0.37487 3.22137,1.60857 3.53964,1.21403 0.57472,-0.79457 -2.00596,-3.30961 -2.40169,-4.38145 0.28354,-0.53772 0.51911,-1.1041 0.69618,-1.69421 1.15586,-3.85211 -0.18127,-8.71525 -6.94336,-13.21624 -0.8598,-3.4341 -1.36074,-5.1417 -2.67534,-7.0875 2.44544,-4.91399 0.86955,-11.35546 0.43059,-16.49095 z"
               style="fill:none;fill-opacity:1;stroke:#000000;stroke-width:1.00011;stroke-dasharray:none;stroke-opacity:1"
               sodipodi:nodetypes="cccccccccccccssssssssssssssssssssssssccccccc" />
            <path
               id="path43411"
               d="m 560.77,739.44 c -4.3623,-4.0053 -3.4481,-10.169 -2.4454,-16.369 3.1383,5.176 7.4117,9.0788 15.878,10.458 -26.188,15.001 -7.4874,48.231 35.716,32.14 0.98978,-0.44334 3.2519,0.19882 2.19452,1.01124 -0.2044,0.15705 -2.79652,-0.016 -3.14464,0.30896 -1.85211,1.72903 -4.10959,3.54398 -7.15423,3.49547 -2.97977,-0.0475 -6.09504,1.50285 -9.30656,2.13507 -2.74368,0.54012 -5.81353,0.1511 -8.61679,0.32979 -3.22096,0.20532 -6.36712,-0.86717 -9.37668,-0.99536 -1.72597,-0.0735 -1.43819,-0.82314 -3.10117,-0.9847 -0.78764,-0.0765 -1.56606,0.46662 -2.33326,0.36619 -1.675,-0.21926 -2.24305,-1.40557 -3.82427,-1.71109 -1.14878,-0.22196 -0.91619,0.54781 -2.01733,0.26866 -1.24608,-0.3159 -1.92738,-1.63372 -3.10542,-2.00957 -1.2726,-0.40603 -2.06696,0.55281 -3.24887,0.0582 -0.48063,-0.20115 0.30602,-1.50143 -0.18125,-1.75495 -0.49139,-0.25567 -2.25771,0.53504 -2.98497,0.24313 -0.8563,-0.3437 -0.10035,-2.04751 -0.98247,-2.19951 -1.27908,-0.22039 -2.97771,1.06665 -3.4733,0.21612 -0.29312,-0.50306 3.10097,-4.04191 2.90488,-4.58964 -1.36673,-3.81773 -0.14129,-8.6494 6.95181,-13.50266 -0.19935,-2.3078 0.46815,-4.804 1.6517,-6.914 z"
               opacity="0.30691"
               sodipodi:nodetypes="scccsssssssssssssssssccs" />
          </g>
          <path
             id="path21590"
             d="m580.06 764.2c1.6892 0.60474 3.7665 0.18632 4.9111-1.7306 0.90444 1.88 2.9022 2.3099 4.8643 1.8709"
             fill="none"
             stroke="#000"
             inkscape:label="Mouth" />
          <g
             id="g8"
             inkscape:label="Ears">
            <path
               id="path23007"
               d="m564.45 737.76c-2.2566-2.7274-2.6418-6.1035-2.2318-9.4499 5.3715 0.99675 6.9919 3.7599 8.4303 6.5765-2.5441 0.64082-4.5441 1.5264-6.1986 2.8734z"
               opacity=".7622"
               stroke="#000"
               stroke-width=".26458px" />
            <path
               id="path23007-8"
               d="m601.55 737.48c1.7421-2.4 1.379-5.8696 1.2028-9.2161-4.9974 1.2306-6.758 3.6196-8.1965 6.4362 2.5441 0.64082 5.0586 1.6667 6.9937 2.7799z"
               opacity=".7622"
               stroke="#000"
               stroke-width=".26458px" />
          </g>
          <g
             id="g4"
             inkscape:label="Left Eye">
            <ellipse
               id="path20793"
               cx="573.48"
               cy="751.23"
               rx="5.7169"
               ry="6.0906"
               fill-rule="evenodd"
               style="paint-order:markers stroke fill" />
            <ellipse
               id="path21409"
               cx="575.94"
               cy="749.16"
               rx="2.2019"
               ry="2.3418"
               fill="#fff"
               fill-rule="evenodd"
               style="paint-order:markers stroke fill" />
            <path
               id="path25921"
               d="m 568.10451,742.43076 c 2.39897,0.29412 4.62884,-0.5853 5.94666,-1.26031"
               fill="none"
               stroke="#000000"
               stroke-linecap="round"
               stroke-width="2"
               sodipodi:nodetypes="cc" />
          </g>
          <g
             id="g5"
             inkscape:label="Right Eye">
            <ellipse
               id="path20793-7"
               cx="592.32"
               cy="753.07"
               rx="3.3857"
               ry="3.607"
               fill-rule="evenodd"
               style="paint-order:markers stroke fill" />
            <ellipse
               id="path21409-1"
               cx="593.48"
               cy="751.49"
               rx="1.2802"
               ry="1.3615"
               fill="#fff"
               fill-rule="evenodd"
               style="paint-order:markers stroke fill" />
            <path
               id="path25921-7"
               d="m 597.92943,748.2531 c -1.34902,-0.37916 -2.78295,-1.18287 -4.26122,-2.20827"
               fill="none"
               stroke="#000000"
               stroke-linecap="round"
               stroke-width="1.4794"
               sodipodi:nodetypes="cc" />
          </g>
          <g
             id="g9"
             inkscape:label="Cheeks">
            <ellipse
               id="path22317"
               transform="rotate(-9.7166001,1.1042763e-5,-2.8296489e-5)"
               cx="461.62"
               cy="849.19"
               rx="4.9609"
               ry="2.1167"
               fill="#ffb4b4"
               fill-rule="evenodd"
               style="paint-order:markers stroke fill" />
            <ellipse
               id="path22317-7"
               transform="rotate(4.9753001,-1.4310664e-5,5.7515111e-5)"
               cx="631.87"
               cy="707.34"
               rx="4.9609"
               ry="2.1167"
               fill="#ffb4b4"
               fill-rule="evenodd"
               style="paint-order:markers stroke fill" />
            <path
               id="path28301"
               d="m600.47 756.66 0.0234 0.45604"
               fill="none"
               stroke="#000"
               stroke-width=".26458px" />
            <path
               id="path28303"
               d="m600.97 756.67-0.0467 0.46774"
               fill="none"
               stroke="#000"
               stroke-width=".26458px" />
            <path
               id="path28305"
               d="m593.23 759.31 0.42095 0.18709"
               fill="none"
               stroke="#000"
               stroke-width=".26458px" />
            <path
               id="path28307"
               d="m593.16 759.98 0.46771 0.0116"
               fill="none"
               stroke="#000"
               stroke-width=".26458px" />
            <path
               id="path28309"
               d="m600.06 760.67 0.16369 0.46773"
               fill="none"
               stroke="#000"
               stroke-width=".26458px" />
            <path
               id="path28311"
               d="m600.36 760.55 0.21048 0.39756"
               fill="none"
               stroke="#000"
               stroke-width=".26458px"
               inkscape:label="path28311" />
            <path
               id="path28301-1"
               d="m568.33 757.1-0.0234 0.45604"
               fill="none"
               stroke="#000"
               stroke-width=".26458px" />
            <path
               id="path28303-1"
               d="m567.83 757.11 0.0467 0.46774"
               fill="none"
               stroke="#000"
               stroke-width=".26458px" />
            <path
               id="path28305-0"
               d="m573.2 759.23-0.42095 0.18709"
               fill="none"
               stroke="#000"
               stroke-width=".26458px" />
            <path
               id="path28307-2"
               d="m573.27 759.9-0.46771 0.0116"
               fill="none"
               stroke="#000"
               stroke-width=".26458px" />
            <path
               id="path28309-5"
               d="m565.2 760.7-0.16369 0.46773"
               fill="none"
               stroke="#000"
               stroke-width=".26458px" />
            <path
               id="path28311-5"
               d="m564.89 760.59-0.21048 0.39756"
               fill="none"
               stroke="#000"
               stroke-width=".26458px"
               transform="translate(4.9341515e-6)" />
          </g>
          <g
             id="g6"
             inkscape:label="Whiskas">
            <path
               id="path24933"
               d="m610.64 754.4c3.7897-1.1176 7.8794-1.5153 11.278-3.5719"
               fill="#fff"
               stroke="#fff" />
            <path
               id="path24935"
               d="m610.84 757.77c3.7479-0.0236 7.035-0.33527 11.41 0.0331"
               fill="#fff"
               stroke="#fff" />
            <path
               id="path24937"
               d="m610.18 760.94c4.0518 0.41037 7.509 0.72097 11.774 2.6128"
               fill="#fff"
               stroke="#fff" />
            <path
               id="path24933-0"
               d="m555.84 753.49c-3.7897-1.1176-7.8794-1.5153-11.278-3.5719"
               fill="#fff"
               stroke="#fff" />
            <path
               id="path24935-5"
               d="m555.64 756.86c-3.7479-0.0236-7.035-0.33527-11.41 0.0331"
               fill="#fff"
               stroke="#fff" />
            <path
               id="path24937-9"
               d="m556.3 760.04c-4.0518 0.41037-7.509 0.72097-11.774 2.6128"
               fill="#fff"
               stroke="#fff" />
          </g>
        </g>
      </g>
    </g>
  </g>
</svg>
