<?xml version="1.0" encoding="UTF-8"?>
<svg id="svg5" width="1200mm" height="1200mm" version="1.1" viewBox="0 0 1200 1200" xmlns="http://www.w3.org/2000/svg" xmlns:xlink="http://www.w3.org/1999/xlink">
 <g id="layer60" transform="translate(19.4 11.241)">
  <g id="layer23">
   <g id="layer233">
    <path id="path82413" d="m-19.4 1050.5 167.21-14.032 192.94 12.862 294.66 31.571 221-29.233 146.16-38.587 123.95-26.894 59.634-7.0158-5.5525 209.6-1200-0.2z" fill="#81d553"/>
    <path id="path86801" d="m670.49 898.48 83.021-79.513 108.75-43.264 109.91-21.047 134.47 7.0158 73.96-51.449v478.54h-1093.6z" fill="#82c255"/>
    <path id="path83489" d="m-19.4 787.39h68.989l136.81 35.079 225.68 85.359h297l109.91-24.555 141.49 23.386 49.111 28.063 67.82 56.127 103.19-7.0157v204.92h-1200z" fill="#82ce53"/>
    <path id="path30934" transform="matrix(.26458 0 0 .26458 -19.4 -11.241)" d="m4552.6 2729.7c-62.176 34.646-65.412 52.92-139.32 52.502-262-1.4834-568.33 35.216-759.86 68.066-185.31 31.783-335.69 49.719-484.27 108.32-247.58 97.654-493.41 265.19-583.45 461.36-243.47 53.37-617.86 24.646-946.66-16.818-229.77-28.975-376.12-91.17-532.25-158.18-318.91-136.86-820.67-387.07-1106.5-235.72 0.019138 28.784 0.083483 35.582 0.087891 71.467 11.037-32.936 199.25-46.252 299.62-18.191l290.62 81.25 0.51953 0.8086c166.07 42.862 319.82 124.64 478.07 190.75 107.16 74.171 367.92 155.8 562.27 171.69 90.239 6.351 181.76 23.802 273.02 30.207 397.77 58.217 827.7-19.622 1115.2-98.832 152.98-42.144 408.41-6.6734 602.29 47.83 106.89 30.05 209.07 83.251 297.16 150.52 44.979 42.418 146.09 96.905 140.75 149.92l-127.87 104.29c746.47-275.17 607.75 47.133 276.75-147.16-96.383-18.729-90.87-132.75-107.34-65.256-128.36-122.52-287.06-234.14-465.95-282.72-164.38-47.789-357.97-42.238-531.93-57.404-126.02 17.072-249.73 48.413-373.64 76.766l-8.5332 1.2754c86.915-142.51 257.31-261.52 420.16-334.13 0.013 0.2176-3e-4 0.4536 0.016 0.6719l0.5937-1.7207 407.81-110.94c418.96-48.049 824.19-47.084 985.43-123.02zm-4552.3 279.54c-0.23617-355.21-1.528-202.27-2.9238 1.4649 0.95812-0.5191 1.9608-0.955 2.9238-1.4649zm-2.9238 1.4649c-1.1851 0.642-2.4397 1.1544-3.6172 1.8105 0.067328 548.18 1.8893 250.4 3.6172-1.8105z" fill="#73b246" stroke-width=".75591"/>
    <path id="path91515" transform="matrix(.26458 0 0 .26458 -19.4 -11.241)" d="m2568.5 3424.6c-245.25 44.505-600.67 19.959-929.47-21.506-229.77-28.975-376.12-91.17-532.25-158.18-318.91-136.86-820.67-387.07-1106.5-235.72 0.019138 28.784 0.083483 35.582 0.087891 71.467 11.037-32.936 199.25-46.252 299.62-18.191l290.62 81.25 0.51953 0.8086c166.07 42.862 319.82 124.64 478.07 190.75 107.16 74.171 367.92 155.8 562.27 171.69 90.239 6.351 181.76 23.802 273.02 30.207 397.54 58.251 750.42 9.6275 1118.4-81.645 154.01-38.204 405.9-20.764 599.16 30.643 107.3 28.542 209.07 83.251 297.16 150.52 44.979 42.418 146.09 96.905 140.75 149.92l-127.87 104.29c746.47-275.17 607.75 47.133 276.75-147.16-96.383-18.729-90.87-132.75-107.34-65.256-128.36-122.52-287.06-234.14-465.95-282.72-164.38-47.789-357.97-42.238-531.93-57.404-255.47 35.946-333.67 49.691-535.06 86.238zm-2568.2-415.4c-0.23617-355.21-1.528-202.27-2.9238 1.4649 0.95812-0.5191 1.9608-0.955 2.9238-1.4649zm-2.9238 1.4649c-1.1851 0.642-2.4397 1.1544-3.6172 1.8105 0.067328 548.18 1.8893 250.4 3.6172-1.8105z" fill="#70bf3e" stroke-width=".75591"/>
    <path id="path61649" d="m-18.573 450.95 19.017 14.883 45.475 195.96 4.1341 91.777-23.151 37.207-39.688 13.229-6.6146-2.4805z" fill="#62b22e"/>
    <path id="path89332" transform="matrix(.26458 0 0 .26458 -19.4 -11.241)" d="m-0.73633 2800.4c-0.18739 6.8632-0.45513 52.834-0.67383 74.797l1.041-0.3046c-0.14566-13.483-0.17925-81.375-0.36719-74.492zm-5.3301 258.68c0.27121 347.87 1.5321 218.83 2.957 10.621zm4540.5 664.25c-34.331 0.2453-71.82 3.9654-110.04 8.1094 0.038 0.011 0.031-5e-4 0.07 0.012-0.3185 0.5577-1.0536 0.3922-1.5488 0.1465-89.315 6.027-155.43 22.58-192.54 18.522l-168.97 28.529-2.6328-0.3028c0.2805 2.7807 1.3984 5.5672 1.1191 8.3418-243.06 39.478-481.83 120.35-723.72 173.53-308.79 58.64-620.19 110.6-935.91 120.92-57.564-2.3285-115.29-3.9725-173.8-9.5976-834.09-56.791-1388-247.8-2226.5-143.77v77.457c716.41-105.4 1457.6 90.807 2130.5 136.9 325.26 42.065 649.22-10.952 969.81-59.396 283.51-39.004 555.6-130.18 831.78-191.75l479.38-79.635c61.123-11.657 164.3 19.348 123.03-88.012z" fill="#6dc43b" stroke-width=".75591"/>
    <path id="path64059-2" d="m98.44 763.74-12.402 2.4805-30.767 71.164-37.191 240.23 9.6381 44.548 27.285 28.939c17.355 6.0948 37.945 7.9606 60.358 7.4414 13.126-5.8237 25.857-10.723 42.168-23.978l6.6146-44.648-2.4387-86.294-10.302-51.876-23.882-136.37-17.505-38.408z" fill="#63a530"/>
    <path id="path64059-7" d="m989.69 581.42-7.2225 1.3658-28.134 147.96-4.1268 25.495 15.89 15.934 35.15 4.0974c12.589 3.3058 17.893-6.1382 24.557-13.203l3.852-24.584-21.668-108.35-11.556-41.429z" fill="#60a52e"/>
    <path id="path64059-3" d="m1096.3 922.83-8.1231 1.6517c-28.786 57.206-26.118 119.25-36.902 179.23l3.5416 28.786 15.532 19.562 38.656 3.4935 21.188-17.136 4.917-27.1-18.231-129.57-12.997-50.102z" fill="#63a62f"/>
    <path id="path30928" transform="matrix(.26458 0 0 .26458 -19.4 -11.241)" d="m3893 2310.2c-41.756-111.64-130.16-113.52-160.16 16.406-42.088 223.41-74.802 347.14-70.428 545.32 0.3983 29.778 13.839 60.677 31.279 82.99 57.675 73.791 223.13 38.369 229.07 26.261-4.236-2.3392 7.2283-35.158 2.2539-32.918-10.869 4.8926-54.36 24.483-74.026 23.214-81.203-23.566-13.518-157.59 6.4258-219.18 23.573-43.334 38.196-120.71 51.053-131.22 8.377 45.369 11.858 102.45 25.859 176.51 5.9222-44.721 4.8038-130.32 12.179-174.33zm-79.65-33.942c9.3875-4.568 22.961 3.1892 25.599 16.284 64.424 175.13-95.628 305.98-132.26 467.5 3.3956-109.63 28.382-230.37 49.447-342.99 12.304-39.505 17.526-121.48 57.217-140.79zm65.949 161.58c54.364 186.85-125.04 341.58-90.242 526.56-17.796 6.8749-56.064-3.7297-60.35-19.994-48.002-182.15 94.809-340.45 150.59-506.56zm-3428.5 470.02c-55.985-1.5872-109.12 67.672-123.86 113.54-109.15 339.77-143.53 679.6-181.07 1016.7-29.051 283.04 50.147 358.9 255.53 396.81l-2e-3 0.01h48.754c100.12-0.5384 232.43-92.78 88.492-49.203-5.4327-167.43-122.01-323.59-224.38-458.74-147.96-163.55-78.479-396.91-40.58-588.67 96.28 183.54 312.61 336.51 359.04 562.24 16.866 112.34 113.54 254.15 9.2559-75.24-61.006-206.97-269.55-326.04-339.82-525.73-10.221-43.17 15.376-245.25 34.371-111.5 66.824 174.86 239.26 288.3 283.27 475.47 52.134 177.12 78.592 250.95 62.85 131.15-29.319-257.11-66.577-515.7-133.13-765.48-42.921-123.05-76.258-119.04-98.719-121.35zm-7.8555 43.049c9.8293-0.1485 42.081 27.427 47.59 38.639 105.53 214.81 94.446 390.61 136.95 591.5l-1.3711 7.8828c-55.855-170.91-233.45-273.61-270.02-452.63-15.97-58.175 18.043-184.35 86.848-185.39zm3765.2 555.86c-21.255-2.7573-50.017 5.5207-59.79 37.257-55.839 181.34-73.552 363.45-103.73 544.56-21.764 130.6-41.891 344.88 149.2 332.24 62.829 4.3393 139.7-9.0655 169.96-72.432 42.45-180.08-21.695-363.85-45.25-543.12-28.271-78.826-18.162-286.54-110.39-298.51zm13.067 36.812c50.49 99.753 54.675 219.53 80.299 328.78-34.408-76.61-121.03-139.07-134.86-214.35-11.384-70.016 14.476-145.08 54.563-114.43zm-79.004 137.29c39.653 67.051 108.97 144.4 150.54 234.09 32.662 70.467 42.516 156.03 45.81 199.67-24.875-33.799-97.125-119.82-146.02-158.94-88.818-72.584-71.11-214.3-50.332-274.82zm-3941.8 94.928c46.284 164.75 194.46 275.88 260.27 432.28 19.827 58.555 90.681 187.4-4.5 198.04-89.372 11.855-181.1-21.98-239.84-90.256-109.81-160.09-15.222-362.55-15.928-540.07zm3906.1 103.76s12.034 41.374 42.197 75.668c100.82 88.694 204.88 197.98 200.45 341.4-36.909-86.272-157.95-143.1-218.78-227.91-40.374-39.2-36.34-175.21-23.867-189.15zm-26.139 158.25c3.7313 26.81 87.706 123.1 144.44 164.69 69.358 37.663 158.46 186.75 18.908 189.53l-40.074 0.5176c-180.25 13.209-156.13-206.88-123.27-354.73z" fill="#539422" stroke-width=".75591"/>
    <path id="path64059-5" d="m190.61 929.68-12.402 1.7242-33.486 130.56-2.0671 87.168 8.6816 19.702c19.706 8.539 39.412 10.411 59.118 6.8261l19.43-17.907 3.7207-38.476-20.671-119.01-10.749-61.395z" fill="#65b32f"/>
    <path id="path64059" d="m342.75 617.14-12.402 2.4805-60.358 268.72 4.9609 46.302 27.285 28.939 60.358 7.4414 42.168-23.978 6.6146-44.648-37.207-196.78-19.844-75.241z" fill="#63b92f"/>
    <path id="path64059-9" d="m873.54 623.33-12.402 2.4805-53.927 238.32 1.453 45.717c7.7569 11.252 12.341 26.311 27.285 28.939 20.119 10.403 40.239 7.2783 60.358 7.4414 13.546-2.6289 25.308-12.39 35.737-27.486l1.3527-41.141-32.53-194.45-15.751-46.593z" fill="#65b230"/>
    <path id="path64059-8" d="m1090.1 475.09-12.402 2.4805c-28.12 89.572-39.254 179.88-59.043 269.45l4.6686 45.279 26.262 29.231 59.773 3.9335 37.491-21.639 7.1992-43.479c-9.7293-65.595-17.651-131.19-32.53-196.78l-19.844-75.241z" fill="#64bb30"/>
    <path id="path30930" transform="matrix(.26458 0 0 .26458 -19.4 -11.241)" d="m0 1717.4v37.714c7.4675 0.3538 18.494 0.09 23.254 8.3606 56.358 101.86 62.18 224.51 98.42 334.72-36.437-36.828-67.659-86.558-93.705-134.1-26.903-67.817-36.034-104.16-27.158 18.562 55.46 106.41 153.8 192.84 171.03 316.99-32.209-40.724-79.336-111.04-116.26-163.52-32.665-36.576-72.727-151.66-54.828-21.502 61.189 97.371 141.38 183.19 186.39 289.91 22.29 72.551 51.186 164.2 43.551 232.25-37.336-102.65-101.64-193.16-171.78-275.88-33.878-39.33-72.748-137.68-58.533-24.705 83.391 109.42 176.84 218.02 213.1 354.01 30.284 110.58 34.805 267.15-75.135 334.55 27.765-81.138-7.1799-168.25-54.355-234.72-30.686-23.88-104.64-172.01-82.566-49.135 69.885 78.583 158.66 198.58 87.674 301.33-211.81 35.191 24.885 88.667 153.12-71.275 35.875-51.53 49.779-148.3 35.585-302.91-3.1182-81.464-140.91-782.26-226.34-930.87-14.296-24.87-29.357-14.907-51.466-19.776zm4134.5 117.19c-63.269 64.156-157.43 567.51-204.01 865.47-13.973 89.39-27.322 168.94-9.2345 281.55 11.681 138.16 162.37 230.16 305.42 196.92 204.03-31.964 240.62-97.82 214.49-397.49-26.126-299.67-106.83-874.48-209.95-954.21-44.439-34.359-73.077-16.206-96.718 7.7665zm78.408 28.149c69.167 132.58 81.91 286.53 114.4 431.24-43.898-61.576-88.552-140.8-113.86-218.06-14.964-59.163-60.371-217.38-0.543-213.18zm-65.639 30.606c7.0879 1.2696 14.114 47.509 17.02 115.85 17.261 175.13 168.7 297.37 199.28 466.38l0.5489 5.7324c-83.069-157.18-230.16-293.9-232.37-483.72 3.5003-72.094 9.1455-102.89 14.836-104.21 0.2286-0.053 0.4569-0.058 0.6855-0.017zm-45.346 155.91c15.539 87.717 54.158 169.13 103.21 242.79 94.266 125.8 170.04 266.75 190.89 424.68 1.652 129.32 65.241 295.2-47.379 394.29l-7.5313 2.0039c50.639-190.44-75.6-362.1-193.43-497.22-133.29-159.99-97.699-381.22-45.764-566.54zm-792.8 369.82c-56.391 186.47-109.01 369.67-136.29 551.17-11.985 79.746-21.025 114.31-28.908 169.78-20.713 145.75-81.747 338.33 44.516 449.59 126.8 70.223 332.74 75.648 413.97-64.08 44.434-176.82-29.43-354.23-51.43-529.67-4.7135-36.36-12.777-72.229-14.533-98.867-7.406-72.177-38.469-304.44-111.6-479.76-38.33-63.983-98.129-54.13-115.73 1.8235zm-3134-111.85c2.1756 2.1783-3.298 1.7827 0 0zm1115.6 100.58c-9.817 31.388-149.75 588.32-182.66 840.51-38.982 269.17-17.237 403.06 145.91 455.43 93.754 30.095 201.6 22.714 284.28-11.008 105.62-43.074 98.195-241.4 95.071-270.63-49.812-466.06-152.2-948.35-217.6-1044-50.911-68.755-111.36-13.934-125 29.688zm66.064-6.5391c32.636-0.044 47.255 102.86 46.01 137.44-9.1667 244.11-173.34 440.83-247.83 666.14-4.573-27.334 8.866-57.543 10.377-85.602 56.002-229.07 96.582-463.4 159.74-689.96 12.01-19.914 22.559-27.997 31.697-28.01zm2668.3 11.955c20.054 189.45 196.1 298.72 263.56 466.07 32.157 79.212 68.658 211.46-17.42 261.74l-13.676 2.957c50.814-124.27-17.691-257.03-80.629-363.94-64.374-113.31-201.75-228.81-151.84-366.82zm-657.2 2.5254c23.056 1.2997 39.879 67.738 40.285 94.135 15.696 198.1-140.45 345.63-207.38 519.32l-2.6348 4.5332c43.454-199.21 79.57-400.2 144.97-593.68 8.694-17.938 17.072-24.742 24.758-24.309zm627.4 134.06c29.777 82.286 89.846 148.62 138.21 220.46 65.465 111.01 161.6 257.63 75.561 379.78-87.246 5.4476-199.94-18.16-238.83-107.48-51.305-159.28-2.3556-333.06 25.055-492.77zm-2560.6 31.024c50.698 113.78 11.432 238.14-49.314 339.6-127.02 204.34-244.6 433.35-225.69 681-44.001-30.015-35.636-130.15-24.104-194.1 53.148-294.7 256.72-531.44 299.11-826.51zm2005.8 9.1289c25.378 130.97 87.142 275.06 17.574 403.61-76.077 194.09-262.71 365.75-215.88 589.78-66.69-11.293-93.766-79.371-99.449-140.2-16.587-108.78 11.619-209.44 51.861-307.84 55.026-193.97 208.55-345.87 245.89-545.34zm-3204.8 55.4c0.26683-0.061 0.80641 1.0278 1.7383 4.2754-0.88423 6.4299-2.5388-4.0928-1.7383-4.2754zm1244.4 138.02c36.715 145.1 49.456 303.26-14.926 442.82-46.738 147.88-141.38 316.54-60.182 467.8-64.734 2.1402-130.22-14.257-191.24-35.031-46.656-80.269-25.137-177.9-6.4687-263.98 35.332-226.89 200.03-399.58 272.81-611.61zm2027.5 170.59c37.852 44.258-13.11 138.83-48.463 194.46-62.749 142.68-183.35 296.97-113.43 458.25-56.165 6.2858-81.731-27.242-82.031-80.012 4.0009-216.11 181.14-374.03 243.92-572.7zm22.602 127.28c27.105 94.183 44.843 218.12 56.158 325.6 20.507 102.42-55.307 196.85-158.38 196.88-48.531 12.844-70.282-31.604-73.203-71.91 0.3132-165.11 109.34-305.24 175.42-450.56zm-1994.5 33.066c19.568 122.06 43.621 242.3 60.455 365.45 14.657 107.22-54.031 189.19-149.27 209.08-17.309 5.3317-22.947-9.9129-28.691-34.689-44.039-189.95 74.125-361.48 117.51-539.84zm-748.2 425.66c-11.249 0.012-23.849 5.2135-37.924 17.307-35.529 35.012-59.23 171.16-64.33 195.54-27.79 215.76-137.79 438.37-83.369 647.29 12.509 40.108 39.143 98.933 156.37 103.55 84.893 3.3458 204.87-18.497 211.85-124.37 13.2-226.25-59.788-447.66-100.38-668.57-5.2014-50.411-28.025-170.82-82.225-170.76zm-5.0449 28.291c0.81134-0.051 1.6423-0.031 2.4941 0.064 6.2902 0.7052 13.705 5.509 22.549 15.947 60.694 181.26-69.445 345.18-153.66 494.57 24.694-127.33 56.985-278.56 87.779-413.86 9.6095-25.016 15.683-95.149 40.834-96.728zm68.318 194.16c4.0504 0.4345 7.1483 12.704 8.7988 44.301-25.422 160.48-158.27 272.16-225.18 414.36 20.142-121.83 125.49-235.3 174.99-355.25 14.475-28.346 31.038-104.52 41.389-103.41zm15.973 136c5.0474 30.312 29.847 108.01 36.279 142.63 37.442 173.33-140.39 273.12-171.03 426.11-40.729 2.1759-91.394-46.388-100.71-90.892 1.95-187.93 169.6-311.95 235.46-477.85zm55.889 284.66c17.118-0.5521 18.892 115.73 17.432 152.4 14.953 81.942-57.567 141.45-133.06 139.71l-43.357 0.8515c10.379-96.767 97.857-160.34 136.3-246.19 9.5648-33.422 16.977-46.588 22.684-46.772z" fill="#58a826" stroke-width=".75591"/>
    <ellipse id="path98014" cx="13.053" cy="839.77" rx="16.33" ry="11.369" fill="#feaa3a" fill-rule="evenodd" style="paint-order:fill markers stroke"/>
    <ellipse id="path99749" cx="269.99" cy="1099.4" rx="19.017" ry="9.7152" fill="#feaa3a" fill-rule="evenodd" style="paint-order:fill markers stroke"/>
    <ellipse id="path99751" cx="763.6" cy="1157.1" rx="16.536" ry="9.0951" fill="#feaa3a" fill-rule="evenodd" style="paint-order:fill markers stroke"/>
    <ellipse id="path99753" cx="1005.2" cy="842.04" rx="17.57" ry="8.6816" fill="#feaa3a" fill-rule="evenodd" style="paint-order:fill markers stroke"/>
    <ellipse id="path101458" cx="973.82" cy="868.29" rx="9.7152" ry="8.0615" fill="#f69999" fill-rule="evenodd" style="paint-order:fill markers stroke"/>
    <ellipse id="path101460" cx="764.01" cy="935.88" rx="17.777" ry="9.9219" fill="#f69999" fill-rule="evenodd" style="paint-order:fill markers stroke"/>
    <ellipse id="path101462" cx="727.43" cy="1107.7" rx="9.3018" ry="8.4749" fill="#f69999" fill-rule="evenodd" style="paint-order:fill markers stroke"/>
    <ellipse id="path101464" cx="297.69" cy="1130.4" rx="12.816" ry="8.4749" fill="#f69999" fill-rule="evenodd" style="paint-order:fill markers stroke"/>
    <ellipse id="path101466" cx="33.104" cy="1175" rx="15.296" ry="9.3018" fill="#f69999" fill-rule="evenodd" style="paint-order:fill markers stroke"/>
    <ellipse id="path101468" cx="1009.6" cy="1109.5" rx="14.056" ry="10.335" fill="#92bdfe" fill-rule="evenodd" style="paint-order:fill markers stroke"/>
    <ellipse id="path103115" cx="449.82" cy="1022.5" rx="21.084" ry="12.609" fill="#92bdfe" fill-rule="evenodd" style="paint-order:fill markers stroke"/>
    <ellipse id="path103117" cx="-6.1706" cy="879.04" rx="9.0951" ry="8.0615" fill="#92bdfe" fill-rule="evenodd" style="paint-order:fill markers stroke"/>
    <ellipse id="path103119" cx="567.23" cy="1162.4" rx="139.32" ry="19.844" fill="#76c449" fill-rule="evenodd" style="paint-order:fill markers stroke"/>
   </g>
  </g>
 </g>
</svg>
