<?xml version="1.0" encoding="UTF-8"?>
<svg id="svg5" width="1200mm" height="1200mm" version="1.1" viewBox="0 0 1200 1200" xmlns="http://www.w3.org/2000/svg" xmlns:xlink="http://www.w3.org/1999/xlink">
 <defs id="defs77">
  <filter id="filter15917" x="-.002672" y="-.0041779" width="1.0053" height="1.0084" color-interpolation-filters="sRGB">
   <feGaussianBlur id="feGaussianBlur15919" stdDeviation="0.048405979"/>
  </filter>
  <filter id="filter15917-2" x="-.002672" y="-.0041779" width="1.0053" height="1.0084" color-interpolation-filters="sRGB">
   <feGaussianBlur id="feGaussianBlur15919-3" stdDeviation="0.048405979"/>
  </filter>
 </defs>
 <g id="layer60" transform="translate(19.4 11.241)">
  <g id="layer214">
   <g id="layer195" transform="translate(-19.4 -11.241)">
    <path id="path8090" d="m459.99 309.43s13.707-10.648 24.48-15.933c0 0 27.9-148.71-56.573-252.35-19.735-24.213-35.567 38.811-25.209 111.55 9.4787 66.564 57.301 156.73 57.301 156.73z" fill="#fff6f6" stroke="#000" stroke-width="2"/>
    <path id="path8090-5" d="m463.81 305.27c1.1465-1.5992 19.633-12.622 19.633-12.622s27.709-144.59-52.25-246.3c-16.094-20.472-29.445 22.6-26.565 80.573 0.10159 2.045 1.5902 7.8759 0.36594 6.1884-1.4536-2.0036-2.8188-3.818 0.51232 6.5331 0.78568 2.4415 2.1238 9.9538 0.77159 7.723-4.1137-6.7864-0.23323 3.6856 1.0536 8.4682 6.9922 25.988 13.741 56.452 24.391 82.376 0.57777 1.4065 3.0135 4.9717 1.7374 4.1843-2.4325-1.501 0.10583 1.951 2.0221 4.7629 10.164 14.914 14.192 31.093 19.488 41.466 1.0042 1.967 4.2937 6.5745 2.8094 5.4408-2.4465-1.8685-0.53807 0.79526 2.3048 4.3681 3.0986 3.8944 3.7261 6.8434 3.7261 6.8434z" fill="#f5e2fa"/>
    <path id="path10648-5" d="m461.03 245.06c-0.36409-1.8678-6.4577 0.084-10.567 0.71306 7.6617 3.2276 12.702 4.055 12.992 10.197-5.3338 2.4424-10.668 0.5682-16.001-0.96978 3.645 4.5029 10.484 5.0746 16.001 7.2733-4.8586-0.25856-9.4773-0.11745-11.637 4.1215 14.069 0.10098 13.43 8.2914 19.396 12.85-3.6367 0.17375-8.0007 1.4781-11.637 5.1519 14.036-0.76806 15.964 2.1452 16.729 6.7278-3.4516 1.9152-5.9976 1.5198-10.789 10.728 3.0792-1.7819 6.7628-6.241 17.82-9.031z" stroke="#000" stroke-linecap="round"/>
    <path id="path8090-7" d="m459.99 309.43s13.707-10.648 24.48-15.933c0 0 27.9-148.71-56.573-252.35-8.6147-10.569-21.31-1.3064-20.544 15.806 0.98837 22.091 20.774 60.576 19.58 100.6-0.80618 27.025 18.201 57.36 24.692 83.393 4.768 19.121-5.2558 28.792-4.3529 41.042 0.92472 12.547 12.718 27.445 12.718 27.445z" opacity=".078176"/>
    <path id="path10648" d="m461.86 245.35c-0.36409-1.8678-6.4577 0.084-10.567 0.71306 7.6617 3.2276 12.702 4.055 12.992 10.197-5.3338 2.4424-10.668 0.5682-16.001-0.96978 4.3314 3.5381 10.274 5.2859 16.001 7.2733-4.8586-0.25856-9.4773-0.11745-11.637 4.1215 14.069 0.10098 13.43 8.2914 19.396 12.85-3.6367 0.17375-8.0007 1.4781-11.637 5.1519 14.036-0.76806 15.964 2.1452 16.729 6.7278-3.4516 1.9152-6.3007 0.55007-11.092 9.7584 6.1703-6.5702 12.097-5.8168 18.123-8.0613z" fill="#fff"/>
    <path id="path10648-7" d="m468.95 246.63c-0.22633-1.7798-6.9236 0.38306-9.4781 0.98253 4.7627 3.0755 10.805 3.5609 10.985 9.4135-3.3156 2.3273-7.2373 3.0265-10.553 1.561 2.6925 3.3715 6.9928 2.5519 10.553 4.4456-3.0202-0.24638-5.8913-0.11191-7.234 3.9274 8.7457 0.0962 8.3486 7.9008 12.057 12.244-2.2606 0.16557-4.9734 1.4085-7.234 4.9092 8.7249-0.73188 9.9236 2.0441 10.399 6.4109-2.1456 1.825-1.7346-0.0213-6.1676 4.8135 6.6843-1.9573 7.3376-0.20895 11.144-1.2567z" opacity=".094463"/>
    <path id="path8090-1" d="m484.47 293.49c0.59216 1.385 0.78618-2.532 1.0455-4.2776 3.8815-26.268 18.158-154.92-57.349-247.56-19.735-24.213 22.802 44.438 19.886 117.86-2.6435 66.564 36.417 133.98 36.417 133.98z" fill="#fff6f6" stroke="#000" stroke-width="2"/>
    <path id="path15524" d="m453.47 318.05c13.689-13.55 27.149-21.102 40.568-25.615-6.1438-3.5785-37.193 13.011-40.568 25.615z" color="#000000" style="-inkscape-stroke:none"/>
    <path id="path15524-1" d="m452.42 319.93c14.671-14.43 29.096-22.474 43.478-27.28-6.5844-3.8111-39.86 13.857-43.478 27.28z" color="#000000" filter="url(#filter15917)" opacity=".15309" stroke-width="1.0684" style="-inkscape-stroke:none"/>
    <path id="path8090-14" d="m673.86 314.19s-13.707-10.648-24.48-15.933c0 0-27.9-148.71 56.573-252.35 19.735-24.213 35.567 38.811 25.209 111.55-9.4787 66.564-57.301 156.73-57.301 156.73z" fill="#fff6f6" stroke="#000" stroke-width="2"/>
    <path id="path8090-5-0" d="m670.04 310.03c-1.1465-1.5992-19.633-12.622-19.633-12.622s-27.709-144.59 52.25-246.3c16.094-20.472 30.131 9.7423 27.251 67.715-0.10159 2.045-1.5902 7.8759-0.36594 6.1884 1.4536-2.0036 2.8188-3.818-0.51232 6.5331-0.78568 2.4415-2.1238 9.9538-0.77159 7.723 4.1137-6.7864-0.8514 3.5197-1.0536 8.4682-1.3349 32.674-14.427 69.309-25.076 95.233-0.57777 1.4065-3.0135 4.9717-1.7374 4.1843 2.4325-1.501-0.10583 1.951-2.0221 4.7629-10.164 14.914-14.192 31.093-19.488 41.466-1.0042 1.967-4.2937 6.5745-2.8094 5.4408 2.4465-1.8685 0.53807 0.79526-2.3048 4.3681-3.0986 3.8944-3.7261 6.8434-3.7261 6.8434z" fill="#f5e2fa"/>
    <path id="path10648-5-0" d="m671.19 249.83c0.36409-1.8678 7.4005 2.1412 12.196 0.71306-5.3474 5.5419-12.702 4.055-12.992 10.197 1.968 0.11317 5.2665-0.4092 6.6025-1.8978 1.3621 0.91509 1.3485 2.8346 1.7946 2.8491 2.5347-0.3834 5.0694-1.1902 7.6041-1.9211-3.645 4.5029-10.484 5.0746-16.001 7.2733 4.8586-0.25856 9.4773-0.11745 11.637 4.1215-14.069 0.10098-13.43 8.2914-19.396 12.85 3.6367 0.17375 5.8187 1.8418 9.4553 5.5156-14.036-0.76806-13.782 1.7815-14.547 6.3642 3.4516 1.9152 5.9976 1.5198 10.789 10.728-3.0792-1.7819-6.7628-6.241-17.82-9.031z" stroke="#000" stroke-linecap="round"/>
    <path id="path8090-7-5" d="m673.86 314.19s-13.707-10.648-24.48-15.933c0 0-27.9-148.71 56.573-252.35 8.6147-10.569 11.366 1.0937 10.601 18.206-0.98837 22.091-10.83 58.176-9.6366 98.197 0.80618 27.025-18.201 57.36-24.692 83.393-4.768 19.121 5.2558 25.363 13.953 19.099 10.209-7.3527-22.318 49.388-22.318 49.388z" opacity=".078176"/>
    <path id="path10648-9" d="m669.25 249.77c0.1652-1.6248 7.561 2.4308 13.31 1.0559-4.6499 5.4864-12.471 4.228-12.992 10.197 5.2738 0.87276 7.6149-2.4529 7.6149-2.4529s1.2038 1.2554 1.495 3.2857c2.2971-0.4154 4.5943-1.1402 6.8914-1.8025-4.3314 3.5381-10.274 5.2859-16.001 7.2733 4.8586-0.25856 9.4773-0.11745 11.637 4.1215-14.069 0.10098-13.43 8.2914-19.396 12.85 3.6367 0.17375 5.8793 0.99322 9.5159 4.667-14.036-0.76806-13.843 2.6301-14.607 7.2127 3.4516 1.9152 6.3007 0.55007 11.092 9.7584-6.1703-6.5702-12.097-5.8168-18.123-8.0613z" fill="#fff"/>
    <path id="path10648-7-4" d="m664.91 251.4c0.22633-1.7798 9.7522 1.2402 12.307 1.8397-4.7627 3.0755-13.634 2.7038-13.814 8.5564 3.3156 2.3273 9.8516 0.66927 13.167-0.79626-0.7869 0.98533-1.9344 1.814-3.2534 2.5407-0.39911 0.2199 1.7166 0.32439 3.4885-0.0487-0.41639 0.58824-5.9448 1.2368-6.5698 1.4952-2.4868 1.0283-5.0705 1.8783-6.8324 2.8156 3.0202-0.24638 5.8913-0.11191 7.234 3.9274-8.7457 0.0962-6.0454 9.2342-12.057 12.244 2.2606 0.16557 7.519 0.55992 9.7797 4.0607-8.7249-0.73188-12.469 2.8927-12.945 7.2594 2.1456 1.825 1.7346-0.0213 6.1676 4.8135-6.6843-1.9573-7.3376-0.20895-11.144-1.2567z" opacity=".094463"/>
    <path id="path8090-1-9" d="m649.38 298.26c-0.59216 1.385-0.78618-2.532-1.0455-4.2776-3.8815-26.268-18.158-154.92 57.349-247.56 19.735-24.213-17.904 44.407-19.886 117.86-1.9194 71.126-36.417 133.98-36.417 133.98z" fill="#fff6f6" stroke="#000" stroke-width="2"/>
    <path id="path15524-8" d="m680.39 322.81c-13.689-13.55-27.149-21.102-40.568-25.615 6.1438-3.5785 37.193 13.011 40.568 25.615z" color="#000000" style="-inkscape-stroke:none"/>
    <path id="path15524-1-5" transform="matrix(-1 0 0 1 1144.7 -20.753)" d="m463.28 345.44c14.671-14.43 29.096-22.474 43.478-27.28-6.5844-3.8111-39.86 13.857-43.478 27.28z" color="#000000" filter="url(#filter15917-2)" opacity=".15309" stroke-width="1.0684" style="-inkscape-stroke:none"/>
   </g>
  </g>
 </g>
</svg>
