<?xml version="1.0" encoding="UTF-8"?>
<svg width="1200mm" height="1200mm" version="1.1" viewBox="0 0 1200 1200" xmlns="http://www.w3.org/2000/svg" xmlns:xlink="http://www.w3.org/1999/xlink">
 <g>
  <g>
   <path d="m574.49 181.51c-58.453-0.52973-93.59 9.3266-139.47 37.117-72.898 44.156-122.34 141.74-117.94 226.86 3.5491 68.608 54.026 137.57 113.43 172.08 33.272 19.329 76.388 19.535 115.87 12.156-6.5614 6.7824-13.647 17.881-20.176 35.991-27.732 65.046-49.014 205.24-50.249 234.2-17.532 70.401-20.435 205.45 17.562 248.2 43.947 49.442 76.374-13.665 180.09 7.3122 49.884 10.089 45.102-164.07 30.38-245.05-17.439-95.922-41.589-237.85-82.404-280.04 76.969 12.5 149.38-0.0691 185.31-55.316 65.851-101.26 30.525-264.22-62.58-341.17-36.481-30.154-118.24-51.877-169.82-52.345z" fill="#500d0d" stroke="#000" stroke-width="2"/>
  </g>
 </g>
</svg>
