<?xml version="1.0" encoding="UTF-8"?>
<svg width="1200mm" height="1200mm" version="1.1" viewBox="0 0 1200 1200" xmlns="http://www.w3.org/2000/svg" xmlns:xlink="http://www.w3.org/1999/xlink">
 <g>
  <g transform="translate(19.4 11.241)">
   <g stroke="#000">
    <path d="m561.36 610.27-74.348 105.57c6.0527-32.013 15.329-65.017 37.835-95.779l36.512-13.229 43.127 12.435c32.601 38.612 36.69 71.702 44.715 104.77z" fill="#e00c0c" stroke-width="2"/>
    <path d="m555.36 170.77c-58.453-0.52974-93.59 9.3265-139.47 37.117-72.898 44.156-122.34 141.74-117.94 226.86 3.5491 68.608 54.026 137.57 113.43 172.08 43.186 25.088 102.99 18.016 149.84 3.8673 91.351 24.55 184.23 18.648 226.54-46.403 65.851-101.26 30.525-264.22-62.58-341.17-36.481-30.154-118.24-51.877-169.82-52.344zm8.8632 102.96c44.014 5e-5 108.1 30.778 139.22 59.604s37.67 96.178 37.67 136.94c-5e-5 40.766-20.587 73.538-51.709 102.36-31.123 28.826-74.18 32.251-126.57 35.473-43.931 2.7021-120.74 0.27647-151.86-28.55-31.123-28.826-54.627-82.193-54.627-122.96-8e-5 -40.766 30.245-119.06 61.367-147.88 31.123-28.826 102.5-34.995 146.51-34.995z" fill="#e00c0c" stroke-width="2"/>
    <ellipse cx="542.57" cy="612.18" rx="2.0226" ry="1.7483" fill-opacity=".72065" fill-rule="evenodd" stroke-linecap="round" stroke-linejoin="round" stroke-width=".6841"/>
    <ellipse cx="575.98" cy="611.01" rx="2.0226" ry="1.7483" fill-opacity=".72065" fill-rule="evenodd" stroke-linecap="round" stroke-linejoin="round" stroke-width=".6841"/>
    <path d="m542.72 611.7-0.77569 50.226" fill="none" stroke-width="1.097px"/>
   </g>
   <path d="m504.68 197.48c-4.0962-10.863-17.092-8.8693-31.341-2.3641-14.24 6.5012-29.731 17.509-38.84 24.694-23.475 18.517-29.942 51.903-41.926 79.295-20.721 47.361-52.568 94.602-51.496 146.29 1.0102 48.734 17.328 103.96 54.231 135.8 32.86 28.357 83.318 23.516 126.46 28.255 4.3613 0.47906 36.561-4.0751 66.533-2.6904 20.505 0.94735 75.555 5.9537 122.57-1.9949 31.116-5.2608 64.602-26.184 61.072-21.851-28.409 34.87-96.717 39.41-96.597 40.663 0.11708 1.2199-26.377 2.1789-49.184-0.71849-28.835-3.663-56.141-11.581-64.747-11.747-13.153-0.25377-25.95 6.2911-27.925 6.683-3.5406 0.70254-6.8603 1.3257-9.982 1.8768-42.734 7.5445-48.347 1.5874-75.111 0.9437-27.321-0.65706-97.113-48.468-126.23-105.27-44.345-86.497-21.099-158.58 13.216-222.85 27.839-52.141 61.966-78.724 120.77-105.27 18.564-8.381 56.41-19.765 74.966-14.811 131.91 66.964-205.96 114.84-26.432 25.065z" fill-opacity=".99763" opacity=".16"/>
   <path d="m575.71 610.24 0.19404 47.9" fill="none" stroke="#000" stroke-width="1.097px"/>
  </g>
 </g>
</svg>
