<?xml version="1.0" encoding="UTF-8"?>
<svg id="svg5" width="1200mm" height="1200mm" version="1.1" viewBox="0 0 1200 1200" xmlns="http://www.w3.org/2000/svg" xmlns:xlink="http://www.w3.org/1999/xlink">
 <defs id="defs77">
  <filter id="filter8667" x="-.023122" y="-.0078975" width="1.0462" height="1.0158" color-interpolation-filters="sRGB">
   <feGaussianBlur id="feGaussianBlur29-7" stdDeviation="0.073773287"/>
  </filter>
  <linearGradient id="linearGradient15207" x1="55.673" x2="68.013" y1="158.19" y2="158.67" gradientTransform="translate(16.851 -.25549)" gradientUnits="userSpaceOnUse">
   <stop id="stop12" offset="0"/>
   <stop id="stop14" stop-opacity="0" offset="1"/>
  </linearGradient>
  <filter id="filter529345" x="-.0023717" y="-.0010419" width="1.0047" height="1.0021" color-interpolation-filters="sRGB">
   <feGaussianBlur id="feGaussianBlur529347" stdDeviation="0.38609469"/>
  </filter>
 </defs>
 <g id="layer60" transform="translate(19.4 11.241)">
  <g id="layer16">
   <g id="layer20">
    <g id="g52" transform="translate(-9.3103e-6 .00033395)" fill="none" stroke="#000"></g>
    <g id="g58" transform="matrix(4.1461 0 0 4.2539 312.56 54.726)" fill="#382e85" fill-opacity=".99763">
     <path id="path56" d="m49.027 184.87c-0.62775-0.30974 1.0308-15.588 5.3882-40.191 0.12756-0.81753-7.2713 20.261-7.127 19.314 0.12173-0.79863-5.2827-0.69888-4.6992-3.0381 0.93854-3.7627 4.7033-17.479 9.4848-24.959 1.1581-1.8118 2.0608-3.048 4.0278-5.0596 1.1458-1.0073 1.7876-0.77852 1.7876-0.77852l5.5934-0.31303c1.2234-0.10501 4.122 1.3795 6.9069 5.1249 3.1035 4.1739 5.5151 15.37 8.8643 23.38-0.79617 1.5947-3.4474 2.8842-4.87 3.8178-0.56973-0.47523-5.6089-18.665-5.4997-18.062 3.7502 20.711 4.3157 39.054 4.1296 40.005-4.4478 0.83025-20.063 1.1248-23.987 0.76006z" fill="#fff" fill-opacity=".99763" stroke="#000" stroke-width=".71478"/>
    </g>
    <g id="g96" transform="matrix(4.1461 0 0 4.1461 114.51 46.948)" stroke="#000">
     <path id="path60-7" d="m114 138.54 1.5935 51.993c-1.1326 0.90417-1.7577 0.45483-2.3729-0.0208l-1.1216-55.408" fill="#484545" stroke-width=".465"/>
     <path id="path62" d="m113.13 190.75 2.5708-0.0199-0.53381 0.60256-0.0935 0.93544-1.3564-0.0234-0.0234-0.81851z" fill="#c1c1c1" fill-opacity=".99763" stroke-linejoin="round" stroke-width=".26458px"/>
     <path id="path64-6" d="m104.69 135.81c0.6079 19.374-1.7297 36.017-2.5858 54.973 1.8112 1.6468 1.6146 0.2129 2.3779 0.0327l2.3961-54.786" fill="#484545" stroke-width=".465"/>
     <path id="path66" d="m109.96 136.53 0.5858 54.965c-0.47221 0.0516-3.7131 0.22829-2.4666 0.12602l-0.4121-55.315" fill="none" stroke-width=".565"/>
     <path id="path68-1" d="m103.69 135.2 4.4618 0.52634 1.6305-0.032c0.87499-0.40253 3.0161 0.10576 2.8104-0.77713-0.46578 0.46775-6.121 0.73723-8.903 0.28279z" stroke-width=".26458px"/>
     <g id="g76" fill-opacity=".99763" stroke-linejoin="round">
      <path id="path70-8" d="m114.38 140.49-5.5967-4.8394c0.999 0.0437 1.8872-0.26591 3.8094-0.73339l2.4351 1.5213c0.20474 0.16379-0.76482 1.5181-0.64778 4.0514z" fill="#fff" stroke-width=".565"/>
      <path id="path72-3" d="m103.94 141.19 4.8515-5.5417c-1.75-0.0561-3.6585 0.0988-5.0932-0.44449l-1.3808 1.3229c-0.0267 0.0382 1.6225 3.3804 1.6225 4.6633z" fill="#fff" stroke-width=".56511"/>
      <path id="path74" d="m102.01 191 2.5708-0.0199-0.53381 0.60256-0.0935 0.93544-1.3564-0.0234-0.0234-0.81851z" fill="#c1c1c1" stroke-width=".26458px"/>
     </g>
     <path id="path78" d="m90.779 163.64c2.0274 1.181 3.6291 2.9065 5.98 2.8744 0.73511-0.0283-1.0666 2.6147-1.5999 3.9221-1.9359-0.3855-3.8898-0.5911-5.6555-2.6789z" fill="#004370" stroke-width=".565"/>
     <g id="g94" fill="none" stroke-linejoin="round" stroke-width=".165">
      <circle id="circle80" cx="109.21" cy="186.43" r=".51449"/>
      <circle id="circle82" cx="109.17" cy="179.02" r=".51449"/>
      <circle id="circle84" cx="109.07" cy="171.42" r=".51449"/>
      <circle id="circle86" cx="109.11" cy="162.92" r=".51449"/>
      <circle id="circle88" cx="109.01" cy="155.08" r=".51449"/>
      <circle id="circle90" cx="108.94" cy="146.88" r=".51449"/>
      <circle id="circle92" cx="108.88" cy="138.64" r=".51449"/>
     </g>
    </g>
    <path id="path98-8" transform="matrix(.26458 0 0 .26458 -19.4 -11.241)" d="m2270.5 2334.1-139.51 4.416-21.639 20.73 0.8965 1.5547 6.6445 12.44c-93.214 115.72-130.63 277.41-190.32 417.92l-17.881 57.527 17.287 15.32c1.274-23.62 10.536-43.299 23.545-63.053 3.9959-3.2376-16.99-13.941-16.99-13.941l13.272 3.2168c54.558-126.33 83.756-259.31 173.16-384.31 1.8661 6.9772 3.5052 14.233 4.3906 22.498 0.7663 7.1393 0.9692 15.033 0.2734 24.146l21.768-32.652c-2.7015 250.33-27.752 500.66-43.488 751-38.963 6.7226-47.979-68.004-44.057-163.89 0.1572-3.8434 10.034-126.42 15.885-195.86-23.804 124.72-47.372 253.93-54.457 410.59l94.18 1.6816-8.834-10.596c13.774-264.12 32.106-507.63 33.209-785.68 0-8.1749-6.8526-20.775-7.8948-29.989 40.758-5.228 79.971-14.878 98.301-22.003l71.162 71.256-0.752-24.998-59.289-51.268c16.287-8.2908 25.949-18.381 37.572-31.424zm-196.77 477.05c14.933-78.241 29.959-154.72 41.07-235.09 0 0-6.1887-12.515-17.412-1.418-16.82 16.629-52.924 166.81-53.398 168.58 0 0 56.393-149.42 55.619-146.81-16.676 56.319-18.386 151.44-21.688 167.74-0.2957 1.4603-1.9763 20.708-4.1915 46.994zm73.004 369.16-3.3575 29.789-6.8984 11.916 151.23-2.3848-7.418-14.344z" filter="url(#filter529345)" opacity=".12797" stroke-width="15.67" style="mix-blend-mode:normal"/>
    <path id="path106" d="m642.05 725.5c-6.9356 8.084-15.623 11.978-24.017 18.047 3.5853 6.38 5.5197 11.589 8.4991 16.114 4.5864-2.048 22.17-7.8734 23.317-18.321z" fill="#004370" stroke="#000" stroke-width="2.5463"/>
    <path id="path108" transform="matrix(4.1461 0 0 4.1461 114.51 46.946)" d="m116.9 149.48 2.866 8.3338 3.0457 9.5196c0.67599 1.8023 0.58032 3.3069 1.7457 4.0948l-1.0618 0.47112-2.0499-3.8865 0.40579-0.78049z" filter="url(#filter8667)" opacity=".18892" style="mix-blend-mode:normal"/>
    <g id="g114" transform="matrix(4.1461 0 0 4.1461 114.51 46.948)">
     <path id="path110" transform="matrix(1,0,0,1.026,30.917,2.1382)" d="m77.165 184.69c-0.98137 0.14457-2.6478 0.0953-4.1334 0.0494-0.10634-3e-3 0.13286 0.53896-0.0961 0.70303-0.25508 0.18278-0.97956-0.0105-1.0921-0.0138-0.21832-6e-3 0.09998-0.72088-0.10021-0.72479-2.8188-0.0551-4.8781-0.0947-5.8091 0.10257 0 0 0.87465-12.052 5.2394-40.017 0.07382-0.47309-5.5946 15.277-5.5946 15.277 0.10589 0.0428-0.17229 0.76473-0.27551 1.1401-0.31304 1.1382-1.061 2.8291-1.061 2.8291-0.90556 0.0232-4.8954-0.70777-5.7006-2.548-0.47676-1.0896 1.6301-2.8992 2.0313-3.9352 1.8661-4.8194 6.8046-21.899 11.064-25.233 0.30065-0.23527-0.23982-1.328-0.0717-1.4315 0.32858-0.20233 0.9512-1.3797 1.5332-1.1475 0.05583 0.0223 0.25998 0.23723 0.4526 0.15915 0.3878-0.1572 1.0721 0.0989 1.0721 0.0989l1.0371-0.4461 4.6739 0.0379c0.0035 0.0207 0.5432-0.14919 1.4335-0.24964-1.5934 0.40705 0.2358 0.11058 1.3231 1.1539l1.154 0.87768c3.2864 2.3738 10.228 23.475 12.076 26.056 1.4729 2.0564-5.3869 3.4817-5.3869 3.4817 0.25103 0.73408-4.9411-16.852-4.8356-16.269 3.7502 20.711 3.8081 39.449 3.8081 39.449-1.2971 0.0924-3.5221 0.40079-5.1013 0.28378-0.31482-0.0233 0.12648-0.52789-0.19705-0.54401-1.2374-0.0617-1.1074 0.57055-1.8034 0.70024-1.5913 0.29652-2.9486 0.29382-2.3946-0.0441z" fill="url(#linearGradient15207)" opacity=".081433"/>
    </g>
   </g>
  </g>
 </g>
</svg>
