<?xml version="1.0" encoding="UTF-8"?>
<svg id="svg5" width="1200mm" height="1200mm" version="1.1" viewBox="0 0 1200 1200" xmlns="http://www.w3.org/2000/svg" xmlns:xlink="http://www.w3.org/1999/xlink">
 <defs id="defs77">
  <filter id="filter48371-3-9" x="-.037455" y="-.01109" width="1.0824" height="1.02" color-interpolation-filters="sRGB">
   <feGaussianBlur id="feGaussianBlur54-9" stdDeviation="0.70646612"/>
  </filter>
  <filter id="filter53250-6" x="-.09937" y="-.02207" width="1.1941" height="1.0398" color-interpolation-filters="sRGB">
   <feGaussianBlur id="feGaussianBlur60-6" stdDeviation="0.16324608"/>
  </filter>
  <filter id="filter53469-2" x="-.083354" y="-.26021" width="1.1501" height="1.4524" color-interpolation-filters="sRGB">
   <feGaussianBlur id="feGaussianBlur66-3" stdDeviation="0.16324608"/>
  </filter>
  <filter id="filter53469-2-9" x="-.19166" y="-.079673" width="1.3429" height="1.179" color-interpolation-filters="sRGB">
   <feGaussianBlur id="feGaussianBlur87-3" stdDeviation="0.16324608"/>
  </filter>
  <filter id="filter53465-1" x="-.068836" y="-.23303" width="1.1299" height="1.4698" color-interpolation-filters="sRGB">
   <feGaussianBlur id="feGaussianBlur69-6" stdDeviation="0.16324608"/>
  </filter>
  <filter id="filter18517-5" x="-.049376" y="-.21015" width="1.1005" height="1.4285" color-interpolation-filters="sRGB">
   <feGaussianBlur id="feGaussianBlur84-9" stdDeviation="0.40162864"/>
  </filter>
  <filter id="filter5543-6-0" x="-.08359" y="-.0065846" width="1.1606" height="1.0201" color-interpolation-filters="sRGB">
   <feGaussianBlur id="feGaussianBlur72-4" stdDeviation="0.087764187"/>
  </filter>
  <filter id="filter6257-4-2" x="-.033478" y="-.0062275" width="1.0662" height="1.0137" color-interpolation-filters="sRGB">
   <feGaussianBlur id="feGaussianBlur75-9" stdDeviation="0.087166883"/>
  </filter>
  <filter id="filter6257-8-7-1" x="-.033609" y="-.0064875" width="1.0672" height="1.0152" color-interpolation-filters="sRGB">
   <feGaussianBlur id="feGaussianBlur78-5" stdDeviation="0.087166883"/>
  </filter>
  <filter id="filter6257-8-1-6-3" x="-.022529" y="-.0068871" width="1.0451" height="1.0137" color-interpolation-filters="sRGB">
   <feGaussianBlur id="feGaussianBlur81-0" stdDeviation="0.087166883"/>
  </filter>
  <filter id="filter45848-8" x="-.040267" y="-.0066764" width="1.0726" height="1.0133" color-interpolation-filters="sRGB">
   <feGaussianBlur id="feGaussianBlur57-9" stdDeviation="0.16324608"/>
  </filter>
  <filter id="filter53254-2" x="-.040978" y="-.031155" width="1.0947" height="1.0557" color-interpolation-filters="sRGB">
   <feGaussianBlur id="feGaussianBlur63-5" stdDeviation="0.16324608"/>
  </filter>
 </defs>
 <g id="layer60" transform="translate(19.4 11.241)">
  <g id="layer15">
   <g id="layer157">
    <g id="Clothes" transform="matrix(4.1461 0 0 4.1461 114.51 46.946)">
     <g id="g328">
      <path id="path220-2" d="m126.8 192.73c-0.0879 0.0701-0.16731 0.1535-0.23875 0.24864-1.0832 1.4426-0.32681 5.5979 0.77093 7.6178 0.11552 0.69278-0.0904-0.53665 0.45937 2.3318l1.0268 0.86041c-1.1039 0.75159-1.5991 2.0931-0.74759 3.5128 0.75877 1.1501 1.392 1.4189 2.7226 1.1556 0.70588-0.13969 1.1277-0.48301 1.5383-1.2521 0.48056-0.90004 1.406-2.2416 1.0106-3.082-0.29947-0.63664-0.0702-1.0847 0.13118-1.3567 0.71121-0.9608 0.35703-1.0438 1.0965-2.6805 0.44891-0.92874 0.55878-4.4037-0.53185-6.8876-1.7589 0.0641-1.2428 0.37942-2.4122 0.47107" fill-opacity=".99763"/>
      <path id="path222-4" d="m89.86 193.71c0.0879 0.0701 0.16731 0.1535 0.23875 0.24864 1.0832 1.4426 0.32681 5.5979-0.77093 7.6178-0.11552 0.69278 0.0904-0.53665-0.45937 2.3318l-1.0268 0.86041c1.1039 0.75159 1.5991 2.0931 0.74759 3.5128-0.75877 1.1501-1.392 1.4189-2.7226 1.1556-0.70588-0.13969-1.1277-0.48301-1.5383-1.2521-0.48056-0.90004-1.406-2.2416-1.0106-3.082 0.29947-0.63664 0.0702-1.0847-0.13118-1.3567-0.71121-0.9608-0.35703-1.0438-1.0965-2.6805-0.44891-0.92874-0.55878-4.4037 0.53185-6.8876 1.7589 0.0641 1.2428 0.37942 2.4122 0.47107" fill-opacity=".99763"/>
      <path id="path224-7" d="m104.7 135.49c-1.9061 9e-3 -10-0.85331-13.566 9.0377-6.1729 14.479-8.6705 38.386-9.1412 47.507-0.08058 1.1195 0.41897 2.2164 1.3126 2.7524 1.1103 0.6555 3.4482 1.3239 6.025-0.63469 0.68902-0.42847 1.273-1.1323 1.4186-1.7143 1.4544-5.8157 6.7439-29.222 6.7495-29.036 3.2401-32.253-2.8239 23.916-2.3941 29.225l1.9166 75.949c2.0359 0.91496 3.6558 1.1706 5.8276 1.0692l4.1439-0.6382 1.9172-65.001 3.2324 26.264-0.062 38.869c4.9711 1.5167 7.2135 0.52946 11.278-0.19275l0.34247-75.247c0.78004-7.2399-2.2391-23.747-2.9635-31.434-0.0182-2.0274-1.5734-19.064 0.50436 1.1415 2e-3 0.10357 3.0259 21.305 4.808 28.988 0.12757 1.1328 0.91026 1.4836 1.8914 1.5544 3.9298 0.28271 4.4515 0.0665 5.896-0.63241 0.78518-0.38768 1.1796-1.4892 1.158-2.7754-0.23773-14.158-6.8802-57.278-23.018-54.918l-6.2663-2e-3s-0.37438-0.13527-1.0098-0.13229z" fill="#f60" stroke="#000" stroke-width=".565"/>
      <g id="g232" stroke-width=".85953">
       <path id="path226-0" d="m95.426 216.45c0.91866 2.6149 4.6793 2.2104 7.7165 2.3365l-0.29241 2.0195c-2.7693-0.25282-4.3482 0.22583-7.0512-1.5567z" color="#000000" style="-inkscape-stroke:none"/>
       <path id="path228-5" d="m95.586 221.4c2.0415 2.1798 4.6749 1.8473 7.0212 1.7459l-0.18564 1.8745c-2.4126 0.19749-4.6263 0.33134-6.6263-1.7429z" color="#000000" style="-inkscape-stroke:none"/>
       <path id="path230-0" d="m95.651 224.92c1.4078 2.778 4.2447 2.562 6.5611 2.683l-0.34946 1.8699c-2.6269-0.21817-4.7789-0.83746-6.054-2.639z" color="#000000" style="-inkscape-stroke:none"/>
      </g>
      <g id="g250" stroke="#000">
       <g id="g240">
        <path id="path234-6" d="m103.39 216.78-1.7474 15.125c-2.3594-0.10511-4.418-0.64147-5.4917-2.5899" fill="none" stroke-width=".22742px"/>
        <path id="path236-4" d="m100.68 239.21 2.1942 0.55876 2.3161 11.343s-0.201 3.6537-0.32506 4.023c-0.27954 0.83218-8.5663-0.76435-9.1831-2.4026l-0.69076-6.2581c0.22218 0.0724-1.2269-2.7795-1.3409-4.2466 0.50438-1.8066 2.652-4.2303 2.4644-4.3068z" fill="#f60" stroke-width=".19059px"/>
        <path id="path238-6" d="m118.93 215.87-2.4271 0.54875-2.562 11.14s0.22234 3.5883 0.35957 3.951c0.30922 0.81726 9.4758-0.75065 10.158-2.3596l0.76409-6.1459c-0.24577 0.0711 1.3572-2.7297 1.4833-4.1705-0.55792-1.7742-2.9335-4.1545-2.7261-4.2296z" fill="#f60" stroke-width=".249"/>
       </g>
       <path id="path242-7" d="m124.69 215.59c-4.7096 0.91951-6.4185 1.8872-7.2815 3.0362-0.43153 0.5745-0.58662 1.1791-0.69809 1.7224-0.11148 0.54333-0.1876 1.0238-0.44328 1.4907l0.43133 0.35161c0.32018-0.58466 0.40959-1.1684 0.51628-1.6884 0.10668-0.52002 0.22283-0.97677 0.57599-1.4469 0.70633-0.94033 2.5856-2.0225 7.2569-2.9345z" color="#000000" fill-opacity=".99763" stroke-width=".14949"/>
       <path id="path246-6" transform="scale(.26458)" d="m410.57 769.14-12.754 2.627 10.352 2.4414 0.11719 17.449-13.619-8.9141 13.654 14.107 0.0645 9.7168-6.9688-8.3242 7.0078 14.221 0.0801 12.07-11.588 25.959 11.646-17.359 0.16602 24.902 1.1894-26.924 0.24805-0.36915-0.15625-1.709 1.5137-34.232 12.307 75.502s0.18101 0.3 0.47852 0.7461l-0.64258 96.193c3.0444-23.275 2.5663-61.78 8.5-84.75l-4.7774 5.9102-0.28194-13.336c1.6524 2.4221 20.376 0.0654 22.42-1.2964-12.556-13.222-17.073-11.839-10.611-27.028 3.9483-9.4591 1.4141-28.797 1.4141-28.797-2.0559 7.7204-1.6248 9.4888-5.6309 13.959 0.76808-5.0864-1.0339-11.715-2.5332-18.162 0.40705-4.9804-1.0788-10.197 2.75-14.75-5.3333 5.1319-15.136 5.9443-16 0.25l-3.9609-26.113 11.963-3.5156z" fill-opacity=".99763" filter="url(#filter48371-3-9)" opacity=".1987"/>
      </g>
      <g id="g264">
       <path id="path252-1" d="m115.1 218.86-3.0859 11.375 0.25586 0.0703c0.21248-1.3946 3.3175-10.44 2.8301-11.445z" color="#000000" style="-inkscape-stroke:none"/>
       <g id="g262" stroke="#000" stroke-width=".26458px">
        <path id="path254-0" d="m102.17 235.61s1.7304 8.9465 2.712 13.295c0.81219 3.5982 2.3812 10.451 2.3812 10.451l0.46302-11.112c-2.594-3.0242-3.7447-8.3577-5.5562-12.634z" filter="url(#filter53250-6)" opacity=".21173"/>
        <path id="path256-7" d="m112.29 261.14c1.4114 1.4734 3.8376 2.101 6.2839 2.712l-6.35-1.3229z" filter="url(#filter53469-2)" opacity=".21173" style="mix-blend-mode:normal"/>
        <path id="path258-4" transform="matrix(-1,0,0,1,255.65,-1.5875)" d="m124.16 165.99c-0.0853 2.4556-0.46547 4.6267 1.9808 5.2377l-2.8421-0.8552z" filter="url(#filter53469-2-9)" opacity=".21173" style="mix-blend-mode:normal"/>
        <path id="path260-9" d="m122.61 264.32-7.6068 2.249c-0.0558-0.0248 3.3467-0.0972 5.8208-1.1245 0.22767-0.0945 1.7859-1.1245 1.7859-1.1245z" filter="url(#filter53465-1)" opacity=".21173" style="mix-blend-mode:normal"/>
       </g>
      </g>
      <path id="path266-1" d="m119 239.27-2.2031 0.54521-2.3255 11.068s0.20182 3.5652 0.32638 3.9255c0.28068 0.812 8.6012-0.74582 9.2204-2.3444l0.49512-8.1569c-0.22307 0.0706 0.8691-1.3164 0.98353-2.7479-0.50643-1.7628-2.1015-3.473-1.9132-3.5476z" fill="#f60" stroke="#000" stroke-width=".18865px"/>
      <g id="g282">
       <path id="path268-3" d="m124.23 239c-4.2749 0.91358-5.826 1.875-6.6094 3.0166-0.39171 0.5708-0.53248 1.1715-0.63366 1.7113-0.10119 0.53983-0.17029 1.0172-0.40236 1.4811l0.39152 0.34934c0.29062-0.58089 0.37177-1.1608 0.46862-1.6775 0.0968-0.51668 0.20225-0.97049 0.52282-1.4376 0.64114-0.93427 2.3469-2.0095 6.587-2.9156z" color="#000000" stroke-width=".71302" style="-inkscape-stroke:none"/>
       <path id="path270-8" d="m116.16 135.84-0.82191 0.91678c2.7788 3.3921 2.0065 18.905 2.3744 27.107 0.36789 8.2021 0.43249 16.297 1.2726 23.912l0.91773-0.32743c-0.81672-7.4029 0.18007-15.371-0.19227-23.672-0.81741-7.558 0.21535-22.577-3.5505-27.936z" color="#000000" style="-inkscape-stroke:none"/>
       <path id="path272-2" d="m118.71 150.52c0 2.2739-0.39342 4.1406-1.5999 4.1406s-2.1846-1.8433-2.1846-4.1172 0.97807-4.1172 2.1846-4.1172c0.65126 0 0.44084 1.0282 0.84107 1.8802 0.34123 0.72639 0.75885 1.1672 0.75885 2.2136z" color="#000000" fill-rule="evenodd" opacity=".36482" stroke-linecap="round" stroke-linejoin="round" stroke-width=".23084" style="-inkscape-stroke:none"/>
       <path id="path274-4" d="m118.92 188.36c-0.53533 0.32917 0.14763 6.612-0.62676 7.0621-0.56348 0.32747-1.1318 0.72185-1.1318 0.72185-0.34308 0.21881-0.74082 0.23332-1.0449 0.35546-0.30411 0.12215-0.5355 0.19541-0.84375 0.47266-3.3689 3.0301-5.3422 4.0268-6.0149 7.9979-0.26933-3.7153-5.4883-6.9852-7.0845-8.3405l-1.2891 1.5273c4.3019 3.6285 6.1315 6.0528 6.8844 8.087 0.37644 1.0171 0.33964 2.3023 0.48088 2.9462 0.0706 0.32192 0.13027 0.60643 0.27149 0.92382 0.14119 0.3174 0.48023 0.75338 0.97656 0.88477l0.58291 0.0727 1.1562-2.3875c1.174-4.7096 1.852-7.0556 5.374-10.223-0.11737 0.10557 0.0351-0.0183 0.25195-0.10547 0.21689-0.0871 0.52204-0.19169 0.87305-0.29687 0.70202-0.21037 1.5866-0.42654 2.4082-0.59375 1.432 0.33141 3.2204 1.5456 3.2204 1.5456 0.14333-0.12496 0.3668-0.26806 0.43555-0.75586 0.0344-0.2439-0.0435-0.57018-0.19141-0.77539-0.14789-0.20521-2.9254-2.153-3.0503-2.2114-0.49947-0.23399-0.22251-7.7776-0.49018-7.613z" color="#000000" style="-inkscape-stroke:none"/>
       <path id="path276-3" d="m123.7 185.68-7.0524 1.4157-9.9014-2.8342c-4.6581-0.13334-6.5567 0.46436-11.215-0.39836l-0.53414 6.8963c4.3705 0.47239 7.0105 0.18303 11.381 0.24356 0.90406-0.32117 1.6334-0.35632 3.1857-1.7384l4.1506 0.14014 1.82 1.217 8.5106-1.7257z" color="#000000" style="-inkscape-stroke:none"/>
       <path id="path278-8" d="m97.157 137.58c0.85787 0.19274 2.1092 1.0637 3.0836 3.4557 0.97445 2.392 1.3543 11.478 2.0557 15.79 1.3099 8.0528-0.34046 13.095-0.18301 26.147 0.011 0.90724-0.70231 4.7911-0.66829 5.6908l-0.0524 4.6407c-1.858 3.7305-6.1784 3.1899-6.3561 7.9462l0.24404 4.0651c1.0684-2.0336 4.6499-3.3483 7.24-5.3753 1.5446-1.2087 1.1142-2.6385 2.0022-4.2287l0.58254-7.9658c-0.21831-2.7631 0.23639-23.879-0.83639-31.242-0.71476-4.3941-1.1001-13.584-2.1749-16.222-1.1255-2.3281-4.3478-3.9546-4.9371-2.7018z" color="#000000" style="-inkscape-stroke:none"/>
       <path id="path280-5" d="m93.217 152.93c0.16697 0.53002 0.27156 0.80837-0.70534 1.5082-0.35568 0.25477-1.1771 0.17789-1.6653 0.33169-1.2395 0.39046-3.0925 1.3727-3.8348 1.442-0.35324 0.0329 0.0183-0.49896-0.0551-0.73206-0.22774-0.723 1.1367-1.6936 2.966-2.2698 1.8293-0.57624 3.0669-1.003 3.2946-0.27998z" color="#000000" fill-rule="evenodd" opacity=".36482" stroke-linecap="round" stroke-linejoin="round" stroke-width=".265" style="-inkscape-stroke:none"/>
      </g>
      <ellipse id="ellipse284" cx="117.77" cy="192.41" rx="1.2395" ry="6.6884" fill="none" stroke="#000" stroke-linecap="round" stroke-linejoin="round" stroke-width="2"/>
      <g id="g292">
       <path id="path286-3" d="m110.5 155.33 1.249 19.334-0.17672 11.14-2.0091-0.54403 0.12783-10.409-1.6834-19.378z" fill="#c7c2bf" stroke="#000" stroke-width=".26458px"/>
       <path id="path288-8" d="m108.37 161.62 2.6257-2e-3 0.16484 2.448s-0.53814 0.10929-0.51613 0.2425c0.0221 0.13322 0.0574 0.79101 0.12829 1.114 0.0709 0.32301 0.52381 0.35281 0.52381 0.35281l0.0225 1.1379-2.4813 0.20977-0.0652-1.3696s0.42936-0.12259 0.5556-0.37662c0.12628-0.25403 0.18751-0.85828 0.0337-1.1383-0.15382-0.28005-0.83252-0.39797-0.83252-0.39797-0.0609-0.74016-0.0984-1.4803-0.15926-2.2205z" fill="#645959" stroke="#000" stroke-width=".26458px"/>
       <path id="path290-2" d="m95.679 134.54 3.3043 4.441s5.332 2.1749 6.6183 2.362c1.2862 0.18709 8.4424 0.35079 8.4424 0.35079l5.2852-1.4499s-0.21047-0.72497 0-1.1927c0.21048-0.46772 0.72498-3.0636 0.72498-3.2039 0-0.14032-1.4696-1.962-1.4696-1.962s-2.3091 0.45457-4.7305 0.83014c-2.6243 0.40704-5.654 0.57754-6.8319 0.64057-4.5466 0.24331-8.7889-0.43616-10.856-0.66958" fill="#183786"/>
      </g>
      <path id="path294-0" d="m118.27 133.63s0.39338 0.5772 0.79492 1.1836c0.20077 0.3032 0.40434 0.6145 0.55664 0.85937 0.0761 0.12244 0.13988 0.22833 0.18164 0.30274 0.0126 0.0224-3.2e-4 -0.0106 8e-3 0.01-6e-3 0.0493-0.0142 0.11369-0.0293 0.19727-0.0344 0.19032-0.0889 0.43816-0.14649 0.67969-0.11509 0.48306-0.24023 0.93945-0.24023 0.93945l-0.0137 0.0508-0.19141 1.8887c-0.17585 0.0939-0.39927 0.21943-0.91015 0.45703-0.673 0.313-1.5131 0.6428-1.9727 0.71875-4.4027 0.72765-9.1215 0.55318-13.324-0.83593-1.2327-0.40745-3.0702-1.5753-4.5391-2.6367-0.95024-0.698-1.3198-1.7423-1.3914-2.7576l-1.3717-0.14311c-0.039 1.8086 1.0561 3.2074 2.0228 3.9262 1.5098 1.091 3.3457 2.3044 4.8828 2.8125 4.4395 1.4674 9.3482 1.6394 13.926 0.88281 0.74023-0.12234 1.587-0.4864 2.3008-0.81836 0.71376-0.33196 1.2734-0.64062 1.2734-0.64062l0.29296-0.15821 0.25196-2.4746c0.0144-0.053 0.12076-0.44109 0.23437-0.91796 0.0606-0.25418 0.11839-0.51698 0.16016-0.74805 0.0209-0.11554 0.0386-0.22264 0.0488-0.32617 0.0102-0.10354 0.0366-0.17172-0.0156-0.38086-0.0541-0.21666-0.0946-0.24091-0.15234-0.34375-0.0577-0.10284-0.12896-0.21976-0.21094-0.35157-0.16396-0.26361-0.36984-0.58197-0.57422-0.89062-0.6571-0.89956-0.82052-0.88635-1.8517-0.48467z" color="#000000" style="-inkscape-stroke:none"/>
      <path id="path296-0" d="m97.662 134.82s3.3325 3.391 5.1099 3.9522c1.7774 0.56127 8.419 1.0758 8.419 1.0758l4.4434-1.2628h-3.5547l-7.6706-0.60803s-2.7596-1.5903-2.9934-1.7306c-0.23386-0.14032 2.2441-0.53002 2.2441-0.53002l5.7614 0.77194 4.2956-0.38224 3.274-0.98221-5.1449 0.56126-1.9933-0.41146-12.471-0.40705" filter="url(#filter18517-5)" opacity=".36156" stroke="#000" stroke-width=".26458px"/>
      <g id="g312" transform="translate(.2832 -.0086593)" stroke="#000">
       <g id="g310" stroke-width=".26458px">
        <g id="g306" fill-opacity=".99763">
         <path id="path298" d="m98.47 153.72c2.3933 9.2028-2.2887 22.379 0.33471 30.77-0.20743 3.2959-4.0934 6.2755-4.0934 6.2755z" filter="url(#filter5543-6-0)" opacity=".16"/>
         <path id="path300-6" d="m120.3 156.5s3.3796 9.5251 4.0224 14.499c1.8323 14.18 6.178 26.084 6.178 26.084l-4.7375-4.6827c-3.1498-15.591-3.4402-20.31-5.4629-35.901z" filter="url(#filter6257-4-2)" opacity=".16"/>
         <path id="path302" transform="matrix(-1,0,0,1,185.48,1.4479)" d="m87.536 154.4s3.3796 9.5251 4.0224 14.499c3.5353 14.18 6.3121 24.506 6.1298 24.506l-2.7898-2.3459c-3.1498-15.591-5.3398-21.068-7.3624-36.659z" filter="url(#filter6257-8-7-1)" opacity=".16"/>
         <path id="path304" transform="matrix(-1,0,0,1.1552,179.45,-35.252)" d="m82.578 149.62c0.965-0.4498 5.3953 2.004 6.2618 7.1358 5.2753 11.706 9.63 39.004 8.7821 40.613l-2.0213 2.5156c0.68862-11.992-2.8889-30.789-9.5106-45.063-0.86938-1.8741-2.5713-3.5015-3.5119-5.2007z" filter="url(#filter6257-8-1-6-3)" opacity=".16" stroke-linejoin="round" stroke-width=".26423"/>
        </g>
        <path id="path308" d="m127.86 199.66c0.86409-0.46657 3.9436-0.41187 6.1516-0.56224" fill="none"/>
       </g>
      </g>
      <g id="g326">
       <path id="path314" d="m99.603 203.74c0.98966 3.5696 5.2853 9.7754 5.2853 9.7754s-3.2409-5.7841-5.4256-4.7708c-2.4404 1.1319 0.15364 8.0689 0.15364 8.0689s-1.4543 0.36186-1.8842 0.91135c-0.37306 0.47684-0.50937 1.1872-0.37418 1.7773 0.09679 0.42252 0.79513 1.029 0.79513 1.029l0.04677 1.9176c-5e-3 1.3012-1.0568 3.8353-1.0568 3.8353s-0.49427 2.6909 0.35383 3.6015c0.70136 0.75299 4.1476 2.0221 4.1476 2.0221s-3.8428-0.39597-4.2865 0.36331c-0.25972 0.4444-0.17906 5.9091-0.17906 5.9091l1.3096 0.51449s-0.93322 0.45981-1.1693 0.88868c-0.26411 0.47978-0.14032 1.637-0.14032 1.637s0.19298 0.77268 0.5145 0.8419c0.39964 0.086 2.7628 1.7922 2.7628 1.7922-1.1512-0.58106-3.5963-0.8525-4.3063-0.15519-0.48465 0.52851-0.10538 2.1487-0.10538 2.1487l1.9295 0.61088-1.6838 0.42095s-0.81687 1.9233-0.59385 2.8588c0.23239 0.97478 3.5023 4.7997 3.5023 4.7997s-1.861-0.43968-1.4585 0.47987c1.0855 2.4803 5.4643 1.7615 5.4643 1.7615-0.0666 0.33316-4.5591 0.13653-5.1369 0.7174-0.92152 0.92644-0.19374-0.94933-0.19511-0.95127l0.23386 2.4789c1.2258 1.2966 3.9035 1.5615 6.782 1.6838-5.6829 0.20656-4.4953 1.5582-6.1739 2.4322 0 0-0.78971 3.3282 0.18709 4.4434 1.8036 2.059 8.0876 1.4226 8.0876 1.4226-3.3013 0.93328-6.6259 0.75235-9.9713-0.4309-0.15818-5.224 0.16378-8.1281-0.4737-15.09 0 0-0.61974-0.27744-0.83951-0.71141-0.61741-6.9933-1.947-10.179-1.947-10.179 0.5516-1.6901 1.7198-3.6711 2.4993-4.7984l0.37627 0.22635-0.5503-6.6673c0.07004-2.0377-0.28714-8.0788-0.52501-10.998-0.17486-1.9859 0.07637-4.5501-0.04715-6.2713l-0.51598-23.323 4.0238 0.0671s-0.56618 8.7583 0.58465 12.909z" filter="url(#filter45848-8)" opacity=".21173" stroke="#000" stroke-width=".26458px"/>
       <path id="path316" d="m95.477 238.92c4.2576 0.93628 5.8024 1.9216 6.5827 3.0916 0.39012 0.58498 0.53033 1.2006 0.6311 1.7538 0.10071 0.55324 0.16958 1.0425 0.40073 1.5179l-0.38994 0.35803c-0.28944-0.59532-0.37027-1.1897-0.46673-1.7192-0.0964-0.52951-0.20143-0.9946-0.5207-1.4733-0.63854-0.95748-2.3374-2.0594-6.5604-2.9881z" color="#000000" stroke-width=".72036" style="-inkscape-stroke:none"/>
       <g id="g324" stroke="#000" stroke-width=".26458px">
        <path id="path318" d="m124.51 244.31c-5.5357 0.46211-8.1574 0.49376-7.7164-4.492-0.82665 0.58737-1.2564 5.8655-1.3784 6.2251-0.49154 1.4478-0.76511 7.35-1.8025 8.6816-0.39575 0.508-1.5214 1.1906-1.5214 1.1906-1.1366 6.7665 0.51877 7.7654 2.5135-1.4552 0 0 0.84145-6.6691 1.6536-7.7391 0.87233-1.1492 8.2515-2.4111 8.2515-2.4111z" filter="url(#filter53254-2)" opacity=".21173" style="mix-blend-mode:normal"/>
        <path id="path320" d="m106.99 269c-0.10404 0.75097 0.44784 1.7374-1.9495 1.6651l-0.78396 0.0112-11.242 0.15997c-1.6836-0.0703-2.4742-0.13182-1.0046-1.9571 1.8047-1.8593 4.0926-1.7316 5.7365-1.5007l9.2437 1.6215"/>
        <path id="path322" d="m111.92 269.36c0.10404 0.75097-0.44784 1.7374 1.9495 1.6651l0.78396 0.0112 11.242 0.15997c1.6836-0.0703 2.4742-0.13182 1.0046-1.9571-1.8047-1.8593-4.0926-1.7316-5.7365-1.5007l-9.2437 1.6215"/>
       </g>
      </g>
     </g>
    </g>
   </g>
  </g>
 </g>
</svg>
