<?xml version="1.0" encoding="UTF-8"?>
<svg id="svg5" width="1200mm" height="1200mm" version="1.1" viewBox="0 0 1200 1200" xmlns="http://www.w3.org/2000/svg" xmlns:xlink="http://www.w3.org/1999/xlink">
 <defs id="defs77">
  <filter id="filter7744-7-0-0-0-0-1-4-6" x="-.013761" y="-.0044589" width="1.0275" height="1.0089" color-interpolation-filters="sRGB">
   <feGaussianBlur id="feGaussianBlur73-0-6" stdDeviation="0.01594037"/>
  </filter>
  <filter id="filter1317-9-7-7" x="-.011246" y="-.01679" width="1.0174" height="1.0362" color-interpolation-filters="sRGB">
   <feGaussianBlur id="feGaussianBlur70-2-5" stdDeviation="0.086061471"/>
  </filter>
  <filter id="filter7744-7-0-0-6-2-7" x="-.013761" y="-.0044589" width="1.0275" height="1.0089" color-interpolation-filters="sRGB">
   <feGaussianBlur id="feGaussianBlur67-4-0" stdDeviation="0.01594037"/>
  </filter>
  <filter id="filter7744-7-4-7-5-6-1" x="-.0082362" y="-.0016442" width="1.0165" height="1.0033" color-interpolation-filters="sRGB">
   <feGaussianBlur id="feGaussianBlur64-9-2" stdDeviation="0.0057284191"/>
  </filter>
  <filter id="filter7744-7-4-6-6-5" x="-.005966" y="-.0015003" width="1.0119" height="1.003" color-interpolation-filters="sRGB">
   <feGaussianBlur id="feGaussianBlur61-9-1" stdDeviation="0.0057284191"/>
  </filter>
  <filter id="filter80564-0-0-4" x="-.019467" y="-.01978" width="1.0396" height="1.0322" color-interpolation-filters="sRGB">
   <feGaussianBlur id="feGaussianBlur43-9-5" stdDeviation="0.029218198"/>
  </filter>
 </defs>
 <g id="layer60" transform="translate(19.4 11.241)">
  <g id="layer4">
   <g id="layer234" transform="translate(-19.4 -11.241)">
    <path id="path971-8-4-3" d="m372.1 504.38c-3.1804 13.141 11.588 4.0399 8.1559 17.118-2.3083 8.7949-11.13 27.772-10.238 36.822 13.834 37.705 68.305 46.504 49.363 64.892-15.405 14.958-53.724 29.482-26.395 70.025-12.458-10.75-18.721-32.941-23.648-42.739-6.1017-12.138 21.228-20.599 20.719-33.807-0.36154-9.3671-10.919-15.241-16.498-22.774-7.2708-9.8169-20.968-16.948-22.121-29.219-0.45877-4.8834 8.1492-37.029 5.2829-41.008-18.774-26.069-3.3659-65.584-3.2511-76.061" fill="#d57fc0" stroke="#000" stroke-width="2.3425"/>
    <path id="path979-4-0-3" d="m391.66 570.44c-10.428 11.994-21.643 39.214-11.946 53.026 7.8048 11.117 27.314 26.165 4.5504 50.103 12.458-10.75 14.156-5.9573 19.082-15.758 6.1017-12.138-18.902-30.605-18.798-44.19 0.0991-12.995 16.929-26.311 24.254-39.023" color="#000000" fill="#d57fc0" stroke-width="2.3425" style="-inkscape-stroke:none"/>
    <path id="path981-5-3-8" d="m389.59 520.18c-0.5757 2.4931-0.77182 5.0234-0.43368 7.6223 1.3831 10.517 2.8235 20.421 3.5465 28.165 0.36153 3.8721 0.54467 7.1987 0.44533 9.839-0.0995 2.6404-0.34744 4.6048-1.4979 5.9279-5.0623 5.823-10.436 15.535-13.279 25.387-2.8436 9.8522-3.1096 19.761 1.4089 26.197 3.7815 5.3863 10.742 12.019 13.879 20.512 2.627 7.1136 1.95 15.641-5.0122 25.355 2.1636-1.3426 5.2327-3.6736 6.5424-4.3647 2.5188-1.3292 3.8138-2.2294 6.2186-7.0129 1.3277-2.6411 1.0039-5.6583-0.41295-9.1428-1.4169-3.4844-3.9221-7.3089-6.6477-11.208-5.4512-7.7978-11.92-15.807-11.862-23.322 0.0535-7 4.4898-13.73 9.6678-20.326 5.178-6.5962 11.188-13.1 14.745-19.273l2.0323 1.1743c-3.7678 6.539-9.8378 13.052-14.931 19.541-5.093 6.4884-9.1202 12.906-9.1658 18.901-0.0464 6.07 5.9342 14.095 11.433 21.962 2.7495 3.9331 5.3468 7.8529 6.8989 11.669 1.5521 3.8166 2.0632 7.6501 0.33998 11.078-2.5221 5.0169-4.5466 6.621-7.2227 8.0332-2.676 1.4122-6.0014 2.7884-12.146 8.0901l-1.6114-1.7006c11.182-11.759 11.818-20.848 8.939-28.643-2.8784-7.7949-9.5799-14.247-13.603-19.978-5.1784-7.3761-4.6793-17.98-1.7327-28.189 2.9467-10.209 8.3918-20.107 13.757-26.278 0.33583-0.38642 0.83075-2.0238 0.92308-4.4784 0.0925-2.4546-0.0804-5.7106-0.43725-9.5314-0.71345-7.6414-2.1447-17.54-3.5303-28.076-0.69314-5.2705 0.12579-9.3954 1.8052-12.837 0.78196 2.8317 0.94414 4.9056 0.94414 4.9056z" color="#000000" stroke-width="4.146" style="-inkscape-stroke:none"/>
    <path id="path983-9-1-3" d="m416.13 566.56c13.834 37.705 71.02 47.958 52.078 66.347-15.405 14.958-53.724 29.482-26.395 70.025-12.458-10.75-18.721-32.941-23.648-42.739-6.1017-12.138 21.228-20.599 20.719-33.807-0.36109-9.3671-10.919-15.241-16.498-22.774-7.2708-9.817-20.968-16.948-22.121-29.219-0.23962-2.5523 1.9971-12.551 3.7781-22.084" fill="#d57fc0" stroke="#000" stroke-width="2.3425"/>
    <path id="path985-4-3-7" d="m422.79 600.91c-5.894 11.25-10.066 25.051-7.1812 37.421 6.1676 26.44 58.534 35.72 49.16 64.942 28.016-20.074-31.511-39.908-35.215-63.964-1.545-10.035 1.7849-18.024 5.9844-29.868 1.9645-5.5406 7.5174-20.107 7.5174-20.107" fill="#d57fc0" stroke="#000" stroke-width="2.7421"/>
    <path id="path987-5-8-5" d="m430.61 582.78c-0.26574 14.314 29.786 25.368 13.531 29.899-13.083 3.647-20.896 3.5098-18.47 36.456-2.8184-16.213-9.4607-17.567-6.8224-25.383 1.6892-20.204 16.865-13.883 25.738-22.848 8.1617-10.112-20.869-16.23-22.866-28.432" fill="#d57fc0" stroke="#000" stroke-width="2.3425"/>
    <path id="path953-9-4" d="m682.28 594.33c-28.008 12.702-44.871 17.785-85.938 24.082-12.5 13.75-9.8918 57.32 8.3805 53.938-4.3439 4.2221-4.3388 8.1603-1.8953 13.021 1.6556 3.2933 2.3975 6.0798 4.5394 11.267-14.312 12.073-23.536 25.02-7.6147 36.428-3.9707-12.378 1.1105-20.269 11.092-28.311 3.8968 8.8007 8.7858 16.855 15.267 22.716l1.6913-1.466c-5.8342-7.9867-9.9189-19.513-9.2157-27.11 13.266-10.051 29.939-19.321 31.07-37.511 1.8766-1.4896 3.0543-2.7317 4.5711-4.2046 0.73713-0.71578-0.23964 0.14967 0.28194-0.53941 5.8714 15.851 8.2397 33.792-5.5736 53.308l1.8086 1.4284c9.3483-12.151 13.116-18.729 16.708-28.068 3.4108-9.5491 5.2823-20.108 3.9935-27.933-0.75732-4.5982-1.3612-6.9396-3.4876-11.426-1.5059-5.6782-1.7181-7.4713-0.49188-12.013 0 0 25.604-24.812 14.813-37.607z" fill="#907abb"/>
    <path id="path949-7-1" d="m504.42 611.55c-34.339-8.1686-44.957-16.524-73.002-31.045-27.042 36.565-74.509-66.946 7.0706 50.097-3.3084-5.4507-2.4295-7.9368 14.88 3.666 1.3937 3.8245 3.6843 7.5426 5.8443 11.366 2.1941 3.8847 4.2424 7.8664 5.1566 12.067 0.91421 4.2006 0.73141 8.6106-1.5875 13.589-4.463 9.5797-3.5631 21.609 0.20358 33.371 3.7471 11.702 10.375 23.167 17.741 31.826 0.0124 0.0166 0.0124 0.0332 0.0249 0.0473h8e-3c0.0249 0.029 0.0464 0.0742 0.073 0.10489l1.8552-1.4248c-13.113-19.24-11.697-33.703-7.6375-47.405 1.5891-5.3625 3.6186-10.602 5.3558-15.902 1.8797 1.467 3.8656 2.9617 5.8764 4.4822 0.16045 1.3926 0.3918 2.778 0.71126 4.148 2.5565 10.959 12.309 18.827 22.473 26.15 0.10697 0.9825 0.16833 1.9857 0.16708 3.019-8e-3 7.0056-2.6252 15.288-9.3684 25.291l1.7332 1.5448c0.0759-0.0655 0.12604-0.16708 0.2015-0.23342 4e-3 -3e-3 4e-3 -0.0124 8e-3 -0.0166 6.3346-5.5708 11.016-13.793 14.738-21.872 0.27655-0.60014 0.53696-1.1959 0.80339-1.7934 0.0601 0.0439 0.12397 0.0867 0.18409 0.13061 6.3114 4.6141 12.055 9.283 15.57 14.423 3.5159 5.1414 4.9034 10.631 2.6801 17.563l-1.2639 3.9445 3.3699-2.4125c3.6388-2.6072 5.9726-5.2914 7.149-8.114 1.1763-2.8226 1.1189-5.7426 0.18657-8.5189-1.8649-5.5527-6.9696-10.714-12.94-15.994-3.5954-3.1801-7.5214-6.3879-11.299-9.6309 0.65823-1.6163 1.2807-3.1142 1.8766-4.555 1.004 1.0004 2.1817 1.9876 3.5435 2.9632l3.3763 2.4125-1.2704-3.951c-2.2235-6.9312-0.82727-12.424 2.6886-17.565 3.5159-5.1414 9.2572-9.8081 15.568-14.421 7.1572-5.2325 29.232-22.325 35.356-28.359-10.365 1.0387 18.269-16.053-12.488-20.683-2.3638-0.35587-5.7071 0.043-8.809-0.16051-15.283-1.0026-36.722-3.2687-56.809-8.1491z" fill="#d57fc0" stroke-width="1.0987"/>
    <path id="path995-9-1-4" d="m391.78 529.11c-10.66 11.788-21.643 39.214-11.946 53.026 7.8048 11.117 27.314 26.165 4.5504 50.103 12.458-10.75 14.156-5.9573 19.082-15.758 6.1017-12.138-18.902-30.605-18.798-44.19 0.0995-12.995 9.662-9.9929 16.987-22.705" color="#000000" fill="#d57fc0" stroke-width="2.3425" style="-inkscape-stroke:none"/>
    <path id="path951-3-5" d="m453.29 634.1c1.3863 3.8883 3.7253 7.6622 5.9193 11.546 2.1941 3.8848 4.2423 7.8666 5.1569 12.067 0.91421 4.2009 0.73145 8.6108-1.5875 13.588-4.4629 9.5798-3.5631 21.609 0.20358 33.371 3.7471 11.702 10.376 23.166 17.741 31.826 0.0124 0.0166 0.0124 0.0332 0.0249 0.0473h8e-3c0.0249 0.029 0.0464 0.0742 0.073 0.10489l1.8553-1.4248c-13.113-19.24-11.697-33.704-7.6377-47.404 1.5891-5.3627 3.6187-10.602 5.3559-15.902 1.8797 1.467 3.8657 2.9617 5.8766 4.4825 0.16045 1.3927 0.3918 2.778 0.71126 4.1483 2.5565 10.96 12.31 18.827 22.474 26.151 0.10738 0.9825 0.16875 1.9857 0.16709 3.0189-8e-3 7.0058-2.6253 15.288-9.3685 25.291l1.7331 1.5448c0.0759-0.0655 0.12604-0.16709 0.2015-0.23343 4e-3 -3e-3 0.17911 0.0941 8e-3 -0.0166 6.3347-5.5708 11.016-13.792 14.737-21.872 0.27654-0.60018 0.53696-1.1959 0.80339-1.7934 0.0601 0.0439 0.12396 0.0867 0.18408 0.13061 6.3115 4.6143 12.055 9.2829 15.57 14.424 3.5159 5.1417 4.9036 10.631 2.6801 17.563l-1.264 3.9446 3.3699-2.4126c3.6388-2.6073 5.9728-5.2914 7.1489-8.1141 1.1763-2.8226 1.1189-5.7425 0.18657-8.5188-1.8649-5.5526-6.9698-10.714-12.94-15.994-3.5954-3.1801-7.5216-6.388-11.299-9.6308 0.65823-1.6164 1.2808-3.1142 1.8767-4.555 1.004 1.0005 2.1817 1.9876 3.5434 2.9632l3.3764 2.4126-1.2704-3.951c-2.2235-6.9312-0.82727-12.423 2.6886-17.565 3.516-5.1417 9.2574-9.8083 15.568-14.422 12.623-9.2282 27.659-18.199 30.929-32.221-20.393-21.495 16.017 2.8908-2.6694-0.62399-2.8969 12.418-17.121 21.306-29.877 30.633-6.3786 4.6632-12.359 9.4434-16.218 15.086-1.1901 1.7404-2.0688 3.6041-2.6608 5.5688-0.28732-1.2529-0.8186-2.4616-1.5318-3.5996-0.27157-0.43335-0.57519-0.85899-0.8912-1.2813 2.2933-3.3893 5.8608-6.9702 9.9833-10.617 5.8724-5.1944 12.793-10.564 18.54-16.203 5.7468-5.6376 10.398-11.558 11.404-18.09l-2.7074-0.41838c-0.84613 5.4962-5.035 11.078-10.616 16.552-5.5802 5.4742-12.475 10.827-18.444 16.108-3.9481 3.4921-7.5112 6.9354-10.016 10.473-1.5008-1.6112-3.2299-3.172-5.0047-4.7329-3.0162-2.6534-6.1543-5.3055-8.454-8.0328-2.2997-2.7269-3.715-5.456-3.6034-8.3496 0.0207-0.55201 0.0833-1.09 0.17994-1.6198 0.95364-1.792 2.1826-3.5509 3.7556-5.2707 2.0748-2.2686 3.7666-4.8017 5.144-7.5332 2.5249-2.4517 5.1399-4.9336 7.1879-7.6983 3.5066-4.7345 8.704-8.955 13.246-13.565 3.4115-3.9138 1.4028-5.8238-1.6666-1.641-4.4119 4.4775-9.694 8.7331-13.458 13.816-0.87582 1.1826-1.9037 2.3371-3.0014 3.4839 6.3885-7.8052 1.8279-17.309 7e-3 -22.744-0.45982 10.5-1.0892 20.172-5.1631 27.856-0.664 0.6577-1.3222 1.3191-1.9603 1.9948-2.5251 2.6736-4.7825 5.5721-5.8915 8.9367-4.9985 8.4939-4.0948 17.761-2.7894 26.241 0.3661 2.3782 1.2205 4.6757 2.4295 6.9075l4.6896 6.6422c1.3198 1.5377 2.7618 3.0505 4.2825 4.5426 1.925 1.8885 3.9863 3.745 6.093 5.5771-0.48601 1.1834-0.96737 2.3483-1.489 3.5739-1.7963-1.293-3.5857-2.5897-5.3708-3.8867l-2.8408-2.0869c-9.0306-6.7462-16.969-13.838-19.05-22.759-0.0871-0.37273-0.16626-0.74666-0.24006-1.1227l-0.48845-3.3896c-1.0065-10.691 2.7104-22.266 7.7898-31.961l8e-3 -8e-3 8e-3 -0.0166c-0.0978-2.7741 1.4982-6.3553 2.8708-10.561l1.114-3.9038c1.6248-6.9544 3.6323-11.49-5.221-20.623 5.7663 9.5197 3.462 15.762 2.1254 23.072-3.7892 2.9158-7.5759 5.5829-11.084 8.0735-1.3778 0.97777-2.6988 1.9252-3.9741 2.8561-1.1388-3.1942-2.8829-6.177-4.4131-9.091-2.1051-4.0088-3.7746-7.8264-3.3036-11.791 0.69436-7.642 5.6994-9.6906 6.889-16.041-4.2473 4.601-8.4598 9.4293-9.2122 15.766-0.56661 4.7698 1.3942 9.0591 3.5435 13.151 1.6862 3.211 3.4835 6.3371 4.5076 9.4832l0.63846 2.4833c8e-3 0.0373 0.0166 0.0755 0.0207 0.1136 1.2452 7.5063-0.0124 14.504-2.0803 21.486l-0.74766 2.434c-1.7599 5.5008-3.8983 11.027-5.615 16.822-3.0068 10.147-4.3688 21.199 0.12853 34.003-3.1254-5.4663-5.826-11.293-7.7169-17.199-3.6568-11.42-4.3915-22.89-0.29976-31.672 2.5275-5.4253 2.7444-10.473 1.7417-15.08-1.0026-4.6069-3.1874-8.7776-5.4093-12.712-2.222-3.9348-4.4828-7.6423-5.748-11.191-5.2243-22.761-9.846-21.32-2.2075 0.78498zm222.81-26.035c-1.2653 3.5488-3.5344 7.25-5.7568 11.184-2.2221 3.9345-4.3982 8.1154-5.401 12.723-1.0027 4.6072-0.78793 9.6524 1.7396 15.078 2.9405 6.3118 3.4017 13.988 2.0567 22.067-1.4338 8.6125-5.2145 17.294-9.7566 25.469 3.9238-12.222 2.7041-22.894-0.19486-32.677-0.71952-2.4282-1.5187-4.798-2.3288-7.1497 1.0285-1.4831 1.6489-2.9618 1.8617-4.4522 0.34371-2.4077-0.41171-4.7263-1.8467-6.8844-1.2869-1.9357-3.1324-3.8074-5.3409-5.6973-1.2142-5.3652-1.7322-10.808-0.77984-16.55 1.8287-5.1554 1.8982-6.4108 3.0848-13.172-2.1051 4.0088-4.6308 8.1436-5.4011 12.787-0.84286 5.0812-0.62092 9.9028 0.19487 14.585-1.8028-1.3864-3.777-2.8071-5.8529-4.283-0.34537-0.70288-0.69554-1.3978-1.0541-2.0826v-0.0166c-1e-3 -3e-3 -8e-3 -2e-3 -8e-3 -8e-3 -5.8038-11.493-15.991-16.858-3.2586-0.97064l1.7996 4.1566c4.3323 8.7995 7.4204 18.93 6.9283 28.477l-0.31054 3.2439c-0.136 0.95369-0.30889 1.8997-0.52705 2.8346-2.6729 11.458-14.99 19.915-26.9 28.479 0.54857-2.6425 1.4762-5.1069 2.708-7.4263 0.51652-0.48663 1.0359-0.9728 1.536-1.4634 3.6593-3.5898 6.8691-7.2952 8.9809-11.199l1.9667-4.8121 0.48845-2.3183c1.5325-10.034 2.4294-21.149-6.367-30.768-4.9624-5.4261-7.629-12.691-8.7836-20.884-5.0995 2.9806 0.51009 15.469 6.7684 22.737 8.0966 8.853 7.1704 18.756 5.6344 28.732-0.34206 2.2222-1.2363 4.458-2.5408 6.6957-2.2832 2.1415-4.4368 4.4145-6.3156 6.869-0.91695 1.198-1.7646 2.4447-2.5365 3.7367l-2.9672 6.4192-1.2533 5.6181-0.22264 3.5696c0 0.0124-5e-5 0.0207 0 0.0332 8e-3 5.0377 1.8774 10.817 4.7452 16.98-2.8555-4.118-5.4379-8.6017-7.5863-13.265-0.18035-0.39097-0.3491-0.77946-0.52489-1.1699l-1.114-2.6182c-8e-3 8e-3 -0.0207 0.0166-0.0332 0.0249-0.43886-1.0164-0.85708-2.0047-1.2704-2.9975 8e-3 -8e-3 0.0207-0.0166 0.029-0.0249l-1.1226-2.6397c-1.8371-4.4974-3.4701-8.6071-4.9852-11.621-1.3433-2.6722-0.88358-4.8971 0.68124-7.3943 1.5648-2.497 4.3223-5.0683 7.3118-7.6983 2.9898-2.6299 6.2053-5.3299 8.6961-8.2833 2.4907-2.9533 4.297-6.2363 4.154-9.9459-0.19694-5.1131-3.1564-9.181-6.6071-12.834-3.4507-3.6537-7.4569-6.9938-10.123-10.593-2.2213-2.7623-11.232-10.29-1.8789 1.3925 2.9131 3.9334 6.9789 7.3035 10.292 10.812 3.3132 3.5081 5.8111 7.0577 5.9748 11.311 0.11153 2.8939-1.3037 5.6206-3.6034 8.3475-2.2997 2.7269-5.4376 5.3814-8.454 8.035-3.0162 2.6534-5.9192 5.2943-7.7467 8.2103-1.8274 2.9159-2.4917 6.2964-0.78411 9.693 1.5057 2.995 3.2142 7.3504 5.1867 12.159-1.5161 1.2827-3.0118 2.5615-4.4516 3.8353-5.9703 5.2806-11.073 10.448-12.938 16.001-0.93245 2.7764-0.98984 5.6965 0.18657 8.5192 1.1763 2.8226 3.5103 5.4983 7.1489 8.1054l3.3678 2.4233-1.2618-3.9531c-2.2235-6.9312-0.83589-12.424 2.6801-17.565 2.1936-3.2077 5.2506-6.2317 8.7753-9.1726 0.0958 0.21062 0.18574 0.419 0.28276 0.62991 3.7198 8.0752 8.4 16.286 14.731 21.857 8e-3 0.0124 8e-3 0.0207 0.0166 0.0332l8e-3 -8e-3c0.0742 0.0651 0.11816 0.16916 0.19279 0.23343l1.7332-1.5384c-6.7434-10.004-9.359-18.285-9.3685-25.291-7.5e-4 -0.60516 0.0249-1.1973 0.0622-1.7848 12.44-9.013 26.868-17.895 30.066-31.604 0.44703-1.9164 0.7264-3.8584 0.86765-5.815 1.6634-1.3442 3.2258-2.6817 4.6146-4.0302 0.2156-0.20937 0.41129-0.41904 0.6106-0.6278 0.64625 1.8888 1.2737 3.7831 1.8403 5.6952 4.0601 13.702 5.4782 28.173-7.6356 47.412l1.8531 1.4184c0.15548-0.25498 0.0489-0.0742 0.075-0.1049l8e-3 8e-3c0.0332-0.0506 0.0373-0.097 0.073-0.14802 9.4228-11.104 17.652-26.77 20.13-41.653 1.3983-8.3994 0.97292-16.568-2.2344-23.453-2.3188-4.9775-2.5016-9.3874-1.5875-13.588 0.91421-4.2005 2.9647-8.1805 5.1589-12.065 2.1941-3.8848 4.533-7.661 5.9193-11.549 0.8366-6.4582-2.4933 5.4716-2.2064-0.78008zm-179.25 26.908c-1.16 4.4339-2.5516 7.2248-2.5516 7.2248-4.8609 9.2825-8.6244 20.311-8.2504 31.025-1.69-1.2698-3.3228-2.5017-4.8696-3.7132 2.2882-7.4731 3.7758-15.122 2.3909-23.47-0.073-0.43898-0.16542-0.8725-0.26783-1.3027 1.4517-1.0788 2.998-2.1908 4.6146-3.3382 2.8192-2.0007 5.85-4.1324 8.9336-6.4258zm147.51 0.43708c1.6798 1.2391 3.2431 2.438 4.6362 3.5974l3.2221 2.9311c0.92843 0.94866 1.7101 1.8742 2.3116 2.779 1.2246 1.8417 1.7309 3.5156 1.4825 5.2557-0.085 0.59397-0.27199 1.2095-0.55914 1.8491l-1.6217 2.524c-0.39678 0.47792-0.84676 0.96691-1.3668 1.472-0.87856 0.85301-1.8462 1.7086-2.8729 2.5711-0.0249-7.8139-2.159-15.735-5.2315-22.977zm-140.86 27.346h2e-3c0.68787 2.2472 2.0194 4.3262 3.6527 6.2629 2.4906 2.9533 5.7082 5.6554 8.6982 8.2854 1.93 1.698 3.758 3.3702 5.236 5.0161l1.8531 2.359c0.0721 0.10821 0.15506 0.21767 0.22306 0.32588 1.5648 2.497 2.0224 4.7221 0.67909 7.3943-0.31013 0.61727-0.62374 1.28-0.94266 1.9798l-1.3604 3.1346c-0.64206 1.5274-1.3159 3.172-2.016 4.8937-1.8329-1.6076-3.6172-3.223-5.2767-4.851-5.5801-5.4742-9.7607-11.058-10.607-16.554-0.95273-6.1886-1.6666-12.347-0.14138-18.247zm22.253 31.074c-4e-3 1.1945 0.0651 2.4119 0.22057 3.6532-0.41892-0.42506-0.86906-0.85223-1.3175-1.2791 0.37563-0.85161 0.74198-1.6508 1.0968-2.374zm82.732 5.468c0.40507 0.96463 0.82304 1.94 1.2533 2.9268-3.8803 3.1769-7.3408 6.5116-9.8785 10.222-3.0917 4.5214-4.1037 9.8659-3.3764 15.686-1.3968-1.4185-3.2086-2.8768-3.7642-4.21-0.91616-2.1983-0.88838-4.3025-0.12189-6.5842 1.5326-4.5633 6.2816-9.6238 12.154-14.818 1.2045-1.0654 2.4599-2.1414 3.7341-3.2225zm-88.184 7.4026c3.596 3.0704 7.2567 6.0713 10.581 9.0118 5.8724 5.1943 10.623 10.254 12.156 14.818 0.76636 2.2818 0.79405 4.3946-0.12231 6.5929-0.55562 1.3334-2.3695 2.7917-3.7662 4.21 0.72979-5.8234-0.28318-11.162-3.3764-15.686-3.8586-5.6426-9.8312-10.431-16.209-15.095-0.22348-0.16336-0.45267-0.32547-0.67694-0.48854 0.4943-1.1526 0.95323-2.2496 1.4139-3.3639zm-8.3425 1.7762c1.299 0.92462 2.5779 1.8476 3.8584 2.7661-0.32546 0.73547-0.64927 1.4699-0.98979 2.209-2.1488 4.6645-4.7311 9.1457-7.5883 13.265 2.8698-6.1658 4.7382-11.95 4.7452-16.989 5.8e-4 -0.42083-8e-3 -0.83788-0.0249-1.2513z" opacity=".50641" stroke-width="1.0969" style="-inkscape-stroke:none"/>
    <path id="path997-2-0-6" d="m392.66 529.91c-5.161 5.7072-10.538 15.414-13.352 25.29-2.8147 9.8758-3.0215 19.841 1.4979 26.278 3.7815 5.3863 10.742 12.019 13.878 20.512 2.6278 7.1161 1.94 15.645-5.0284 25.363 2.1709-1.3483 5.246-3.6801 6.5585-4.373 2.5188-1.3292 3.8138-2.2294 6.2186-7.0129 1.3277-2.6412 0.9958-5.6583-0.42108-9.1428-1.4169-3.4844-3.914-7.3089-6.6398-11.208-5.4512-7.7978-11.92-15.807-11.862-23.322 0.0535-7 4.4898-13.738 9.6678-20.334 2.0018-2.5501 4.128-5.0852 6.1887-7.5925l1.4112 1.9828c-1.945 2.3564-3.9177 4.7094-5.7622 7.0592-5.093 6.4884-9.1202 12.906-9.1658 18.901-0.0464 6.0701 5.9421 14.095 11.441 21.962 2.7495 3.9331 5.3389 7.8529 6.8906 11.669 1.5518 3.8166 2.0632 7.6501 0.33998 11.078-2.5221 5.0169-4.5383 6.621-7.2144 8.0332-2.676 1.4122-6.0018 2.7884-12.146 8.0901l-1.6113-1.7006c11.182-11.759 11.81-20.848 8.9311-28.643-2.8784-7.7949-9.5716-14.247-13.595-19.978-5.1776-7.3745-4.7477-18.025-1.83-28.262 2.9177-10.237 8.3715-20.141 13.87-26.221 0.46833-1.0548-0.0543 3.7042 1.7334 1.5704z" color="#000000" stroke-width="4.146" style="-inkscape-stroke:none"/>
    <path id="path979-4-2" d="m745.07 570.95c10.428 11.994 21.643 39.214 11.946 53.026-7.8048 11.117-27.314 26.165-4.5504 50.103-12.458-10.75-14.156-5.9573-19.082-15.758-6.1017-12.138 18.902-30.605 18.798-44.19-0.0991-12.995-16.93-26.311-24.254-39.023" color="#000000" fill="#907abb" stroke-width="2.3425" style="-inkscape-stroke:none"/>
    <path id="path981-5-6" d="m744.02 556.47-0.44533 9.839 1.4979 5.9279c5.0623 5.823 10.436 15.535 13.279 25.387 2.8436 9.8522 3.1096 19.761-1.4089 26.197-3.7815 5.3863-10.742 12.019-13.879 20.512-2.627 7.1136-1.95 15.641 5.0122 25.355-2.1636-1.3426-5.2327-3.6736-6.5424-4.3647-2.5188-1.3292-3.8139-2.2294-6.2186-7.0129-1.3277-2.6411-1.0039-5.6583 0.41295-9.1428 1.4169-3.4844 3.9221-7.3089 6.6477-11.208 5.4512-7.7977 11.92-15.807 11.862-23.322-0.0535-7-4.4898-13.73-9.6678-20.326-5.178-6.5962-11.188-13.1-14.745-19.273l-2.0323 1.1743c3.7678 6.539 9.8378 13.052 14.931 19.541 5.093 6.4884 9.1202 12.906 9.1658 18.901 0.0464 6.07-5.9342 14.095-11.433 21.962-2.7495 3.9331-5.3468 7.8529-6.8989 11.669-1.5521 3.8166-2.0632 7.6502-0.33997 11.078 2.5221 5.0169 4.5466 6.621 7.2227 8.0332 2.676 1.4122 6.0014 2.7884 12.146 8.0901l1.6114-1.7006c-11.182-11.759-11.818-20.848-8.939-28.643 2.8784-7.7949 9.5799-14.247 13.603-19.978 5.1784-7.3761 4.6793-17.98 1.7327-28.189-2.9467-10.209-12.106-18.269-13.757-26.278l-0.92308-4.4784 0.43724-9.5313z" color="#000000" stroke-width="4.146" style="-inkscape-stroke:none"/>
    <path id="path983-9-4" d="m718.36 576c-13.834 37.705-68.785 39.031-49.843 57.419 15.405 14.958 53.724 29.482 26.395 70.025 12.458-10.75 18.721-32.941 23.648-42.739 6.1017-12.138-21.228-20.599-20.719-33.807 0.36109-9.3671 10.919-15.241 16.498-22.774 7.2708-9.817 20.968-16.948 22.121-29.219" fill="#907abb" stroke="#000" stroke-width="2.3425"/>
    <path id="path985-4-0" d="m715.55 576.57c-11.276 18.616-1.6122 24.857-1.6122 24.857 5.894 11.25 10.066 25.051 7.1812 37.421-6.1676 26.44-58.534 35.72-49.16 64.942-28.016-20.074 31.511-39.908 35.215-63.964 1.545-10.035 2.4968-20.595-5.9844-29.868-7.6151-8.3265-9.9653-13.916-10.67-19.595" fill="#907abb" stroke="#000" stroke-width="2.7421"/>
    <path id="path987-5-2" d="m704.24 581.05c-6.884 13.242-24.933 28.434-11.644 32.139 13.083 3.647 20.896 3.5098 18.47 36.456 2.8184-16.213 7.4038-16.47 4.7655-24.286-3.6689-10.871-17.206-12.277-25.738-22.848-8.1617-10.112 23.239-14.98 25.235-27.182 0.26948-1.6459 2.941 4.1615 2.9554 2.4818" fill="#907abb" stroke="#000" stroke-width="2.3425"/>
    <path id="path995-9-11" d="m756.9 582.65c-7.8048 11.117-27.314 26.165-4.5504 50.103-12.458-10.75-14.156-5.9573-19.082-15.758-6.1017-12.138 18.902-30.605 18.798-44.19" color="#000000" fill="#907abb" stroke-width="2.3425" style="-inkscape-stroke:none"/>
    <path id="path1033-4-5" transform="matrix(4.1457 0 0 4.1462 129.49 -66.439)" d="m139.21 156.19c0.189 1.4398-0.17984 2.3027-0.33976 2.8166l2.3606-4.7892c0.11632 0.0712 1.0799-0.77425 1.0504-0.15416-0.10239 2.1514 0.61952 5.3529 0.61952 5.3529-0.4011-0.84403 1.8161-6.6256 2.993-6.5444 0.23581 1.6327 1.1069 1.5879-0.62778 4.8289-0.20008 0.37381 2.536-2.6892 3.5906-6.756 0.90559-5.1497-4.2381 2.3854-9.6466 5.2454z" filter="url(#filter80564-0-0-4)" opacity=".16819" stroke="#000" stroke-width=".26458px" style="mix-blend-mode:normal"/>
    <path id="path997-2-9" d="m757.42 555.71c2.8147 9.8758 3.0215 19.841-1.4979 26.278-3.7815 5.3863-10.742 12.019-13.878 20.512-2.6278 7.1161-1.94 15.645 5.0284 25.363-2.1709-1.3483-5.246-3.6801-6.5585-4.373-2.5188-1.3292-3.8138-2.2294-6.2186-7.0129-1.3277-2.6412-0.99581-5.6583 0.42108-9.1428 1.4169-3.4844 3.914-7.3089 6.6398-11.208 5.4512-7.7978 11.92-15.807 11.862-23.322-0.0535-7-4.4898-13.738-9.6678-20.334l-1.8378 1.4495c5.093 6.4884 9.1202 12.906 9.1658 18.901 0.0464 6.0701-5.9421 14.095-11.441 21.962-2.7495 3.9331-5.3389 7.8529-6.8906 11.669-1.5518 3.8166-2.0632 7.6501-0.33997 11.078 2.5221 5.0169 4.5383 6.621 7.2144 8.0332 2.676 1.4122 6.0017 2.7884 12.146 8.0901l1.6113-1.7006c-11.182-11.759-11.81-20.848-8.9311-28.643 2.8784-7.7949 9.5716-14.247 13.595-19.978 5.1776-7.3745 4.7477-18.025 1.83-28.262z" color="#000000" stroke-width="4.146" style="-inkscape-stroke:none"/>
    <path id="path53085-9" d="m462.33 596.94c-11.062-4.4551-53.885-30.435-59.482-40.224 1.2579 9.7852 12.682 29.23 16.033 41.367 2.1315 7.7203 15.019 27.021 15.23 36.798 0.64463 29.882 27.269 50.654 0.68257 89.666 14.606-17.096 26.427-45.733 17.872-64.092-6.7163-14.416-1.4839-33.564 3.2749-47.759" color="#000000" fill="#d57fc0" stroke-linecap="round" stroke-linejoin="round" stroke-width="2.3425" style="-inkscape-stroke:none"/>
    <path id="path53087-9" d="m403.51 555.43c-0.52992 0.17953-0.85894 0.70865-0.78549 1.2633 0.0145 0.11153 0.13723 0.31593 0.15386 0.42916 2e-3 3e-3 6e-3 0.0124 8e-3 0.0166 0.76758 5.2117 3.7978 12.243 7.1585 19.686 3.4367 7.6115 7.1184 15.5 8.7456 21.394 1.1603 4.2026 4.9136 10.865 8.4136 17.848 3.5001 6.983 6.6751 14.275 6.7698 18.665 0.3297 15.283 7.2258 28.057 10.592 41.671 3.3661 13.614 3.4348 28.04-9.7012 47.316-0.76693 1.2086 0.88961 2.4746 1.8544 1.4171 0.0261-0.029 0.0466-0.0746 0.0729-0.10531h8e-3c0.0137-0.0207 0.0187-0.0373 0.0323-0.0568 7.3626-8.6584 13.988-20.118 17.734-31.816 3.7666-11.763 4.6576-23.793 0.19432-33.371-6.4503-13.845-2.646-29.594 2.0941-43.733 1.0567-3.6741 7.8172-25.296-0.99279-3.8988-5.7221 13.897-10.205 33.632-3.2229 48.619 4.0918 8.7812 3.3572 20.251-0.29963 31.671-1.7656 5.5137-4.2658 10.977-7.1261 16.131 4.463-12.254 4.0506-22.907 1.6196-32.74-3.4605-13.996-10.204-26.554-10.519-41.153-0.11617-5.3861-3.4832-12.628-7.0127-19.67-3.5295-7.0418-7.2805-13.901-8.2517-17.418-1.7236-6.243-5.4394-14.143-8.8671-21.735-2.6462-5.8607-4.2507-10.641-5.5065-15.03 1.9452 2.0499 3.4038 3.9404 6.5835 6.4216 5.017 3.9149 11.263 8.2389 17.678 12.39 12.828 8.3015 26.509 15.32 32.286 17.646 0.59928 0.24089 0.98892 0.51656 1.231-0.0821 0.24068-0.59928-0.49002-0.19653-1.0888-0.43883-5.2848-2.1285-18.409-10.844-31.157-19.093-6.3741-4.1248-12.575-8.4195-17.507-12.268-4.9322-3.8487-8.6078-7.3598-9.7984-9.4421-0.27613-0.48899-0.86047-0.71316-1.3928-0.53443z" color="#000000" stroke-linecap="round" stroke-linejoin="round" stroke-width="4.1461" style="-inkscape-stroke:none"/>
    <g id="g959-7-4" transform="matrix(4.1457 0 0 4.1462 133.9 58.185)" fill="#d57fc0" stroke="#000" stroke-width=".565">
     <g id="g957-1-18" fill="#d57fc0">
      <path id="path955-3-7" d="m106.55 47.333v0s-6.7178 4.0653-7.1423 7.4885c-0.67579 5.4508 4.4984 10.207 8.1162 14.34 8.4122 9.6097 24.502 20.956 30.554 23.118 7.0808 2.7682 7.9772 10.941 9.0841 15.693 2.524-0.60286 5.3828-0.0494 4.6184 3.1684-0.36671 1.5437-1.837 2.0411-3.357 1.8361-3.9588 8.2649-9.3901 13.075-16.015 16.211 6e-3 5.1732 10.155-0.71464 16.625-6.867 1.7075-1.6236 3.1547-3.2852 4.0855-4.7966 4.0524-6.5796 5.5367-18.047 5.5024-22.143-0.338-17.761-6.7037-28.232-17.198-36.777-6.3209-5.1467-14.709-11.013-22.57-12.708-3.8324-0.82629-8.2445 1.2123-12.21 1.3577-1.904 0.0698-4.9003-1.3032-6.7439-1.1205-10.921 1.0824-19.661 5.7327-28.481 12.024-11.652 8.3102-19.125 21.091-18.461 38.765 0.50411 13.418 3.7957 20.603 10.743 24.958 1.5063 0.94433 1.9682 2.7613 3.827 3.4743 1.1071-2.0071 2.2174-0.89469 0.55041-2.742-2.0677-1.6603-4.8123-5.9967-5.7359-8.3998-1.1195-2.9128-1.4027-5.4991-1.2052-7.0267-1.4755 0.56497-4.2473-0.40305-4.2482-2.4119 0.02262-3.3689 3.2257-3.8847 5.8208-2.249 2.9091 11.785 7.4071 8.6498 6.3691 17.956 4.0388-6.9132-4.268-10.295-0.34637-27.031 2.7567-11.765 19.005-21.152 34.292-29.182" fill="#d57fc0" stroke-linecap="round" stroke-linejoin="round" style="mix-blend-mode:normal"/>
     </g>
    </g>
    <g id="g959-7-9" transform="matrix(4.1457 0 0 4.1462 133.42 58.492)" stroke="#000" stroke-width=".565">
     <g id="g957-1-1" fill="#371f0f">
      <path id="path955-3-8" d="m106.55 47.333v0s-6.7178 4.0653-7.1423 7.4885c-0.67579 5.4508 4.4984 10.207 8.1162 14.34 8.4122 9.6097 24.502 20.956 30.554 23.118 7.0808 2.7682 7.9772 10.941 9.0841 15.693 2.524-0.60286 5.3828-0.0494 4.6184 3.1684-0.36671 1.5437-1.837 2.0411-3.357 1.8361-3.9588 8.2649-9.3901 13.075-16.015 16.211 6e-3 5.1732 10.155-0.71464 16.625-6.867 1.7075-1.6236 3.1547-3.2852 4.0855-4.7966 4.0524-6.5796 5.5367-18.047 5.5024-22.143-0.338-17.761-6.7037-28.232-17.198-36.777-6.3209-5.1467-14.709-11.013-22.57-12.708-3.8324-0.82629-8.2445 1.2123-12.21 1.3577-3.9594 3.1422-12.164 6.3528-3.6193 17.014" fill="#907abb" stroke-linecap="round" stroke-linejoin="round" style="mix-blend-mode:normal"/>
     </g>
    </g>
    <path id="path969-0-0" d="m392.78 484.57 2.3077-0.38061c-2.8228-17.162-4.2465-34.249-1.2146-51.276-8.653 17.589-1.7545 47.553-1.0931 51.658z" color="#000000" stroke-width="4.146" style="-inkscape-stroke:none"/>
    <path id="path1025-0-1" d="m370.43 605.6" fill="none" stroke="#000" stroke-width="1.0969px"/>
    <path id="path1051-4-4" transform="matrix(-49.823 0 0 22.685 7804.1 -3426.3)" d="m141.57 173.16c-0.50056-6.6003 1.1084-7.9791 2.0777-9.1634-0.83796 0.47718-3.006 2.6972-2.0777 9.1634z" color="#000000" filter="url(#filter7744-7-4-6-6-5)" opacity=".23127" style="-inkscape-stroke:none;mix-blend-mode:normal"/>
    <path id="path1053-5-0" transform="matrix(31.966 3.3117 -2.3372 22.564 -3723.8 -3875.5)" d="m142.32 174.4c-0.14016-0.96197-0.98062-2.4346-0.93502-3.7628 0.058-1.6889 0.23728-2.8945 1.5112-4.5988-0.97466 0.77002-1.5484 2.4527-1.6561 4.3317-0.0453 0.78993-0.0344 2.6274 1.08 4.0298z" color="#000000" filter="url(#filter7744-7-4-7-5-6-1)" opacity=".23127" style="-inkscape-stroke:none;mix-blend-mode:normal"/>
    <path id="path1055-4-5" transform="matrix(27.514 3.5261 1.1333 -8.8451 -3421.6 1394.5)" d="m141.01 173.21c0.55069-2.8958 0.64244-2.796 1.0897-3.8329 0.50774-1.1773 1.4497-2.3497 1.6904-4.747-0.72214 3.5085-2.6454 4.0825-2.7801 8.5799z" color="#000000" filter="url(#filter7744-7-0-0-6-2-7)" opacity=".23127" style="-inkscape-stroke:none;mix-blend-mode:normal"/>
    <path id="path1057-7-1" transform="matrix(4.1457 0 0 4.1462 132.88 57.966)" d="m118.35 45.948c-11.198 1.5086-18.598 6.0035-15.079 18.373l-4.013 1.7475c-1.9854-8.2621-11.429-6.2583-17.492-14.063l2.909-1.4023 5.8193-2.2256 10.187-2.3107 6.1172 1.3186z" filter="url(#filter1317-9-7-7)" opacity=".14332" stroke="#000" stroke-width=".26458px" style="mix-blend-mode:normal"/>
    <path id="path1059-3-5" transform="matrix(-4.9624 20.505 -7.6319 -1.3775 2602.7 -2354.9)" d="m141.01 173.21c0.49377-4.2889 1.1841-5.8733 2.7801-8.5799-1.4506 1.3787-2.6454 4.0825-2.7801 8.5799z" color="#000000" filter="url(#filter7744-7-0-0-0-0-1-4-6)" opacity=".23127" style="-inkscape-stroke:none;mix-blend-mode:normal"/>
    <path id="path975-3-3-1" d="m394.17 549.75c3.138 13.308-8.311 12.266-5.2773 22.592 3.3443 11.382 17.89 18.126 19.29 29.907 1.0376 8.7348-7.2704 16.232-8.7098 24.909-4.8911 29.486 27.269 50.654 0.68253 89.666 14.606-17.096 26.427-45.733 17.872-64.092-11.485-21.633 8.3347-34.388 8.6187-46.464-0.19897-25.959-16.344-26.721-10.194-32.312" fill="#d57fc0" stroke="#000" stroke-width="1.9279"/>
    <path id="path973-5-2-7" d="m358.2 502.34c2.293 7.914 17.259 55.913 18.073 59.357 3.5589 15.053-3.202 28.533-3.202 28.533-5.8944 11.25-10.066 25.052-7.1812 37.421 6.1676 26.44 58.533 35.72 49.16 64.942 28.016-20.074-31.511-39.908-35.215-63.964-1.545-10.035-2.4968-20.595 5.9844-29.868 22.714-24.836-4.8895-58.87-3.7424-75.762" fill="#d57fc0" stroke="#000" stroke-width="2.326"/>
    <path id="path991-0-0" d="m713.16 579.74c-3.3442 11.382-17.89 18.126-19.29 29.907-1.0376 8.7348 7.2704 16.232 8.7098 24.909 4.8911 29.486-27.269 50.654-0.68257 89.666-14.606-17.096-26.427-45.733-17.872-64.092 9.6931-20.806-16.196-34.019-9.4415-49.344 5.821-13.206 2.8813-3.4561 6.1734-15.762" color="#000000" fill="#907abb" stroke-width="2.3425" style="-inkscape-stroke:none"/>
    <path id="path993-2-8" d="m711.06 580.07c-1.5603 5.3101-5.8658 9.7407-10.113 14.342-4.2477 4.6011-8.4618 9.4227-9.2147 15.759-0.5666 4.7698 1.4054 9.0665 3.5546 13.159 2.1492 4.0927 4.4968 8.0407 5.166 12.074 2.3702 14.289-4.295 26.735-8.4452 40.741-3.0068 10.147-4.3762 21.199 0.12148 34.004-3.1255-5.4664-5.8177-11.296-7.7086-17.2-3.6568-11.42-4.3994-22.889-0.30764-31.672 2.5276-5.4253 2.7516-10.463 1.7489-15.071-1.0026-4.6072-3.1867-8.7875-5.4089-12.722-2.2222-3.9346-4.4836-7.6344-5.7489-11.184-1.2653-3.5491-1.5763-6.8603-0.0249-10.382 2.8515-4.0638 10.533-22.278-2.146-0.94833-1.825 4.1403-1.4268 8.2265-0.0415 12.115 1.3863 3.8883 3.7249 7.663 5.9189 11.548 2.1939 3.885 4.2436 7.8653 5.1577 12.066 0.91421 4.2009 0.73999 8.6108-1.579 13.588-4.4633 9.5798-3.5723 21.61 0.19445 33.372 3.7532 11.721 10.393 23.21 17.773 31.874 0.0249 0.029 0.0464 0.0746 0.073 0.10531l1.8623-1.4172c-13.114-19.241-11.704-33.712-7.6439-47.416 4.0602-13.702 11.031-26.59 8.5099-41.785-0.7703-4.6437-3.2956-8.7779-5.4006-12.787-2.1052-4.0089-3.7746-7.826-3.3036-11.791 0.64667-5.444 4.404-9.885 8.6152-14.447 2.555-3.165 5.1294-5.0872 8.3908-15.926z" color="#000000" stroke-width="4.146" style="-inkscape-stroke:none"/>
    <path id="path971-8-2" d="m762.74 536.88c3.0698 13.143 8.895-5.8515 0 0-7.4092 4.8744 8.7779 24.672 7.9164 33.722-13.353 37.709-65.929 46.509-47.646 64.899 14.869 14.959 51.856 29.485 25.476 70.032 12.025-10.751 18.07-32.944 22.825-42.744 5.8894-12.139-20.49-20.601-19.998-33.81 0.34896-9.368 10.539-15.243 15.924-22.776 7.0178-9.818 20.239-16.95 21.351-29.222 0.4428-4.8839-7.8658-37.032-5.0991-41.013 18.121-26.072 4.9032-65.796 4.7924-76.275" fill="#907abb" stroke="#000" stroke-width="2.3015"/>
    <path id="path56582-4" d="m747.79 540.56c-2.6804 10.424 3.0752 21.962 0.0415 32.288-3.3443 11.382-17.89 18.126-19.29 29.907-1.0376 8.7348 7.2704 16.232 8.7098 24.909 4.8911 29.486-27.269 50.654-0.68253 89.666-14.606-17.096-26.427-45.733-17.872-64.092 9.6931-20.806-16.196-34.019-9.4415-49.344 5.821-13.207 13.746-21.903 17.038-34.209" color="#000000" fill="#907abb" stroke-width="2.3425" style="-inkscape-stroke:none"/>
    <path id="path56584-0" d="m746.66 540.27c-1.4165 5.5086-0.60239 11.152 0.12148 16.625 0.72386 5.4724 1.3542 10.763-0.073 15.621-1.5603 5.3103-5.8585 9.7403-10.106 14.341-4.2475 4.601-8.4708 9.4222-9.2234 15.758-0.56656 4.77 1.4057 9.0663 3.555 13.159 2.1492 4.0926 4.4973 8.0483 5.1664 12.082 2.3704 14.289-4.2956 26.726-8.446 40.732-3.0068 10.147-4.3759 21.205 0.12148 34.011-3.1255-5.4662-5.8184-11.295-7.7091-17.2-3.6568-11.42-4.3995-22.889-0.30764-31.671 2.5276-5.4253 2.7518-10.463 1.7492-15.07s-3.1872-8.787-5.4094-12.722c-2.2222-3.9347-4.4842-7.642-5.7494-11.191-1.2653-3.5492-1.5683-6.8596-0.0166-10.381 2.1086-7.8448 16.484-23.048 14.835-34.983-3.2065 11.986-11.078 20.643-16.981 34.035-1.825 4.1408-1.4268 8.2338-0.0415 12.122 1.3863 3.8886 3.7173 7.6626 5.9114 11.547 2.1941 3.885 4.2441 7.865 5.1583 12.066 0.91426 4.2008 0.73991 8.6107-1.579 13.588-4.4633 9.5782-3.5723 21.609 0.19445 33.371 3.7532 11.721 10.395 23.209 17.775 31.873 0.0249 0.029 0.0464 0.0746 0.073 0.10531l1.8625-1.4171c-13.114-19.243-11.705-33.711-7.6443-47.413 4.0601-13.702 11.032-26.588 8.5108-41.785-0.7703-4.6439-3.296-8.7776-5.4012-12.786-2.1052-4.0088-3.7668-7.8337-3.2958-11.799 0.64662-5.4441 4.3966-9.8847 8.608-14.447 4.2114-4.5619 8.8565-9.1929 10.641-15.264 1.6066-5.4685 0.87117-11.108 0.14594-16.592-1.431-5.6806-0.65554-8.3268-2.4446-16.317z" color="#000000" stroke-width="4.1461" style="-inkscape-stroke:none"/>
    <path id="path56272-9" d="m781.34 506.76c-2.0996 3.4664-18.769 50.749-19.583 54.193-3.5589 15.053 3.202 28.533 3.202 28.533 5.8944 11.25 10.066 25.052 7.1812 37.421-6.1676 26.44-58.533 35.72-49.16 64.942-28.016-20.074 31.511-39.908 35.215-63.963 1.545-10.035 2.4968-20.595-5.9844-29.868-22.714-24.836 1.7868-40.448 0.6397-57.34" color="#000000" fill="#907abb" stroke-width="2.7421" style="-inkscape-stroke:none"/>
    <path id="path56274-9" d="m780.17 506.05c-0.41212 0.68021-0.84895 1.728-1.5143 3.3768-0.66537 1.6487-1.4917 3.799-2.4294 6.292-1.8752 4.986-4.1784 11.339-6.4458 17.686-2.2675 6.347-4.4986 12.691-6.211 17.669-0.85621 2.4891-1.5808 4.6294-2.1216 6.2677-0.54077 1.6383-0.87884 2.6974-1.0203 3.2958-3.6906 15.61 3.3039 29.46 3.3039 29.46l8e-3 8e-3 8e-3 0.0166c5.8038 11.078 9.8286 24.608 7.0613 36.473-2.8968 12.419-17.123 21.307-29.881 30.634-6.3788 4.6634-12.361 9.4433-16.22 15.086-3.0935 4.5238-4.0985 9.8698-3.3687 15.694-1.4006-1.421-3.217-2.8753-3.7736-4.2108-0.9162-2.1984-0.8878-4.3098-0.12148-6.5916 1.5327-4.5636 6.2823-9.6248 12.155-14.819 5.8725-5.1942 12.805-10.566 18.552-16.204 5.747-5.6376 10.396-11.559 11.402-18.091 1.5541-10.095 2.533-21.313-6.3325-31.007-11.095-12.131-10.536-21.408-7.4824-30.27 3.0539-8.8616 9.0986-17.104 8.4784-26.237-4.2978 7.5055-9.8165 21.809-11.07 25.338-3.2312 9.3763-3.5619 20.318 8.0573 33.023 8.0969 8.8532 7.1719 18.755 5.6361 28.731-0.84618 5.4958-5.0278 11.078-10.608 16.552-5.5804 5.4741-12.477 10.826-18.447 16.107-5.9701 5.2805-11.075 10.449-12.94 16.001-0.93245 2.7764-0.99008 5.6964 0.18616 8.5189 1.1763 2.8226 3.5116 5.5067 7.1504 8.114l3.3687 2.4131-1.2633-3.9518c-2.2235-6.9319-0.82772-12.422 2.6885-17.564 3.5162-5.1419 9.2522-9.8078 15.564-14.422 12.624-9.2287 27.663-18.2 30.934-32.221 3.0013-12.868-1.3074-26.931-7.288-38.351l-8e-3 -0.0166c-0.0124-0.0249-6.5091-13.1-3.0853-27.581 0.0622-0.26287 0.42066-1.4407 0.9555-3.061 0.53489-1.6203 1.2597-3.7612 2.1136-6.2434 1.7077-4.9644 3.9308-11.308 6.1948-17.645 1.825-6.3413 7.8512-20.57 7.8143-28.27z" color="#000000" stroke-width="4.1461" style="-inkscape-stroke:none"/>
    <path id="path1025-0-2" d="m832.27 617.51"/>
   </g>
  </g>
 </g>
</svg>
