<?xml version="1.0" encoding="UTF-8"?>
<svg id="svg5" width="1200mm" height="1200mm" version="1.1" viewBox="0 0 1200 1200" xmlns="http://www.w3.org/2000/svg" xmlns:xlink="http://www.w3.org/1999/xlink">
 <g id="layer60" transform="translate(19.4 11.241)">
  <g id="layer104">
   <g id="layer155">
    <g id="g713722" transform="matrix(1.0969 0 0 1.0981 -80.451 -51.279)">
     <path id="path2566" d="m491.19 352.82c-1.2338 0.36199-2.0432 0.47592-4.1274 1.0571-4.6446 1.2949-13.981-2.0063-14.946-2.0094-1.3693-4e-3 4.1195 2.4069 8.9011 3.2634 2.0146 0.36083-1.5098 1.1582-4.1518 1.1246-12.906-0.16446-17.67-1.8746-16.873-1.3237 0.63017 0.43569 6.1456 3.2796 11.69 3.9327 1.4098 0.16601-2.0291 1.5842-3.986 1.715-7.4323 0.49668-13.917-0.64947-20.143-1.7192 0 0 10.98 4.7348 15.502 4.4438 1.4241-0.0915-1.8647 2.2198-3.7481 2.4895-10.868 1.5564-25.785 0.74194-26.061 2.0561 0 0 16.25 2.022 19.696 1.687 1.515-0.14718-2.774 3.4107-5.2504 3.8199-15.705 2.595-21.388 3.1886-24.672 3.6735 0 0 11.481 2.1061 20.55 1.7508 1.9262-0.0753-3.1491 2.5544-6.3207 3.1451-12.6 2.3464-25.237 1.6604-26.959 2.4934 0 0 6.651 1.7912 23.732 2.6258 2.32 0.11341-3.4284 3.3787-4.4196 3.6423-9.527 2.533-22.829 4.3935-28.403 4.2574 0 0 11.801 3.1732 23.188 1.7361 1.9512-0.24633-2.2579 3.724-4.817 4.6055-10.767 3.7089-21.306 4.9668-27.573 5.4246 0 0 15.749 4.4207 25.782 2.1084 2.3496-0.54152-3.1155 5.0259-5.5784 5.7373-13.828 3.9938-22.88 3.0289-27.138 3.4496 1.6684 1.4897 17.805 4.439 27.026 3.251 2.0865-0.269-4.1324 4.8812-5.8147 5.362-8.9742 2.5651-21.824 3.152-27.507 4.0998 0 0 35.352 4.4386 40.742 3.1488 3.9613-13.036 9.0221-28.052 18.36-38.955 14.28-16.672 33.146-32.013 54.547-36.898 23.361-5.3331 51.312-3.0183 71.123 10.448 28.222 19.184 48.905 51.875 51.045 88.685 6.5728-40.804-22.261-77.037-46.787-93.092-17.103-10.879-41.302-18.197-76.461-11.271l-0.0741 0.012z" color="#000000" stroke-width="3.8428" style="-inkscape-stroke:none"/>
     <path id="path17916" d="m416.03 432.92c-7.894 34.537 6.0384 67.212 26.401 87.652 20.362 20.441 47.666 30.933 68.983 30.899 28.459-0.0457 49.158-8.6641 65.352-21.825 7.6468-6.2142 28.368-25.339 32.409-45.494-2.8792 8.2411-14.353 25.877-29.849 39.57-15.496 13.694-36.743 24.941-64.923 24.986-20.938 0.0345-49.457-9.3232-69.633-29.756-20.086-20.342-33.07-50.908-25.259-85.086z" color="#000000" stroke-width="3.8428" style="-inkscape-stroke:none"/>
     <path id="path2566-7" d="m683 436.38c0.71499 0.20982 1.184 0.27591 2.3918 0.61261 2.6915 0.75034 8.1021-1.1626 8.6612-1.1644 0.79345-3e-3 -2.3872 1.3948-5.1581 1.8911-1.1674 0.20905 0.87489 0.67118 2.4059 0.65166 7.479-0.0953 10.24-1.0863 9.7779-0.76706-0.36506 0.25247-3.5613 1.9004-6.774 2.279-0.81698 0.0964 1.1758 0.918 2.3099 0.99378 4.3069 0.28782 8.0647-0.37622 11.672-0.99628 0 0-6.3625 2.7438-8.9831 2.5752-0.82523-0.053 1.0806 1.2863 2.172 1.4427 6.298 0.90189 14.942 0.42992 15.102 1.1915 0 0-9.4167 1.1717-11.413 0.9776-0.87788-0.0854 1.6075 1.9765 3.0426 2.2136 9.1009 1.5038 12.394 1.8477 14.297 2.1288 0 0-6.6531 1.2205-11.908 1.0146-1.1162-0.0438 1.8248 1.4802 3.6628 1.8225 7.3014 1.3597 14.625 0.9622 15.623 1.4449 0 0-3.8542 1.038-13.752 1.5216-1.3444 0.0657 1.9867 1.958 2.5611 2.1107 5.5208 1.4679 13.229 2.546 16.459 2.4671 0 0-6.8386 1.8389-13.437 1.006-1.1307-0.14257 1.3084 2.158 2.7914 2.6688 6.2396 2.1493 12.346 2.8782 15.978 3.1435 0 0-9.1265 2.5618-14.94 1.2218-1.3616-0.31396 1.8054 2.9125 3.2326 3.3247 8.013 2.3144 13.259 1.7552 15.726 1.999-0.96681 0.86328-10.318 2.5723-15.661 1.8839-1.2091-0.156 2.3947 2.8286 3.3695 3.1072 5.2004 1.4865 12.647 1.8266 15.94 2.3758 0 0-20.486 2.5721-23.609 1.8247-2.2955-7.5543-5.2282-16.256-10.639-22.574-8.2749-9.6615-19.208-18.551-31.61-21.382-13.537-3.0904-29.761-1.7954-41.215 6.0546-16.237 11.128-27.845 30.061-29.086 51.392-3.8089-23.645 12.406-44.642 26.618-53.946 9.9109-6.3041 23.934-10.545 44.308-6.5312l0.043 8e-3z" color="#000000" stroke-width="2.2269" style="-inkscape-stroke:none"/>
     <path id="path17916-2" d="m726.56 482.79c4.5745 20.014-3.4992 38.948-15.299 50.794-11.8 11.845-27.622 17.925-39.975 17.906-16.491-0.027-28.486-5.5144-37.871-13.141-4.4312-3.601-15.846-14.486-18.188-26.166 1.6685 4.7756 7.7243 15.292 16.704 23.227 8.9799 7.9353 21.292 14.453 37.622 14.479 12.134 0.0193 28.66-5.4027 40.352-17.243 11.64-11.788 19.164-29.5 14.637-49.306z" color="#000000" stroke-width="2.2269" style="-inkscape-stroke:none"/>
    </g>
   </g>
  </g>
 </g>
</svg>
