<?xml version="1.0" encoding="UTF-8"?>
<svg id="svg5" width="1200mm" height="1200mm" version="1.1" viewBox="0 0 1200 1200" xmlns="http://www.w3.org/2000/svg" xmlns:xlink="http://www.w3.org/1999/xlink">
 <g id="layer60" transform="translate(19.4 11.241)">
  <g id="layer62">
   <g id="layer63">
    <path id="path61837-3" d="m372.49 473.47c-2.1525 0.67025-1.9032 18.133-4.5189 17.895-2.2771 16.791 19.941 119.76 200.73 113.63 41.442-3.4509 72.334-10.553 98.997-25.298 22.491-12.438 42.574-28.95 59.243-58.979-1.5349 1.1273-4.4344-23.245-4.2167-20.917l-1.516 0.59094c-7.0193 47.686-55.036 84.008-125.79 39.223-5.6498-3.5761-7.7348-5.5154-13.47-2.8003-4.8653 3.15-7.1851 1.4528-9.3394 0.25499-4.3116-2.3975-9.3506-2.0574-13.479-0.0473-118.38 62.719-174.49-16.975-183.44-64.236-0.0434-0.22927-2.1148-0.4173-3.2036 0.68602z" opacity=".15309"/>
   </g>
  </g>
 </g>
</svg>
