<?xml version="1.0" encoding="UTF-8"?>
<svg id="svg5" width="1200mm" height="1200mm" version="1.1" viewBox="0 0 1200 1200" xmlns="http://www.w3.org/2000/svg" xmlns:xlink="http://www.w3.org/1999/xlink">
 <defs id="defs77">
  <filter id="filter24751" x="-.0041983" y="-.0045194" width="1.0084" height="1.009" color-interpolation-filters="sRGB">
   <feGaussianBlur id="feGaussianBlur24753" stdDeviation="0.26273315"/>
  </filter>
 </defs>
 <g id="layer60" transform="translate(19.4 11.241)">
  <g id="layer214">
   <g id="layer94">
    <path id="ellipse4806" d="m604.46 197.96c0 11.844-5.5256 26.733-12.365 35.945 72.407 4.2297 19.022 58.175-17.604 19.516-1.0237-1.0805-2.0342-2.2333-3.0286-3.4616 28.455 44.52-29.811 46.763-33.569 4.9763 6.3274 44.358-52.372 45.966-34.559-4.2007-36.539 51.537-83.643-17.663-13.454-15.236-9.1858-10.048-16.234-27.48-16.234-41.407 0-32.322 28.083-54.656 64.634-54.656 36.55-1e-5 66.181 26.202 66.181 58.523z" fill="#fa8f66" stroke="#000" stroke-linejoin="round" stroke-width="2.5913"/>
    <path id="path14646" transform="matrix(1.097 0 0 1.097 114.51 46.946)" d="m385.79 84.434c-23.198-0.04387-88.614 23.371-43.607 87.445-16.689-1.3706-26.222 3.3821-30.178 9.4414-0.71459-0.0743-1.3807-0.10235-1.9883-0.0684-8.3809 14.436 19.626 31.933 36.705 23.156-1.6199 5.2618 3.1831 14.097 4.7732 15.229 2.4957 1.7765 21.321 12.548 32.658-8.5703 5.0578 2.8914 14.189 13.681 29.471 9.0156 9.6901-2.9582 11.717-16.723 11.717-16.723 15.6 4.9196 22.12 3.2232 33.341-5.8505-9.5527 0.85982-21.805-0.20544-42.142-12.753 18.299 47.589-28.341 29.685-30.498 5.0762-15.328 45.402-33.88 18.467-34.363 16.129-1.9353-9.3521 2.1758-21.221 2.1758-21.221-7.0695 6.0124-25.193 6.6888-35.218 3.6726 1.0326-0.74322 6.5731-4.6686 10.808-6.2258 7.8262-2.8777 20.72-6.2952 20.72-6.2952-12.717-18.937-27.893-74.278 37.735-91.38-0.65532-0.04966-1.3611-0.07671-2.1094-0.07813z" filter="url(#filter24751)" opacity=".27564" style="mix-blend-mode:normal"/>
    <ellipse id="path7995" transform="rotate(-10.007)" cx="499.87" cy="315.96" rx="22.451" ry="11.886" fill="#ffdcdd"/>
    <ellipse id="path12401" transform="rotate(-10.007)" cx="500.11" cy="315.83" rx="12.853" ry="4.649" fill="#6e1100"/>
    <ellipse id="path7995-6" transform="matrix(.93997 -.34126 .43683 .89954 0 0)" cx="315.84" cy="417.33" rx="9.1696" ry="4.3862" fill="#ffdcdd"/>
    <ellipse id="path12401-0" transform="matrix(.93997 -.34126 .43683 .89954 0 0)" cx="315.83" cy="418.74" rx="5.2497" ry="1.7156" fill="#6e1100"/>
    <ellipse id="path7995-6-7" transform="matrix(.81782 -.57547 .66403 .74771 0 0)" cx="197.26" cy="500.27" rx="7.3717" ry="3.5185" fill="#ffdcdd"/>
    <ellipse id="path12401-0-7" transform="matrix(.81782 -.57547 .66403 .74771 0 0)" cx="197.26" cy="501.14" rx="4.2204" ry="1.3762" fill="#6e1100"/>
    <ellipse id="path7995-6-2" transform="matrix(-.93997 -.34126 -.43683 .89954 0 0)" cx="-657.24" cy="47.851" rx="9.1696" ry="4.3862" fill="#ffdcdd"/>
    <ellipse id="path12401-0-8" transform="matrix(-.93997 -.34126 -.43683 .89954 0 0)" cx="-657.51" cy="49.382" rx="5.2497" ry="1.7156" fill="#6e1100"/>
    <ellipse id="path7995-6-7-3" transform="matrix(-.81782 -.57547 -.66403 .74771 0 0)" cx="-613.56" cy="-123.13" rx="6.2294" ry="2.9733" fill="#ffdcdd"/>
    <ellipse id="path12401-0-7-9" transform="matrix(-.81782 -.57547 -.66403 .74771 0 0)" cx="-613.56" cy="-122.4" rx="3.5664" ry="1.163" fill="#6e1100"/>
    <ellipse id="path7995-6-2-5" transform="matrix(.59003 -.80738 .86418 .50318 0 0)" cx="23.283" cy="597.09" rx="7.1702" ry="3.4298" fill="#ffdcdd"/>
    <ellipse id="path12401-0-8-0" transform="matrix(.59003 -.80738 .86418 .50318 0 0)" cx="23.273" cy="598.2" rx="4.105" ry="1.3415" fill="#6e1100"/>
    <ellipse id="path7995-6-7-3-7" transform="matrix(.35804 -.93371 .96813 .25046 0 0)" cx="-128.75" cy="601.21" rx="5.7643" ry="2.7513" fill="#ffdcdd"/>
    <ellipse id="path12401-0-7-9-5" transform="matrix(.35804 -.93371 .96813 .25046 0 0)" cx="-128.75" cy="601.89" rx="3.3001" ry="1.0761" fill="#6e1100"/>
    <path id="path25057" transform="matrix(.16446 .80763 -.80763 .16446 541.69 -32.01)" d="m264.82 91.024c-1.6275 0.03681-1.0231-2.2473-0.29656-2.892 1.9504-1.7307 4.8647-0.2944 5.9521 1.6929 1.8793 3.4348-0.33226 7.5553-3.6824 9.0122-4.8439 2.1065-10.285-0.95493-12.072-5.6719-2.3626-6.2346 1.5746-13.03 7.6614-15.132 7.6184-2.6319 15.782 2.1926 18.192 9.6509 2.9082 8.9992-2.8094 18.539-11.64 21.252-10.378 3.1887-21.299-3.4256-24.313-13.63-3.4719-11.756 4.0414-24.061 15.619-27.373 13.134-3.7569 26.824 4.6567 30.433 17.609 4.0432 14.511-5.2719 29.588-19.598 33.493-13.729 3.7421-28.368-3.3888-34.51-16.089" fill="none" opacity=".6282" stroke="#000" stroke-linecap="round" stroke-width="3.6472"/>
    <path id="path25057-0" transform="matrix(-.55996 0 0 -.55996 718.89 248.29)" d="m264.82 91.039c-2.1764 0.26646-1.5942-2.8626-0.68202-3.7806 2.4683-2.4842 6.4883-0.75586 8.0845 1.8178 2.7829 4.4873 0.0864 10.193-4.3177 12.388-6.3923 3.187-13.952-0.5748-16.692-6.8175-3.6302-8.2692 1.2309-17.732 9.3174-20.996 10.136-4.0914 21.523 1.8839 25.3 11.817 4.5622 11.997-2.5352 25.32-14.317 29.604-13.856 5.0385-29.12-3.1853-33.908-16.817-3.7539-10.689-0.6854-22.801 7.2894-30.751" fill="none" opacity=".6282" stroke="#000" stroke-linecap="round" stroke-width="5.3607"/>
   </g>
  </g>
 </g>
</svg>
