<?xml version="1.0" encoding="UTF-8"?>
<svg id="svg5" width="1200mm" height="1200mm" version="1.1" viewBox="0 0 1200 1200" xmlns="http://www.w3.org/2000/svg" xmlns:xlink="http://www.w3.org/1999/xlink">
 <g id="layer60" transform="translate(19.4 11.241)">
  <g id="layer32">
   <g id="layer250">
    <path id="path11631" d="m610.61 566.17c-11.318-0.42707-25.983-18.195-33.601-3.4489-9.6854-14.795-21.377 3.4478-32.065 3.4489 36.12 27.314 35.888 18.911 65.666 0z" fill="#af1410" stroke="#000" stroke-width="1.9142"/>
    <path id="path13580" d="m553.87 568.77c7.1427 0.67717 9.0663-0.18124 23.31 4.7263 7.7082-3.6828 15.454-3.483 23.315-4.7263" fill="none" stroke="#000" stroke-width=".42207px"/>
    <path id="path15094" d="m564.18 569.73 12.902 3.6725c3.6639-1.9582 9.7595-3.1435 12.767-3.4022l-12.974-0.58517z"/>
    <path id="path14204" d="m563.14 569.58s8.3916 0.0241 11.2-0.75211c2.8081-0.77628 3.6221-0.4668 5.4666-9.1e-4 5.3912 1.3511 7.5262 0.85881 11.7 1.0485" fill="#fff" stroke="#000" stroke-width=".42207px"/>
   </g>
  </g>
 </g>
</svg>
