<?xml version="1.0" encoding="UTF-8"?>
<svg id="svg5" width="1200mm" height="1200mm" version="1.1" viewBox="0 0 1200 1200" xmlns="http://www.w3.org/2000/svg" xmlns:xlink="http://www.w3.org/1999/xlink">
 <defs id="defs77">
  <filter id="filter17091-6" x="-.0095329" y="-.0085574" width="1.0191" height="1.0171" color-interpolation-filters="sRGB">
   <feGaussianBlur id="feGaussianBlur127-6" stdDeviation="0.066258369"/>
  </filter>
  <filter id="filter17087-3" x="-.10686" y="-.026965" width="1.2137" height="1.0539" color-interpolation-filters="sRGB">
   <feGaussianBlur id="feGaussianBlur130-7" stdDeviation="0.066258369"/>
  </filter>
 </defs>
 <g id="layer60" transform="translate(19.4 11.241)">
  <g id="layer262">
   <g id="layer240" transform="translate(-19.4 -11.241)">
    <g id="Accessory" transform="matrix(2.931 -.36272 .36272 2.931 159.14 494.66)">
     <g id="g355">
      <g id="g353" transform="translate(-4.8614e-4,-1.8829e-4)">
       <path id="path329" d="m142.54 59.952c1.2721 0.02828 9.2436-8.2558 12.396-4.8461 2.8578 3.0912 3.3527 5.4959 1.1492 9.9573-2.5858 5.2352-2.7284 8.9292-3.1114 11.28-0.38296 2.3507-0.1713 6.1296-6.0058 4.7454-4.082-0.96838-5.6798-8.5978-7.678-9.8137-0.35459 1.7949-2.0823 1.1146-2.4901 0.44468-0.15372 0.77165-0.41843 1.5407-1.9582 1.0054-3.1223 2.6509-7.6533 6.6867-11.417 4.7172-1.817-0.99426-3.1641-3.9441-2.7996-6.6351 0.36447-2.691 2.0355-5.8282 0.73234-11.033-1.3031-5.2047 4.6098-9.9865 6.3174-9.6894 4.999 0.3752 7.2602 7.4628 8.5551 8.6811 1.9289-1.1976 2.083 0.28258 3.0815 0.62788 1.5641-1.0541 1.5706-0.77235 3.2291 0.55887z" fill="#ea0d0d" stroke="#000" stroke-width=".46086px"/>
       <g id="g337" fill="none" stroke="#000" stroke-width=".46086px">
        <path id="path331" d="m142.54 59.952c-1.4668 2.4749-2.7966 5.4142-3.2504 11.322"/>
        <path id="path333" d="m139.1 59.297c-0.81077 1.7864-1.2176 2.9837-1.5293 4.7031-0.30548 1.6848-0.5575 3.7533-0.99063 7.5285-9e-3 0.07744-0.0251 0.2445-0.0459 0.33164l0.75099 0.05064c-0.23647-0.13374-0.2055-0.38118-0.2055-0.38118 0.42865-3.7375 0.64612-5.8034 0.94424-7.4475 0.30596-1.6874 0.69312-2.8246 1.4961-4.5938z" color="#000000" fill="#000" stroke="none" style="-inkscape-stroke:none"/>
        <path id="path335" d="m136.23 58.765c0.95998-0.6513-2.7569 4.6209-1.3882 13.959"/>
       </g>
       <path id="path339" transform="matrix(1.6374 .59414 -.59414 1.6374 104.63 -58.843)" d="m48.549 51.598s-4.3922 3.5999-4.1981 6.1643c0.02269 0.29987 0.59774 0.67574 0.59774 0.67574l1.2213-0.59306s-1.3145 1.7603-1.2733 2.7781c0.0083 0.20484 0.30054 0.53658 0.30054 0.53658s-0.33399 0.19152-0.26747 0.91862 1.5379 3.0592 1.5379 3.0592l-1.6536-1.4221-0.62839-0.28112-0.14883 0.61185-0.35771 0.22353c-0.50018 0.14896-0.69134-0.18066-0.89315-0.37366l0.20992 0.71165-0.44735 0.3811-0.47956 0.0992-0.59779 1.1061-0.79747 1.3106-0.65596 0.81212-0.72146 0.70799-0.74904 0.45629-0.91317 0.34054c-0.568 0.5084-1.0401-0.03856-1.5422-0.25478l-1.25-0.9787s-0.86496-1.3719-0.93884-2.0144c-0.15308-1.3313-0.55618-3.605-0.55618-3.605l-0.69453-1.604-0.46361-0.82251-0.32093-0.7931s1.4129 2.6409 1.9752 2.8393c-0.03307 0.95912 0.23892 5.7077 2.4101 6.4858 1.6222 0.58137 3.972-1.9186 4.4689-2.5991 0.90799-1.2435-0.1747-2.1819-0.52608-3.6274-0.0365-0.15016-1.5589 0.04253-1.5493-0.04354 0.0047-0.0428 0.88892-1.2105 0.52359-1.8253-0.5767-0.97056-1.8619-2.3289-1.789-2.2415 0.2926 0.35076 2.5203 2.1832 2.1164-1.8276-0.0096-0.09552 0.5394 0.13584 0.53965 0.39854 7.5e-5 0.07779 0.39559-0.4641 0.7782-0.52542 0.16769-0.02688 0.5797 0.22844 0.99569 0.24394 0.37473 0.01395 0.42309-0.55558 0.75935-0.60819 0.62767-0.09819 1.3361 0.46051 1.1271 0.60733-0.0424 0.02978-0.71367-0.22626-1.0341-0.18249-0.40522 0.05536-0.5016 0.40802-0.85225 0.40465-0.75339-0.0072-0.94401-0.13012-1.2673 0.12786-0.26235 0.20933-0.30187 1.7718-0.29127 1.8592 0.13204 1.0889 0.29655 1.7048 0.35225 2.0495 0 0 0.49468 1.7848 1.0839 1.9345s0.92616-2e-3 1.2237-0.29766c0.5837-0.58094 0.59531-2.3978 0.59531-2.3978l0.03307-0.84336-0.03307-1.3395 0.21497-1.6536 2.2159-3.2908 1.4861-1.3853 1.0749-0.56224" filter="url(#filter17091-6)" opacity=".3181"/>
       <g id="g349" stroke-linecap="round">
        <path id="path341" d="m143.51 63.547s-1.7369 0.3663-3.3436 1.4008c-0.10717 0.06901-0.13795 0.21188-0.0687 0.31888 0.069 0.10713 0.2119 0.13791 0.3189 0.06866 1.5745-1.0137 1.3049-0.93428 3.8551-1.5181 2.5502-0.58384 0.26572-0.54965-0.76166-0.27031-1.0274 0.27939-2e-5 6.7e-5 -2e-5 6.7e-5z" color="#000000" stroke-width="1.7418" style="-inkscape-stroke:none"/>
        <path id="path343" d="m139.88 67.14c-0.11699-0.04915-0.25168 0.0055-0.30133 0.12228-0.0493 0.11827 7e-3 0.2541 0.12549 0.30249 0.7623 0.57723 2.3173 0.72993 3.2854 0.58619 0 0-0.75413-0.282-1.3376-0.27285-0.85688-0.0776-1.2564-0.43659-1.772-0.73811z" color="#000000" stroke-width="1.7418" style="-inkscape-stroke:none"/>
        <path id="path345" d="m131.06 59.35c0.0499 0.03626 0.0832 0.09098 0.0924 0.15195 0.26596 1.7118 2.3253 3.2649 3.669 4.344 0.0999 0.07957 0.11601 0.22521 0.0359 0.3247-0.0801 0.09886-0.22514 0.11414-0.32404 0.0341-0.51349-0.38949-3.5702-2.2761-3.4732-4.8547z" color="#000000" style="-inkscape-stroke:none"/>
        <path id="path347-3" d="m134.48 65.234c0.12624-0.01426 0.24022 0.07635 0.25478 0.20257 0.0143 0.12626-0.0763 0.24023-0.20257 0.25478-0.3383 0.03741-2.2581 0.61348-2.9268 0.8841s-1.2361 0.53215-1.2361 0.53215c0.32493-0.51635 0.8856-0.8853 1.0645-0.95801 0.67967-0.27506 2.8969-1.0641 3.3807-1.1176z" color="#000000" style="-inkscape-stroke:none"/>
       </g>
       <path id="path351-5" transform="matrix(1.6374 .59414 -.59414 1.6374 103.99 -58.535)" d="m52.218 56.54c0.03963 0.01709 0.43766 2.4001-1.1888 3.1193 0.79509 0.82289 1.4771 1.2349 1.4881 2.7779-0.1829-1.9283-0.52434-4.0716-0.09583-5.8094z" filter="url(#filter17087-3)" opacity=".3181" style="mix-blend-mode:normal"/>
      </g>
     </g>
    </g>
   </g>
  </g>
 </g>
</svg>
