<?xml version="1.0" encoding="UTF-8"?>
<svg id="svg5" width="1200mm" height="1200mm" version="1.1" viewBox="0 0 1200 1200" xmlns="http://www.w3.org/2000/svg" xmlns:xlink="http://www.w3.org/1999/xlink">
 <defs id="defs77">
  <filter id="filter48371" x="-2.5673e-5" y="-1.7207e-5" width="1.0001" height="1" color-interpolation-filters="sRGB">
   <feGaussianBlur id="feGaussianBlur55" stdDeviation="6.8815768e-05"/>
  </filter>
  <filter id="filter21173" x="-.0010987" y="-.0011326" width="1.0022" height="1.0023" color-interpolation-filters="sRGB">
   <feGaussianBlur id="feGaussianBlur21175" stdDeviation="0.047355852"/>
  </filter>
 </defs>
 <g id="layer60" transform="translate(19.4 11.241)">
  <g id="layer17">
   <g id="g16668">
    <path id="path16644" d="m514.46 838.29-0.27254 95.196c8.441 3.7934 15.156 4.8525 24.161 4.4321l24.287-3.0822 4.4727-41.934 5.947 41.266c20.611 6.2884 30.675 4.2459 47.526 1.2516l-4.8278-97.846s-11.332 0.68335-48.824 0.92175c-44.492 0.28277-52.469-0.20937-52.469-0.20937z" fill="#2869a5" stroke="#000" stroke-width="2.1767"/>
    <g id="g16666" transform="matrix(4.1461 0 0 4.1461 113.22 46.804)" stroke="#000" stroke-width=".26458px">
     <g id="g16662" transform="translate(.2152 -.49518)" fill="none">
      <g id="g16654">
       <path id="path16648" d="m103.91 192.75s0.22989 5.2894-7.3734 3.1969"/>
       <path id="path16650" d="m113.62 192.56s-0.1213 5.2265 7.482 3.134"/>
       <path id="path16652" transform="matrix(.063815 0 0 .063815 -32.202 -13.505)" d="m2197.3 3214.7c0.078 72.215-0.3842 105.04 1.3457 121.08 0.865 8.0179 2.3268 12.19 5.1719 14.691 2.5219 2.2169 5.4154 2.7235 8.8887 3.8691l1.0801 34.467-1.4434 31.713 9.0117 1.332c-0.318-10.602-2.3565-23.036-3.4726-34.369l-0.9922-31.635 0.027 0.01-1.6523-139.04-4.1621 0.031 1.5898 132.95c-2.3917-0.7725-5.0345-1.4655-6.1504-2.4472-1.632-1.4354-2.9373-4.3566-3.7656-12.029-1.6567-15.346-1.238-48.384-1.3164-120.62z" color="#000000" fill="#000" stroke="none" style="-inkscape-stroke:none"/>
      </g>
      <path id="path16658" d="m96.609 192.57 11.343 0.10336h0.12919"/>
      <path id="path16660" d="m109.11 192.6 11.834-0.41341"/>
     </g>
     <path id="path16664" d="m109.48 204.06-3.9453-0.91881 2.7802 1.7305-0.0387 7.8677 1.2038-8.6794 0.93432 6.186-0.0117-5.1187 2.9013-1.917z" filter="url(#filter48371)" opacity=".1" stroke="none"/>
    </g>
    <path id="path18627" d="m571.28 928.22 1.0509 8.4818c15.623 4.7979 33.715 3.8886 49.762 0.20298l-1.1624-11.366c-15.449 3.6625-33.151 4.9954-49.65 2.6812z" fill="#aed8ff" stroke="#000" stroke-width="2.5"/>
    <path id="path19251" d="m512.31 924.53 0.29784 10.19c16.063 5.458 35.582 6.1619 51.818 1.601l0.42342-7.6004c-17.511-1.1774-34.997 0.5241-52.539-4.1907z" fill="#aed8ff" stroke="#000" stroke-width="2.5"/>
    <path id="path21038" d="m615.36 847.35-70.894-0.37939c-0.62919 0.52526-0.35463 1.565-0.48559 2.1534-0.33215 1.4924-0.20146 2.5956-1.3906 3.5775-12.197 10.071-11.011 8.1317-3.7865 0.49109 1.4166-1.4982 1.7053-4.463 3.6611-6.2327l-1.9879-0.0106c-12.561 0.63134-19.181 4.942-18.267 13.919l1.0306 11.898s9.2526 6.5426 12.382 8.8874c-3.0857-1.035-6.2386-2.7984-9.1819-2.2886-3.1745 1.382-2.2081 2.2687-1.4157 4.9033 1.1948 3.9579 5.1509 6.9973 6.9536 9.8694 0.42533 0.67766-1.6504 1.8086-1.1824 2.4101 0.98514 1.2662 2.0685 2.3569 3.2658 3.2442-2.3913 2.9656-5.3513 3.2121-8.3745 3.1562-1.7871-0.28838-2.1198 2.1138-2.3983 3.4659-0.62371 3.1215 0.11642 6.231 2.049 9.3301 4.3646 6.1153 6.7168 4.2611 12.286 5.0464-5.3727 1.2702-6.1652 1.5472-9.4176 5.2476l-0.11718 1.7209-2.9173-0.76816c-1.0581 3.0015-0.0715 5.7337 1.1233 7.3988 1.6627 1.2933 3.8648 0.91999 5.8322 1.2718l-2.6376 0.94924 1.2022 1.3124-18.081-3.203-0.29784-10.19 2.1499-86.236 101.29-0.71718z" filter="url(#filter21173)" opacity=".1"/>
    <path id="path23586" d="m609.74 876.43c-6.748 5.6699-13.533 7.1366-20.303 10.281l10.263-3.0837 4.4867-0.41357z" opacity=".1"/>
    <path id="path23588" d="m583.09 930.55-1.6574 3.0081 9.1719 0.48074-4.6622 1.7248 3.571 1.8396 0.01 1.1225-17.19-2.0225-1.0509-8.4818z" opacity=".1"/>
   </g>
  </g>
 </g>
</svg>
