<?xml version="1.0" encoding="UTF-8"?>
<svg id="svg5" width="1200mm" height="1200mm" version="1.1" viewBox="0 0 1200 1200" xmlns="http://www.w3.org/2000/svg" xmlns:xlink="http://www.w3.org/1999/xlink">
 <g id="layer60" transform="translate(19.4 11.241)">
  <g id="layer214">
   <g id="layer161">
    <path id="path144144" d="m418.47 198.33c-25.242 38.282-39.94 76.22-60.08 116.84l-66.991 57.494c53.029 14.816 56.133-7.93 160.72-15.286 104.58-7.3556 323.77 42.835 350.77 20.432l-60.136-64.32-45.153-112.45c-2.7011-6.9593-3.952-8.0604-11.149-8.0587l-260.96-1.3536c-4.6632-0.82103-5.3865 3.5544-7.0159 6.7004z" fill="#8a8a8a" stroke="#000" stroke-width="2.092"/>
    <ellipse id="path143777" transform="matrix(.99995 .0094976 -.0053887 .99999 0 0)" cx="559.34" cy="187.76" rx="134.59" ry="5.5048" fill="#8a8a8a" stroke="#000" stroke-linecap="round" stroke-linejoin="round" stroke-width="2.092"/>
    <path id="path144146" d="m357.14 313.94c132.12 19.998 256.83 23.292 386.65-1.0714-1.8981-9.6582-8.1574-22.283-11.891-27.389-121.59 15.145-242.37 14.205-359.17-2.534-7.9031 8.8939-13.084 19.234-15.593 30.995z" fill="#8a8a8a" stroke="#000" stroke-width="2.092"/>
    <path id="path144148" d="m325.87 343.21c20.507 3.3376 73.681 0.85139 138.64 1.3206 97.53 0.70448 222.48 8.9813 312.98 5.0842" fill="none" opacity=".44106" stroke="#000" stroke-dasharray="1.67363, 1.67363" stroke-width=".83681"/>
    <path id="path144150" d="m310.78 353.96c51.093 4.3705 103.46-5.9848 155.3-6.0566 105.8-0.14662 212.62 12.698 319.44 12.292" fill="none" opacity=".44106" stroke="#000" stroke-dasharray="1.67363, 1.67363" stroke-width=".83681"/>
    <path id="path144152" d="m301.09 363.32c51.604 3.9454 88.818-8.2882 169.96-11.163 81.143-2.8746 214.61 18.875 323.82 16.85" fill="none" opacity=".44106" stroke="#000" stroke-dasharray="1.67363, 1.67363" stroke-width=".83681"/>
    <ellipse id="path147657" cx="688.49" cy="278.81" rx="7.6031" ry="7.2884" fill="#8a8a8a" opacity=".44106" stroke="#000" stroke-dasharray="1.67363, 1.67363" stroke-linecap="square" stroke-width=".83681"/>
    <ellipse id="path147657-4" cx="688.4" cy="278.84" rx="5.8716" ry="5.6286"/>
    <ellipse id="path147659" cx="712" cy="277.43" rx="5.6434" ry="6.819" fill="#8a8a8a" opacity=".44106" stroke="#000" stroke-dasharray="1.63998, 1.63998" stroke-linecap="square" stroke-width=".81999"/>
    <ellipse id="path147659-4" cx="712.06" cy="277.37" rx="4.3378" ry="5.1734"/>
    <ellipse id="path147657-3" transform="matrix(-.99881 -.04875 -.04875 .99881 0 0)" cx="-433.89" cy="257.15" rx="7.6031" ry="7.2884" fill="#8a8a8a" opacity=".44106" stroke="#000" stroke-dasharray="1.67363, 1.67363" stroke-linecap="square" stroke-width=".83681"/>
    <ellipse id="path147657-4-3" transform="matrix(-.99881 -.04875 -.04875 .99881 0 0)" cx="-433.98" cy="257.17" rx="5.8716" ry="5.6286"/>
    <ellipse id="path147659-0" transform="matrix(-.99881 -.04875 -.04875 .99881 0 0)" cx="-410.38" cy="255.76" rx="5.6434" ry="6.819" fill="#8a8a8a" opacity=".44106" stroke="#000" stroke-dasharray="1.63998, 1.63998" stroke-linecap="square" stroke-width=".81999"/>
    <ellipse id="path147659-4-9" transform="matrix(-.99881 -.04875 -.04875 .99881 0 0)" cx="-410.31" cy="255.7" rx="4.3378" ry="5.1734"/>
    <ellipse id="path148501" transform="rotate(.55149)" cx="554.95" cy="190.13" rx="96.679" ry="2.5694" opacity=".12398"/>
    <path id="path148636" d="m545.61 197.75c-32.981 15.116-43.099 54.303-50.672 96.168l-5.2684 1.2704c-6.7886 13.859-4.713 22.333-3.5507 31.362l7.4629 2.7517 48.727 1.2825-48.712 1.5102c-42.598 12.333-45.26 18.05-67.81 27.062-45.135 5.3602-96.509 26.569-134.4 13.511l66.991-57.494c-4.004-3.6867 3.4435-17.75 14.344-32.229 16.361-28.322 25.318-63.949 45.857-84.613 0.86565-0.87096 1.4311-3.557 2.9213-5.022 1.1517-1.1322 3.2559-1.0955 3.9736-1.6794 38.105 4.982 80.079 4.0908 120.13 6.1188z" opacity=".12398"/>
    <path id="path148638" d="m771.93 383.16c-7.7749-3.0603-54.823-43.983-75.363-48.149-24.081-4.8845-98.388-4.1461-106.13-0.9656-22.913 9.4074 63.21 39.061 63.21 39.061 39.426 2.8859 78.037 14.97 118.29 10.053z" opacity=".046748"/>
    <path id="path148640" d="m732.51 380.74-84.922-37.08c18.438 11.494 38.329 23.036 46.426 34.189z" opacity=".10976"/>
    <path id="path148642" d="m620.5 328.61c29.262-0.6863 81.661-2.0344 97.725-5.5124 23.368-5.0592 24.524-9.6018 24.524-9.6018 1.0751 2.8662-135.33 16.512-122.25 15.114z" opacity=".12398"/>
    <path id="path148644" d="m374.64 368.75c16.642-11.056 39.497-22.147 64.363-33.249-47.879 11.585-86.384 26.626-128.25 40.429 17.889 3.8821 41.861-3.4419 63.886-7.1798z" opacity=".12398"/>
   </g>
  </g>
 </g>
</svg>
