<?xml version="1.0" encoding="UTF-8"?>
<svg id="svg5" width="1200mm" height="1200mm" version="1.1" viewBox="0 0 1200 1200" xmlns="http://www.w3.org/2000/svg" xmlns:xlink="http://www.w3.org/1999/xlink">
 <defs id="defs77">
  <filter id="filter6257-8-6" x="-.022696" y="-.0042991" width="1.0454" height="1.0086" color-interpolation-filters="sRGB">
   <feGaussianBlur id="feGaussianBlur21-6" stdDeviation="0.087166883"/>
  </filter>
  <filter id="filter6257-8-1-9" x="-.013551" y="-.003883" width="1.0271" height="1.0078" color-interpolation-filters="sRGB">
   <feGaussianBlur id="feGaussianBlur24-0" stdDeviation="0.087166883"/>
  </filter>
  <filter id="filter6257-5" x="-.020567" y="-.0043839" width="1.0411" height="1.0088" color-interpolation-filters="sRGB">
   <feGaussianBlur id="feGaussianBlur18-1" stdDeviation="0.087166883"/>
  </filter>
  <filter id="filter48371-3-3" x="-.3762" y="-.11261" width="1.7524" height="1.2252" color-interpolation-filters="sRGB">
   <feGaussianBlur id="feGaussianBlur12-6" stdDeviation="1.2069309"/>
  </filter>
  <filter id="filter25136" x="-.041762" y="-.0068998" width="1.0872" height="1.0155" color-interpolation-filters="sRGB">
   <feGaussianBlur id="feGaussianBlur25138" stdDeviation="0.1605801"/>
  </filter>
  <filter id="filter25140" x="-.022331" y="-.024991" width="1.0447" height="1.05" color-interpolation-filters="sRGB">
   <feGaussianBlur id="feGaussianBlur25142" stdDeviation="0.047869003"/>
  </filter>
  <filter id="filter25144" x="-.022267" y="-.029619" width="1.0445" height="1.0592" color-interpolation-filters="sRGB">
   <feGaussianBlur id="feGaussianBlur25146" stdDeviation="0.047869003"/>
  </filter>
  <filter id="filter25148" x="-.041852" y="-.028948" width="1.0837" height="1.0579" color-interpolation-filters="sRGB">
   <feGaussianBlur id="feGaussianBlur25150" stdDeviation="0.047869003"/>
  </filter>
  <filter id="filter25152" x="-.017224" y="-.056427" width="1.0374" height="1.1187" color-interpolation-filters="sRGB">
   <feGaussianBlur id="feGaussianBlur25154" stdDeviation="0.047869003"/>
  </filter>
  <filter id="filter25156" x="-.023558" y="-.0031682" width="1.0379" height="1.0063" color-interpolation-filters="sRGB">
   <feGaussianBlur id="feGaussianBlur25158" stdDeviation="0.047869003"/>
  </filter>
  <filter id="filter25160" x="-.029955" y="-.031092" width="1.0599" height="1.0622" color-interpolation-filters="sRGB">
   <feGaussianBlur id="feGaussianBlur25162" stdDeviation="0.047869003"/>
  </filter>
  <filter id="filter25164" x="-.023847" y="-.072244" width="1.0477" height="1.1445" color-interpolation-filters="sRGB">
   <feGaussianBlur id="feGaussianBlur25166" stdDeviation="0.047869003"/>
  </filter>
  <filter id="filter25168" x="-.029594" y="-.046345" width="1.0592" height="1.0927" color-interpolation-filters="sRGB">
   <feGaussianBlur id="feGaussianBlur25170" stdDeviation="0.047869003"/>
  </filter>
  <filter id="filter25176" x="-.043135" y="-.018346" width="1.0837" height="1.0383" color-interpolation-filters="sRGB">
   <feGaussianBlur id="feGaussianBlur25178" stdDeviation="0.047869003"/>
  </filter>
  <linearGradient id="linearGradient3266" x1="96.445" x2="123.34" y1="230.35" y2="230.35" gradientTransform="translate(1.371e-5)" gradientUnits="userSpaceOnUse">
   <stop id="stop2-8" offset="0"/>
   <stop id="stop4-2" stop-opacity="0" offset=".53219"/>
   <stop id="stop6" stop-opacity=".40486" offset="1"/>
  </linearGradient>
  <filter id="filter83355-6-4" x="-.010396" y="-.010504" width="1.0208" height="1.021" color-interpolation-filters="sRGB">
   <feGaussianBlur id="feGaussianBlur29-6" stdDeviation="0.087039062"/>
  </filter>
 </defs>
 <g id="layer60" transform="translate(19.4 11.241)">
  <g id="layer103">
   <g id="g3169">
    <path id="path31065" d="m575.03 607.84-23.579 2.1147-42.995 32.104c-24.563 43.397-38.402 126.55-56.272 246.08 9.6678 6.0869 22.977 18.173 37.437-0.35781 9.6036-65.773 19.284-131.46 30.868-195.25l-28.594 280.67c15.37 19.239 37.104 12.369 52.474 14.869l40.681-1.4441c16.164-1.7081 49.646-0.0452 54.161-13.403l-28.125-279.59 30.868 195.25c24.311 11.212 28.242 3.3193 37.435 0.3578-12.856-82.698-15.83-158.35-57.219-245.32-15.738-5.4936-33.785-30.782-47.138-36.072z" fill="#6c0c0c" stroke="#000" stroke-width=".82922"/>
    <path id="path64-42" d="m566.84 841.66s-44.309 20.435-53.501 5.0562c0 0 14.012-71.993 32.109-190.95 2.9072-19.117 7.4219-47.809 7.4219-47.809l23.191-1.3316c0.19943 1.2276 5.1266 33.002 7.9999 49.285 15.549 88.102 35.118 191.05 35.118 191.05-10.044 13.131-52.336-5.2995-52.336-5.2995z" fill="#2a2a2a" stroke-width="4.1996"/>
    <g id="g3325" transform="matrix(4.1461 0 0 4.1461 114.51 46.946)">
     <g id="g3226" transform="translate(-.3303 .00030086)" fill="#ea0d0d" stroke="#000">
      <path id="path3208" d="m96.776 190.9 0.4588 63.546s0.0239 0.41441 0.08782 0.81037 0.4391 1.5138 0.4391 1.5138l-0.42472 11.832c2.0359 0.91495 3.6556 1.1704 5.8274 1.069l4.1439-0.63809 0.62356-32.73 1.5423-32.23 2.9174 31.37 4e-3 33.723c4.9711 1.5167 4.8282 0.43578 8.8926-0.28643l1.8159-17.446-0.0465-1.9966-1.8512-58.709s-2.7333 0.16482-11.776 0.22232c-10.731 0.0682-11.63-0.0174-11.63-0.0174z" stroke-width=".40429"/>
      <g id="g3224" transform="translate(.2152 -.49518)">
       <g id="g3216" fill="#ea0d0d" stroke-width=".26458px">
        <path id="path3210" d="m103.91 192.75s0.22989 5.2894-7.3734 3.1969"/>
        <path id="path3212" d="m113.62 192.56s-0.22989 5.2894 7.3734 3.1969"/>
        <path id="path3214" d="m108.15 191.64c0.01 9.218 0.0323 11.013 1.1271 11.42l-0.24568-11.515"/>
       </g>
       <path id="path3218" d="m109.31 200.51-0.16955 0.14616-0.0822 4.3513 0.42738-0.0197z" color="#000000" fill="#000" stroke="none" style="-inkscape-stroke:none"/>
       <path id="path3220" d="m96.609 192.57 11.343 0.10336h0.12919" fill="#ea0d0d" stroke-width=".26458px"/>
       <path id="path3222" d="m109.11 192.6 11.834-0.41341" fill="#ea0d0d" stroke-width=".26458px"/>
      </g>
     </g>
     <g id="g3236" transform="translate(-.3303 .00030086)" stroke="#000">
      <g id="g3234" stroke-width=".26458px"></g>
     </g>
     <path id="path3238" d="m108.61 203.54-3.3748 0.69482 2.7388 0.64597 0.14839 22.18 1.0167-22.992 2.6308 25.194-2.0001-24.667 3.1652-0.93017z" fill-opacity=".99763" filter="url(#filter48371-3-3)" opacity=".18567" stroke-width=".26458px" style="mix-blend-mode:normal"/>
     <path id="path3240" d="m99.592 203.77c0.98966 3.5696 7.0712 8.0225 7.0712 8.0225s-5.0268-4.0312-7.2115-3.0179c-2.4404 1.1319 0.15365 8.0689 0.15365 8.0689-3.9976 2.6263-1.664 8.0705-0.33349 9.5994-0.22468 1.173-0.65868 4.069 0.33351 4.4941 3.5449 1.4365 0.41666 3.602 0.45964 3.6204 0 0-0.93322 0.45981-1.1693 0.88868-0.26411 0.47978-0.14032 1.637-0.14032 1.637s0.19298 0.77268 0.5145 0.8419c0.39964 0.086 2.3182-7e-3 2.3182-7e-3s-1.2159 0.74406-1.8698 1.1812c-0.57558 0.38478-0.69709 0.0846-1.165 0.59483-0.48466 0.52851-0.28613 1.3664-0.0227 1.9668 0.22838 0.52049 1.268 1.14 1.268 1.14s-1.2644 0.0224-1.6838 0.42095c-0.69719 0.66242-1.0649 1.8241-0.8419 2.7596 0.23239 0.97478 0.37694 1.4924 0.37694 1.4924 1.3722 0.79004 3.3799 2.9007 3.235 3.6948-0.0848 0.46461-1.9482-0.59634-3.0234-0.48642-0.79028 0.0808 0.90913 1.5559 1.5848 2.363 1.6271 1.9434 3.7472 3.7642 3.7472 3.7642-0.0666 0.33316-4.4268-4.2291-5.0046-3.6482-0.92151 0.92644-0.21028 3.962-0.21164 3.9601-0.71626 0.6418-0.87184-1.4781 0.87878 1.2883 1.2258 1.2966 2.5309 3.9924 5.4094 4.1146-3.5001 0.0743-4.1481-0.11197-5.8267 0.76198-0.82946 1.2442-0.52513 3.2125 0.45167 4.3276 1.8036 2.059 8.0876 1.4226 8.0876 1.4226-3.3013 0.93328-6.6259 0.75235-9.9713-0.4309-0.16052-3.095 0.3794-7.3013 0.41265-11.791 0.0045-0.60491-0.43644-1.3302-0.45843-1.9409-0.09113-2.5303 0.0088-5.0482-0.14679-7.3781-0.08236-1.2335 0.06086-0.38863 0.05345-1.5713l-0.04534-7.2357s0.0478-2.7909-0.08904-7.2044c0 0-0.05755-13.4-0.1091-15.88l-0.17834-24.701 2.5617-0.0429s-0.56618 8.7583 0.58465 12.909z" filter="url(#filter25156)" opacity=".18567" stroke="#000" stroke-width=".26458px" style="mix-blend-mode:normal"/>
     <path id="path3242" d="m96.446 190.9 0.4588 63.546s0.0239 0.41441 0.0878 0.81037 0.4391 1.5138 0.4391 1.5138l-0.42471 11.832c2.0359 0.91495 3.6556 1.1704 5.8274 1.069l4.1439-0.63809 0.62356-32.73 1.5423-32.23 2.9174 31.37 4e-3 33.723c4.9711 1.5167 4.8282 0.43578 8.8926-0.28643l1.8159-17.446-1.8977-60.706s-2.7333 0.16482-11.776 0.22232c-10.731 0.0682-12.655-0.0505-12.655-0.0505z" fill="url(#linearGradient3266)" opacity=".16938" stroke-width=".40429"/>
     <path id="path3244" d="m104.97 219.94-2.4143-4.2003c0.80112 3.5606 3.1872 6.7338 5.6555 9.8557z" filter="url(#filter25176)" opacity=".18567" stroke="#000" stroke-width=".26458px" style="mix-blend-mode:normal"/>
     <path id="path3246" d="m112.06 235.44c-0.73341 5.9492 0.59809 22.731 0.0799 27.48-0.0257 0.23592 4.5002-0.77898 3.3987-1.5586-0.60055-0.42506-3.0828 0.24588-2.6735-2.6007 0 0-0.16027-1.5559 3.0888 0.49654 0.36161 0.22843-1.1866-1.18-0.9727-1.7554 0.29619-0.79663 1.2627-1.4615 1.5899-2.6704 0.2072-0.76559-1.6989-2.0904-1.5095-5.2658 0.18604-3.1197 0.69051-7.5531 1.5377-9.3685 0.29873-0.64009 1.5089-0.28858 1.5602-0.36118 0.46045-0.65128-1.7641-1.3154-3.0428-4.6076-0.34787-0.89565-0.50323-3.7621-0.66289-4.7382-0.46863-2.8652-1.3137-5.5647-1.103-6.0696 1.0446-2.5027 1.2898-5.2917 1.2898-5.2917-0.2463 1.1166-1.4781 2.0018-2.1412 2.2916 0.20322-1.3458 2.1079-4.5877 1.7112-6.2934 0.1077-1.3177-0.15315-5.4431 0.8599-6.6476-1.4111 1.3578-3.6412 3.3989-4.0018 1.9183l-1.9081-7.8352c-0.6748 2.8702-0.78323 5.7679-0.93614 8.6951l-1.7859-1.1245c1.9791 1.8591 1.5906 3.8498 2.1497 5.7878-0.39026-9.5182 0.70976-9.3298 0.70976-9.3298s1.8015 18.53 2.3224 23.59" filter="url(#filter25136)" opacity=".18567" stroke="#000" stroke-width=".26458px" style="mix-blend-mode:normal"/>
     <path id="path3248" transform="matrix(1 0 0 -1 0 531.83)" d="m122.78 264.78c-3.9361 2.9688-7.1734 2.3595-9.7896 1.9844 1.9252 0.85563 2.9141 2.6724 5.2586 1.5875 0.22371-0.10352 4.531-3.5719 4.531-3.5719z" filter="url(#filter25152)" opacity=".18567" stroke="#000" stroke-width=".26458px" style="mix-blend-mode:normal"/>
     <path id="path3250" d="m117.05 259.32 2.745-3.9688s-0.53703 1.425-0.95911 2.0505c-0.48867 0.72418-1.7859 1.9182-1.7859 1.9182z" filter="url(#filter25148)" opacity=".18567" style="mix-blend-mode:normal"/>
     <path id="path3252" d="m116.35 256.35s2.4009-3.415 4.2664-3.8364c0.30281-0.0684 0.89296 0.26458 0.89296 0.26458l-5.0602 3.605" filter="url(#filter25144)" opacity=".18567" style="mix-blend-mode:normal"/>
     <path id="path3254" d="m118.29 236.67c-0.45454 1e-3 -1.3744 0.16966-1.3744 0.16966 2.4351 1.4758 3.4836 2.9516 5.1447 4.4275 0 0-1.7885-4.6017-3.7703-4.5971z" filter="url(#filter25140)" opacity=".18567" style="mix-blend-mode:normal"/>
     <path id="path3256" d="m97.467 256.21-0.13698 0.64948c0.6557 0.68892 3.1322 4.3311 3.6607 3.8891-1.1746-1.3498-2.3491-2.8364-3.5237-4.5386z" color="#000000" style="-inkscape-stroke:none"/>
     <path id="path3258" d="m106.27 234.94s-2.0789 0.48974-2.8999 1.1225c-0.44212 0.3408-0.98222 1.3564-0.98222 1.3564z" filter="url(#filter25168)" opacity=".18567" style="mix-blend-mode:normal"/>
     <path id="path3260" d="m104.49 238.44s-1.4902 0.10949-2.1983 0.3274c-0.92638 0.2851-2.6192 1.2628-2.6192 1.2628z" filter="url(#filter25164)" opacity=".18567" style="mix-blend-mode:normal"/>
     <path id="path3262" d="m107.06 255.66-3.695 3.695 3.8353-3.0402z" filter="url(#filter25160)" opacity=".18567" style="mix-blend-mode:normal"/>
    </g>
    <g id="g3137" transform="matrix(4.1461 0 0 4.1461 114.51 46.947)" stroke="#000" stroke-width=".565">
     <path id="path3129" d="m100.85 185.37-4.0234 6.7065" fill="none"/>
     <path id="path3131" d="m110.84 222.47c3.3033 1.837 14.62 4.1561 15.709 0.93429l-2.9901-29.501c-0.6003-1.6194-1.0985-3.7888-0.67725-7.0066l-3.0926-30.786 7.4451 47.094c5.8637 2.7043 6.812 0.80038 9.0292 0.0861-3.1008-19.946-3.8184-38.192-13.801-59.17-2.7053-2.148-8.695-6.9891-11.393-8.8408-4.2088 29.063-1.2938 58.127-0.22923 87.19zm-3.3959 0.0177c-4.8316 2.572-12.719 5.5519-16.426 0.91152l3.1182-30.437c0.66498-2.2021 1.064-4.4042 0.67679-6.6062l3.1256-30.51c-2.794 15.386-5.1288 31.23-7.4451 47.094-3.4876 4.4695-6.6974 1.5542-9.0292 0.0861 4.31-28.83 7.6477-48.886 13.572-59.353l10.614-8.2636c5.8548 29.851 2.0264 58.348 1.7941 87.078z" fill="#ea0d0d"/>
    </g>
    <path id="path65-60" d="m612.7 795.08 11.305 26.771c4.7804 0.15382-7.2747-22.563-11.305-26.771z" color="#000000" stroke-width="4.1461" style="-inkscape-stroke:none"/>
    <path id="path69-36" d="m620.07 646.69-7.0314 40.086c3.0976-11.642 8.4062-30.972 7.0314-40.086z" color="#000000" stroke-width="4.1461" style="-inkscape-stroke:none"/>
    <path id="path71-79" d="m643.67 748.56-9.1827 32.699c2.1993-3.1793 9.8913-28.543 9.1827-32.699z" color="#000000" stroke-width="4.1461" style="-inkscape-stroke:none"/>
    <path id="path75-6" d="m637.95 787.9s-3.3229 0.50931-5.8464 2.0893c2.3824-0.0912 3.9526-0.82337 5.8464-2.0893z" color="#000000" stroke-width="4.1461" style="-inkscape-stroke:none"/>
    <path id="path3147" d="m541.06 613.88-0.77569 50.226" fill="none" stroke-width="4.1461"/>
    <path id="path3149" d="m591.18 614.21 0.19404 47.9" fill="none" stroke-width="4.1461"/>
    <path id="path11728" d="m452.71 874.41c9.9898 4.3126 26.559 6.5189 40.336 1.3575l-1.2865 12.406c-14.116 19.234-32.995 6.017-41.309 1.2238z" fill="#fff" stroke="#000" stroke-width="1.097px"/>
    <path id="path3139" transform="matrix(-4.1461 0 0 4.1461 883.52 52.95)" d="m87.536 154.4s3.3796 9.5251 4.0224 14.499c1.8323 14.18 5.1953 34.583 5.1953 34.583-0.79674-0.53572-1.6422-0.90901-2.2623-2.0336-0.14769-0.73104-0.16658-2.1706-0.28356-2.9352-0.02313-0.15123 0.396 0.23796 0.36769 0.0931-2.8818-14.748-5.1305-29.492-7.0395-44.207z" filter="url(#filter6257-8-6)" opacity=".16"/>
    <path id="path3141" transform="matrix(-4.1461 0 0 4.7896 858.61 -78.099)" d="m82.578 149.62c0.2543-0.11853 1.3677 0.13195 2.0775 1.0672 1.9836 2.6137 4.5513 8.6888 5.1895 12.468 3.4143 10.933 6.4313 28.482 7.6908 35.771 0.02833 0.16394 0.38537-0.1247 0.41593 0.025 0.37305 1.8273 0.5559 3.0493 0.49301 3.0493-1.3479 0.64122-2.6738 1.3205-4.2019 1.6497 0.77903-13.566-4.6844-36.01-11.665-54.03z" filter="url(#filter6257-8-1-9)" opacity=".16" stroke-linejoin="round" stroke-width=".26423"/>
    <path id="path8980" d="m552.87 607.96c0.5824 3.3892 6.1802 39.881 6.3707 41.072 6.5719 41.076 6.8121 153.64 7.2933 186.24l-6.2255 133.72c-44.88 22.724-60.519 11.498-68.105 3.7792l1.6218-12.182c6.8623 4.3436 19.286 17.404 56.212-2.1918l5.2862-122.03c-0.88987-38.146-6.246-145.29-9.9946-186.04-0.27654-1.6481-0.57166-2.6096-1.642-3.2728-7.9616-4.8199-15.923-6.839-23.885-15.529 6.057-15.501 22.102-22.889 33.068-23.57z" fill="#fff" stroke="#000" stroke-width="1.0987"/>
    <path id="path29-0" d="m511.37 648.63 7.0313 40.086c-3.0976-11.642-8.4062-30.972-7.0313-40.086z" color="#000000" stroke-width="4.1461" style="-inkscape-stroke:none"/>
    <path id="path31-9-0" d="m492.16 737.49 9.1827 32.699c-2.1993-3.1793-9.8913-28.543-9.1827-32.699z" color="#000000" stroke-width="4.1461" style="-inkscape-stroke:none"/>
    <path id="path31-9-0-1" d="m577.3 1001.3 9.1828 32.699c-2.1994-3.1793-9.8913-28.543-9.1828-32.699z" color="#000000" stroke-width="4.1461" style="-inkscape-stroke:none"/>
    <path id="path35-6-9" d="m491.31 768.06s3.3229 0.50931 5.8464 2.0893c-2.3824-0.0912-3.9526-0.82337-5.8464-2.0893z" color="#000000" stroke-width="4.1461" style="-inkscape-stroke:none"/>
    <path id="path8980-7" d="m571.08 647.34c-7.0212 37.895-4.0856 154.73-4.5808 188.28l7.5829 133.72c39.644 14.386 59.871 11.205 65.13 3.8736l-1.362-11.307c-7.0642 1.3326-18.989 8.6973-52.821-3.4356l-6.6901-117.59c-1.6765-29.467 1.5594-135.9 5.2908-183.83-0.18906-4.117 1.376-5.8793 4.1874-7.7596 7.7864-5.1805 24.76-14.143 24.933-15.794 0 0-7.9428-22.726-36.682-26.874-3.281 8.2385-0.63634 18.382-4.9882 40.719z" fill="#fff" stroke="#000" stroke-width="1.0987"/>
    <path id="path13489" d="m638.27 874.1 1.9392 16.23c10.86 4.5409 25.181 9.8213 41.314-0.029l-3.0971-21.377c-13.233 9.1166-27.671 6.2843-40.156 5.1774z" fill="#fff" stroke="#000" stroke-width="1.097px"/>
    <path id="path3143" transform="matrix(4.1461 0 0 4.1461 114.51 46.946)" d="m120.3 156.5s3.3796 9.5251 4.0224 14.499c1.8323 14.18 6.1492 33.595 6.1492 33.595-1.2259-0.0611-2.4518-0.63103-3.6777-1.1766-0.23214-1.149-0.33833-2.6503-0.5561-3.7986-0.0351-0.18495 0.37442-0.0191 0.3398-0.20398-2.6667-14.244-4.9349-29.045-6.7845-43.302z" filter="url(#filter6257-5)" opacity=".16"/>
    <path id="path15945" d="m505.58 821.28s40.584 6.1901 61.043 6.4586c19.707 0.25872 58.939-4.676 58.939-4.676l2.4682 25.231s-40.672 3.0646-61.02 2.4682c-21.258-0.62303-63.488-6.3076-63.488-6.3076z" stroke="#000" stroke-width="1.097px"/>
    <path id="path17101" d="m553.3 822.88-1.9435 0.11319v1.9516l-0.70451 29.322 1.7977 0.2753c9.8137 1.5075 18.066 1.1039 25.905 0.40507l1.8949-0.16999-0.12935-31.476-1.8949-0.15382c-8.6977-0.71205-22.37-0.42299-24.925-0.26701zm2.4283 4.505c3.1122-0.11485 12.208-0.22803 19.85 0.2185l0.5084 23.181c-6.5961 0.5387-13.414 0.69103-21.2-0.31593z" color="#000000" fill="#ffe00e" stroke-width="4.1461" style="-inkscape-stroke:none"/>
    <path id="path22197" d="m514.49 1098.5 46.21 0.2741c-2.0815 24.834-1.0089 46.064-0.68559 68.15l-9.5986 1.097-0.27447-2.6054c-17.18 5.3295-34.561 8.2447-52.107 9.1873-9.2371-0.596-12.672-5.8913-13.438-11.518-0.59672-4.3825 1.3664-9.1489 4.1137-12.615 2.7899-3.5202 7.1413-5.9849 11.518-6.9934 3.847-0.8864 11.793 1.097 11.793 1.097l4.9364 0.2741c0.64635-15.449-1.4852-30.898-2.468-46.347z" stroke="#000" stroke-width="1.097px"/>
    <path id="path23413" d="m512.03 1082.6 0.54848 20.02c16.088 3.9473 32.41 5.0766 49.227 0.2741l0.13724-20.02c-15.911 1.7392-33.297 1.1566-49.913-0.2745z" fill="#fff" stroke="#000" stroke-width="1.097px"/>
    <path id="path22197-4" d="m623.93 1099.7-46.21 0.274c2.0815 24.834 1.0089 46.064 0.6856 68.15l9.5986 1.097 0.27448-2.6054c17.18 5.3295 34.561 8.2447 52.107 9.1873 9.2371-0.596 12.672-5.8913 13.438-11.518 0.5967-4.3826-1.3665-9.1489-4.1137-12.615-2.7899-3.5202-7.1413-5.9849-11.518-6.9933-3.847-0.8864-11.793 1.097-11.793 1.097l-4.9364 0.2741c-0.64638-15.449 1.4851-30.898 2.468-46.347z" stroke="#000" stroke-width="1.097px"/>
    <path id="path23413-2" d="m626.4 1083.8-0.54849 20.02c-16.088 3.9473-32.41 5.0765-49.227 0.274l-0.13724-20.02c15.911 1.7392 33.297 1.1566 49.913-0.2745z" fill="#fff" stroke="#000" stroke-width="1.097px"/>
    <path id="path72-7" transform="matrix(4.1461 0 0 4.1461 114.51 46.946)" d="m116.99 137.2-5.0356 2.1227c-0.60166 3.306-1.1643 5.7076-1.5564 8.1558-0.48721 3.0416-0.78735 5.851-1.4649 6.986-1.15 1.9266-1.2902-1.835-3.1562-14.088l-8.8806 2.3079c0.33716-0.65773 1.2381-0.83696 0.85379-1.674 1.7147-3.5354 6.3395-6.4361 7.7333-5.4092l5.7719-0.50833c3.2301-0.36602 4.9156 2.0424 5.7347 2.1074z" fill-opacity=".99763" filter="url(#filter83355-6-4)" opacity=".21474"/>
    <path id="path15876" d="m520.59 693.11c1.1648 34.167-2.2676 78.283-5.3356 121.61-0.06 3.007 0.33169 3.7126 1.4852 5.3538 5.4172 7.6657 14.663 11.194 15.504 16.834 0.72581 4.866-13.49 6.1879-18.34 12.846-1.1159 1.3367-1.1411 2.8109-1.2291 4.3481-3.7813 66.56-2.7827 122.78 22.984 125.39-16.753 3.6738-33.424 7.1307-43.762-6.2995z" opacity=".22756"/>
    <path id="path15876-5" d="m612.5 690.32c-0.98511 28.896 1.318 64.909 3.9081 101.54 0.22928 3.2446-0.22265 6.494-2.3837 4.6845 4.259 10.227 3.5678 11.945 3.8113 15.383 0.0601 3.007-0.33169 3.7126-1.4852 5.3538-5.4172 7.6657-17.042 11.343-15.504 16.834 1.2935-1.0653 25.969 16.782 30.557 66.897 0.54048 5.9034-0.71574-21.454-5.9731-58.136-4.8432-33.792-7.403-83.035-12.93-152.56z" opacity=".22756"/>
   </g>
  </g>
 </g>
</svg>
