<?xml version="1.0" encoding="UTF-8"?>
<svg id="svg5" width="1200mm" height="1200mm" version="1.1" viewBox="0 0 1200 1200" xmlns="http://www.w3.org/2000/svg" xmlns:xlink="http://www.w3.org/1999/xlink">
 <defs id="defs77">
  <filter id="filter6257-8-1-4" x="-.0093291" y="-.0054473" width="1.0188" height="1.0109" color-interpolation-filters="sRGB">
   <feGaussianBlur id="feGaussianBlur24-7-9" stdDeviation="0.087166883"/>
  </filter>
  <filter id="filter168902-7" x="-.015609" y="-.0049024" width="1.032" height="1.0116" color-interpolation-filters="sRGB">
   <feGaussianBlur id="feGaussianBlur168900-0" stdDeviation="0.054120045"/>
  </filter>
  <filter id="filter5543-62" x="-.012267" y="-.0038014" width="1.0201" height="1.0089" color-interpolation-filters="sRGB">
   <feGaussianBlur id="feGaussianBlur15-7" stdDeviation="0.087764187"/>
  </filter>
  <filter id="filter168892-5" x="-.01151" y="-.0029812" width="1.023" height="1.006" color-interpolation-filters="sRGB">
   <feGaussianBlur id="feGaussianBlur168894-4" stdDeviation="1.2621119"/>
  </filter>
  <filter id="filter168896-2" x="-.0046966" y="-.0017437" width="1.0094" height="1.0035" color-interpolation-filters="sRGB">
   <feGaussianBlur id="feGaussianBlur168898-3" stdDeviation="0.091645584"/>
  </filter>
  <filter id="filter168884-0" x="-.00491" y="-.0024733" width="1.0098" height="1.0049" color-interpolation-filters="sRGB">
   <feGaussianBlur id="feGaussianBlur168886-4" stdDeviation="0.091645584"/>
  </filter>
 </defs>
 <g id="layer60" transform="translate(19.4 11.241)">
  <g id="layer103">
   <g id="layer165" transform="translate(-19.4 -11.241)">
    <path id="path124362-7" d="m656.68 719.17 22.451 41.159 25.748-11.686s2.5076 3.8364 2.8298 8.9659c0.30185 4.8049-0.45451 9.5697-3.7822 11.326-2.4203 1.2774-3.4278 5.6657-2.5209 8.8194 1.8777 6.5297-1.8678 9.0846-3.1645 11.414-2.6143 4.6963 0.68203 12.503-2.9529 14.552-3.7752 2.1286-3.4627 9.3665-0.2675 15.146 2.6726 4.8343 1.4261 10.707 3.5316 13.738 6.0124 8.6542-0.95674 14.174-1.0871 14.159 0 0-19.985-29.31-27.315-37.044-14.962-15.786-16.441-34.459-26.38-54.817-2.4615-5.0422-8.3772-19.192-8.3772-19.192z" fill="#00d9ff" fill-opacity=".5" stroke="#000" stroke-linecap="round" stroke-linejoin="round" stroke-width="2"/>
    <path id="path124362-4" d="m656.68 719.17 22.451 41.159 25.748-11.686s-3.5795 3.8364-3.2573 8.9659c0.30185 4.8049-0.45451 9.5697-3.7822 11.326-2.4203 1.2774-3.4278 5.6657-2.5209 8.8194 1.8777 6.5297-1.8678 9.0846-3.1645 11.414-2.6143 4.6963 0.68203 12.503-2.9529 14.552-3.7752 2.1286-3.4627 9.3665-0.2675 15.146 2.6726 4.8343 1.4261 10.707 3.5316 13.738 6.0124 8.6542 5.1304 14.174 5 14.159 0 0-19.985-29.31-27.315-37.044-14.962-15.786-16.441-34.459-26.38-54.817-2.4615-5.0422-8.3772-19.192-8.3772-19.192z" fill="#00d9ff" fill-opacity=".5" stroke="#000" stroke-linecap="round" stroke-linejoin="round" stroke-width="2"/>
    <path id="path150438-6-3" d="m704.88 748.64c-0.7531 5.9401 3.3924 0.5715 2.6746 6.5166-0.76531 6.3393-0.42306 4.2134-1.5065 11.549-0.45852 3.1047-3.655 2.381-4.1691 5.8654-0.44191 2.9953 0.66857 6.5145 0.29291 9.8221-0.38983 3.4325-3.8199 5.4734-4.2022 9.0963-0.33851 3.2085-0.59475 7.6812-1.6597 10.125-1.1582 2.6578-3.1186 3.2859-3.1681 6.9103-0.0704 5.1654 2.2342 9.8098 3.0228 15.297 0.57985 4.0349 3.654 9.2591 4.2484 13.043 0.85906 5.4691-3.0065 7.1336-2.9471 9.8952-4.3615-11.195-41.56-45.965-33.505-62.408 0.45757-0.93403-0.77223 5.6838 3.2414 15.59 3.6178 8.9289 12.252 21.032 17.26 24.035 1.6403 0.98377 4.7427 1.4189 4.909-1.1208 0.17316-2.6442-2.6237-8.3572-2.5753-11.973 0.0697-5.2015-3.1069-7.0524-2.6071-7.2194 1.4793-0.49445 6.64-5.4209 6.0388-8.7528-0.38812-2.151 2.5554-4.8769 2.7156-7.4893 0.15636-2.5497-5.9214-5.541-4.2394-6.1783 4.8483-1.837 6.3086-4.8031 6.9471-9.2219 0.48142-3.3316 2.9529-2.9722 4.2527-6.0742 1.1321-2.7017 0.8978-6.8207 1.7998-10.423 0 0 2.4981-4.9216 3.1761-6.8852z" opacity=".30285"/>
    <path id="path128923-8" d="m533.2 740.78c11.152-31.706 19.712-65.356 34.412-94.401-10.485 62.798-24.469 123.35-32.15 187.13-0.13851 1.1501 0.65031 2.3013 0.51442 3.4534-0.80006 6.7834-1.5541 13.602-2.256 20.462-0.17456 1.7061-1.1391 2.6202-1.3061 4.3298-1.8596 19.042-3.439 40.887-4.1766 60.455 0 0 17.571-1.9317 30.827-0.19829s38.442 2.684 54.236-0.12188 34.132-0.0767 34.132-0.0767c-2.6746-19.695-5.3222-40.931-8.9765-61.534-0.26308-1.4832-1.5842-1.6472-1.8464-3.1377-0.99036-5.6315-1.9711-11.317-2.9206-17.065-0.30894-1.8705 0.5709-4.5381 0.25834-6.415-10.143-60.908-22.151-125.11-33.611-188.34 12.77 29.089 22.382 59.791 35.055 90.392l21.286-16.542c-18.879-27.465-37.176-67.647-58.807-100.71l-34.128 0.36035c-19.655 36.221-49.816 101.86-51.872 110.17 6.652 5.5868 12.791 13.034 21.328 11.787" fill="#a8eefd" stroke="#000" stroke-width="2"/>
    <path id="path124364-9" d="m533.2 740.78c-7.8782 1.4528-14.356-6.8942-21.328-11.787l-38.166 121.14c-9.105 25.319-19.331 44.404-26.224 70.382 0 0 4.9166-9.034 13.945-5.6292 4.2592 1.6063 8.5152-3.3022 12.199-4.0512 3.0397-0.618 5.3007 2.4266 12.524-2.132 2.3818-1.5032 6.3237 4.0763 11.685 2.1916 5.5406-1.9476 8.2445 1.6734 9.9214 2.8492 3.4778 2.4386 7.2327-4.9072 10.958 0.22631 2.6004 3.5834 8.1251-1.3489 8.1251-1.3489s-6.4917-19.647-8.5589-41.859c-1.3199-14.182 1.2796-29.88 1.6367-40.647 0.99318-29.949 13.283-89.335 13.283-89.335z" fill="#00d7ff" fill-opacity=".75294" stroke="#000" stroke-linejoin="round" stroke-width="2"/>
    <path id="path131177-8" d="m535.32 836.02c34.591 3.8866 68.303 3.659 100.08 0.8599 2.0712 6.361 3.7167 13.008 2.6367 20.069-34.393 2.9163-70.704 3.1698-105.1 1.1638-0.93457-6.3048 0.54037-15.441 2.3812-22.093z" fill="#00d9ff" stroke="#000" stroke-width="2"/>
    <path id="path168385-2" d="m679.13 760.33s-4.4797 2.3338-6.3939 3.95c-2.9375 2.4802-7.6208 8.6573-7.6208 8.6573 6.1191-3.8866 16.345-11.138 18.521-14.883l-4.5062 2.2756" opacity=".12805" stroke="#000" stroke-width=".26458px"/>
    <path id="path168743-8" d="m491.6 832.11-19.579 23.019s-27.335 71.958-24.168 65.501c2.8266-5.7642 9.8588-5.2894 16.458-6.2524 5.0568-0.73788 10.347-3.5045 10.356-3.4327 0.10561-15.013 9.4829-30.443 17.727-44.438 0 0-17.773 24.674-18.521 26.194-9.5989 19.502-14.527 9.258-10.848 1.0583 0 0 7.2471-19.422 13.758-33.867 0.45308-1.0051 12.918-26.154 14.817-27.781z" filter="url(#filter168884-0)" opacity=".23984" style="mix-blend-mode:normal"/>
    <path id="path168745-5" d="m518.85 736.07s-20.266 66.09-35.586 97.499c-3.4639 7.1014-11.245 21.564-11.245 21.564l39.858-126.14z" filter="url(#filter168896-2)" opacity=".23984" style="mix-blend-mode:normal"/>
    <path id="path168747-4" transform="matrix(.26458 0 0 .26458 4e-6 -1e-6)" d="m2145.3 2443c-9.8977 17.186-20.466 39.595-31.316 65.715zm-31.316 65.715-73.092 153.38s-45.96 149.26-56.033 227.2c-6.5115 42.43-13.06 96.818-18.734 154.18-13.221 49.502-42.533 89.81-64.141 134.52 19.421-27.176 33.795-64.446 59.135-79.785-15.34 103.7-23.08 211.01-7.2305 276.89 10.766 44.751-5.3711 57.752-18.916 65.104-25.145-10.655-26.031-49.881-30.988-85.211-9.221 30.151-27.728 59.638-20 91 7.036 2.3545 16.771-9.808 25.295 5.3203h-0.037s1.3108 0.1669 3.4844 0.1309c5.018 0.115 10.429-0.084 16.273-0.627 15.827-4.4587 28.319-1.2428 35.279 6.56 5.8051 6.5085 17.865-7.9866 26.919-8.1166-43.251-125.68-28.984-275.16-20.447-390.82 7.5284-102 45.504-254.38 86.538-385.36 19.414-61.967 34.856-122.24 56.696-164.38z" filter="url(#filter168892-5)" opacity=".20122" style="mix-blend-mode:normal"/>
    <path id="path120337-9" transform="matrix(4.1461 0 0 4.1461 133.91 58.189)" d="m104.61 141.87c5.3317 14.606-19.859 69.019 19.252 66.432-13.833 1.469-25.398 0.88927-28.749 0.0957 1.9728-21.947 3.9876-43.472 9.4968-66.527z" fill-opacity=".99763" filter="url(#filter5543-62)" opacity=".10366" stroke="#000" stroke-width=".26458px"/>
    <path id="path120339-8" transform="matrix(4.1461 0 0 4.1461 133.91 58.189)" d="m120.75 157.76s4.4626 10.969 5.2859 13.236c0.8528 3.1981 2.8202 9.0645 2.5936 9.3418-0.49208 0.60244-2.8299-5.6445-4.8751-10.713-1.366-3.385-2.7604-6.2265-2.8008-6.2155l-2.0555-4.8652s-3.0576-8.8865-6.3996-16.937z" fill-opacity=".99763" filter="url(#filter168902-7)" opacity=".16" stroke="#000" stroke-width=".26458px" style="mix-blend-mode:normal"/>
    <path id="path120343-9" transform="matrix(-4.1461 0 0 4.7896 878 -66.857)" d="m77.475 146.08c0.4935-0.23003 2.187 3.3709 4.2597 7.51 1.9802 3.9546 6.1494 10.062 6.5728 12.569 2.0224 5.3415 3.6096 10.28 5.7324 16.161 4.9156 13.618 11.15 24.796 9.3704 23.403-1.3255-1.0982-2.4578-0.76506-3.4369-0.77659-0.94244-0.0111-1.731-0.37527-3.0176-0.94298-1.2491-0.55119-3.1265-2.584-4.6655-3.9756 7.3348 7.0499-4.8589-38.043-14.715-52.098-19.07-6.7429-5.8868-5.289-1.8724-4.5287z" fill-opacity=".99763" filter="url(#filter6257-8-1-4)" opacity=".16" stroke="#000" stroke-width=".26412"/>
    <path id="path18043-1" d="m491.53 831.79-20.34 22.372-1.4767 7.7237c2.2415-4.9395 9.1798-10.664 21.817-30.095z" color="#000000" style="-inkscape-stroke:none"/>
    <path id="path18045-7" d="m678.36 759.29c-6.211 3.1469-10.284 7.8491-13.307 13.314 6.653-8.518 11.576-8.7528 14.723-11.9z" color="#000000" style="-inkscape-stroke:none"/>
    <path id="path18047-9" d="m664.81 782.8c-7.1706 8.0264 0.89977 16.053 1.7859 24.079l3.3644 1.1416c-2.674-4.1191-10.005-20.176-5.1502-25.221z" color="#000000" style="-inkscape-stroke:none"/>
    <path id="path39795" d="m456.25 893.93c20.355-5.2186 41.6-7.4729 64.648-3.7135" fill="none" stroke="#000" stroke-dasharray="1.05833, 0.529166" stroke-width=".26458"/>
    <path id="path39795-5" d="m681.06 824.73c-2.8998-11.311 1.1995-23.688 4.4468-38.881 2.5967-12.148 1.3578-22.56 6.5289-31.462" fill="none" stroke="#000" stroke-dasharray="1.05833, 0.529166" stroke-width=".26458"/>
    <path id="path39795-5-3" d="m678.65 821.8c-2.8998-11.311 1.3188-22.495 4.5662-37.687 2.5967-12.148 0.40292-19.576 5.574-28.478" fill="none" stroke="#000" stroke-dasharray="1.05833, 0.529166" stroke-width=".26458"/>
    <path id="path39795-2" d="m453.64 898.07c20.355-5.2186 45.144-7.3041 68.193-3.5447" fill="none" stroke="#000" stroke-dasharray="1.05833, 0.529166" stroke-width=".26458"/>
   </g>
  </g>
 </g>
</svg>
