<?xml version="1.0" encoding="UTF-8"?>
<svg id="svg5" width="1200mm" height="1200mm" version="1.1" viewBox="0 0 1200 1200" xmlns="http://www.w3.org/2000/svg" xmlns:xlink="http://www.w3.org/1999/xlink">
 <g id="layer60" transform="translate(19.4 11.241)">
  <g id="layer23">
   <g id="layer261">
    <path id="path151249" d="m1183.6 532.81c0.5881-42.519-62.327-59.35-104.75-62.313-35.386-2.4711-54.206-5.0128-84.502 13.437-42.616 25.952-92.09 95.354-137.3 116.46-50.72 23.673-109.5 2.6777-164.09 15.025-30.524 6.9032-60.881 23.078-88.47 37.85-31.246 16.73-92.982 38.735-83.993 73.02 55.89 213.19 656.21 305.53 659.26 85.162z" fill="#e29755"/>
    <path id="path156496" d="m1054.2 465.01s-38.612 9.2188-56.017 21.291c-40.435 28.046-60.22 82.268-98.599 113.07-16.824 13.502-36.987 22.981-57.464 29.766-47.054 15.59-98.733 11.715-146.76 23.978-23.352 5.9625-68.213 28.525-68.213 28.525l52.917-4.5475s58.291-10.922 87.23-17.363c38.235-8.511 106.03-26.321 141.18-43.615 43.641-21.474 57.95-59.629 99.219-85.369 27.04-16.865 47.033-31.278 74.207-31.006 44.858 0.44853 58.794 15.999 69.453 19.017 3.084 0.8731 8.957 4.8955 5.7878 5.3744-34.022 5.1406-60.944 7.8674-85.99 22.738-28.322 16.815-52.666 39.602-79.788 58.291-23.133 15.941-43.087 40.676-70.693 45.889-52.024 9.8237-131.43 51.741-124.85 58.704l26.872 9.7152s30.312-15.039 42.168-18.19c34.854-9.2629 69.68-19.36 100.46-37 30.281-17.354 50.414-48.951 79.788-67.799 28.797-18.478 53.587-30.936 86.61-39.894 14.293-3.8774 50.894-7.1951 50.894-7.1951l-2.7318 76.855s-47.416 2.5512-69.867 9.5085c-27.844 8.6287-46.328 23.663-72.14 37.207-22.117 11.605-47.332 32.678-71.727 38.034-28.94 6.3534-79.163 12.772-74.414 14.883l33.486 11.162s43.729-8.6956 66.146-17.983c25.305-10.484 50.316-29.737 74.827-41.961 25.9-12.917 52.227-26.613 80.615-32.246 12.031-2.3871 33.766-0.41342 33.766-0.41342v6.2012s-42.062 1.0404-73.66 16.95c-22.378 11.267-68.583 46.189-90.744 57.878-14.994 7.9088-48.369 15.71-48.369 15.71l45.475 4.9609s48.243-33.57 74.414-46.715c24.835-12.474 37.348-23.184 64.699-28.112 17.971-3.2378 29.559 0.82682 29.559 0.82682l-1.6536-164.12-62.838-45.062-73.174-4.1341c-53.813-4.4316-155.73 99.34-186.86 131.05-40.553 41.306-116.56 8.8544-171.57 26.872-50.138 16.421-152.14 86.816-152.14 86.816l69.867-15.296s29.578-29.751 46.302-37.207c24.301-10.835 51.425-14.135 77.721-18.19 30.459-4.6968 63.111 3.1797 92.191-7.028 29.285-10.28 61.277-25.683 76.895-52.503 35.283-60.593 151.09-117.45 157.51-108.31z" fill="#dc8f4c"/>
    <path id="path147103" d="m1059.5 454.27c-53.576 0.50811-93.858 31.85-128.8 65.008-34.942 33.158-65.567 68.21-97.803 80.152-22.509 8.3392-46.034 8.4316-70.773 7.5411-24.739-0.89045-50.592-2.7949-77.031 2.9099-91.499 19.743-159.2 88.881-159.2 88.881l10.679 10.533s65.798-66.22 151.69-84.752c23.758-5.1264 48.241-3.4847 73.328-2.5818 25.087 0.90297 50.879 1.0356 76.523-8.4651 38.004-14.08 68.727-50.895 102.92-83.338 30.488-28.931 62.927-54.307 103.49-59.787-24.486 10.77-44.012 29.952-61.804 50.365-25.391 29.13-48.169 61.11-77.133 78.924-23.766 14.617-59.126 23.266-91.932 34.918s-64.125 26.772-77.227 57.404l13.793 5.9004c10.352-24.202 36.728-37.901 68.455-49.17 31.726-11.269 67.735-19.648 94.769-36.275 32.685-20.103 55.906-53.536 80.58-81.844 24.674-28.308 49.902-51.123 85.979-53.906 14.38-1.1093 38.28 11.727 57.293 25.971 7.5487 5.6552 14.331 11.332 19.838 16.171-5.3173-0.1896-10.932-0.29292-16.446-0.13386-6.4677 0.18667-12.766 0.72576-18.182 1.8847-88.41 18.917-135.02 85.498-186.55 110.99-29.123 14.409-57.495 21.193-85.337 32.293-27.842 11.1-55.051 26.864-79.735 58.719l11.856 9.1876c22.921-29.58 46.944-43.412 73.434-53.973 26.489-10.56 55.55-17.501 86.436-32.783 57.216-28.309 100.71-92.155 183.04-109.77 7.7634-1.6612 21.929-1.8192 33.619-1.3322 11.69 0.48704 22.451 1.4594 22.451 1.4594l-0.6235-7.1091 1.0282-18.612c-5.83-7.0126-19.766-17.797-31.012-26.797-22.491-18-51.36-28.969-91.592-28.588z" color="#000000" fill="#d9843a" style="-inkscape-stroke:none"/>
    <path id="path188607" d="m-19.4 677.48 57.296-53.788 98.222-35.079 111.08 12.862 72.497 24.555 147.33 86.529 80.682-14.032 112.25-16.37 77.174 2.3386 109.91 29.233 112.25 32.741 78.343 7.0158 142.95-15.201v450.48h-1200z" fill="#ce7527"/>
    <path id="path186469" d="m-18.23 855.21 86.529-29.233 109.91-2.3386 152.01 47.941 224.51 119.27 118.1 63.142-85.359-6.4312-99.391-64.896-121.61-81.851s-68.103-39.266-134.47-51.449c-61.082-11.213-122.74-24.883-250.23 26.894-46.37 18.832 0-21.047 0-21.047z" fill="#c56e22"/>
    <path id="path186471" d="m704.4 1044.6-88.867-34.202 97.052 15.493 35.079 15.201z" fill="#c56e22"/>
    <path id="path172429" d="m68.298 610.83c286.42-45.263 343.81 245.55 623.44 248.86 0 0 135.76-6.6128 196.66 10.039 51.972 14.211 135.21 74.351 135.21 74.351l42.095-44.434s-92.839-44.679-142.6-57.685c-98.092-25.641-211.82-12.81-313.11-17.209-112.71-4.8952-318.01-168.62-309.59-173.3l-149.1-59.337z" fill="#c46e21"/>
    <path id="path183945" d="m476.69 705.2s10.335 10.335 100.05 27.699c89.71 17.363 263.84 5.8521 322.46 20.671 35.967 9.0923 167.02 19.844 232.75 100.87 65.732 81.029-35.14 16.536-35.14 16.536l-78.962-42.581-111.62-44.235-136.43-9.0951-191.82-14.469-106.97-41.755-31.936-17.363z" fill="#c56e22"/>
    <path id="path168520" transform="matrix(.26458 0 0 .26458 -19.4 -11.241)" d="m709.98 2236c-145.07 1.8592-276.44 40.973-387.38 93.389-1.636 0.5596-3.2569 1.0169-4.8945 1.5879l0.2168 0.6231c-56.428 26.99-107.59 57.31-152.28 87.951-71.109 48.753-126.27 98.127-162.35 136.49-18.041 19.182-31.219 35.342-39.928 48.838-4.3542 6.7481-7.7787 12.164-10.15 20.973-1.1858 4.4045-2.9271 10.246 0.25781 19.887 3.1849 9.6405 16.058 19.445 24.84 20.699l8.0176-56.125c6.7755 0.968 18.359 9.7365 20.971 17.643s1.0132 11.318 0.6582 12.637c-0.71003 2.6373 0.29788-0.7233 3.041-4.9746 5.4863-8.5025 17.135-23.23 33.596-40.732 32.922-35.005 85.466-82.208 153.1-128.58 42.934-29.436 91.955-58.499 145.98-84.211 283.92-96.038 536.96-9.6251 822.96 151.58 288.46 162.59 358.83 373.34 881.54 573.36 204.59 78.286 540.6 114.23 758.01 105.34 217.41-8.8916 431.85-10.499 634.44 19.281 241.46 35.494 530.6 228.05 511.91 235.23l52.955-47.008c25.174 5.3254-162.2-151.27-551.87-243.4-274.41-64.882-434.18-29.567-649.76-20.75s-495.05-15.427-685.96-84.223c-461.22-166.21-577.23-397.66-904.7-591.9-163.48-96.971-447.49-196.84-460.86-186.34 285.98 8.5415 576.74 183.23 871.33 353.55 418.56 248.81 703.04 315.15 1031.4 329.26 490.56 15.884 662.17 13.923 960.69 102.69 206.25 61.329 583.57 284.45 583.57 284.45l29.004-48.705s-372.85-223.6-596.42-290.08c-304.49-90.54-485.02-89.151-975.01-105.02-304.15-9.8479-551.35-76.082-753.17-170.44 99.706 7.9749 176.7-34.013 279.85-54.883 178.14-36.04 384.43-61.179 547.34-47.346 255.89 21.728 505.56 109.42 760.16 180.93 471.43 135.14 723.35 232.77 1064 241.2l2.4004-56.648c-269.94-11.427-441.16-47.111-585.14-89.975 16.705 1.2435 33.441 2.306 50.244 2.9941 211.89 8.6772 574.9-69.088 574.9-69.088l-11.693-55.475s-366.01 75.895-560.89 67.914c-430.84-17.644-842.73-240.44-1289.2-278.35-177.95-15.11-396.35 22.268-571.19 57.642-174.85 35.374-303.29 68.847-442.56-9.873-320.21-180.99-612.55-387.12-967.4-401.4-15.026-0.6045-29.916-0.8024-44.668-0.6133zm-147.83 868.15c-122.64 0.5869-233.47 19.468-325.55 44.852-73.66 20.307-135.33 44.765-181.89 67.678-46.556 22.912-76.383 41.112-93.994 61.846l43.205 36.701c3.599-4.2371 32.742-26.479 75.82-47.68s101.71-44.53 171.92-63.889c140.44-38.717 327.17-61.595 531.89-22.566 239.26 45.615 466.2 183.6 682.61 301.94 380.35 222.28 688.03 481.35 970.95 596.67l20.617-52.811c-179.89-70.25-405.46-216.25-607.64-356.31 242.55 111.69 434.82 178.7 696.59 230.84 218.59 43.542 647.64 22.611 647.64 22.611l-2.584-56.635s-433.35 18.39-633.99-21.576c-341.85-68.094-671.29-206.39-982.38-368.57-237.03-123.57-495.35-297.35-781.19-351.84-80.599-15.366-158.44-21.596-232.03-21.244z" color="#000000" fill="#c0691d" stroke-width="3.7795"/>
    <path id="path192304" d="m-19.4 983.84 107.58-33.91 135.64-1.1693 158.44 33.325 178.32 56.711 154.35 15.201 95.883-31.571 129.79-73.666 166.04-78.343 73.96-23.386v341.73h-1200z" fill="#ab5f1c"/>
    <path id="path194192" d="m1180.6 874.29c0.8021-0.3278-32.253-23.629-291.32 133.95 144.74-51.168 220.21-111.13 291.32-104.18v49.609c-3.2349-9.7048-92.407 22.918-246.67 74.414-161.04 53.759-250.53 26.458-250.53 26.458l141.39-35.553 114.93-65.319 86.816-55.397 154.07-52.917z" fill="#a15917"/>
    <path id="path195861" d="m400.63 991.7s114.93 76.068 314.19 111.62 331.2 85.443 284.43 85.443h-33.9s-77.721-49.062-280.29-68.906c-202.57-19.844-340.37-145.68-340.37-145.68z" fill="#a15917"/>
    <path id="path195896" d="m298.93 966.06s213.32 157.1 392.74 166.19c126.05 6.3895 203.54 38.216 238.48 56.504h-129.42l-23.902-11.029-219.11-21.497-155.44-59.531-103.35-75.241-127.33-71.934z" fill="#a15917"/>
    <path id="path203201" d="m-19.4 1094.2 65.319-13.229 103.35 17.363 126.5 53.744 62.012 36.66h-357.19z" fill="#a15917"/>
    <path id="path197044" transform="matrix(.26458 0 0 .26458 -19.4 -11.241)" d="m4535.4 3220c-33.81 1.7649-79.755 5.6199-166.15 33.447-86.391 27.828-212.9 79.456-411.53 177.33-185.05 91.183-393.86 240.65-670.2 393.78-282.89 156.76-560.95 187.27-823.16 159.16-11.955-1.9325-23.949-3.8725-37.979-6.461-120.83-22.294-323.37-71.429-649.66-172.83-173.68-62.054-331.81-121.61-467.95-146.48-47.514-8.6803-95.078-16.564-142.64-23.859-136.61-24.44-263.78-35.877-380.39-38.326-268.06-10.162-532.25 20.639-785.79 125.94v78.483s123.11-58.694 292.7-98.916 373.46-59.276 507.5 9.7734c141.06 72.665 355.58 235.45 598.25 389.83 242.67 154.38 514.61 301.29 780.44 342.19 260.23 40.036 468.18 47.828 634.6 61.01 92.249 7.3068 171.31 14.928 239.6 31.408h158.26c-105.45-58.403-233.37-75.25-393.38-87.923-168.35-13.334-373.62-21.018-630.46-60.531-251.25-38.654-518.48-181.21-758.63-333.99-240.15-152.77-452.09-314.8-602.72-392.4-4.7309-2.4372-9.6411-4.5287-14.496-6.7266 113.61 5.5106 228.21 18.244 343.33 35.818 116.36 20.741 239.79 51.057 369.7 93.75 66.673 21.911 128.28 41.63 187.07 60.148 225.4 81.676 485.88 173.5 766.2 199.58 40.531 5.9146 69.763 8.4047 89.619 8.9179 566.54 22.948 998.1-32.91 1421.8-230.34 228.12-111.6 428.6-153.99 546.08-164.24v-56.882c-126.58 10.285-329.28 45.635-564.74 160.82-322.39 157.72-668.24 219.84-948.39 234.77 96.789-27.909 194.55-67.696 292.74-122.11 279.4-154.82 489.71-304.77 667.78-392.52 197.14-97.143 321.59-147.72 403.85-174.22 82.261-26.497 116.05-29.081 148.76-30.789zm-4296.6 888.78c-7.2247 0.025-14.332 0.1162-21.32 0.2715-83.859 1.8633-150.67 12.823-199.87 24.892-5.6163 1.3779-12.437 2.7774-17.617 4.1847v59.426c9.3085-2.7887 19.413-5.6766 31.127-8.5506 60.502-14.844 151.69-28.355 272.85-21.879 227.01 12.134 559.61 91.07 992.12 368.35h101.32c-473.52-318.79-840.08-411.58-1090.4-424.96-23.79-1.2716-46.527-1.806-68.201-1.7324z" color="#000000" fill="#965013" style="-inkscape-stroke:none"/>
    <ellipse id="ellipse206740" cx="567.23" cy="1162.4" rx="139.32" ry="19.844" fill="#894b15" fill-rule="evenodd" opacity=".74589" style="paint-order:fill markers stroke"/>
    <path id="path208555" d="m279.23 799.51c5.5202 8.3637-9.193 16.504-25.085 12.665-9.5433-2.3054-16.088-5.1464-14.269-13.396 1.6065-7.2849 8.4394-18.662 17.484-18.804 9.176-0.14385 17.223 12.496 21.869 19.535z" fill="#ae957e" fill-rule="evenodd" stroke="#a58a70" stroke-linecap="round" stroke-linejoin="round" stroke-width="4" style="paint-order:fill markers stroke"/>
    <path id="path214689" d="m242.96 807.27s-0.0249-10.782 14.032-8.039c9.9895 1.9495 11.965-12.988 10.67-15.055" fill="none" stroke="#a58a70" stroke-width="4"/>
    <path id="path208555-5" d="m215.27 782.85c0.16246 7.2591-4.557 7.8188-15.971 8.3718-6.9673 0.33756-11.962-2.7944-12.295-8.9139-0.30034-5.5175 6.2215-10.446 12.705-10.879 6.9139-0.46214 15.367 2.7398 15.562 11.421z" fill="#ae957e" fill-rule="evenodd" stroke="#a58a70" stroke-linecap="round" stroke-linejoin="round" stroke-width="2.9197" style="paint-order:fill markers stroke"/>
    <path id="path214689-7" d="m192.14 774.14s-2.8352 9.8211 7.4475 10.407c8.8257 0.50293 15.05 4.5292 13.072 3.595" fill="none" stroke="#a58a70" stroke-width="2.9197"/>
    <path id="path208555-0" d="m656.98 975.43c-7.4094 11.007 4.806 19.259 24.669 15.371 9.6349-1.8861 19.002-2.3366 17.183-10.586-1.6065-7.2849-10.521-20.431-19.566-20.573-9.176-0.14385-17.576 8.7918-22.286 15.789z" fill="#ae957e" fill-rule="evenodd" stroke="#a58a70" stroke-linecap="round" stroke-linejoin="round" stroke-width="4" style="paint-order:fill markers stroke"/>
    <path id="path214689-6" d="m690.44 988.08s2.7273-8.8523-11.222-12.098c-14.881-3.4619-11.861-10.802-10.566-12.869" fill="none" stroke="#a58a70" stroke-width="4"/>
    <path id="path208555-0-4" d="m824.53 1090.2c-4.8398 5.4178-3.1517 12.9 3.5919 16.294 6.1026 3.0713 15.542 1.4854 24.436 1.5226 5.506 0.023 11.431-2.4724 14.817-5.4404 2.6517-2.3242 3.341-6.2459 2.5421-9.869-0.49215-2.2318-3.6601-5.1978-5.8322-8.4469-4.9182-7.3564-11.412-15.557-17.686-15.655-4.2766-0.067-10.611 2.6255-14.211 7.0998-4.124 5.126-4.6582 11.137-7.6584 14.496z" fill="#856549" fill-rule="evenodd" stroke="#7b5f48" stroke-linecap="round" stroke-linejoin="round" stroke-width="4" style="paint-order:fill markers stroke"/>
    <path id="path214689-6-2" d="m852.26 1108.6s11.651-11.665-7.2617-17.016c-9.7935-2.771-14.319-13.576-13.025-15.644" fill="none" stroke="#7b5f48" stroke-width="4"/>
    <path id="path208555-0-1" d="m892.67 1133.8c-2.04 9.8113 13.019 17.24 28.911 13.401 9.5433-2.3054 13.15-2.0192 8.8234-9.2753-4.2556-7.1378-15.209-20.87-24.254-21.012-9.176-0.1439-11.925 9.405-13.48 16.886z" fill="#856549" fill-rule="evenodd" stroke="#7b5f48" stroke-linecap="round" stroke-linejoin="round" stroke-width="4" style="paint-order:fill markers stroke"/>
    <path id="path214689-6-9" d="m926.44 1146.5s0.17207-8.2801-9.0278-9.2162c-10.126-1.0303-23.297-11.369-22.002-13.436" fill="none" stroke="#7b5f48" stroke-width="4"/>
    <path id="path208555-0-0" d="m865 757.58c-5.5202 8.3637 9.9288 14.15 20.67 12.96 9.7581-1.081 20.224-4.3684 15.446-11.336-3.4891-5.0885-11.013-15.463-19.839-15.861-9.1679-0.41302-11.631 7.1975-16.277 14.237z" fill="#ae957e" fill-rule="evenodd" stroke="#a58a70" stroke-linecap="round" stroke-linejoin="round" stroke-width="4" style="paint-order:fill markers stroke"/>
    <path id="path214689-6-6" d="m897.45 767.11s-1.4468-9.1633-15.503-6.42c-9.9895 1.9495-13.289-6.3648-12.289-10.492" fill="none" stroke="#a58a70" stroke-width="4"/>
    <path id="path208555-0-40" d="m919.16 739.33c-8.8434 10.025 8.8463 24.331 26.851 19.435 9.4738-2.5759 21.002 3.398 24.718-7.2149 1.8222-5.2049-2.4154-11.239-6.541-17.341-5.6677-8.3838-12.952-16.245-20.657-16.327-9.1767-0.0977-18.792 15.123-24.371 21.448z" fill="#ae957e" fill-rule="evenodd" stroke="#a58a70" stroke-linecap="round" stroke-linejoin="round" stroke-width="4" style="paint-order:fill markers stroke"/>
    <path id="path214689-6-5" d="m954.25 722.96s6.6526 22.164-9.0278 23.897c-14.42 1.5938-19.029 4.6731-23.327 9.8173" fill="none" stroke="#a58a70" stroke-width="4"/>
    <path id="path214689-6-5-2" d="m962.59 732.18s5.1163 21.06-9.0278 23.309c-7.6348 1.2137-16.998 3.3417-16.998 3.3417" fill="none" stroke="#a58a70" stroke-width="4"/>
    <path id="path208555-0-46" d="m1050.4 449.7c-2.2087 9.7623 7.4269 14.297 19.198 12.077 9.6477-1.8196 10.054-3.6747 8.2347-11.924-1.6065-7.2849-9.1772-13.864-14.982-14.095-5.6413-0.22398-11.339 9.0301-12.45 13.942z" fill="#ae957e" fill-rule="evenodd" stroke="#a58a70" stroke-linecap="round" stroke-linejoin="round" stroke-width="4" style="paint-order:fill markers stroke"/>
    <path id="path214689-6-7" d="m1069 461.14s3.3718-5.6037-7.1146-10.099c-6.8847-2.9515-5.489-10.78-4.1943-12.847" fill="none" stroke="#a58a70" stroke-width="4"/>
    <path id="path208555-0-7" d="m1021.1 460.58c-0.954 5.9079 4.9608 10.242 13.537 7.8597 5.1499-1.4306 8.5247-3.1661 7.7-8.3132-0.8669-5.4104-5.8019-12.056-10.613-11.816-10.422 0.51951-9.8312 7.3602-10.624 12.27z" fill="#ae957e" fill-rule="evenodd" stroke="#a58a70" stroke-linecap="round" stroke-linejoin="round" stroke-width="3" style="paint-order:fill markers stroke"/>
    <path id="path214689-6-76" d="m1033.8 468.56s5.6531-7.7216-2.0531-9.8454c-3.4089-0.93949-7.6424-3.6242-9.0693-5.2217" fill="none" stroke="#a58a70" stroke-width="3"/>
    <path id="path208555-0-2" d="m364.96 1104.3c-7.3878 14.222 11.048 21.619 35.867 16.49 13.682-2.8277 21.563-4.7876 22.168-15.822 0.62546-11.398-5.7857-29.932-26.766-26.101-20.888 3.8137-26.406 16.072-31.269 25.434z" fill="#856549" fill-rule="evenodd" stroke="#7b5f48" stroke-linecap="round" stroke-linejoin="round" stroke-width="5.4576" style="paint-order:fill markers stroke"/>
    <path id="path214689-6-8" d="m403.87 1119.9c7.4726-0.9803 19.081-20.224-4.3156-23.712-14.349-2.1389-15.783-11.464-13.932-14.156" fill="none" stroke="#7b5f48" stroke-width="5.4576"/>
    <path id="path214689-6-8-8" d="m387.69 1121.9c7.4726-0.9803 17.576-14.523 2.8959-18.266-15.593-3.9758-15.93-14.113-14.079-16.805" fill="none" stroke="#7b5f48" stroke-width="5.4576"/>
    <path id="path214689-6-0" d="m680.02 992.19s1.1808-7.4134-6.5389-9.704c-10.308-3.0587-13.63-6.4314-13.896-9.8515" fill="none" stroke="#a58a70" stroke-width="4"/>
    <path id="path270271" d="m1070.5 714.93c-36.704-4.9593-38.273 21.12-19.356 41.627 9.1925 1.3444 18.385 2.5482 27.578-3.4342 15.243-32.134 4.0157-35.987-8.2212-38.192z" fill="#5f7934" stroke="#9bba67" stroke-width="3"/>
    <path id="path270669" d="m1069.2 756.66c14-34.667 2.4674-36.973-6.5562-42.459-20.804 9.7476-8.1387 36.505-5.0992 43.396" fill="none" stroke="#9bba67" stroke-width="3"/>
    <path id="path276292" d="m1060.9 710.15c0.8603-7.2397 7.1804-5.8792 4.2407 2.1334 6.185-8.969 10.468 3.0182 0.2602 2.0553 9.8432-1.4084 9.3942 7.2217-0.4943 2.1594 11.638 7.0969 0.4623 10.244-2.8358 0.93658-1.3802 7.1132-8.2747 5.6596-2.6798-0.72846-7.9266 4.6082-10.147-4.4938-1.3008-2.3415-9.0448-3.8257-2.7479-9.0193 1.7691-3.9025 0.5858 0.57848 0.9405 0.49681 1.0407-0.31219z" fill="#3184fd" stroke="#0a71f9" stroke-width="2"/>
    <path id="path274090" d="m1043.5 715.14 3.8505 4.9952" fill="none" stroke="#e3f1ca" stroke-linecap="round" stroke-width="1.5"/>
    <path id="path274092" d="m1038.6 741.47 4.3708-1.8732" fill="none" stroke="#e3f1ca" stroke-linecap="round" stroke-width="1.5"/>
    <path id="path274094" d="m1056.3 756.98 3.4342-4.4748" fill="none" stroke="#e3f1ca" stroke-linecap="round" stroke-width="1.5"/>
    <path id="path274096" d="m1065.1 743.45-2.9139-2.9139" fill="none" stroke="#e3f1ca" stroke-linecap="round" stroke-width="1.5"/>
    <path id="path274098" d="m1050.6 729.82 5.2033 1.0407" fill="none" stroke="#e3f1ca" stroke-linecap="round" stroke-width="1.5"/>
    <path id="path274100" d="m1067.3 731.27 3.2261-4.0586" fill="none" stroke="#e3f1ca" stroke-linecap="round" stroke-width="1.5"/>
    <path id="path274102" d="m1080.4 752.5-2.8098-4.5789" fill="none" stroke="#e3f1ca" stroke-linecap="round" stroke-width="1.5"/>
    <path id="path274104" d="m1089.2 737.1-4.4749-2.4976" fill="none" stroke="#e3f1ca" stroke-linecap="round" stroke-width="1.5"/>
    <path id="path274106" d="m1080.2 722.64 3.4342-3.6423" fill="none" stroke="#e3f1ca" stroke-linecap="round" stroke-width="1.5"/>
    <path id="path274108" d="m1075.3 716.7 1.3528-4.5789" fill="none" stroke="#e3f1ca" stroke-linecap="round" stroke-width="1.5"/>
    <ellipse id="path276257" cx="1062.1" cy="713.16" rx="3.8765" ry="3.5383" fill="none" style="paint-order:fill markers stroke"/>
    <ellipse id="path280774" cx="1062.3" cy="714.06" rx="3.5534" ry="3.3323" fill="#045dde" fill-rule="evenodd" stroke="#045dde" stroke-linecap="round" stroke-linejoin="round" stroke-width="1.8136" style="paint-order:fill markers stroke"/>
    <path id="path270271-9" d="m825.95 577c-31.404-1.1023-30.541 21.081-12.85 36.828 7.8737 0.36269 15.736 0.60633 22.995-5.2262 10.173-28.455 0.37127-30.767-10.145-31.602z" fill="#5f7934" stroke="#9bba67" stroke-width="2.5472"/>
    <path id="path270669-4" d="m828.39 612.39c8.9114-30.492-1.0186-31.471-9.0971-35.35-16.746 9.9942-3.8087 31.553-0.66452 37.123" fill="none" stroke="#9bba67" stroke-width="2.5472"/>
    <path id="path276292-8" d="m817.46 573.76c0.11894-6.1941 5.5689-5.5759 3.7592 1.4467 4.4693-8.1047 9.0913 1.6704 0.3921 1.716 8.1921-2.0199 8.537 5.3152-0.23617 1.8675 10.42 5.0208 1.2498 8.6234-2.3156 1.0308-0.56849 6.1309-6.5112 5.4824-2.3236-0.39025-6.3055 4.564-8.9438-2.9452-1.2946-1.8703-7.9571-2.4731-3.0766-7.395 1.1662-3.4488 0.54311 0.43981 0.83573 0.34089 0.85245-0.35161z" fill="#e7bc45" stroke="#d5a92c" stroke-width="1.6982"/>
    <path id="path274090-0" d="m803.21 579.44 3.6699 3.8994" fill="none" stroke="#e3f1ca" stroke-linecap="round" stroke-width="1.2736"/>
    <path id="path274092-5" d="m801.29 602.12 3.5329-1.952" fill="none" stroke="#e3f1ca" stroke-linecap="round" stroke-width="1.2736"/>
    <path id="path274094-4" d="m817.52 613.74 2.5239-4.073" fill="none" stroke="#e3f1ca" stroke-linecap="round" stroke-width="1.2736"/>
    <path id="path274096-7" d="m823.77 601.56-2.7046-2.2184" fill="none" stroke="#e3f1ca" stroke-linecap="round" stroke-width="1.2736"/>
    <path id="path274098-6" d="m810.41 591.26 4.4803 0.44174" fill="none" stroke="#e3f1ca" stroke-linecap="round" stroke-width="1.2736"/>
    <path id="path274100-5" d="m824.59 591.08 2.3832-3.7035" fill="none" stroke="#e3f1ca" stroke-linecap="round" stroke-width="1.2736"/>
    <path id="path274102-3" d="m837.44 607.93-2.7563-3.6351" fill="none" stroke="#e3f1ca" stroke-linecap="round" stroke-width="1.2736"/>
    <path id="path274104-8" d="m843.62 594.16-3.9875-1.735" fill="none" stroke="#e3f1ca" stroke-linecap="round" stroke-width="1.2736"/>
    <path id="path274106-5" d="m834.76 582.69 2.5938-3.369" fill="none" stroke="#e3f1ca" stroke-linecap="round" stroke-width="1.2736"/>
    <path id="path274108-3" d="m830.14 578.09 0.75797-3.9857" fill="none" stroke="#e3f1ca" stroke-linecap="round" stroke-width="1.2736"/>
    <ellipse id="path276257-0" transform="matrix(.99506 -.099258 .09873 .99511 0 0)" cx="757.81" cy="654.63" rx="3.289" ry="3.0065" fill="none" style="paint-order:fill markers stroke"/>
    <ellipse id="path280774-2" transform="matrix(.99506 -.099258 .09873 .99511 0 0)" cx="757.97" cy="655.39" rx="3.0149" ry="2.8314" fill="#bb9325" fill-rule="evenodd" stroke="#bb9325" stroke-linecap="round" stroke-linejoin="round" stroke-width="1.5399" style="paint-order:fill markers stroke"/>
    <path id="path270271-5" d="m147.06 886.7c-59.121-7.5655-61.648 32.219-31.178 63.502 14.807 2.051 29.613 3.8873 44.42-5.2389 24.552-49.021 6.4682-54.899-13.242-58.263z" fill="#5f7934" stroke="#9bba67" stroke-width="4.7026"/>
    <path id="path270669-9" d="m145.05 950.36c22.55-52.885 3.9743-56.403-10.56-64.772-33.51 14.87-13.109 55.689-8.2135 66.201" fill="none" stroke="#9bba67" stroke-width="4.7026"/>
    <path id="path276292-9" d="m131.64 879.4c1.3857-11.044 11.566-8.9688 6.8306 3.2545 9.9624-13.682 16.862 4.6043 0.4191 3.1354 15.855-2.1486 15.132 11.017-0.79618 3.2942 18.745 10.826 0.74465 15.628-4.5677 1.4288-2.2231 10.851-13.328 8.6338-4.3165-1.1113-12.768 7.0298-16.344-6.8554-2.0952-3.572-14.569-5.8361-4.4261-13.759 2.8496-5.9533 0.94357 0.88248 1.5149 0.75789 1.6763-0.47626z" fill="#ce82bf" stroke="#c172b1" stroke-width="3.1351"/>
    <path id="path274090-4" d="m103.65 887.02 6.2021 7.6202" fill="none" stroke="#e3f1ca" stroke-linecap="round" stroke-width="2.3513"/>
    <path id="path274092-1" d="m95.772 927.19 7.0402-2.8576" fill="none" stroke="#e3f1ca" stroke-linecap="round" stroke-width="2.3513"/>
    <path id="path274094-2" d="m124.27 950.84 5.5316-6.8264" fill="none" stroke="#e3f1ca" stroke-linecap="round" stroke-width="2.3513"/>
    <path id="path274096-1" d="m138.35 930.2-4.6935-4.4451" fill="none" stroke="#e3f1ca" stroke-linecap="round" stroke-width="2.3513"/>
    <path id="path274098-2" d="m115.05 909.4 8.3811 1.5875" fill="none" stroke="#e3f1ca" stroke-linecap="round" stroke-width="2.3513"/>
    <path id="path274100-8" d="m141.87 911.63 5.1964-6.1915" fill="none" stroke="#e3f1ca" stroke-linecap="round" stroke-width="2.3513"/>
    <path id="path274102-37" d="m162.99 944.01-4.5258-6.9852" fill="none" stroke="#e3f1ca" stroke-linecap="round" stroke-width="2.3513"/>
    <path id="path274104-7" d="m177.24 920.52-7.2079-3.8101" fill="none" stroke="#e3f1ca" stroke-linecap="round" stroke-width="2.3513"/>
    <path id="path274106-8" d="m162.65 898.45 5.5316-5.5564" fill="none" stroke="#e3f1ca" stroke-linecap="round" stroke-width="2.3513"/>
    <path id="path274108-9" d="m154.78 889.4 2.179-6.9852" fill="none" stroke="#e3f1ca" stroke-linecap="round" stroke-width="2.3513"/>
    <ellipse id="path276257-6" cx="133.53" cy="884" rx="6.244" ry="5.3977" fill="none" style="paint-order:fill markers stroke"/>
    <ellipse id="path280774-3" cx="133.82" cy="885.37" rx="5.7236" ry="5.0834" fill="#ae69a0" fill-rule="evenodd" stroke="#ae69a0" stroke-linecap="round" stroke-linejoin="round" stroke-width="2.843" style="paint-order:fill markers stroke"/>
   </g>
  </g>
 </g>
</svg>
