<?xml version="1.0" encoding="UTF-8"?>
<svg id="svg5" width="1200mm" height="1200mm" version="1.1" viewBox="0 0 1200 1200" xmlns="http://www.w3.org/2000/svg" xmlns:xlink="http://www.w3.org/1999/xlink">
 <g id="layer60" transform="translate(19.4 11.241)">
  <g id="layer214">
   <g id="layer174">
    <ellipse id="path45179" cx="564.54" cy="749.75" rx="27.948" ry="4.1147" fill="#392c2c" style="paint-order:stroke fill markers"/>
    <ellipse id="path45179-9" cx="564.66" cy="753.01" rx="26.989" ry="3.1887" fill="#3e1a06" style="paint-order:stroke fill markers"/>
    <path id="path8049" d="m566.35 752.66s-2.6393-39.055 11.379-47.034c16.44-9.3578 54.241 16.69 54.241 16.69s-31.534-7.6692-44.759-0.75861c-11.064 5.7816-20.862 31.103-20.862 31.103z" fill="#007309" stroke="#000"/>
    <path id="path8049-6" d="m566.35 752.66s-12.959-68.758 11.379-81.172c18.236-9.302 54.241 28.803 54.241 28.803s-32.318-9.5567-44.759-1.3092c-16 10.607-20.862 53.679-20.862 53.679z" fill="#007309" stroke="#000"/>
    <path id="path8049-67" d="m566.32 753.65s-21.124-60.114-8.7201-86.191c10.411-21.889 60.745-39.974 60.745-39.974s-35.599 31.752-44.598 53.021c-9.5492 22.57-7.4267 73.144-7.4267 73.144z" fill="#007309" stroke="#000"/>
    <path id="path8049-3" d="m566.32 753.65s11.178-62.787-11.05-74.345c-17.423-9.0586-52.674 26.38-52.674 26.38s31.311-9.0956 43.465-1.1991c14.863 9.6567 20.259 49.163 20.259 49.163z" fill="#007309" stroke="#000"/>
    <path id="path8049-7" d="m566.35 752.66s-8.2014-38.275-23.874-42.092c-18.38-4.4765-47.561 30.961-47.561 30.961s28.209-16.044 42.825-13.037c12.228 2.5164 28.61 24.168 28.61 24.168z" fill="#007309" stroke="#000"/>
    <path id="path40994" d="m566.35 752.66c8.1518-17.192 13.553-28.784 22.97-32.081 12.685-4.4418 28.345-0.56053 42.651 1.7366 0 0-33.482-11.67-47.529-8.5126-3.7713 0.84762-6.5986 5.963-8.4693 10.798-1.3381 2.1507-2.1707 5.8782-1.3068-0.49848 1.4434-9.2559 3.782-18.715 12.023-24.712 8.246-5.9997 22.038-4.7769 45.282 0.89995-32.812-10.306-50.749-3.4842-56.548-1.1803-5.2563 2.2221-4.3684-0.561-2.9093-10.546l1.6001-8.3643s-3.706 8.5827-6.756 9.0116c-3.05 0.42893-5.7541-4.3567-5.7541-4.3567 3.5462 6.4005 5.3188 12.801 6.6915 19.202 1.8377 23.45 0.26362 20.978-1.1297 27.412s-1.3246-17.626-15.609-27.917-37.027-5.3376-40.185 0.28268c19.197-4.4109 38.552-6.4951 45.739 16.631 1.3449 6.0243 3.3005 12.129 2.5927 11.323-13.863-39.715-39.93-13.122-43.197-11.074 5.6226-2.9248 33.148-15.741 33.106 7.6575-14.755-8.3925-29.887-1.7872-38.084 5.2671 1.0096-0.95355 17.198-7.8491 27.187-4.7329 7.4878 2.3358 20.414 13.392 27.636 23.755" opacity=".3127"/>
    <path id="path51050" d="m568.42 751.29c-1.5826-0.26124-3.1555-0.10122-4.7188 0.11523 0.46293 0.18238 4.3278-0.0962 4.7188-0.11523z" color="#000000" style="-inkscape-stroke:none"/>
    <ellipse id="path49124" cx="566.65" cy="752.13" rx="5.2459" ry=".7974" fill="#351605" style="paint-order:stroke fill markers"/>
    <path id="rect7778" d="m537.81 750.8c15.604 2.2767 32.045 3.7169 53.643 0v54.715c-14.541 6.3758-28.321 14.205-53.643 0z" fill="#535353" stroke="#000" stroke-linecap="round" stroke-width="2.252" style="paint-order:stroke fill markers"/>
    <path id="path47276" d="m562.01 747.5c2.2531 1.5899 3.755 4.7211 4.5747 4.5448 0.27307-0.63346 0.32437-2.1644 1.0787-2.2032 6.4342-0.33057 14.063 1.6432 4.72 3.0473-8.1138 0.23281-16.228 0.56568-24.341-0.89497 0 0-4.0722 25.513-5.1349 36.67-0.92147 9.674 5.1808 21.903 5.1808 21.903l-10.283-5.0438v-54.715c0.81032-2.4409 15.244-2.9334 24.205-3.3079z" opacity=".12704"/>
   </g>
  </g>
 </g>
</svg>
