<?xml version="1.0" encoding="UTF-8"?>
<svg id="svg5" width="1200mm" height="1200mm" version="1.1" viewBox="0 0 1200 1200" xmlns="http://www.w3.org/2000/svg" xmlns:xlink="http://www.w3.org/1999/xlink">
 <g id="layer60" transform="translate(19.4 11.241)">
  <g id="layer262">
   <g id="layer88">
    <path id="path22197-3" d="m498.62 1095.8 49.682 0.2946c-2.2379 26.7-1.0847 49.525-0.7371 73.27l-10.32 1.1794-0.29509-2.8011c-18.471 5.7299-37.158 8.8641-56.022 9.8775-9.931-0.6408-13.624-6.3339-14.448-12.384-0.64154-4.7118 1.4691-9.8362 4.4228-13.563 2.9995-3.7847 7.6778-6.4346 12.384-7.5189 4.1361-0.9528 12.679 1.1796 12.679 1.1796 1.8664 0.4876 3.654 0.6599 5.3073 0.2947 0.69489-16.61-1.5968-33.22-2.6534-49.829z" stroke="#000" stroke-width="1.1794px"/>
    <path id="path22197-4-4" d="m639.97 1094.3-50.445 0.2992c2.2723 27.11 1.1014 50.286 0.74842 74.396l10.478 1.1976 0.29962-2.8442c18.754 5.8179 37.728 9.0003 56.882 10.029 10.084-0.6506 13.833-6.4312 14.67-12.574 0.6514-4.7841-1.4917-9.9873-4.4907-13.771-3.0456-3.8428-7.7958-6.5334-12.574-7.6343-4.1996-0.9676-12.873 1.1976-12.873 1.1976-1.5132 0.2996-3.5925 0.9816-5.3888 0.2992-0.7056-16.865 1.6212-33.73 2.6941-50.595z" stroke="#000" stroke-width="1.1975px"/>
    <path id="path17321" d="m497.9 1094.3 0.31634 4.3255 50.473 0.1842 0.3754-4.2123z" color="#000000" fill="#ff0b00" style="-inkscape-stroke:none"/>
    <path id="path18018" d="m474.38 1147.6s4.5166 1.6055 5.7182 3.5703c1.8748 3.0658 2.5405 6.8877 2.735 9.9637 0.58614 4.449 3.4527 5.921 8.0807 5.1993 19.683-3.0695 38.033-7.8897 56.949-11.96l0.14015 6.306s-18.189 7.0166-41.48 10.99c-23.29 3.9739-35.649 5.3879-38.677-0.2402-7.783-14.468 6.5335-23.83 6.5335-23.83z" fill="#ff0b00"/>
    <path id="path17321-8" d="m640.65 1093.6-0.31634 4.3255-51.124 0.1983-0.3754-4.2123z" color="#000000" fill="#ff0b00" style="-inkscape-stroke:none"/>
    <path id="path18018-1" d="m664.66 1146.8s-4.5166 1.6055-5.7182 3.5703c-1.8748 3.0658-2.5405 6.8877-2.735 9.9637-0.58614 4.449-3.4527 5.921-8.0807 5.1993-19.683-3.0695-39.236-8.187-58.152-12.257l-0.12601 6.3343s19.378 7.2856 42.669 11.259c23.29 3.9739 35.649 5.3879 38.677-0.2402 7.783-14.468-6.5335-23.83-6.5335-23.83z" fill="#ff0b00"/>
   </g>
  </g>
 </g>
</svg>
