<?xml version="1.0" encoding="UTF-8"?>
<svg id="svg5" width="1200mm" height="1200mm" version="1.1" viewBox="0 0 1200 1200" xmlns="http://www.w3.org/2000/svg" xmlns:xlink="http://www.w3.org/1999/xlink">
 <g id="layer60" transform="translate(19.4 11.241)">
  <g id="layer214">
   <g id="layer246" transform="translate(-19.4 -11.241)">
    <path id="path46158-6-0" d="m710.23 730.76c2.239 1.6437 0.79996 8.1328 0.40097 9.5483 3.1044 0.97598 0.55295 5.9747-0.44315 7.1871l0.42818 2.0445-10.041 3.1975c-1.3524 0.3893-2.6231 0.89304-1.0261 1.1447 10.609 1.6688 15.076 2.0791 24.955 0.21645 1.3664-0.32049 3.5988-0.77299 1.0852-1.3666l-10.579-3.3681c-0.17069-3.7833-0.0151-4.185-0.13554-7.762-3.316-1.7444-0.98512-6.5954-0.54456-7.9631l-0.086-5.2547s9.1397-0.2789 11.676-2.983c8.5652-9.1313 0.21592-20.722-1.3599-24.987-0.54693-1.4803-0.32883-4.8014-0.32883-4.8014-8.8747-2.9114-18.234-3.1132-27.247-0.12857 0 0 0.5382 3.2732 0.11611 4.5674-1.097 3.3638-9.5406 17.049-0.61964 25.324 2.6838 2.4894 13.757 2.9966 13.757 2.9966l-0.0139 2.1924z" fill="#dedddd" opacity=".5061"/>
    <path id="path55868-2" d="m700.66 754.06c7.1375-1.9796 18.227-1.7046 24.339-0.40666" fill="none" stroke="#000" stroke-width=".15624px"/>
    <path id="path11934" d="m699.05 697.05c0.15881 1.6762 0.65485 2.8866-1.4914 7.746 7.5929 3.0343 17.55 1.9855 27.562-0.14022-1.2444-2.1935-2.6469-4.8963-1.8863-7.424-7.6196-4.5507-15.893-2.4521-24.184-0.18182z" fill="#fcc059" stroke="#000" stroke-width=".26458px"/>
    <path id="path46158-6-1" d="m710.66 730.87c2.239 1.6437 0.79996 8.1328 0.40097 9.5483 3.1044 0.97598 0.55295 5.9747-0.44315 7.1871l0.42818 2.0445-10.041 3.1975c-1.3524 0.3893-2.6231 0.89304-1.0261 1.1447 10.609 1.6688 15.076 2.0791 24.955 0.21645 1.3664-0.32049 3.5988-0.77299 1.0852-1.3666l-10.579-3.3681c-0.17069-3.7833-0.0151-4.185-0.13554-7.762-3.316-1.7444-0.98512-6.5954-0.54456-7.9631l-0.086-5.2547s9.1397-0.2789 11.676-2.983c8.5652-9.1313 0.21592-20.722-1.3599-24.987-0.54693-1.4803-0.32883-4.8014-0.32883-4.8014-9.7294 0.50762-19.157 0.57736-27.247-0.12857 0 0 0.5382 3.2732 0.11611 4.5674-1.097 3.3638-9.5406 17.049-0.61964 25.324 2.6838 2.4894 13.757 2.9966 13.757 2.9966l-0.0139 2.1924z" fill="none" stroke="#000" stroke-width="1.7341"/>
    <path id="path49348-11" d="m728.02 720.11c-0.30919 0.94761-1.022 3.2846-3.1542 4.7605-1.9605 1.357-6.3738 1.5369-10.293 2.1935-1.126 0.15862-2.2025 0.25847-3.6592 5.9e-4 -1.7218-0.28942-10.008-0.41193-12.746-2.7102-2.738-2.2982-3.512-5.3655-3.8068-6.7466-0.29487-1.3811-0.30154-1.8087 0.0365-5.0998 0.35557-3.4618 3.5757-8.7768 3.5757-8.7768 10.944 2.8964 21.168 0.0186 27.058 0.72206 0 0 5.1396 9.0641 2.9884 15.657z" fill="#1c0803" stroke="#000" stroke-width=".20438px"/>
    <path id="path53868-0" d="m725.11 694.73c-8.4128-1.3378-18.171-1.0251-28.242-0.1923 7.8673 2.6955 17.805 2.7643 28.242 0.1923z" fill="none" stroke="#000" stroke-linecap="round" stroke-linejoin="round" stroke-width="1.034"/>
   </g>
  </g>
 </g>
</svg>
