<?xml version="1.0" encoding="UTF-8"?>
<svg id="svg5" width="1200mm" height="1200mm" version="1.1" viewBox="0 0 1200 1200" xmlns="http://www.w3.org/2000/svg" xmlns:xlink="http://www.w3.org/1999/xlink">
 <g id="layer60" transform="translate(19.4 11.241)">
  <g id="layer214">
   <g id="layer190">
    <path id="path306335" d="m711.01 756.68c-5.2474-6.3488-11.191-13.547-17.551-21.255 0.76114-3.5435-1.4395-3.9117-3.5954-4.3577-7.3557-8.9162-26.147-37.005-33.983-45.025l-17.73-18.145c-27.098-27.731-49.082-57.367-53.425-61.885 10.005-1.4184 20.227-3.6146 30.11-5.647l36.171 57.494 11.383 20.865 27.684 41.329c-0.0118 6.2289 3.7854 9.737 8.9375 12.277l15.801 21.38z" fill="#f3be7e" stroke="#000" stroke-width="2.5"/>
    <path id="path306335-8" d="m711.01 756.68c-5.2474-6.3488-11.191-13.547-17.551-21.255 0.76114-3.5435-1.4395-3.9117-3.5954-4.3577-7.3557-8.9162-7.1725-9.9349-14.268-18.618l5.7461-4.6236 8.7322 12.228c-0.0118 6.2289 3.7854 9.737 8.9375 12.277l15.801 21.38z" fill="#fff" stroke="#000" stroke-width="2.5"/>
    <ellipse id="path309616" transform="rotate(-37.618)" cx="103.74" cy="1033.6" rx="5.5625" ry="3.1985" fill="#f3be7e" stroke="#000" stroke-linecap="round" stroke-linejoin="round" stroke-width="2.5"/>
    <path id="path311123" d="m675.94 713.44 8.1931-2.477" fill="none" opacity=".23984" stroke="#000" stroke-width=".565"/>
    <path id="path311125" d="m680.51 719.03 7.1134-1.4608" fill="none" opacity=".23984" stroke="#000" stroke-width=".565"/>
    <path id="path311127" d="m684.32 724.55 5.7161-0.5081" fill="none" opacity=".23984" stroke="#000" stroke-width=".565"/>
    <path id="path311129" d="m689.86 731.07 7.098-0.0987" fill="none" opacity=".23984" stroke="#000" stroke-width=".565"/>
    <path id="path311131" d="m695.88 736.68 6.5418-0.19052" fill="none" opacity=".23984" stroke="#000" stroke-width=".565"/>
    <path id="path311133" d="m701.28 743.03 5.2716-0.76216" fill="none" opacity=".23984" stroke="#000" stroke-width=".565"/>
    <path id="path311135" d="m705.72 749.32 5.2715-0.57161" fill="none" opacity=".23984" stroke="#000" stroke-width=".565"/>
    <path id="path311246" d="m671.86 702.65c5.4426 8.9205 12.137 17.528 19.138 26.059 0.74138 0.90338 2.5024 1.1708 3.2496 2.0727 0.81544 0.98437 0.61743 2.6032 1.4369 3.5865 4.9002 5.88 9.8472 11.748 14.529 17.683l-1.7066 2.2455-15.048-18.874-0.22114-3.1316-5.3892-3.3234-19.753-24.425c-26.862-37.554-58.356-65.404-69.768-81.891-7.8276-11.308-13.107-9.6518-12.92-16.261 0.0649-2.2864 27.186-6.1602 29.146-4.7519 1.5192 1.0914-15.144 6.9709-14.967 7.5698 3.9904 13.54 22.261 28.443 43.307 54.316 9.2105 11.323 17.846 24.344 28.968 39.125z" opacity=".081301" stroke="#000" stroke-width=".26458px"/>
    <ellipse id="path316587" transform="matrix(.7921 -.61039 .58219 .81305 0 0)" cx="141.69" cy="884.31" rx="7.855" ry="31.755" fill="none" opacity=".13211" stroke="#611f00" stroke-linecap="round" stroke-linejoin="round" stroke-width=".55501"/>
    <ellipse id="path316585" transform="rotate(-36.606)" cx="126.73" cy="879.55" rx="5.9696" ry="24.77" fill="none" opacity=".13211" stroke="#611f00" stroke-linecap="round" stroke-linejoin="round" stroke-width=".565"/>
    <ellipse id="path316583" transform="rotate(-36.606)" cx="126.85" cy="877.9" rx="3.5567" ry="21.34" fill="none" opacity=".13211" stroke="#611f00" stroke-linecap="round" stroke-linejoin="round" stroke-width=".565"/>
    <path id="path316702" d="m622.42 611.66c-2.3772-2.3809-5.3866-6.9115-11.308-7.7743-6.67-1.4238-6.2624 4.1355-5.4589 8.6233 7.9511 32.82 33.178 45.127 39.292 51.005l36.397 44.308" fill="none" opacity=".10976" stroke="#611f00"/>
    <path id="path316704" d="m619.16 606.61c-2.2456-3.1908-5.1214-5.6675-10.924-4.827-2.3427 0.82752-5.5377-1.3281-6.9965 2.5931 0.57489 33.76 33.168 54.268 42.257 63.349l15.342 17.681 19.94 24.521" fill="none" opacity=".10976" stroke="#611f00"/>
   </g>
  </g>
 </g>
</svg>
