<?xml version="1.0" encoding="UTF-8"?>
<svg id="svg5" width="1200mm" height="1200mm" version="1.1" viewBox="0 0 1200 1200" xmlns="http://www.w3.org/2000/svg" xmlns:xlink="http://www.w3.org/1999/xlink">
 <g id="layer60" transform="translate(19.4 11.241)">
  <g id="layer264">
   <g id="g16575">
    <g id="g16425" transform="matrix(5.2116 0 0 6.7842 2.467 -661.37)" fill="#fff">
     <path id="path16423" d="m90.908 269.32c-0.69016 0.58121-0.32503 0.83771-0.22018 1.1743 2.4301 1.6004 4.8602 0.56652 7.2903 0.66054 2.0589 0.0239 4.1251 0.0722 5.9937-0.53822 2e-3 -0.20576-0.0105-0.52398-0.0734-1.2477-1.5675 0.36773-11.69 1.5851-12.99-0.0489z" stroke="#000" stroke-width=".265"/>
    </g>
    <path id="path16427" d="m540.64 1170.3-0.0166 1.9365c-2.8548 1.6837-8.2495 2.1558-15.828 2.5706-7.5786 0.4147-17.414 0.8071-28.545 1.734l0.0415-1.9195c11.165-0.9297 20.886-1.1898 28.44-1.6033 5.1681-0.3528 10.913-1.1495 15.905-2.7183z" color="#000000" stroke-width="5.9463" style="-inkscape-stroke:none"/>
    <g id="g16437" transform="matrix(5.2116 0 0 6.7842 7.5418 -661.46)">
     <g id="g16433" fill="#7eaf5e" stroke="#000">
      <path id="path16429" d="m99.624 264.58c0.12458-0.83433-1.0536-0.68864-1.6502-1.1932-0.12192 0.35325 0.18612 0.78912-0.55478 1.8328-1.1149 1.5706-3.7133 3.3184-5.4588 3.7482l-0.25918 0.78908c2.8192-0.48409 5.5935-2.0558 7.4276-4.2465z" stroke-width=".26458px"/>
      <path id="path16431" d="m102.01 264.17c0.0116-0.13607-0.0994-0.20158-0.10807-0.14696-0.0137 0.0859-0.01 0.12145-0.0682 0.15716-1.2276 0.75173-2.8362 0.0747-3.7835 0.34434-0.60151 0.96425-0.91545 1.9694-1.5232 2.4878-2.2981 1.7131-4.0373 1.4364-4.9843 2.9154 1.4368 0.34291 10.922-0.12427 11.382-0.54786 0 0-0.11994-1.0414-0.56268-1.8348-0.50461-1.1479-0.63995-2.1066-0.3623-3.3196z" stroke-width=".265"/>
     </g>
     <ellipse id="ellipse16435" transform="scale(-1,1)" cx="-100.34" cy="267.04" rx="1.0293" ry="1.0725" fill="#fff" style="paint-order:stroke fill markers"/>
    </g>
    <g id="g16459" transform="matrix(5.2116 0 0 6.7842 7.5418 -661.46)" fill="none" stroke="#d6d6d6" stroke-linecap="round" stroke-linejoin="round" stroke-width=".1">
     <ellipse id="ellipse16439" transform="scale(-1,1)" cx="-97.52" cy="269.5" rx=".21623" ry=".19937" style="paint-order:stroke fill markers"/>
     <ellipse id="ellipse16441" transform="scale(-1,1)" cx="-96.273" cy="269.58" rx=".21623" ry=".19937" style="paint-order:stroke fill markers"/>
     <ellipse id="ellipse16443" transform="scale(-1,1)" cx="-92.985" cy="269.31" rx=".21623" ry=".19937" style="paint-order:stroke fill markers"/>
     <ellipse id="ellipse16445" transform="scale(-1,1)" cx="-93.887" cy="269" rx=".21623" ry=".19937" style="paint-order:stroke fill markers"/>
     <ellipse id="ellipse16447" transform="scale(-1,1)" cx="-94.896" cy="268.66" rx=".21623" ry=".19937" style="paint-order:stroke fill markers"/>
     <ellipse id="ellipse16449" transform="scale(-1,1)" cx="-95.734" cy="268.28" rx=".21623" ry=".19937" style="paint-order:stroke fill markers"/>
     <ellipse id="ellipse16451" transform="scale(-1,1)" cx="-96.719" cy="267.71" rx=".21623" ry=".19937" style="paint-order:stroke fill markers"/>
     <ellipse id="ellipse16453" transform="scale(-1,1)" cx="-97.282" cy="267.03" rx=".21623" ry=".19937" style="paint-order:stroke fill markers"/>
     <ellipse id="ellipse16455" transform="scale(-1,1)" cx="-97.808" cy="266.19" rx=".21623" ry=".19937" style="paint-order:stroke fill markers"/>
     <ellipse id="ellipse16457" transform="scale(-1,1)" cx="-98.419" cy="265.24" rx=".21623" ry=".19937" style="paint-order:stroke fill markers"/>
    </g>
    <g id="g16492" transform="matrix(5.2116 0 0 6.7842 -35.938 -663.4)" fill="#fff">
     <path id="path16461" d="m101.06 268.86 0.26073-0.13515 1.0187 0.45565c-0.0247 0.12645-0.0991 0.17846-0.18862 0.2077l-0.80988-0.375 0.11222 0.59641c-0.0868 0.0678-0.17368 0.053-0.26053 0.01z" color="#000000" style="-inkscape-stroke:none"/>
     <path id="path16463" d="m102.1 268.35-0.33836 0.38238-0.43572 0.18303c0.23547-0.25565 0.45533-0.45809 0.77408-0.56541z" color="#000000" style="-inkscape-stroke:none"/>
     <path id="path16465" d="m102.9 267.89-0.37438 0.54673-0.36308 0.14462c0.24928-0.37393 0.27604-0.52183 0.73746-0.69135z" color="#000000" style="-inkscape-stroke:none"/>
     <path id="path16467" d="m102.7 267.98 0.64208 0.89039c-0.0457 0.10047-0.13621 0.11152-0.21178 0.15235l-0.64515-0.89039z" color="#000000" style="-inkscape-stroke:none"/>
     <path id="path16469" d="m103.32 267.56 0.86914 0.92187c-0.0492 0.1101-0.11156 0.17746-0.19336 0.18164l-0.86914-0.92187z" color="#000000" style="-inkscape-stroke:none"/>
     <path id="path16472" d="m103.61 267.4-0.22952 0.65992-0.27838 0.12563c0.14906-0.40592 0.0438-0.68389 0.5079-0.78555z" color="#000000" style="-inkscape-stroke:none"/>
     <path id="path16474" d="m103.96 267.11 1.1368 0.77046c0.0234 0.10056-0.039 0.15821-0.14571 0.19369l-1.2144-0.7877c0.0484-0.0588 0.0954-0.11763 0.22327-0.17645z" color="#000000" style="-inkscape-stroke:none"/>
     <path id="path16476" d="m104.34 266.81-0.19863 0.82272-0.31557 0.18531c0.0936-0.48347 0.0883-0.78899 0.5142-1.008z" color="#000000" style="-inkscape-stroke:none"/>
     <path id="path16478" d="m104.68 266.51 1.0296 0.6974c-0.0292 0.0792-0.0351 0.17185-0.14021 0.20773l-1.0707-0.73871z" color="#000000" style="-inkscape-stroke:none"/>
     <path id="path16480" d="m105.18 266 1.0192 0.35117c0.0284 0.0832-6e-3 0.16159-0.084 0.23667l-1.0899-0.37764z" color="#000000" style="-inkscape-stroke:none"/>
     <path id="path16482" d="m104.68 266.57 0.15106 0.59034-0.20744 0.15618c-0.0911-0.3841-0.27175-0.73838 0.0564-0.74652z" color="#000000" style="-inkscape-stroke:none"/>
     <path id="path16484" d="m105.18 266 0.14053 0.51544-0.14119 0.21624c-0.13306-0.35155-0.31211-0.62186 6.6e-4 -0.73168z" color="#000000" style="-inkscape-stroke:none"/>
     <path id="path16486" d="m105.8 265.19 0.0364 0.34204-0.15078 0.29903c-0.0739-0.37722-0.12772-0.58292 0.11438-0.64107z" color="#000000" style="-inkscape-stroke:none"/>
     <path id="path16488" d="m105.87 265.1 0.9169 0.27903c0.0741 0.15369-0.0102 0.19555-0.0684 0.25586l-1.0801-0.28515z" color="#000000" style="-inkscape-stroke:none"/>
     <path id="path16490" d="m99.988 270.17c0.12777-0.26946 0.21027-0.61256 0.3154-0.91884-1.8217-0.36974-1.8544 0.172-2.024 0.3583 0.86294 0.442 1.0019 0.53227 1.7086 0.56054z" stroke="#000" stroke-width=".26458px"/>
    </g>
    <g id="g16496" transform="matrix(-5.2116 0 0 6.7842 1135.5 -662.16)" fill="#fff">
     <path id="path16494" d="m90.908 269.32c-0.69016 0.58121-0.32503 0.83771-0.22018 1.1743 2.4301 1.6004 4.8602 0.56652 7.2903 0.66054 2.0589 0.0239 4.1251 0.0722 5.9937-0.53822 2e-3 -0.20576-0.0105-0.52398-0.0734-1.2477-1.5675 0.36773-11.69 1.5851-12.99-0.0489z" stroke="#000" stroke-width=".265"/>
    </g>
    <path id="path16498" d="m597.28 1169.6 0.0166 1.9365c2.8548 1.6837 8.2495 2.1558 15.828 2.5706 7.5786 0.4147 17.414 0.8071 28.545 1.734l-0.0415-1.9195c-11.165-0.9297-20.886-1.1898-28.44-1.6033-5.1681-0.3528-10.912-1.1495-15.905-2.7183z" color="#000000" stroke-width="5.9463" style="-inkscape-stroke:none"/>
    <g id="g16508" transform="matrix(-5.2116 0 0 6.7842 1130.4 -662.24)">
     <g id="g16504" fill="#7eaf5e" stroke="#000">
      <path id="path16500" d="m99.624 264.58c0.12458-0.83433-1.0536-0.68864-1.6502-1.1932-0.12192 0.35325 0.18612 0.78912-0.55478 1.8328-1.1149 1.5706-3.7133 3.3184-5.4588 3.7482l-0.25918 0.78908c2.8192-0.48409 5.5935-2.0558 7.4276-4.2465z" stroke-width=".26458px"/>
      <path id="path16502" d="m102.01 264.17c0.0116-0.13607-0.0994-0.20158-0.10807-0.14696-0.0137 0.0859-0.01 0.12145-0.0682 0.15716-1.2276 0.75173-2.8362 0.0747-3.7835 0.34434-0.60151 0.96425-0.91545 1.9694-1.5232 2.4878-2.2981 1.7131-4.0373 1.4364-4.9843 2.9154 1.4368 0.34291 10.922-0.12427 11.382-0.54786 0 0-0.11994-1.0414-0.56268-1.8348-0.50461-1.1479-0.63995-2.1066-0.3623-3.3196z" stroke-width=".265"/>
     </g>
     <ellipse id="ellipse16506" transform="scale(-1,1)" cx="-100.34" cy="267.04" rx="1.0293" ry="1.0725" fill="#fff" style="paint-order:stroke fill markers"/>
    </g>
    <g id="g16530" transform="matrix(-5.2116 0 0 6.7842 1130.4 -662.24)" fill="none" stroke="#d6d6d6" stroke-linecap="round" stroke-linejoin="round" stroke-width=".1">
     <ellipse id="ellipse16510" transform="scale(-1,1)" cx="-97.52" cy="269.5" rx=".21623" ry=".19937" style="paint-order:stroke fill markers"/>
     <ellipse id="ellipse16512" transform="scale(-1,1)" cx="-96.273" cy="269.58" rx=".21623" ry=".19937" style="paint-order:stroke fill markers"/>
     <ellipse id="ellipse16514" transform="scale(-1,1)" cx="-92.93" cy="269.31" rx=".21623" ry=".19937" style="paint-order:stroke fill markers"/>
     <ellipse id="ellipse16516" transform="scale(-1,1)" cx="-93.887" cy="269" rx=".21623" ry=".19937" style="paint-order:stroke fill markers"/>
     <ellipse id="ellipse16518" transform="scale(-1,1)" cx="-94.896" cy="268.66" rx=".21623" ry=".19937" style="paint-order:stroke fill markers"/>
     <ellipse id="ellipse16520" transform="scale(-1,1)" cx="-95.734" cy="268.28" rx=".21623" ry=".19937" style="paint-order:stroke fill markers"/>
     <ellipse id="ellipse16522" transform="scale(-1,1)" cx="-96.719" cy="267.71" rx=".21623" ry=".19937" style="paint-order:stroke fill markers"/>
     <ellipse id="ellipse16524" transform="scale(-1,1)" cx="-97.282" cy="267.03" rx=".21623" ry=".19937" style="paint-order:stroke fill markers"/>
     <ellipse id="ellipse16526" transform="scale(-1,1)" cx="-97.808" cy="266.19" rx=".21623" ry=".19937" style="paint-order:stroke fill markers"/>
     <ellipse id="ellipse16528" transform="scale(-1,1)" cx="-98.419" cy="265.24" rx=".21623" ry=".19937" style="paint-order:stroke fill markers"/>
    </g>
    <g id="g16562" transform="matrix(-5.2116 0 0 6.7842 1173.9 -664.15)" fill="#fff">
     <path id="path16532" d="m101.11 268.84 0.21527-0.1142 1.0187 0.45565c-0.0247 0.12645-0.0991 0.17846-0.18862 0.2077l-0.80988-0.375 0.0759 0.57546c-0.0777 0.027-0.17794 0.11392-0.27872 0.0166z" color="#000000" style="-inkscape-stroke:none"/>
     <path id="path16534" d="m102.1 268.35-0.33836 0.38238-0.43572 0.18303c0.23547-0.25565 0.45533-0.45809 0.77408-0.56541z" color="#000000" style="-inkscape-stroke:none"/>
     <path id="path16536" d="m102.9 267.89-0.37438 0.54673-0.36308 0.14462c0.24928-0.37393 0.27604-0.52183 0.73746-0.69135z" color="#000000" style="-inkscape-stroke:none"/>
     <path id="path16538" d="m102.7 267.98 0.64208 0.89039c-0.0457 0.10047-0.13621 0.11152-0.21178 0.15235l-0.64515-0.89039z" color="#000000" style="-inkscape-stroke:none"/>
     <path id="path16540" d="m103.32 267.56 0.86914 0.92187c-0.0492 0.1101-0.11156 0.17746-0.19336 0.18164l-0.86914-0.92187z" color="#000000" style="-inkscape-stroke:none"/>
     <path id="path16542" d="m103.61 267.4-0.22952 0.65992-0.27838 0.12563c0.14906-0.40592 0.0438-0.68389 0.5079-0.78555z" color="#000000" style="-inkscape-stroke:none"/>
     <path id="path16544" d="m103.96 267.11 1.1368 0.77046c0.0234 0.10056-0.039 0.15821-0.14571 0.19369l-1.2144-0.7877c0.0484-0.0588 0.0954-0.11763 0.22327-0.17645z" color="#000000" style="-inkscape-stroke:none"/>
     <path id="path16546" d="m104.34 266.81-0.19863 0.82272-0.31557 0.18531c0.0936-0.48347 0.0883-0.78899 0.5142-1.008z" color="#000000" style="-inkscape-stroke:none"/>
     <path id="path16548" d="m104.68 266.51 1.0296 0.6974c-0.0292 0.0792-0.0351 0.17185-0.14021 0.20773l-1.0707-0.73871z" color="#000000" style="-inkscape-stroke:none"/>
     <path id="path16550" d="m105.18 266 1.0192 0.35117c0.0284 0.0832-6e-3 0.16159-0.084 0.23667l-1.0899-0.37764z" color="#000000" style="-inkscape-stroke:none"/>
     <path id="path16552" d="m104.68 266.57 0.15106 0.59034-0.20744 0.15618c-0.0911-0.3841-0.27175-0.73838 0.0564-0.74652z" color="#000000" style="-inkscape-stroke:none"/>
     <path id="path16554" d="m105.18 266 0.14053 0.51544-0.14119 0.21624c-0.13306-0.35155-0.31211-0.62186 6.6e-4 -0.73168z" color="#000000" style="-inkscape-stroke:none"/>
     <path id="path16556" d="m105.8 265.19 0.0364 0.34204-0.15078 0.29903c-0.0739-0.37722-0.12772-0.58292 0.11438-0.64107z" color="#000000" style="-inkscape-stroke:none"/>
     <path id="path16558" d="m105.87 265.1 0.9169 0.27903c0.0741 0.15369-0.0102 0.19555-0.0684 0.25586l-1.0801-0.28515z" color="#000000" style="-inkscape-stroke:none"/>
     <path id="path16560" d="m99.988 270.17c0.12777-0.26946 0.21027-0.61256 0.3154-0.91884-1.8217-0.36974-1.8544 0.172-2.024 0.3583 0.86294 0.442 1.0019 0.53227 1.7086 0.56054z" stroke="#000" stroke-width=".26458px"/>
    </g>
    <g id="g16573" transform="matrix(4.1461 0 0 4.1461 114.51 46.944)" fill="none" stroke="#fff" stroke-dasharray="0.218489, 0.0728297" stroke-width=".07283">
     <path id="path16564" d="m117.03 261.78c0.50644 0.79252 2.5167 0.56575 4.1081 0.4008 0.74877-0.31263 0.92953 1.7534 1.7045 2.9656 0.47439 0.74204 1.4711 1.9199 2.4687 2.5654 0.69958 0.45265 2.2153 0.98452 3.0926 1.5646 0.65344 0.43209 0.98257 0.81986 1.1126 1.2156"/>
     <path id="path16566" d="m120.22 261.94c0.99003 3.732 2.6484 6.9735 8.4234 8.5578"/>
     <path id="path16568" d="m102.13 262.03c-0.50644 0.79252-2.5167 0.56575-4.1081 0.4008-0.74877-0.31263-0.92953 1.7534-1.7045 2.9656-0.47439 0.74204-1.4711 1.9199-2.4687 2.5654-0.69958 0.45265-2.2153 0.98452-3.0926 1.5646-0.65344 0.43209-0.98257 0.81986-1.1126 1.2156"/>
     <path id="path16571" d="m98.944 262.19c-0.99003 3.732-2.6484 6.9735-8.4234 8.5578"/>
    </g>
   </g>
  </g>
 </g>
</svg>
