<?xml version="1.0" encoding="UTF-8"?>
<svg id="svg5" width="1200mm" height="1200mm" version="1.1" viewBox="0 0 1200 1200" xmlns="http://www.w3.org/2000/svg" xmlns:xlink="http://www.w3.org/1999/xlink">
 <g id="layer60" transform="translate(19.4 11.241)">
  <g id="layer262">
   <g id="g44480" transform="translate(-19.4 -11.241)">
    <path id="path44458" d="m589.94 643.47 5.1484 88.83c-1.1794 3.677-0.51558 7.4211-0.52631 11.141l-7.2554-7.2993-1.5032-92.123 4.1365-0.54872" fill="#10344c" stroke="#000"/>
    <path id="path44460" d="m581.54 643.33s6e-3 2.5274-0.3594 3.7173c-0.41729 1.3575-2.0429 3.7389-2.0429 3.7389l-6.5798 107.05 10.292 18.901 11.357-19.83-5.4859-113.24-7.1807-0.33209" fill="#10344c" stroke="#000"/>
    <path id="path44466" d="m576.89 629.61c0.69999-1.4849 14.595-3.361 16.152-0.72979 0.47759 0.80718-3.103 14.585-3.103 14.585-2.6781 0.70773-5.5406 0.27996-8.4009-0.13383 0 0-5.3231-12.288-4.6476-13.721z" fill="#10344c" stroke="#000"/>
    <path id="path44472" d="m583.9 644.06-0.26365-6e-3c-0.0472 2.2512 0.051 4.502 0.53088 6.7405-0.41764-4.2703-0.29635-5.1504-0.2672-6.7348z" color="#000000" style="-inkscape-stroke:none"/>
    <path id="path44474" d="m585.93 644.02-0.26372-4e-3c0.13342 0.493 0.0464 1.2018 0.23804 1.7851z" color="#000000" style="-inkscape-stroke:none"/>
    <path id="path44476" d="m576.89 629.61 4.6476 13.721c0.0967 3.1943-1.4949 5.0416-2.4078 7.359-0.23514 0.59685 0.10019 1.5696-0.0983 2.1982 2.1892 0.0119 4.3061-0.12091 3.4714-6.1524l-0.57951-2.8534 0.73125 0.0101c0.40527 0.25069 0.95643 0.44279 1.0205 0.8305 0.10208 2.0293 0.0154 4.0705 0.48741 6.0763 0 0 1.0985-1.1902 1.1635-1.9421 0.0549-0.63449-0.81673-1.1601-0.68567-1.7833 0.12343-0.58695 1.2675-1.2772 1.2675-1.2772s1.0708-0.25118 1.48-0.6103c0.44146-0.38739 0.59358-0.95027 0.59358-0.95027l0.32123 0.0117 4.7162 97.352 1.8 1.4792c-0.49335-3.3537-1.4756-8.5606-0.67735-11.867l-4.2029-87.747c-5.116-2.0389-5.5579-6.8851-7.3869-10.898-1.327 0.0702-2.2724 0.77436-2.4584 2.7412-0.92606-1.8987-1.6059-3.8697-1.7982-5.9838" opacity=".31098"/>
    <path id="path44478" d="m581.92 643.88 6.795-0.21948 0.82393 111.76c-1.5299 5.1848-1.5586 8.7172-6.6328 13.327l-7.0187-4.8474-3.3352-6.0673 6.5798-107.05 2.788-6.9047" opacity=".046748"/>
   </g>
  </g>
 </g>
</svg>
