<?xml version="1.0" encoding="UTF-8"?>
<svg width="1200mm" height="1200mm" version="1.1" viewBox="0 0 1200 1200" xmlns="http://www.w3.org/2000/svg" xmlns:xlink="http://www.w3.org/1999/xlink">
 <defs>
  <filter id="filter5858" x="-.0011039" y="-.0030483" width="1.0022" height="1.0061" color-interpolation-filters="sRGB">
   <feGaussianBlur stdDeviation="0.00300962"/>
  </filter>
  <linearGradient id="linearGradient12993" x1="111.62" x2="111.57" y1="117.36" y2="126.45" gradientTransform="matrix(4.1461 0 0 4.1461 114.51 46.948)" gradientUnits="userSpaceOnUse">
   <stop offset="0"/>
   <stop stop-color="#bf4c4c" offset="1"/>
  </linearGradient>
  <linearGradient id="linearGradient12995" x1="111.3" x2="111.38" y1="118.14" y2="123.2" gradientTransform="matrix(15.67 0 0 15.67 506.1 219.93)" gradientUnits="userSpaceOnUse">
   <stop offset="0"/>
   <stop stop-color="#fff" offset="1"/>
  </linearGradient>
 </defs>
 <g>
  <g>
   <g transform="translate(19.4 11.241)">
    <path d="m554.16 553.02c13.641-2.214 28.996-2.2854 44.135 0.4285 0 0-7.9526 41.681-23.782 41.137-15.418-0.5307-20.354-41.564-20.354-41.564z" fill="url(#linearGradient12993)" stroke="#000" stroke-linejoin="round" stroke-width="2.7572"/>
    <path transform="matrix(.26458 0 0 .26458 -19.4 -11.241)" d="m2212.7 2132.1s-25.154 2.5695-38.362 4.8072l32.332 47.465zm81.066 52.936 34.504-46.365c-11.421-1.9209-33.214-4.7464-33.214-4.7464z" fill="url(#linearGradient12995)" stroke-width="15.67"/>
    <path d="m560.25 574.41s10.826-3.4219 15.955-1.882c4.6668 1.4012 11.173 9.4261 11.173 9.4261-11.808 21.286-21.813 9.3822-27.128-7.5442z" fill="#ef8a8a" stroke-width="4.1461"/>
    <path transform="matrix(4.1461 0 0 4.1461 114.51 46.946)" d="m107.51 127.22s2.611-0.82534 3.8481-0.45393c1.1256 0.33796 2.6949 2.2735 2.6949 2.2735-1.0547-0.99727-1.6082-1.2642-2.6047-1.7085-0.85998-0.38347-2.6677 0.10646-3.8689 0.35844 0 0 0.026-0.26363-0.0695-0.4695z" filter="url(#filter5858)" opacity=".12052" style="mix-blend-mode:normal"/>
   </g>
  </g>
 </g>
</svg>
