<?xml version="1.0" encoding="UTF-8"?>
<svg id="svg5" width="1200mm" height="1200mm" version="1.1" viewBox="0 0 1200 1200" xmlns="http://www.w3.org/2000/svg" xmlns:xlink="http://www.w3.org/1999/xlink">
 <g id="layer60" transform="translate(19.4 11.241)">
  <g id="layer15">
   <g id="g2780">
    <path id="path2756" d="m575.03 607.84-23.579 2.1147-42.995 32.104c-24.563 43.397-38.402 126.55-56.272 246.08 9.6678 6.0869 22.977 18.173 37.437-0.35781 9.6036-65.773 19.284-131.46 30.868-195.25l-28.594 280.67c15.37 19.239 37.103 6.3529 52.473 8.8529l40.681-1.4441c16.164-1.7081 49.646 5.9704 54.161-7.3874l-28.125-279.59 30.868 195.25c24.311 11.212 28.242 3.3193 37.435 0.3578-12.856-82.698-15.83-158.35-57.219-245.32-15.738-5.4936-33.785-30.782-47.138-36.072z" fill="#6c0c0c" stroke="#000" stroke-width=".82922"/>
   </g>
  </g>
 </g>
</svg>
