<?xml version="1.0" encoding="UTF-8"?>
<svg width="1200mm" height="1200mm" version="1.1" viewBox="0 0 1200 1200" xmlns="http://www.w3.org/2000/svg" xmlns:xlink="http://www.w3.org/1999/xlink">
 <g transform="translate(19.4 11.241)">
  <g stroke="#000">
   <path d="m733.81 493.64c-0.30349-0.36569 0.622-3.8626 1.5947-7.3274 1.9966-7.1122 3.9064-16.198 5.1121-24.316 1.2091-8.1404 1.3786-34.54 0.27198-42.423-4.9944-35.578-18.693-66.337-41.229-92.578-5.3845-6.2693-16.158-16.974-21.792-21.653-29.279-24.315-64.778-39.491-104.36-44.612-5.3203-0.68817-14.802-1.0327-24.282-1.0327l1.2e-4 5e-5c-9.4796 0-18.959 0.34454-24.28 1.0327-24.145 3.1232-44.931 9.359-66.167 19.851-23.297 11.509-43.293 26.982-59.981 46.411-22.536 26.239-36.235 57-41.229 92.578-1.1092 7.9024-0.93731 34.289 0.27654 42.423l0.95559 6.404" fill="none" stroke-width="2.1767" style="mix-blend-mode:normal"/>
   <path d="m368.93 464.34c1.928 11.309-7.8849 5.0868-7.8849 5.0868-9.3705 3.7146-9.7697 15.421-0.16994 22.34 1.9207 1.094 4.04 1.6381 6.6049 0.94877-0.11973 5.5214-0.21256 14.041 5.5731 28.496 1.756 4.3872-8.2958-8.5157-12.724-8.0718-12.783 1.2814-7.7785 1.4568-21.603-1.5609-13.824-3.0177-18.429-18.424-20.974-33.901-2.5453-15.476 0.78246-52.665 0.78246-52.665-6.0997-10.089 3.1716-61.004 26.74-52.386 10.646-8.6009 20.175-11.9 32.1-7.0442 0 0 1.0163 16.079 0.0101 24.001-1.3633 10.734-3.0147 22-8.113 31.253-7.4399 11.318-2.0742 35.744-0.34282 43.503z" fill="#ff8080" stroke-width="1.9019"/>
   <path d="m726.13 379.06c-13.324 3.9975 7.0254 31.704 0.84743 63.45-3.67 18.859 0.14834 39.413 0.0203 51.177 0 0 9.3682-1.2766 12.38 2.025 3.0042 3.2937 4.1731 6.5122 3.9447 11.135-0.2599 5.2592-6.717 8.6516-13.847 8.3278-2.5184 7.4751-6.634 14.722-10.867 21.952 0 0 8.5562-11.977 18.838-8.2672 10.814 3.9014 20.377-1.2905 28.437-15.066 7.7118-13.181 0.69219-36.436 6.6676-55.38 4.9127-15.575 6.6612-36.801-0.94629-40.353 0.82378-22.589-22.817-40.401-38.967-43.947-3.9831-0.87461-6.5062 4.9472-6.5062 4.9472z" fill="#ff8080" stroke-linecap="round" stroke-linejoin="round" stroke-width="2"/>
  </g>
  <g>
   <path d="m340.81 372.11c-4.8469 5.827-7.8372 12.052-10.998 18.24 6.5576-11.264 10.436-13.459 13.209-17.358z" color="#000000" style="-inkscape-stroke:none"/>
   <path d="m333.64 373.34c-14.849 8.1533-20.08 43.46-15.111 51.679 0 0-2.8203 36.065-0.27501 51.541 2.5453 15.476 6.4732 31.071 20.298 34.088 13.824 3.0177 10.577 3.3815 23.359 2.1001 4.4278-0.44387 13.654 9.5655 10.078 6.881-5.0738-3.8089-5.0772-21.26-4.5144-26.908-2.5649 0.68937-4.6844 0.14506-6.6051-0.94888-9.5998-6.9188-11.398-18.625-2.0279-22.34 0 0 5.0792 3.0402 3.1512-8.2693-1.7314-7.7588-12.838-21.854-5.3977-33.172 5.0983-9.2536 4.7828-21.06 8.113-31.253 1.4114-4.3202 5.0108-12.617 5.0108-12.617-12.412-6.4739-24.705-7.3239-34.013 5.7207-6.9165-0.67841-5.6489-12.272-2.065-16.502zm-6.2997 34.237 8.1294 10.061c2.9984 20.166 6.5734 26.567 10.759 40.243-10.156-13.156-17.224-28.407-18.889-50.303z" opacity=".063008" stroke="#000" stroke-width="1.9019"/>
   <path d="m318.85 423.56-1.5901 1.04c5.2225 8.7695 7.8184 18.613 17.403 23.908-9.7326-10.035-11.858-18.187-15.813-24.948z" color="#000000" style="-inkscape-stroke:none"/>
   <path d="m770.67 417.4c-1.2133 6.6171 1.3246 11.214-7.2127 21.775 9.5583-6.4073 7.4406-16.122 9.1542-21.295z" color="#000000" style="-inkscape-stroke:none"/>
   <path d="m737.3 458.03c-0.43711 8.3734-9.979 5.2577-10.31 35.654 0 0 9.3682-1.2766 12.38 2.025 3.0042 3.2937 4.1731 6.5122 3.9447 11.135-0.2599 5.2592-6.717 8.6516-13.847 8.3278l-9.4174 20.736s7.1063-10.76 17.388-7.0512c10.814 3.9014 20.377-1.2905 28.437-15.066 7.7118-13.181 0.57839-34.726 6.6676-55.38 0.19008-0.64474-14.003 25.132-19.526 28.626-6.5386 4.1361-4.5899-13.876-4.4457-14.539 6.3009-28.985 22.373-22.019 23.025-54.439-2.7273-36.929-4.7654 22.656-19.285 27.546-3.8647 1.3016-15.011 12.427-15.011 12.427z" opacity=".065041" stroke="#000" stroke-width="2"/>
   <path d="m727.14 378.47-1.9922 0.18359c0.56714 6.1263 3.7803 10.613 9.0508 13.332-3.9777-6.9681-6.5135-8.5039-7.0586-13.516z" color="#000000" opacity=".14228" style="-inkscape-stroke:none"/>
  </g>
 </g>
</svg>
