<?xml version="1.0" encoding="UTF-8"?>
<svg id="svg5" width="1200mm" height="1200mm" version="1.1" viewBox="0 0 1200 1200" xmlns="http://www.w3.org/2000/svg" xmlns:xlink="http://www.w3.org/1999/xlink">
 <g id="layer60" transform="translate(19.4 11.241)">
  <g id="layer214">
   <g id="layer183">
    <path id="path193818-1-6" d="m657.18 801.18-4.3162-2.0963c1.0928-10.407 2.0208-21.924 2.4641-28.519 2.4154-24.711-1.9094 2.1631-2.4578 7.5653-0.65061 6.4092-1.953 13.457-2.6265 19.642l-3.4816-1.741c1.8859-12.281 2.4825-20.867 3.8418-28.215 0.67338-3.375 0.75436-9.0577 3.5604-10.858 4.7524-3.0497 4.292 6.7558 4.1581 9.6698-0.49168 10.703-0.19534 25.387-1.1423 34.552z" color="#000000" fill="#f3bfa3" stroke="#000"/>
    <path id="path198295" d="m663.72 789.58 13.633 0.0498-19.232 7.9746c-8.0891 4.4191-18.577 3.4072-18.538-0.29668z" fill="#b4abab" stroke="#000" stroke-width="1.5"/>
    <path id="path219515" d="m661.62 790.83c-11.557 6.4569-21.319 12.229-0.3905 6.3007-7.4645 1.6791-14.905 3.2004-21.655 0.17145z" opacity=".14431"/>
    <path id="path194832" d="m671.36 853 14.228-14.475c2.5752-2.8148 1.9585-4.8444 1.1101-8.1792l-9.872-40.436-18.712 7.694c-0.55043 17.4 0.72189 38.02 13.245 55.396z" fill="#f3bfa3" stroke="#000" stroke-width="1.5"/>
    <path id="path194830" d="m638.72 854.46c-0.028 1.8792 7.3449 0.51392 15.119 0.99259 9.1376 0.56259 17.866-1.4375 17.52-2.4602-4.5593-16.384-6.8742-29.75-13.245-55.396-8.8784-2.28-6.8679 4.1226-10.869 0.65018-0.6419-0.55705-1.5398-1.2457-3.0565-0.30526-2.8015 1.5678-3.4502-4e-3 -4.6913-0.25562-0.50521 19.104-4.2018 40.537-0.77664 56.774z" fill="#f3bfa3" stroke="#000" stroke-width="1.5"/>
    <path id="path208360" d="m661.23 797.13c3.2607 17.286 8.7343 34.178 13.607 51.226l10.083-10.217c-4.3578-15.644-7.3206-29.392-10.667-46.355z" fill="#fff"/>
    <path id="path223785" d="m668.52 793.88c1.2726 3.1425-0.3018 5.3115 3.0409 5.2952l1.8723-4.317-0.45366-2.4108z" opacity=".10772"/>
    <path id="path223783" d="m661.23 797.13c7e-3 6.8906 4.2832 6.8822 6.1716 3.1114l-0.18966-5.3746-5.982 2.2632" opacity=".10772"/>
    <path id="path193818-1" d="m664.12 752.46c-0.49446-0.10434-1.0493-0.10777-1.5488 0.0879-0.99914 0.39132-1.3532 1.0513-1.5723 1.4902-0.43807 0.87788-0.50677 1.5474-0.61328 2.4609-0.21302 1.827-0.25692 4.4382-0.15235 8.125 0.20915 7.3735 1.0552 18.929 2.7832 35.385 0.44639 4.1222 4.9258 1.3997 4.3162-2.0963-1.0928-10.407-2.0208-21.924-2.4641-28.519-2.7696-31.411 1.9434 1.9882 2.4578 7.5653 0.59171 6.4149 1.953 13.457 2.6265 19.642 1.0061 4.3994 4.1834 0.44834 3.4816-1.741-1.8859-12.281-2.4825-20.867-3.8418-28.215-0.67966-3.674-1.3238-6.6031-1.9277-8.7754-0.30197-1.0862-0.59145-1.9787-0.90235-2.7324-0.3109-0.75376-0.41652-1.3596-1.4531-2.168-0.25915-0.20209-0.69499-0.40543-1.1895-0.50977z" color="#000000" fill="#f3bfa3" stroke="#000"/>
    <path id="path202883" d="m655.37 761.11-0.50858 3.3057c2.0591 0.6476 3.6203-0.031 5.4194-0.91695l-0.1997-3.8072c-1.4134 1.0049-2.7037 1.6944-4.7111 1.4184z"/>
    <path id="path203696" d="m663.76 756.77 0.49845 3.8306c1.3549-1.2099 2.749-2.394 3.927-3.7206l-1.0775-3.1338z"/>
    <path id="path212491" d="m643.65 833.09s-0.96944 2.8891 2.248 3.9881c3.4909 1.168 0.52866 3.0029 6.381 2.4585l3.809-2.0386c10.602 1.3771 8.3031 10.584 15.274 15.496-4.4353-10.445-7.3813-24.011-10.859-36.134l-4.2257-19.974-3.6829 0.62116c-0.10198 17.49 5.2095 27.571 4.0001 38.186 0.12996 4.2386-2.762-0.87621-3.7669-2.2015-1.8573-2.3607-2.0887-11.79-2.0887-11.79s-1.7832-10.781-1.7812-14.377c2e-3 -3.5957 0.0336-8.2965 0.0336-8.2965-2.4655-1.0654-2.5695-0.61165-4.7837-0.65426z" opacity=".12805" stroke="#000" stroke-width=".26458px"/>
    <path id="path218094" d="m641.42 799.29s-2.58 36.5-1.745 42.098 2.7073 12.043 12.673 13.475c0 0 0.55891 0.55356-1.3875 0.65561s-12.234-1.0545-12.234-1.0545c-4.372-25.292 0.51713-37.85 0.77664-56.774z" opacity=".17886"/>
    <path id="path218699" d="m644.21 798.38c3.2321 10.976 3.4065 23.5 5.0676 35.271l-2.4861-35.124c-0.94326-1.0613-1.7673-0.66401-2.5815-0.14671" opacity=".19919"/>
    <path id="path218701" d="m652.6 797.51c3.2284 4.6793 3.0968 11.059 4.5601 16.631-0.28946-5.7721-0.36822-13.071-0.8772-17.252z" opacity=".19106"/>
    <path id="path219519" d="m650.94 793.4c-3e-3 -0.46352 4.8938-32.803 4.8938-32.803-2.2363-5.2141-6.9232 34.818-7.5455 33.914 0 0 2.6538-0.64798 2.6516-1.1115z" opacity=".14431"/>
    <path id="path219521" d="m658.09 763.82c1.8644 12.087-0.67446 18.042 0.16185 26.716l-4.6248 2.2008 1.7474-31.629 0.42435-1.2348c7.4189 6.9235 4.7018 2.5218 2.2913 3.9474z" opacity=".14431"/>
    <path id="path219523" d="m663.76 756.77-0.48841 13.56 4.0666 27.584-3.5782-41.144" opacity=".14431"/>
    <path id="path219525" d="m670.93 792.55-0.72069 2.3711-4.9746-36.353 1.9675-1.1977c-1.4963 1.3768 2.6573 22.77 3.7277 35.179z" opacity=".14431"/>
    <path id="path222030" d="m663.36 752.82c-0.58515 0.0375-1.0439 0.34261-1.3594 0.86328-0.63099 1.0413-0.76879 2.9291-0.66992 5.6094 0.26206 7.1044-0.23428 17.562 1.9878 35.169 0.0568 0.44984 0.0273 4.7394 0.0869 5.1954 0.18078-0.63809-0.13385-3.6213 0.35136-3.8718-2.3923-18.288-1.8913-29.206-2.1604-36.502-0.0983-2.6657 0.0667-4.5319 0.63086-5.4629 0.28206-0.46551 0.64352-0.70191 1.1504-0.73438 0.50686-0.0325 1.1697 0.15648 2 0.59766l0.12304-0.23438c-0.85371-0.4536-1.5555-0.66639-2.1406-0.6289z" color="#000000" opacity=".41057" style="-inkscape-stroke:none"/>
    <path id="path223517" d="m655.04 756.58c-3.6526 1.4755-4.5003 25.291-6.7504 37.937" fill="none" opacity=".35569" stroke="#000" stroke-width=".26458px"/>
    <path id="path223787" d="m665.41 815.46c0.27759 11.193 9.7217 25.527 6.5255 34.778l-0.45384 1.0511 6.0728-4.9457c-3.5865 1.4576-8.0163-18.551-12.145-30.884z" opacity=".10772"/>
   </g>
  </g>
 </g>
</svg>
