<?xml version="1.0" encoding="UTF-8"?>
<svg id="svg5" width="1200mm" height="1200mm" version="1.1" viewBox="0 0 1200 1200" xmlns="http://www.w3.org/2000/svg" xmlns:xlink="http://www.w3.org/1999/xlink">
 <defs id="defs77">
  <filter id="filter4442" x="-.45486" y="-.37252" width="1.9097" height="1.745" color-interpolation-filters="sRGB">
   <feGaussianBlur id="feGaussianBlur7-68" stdDeviation="2.3503786"/>
  </filter>
  <filter id="filter4450" x="-.3669" y="-.4686" width="1.7338" height="1.9372" color-interpolation-filters="sRGB">
   <feGaussianBlur id="feGaussianBlur13-57" stdDeviation="2.3503786"/>
  </filter>
  <filter id="filter4454" x="-.36442" y="-.47541" width="1.7288" height="1.9508" color-interpolation-filters="sRGB">
   <feGaussianBlur id="feGaussianBlur16-5" stdDeviation="2.3503786"/>
  </filter>
  <filter id="filter4446" x="-.4795" y="-.36303" width="1.959" height="1.7261" color-interpolation-filters="sRGB">
   <feGaussianBlur id="feGaussianBlur10-88" stdDeviation="2.3503786"/>
  </filter>
  <filter id="filter4442-3" x="-.45486" y="-.37252" width="1.9097" height="1.745" color-interpolation-filters="sRGB">
   <feGaussianBlur id="feGaussianBlur19-5" stdDeviation="2.3503786"/>
  </filter>
  <filter id="filter4450-0" x="-.3669" y="-.4686" width="1.7338" height="1.9372" color-interpolation-filters="sRGB">
   <feGaussianBlur id="feGaussianBlur28-1" stdDeviation="2.3503786"/>
  </filter>
  <filter id="filter4454-5" x="-.36442" y="-.47541" width="1.7288" height="1.9508" color-interpolation-filters="sRGB">
   <feGaussianBlur id="feGaussianBlur22-0" stdDeviation="2.3503786"/>
  </filter>
  <filter id="filter4446-3" x="-.4795" y="-.36303" width="1.959" height="1.7261" color-interpolation-filters="sRGB">
   <feGaussianBlur id="feGaussianBlur25-7" stdDeviation="2.3503786"/>
  </filter>
  <linearGradient id="linearGradient14972" x1="123.66" x2="114.77" y1="91.869" y2="114.29" gradientTransform="matrix(4.1461 0 0 4.1461 114.5 46.945)" gradientUnits="userSpaceOnUse">
   <stop id="stop8" offset="0"/>
   <stop id="stop10" stop-opacity="0" offset="1"/>
  </linearGradient>
 </defs>
 <g id="layer60" transform="translate(19.4 11.241)">
  <g id="layer45">
   <g id="layer113">
    <path id="path33-51" d="m649.39 535.85c-0.73374-0.13018-2.7748-0.49218-4.5358-0.80413-4.1714-0.73904-11.364-3.7855-15.789-6.6868-4.5259-2.9681-10.949-9.7018-13.733-14.397-15.623-26.349-1.7877-59.936 27.92-67.776 5.1345-1.3554 17.234-1.388 22.081-0.0597 10.443 2.8628 18.419 8.0306 24.893 16.128 11.639 14.559 12.994 34.973 3.4194 51.519-2.5395 4.389-8.1653 10.504-12.529 13.618-4.2137 3.0068-11.165 6.2494-15.877 7.4066-3.5659 0.87544-13.232 1.5172-15.85 1.0524zm-170.76-14.119c-9.7209-1.1919-17.352-3.3406-25.434-7.1615-20.589-9.7338-36.248-28.367-41.992-49.969-2.1-7.8991-2.6885-12.444-2.6885-20.76 0-4.2555 0.30474-9.5385 0.67726-11.74 4.4243-26.145 19.601-46.743 43.235-58.671 4.9546-2.501 15.021-5.7228 21.133-6.7639 7.0102-1.194 19.084-1.2039 26.007-0.0207 29.998 5.1241 54.811 27.532 62.498 56.436 2.1 7.8991 2.6885 12.444 2.6885 20.76 0 21.41-7.7001 40.011-22.878 55.263-11.767 11.826-26.124 19.242-42.406 21.906-6.0433 0.98884-15.87 1.3275-20.839 0.71822z" fill="url(#linearGradient14972)" stroke-width="4.1461"/>
    <g id="g73" transform="matrix(4.1461 0 0 4.1461 114.5 46.945)" fill="#fffcfc">
     <path id="path35-7" d="m89.335 96.351s-9.1929-9.6884-7.0108-14.639c0.96898-2.1985 4.9646-3.5134 6.8987-2.0881 4.4887 3.3079 0.11213 16.727 0.11213 16.727z" fill-opacity=".99763"/>
     <path id="path37-9" d="m89.335 96.351s1.0836-13.312 6.2275-14.989c2.2842-0.745 5.9294 1.3541 6.158 3.7457 0.53067 5.5506-12.385 11.244-12.385 11.244z" fill-opacity=".42915" filter="url(#filter4442)"/>
     <g id="g53-7" fill-opacity=".42915">
      <path id="path39-46" d="m89.335 96.351s13.34 0.64496 15.186 5.7308c0.81977 2.2584-1.1582 5.9707-3.541 6.278-5.5301 0.71306-11.645-12.009-11.645-12.009z" filter="url(#filter4450)"/>
      <path id="path41-74" d="m89.335 96.351s-13.348-0.44054-15.272-5.4975c-0.85427-2.2456 1.0666-5.9877 3.4445-6.3315 5.5186-0.79768 11.828 11.829 11.828 11.829z" filter="url(#filter4454)"/>
      <path id="path43-8" d="m89.335 96.351s-0.32172 13.352-5.3613 15.321c-2.2379 0.87422-5.997-1.0133-6.3619-3.388-0.84677-5.5113 11.723-11.933 11.723-11.933z" filter="url(#filter4446)"/>
      <path id="path45-8" transform="matrix(.49064 0 0 .62802 81.262 41.174)" d="m99.77 105.41s1.0836-13.312 6.2275-14.989c2.2842-0.745 5.9294 1.3541 6.158 3.7457 0.53067 5.5506-12.385 11.244-12.385 11.244z" filter="url(#filter4442-3)"/>
      <path id="path47-94" transform="matrix(.49064 0 0 .62802 81.262 41.174)" d="m99.77 105.41s13.34 0.64497 15.186 5.7308c0.81977 2.2584-1.1582 5.9707-3.541 6.278-5.5302 0.71306-11.645-12.009-11.645-12.009z" filter="url(#filter4450-0)"/>
      <path id="path49-0" transform="matrix(.49064 0 0 .62802 81.262 41.174)" d="m99.77 105.41s-13.348-0.44053-15.272-5.4975c-0.85427-2.2456 1.0666-5.9877 3.4445-6.3315 5.5186-0.79768 11.828 11.829 11.828 11.829z" filter="url(#filter4454-5)"/>
      <path id="path51-8" transform="matrix(.49064 0 0 .62802 81.262 41.174)" d="m99.77 105.41s-0.32172 13.352-5.3613 15.321c-2.2379 0.87422-5.997-1.0133-6.3619-3.388-0.84677-5.5113 11.723-11.933 11.723-11.933z" filter="url(#filter4446-3)"/>
     </g>
     <g id="g61" fill-opacity=".99763">
      <path id="path55-1" d="m89.335 96.351s9.7886-9.0861 14.715-6.8499c2.1878 0.99303 3.4588 5.0028 2.0123 6.9212-3.3569 4.4522-16.728-0.07126-16.728-0.07126z"/>
      <path id="path57-3" d="m89.335 96.351s8.9645 9.9001 6.6675 14.799c-1.02 2.1753-5.0451 3.3967-6.9455 1.9266-4.4104-3.4117 0.27796-16.725 0.27796-16.725z"/>
      <path id="path59-58" d="m89.335 96.351s-9.7538 9.1235-14.689 6.9061c-2.1916-0.98464-3.4779-4.9895-2.0388-6.9134 3.3399-4.465 16.728 0.0072 16.728 0.0072z"/>
     </g>
     <g id="g71-1" fill-opacity=".98785">
      <path id="path63-93" d="m130.21 107.38s-5.301-5.5867-4.0427-8.4416c0.55874-1.2678 2.8628-2.026 3.978-1.2041 2.5884 1.9075 0.0646 9.6457 0.0646 9.6457z"/>
      <path id="path65-62" d="m130.21 107.38s5.6445-5.2394 8.4854-3.9499c1.2616 0.57261 1.9944 2.8848 1.1604 3.991-1.9358 2.5673-9.6458-0.0411-9.6458-0.0411z"/>
      <path id="path67-7" d="m130.21 107.38s5.1693 5.7088 3.8448 8.5336c-0.58816 1.2544-2.9092 1.9587-4.005 1.111-2.5432-1.9673 0.16028-9.6446 0.16028-9.6446z"/>
      <path id="path69-8" d="m130.21 107.38s-5.6244 5.261-8.4703 3.9824c-1.2637-0.56779-2.0055-2.8772-1.1756-3.9865 1.9259-2.5747 9.6459 3e-3 9.6459 3e-3z"/>
     </g>
    </g>
    <circle id="circle75" cx="484.7" cy="446.03" r="12.217" fill="#eff0d5" fill-opacity=".56275" fill-rule="evenodd" opacity=".468" stroke-width="2.4876"/>
   </g>
  </g>
 </g>
</svg>
