<?xml version="1.0" encoding="UTF-8"?>
<svg width="1200mm" height="1200mm" version="1.1" viewBox="0 0 1200 1200" xmlns="http://www.w3.org/2000/svg" xmlns:xlink="http://www.w3.org/1999/xlink">
 <defs>
  <filter id="filter8667" x="-.023122" y="-.0078975" width="1.0462" height="1.0158" color-interpolation-filters="sRGB">
   <feGaussianBlur stdDeviation="0.073773287"/>
  </filter>
  <filter id="filter66628-2" x="-.019057" y="-.0072377" width="1.0381" height="1.0145" color-interpolation-filters="sRGB">
   <feGaussianBlur stdDeviation="0.14670313"/>
  </filter>
  <linearGradient id="linearGradient3198-7" x1="52.914" x2="158.63" y1="87.424" y2="87.424" gradientTransform="translate(-.28257 -.47617)" gradientUnits="userSpaceOnUse">
   <stop stop-opacity=".21862" offset="0"/>
   <stop stop-color="#402412" stop-opacity="0" offset="1"/>
  </linearGradient>
  <filter id="filter66628-6" x="-.032012" y="-.0081386" width="1.064" height="1.0163" color-interpolation-filters="sRGB">
   <feGaussianBlur stdDeviation="0.14670313"/>
  </filter>
  <filter id="filter65283-6" x="-.030131" y="-.012842" width="1.0603" height="1.0257" color-interpolation-filters="sRGB">
   <feGaussianBlur stdDeviation="0.37262907"/>
  </filter>
  <filter id="filter25160-9" x="-.029955" y="-.031092" width="1.0599" height="1.0622" color-interpolation-filters="sRGB">
   <feGaussianBlur stdDeviation="0.047869003"/>
  </filter>
  <filter id="filter25164-5" x="-.023847" y="-.072244" width="1.0477" height="1.1445" color-interpolation-filters="sRGB">
   <feGaussianBlur stdDeviation="0.047869003"/>
  </filter>
  <filter id="filter25168-4" x="-.029594" y="-.046345" width="1.0592" height="1.0927" color-interpolation-filters="sRGB">
   <feGaussianBlur stdDeviation="0.047869003"/>
  </filter>
  <filter id="filter25140-7" x="-.022331" y="-.024991" width="1.0447" height="1.05" color-interpolation-filters="sRGB">
   <feGaussianBlur stdDeviation="0.047869003"/>
  </filter>
  <filter id="filter25144-5" x="-.022267" y="-.029619" width="1.0445" height="1.0592" color-interpolation-filters="sRGB">
   <feGaussianBlur stdDeviation="0.047869003"/>
  </filter>
  <filter id="filter25148-8" x="-.041852" y="-.028948" width="1.0837" height="1.0579" color-interpolation-filters="sRGB">
   <feGaussianBlur stdDeviation="0.047869003"/>
  </filter>
  <filter id="filter25152-1" x="-.017224" y="-.056427" width="1.0374" height="1.1187" color-interpolation-filters="sRGB">
   <feGaussianBlur stdDeviation="0.047869003"/>
  </filter>
  <filter id="filter25136-0" x="-.040396" y="-.0068998" width="1.0842" height="1.0155" color-interpolation-filters="sRGB">
   <feGaussianBlur stdDeviation="0.1605801"/>
  </filter>
  <filter id="filter25176-3" x="-.043135" y="-.018346" width="1.0837" height="1.0383" color-interpolation-filters="sRGB">
   <feGaussianBlur stdDeviation="0.047869003"/>
  </filter>
  <filter id="filter25156-9" x="-.023558" y="-.0031682" width="1.0379" height="1.0063" color-interpolation-filters="sRGB">
   <feGaussianBlur stdDeviation="0.047869003"/>
  </filter>
  <filter id="filter48371-3-3-0" x="-.3762" y="-.11261" width="1.7524" height="1.2252" color-interpolation-filters="sRGB">
   <feGaussianBlur stdDeviation="1.2069309"/>
  </filter>
  <filter id="filter529345" x="-.0023717" y="-.0010419" width="1.0047" height="1.0021" color-interpolation-filters="sRGB">
   <feGaussianBlur stdDeviation="0.38609469"/>
  </filter>
  <linearGradient id="linearGradient304492" x1="96.445" x2="123.34" y1="230.35" y2="230.35" gradientTransform="matrix(4.1461 0 0 4.1461 133.02 57.304)" gradientUnits="userSpaceOnUse">
   <stop offset="0"/>
   <stop stop-opacity="0" offset=".53219"/>
   <stop stop-opacity=".40486" offset="1"/>
  </linearGradient>
  <linearGradient id="linearGradient306715" x1="66.534" x2="133.42" y1="187.58" y2="187.71" gradientTransform="matrix(4.134 0 0 4.1461 115.52 46.946)" gradientUnits="userSpaceOnUse" xlink:href="#linearGradient3198-7"/>
  <linearGradient id="linearGradient306717" x1="66.534" x2="133.42" y1="187.58" y2="187.71" gradientTransform="matrix(3.6787 0 0 4.1461 176.72 46.946)" gradientUnits="userSpaceOnUse" xlink:href="#linearGradient3198-7"/>
  <linearGradient id="linearGradient306719" x1="102.58" x2="103.75" y1="182.6" y2="182.6" gradientTransform="translate(.62275 .13839)" gradientUnits="userSpaceOnUse" xlink:href="#linearGradient3198-7"/>
  <linearGradient id="linearGradient306721" x1="102.24" x2="103.41" y1="166.21" y2="166.21" gradientTransform="translate(.62275 .13839)" gradientUnits="userSpaceOnUse" xlink:href="#linearGradient3198-7"/>
  <linearGradient id="linearGradient306723" x1="102.03" x2="103.2" y1="198.04" y2="198.04" gradientTransform="translate(.62275 .13839)" gradientUnits="userSpaceOnUse" xlink:href="#linearGradient3198-7"/>
 </defs>
 <g transform="translate(19.4 11.241)">
  <g transform="translate(-9.3103e-6 .00033395)" fill="none" stroke="#000"></g>
  <g transform="matrix(4.1461 0 0 4.2539 312.56 54.726)" fill="#382e85" fill-opacity=".99763">
   <path d="m49.027 184.87c-0.62775-0.30974 1.0308-15.588 5.3882-40.191 0.12756-0.81753-7.2713 20.261-7.127 19.314 0.12173-0.79863-5.2827-0.69888-4.6992-3.0381 0.93854-3.7627 4.7033-17.479 9.4848-24.959 1.1581-1.8118 2.0608-3.048 4.0278-5.0596 1.1458-1.0073 1.7876-0.77852 1.7876-0.77852l5.5934-0.31303c1.2234-0.10501 4.122 1.3795 6.9069 5.1249 3.1035 4.1739 5.5151 15.37 8.8643 23.38-0.79617 1.5947-3.4474 2.8842-4.87 3.8178-0.56973-0.47523-5.6089-18.665-5.4997-18.062 3.7502 20.711 4.3157 39.054 4.1296 40.005-4.4478 0.83025-20.063 1.1248-23.987 0.76006z" fill="#fff" fill-opacity=".99763" stroke="#000" stroke-width=".71478"/>
  </g>
  <path transform="matrix(.26458 0 0 .26458 -19.4 -11.241)" d="m2270.5 2334.1-139.51 4.416-21.639 20.73 0.8965 1.5547 6.6445 12.44c-93.214 115.72-130.63 277.41-190.32 417.92l-17.881 57.527 17.287 15.32c1.274-23.62 10.536-43.299 23.545-63.053 3.9959-3.2376-16.99-13.941-16.99-13.941l13.272 3.2168c54.558-126.33 83.756-259.31 173.16-384.31 1.8661 6.9772 3.5052 14.233 4.3906 22.498 0.7663 7.1393 0.9692 15.033 0.2734 24.146l21.768-32.652c-2.7015 250.33-27.752 500.66-43.488 751-38.963 6.7226-47.979-68.004-44.057-163.89 0.1572-3.8434 10.034-126.42 15.885-195.86-23.804 124.72-47.372 253.93-54.457 410.59l94.18 1.6816-8.834-10.596c13.774-264.12 32.106-507.63 33.209-785.68 0-8.1749-6.8526-20.775-7.8948-29.989 40.758-5.228 79.971-14.878 98.301-22.003l71.162 71.256-0.752-24.998-59.289-51.268c16.287-8.2908 25.949-18.381 37.572-31.424zm-196.77 477.05c14.933-78.241 29.959-154.72 41.07-235.09 0 0-6.1887-12.515-17.412-1.418-16.82 16.629-52.924 166.81-53.398 168.58 0 0 56.393-149.42 55.619-146.81-16.676 56.319-18.386 151.44-21.688 167.74-0.2957 1.4603-1.9763 20.708-4.1915 46.994zm73.004 369.16-3.3575 29.789-6.8984 11.916 151.23-2.3848-7.418-14.344z" filter="url(#filter529345)" opacity=".12797" stroke-width="15.67" style="mix-blend-mode:normal"/>
  <path d="m642.05 725.5c-6.9356 8.084-15.623 11.978-24.017 18.047 3.5853 6.38 5.5197 11.589 8.4991 16.114 4.5864-2.048 22.17-7.8734 23.317-18.321z" fill="#004370" stroke="#000" stroke-width="2.5463"/>
  <path transform="matrix(4.1461 0 0 4.1461 114.51 46.946)" d="m116.9 149.48 2.866 8.3338 3.0457 9.5196c0.67599 1.8023 0.58032 3.3069 1.7457 4.0948l-1.0618 0.47112-2.0499-3.8865 0.40579-0.78049z" filter="url(#filter8667)" opacity=".18892" style="mix-blend-mode:normal"/>
 </g>
 <g>
  <path d="m532.89 848.79 1.9022 263.47s0.0991 1.7181 0.36403 3.3598 1.8205 6.2764 1.8205 6.2764l-1.7609 49.054c8.441 3.7934 15.156 4.8526 24.161 4.4321l17.181-2.6455 2.5853-135.7 6.3947-133.63 12.096 130.06 0.0166 139.82c20.611 6.2884 29.908 2.1946 46.76-0.7997l-10.229-324.41s-11.332 0.68336-48.824 0.92176c-44.492 0.28276-52.469-0.20938-52.469-0.20938z" fill="url(#linearGradient304492)" opacity=".16938" stroke-width="1.6762"/>
  <g transform="matrix(4.1461 0 0 4.1461 132.54 58.188)" fill="#22577a" stroke="#000">
   <path d="m96.776 190.9 0.4588 63.546s0.0239 0.41441 0.08782 0.81037 0.4391 1.5138 0.4391 1.5138l-0.42472 11.832c2.0359 0.91495 3.6556 1.1704 5.8274 1.069l4.1439-0.63809 0.62356-32.73 1.5423-32.23 2.9174 31.37 4e-3 33.723c4.9711 1.5167 7.2136 0.52932 11.278-0.19289l-2.4672-78.245s-2.7333 0.16482-11.776 0.22232c-10.731 0.0682-11.63-0.0174-11.63-0.0174z" stroke-width=".40429"/>
   <g transform="translate(.2152 -.49518)">
    <g fill="#22577a" stroke-width=".26458px">
     <path d="m103.91 192.75s0.22989 5.2894-7.3734 3.1969"/>
     <path d="m113.62 192.56s-0.22989 5.2894 7.3734 3.1969"/>
     <path d="m108.15 191.64c0.01 9.218 0.0323 11.013 1.1271 11.42l-0.24568-11.515"/>
    </g>
    <path d="m109.31 200.51-0.16955 0.14616-0.0822 4.3513 0.42738-0.0197z" color="#000000" fill="#000" stroke="none" style="-inkscape-stroke:none"/>
    <path d="m96.609 192.57 11.343 0.10336h0.12919" fill="#22577a" stroke-width=".26458px"/>
    <path d="m109.11 192.6 11.834-0.41341" fill="#22577a" stroke-width=".26458px"/>
   </g>
  </g>
  <g>
   <path transform="matrix(4.1461 0 0 4.1461 133.91 58.187)" d="m108.61 203.54-3.3748 0.69482 2.7388 0.64597 0.14839 22.18 1.0167-22.992 2.6308 25.194-2.0001-24.667 3.1652-0.93017z" fill-opacity=".99763" filter="url(#filter48371-3-3-0)" opacity=".18567" stroke-width=".26458px" style="mix-blend-mode:normal"/>
   <g>
    <g stroke="#000" stroke-width=".26458px">
     <path transform="matrix(4.1461 0 0 4.1461 133.91 58.187)" d="m99.592 203.77c0.98966 3.5696 7.0712 8.0225 7.0712 8.0225s-5.0268-4.0312-7.2115-3.0179c-2.4404 1.1319 0.15365 8.0689 0.15365 8.0689-3.9976 2.6263-1.664 8.0705-0.33349 9.5994-0.22468 1.173-0.65868 4.069 0.33351 4.4941 3.5449 1.4365 0.41666 3.602 0.45964 3.6204 0 0-0.93322 0.45981-1.1693 0.88868-0.26411 0.47978-0.14032 1.637-0.14032 1.637s0.19298 0.77268 0.5145 0.8419c0.39964 0.086 2.3182-7e-3 2.3182-7e-3s-1.2159 0.74406-1.8698 1.1812c-0.57558 0.38478-0.69709 0.0846-1.165 0.59483-0.48466 0.52851-0.28613 1.3664-0.0227 1.9668 0.22838 0.52049 1.268 1.14 1.268 1.14s-1.2644 0.0224-1.6838 0.42095c-0.69719 0.66242-1.0649 1.8241-0.8419 2.7596 0.23239 0.97478 0.37694 1.4924 0.37694 1.4924 1.3722 0.79004 3.3799 2.9007 3.235 3.6948-0.0848 0.46461-1.9482-0.59634-3.0234-0.48642-0.79028 0.0808 0.90913 1.5559 1.5848 2.363 1.6271 1.9434 3.7472 3.7642 3.7472 3.7642-0.0666 0.33316-4.4268-4.2291-5.0046-3.6482-0.92151 0.92644-0.21028 3.962-0.21164 3.9601-0.71626 0.6418-0.87184-1.4781 0.87878 1.2883 1.2258 1.2966 2.5309 3.9924 5.4094 4.1146-3.5001 0.0743-4.1481-0.11197-5.8267 0.76198-0.82946 1.2442-0.52513 3.2125 0.45167 4.3276 1.8036 2.059 8.0876 1.4226 8.0876 1.4226-3.3013 0.93328-6.6259 0.75235-9.9713-0.4309-0.16052-3.095 0.3794-7.3013 0.41265-11.791 0.0045-0.60491-0.43644-1.3302-0.45843-1.9409-0.09113-2.5303 0.0088-5.0482-0.14679-7.3781-0.08236-1.2335 0.06086-0.38863 0.05345-1.5713l-0.04534-7.2357s0.0478-2.7909-0.08904-7.2044c0 0-0.05755-13.4-0.1091-15.88l-0.17834-24.701 2.5617-0.0429s-0.56618 8.7583 0.58465 12.909z" filter="url(#filter25156-9)" opacity=".18567" style="mix-blend-mode:normal"/>
     <path transform="matrix(4.1461 0 0 4.1461 133.91 58.187)" d="m104.97 219.94-2.4143-4.2003c0.80112 3.5606 3.1872 6.7338 5.6555 9.8557z" filter="url(#filter25176-3)" opacity=".18567" style="mix-blend-mode:normal"/>
     <path transform="matrix(4.1461 0 0 4.1461 133.91 58.187)" d="m112.06 235.44c-0.73341 5.9492 0.59809 22.731 0.0799 27.48-0.0257 0.23592 4.5002-0.77898 3.3987-1.5586-0.60055-0.42506-3.0828 0.24588-2.6735-2.6007 0 0-0.16027-1.5559 3.0888 0.49654 0.36161 0.22843-1.1866-1.18-0.9727-1.7554 0.29619-0.79663 1.2627-1.4615 1.5899-2.6704 0.2072-0.76559-1.6989-2.0904-1.5095-5.2658 0.18604-3.1197 0.69051-7.5531 1.5377-9.3685 0.29873-0.64009 1.5089-0.28858 1.5602-0.36118 0.46045-0.65128-1.7641-1.3154-3.0428-4.6076-0.34787-0.89565-0.50323-3.7621-0.66289-4.7382-0.46863-2.8652-1.3137-5.5647-1.103-6.0696 1.0446-2.5027 1.2898-5.2917 1.2898-5.2917-0.2463 1.1166-1.4781 2.0018-2.1412 2.2916 0.20322-1.3458 2.1079-4.5877 1.7112-6.2934 0.1077-1.3177-0.15315-5.4431 0.8599-6.6476-1.4111 1.3578-3.6412 3.3989-4.0018 1.9183l-1.9081-7.8352c-0.6748 2.8702-0.78323 5.7679-0.93614 8.6951l-1.7859-1.1245c1.9791 1.8591 1.5906 3.8498 2.1497 5.7878-0.39026-9.5182 0.70976-9.3298 0.70976-9.3298s1.8015 18.53 2.3224 23.59" filter="url(#filter25136-0)" opacity=".18567" style="mix-blend-mode:normal"/>
     <path transform="matrix(4.1461 0 0 -4.1461 133.91 2263.2)" d="m122.78 264.78c-3.9361 2.9688-7.1734 2.3595-9.7896 1.9844 1.9252 0.85563 2.9141 2.6724 5.2586 1.5875 0.22371-0.10352 4.531-3.5719 4.531-3.5719z" filter="url(#filter25152-1)" opacity=".18567" style="mix-blend-mode:normal"/>
    </g>
    <path transform="matrix(4.1461 0 0 4.1461 133.91 58.187)" d="m117.05 259.32 2.745-3.9688s-0.53703 1.425-0.95911 2.0505c-0.48867 0.72418-1.7859 1.9182-1.7859 1.9182z" filter="url(#filter25148-8)" opacity=".18567" style="mix-blend-mode:normal"/>
    <path transform="matrix(4.1461 0 0 4.1461 133.91 58.187)" d="m116.35 256.35s2.4009-3.415 4.2664-3.8364c0.30281-0.0684 0.89296 0.26458 0.89296 0.26458l-5.0602 3.605" filter="url(#filter25144-5)" opacity=".18567" style="mix-blend-mode:normal"/>
    <path transform="matrix(4.1461 0 0 4.1461 133.91 58.187)" d="m118.29 236.67c-0.45454 1e-3 -1.3744 0.16966-1.3744 0.16966 2.4351 1.4758 3.4836 2.9516 5.1447 4.4275 0 0-1.7885-4.6017-3.7703-4.5971z" filter="url(#filter25140-7)" opacity=".18567" style="mix-blend-mode:normal"/>
   </g>
   <path d="m538.01 1120.4-0.56793 2.6928c2.7186 2.8564 12.987 17.957 15.177 16.124-4.8698-5.5964-9.7397-11.76-14.61-18.817z" color="#000000" stroke-width="4.1461" style="-inkscape-stroke:none"/>
   <g>
    <path transform="matrix(4.1461 0 0 4.1461 133.91 58.187)" d="m106.27 234.94s-2.0789 0.48974-2.8999 1.1225c-0.44212 0.3408-0.98222 1.3564-0.98222 1.3564z" filter="url(#filter25168-4)" opacity=".18567" style="mix-blend-mode:normal"/>
    <path transform="matrix(4.1461 0 0 4.1461 133.91 58.187)" d="m104.49 238.44s-1.4902 0.10949-2.1983 0.3274c-0.92638 0.2851-2.6192 1.2628-2.6192 1.2628z" filter="url(#filter25164-5)" opacity=".18567" style="mix-blend-mode:normal"/>
    <path transform="matrix(4.1461 0 0 4.1461 133.91 58.187)" d="m107.06 255.66-3.695 3.695 3.8353-3.0402z" filter="url(#filter25160-9)" opacity=".18567" style="mix-blend-mode:normal"/>
   </g>
  </g>
 </g>
 <g transform="translate(19.4 11.241)">
  <path d="m473.43 762.85c-4.943 50.458-8.873 80.869-10.055 130.72l18.661-1.8662s19.212-112.98 26.412-137.02c-0.47328 9.4531 0.0419 27.885-3.2527 41.001-3.3994 34.215-5.6774 72.048-13.913 110.43 8.9088 12.224 34.819-6.2297 58.433-6.4186 0.27475-8.0239 1.8579-28.889 3.6443-54.487 4.023-57.647-8.0592-139.47-0.79165-234.67-4.372 0.26369-26.065 17.161-54.604 26.96-8.101 25.865-19.011 96.081-24.537 125.34z" fill="#22577a" stroke="#020200" stroke-width="2.3425"/>
  <path d="m473.4 762.85c-4.9286 50.458-8.8472 80.869-10.025 130.72l18.607-1.8662s19.156-112.98 26.335-137.02c-0.4719 9.4531 0.0418 27.885-3.2433 41.001-3.4487 39.171-4.7566 65.114-13.658 110.42 8.7139 9.9657 56.308-9.863 58.36-6.581 6.5696-17.169 0.611-23.689 3.4081-63.849 3.9985-57.411-8.07-130.6-0.87443-225.13-4.3593 0.26369-25.989 17.161-54.445 26.959-8.0774 25.865-18.955 96.081-24.465 125.34z" fill="url(#linearGradient306715)" opacity=".27971" stroke-width="4.14"/>
  <g transform="matrix(4.1461 0 0 4.1461 114.51 46.946)">
   <path transform="matrix(-1,0,0,1,183.34,-1.9687)" d="m87.829 161.23c0.59967 4.1804 0.62042 9.1532 2.0378 8.7767l0.77881 6.2064 4.9614 27.665 1.4615 2.3986-1.0394-0.0333-1.3308-1.0535-6.3059-32.393-0.0537 6.8915c2.008 9.8017 1.6055 18.35 3.9735 28.009 0.60854 4.9309-10.132 0.0124-13.719-0.42585 0.99288-7.8984 16.063 9.4696 7.4764-31.839 2.3791 0.28544 1.1769-9.4567 1.7591-14.202z" fill-opacity=".99763" filter="url(#filter66628-2)" opacity=".16234"/>
   <path d="m97.274 173.46-2.7266 6.457c-1.153 0.0371 1.7546-5.442 2.7266-6.457z" color="#000000" style="-inkscape-stroke:none"/>
   <path d="m92.851 145.58 1.6959 9.6684c-0.74712-2.808-2.0275-7.4702-1.6959-9.6684z" color="#000000" style="-inkscape-stroke:none"/>
   <path d="m89.805 162.25 2.2148 7.8867c-0.53046-0.76682-2.3857-6.8843-2.2148-7.8867z" color="#000000" style="-inkscape-stroke:none"/>
   <path d="m93.477 168.04 0.72657 4.498-0.29632 1.6345c0.0249-0.94593-0.51152-4.7424-0.43025-6.1325z" color="#000000" style="-inkscape-stroke:none"/>
   <path d="m91.188 171.74s0.80146 0.12284 1.4101 0.50391c-0.57462-0.022-0.95333-0.19859-1.4101-0.50391z" color="#000000" style="-inkscape-stroke:none"/>
  </g>
  <path d="m656.4 759.7c4.943 50.458 8.873 80.869 10.055 130.72l-18.661-1.8662s-19.212-112.98-26.412-137.02c0.47327 9.4531-0.0419 27.885 3.2527 41.001 5.2887 37.639 13.544 74.725 19.002 113-21.385 6.0001-32.857-5.5889-45.196-5.2968-4.677-71.356-10.712-155.73-21.179-292.83 4.372 0.26369 26.065 17.161 54.604 26.96 8.101 25.865 19.011 96.081 24.537 125.34z" fill="#22577a" stroke="#020200" stroke-width="2.3425"/>
  <path d="m657.53 759.7c4.3858 50.458 7.8728 80.869 8.9213 130.72l-16.558-1.8662s-17.046-112.98-23.435-137.02c0.41992 9.4531-0.0372 27.885 2.8861 41.001 7.1485 32.077 7.3817 75.421 14.68 113.72-6.2971 5.1703-39.925-6.1274-45.565-5.9701-4.1914-72.443-1.6399-152.51-11.149-292.87 3.8792 0.26369 23.127 17.161 48.449 26.96 7.1879 25.865 16.868 96.081 21.771 125.34z" fill="url(#linearGradient306717)" opacity=".17733" stroke-width="3.9054"/>
  <path d="m618.17 706.34c0.10366 17.32 0.66582 28.808 1.2147 36.238 0.27447 3.7149 0.54492 6.414 0.7531 8.3166 0.20813 1.9024 0.35573 3.0621 0.37231 3.4497l2.3403-0.10531c-0.029-0.67246-0.17455-1.7126-0.38061-3.5954-0.20606-1.8828-0.47278-4.5503-0.74501-8.2354-1.3849-6.6217-0.20896-27.785-3.5547-36.068z" color="#000000" stroke-width="4.1461" style="-inkscape-stroke:none"/>
  <path d="m511.75 706.55c-0.10366 17.32-0.66582 28.808-1.2147 36.238-0.27447 3.7149-0.54492 6.414-0.7531 8.3166-0.20813 1.9024-0.35573 3.0621-0.37231 3.4497l-2.3403-0.10531c0.029-0.67245 0.17455-1.7126 0.38061-3.5954 0.20606-1.8828 0.47278-4.5503 0.74501-8.2354 1.3849-6.6217 0.20896-27.785 3.5547-36.068z" color="#000000" stroke-width="4.1461" style="-inkscape-stroke:none"/>
  <path transform="matrix(4.1461 0 0 4.1461 114.51 46.946)" d="m121.78 160.82c0.59967 4.1804 0.59596 7.3673 2.0133 6.9908l0.77881 6.2064 4.9614 27.665 1.4615 2.3986-1.0394-0.0333-1.3308-1.0535-6.3059-32.393-0.0537 6.8915-2.2689-4.2559c2.3791 0.28544 1.2014-7.6708 1.7836-12.417z" fill-opacity=".99763" filter="url(#filter66628-6)" opacity=".16234"/>
  <g transform="matrix(4.1461 0 0 4.1461 114.51 46.946)" fill="none" stroke="#000" stroke-width=".26458px">
   <path d="m115.07 166.28 1.098 0.0203"/>
   <path d="m115.9 182.95h0.96873"/>
   <path d="m117.01 197.55 0.62695 4e-3"/>
  </g>
  <path d="m612.04 765.21 11.305 26.771c4.7804 0.15382-7.2747-22.563-11.305-26.771z" color="#000000" stroke-width="4.1461" style="-inkscape-stroke:none"/>
  <path d="m607.48 632-11.476 10.902c2.8115 4.86 8.0592 7.7092 15.457 11.221-1.6322 35.702-16.419 53.522-24.774 79.621-3.3677-42.145-6.0251-84.19-9.393-126.34 15.316 1.3416 23.175 11.695 30.185 24.594z" fill="#22577a" stroke="#000" stroke-width="2.3425"/>
  <g transform="matrix(4.1461 0 0 4.1461 114.51 46.946)">
   <path d="m124.42 145.35-1.6959 9.6684c0.74712-2.808 2.0275-7.4702 1.6959-9.6684z" color="#000000" style="-inkscape-stroke:none"/>
   <path d="m127.47 162.02-2.2148 7.8867c0.53046-0.76682 2.3857-6.8843 2.2148-7.8867z" color="#000000" style="-inkscape-stroke:none"/>
   <path d="m123.8 167.81-0.72657 4.498 0.29632 1.6345c-0.0249-0.94593 0.51152-4.7424 0.43025-6.1325z" color="#000000" style="-inkscape-stroke:none"/>
   <path d="m126.09 171.51s-0.80146 0.12284-1.4101 0.50391c0.57462-0.022 0.95333-0.19859 1.4101-0.50391z" color="#000000" style="-inkscape-stroke:none"/>
  </g>
  <path d="m524.68 632.37 9.1803 11.476c-2.8115 4.86-1.1737 8.8569-8.572 12.368 1.6322 35.702 17.567 51.229 25.921 77.329 3.3677-42.145-2.0077-83.042 1.3602-125.19-6.7708 1.8081-16.911-1.9119-27.89 24.019z" fill="#22577a" stroke="#000" stroke-width="2.3425"/>
  <g transform="matrix(4.1461 0 0 4.1461 114.51 46.948)" stroke="#000">
   <path d="m109.96 136.53 0.5858 54.243c-0.47221 0.0516-2.4666 0.12602-2.4666 0.12602l-0.4121-54.593" fill="none" stroke-width=".565"/>
   <path d="m103.69 135.2 4.4618 0.52634 1.6305-0.032c0.87499-0.40253 3.0161 0.10576 2.8104-0.77713-0.46578 0.46775-6.121 0.73723-8.903 0.28279z" stroke-width=".26458px"/>
   <g fill="#fff" fill-opacity=".99763" stroke-linejoin="round">
    <path d="m114.38 140.49-5.5967-4.8394c0.999 0.0437 1.8872-0.26591 3.8094-0.73339l2.4351 1.5213c0.20474 0.16379-0.76482 1.5181-0.64778 4.0514z" stroke-width=".565"/>
    <path d="m103.94 141.19 4.8515-5.5417c-1.75-0.0561-3.6585 0.0988-5.0932-0.44449l-1.3808 1.3229c-0.0267 0.0382 1.6225 3.3804 1.6225 4.6633z" stroke-width=".56511"/>
   </g>
   <g fill="none" stroke-linejoin="round" stroke-width=".165">
    <circle cx="109.21" cy="186.43" r=".51449"/>
    <circle cx="109.17" cy="179.02" r=".51449"/>
    <circle cx="109.07" cy="171.42" r=".51449"/>
    <circle cx="109.11" cy="162.92" r=".51449"/>
    <circle cx="109.01" cy="155.08" r=".51449"/>
    <circle cx="108.94" cy="146.88" r=".51449"/>
    <circle cx="108.88" cy="138.64" r=".51449"/>
   </g>
  </g>
  <g transform="matrix(4.1461 0 0 4.1461 114.51 46.946)">
   <path d="m87.54 167.64c-1.7595 9.3173-3.7938 31.649-3.7938 31.649l0.86872 5.5624 0.90144-0.082-0.63207-5.1092s1.4068-17.491 3.9702-30.899c1.8314-9.5794 2.2514-16.193 4.6607-19.365 4.0776-3.0169 13.775-7.3702 17.578-10.399 1.0207-0.81284 2.3838-2.6584 2.3327-3.2289-0.0878-0.97992-2.8518-0.39852-7.8856-0.25138-2.2297-0.26333-2.8562 0.94459-4.11 1.7586-2.6955 1.75-6.9814 3.3547-8.8123 5.035-1.2071 4.1902-5.0782 19.217-5.0782 25.329z" filter="url(#filter65283-6)" opacity=".16088" style="mix-blend-mode:normal"/>
   <g stroke="#000" stroke-linejoin="round" stroke-width=".11976">
    <ellipse cx="103.79" cy="182.74" rx=".52276" ry=".49952" fill="url(#linearGradient306719)"/>
    <ellipse cx="103.45" cy="166.34" rx=".52276" ry=".49952" fill="url(#linearGradient306721)"/>
    <ellipse cx="103.24" cy="198.17" rx=".52276" ry=".49952" fill="url(#linearGradient306723)"/>
   </g>
  </g>
 </g>
</svg>
