<?xml version="1.0" encoding="UTF-8"?>
<svg id="svg5" width="1200mm" height="1200mm" version="1.1" viewBox="0 0 1200 1200" xmlns="http://www.w3.org/2000/svg" xmlns:xlink="http://www.w3.org/1999/xlink">
 <g id="layer60" transform="translate(19.4 11.241)">
  <g id="layer214">
   <g id="layer210" transform="translate(-19.4 -11.241)">
    <path id="path10520" d="m729.06 723.94c-7.5923 0-14.41 3.8221-17.6 9.5642 5.4501 5.0059-0.69409 5.803-1.9096 7.3226 0 9.5829 9.0144 16.885 19.51 16.885s19.508-7.3018 19.508-16.885-9.0125-16.887-19.508-16.887zm0 5.752c7.8765 0 13.756 5.2431 13.756 11.135s-5.8794 11.133-13.756 11.133c-6.8601 0-11.503-4.21-12.587-9.189-8.0556-0.79031 0.3159-8.124 1.9684-8.8861 2.0094-3.3264 5.2492-4.1925 10.619-4.1925z" color="#000000" fill="#fff" fill-rule="evenodd" stroke="#000" stroke-linecap="round" stroke-linejoin="round" style="paint-order:fill markers stroke"/>
    <path id="path10284" d="m724.82 716.76-0.30859 49.527c11.749 7.4657 30.138 7.2131 42.276-0.15428l0.22446-49.368z" fill="#fff" stroke="#000" style="paint-order:fill markers stroke"/>
    <ellipse id="path9977" cx="745.91" cy="716.43" rx="21.112" ry="4.3143" fill="#fff" fill-rule="evenodd" stroke="#000" stroke-linecap="round" stroke-linejoin="round" stroke-width="1.0073" style="paint-order:fill markers stroke"/>
    <path id="path12580" d="m746.86 715.8s-7.3513-6.3546-7.7642-10.758c-0.56255-5.9998 7.4886-10.347 7.6706-16.37 0.12768-4.225-4.6772-11.787-4.6772-11.787 4.042 4.8021 14.659 6.0066 11.693 11.506 0 0-8.9005 11.141-9.6351 17.867-0.35898 3.287 2.7128 9.5415 2.7128 9.5415z" fill="#fff" opacity=".48171"/>
    <path id="path12580-2" d="m741.49 689.42s-4.9645-6.0085-5.1908-8.4217c-0.30832-3.2883 4.2041-8.9721 4.2041-8.9721-2.9779 7.4397-0.95814 12.349 0.9867 17.394z" fill="#fff" opacity=".48171"/>
    <path id="path12580-2-2" d="m752.3 702.71c-0.07-2.3156 2.5635-6.46 2.5635-6.46-2.2153 2.6319-8.034 3.2921-6.4087 6.3061 0 0 4.691 6.48 5.0937 10.167 2.2638-5.3031-0.97831-6.5213-1.2485-10.013z" fill="#fff" opacity=".48171"/>
    <path id="ellipse14534" d="m764.63 717.87c-0.67221 0.39681-6.93 2.4378-18.59 2.4378s-16.771-1.6867-18.34-2.223c1.0812-1.0408 7.0713-2.0458 18.274-2.1392 11.659-0.0971 15.765 0.5748 18.656 1.9244z" fill="#5a3300" fill-rule="evenodd" style="paint-order:fill markers stroke"/>
   </g>
  </g>
 </g>
</svg>
