<?xml version="1.0" encoding="UTF-8"?>
<svg id="svg5" width="1200mm" height="1200mm" version="1.1" viewBox="0 0 1200 1200" xmlns="http://www.w3.org/2000/svg" xmlns:xlink="http://www.w3.org/1999/xlink">
 <g id="layer60" transform="translate(19.4 11.241)">
  <g id="layer214">
   <g id="layer209" transform="translate(-19.4 -11.241)">
    <path id="path23595" d="m834.52 281.12s-95.854 290.23-121.7 450.26c-0.21583 2.0429-1.0371 6.457-1.0371 6.457 1.8586 2.8621 0.46809 5.779-1.7756 7.4843-36.79 180.47-43.164 433.57-43.164 433.57l4.998 0.1387s6.4366-253.85 43.066-433.53c-0.95195-8.1854-0.40202-9.8279 2.6614-12.406 33.324-157.88 121.73-450.53 121.73-450.53-0.88146-2.4193-1.8223-4.6774-4.7852-1.4473z" color="#000000" style="-inkscape-stroke:none"/>
    <path id="path9185" d="m671.61 1047.2 8.0561 0.9668-2.9002 130.19c-6.4834 4.501-12.61 2.042-15.145 0.3223z" stroke="#000" stroke-width=".26458px"/>
    <path id="path9585" d="m671.45 1045.2-0.56391 6.7268c2.7779 1.5005 6.281 0.9452 8.8616 0.4431l0.48338-6.8879c-3.1419 0.8134-5.6392 0.3825-8.7811-0.282z" fill="#9c9c9c" stroke="#000" stroke-width=".26458px"/>
    <path id="path10369" d="m671.49 1045.1 6.4823-63.326 6.217 0.27023-3.9613 63.614c-3.3189 0.8293-6.0078 0.084-8.738-0.5591z" stroke="#000" stroke-width=".26458px"/>
    <path id="path10822" d="m696.65 1008.5c-3.5258-0.029-7.2388 2.5376-8.3225 8.1065-0.50975 2.5548-1.0215 9.0259-2.0544 11.762-0.53959 1.4291-4.5114 0.8056-4.5114 0.8056l-0.88625 5.8813s4.5169 0.1335 4.592 1.7725c0.0893 1.9503-0.0236 3.6231-0.0806 4.4308-0.71779 10.152 14.61 10.768 15.951 0.5638 0.25652-1.4258 0.88644-5.8004 0.88644-5.8004l5.0751 1.9332-0.32195 6.1227c0.95978 2.101 2.2958 1.7321 3.1419 0.4836l0.40256-9.0232-8.3421-0.7219 1.6956-17.887c0.0686-5.4253-3.4722-8.398-7.2254-8.4289zm-0.0214 0.4933c0.90289 0.01 2.711 0.2789 3.4606 0.6852 2.1144 1.1457 3.5973 4.6104 3.4242 7.2103-0.37555 5.6399-1.4102 12.97-1.4102 12.97l-13.333-1.5709-1.8529-0.121s0.91498-7.6115 2.0141-12.89c0.43466-2.0875 2.0047-4.3305 3.8268-5.4379 1.0649-0.6473 2.5504-0.859 3.87-0.8461z" stroke="#000" stroke-width=".26458px"/>
    <path id="path14793" d="m689.91 1016.5-1.6805 11.656 12.8 1.3229 1.3944-11.942z" fill="#fbfbfb" stroke="#000" stroke-width=".23486px"/>
    <path id="path14795" d="m690.01 1015.8-0.38243 0.7711 12.981 1.1121-0.15019-0.7047c-4.381-5.4495-10.207-3.4455-12.448-1.1785z" fill="#9c9c9c" stroke="#000" stroke-width=".23486px"/>
    <path id="path19555" d="m689.83 1017.2 9.3651 0.9761" fill="none" stroke="#000" stroke-width=".24506px"/>
    <path id="path19557" d="m702.05 1020.2-10.842-1.1608" fill="none" stroke="#000" stroke-width=".24506px"/>
    <path id="path19559" d="m688.96 1022.8 11.792 1.4246" fill="none" stroke="#000" stroke-width=".24506px"/>
    <path id="path19561" d="m690.91 1021 9.0222 1.0289" fill="none" stroke="#000" stroke-width=".24506px"/>
    <path id="path19563" d="m697.22 1020.7 4.8276 0.5803" fill="none" stroke="#000" stroke-width=".24506px"/>
    <path id="path19565" d="m688.67 1025.7c0.50121 0 6.2522 0.6332 6.2522 0.6332" fill="none" stroke="#000" stroke-width=".24506px"/>
    <path id="path19567" d="m693.61 1024.7 7.7823 1.0288" fill="none" stroke="#000" stroke-width=".24506px"/>
    <path id="path19569" d="m701.02 1028.8c-0.50122-0.026-9.2332-1.0816-9.2332-1.0816" fill="none" stroke="#000" stroke-width=".24506px"/>
    <path id="path19992" d="m689.66 1018.1c-1.9991-31.828 6.3215-98.356 8.1536-129.89 2.6053-44.843 11.974-86.226 19.802-128.27 15.575-83.654 35.317-159.39 58.636-240.71 11.093-38.682 22.648-79.907 33.979-120.82 10.886-39.31 24.677-74.487 32.893-114.82l-141.05 596.42" fill="none" stroke="#000" stroke-width=".26458px"/>
    <path id="path20160-5" d="m687.22 888.14 6.5254 0.32224v-0.80561l-6.5254-0.1611z" fill="#9c9c9c" stroke="#000" stroke-width=".26458px"/>
    <path id="path20162-9" d="m693.83 888.06c1.8394 0.0856 3.9238 0.87187 5.5074 0.27538 0.0941-0.0354-5.286-0.43133-5.598-0.31565" fill="none" stroke="#000" stroke-width=".26458px"/>
    <path id="path20160-0" d="m706.39 759.82 6.5254 0.32224v-0.80561l-6.5254-0.1611z" fill="#9c9c9c" stroke="#000" stroke-width=".26458px"/>
    <path id="path20162-2" d="m712.99 759.74c1.8394 0.0856 3.9238 0.87187 5.5074 0.27538 0.0941-0.0354-5.286-0.43133-5.598-0.31565" fill="none" stroke="#000" stroke-width=".26458px"/>
    <path id="path20160-4" d="m735.44 632.79 6.5254 0.32224v-0.80561l-6.5254-0.1611z" fill="#9c9c9c" stroke="#000" stroke-width=".26458px"/>
    <path id="path20162-5" d="m742.05 632.7c1.8394 0.0856 3.9238 0.87187 5.5074 0.27538 0.0941-0.0354-5.286-0.43133-5.598-0.31565" fill="none" stroke="#000" stroke-width=".26458px"/>
    <path id="path20160-6" d="m765.4 518.97 6.5254 0.32224v-0.80561l-6.5254-0.1611z" fill="#9c9c9c" stroke="#000" stroke-width=".26458px"/>
    <path id="path20162-25" d="m772.01 518.89c1.8394 0.0856 3.9238 0.87187 5.5074 0.27538 0.0941-0.0354-5.286-0.43133-5.598-0.31565" fill="none" stroke="#000" stroke-width=".26458px"/>
    <path id="path20160-1" d="m799.47 398.09 6.5254 0.32224v-0.80561l-6.5254-0.1611z" fill="#9c9c9c" stroke="#000" stroke-width=".26458px"/>
    <path id="path20162-91" d="m806.08 398.01c1.8394 0.0856 3.9238 0.87187 5.5074 0.27538 0.0941-0.0354-5.286-0.43133-5.598-0.31565" fill="none" stroke="#000" stroke-width=".26458px"/>
    <path id="path20160-9" d="m833.61 282.05 5.9406 1.487 0.13435-0.79503-5.9674-1.328z" fill="#9c9c9c" stroke="#000" stroke-width=".25603px"/>
    <path id="path20162-3" d="m839.69 283.15c1.6754 0.414 3.459 1.5634 5.0132 1.2584 0.0923-0.0181-4.7838-1.3726-5.0898-1.3144" fill="none" stroke="#000" stroke-width=".25603px"/>
    <path id="path20160" d="m677.89 981.52 6.5254 0.32224v-0.80561l-6.5254-0.1611z" fill="#9c9c9c" stroke="#000" stroke-width=".26458px"/>
    <path id="path20162" d="m684.5 981.44c1.8394 0.0856 3.9238 0.87187 5.5074 0.27538 0.0941-0.0354-5.286-0.43133-5.598-0.31565" fill="none" stroke="#000" stroke-width=".26458px"/>
    <path id="path26232" d="m702.14 879.62s0.63635 9.8512-2.8229 11.288c-1.0748 0.44646-2.3332-1.1095-2.6159-2.2386-0.36167-1.4446 1.4218-2.9548 2.7925-3.4872-1.2928 1.5594-1.7264 2.4082-0.97316 3.2528 2.4992 1.3051 2.6899-7.1064 3.6111-8.7758z" fill="#9c9c9c" stroke="#000" stroke-width=".070004px"/>
    <path id="path28791" d="m693.82 888.03c1.7992 0.23525 3.5983 0.97775 5.3974 0.35603" fill="none" stroke="#000" stroke-width=".26458px"/>
   </g>
  </g>
 </g>
</svg>
