<?xml version="1.0" encoding="UTF-8"?>
<svg id="svg5" width="1200mm" height="1200mm" version="1.1" viewBox="0 0 1200 1200" xmlns="http://www.w3.org/2000/svg" xmlns:xlink="http://www.w3.org/1999/xlink">
 <defs id="defs77">
  <filter id="filter198906" x="-.35155" y="-.36619" width="1.7031" height="1.7324" color-interpolation-filters="sRGB">
   <feGaussianBlur id="feGaussianBlur198908" stdDeviation="0.36333245"/>
  </filter>
  <filter id="filter198906-6" x="-.35155" y="-.36619" width="1.7031" height="1.7324" color-interpolation-filters="sRGB">
   <feGaussianBlur id="feGaussianBlur198908-2" stdDeviation="0.36333245"/>
  </filter>
  <filter id="filter198906-4" x="-.35155" y="-.36619" width="1.7031" height="1.7324" color-interpolation-filters="sRGB">
   <feGaussianBlur id="feGaussianBlur198908-7" stdDeviation="0.36333245"/>
  </filter>
  <filter id="filter198906-4-8" x="-.35155" y="-.36619" width="1.7031" height="1.7324" color-interpolation-filters="sRGB">
   <feGaussianBlur id="feGaussianBlur198908-7-2" stdDeviation="0.36333245"/>
  </filter>
 </defs>
 <g id="layer60" transform="translate(19.4 11.241)">
  <g id="layer262">
   <g id="layer204" transform="translate(-19.4 -11.241)">
    <path id="path113150" d="m528.82 843.62c37.659 2.9266 75.318 7.77 112.98-0.79375 0.61115 5.1153 0.70723 10.231-0.26458 15.346-37.747-0.35278 16.117-0.51846-112.59-0.87124-0.95336-4.3324-0.84262-9.7727-0.12564-13.681z" fill="#ffc043" stroke="#000" stroke-width="2"/>
    <path id="path114082" d="m529.03 843.56c-2.063 7.939-2.3806 26.475-1.9844 49.345 13.5 1.8696 27.278 5.0705 39.952 2.9766-0.84809-17.062 0.73905-31.012 1.9182-48.749z" fill="#ffc043" stroke="#000" stroke-width="2"/>
    <path id="path216394" d="m536.2 843.82c-4.5806 3.1255-3.9803 6.2809-5.1449 9.4012l9.7286-9.2141 16.511-0.42096 3.1338 0.42096-1.637 10.524s-16.323 0.51451-18.802 0.0468c-2.4789-0.46773-12.816-2.3854-12.816-2.3854l1.8241-8.5593z" opacity=".22764" stroke="#000" stroke-width=".26458px"/>
    <path id="path114084" d="m642.01 842.57c-11.158 3.2992-21.22 3.8602-31.419 4.7625 1.1861 18.988 0.64341 32.429-1.2568 50.006l34.396-4.3656c1.1466-13.847 1.8118-31.881-1.7198-50.403z" fill="#ffc043" stroke="#000" stroke-width="2"/>
    <path id="path115016" d="m570.9 869.95c12.767 1.4999 24.564-0.29352 37.505-2.4474 0.83644-7.9375 0.65478-12.171 0.52913-20.108-12.594 2.793-33.079 0.65084-38.885-0.29989 0.28013 6.4576 1.1818 15.017 0.85086 22.856z" fill="#ffc043" stroke="#000" stroke-width="2"/>
    <path id="path16495" d="m583.62 848.63c-0.35888 0.56646 0.1119 1.4665 0.60803 1.9176 0.76696 0.69742 3.0402 0.65482 3.0402 0.65482-0.0279 1.4504-3.3909-0.0483-4.3498-0.14034-1.4685-0.14099-2.9466-0.0935-2.9466-0.0935l-3.1805-3.9756-2.8531-0.28064 0.46773 4.3966 5.3788 1.6838 16.136 0.28062-2.2451-3.7418-1.4032-1.8709s-7.0952-1.2893-8.6528 1.1693z" opacity=".22154" stroke="#000" stroke-width=".26458px"/>
    <path id="path224260" transform="scale(.26458)" d="m2176.7 3168.9c-20.992 8.4245-10.334 28.003 1.1407 30.977l0.414 35.736 18.898-0.2207-0.4121-35.086c19.174-5.2636 12.056-26.814 3.7929-30.303-1.2788 11.449-7.5515 24.137-19.829 16.336-4.9261-3.3631-4.0059-17.44-4.0059-17.44z" color="#000000" fill="#b7b7b7" stroke="#000" stroke-width=".94488"/>
    <g id="g8407" transform="rotate(-22.459 610.08 853.82)">
     <path id="path224260-2" d="m591.11 833.94c-5.5542 2.229-2.7343 7.4092 0.30181 8.1959l0.10954 9.4552 5.0002-0.0584-0.10904-9.2831c5.0732-1.3927 3.1898-7.0946 1.0035-8.0176-0.33835 3.0293-1.998 6.3863-5.2463 4.3222-1.3034-0.88982-1.0599-4.6142-1.0599-4.6142z" color="#000000" fill="#b7b7b7" stroke="#000" stroke-width=".25"/>
     <g id="path224262-2" transform="translate(15.038 -2.6268)" opacity=".18902" stroke="#000" stroke-width=".25">
      <path id="path224611-7" d="m578.71 844.75 0.13229 11.311" color="#000000" stroke="#000" stroke-width=".25"/>
     </g>
     <path id="path232526-2" d="m591.25 837.22c0.19504 0.65383 0.0205 1.6577 0.46942 2.1534 0.71769 0.76139 1.8011 0.74994 2.8789 0.69531 1.0778-0.0546 1.6751-0.17188 2.4618 0.31468 0.1641 0.1015 0.45002 0.28141 0.61156 0.45154 0.17454 0.24652-0.0305 0.51826-0.0305 0.51826-0.94811 0.66969-1.4503 0.75083-2.4841 0.77399 0.26822 3.1019 0.16419 6.2688-0.0158 9.3947-1e-5 5e-5 0 0.0137 0 0.0137v0.01l0.25 8e-3 1.244-0.14623c-0.12773-3.9017-0.31678-7.0105-0.26033-9.1748 0.60224-0.12926 1.4-0.37599 2.032-0.86313 0.11343-0.0874 0.14875-0.23985 0.11328-0.35937-0.0355-0.11953-0.11413-0.22238-0.20898-0.32227-0.1897-0.19979-0.45206-0.38281-0.62891-0.49219-0.38028-0.23521-0.80816-0.34785-1.2575-0.39553-0.59525-0.0632-1.2282-0.0123-1.8382 0.0186-2.615 0.0737-2.3762-0.69052-3.3367-2.5986z" color="#000000" opacity=".39837" style="-inkscape-stroke:none"/>
    </g>
    <path id="path115016-1" d="m570.57 850.86c0.35531 8.0098 0.055 11.968-0.27594 19.806 12.767 1.4999 25.556 2.5508 38.497 0.39687 0.83644-7.9375 0.0708-12.199-0.0548-20.137-11.102 2.0751-22.871 3.2859-38.166-0.0661z" fill="#ffc043" stroke="#000" stroke-width="2"/>
    <g id="path224262" transform="translate(-.14032 1.8709)" opacity=".18902" stroke="#000" stroke-width=".25">
     <path id="path224611" d="m578.71 844.75 0.13229 11.311" color="#000000" stroke="#000" stroke-width=".25"/>
    </g>
    <path id="path130407" d="m557.54 827.46-23.854 27.315 18.863 0.83198-0.0254-8.6336a1 1 0 0 1 0.99788-1.002 1 1 0 0 1 1.002 0.99631l0.0258 8.7276 4.5806 0.20206zm-12.698 16.885 1.7777 0.42067 0.25734 2.0112-1.8712-0.35087z" fill="#c4c4c4" stroke="#000" stroke-width=".26458px"/>
    <path id="path116062" d="m567.78 853.46-1.2141 43.903c-13.138 4.8593-26.275-1.0812-39.412-2.259 0.34087-14.646-5.3254-26.568-0.68972-44.383-3.9684 3.6453 30.372 6.6872 41.316 2.7382z" fill="#d91" stroke="#000" stroke-width="2.0477"/>
    <path id="path33246" d="m559.77 853.31 0.18709-15.715c0.4989-0.66591 1.372-0.49414 1.8709-0.0468l-0.28058 17.399-1.9176 0.0936z" fill="#970907" stroke="#000" stroke-width=".26458px"/>
    <path id="path214004" d="m544.84 858.8c-1.9642 2.326 3.0829 6.5187 1.2569 8.949-0.6077 0.80883-2.0532 0.79104-3.043 0.51505-6.2599-1.7456-8.3496-10.757-14.553-12.683-1.1205-0.34787-3.1508-0.70492-3.506 0.38629-1.8885 5.8013 0.12648 21.472 0.39692 21.568 0.16401 0.0578 1.6536 13.09 2.5799 17.061 0.53484 2.2927 4.8908 1.3645 7.2105 0.70819 2.7745-0.78498 2.9956-3.3516 5.7552-4.1848 6.1836-1.867 14.183 1.8096 20.441 0.19315 1.3536-0.34968 2.4357-0.28563 3.1091-1.4808 1.3254-2.3524 0.49223-6.1376 0.52922-8.8202 0.0547-3.97-0.0486-7.3949 0.1323-11.91 0.0961-2.398-5.6367 0.0319-7.1444-1.867-1.8472-2.3265 1.9271-6.6108-0.0661-8.8202-0.4259-0.4721-1.2734-0.23305-1.9184-0.25752-3.7302-0.14159-8.8094-2.1631-11.18 0.6438z" opacity=".21545" stroke="#000" stroke-width=".26104px"/>
    <path id="path33853" d="m628.05 846.47-3.1088 4.3656c-4.7561 1.8098-8.7523 0.32634-13.031 0.0661l-0.26459 1.3229c10.044 1.3782 19.17 1.6104 29.038-0.52917l0.99219-5.424-9.7234-1.3891z" opacity=".175" stroke="#000" stroke-width=".26458px"/>
    <path id="rect26914" d="m636.51 840 6.0957 3.5838c-5.3603 10-8.1052 14.915-12.151 21.796l-6.8391-4.4356c4.0455-6.881 2.3183-6.187 12.894-20.944z" fill="#65420f" fill-rule="evenodd" stroke="#000" stroke-linecap="round" stroke-width=".34189" style="paint-order:markers stroke fill"/>
    <path id="path116062-8" d="m611 852.17c-0.35027 14.954 0.32608 26.584-1.3507 45.834 10.67 4.7556 23.303-2.6832 33.974-3.8359 1.5926-14.047 2.3562-25.265 0.93407-44.678 1.9327 2.3412-22.068 5.9087-33.557 2.6798z" fill="#d91" stroke="#000" stroke-width="1.8256"/>
    <path id="path163357-3" d="m643.63 853.68c-6.451 2.0249-4.6302 1.3829-11.613 1.7513-6.9578 0.36706-13.203 0.97951-20.099-0.44364" fill="none" stroke="#ffc043" stroke-dasharray="1.05833, 1.05833" stroke-width=".26458"/>
    <path id="path13673" d="m642.7 854.25c-1.5902 2.0112-8.7932 12.254-8.7932 12.254l6.4078 3.4611 6.5481-8.7464-2.4789-7.5771z" opacity=".25"/>
    <rect id="rect9063" transform="matrix(.60116 -.79913 .81 .58643 0 0)" x="-329.4" y="1029.4" width="8.9019" height="4.1418" fill="#fff" fill-rule="evenodd" opacity=".34146" style="paint-order:markers stroke fill"/>
    <path id="path9178" d="m637.09 866.5 4.3097-5.8321c0.87131 0.36557 1.5561 0.8969 2.0306 1.6152l-4.4047 6.006c-0.94928-0.2768-1.5524-0.8998-2.0642-1.614z" fill="#fffb00" fill-opacity=".662" stroke="#000" stroke-width=".27111px"/>
    <path id="path11149" transform="rotate(-15.662)" d="m386.89 1003c1.3812 1.0697-0.76146 0.8343-1.7008 0.8343s-2.3167 0.056-1.9528-0.2265c0.42775-0.3322 1.8896-1.4769 1.8896-1.4769 0.9348-0.092 1.3998 0.587 1.764 0.8691z" fill="#fff" fill-opacity=".662" fill-rule="evenodd" stroke-linecap="round" stroke-width=".065097" style="paint-order:markers stroke fill"/>
    <path id="rect34467" transform="scale(.26458)" d="m2425.5 3220.5-83.66 119.96 35.477 24.74 83.66-119.96zm11.971 14.971a5.3165 5.3165 0 0 1 5.3164 5.3164 5.3165 5.3165 0 0 1-5.3164 5.3164 5.3165 5.3165 0 0 1-5.3164-5.3164 5.3165 5.3165 0 0 1 5.3164-5.3164zm-18.062 15.969a15.785 15.785 0 0 1 15.785 15.785 15.785 15.785 0 0 1-15.785 15.785 15.785 15.785 0 0 1-15.785-15.785 15.785 15.785 0 0 1 15.785-15.785z" fill="#fffb00" fill-rule="evenodd" stroke="#000" stroke-linecap="round" stroke-width="3.7795" style="paint-order:markers stroke fill"/>
    <path id="path115016-1-6-9" d="m644.69 889.39c-11.406 1.3909-18.486 1.8976-30.047-0.0997-0.74723-7.3605-0.96601-11.219-0.85386-18.579 4.2679 1.3676 10.181 0.76733 16.128 1.8768 19.473 3.6327 15.477-3.3094 15.477-3.3094 2.1409 3.0064 2.386 13.124-0.70438 20.112z" fill="#ffc043" stroke="#000" stroke-width="1.8203"/>
    <path id="path164679-9" d="m615.52 888.06s0.18453-0.0851 4.3326-2.5797c0.72443-0.43566 1.8409-0.9562 2.4261-1.573 2.7498-2.8984 3.527-7.2244 3.527-7.2244 4.2746-0.45214 9.6305-1.3054 14.486-0.42995 0 0 1.1325 4.7001 2.1497 6.2177 0.65727 0.98063 1.5922 1.8058 2.7735 2.827-0.63884 2.3129-1.0095 2.6036-1.4773 4.557l-12.706 0.4212-15.313-1.4883z" fill="#d91" stroke="#000" stroke-width=".26458px"/>
    <path id="path165493-4" d="m614.63 876.42c8.1248 0.80377 13.771 0.82795 22.49 1.0914 2.508 0.0662 6.5567 0.86531 9.1953-0.0621 0 0 0.10122-2.0374-0.43096-4.7334-4.5264 3.4895-14.36 0.3918-21.53 0.0992-3.3279-0.13578-9.955-0.85989-9.955-0.85989z" fill="#d91" stroke="#000" stroke-width=".26458px"/>
    <path id="path163361-9" d="m614.6 874.11c3.6241 0.75053 7.2483 0.86443 10.872 0.87595l10.847 0.68675c3.1518-0.10312 6.7773 1.3729 9.4394-0.36266" fill="none" stroke="#ffc043" stroke-dasharray="1.06, 1.06" stroke-width=".265"/>
    <path id="path163363-1" d="m615.1 875.67c4.3864 0.7238 7.3246 0.57733 10.732 0.44412l11.482 0.37698c3.3051 0.6867 6.0764 0.57259 8.6805 0.20783" fill="none" stroke="#ffc043" stroke-dasharray="1.06, 1.06" stroke-width=".265"/>
    <path id="path12068" d="m613.28 869.99 13.095 0.23947 10.85-17.289 6.4071-2.0115-6.2872 8.7036-6.7394 10.974c5.353 0.69249 3.132 3.2908 11.327 1.1261l3.4768-1.0242 0.46768 1.9636s-6.4538 1.6283-6.6877 1.6283-4.651 0.0364-4.651 0.0364 3.1004 2.4822 4.8942 3.251c1.6037 0.68729 5.0927 1.1514 5.0927 1.1514l-3.2408 0.0677s0.43145 2.826 2.4471 5.8248c-2.2998-0.90127-1.8676-4.1671-3.7699-4.8765-1.5438-0.57574-2.1591 0.22041-3.3316 1.3991-4.3186 6.7951 0.86479 4.3285-9.724 7.4905 0 0 7.0017-2.2218 5.6273-3.686-2.2412-2.3878-5.1337 2.6351-8.2466 3.5336-2.1942 0.63333-6.7461 1.1514-6.7461 1.1514s11.067-2.2826 9.6562-5.8248c-0.72898-1.8303-3.1694-2e-3 -5.6218 1.4223 1.1023-1.5005 2.5176-3.651 3.3731-5.6893 0.19853-0.47298 0.39683-1.49 0.39683-1.49l-10.582-0.33865-0.39684-1.016-1.1244 3.4542 0.79366 10.498c10.584-1.2138 23.006 1.8316 31.482-4.267l-1.455 6.0957-0.8598 1.5578-17.659 4.6734-16.204-0.20319 2.1826-28.176z" opacity=".175" stroke="#000" stroke-width=".26772px"/>
    <path id="path163365-3" d="m638.88 878.05c1.4239 4.5328 1.9648 5.8792 5.6994 8.3177" fill="none" stroke="#ffc043" stroke-dasharray="1.05833, 1.05833" stroke-width=".26458"/>
    <path id="path163367-5" d="m626.41 877.6c-2.5612 10.842-6.4469 7.6516-10.19 10.931" fill="none" stroke="#ffc043" stroke-dasharray="1.05833, 1.05833" stroke-width=".26458"/>
    <path id="path130973" d="m557.5 827.68 1.2395 26.099" fill="none" stroke="#000" stroke-dasharray="0.35, 0.35" stroke-width=".7"/>
    <path id="path130975" d="m535.59 853.12 22.123-25.467" fill="none" stroke="#000" stroke-dasharray="0.35, 0.35" stroke-width=".7"/>
    <text id="text135899" transform="rotate(263.89)" x="-907.45947" y="463.15128" font-family="'Showcard Gothic'" font-size="1.4111px" stroke-width=".26458" style="line-height:1.25" xml:space="preserve"><tspan id="tspan135897" x="-907.45947" y="463.15128" stroke-width=".26458">65 </tspan></text>
    <text id="text137259" transform="rotate(267.42)" x="-873.86597" y="518.38245" font-family="'Showcard Gothic'" font-size="1.4111px" stroke-width=".26458" style="line-height:1.25" xml:space="preserve"><tspan id="tspan137257" x="-873.86597" y="518.38245">70</tspan><tspan id="tspan137261" x="-873.86597" y="520.14636"/></text>
    <path id="path138498" d="m558.89 852.33-1.4779 0.0487" fill="none" stroke="#000" stroke-width=".36693px"/>
    <text id="text137259-6" transform="rotate(267.42)" x="-870.35925" y="518.39539" font-family="'Showcard Gothic'" font-size="1.4111px" stroke-width=".26458" style="line-height:1.25" xml:space="preserve"><tspan id="tspan137257-7" x="-870.35925" y="518.39539">75</tspan><tspan id="tspan137261-0" x="-870.35925" y="520.1593"/></text>
    <path id="path138498-8" d="m558.68 845.33-1.4813 0.0437" fill="none" stroke="#000" stroke-width=".34792px"/>
    <text id="text137259-1" transform="rotate(267.42)" x="-866.86035" y="518.34827" font-family="'Showcard Gothic'" font-size="1.4111px" stroke-width=".26458" style="line-height:1.25" xml:space="preserve"><tspan id="tspan137257-6" x="-866.86035" y="518.34827">80</tspan><tspan id="tspan137261-6" x="-866.86035" y="520.11218"/></text>
    <path id="path138498-4" d="m558.48 841.83-1.4813 0.0437" fill="none" stroke="#000" stroke-width=".34792px"/>
    <text id="text137259-7" transform="rotate(267.42)" x="-863.37103" y="518.42261" font-family="'Showcard Gothic'" font-size="1.4111px" stroke-width=".26458" style="line-height:1.25" xml:space="preserve"><tspan id="tspan137257-4" x="-863.37103" y="518.42261">85</tspan><tspan id="tspan137261-60" x="-863.37103" y="520.18652"/></text>
    <path id="path138498-5" d="m558.39 838.34-1.4813 0.0437" fill="none" stroke="#000" stroke-width=".34792px"/>
    <path id="path138500" d="m558.82 848.83-1.5383 0.0672" fill="none" stroke="#000" stroke-width=".38032px"/>
    <text id="text162316" transform="rotate(-89.869)" x="-844.94147" y="553.87396" font-family="'Showcard Gothic'" font-size="1.7787px" stroke-width=".33351" style="line-height:1.25" xml:space="preserve"><tspan id="tspan162314" x="-844.94147" y="553.87396">TOP CUTS</tspan><tspan id="tspan162318" x="-844.94147" y="556.09735"/></text>
    <path id="path163357" d="m525.76 855.49c6.451 2.0249 13.758 2.5074 20.741 2.8758 6.9578 0.36706 13.865 0.31805 20.76-1.1051" fill="none" stroke="#ffc043" stroke-dasharray="1.05833, 1.05833" stroke-width=".26458"/>
    <g id="g199233" transform="rotate(-37.279 537.92 871.18)">
     <path id="path179449-5" d="m533.69 852.36c0.64677-3.3404 6.1316-2.6485 6.0974-0.26598l-0.90569 14.578-1.4499 2.666-5.145-0.46773c-0.32712-0.94151-0.52189-1.8036-1.2628-2.9934 0.79332-4.8832 1.9076-9.5189 2.666-13.517z" fill="#ffd400" stroke="#000" stroke-width=".26458px"/>
     <path id="path188019-2" d="m533.53 868.03s-0.20856-0.79725-0.33068-1.1906c-0.1106-0.35626-0.3638-1.0583-0.3638-1.0583l2.6458-12.601c0.0568-0.50744 2.1435-0.27805 2.0836 0.19841l-0.19844 13.229s-0.60314 0.51114-0.76068 0.8599c-0.10977 0.243-0.0992 0.79375-0.0992 0.79375l-0.92604 1.8521s-0.92604 0.62839-1.2237 0.49609c-0.29765-0.13229-0.82682-2.5797-0.82682-2.5797z" fill="#363232" stroke="#000" stroke-width=".26458px"/>
     <path id="path197133-9" d="m536.31 850.07c-1.113 0.69795-1.4743 1.6613-1.228 2.5734-0.88956 4.0168-1.743 7.429-2.8069 11.086l-0.39687 2.0505c0.25914 0.0219 0.48321 0.19664 1.0583 0.11578l4.3379 0.82286c0.56281 0.0884 0.90188 0.27918 1.483-0.0456l-0.8599 2.0505-0.82682 4.6633-5.3247-2.6458 0.23151-2.6458c-0.019-0.83626-0.4289-1.462-0.8599-2.2159l2.8443-14.023 0.92605-1.2898z" opacity=".42683" stroke="#000" stroke-width=".26458px"/>
     <path id="path187681-9" d="m539.35 853.91a0.67799 0.65521 0 0 1-0.67799 0.65521 0.67799 0.65521 0 0 1-0.678-0.65521 0.67799 0.65521 0 0 1 0.678-0.6552 0.67799 0.65521 0 0 1 0.67799 0.6552z" fill-rule="evenodd" opacity=".23577" stroke-linecap="round" stroke-width=".1826" style="paint-order:markers stroke fill"/>
     <path id="path187681-0-5" d="m538 853.92c0-0.36186 0.30355-0.6552 0.678-0.6552 1.395 0.29667-0.47377 1.6952-0.678 0.6552z" fill-rule="evenodd" opacity=".58943" stroke-linecap="round" stroke-width=".1826" style="paint-order:markers stroke fill"/>
     <ellipse id="path198752-5" cx="537.62" cy="851.66" rx="1.2402" ry="1.1906" fill="#fff" fill-rule="evenodd" filter="url(#filter198906-4)" opacity=".5935" style="paint-order:markers stroke fill"/>
    </g>
    <path id="path179449-5-1" d="m529.75 859.01c-1.5087-3.0497 3.2747-5.8213 4.6906-3.9048l8.1094 12.148 0.46113 2.9996-4.3771 2.7442c-0.83056-0.55102-1.5077-1.119-2.8179-1.6169-2.3265-4.366-4.2477-8.7295-6.066-12.37z" fill="#ffd400" stroke="#000" stroke-width=".26458px"/>
    <path id="path188019-2-3" d="m541.46 870.12s-0.47662-0.52433-0.75042-0.74708c-0.25919-0.21086-0.83696-0.55159-0.83696-0.55159l-5.8545-11.699c-0.16282-0.27214 0.46957-0.79241 1.0299-1.0481 0.89405 1.3456 6.1382 9.3955 7.4339 11.152 0.43679 1.9894 7e-3 3.1436 1.3572 3.7075 0 0 0.15826 0.66335-0.15872 0.73837-0.31696 0.075-2.2204-1.5518-2.2204-1.5518z" fill="#363232" stroke="#000" stroke-width=".26458px"/>
    <path id="path188019-2-3-5" d="m536.91 872.71s-0.74166-0.41422-0.98428-0.74708c-0.24622-0.3378-0.41602-1.183-0.41602-1.183-0.75274-2.2608-4.1982-8.473-5.6243-11.699 0.47027-0.42421 1.1986-0.75292 1.3609-0.47323l7.1768 10.927s-0.0768 0.79543 9e-3 1.1684c0.0598 0.25984 0.40184 0.69167 0.40184 0.69167l0.96962 1.7306s-0.35623 1.0609-0.67321 1.1359c-0.31696 0.075-2.2204-1.5518-2.2204-1.5518z" stroke="#000" stroke-width=".26458px"/>
    <path id="path197133-9-8" d="m530.46 855.6c-0.46285 1.2295-0.16682 2.2149 0.58161 2.7914 1.7252 3.735 3.1129 6.9669 4.4812 10.521l0.92622 1.872c0.21946-0.13954 0.50359-0.13622 0.91222-0.54891l3.95-1.9727c0.50137-0.27056 0.88672-0.32413 1.1524-0.93453l0.5578 2.1524 2.1667 4.2113-5.8394 1.1199-1.4184-2.2455c-0.52165-0.65389-1.2268-0.90354-2.0264-1.2423l-6.2306-12.881-0.0444-1.5872z" opacity=".42683" stroke="#000" stroke-width=".26458px"/>
    <path id="path187681-9-8" d="m533.38 857.75a0.65521 0.67799 52.721 0 1-0.14261 0.93201 0.65521 0.67799 52.721 0 1-0.93634-0.11068 0.65521 0.67799 52.721 0 1 0.14262-0.932 0.65521 0.67799 52.721 0 1 0.93633 0.11067z" fill-rule="evenodd" opacity=".23577" stroke-linecap="round" stroke-width=".1826" style="paint-order:markers stroke fill"/>
    <path id="path187681-0-5-5" d="m532.3 858.58c-0.21918-0.28793-0.15533-0.7052 0.14262-0.93201 1.4635-0.58211 1.2373 1.7262-0.14262 0.93201z" fill-rule="evenodd" opacity=".58943" stroke-linecap="round" stroke-width=".1826" style="paint-order:markers stroke fill"/>
    <ellipse id="path198752-5-8" transform="rotate(-37.279 541.5 860.45)" cx="537.62" cy="851.66" rx="1.2402" ry="1.1906" fill="#fff" fill-rule="evenodd" filter="url(#filter198906-4-8)" opacity=".5935" style="paint-order:markers stroke fill"/>
    <path id="path33736" d="m560.55 838-0.16505 14.883" fill="none" stroke="#000" stroke-width=".27168px"/>
    <path id="path179449" d="m558.59 854.28c0.64677-3.3404 6.1316-2.6485 6.0974-0.26598l-0.90569 14.578-1.4499 2.666-5.145-0.46773c-0.32712-0.94151-0.52189-1.8036-1.2628-2.9934 0.79332-4.8832 1.9076-9.5189 2.666-13.517z" fill="#ffd400" stroke="#000" stroke-width=".26458px"/>
    <path id="path163359" d="m564.95 855.04c2.1659 12.543 0.0927 26.656 0.17601 39.199" fill="none" stroke="#ffc043" stroke-dasharray="1.03167, 1.03167" stroke-width=".25792"/>
    <path id="path163359-5" d="m614.09 853.77c-2.7612 6.7886-1.3495 30.69-1.4328 43.234" fill="none" stroke="#ffc043" stroke-dasharray="1.03167, 1.03167" stroke-width=".25792"/>
    <path id="path188019" d="m558.44 869.95s-0.20856-0.79725-0.33068-1.1906c-0.1106-0.35626-0.3638-1.0583-0.3638-1.0583l2.6458-12.601c0.0568-0.50744 2.1435-0.27805 2.0836 0.19841l-0.19844 13.229s-0.60314 0.51114-0.76068 0.8599c-0.10977 0.243-0.0992 0.79375-0.0992 0.79375l-0.92604 1.8521s-0.92604 0.62839-1.2237 0.49609c-0.29765-0.13229-0.82682-2.5797-0.82682-2.5797z" fill="#363232" stroke="#000" stroke-width=".26458px"/>
    <g id="g199108" transform="rotate(-9.6809 582.2 864.4)">
     <path id="path179449-7" d="m550.71 848.76c0.64677-3.3404 6.1316-2.6485 6.0974-0.26598l-0.90569 14.578-1.4499 2.666-5.145-0.46773c-0.32712-0.94151-0.52189-1.8036-1.2628-2.9934 0.79332-4.8832 1.9076-9.5189 2.666-13.517z" fill="#ffd400" stroke="#000" stroke-width=".26458px"/>
     <path id="path188019-8" d="m550.56 864.43s-0.23886-0.7891-0.33068-1.1906c-0.0593-0.25942-0.14192-0.78562-0.14192-0.78562l2.9185-12.823c0.0568-0.50744 2.1817-0.30509 2.1218 0.17137l-0.73119 13.205s-0.60314 0.51114-0.76068 0.8599c-0.10977 0.243-0.0992 0.79375-0.0992 0.79375l-0.92604 1.8521s-0.92604 0.62839-1.2237 0.49609c-0.29765-0.13229-0.82682-2.5797-0.82682-2.5797z" fill="#363232" stroke="#000" stroke-width=".26458px"/>
     <path id="path197133-1" d="m553.34 846.47c-1.113 0.69795-1.4743 1.6613-1.228 2.5734-0.88956 4.0168-1.743 7.429-2.8069 11.086l-0.39687 2.0505c0.25914 0.0219 0.54765 0.40894 1.1228 0.32808l4.2734 0.61056c0.56281 0.0884 0.90188 0.27918 1.483-0.0456l-0.8599 2.0505-0.82682 4.6633-5.3247-2.6458 0.23151-2.6458c-0.019-0.83626-0.4289-1.462-0.8599-2.2159l2.8443-14.023 0.92605-1.2898z" opacity=".42683" stroke="#000" stroke-width=".26458px"/>
     <path id="path187681-8" d="m550.85 849.63a0.67799 0.65521 19.362 0 0 0.42242 0.84293 0.67799 0.65521 19.362 0 0 0.85688-0.39337 0.67799 0.65521 19.362 0 0-0.42244-0.84293 0.67799 0.65521 19.362 0 0-0.85686 0.39337z" fill-rule="evenodd" opacity=".23577" stroke-linecap="round" stroke-width=".1826" style="paint-order:markers stroke fill"/>
     <path id="path187681-0-7" d="m552.12 850.09c0.11997-0.34139-0.0692-0.71878-0.42244-0.84292-1.4144-0.18258-0.11502 1.7564 0.42244 0.84292z" fill-rule="evenodd" opacity=".58943" stroke-linecap="round" stroke-width=".1826" style="paint-order:markers stroke fill"/>
     <ellipse id="path198752-0" cx="554.64" cy="848.06" rx="1.2402" ry="1.1906" fill="#fff" fill-rule="evenodd" filter="url(#filter198906-6)" opacity=".5935" style="paint-order:markers stroke fill"/>
    </g>
    <path id="path115016-1-6" d="m529.35 888.4c11.818 1.3884 22.159 2.3611 34.138 0.36736 0.77425-7.3474 1.0009-11.199 0.88474-18.546-4.4223 1.3651-10.889-0.35094-17.099 0.47276-8.9368 1.1854-16.393 1.0217-19.72-1.7161-0.0859 4.8685-0.0491 11.98 1.796 19.422z" fill="#ffc043" stroke="#000" stroke-width="1.8513"/>
    <path id="path197133" d="m561.21 851.99c-1.113 0.69795-1.4743 1.6613-1.228 2.5734-0.88956 4.0168-1.743 7.429-2.8069 11.086l-0.39687 2.0505c0.25914 0.0219 0.48321 0.19664 1.0583 0.11578l4.3379 0.82286c0.56281 0.0884 0.90188 0.27918 1.483-0.0456l-0.8599 2.0505-0.82682 4.6633-5.3247-2.6458 0.23151-2.6458c-0.019-0.83626-0.4289-1.462-0.8599-2.2159l2.8443-14.023 0.92605-1.2898z" opacity=".42683" stroke="#000" stroke-width=".26458px"/>
    <path id="path164679" d="m529.33 887.15s0.18453-0.0851 4.3326-2.5797c0.72443-0.43566 1.8409-0.9562 2.4261-1.573 2.7498-2.8984 3.527-7.2244 3.527-7.2244 4.2746-0.45214 8.3738-1.3054 13.229-0.42995 0 0 0.80181 3.6418 1.819 5.1594 0.65727 0.98063 1.5922 2.2688 2.7735 3.29 2.4132 2.0864 5.3294 3.6884 5.3294 3.6884l0.0331 1.2898-17.959 0.59531-15.313-1.4883z" fill="#d91" stroke="#000" stroke-width=".26458px"/>
    <path id="path165493" d="m528.04 875.51c4.3115 0.77878 6.2278 0.97981 10.783 0.46537 0 0 9.0351-0.76561 11.641-0.69688 4.5358 0.11965 13.059 1.1472 13.059 1.1472l0.13229-5.5242c-1.811 0.63811-10.187 4e-3 -15.54-0.0217-3.3358-0.0162-6.6211 1.1404-9.955 1.0253-3.6118-0.12473-10.683-1.8521-10.683-1.8521z" fill="#d91" stroke="#000" stroke-width=".26458px"/>
    <path id="path163361" d="m528.42 873.19c3.6241 0.75053 7.2483 0.86443 10.872 0.87595l10.781-0.90075 14.268 0.96026" fill="none" stroke="#ffc043" stroke-dasharray="1.06, 1.06" stroke-width=".265"/>
    <path id="path163363" d="m528.39 874.69c4.3864 0.7238 7.8538 0.64348 11.261 0.51027l11.416-0.81365 13.245 1.3323" fill="none" stroke="#ffc043" stroke-dasharray="1.06, 1.06" stroke-width=".265"/>
    <path id="path163365" d="m552.36 875.55c0.82857 6.3848 5.1398 9.5834 10.065 12.22" fill="none" stroke="#ffc043" stroke-dasharray="1.05833, 1.05833" stroke-width=".26458"/>
    <path id="path163367" d="m540.22 876.22c-2.5612 10.842-6.4469 8.1146-10.19 11.394" fill="none" stroke="#ffc043" stroke-dasharray="1.05833, 1.05833" stroke-width=".26458"/>
    <path id="path164679-8" d="m571.18 869.04s1.954-0.21335 6.3438-2.2523c3.1852-1.4794 4.7853-5.5952 5.5322-9.0313 4.2746-0.45214 8.3738-1.3054 13.229-0.42995 0 0 0.80181 3.6418 1.819 5.1594 0.65727 0.98063 1.5922 2.2688 2.7735 3.29 2.4132 2.0864 7.1068 3.1271 7.1068 3.1271l0.0331 1.2898c-6.5023 1.3018-13.11 1.333-19.736 1.1566l-16.903-1.5818z" fill="#d91" stroke="#000" stroke-width=".26458px"/>
    <path id="path232526" d="m576.08 841.71c0.19504 0.65383 0.0205 1.6577 0.46942 2.1534 0.71769 0.76139 1.8011 0.74994 2.8789 0.69531 1.0778-0.0546 2.1645-0.14672 2.9512 0.33984 0.1641 0.1015 0.41854 0.28105 0.58008 0.45118 0.0808 0.0851 0.13499 0.1688 0.15039 0.2207s0.0199 0.0549-0.0254 0.0898c-0.94811 0.66969-2.0637 0.93379-3.0975 0.95695 0.26822 3.1019 0.16419 6.2688-0.0158 9.3947-1e-5 5e-5 0 0.0137 0 0.0137v0.01l0.25 8e-3 1.244-0.14623c-0.12773-3.9017-0.31678-7.0105-0.26033-9.1748 0.60224-0.12926 1.4-0.37599 2.032-0.86313 0.11343-0.0874 0.14875-0.23985 0.11328-0.35937-0.0355-0.11953-0.11413-0.22238-0.20898-0.32227-0.1897-0.19979-0.45206-0.38281-0.62891-0.49219-0.88403-0.54678-2.0253-0.43121-3.0957-0.37695-2.615 0.0737-2.3762-0.69052-3.3367-2.5986z" color="#000000" opacity=".39837" style="-inkscape-stroke:none"/>
    <path id="path165493-7" d="m571.48 857.49c4.3115 0.77878 6.2278 0.97981 10.783 0.46537 0 0 9.1754-0.4382 11.781-0.36947 4.5358 0.11965 13.901 0.81976 13.901 0.81976l-0.19512-6.4596c-1.811 0.63811-8.9708 1.9217-14.323 1.896-3.3358-0.0162-7.114 0.0359-10.657-0.23759-3.9734-0.30678-11.852-1.5714-11.852-1.5714z" fill="#d91" stroke="#000" stroke-width=".26458px"/>
    <path id="path163361-2" d="m571.85 855.18c3.6241 0.75053 7.2483 0.86443 10.872 0.87595l10.968-0.24594 14.081 0.30545" fill="none" stroke="#ffc043" stroke-dasharray="1.06, 1.06" stroke-width=".265"/>
    <path id="path163363-9" d="m571.69 856.68c4.3864 0.7238 7.9941 0.64348 11.401 0.51027l11.322-0.34593 13.338 0.81782" fill="none" stroke="#ffc043" stroke-dasharray="1.06, 1.06" stroke-width=".265"/>
    <path id="path163365-8" d="m595.75 858.05c0.0802 6.3848 5.8414 10.612 12.217 12.033" fill="none" stroke="#ffc043" stroke-dasharray="1.05833, 1.05833" stroke-width=".26458"/>
    <path id="path163367-8" d="m583.66 858.2c-2.5612 10.842-6.1194 8.9566-10.798 11.488" fill="none" stroke="#ffc043" stroke-dasharray="1.05833, 1.05833" stroke-width=".26458"/>
    <path id="path187681" d="m564.26 855.83a0.67799 0.65521 0 0 1-0.67799 0.65521 0.67799 0.65521 0 0 1-0.678-0.65521 0.67799 0.65521 0 0 1 0.678-0.6552 0.67799 0.65521 0 0 1 0.67799 0.6552z" fill-rule="evenodd" opacity=".23577" stroke-linecap="round" stroke-width=".1826" style="paint-order:markers stroke fill"/>
    <path id="path187681-0" d="m562.9 855.84c0-0.36186 0.30355-0.6552 0.678-0.6552 1.395 0.29667-0.47377 1.6952-0.678 0.6552z" fill-rule="evenodd" opacity=".58943" stroke-linecap="round" stroke-width=".1826" style="paint-order:markers stroke fill"/>
    <ellipse id="path198752" cx="561.92" cy="853.64" rx="1.2402" ry="1.1906" fill="#fff" fill-rule="evenodd" filter="url(#filter198906)" opacity=".5935" style="paint-order:markers stroke fill"/>
    <path id="path213471" d="m549.47 871.14c1.42 1.3211 2.9269 2.6852 3.7703 4.4318 0.0143 0.0295 3.6475 0.1291 3.6617 0.15844 0.0168 0.0347-3.5568 0.17239-3.5454 0.2089 1.7131 5.5077 3.6971 7.4879 3.6971 7.4879 0.10745-0.13362-1.5639-1.4818-2.9444-4.1157-0.39632-0.75613-0.54496-2.1088-1.0388-3.061-1.3653-2.6324-5.5965 3.4084-8.363 4.9438-3.14 1.7426-3.8509 3.1992-9.9767 3.9366 3.6412-4.8221 7.0662-7.0455 7.397-7.1778 0.29474-0.1179 5.4222-0.36542 6.8159-2.2219 0.0138-0.0184-2.4427-0.0298-5.6849 0.1869-2.9056 0.19421-6.4454 0.61722-9.3501 0.63189-3.2284 0.0163-5.7046-0.73658-5.693-0.75582 0.041-0.0683 2.7354 0.59501 6.4221 0.53008 6.1544-0.10839 14.601-0.94605 14.622-1.0788 0.23602-1.5147-1.9617-3.2022-3.494-3.2455-2.2657-0.0641-3.7785 2.9286-5.9852 3.4462-3.1239 0.73272-6.0227 0.29383-8.8976-1.1311-1.6226-0.80424-3.2051-2.0284-4.0349-3.638-0.26441-0.51292-0.66221-1.3764-0.19843-1.7198 1.6537-1.2244 5.6778 3.2278 9.9219 2.5797 3.9407-0.60183 8.0635-1.5897 11.906-1.1245 0.40716 0.0493 0.69191 0.44825 0.99219 0.7276z" opacity=".1748" stroke="#000" stroke-width=".26458px"/>
    <path id="path213471-3" d="m591.81 853.39c1.42 1.3211 3.9325 2.5508 4.7759 4.2973 0.0143 0.0295 3.6943 0.19341 3.7085 0.22275 0.0168 0.0347-3.5801 9e-3 -3.5688 0.0452 1.7131 5.5077 3.6971 7.4879 3.6971 7.4879 0.10744-0.13362-1.5639-1.4818-2.9444-4.1157-0.39632-0.75613-0.54496-2.1088-1.0388-3.061-0.68739-1.3253-3.6486-1.2235-4.2086 1.0557-0.20802 0.84663 13.696 16.421 0.37715 3.2053-1.1809-1.1718-4.6207 0.39508-5.5605 0.91667-3.14 1.7426-4.2809 3.0007-10.407 3.7382 4.4751-4.0209 4.0411-5.719 5.6921-8.6005 1.5459-2.6982-1.059 4.0163-0.8972 4.2556 0.52361 0.77474 6.1579-3.9186 6.7142-4.6225 0.0138-0.0184 0.69101-0.26366-2.5512-0.047-2.9056 0.19421-6.1648 0.33659-9.0695 0.35126-3.2284 0.0163-6.032-1.064-6.0204-1.0832 0.041-0.0683 3.0628 0.92242 6.7495 0.85749 6.1544-0.10839 14.321-0.66542 14.341-0.79817 0.23602-1.5147-0.51174-1.6119-2.0441-1.6552-2.2657-0.0641-5.2284 1.3384-7.4352 1.856-3.1239 0.73272-6.0227 0.29383-8.8976-1.1311-1.6226-0.80424-3.2051-2.0284-4.0349-3.638-0.26441-0.51292-0.66221-1.3764-0.19843-1.7198 1.6537-1.2244 5.3971 2.3392 9.6412 1.691 3.9407-0.60183 8.3441-0.70107 12.187-0.23581 0.40716 0.0493 0.69191 0.44825 0.99219 0.7276z" opacity=".1748" stroke="#000" stroke-width=".26458px"/>
    <path id="path27698" d="m636.05 839.65 6.9113 4.3244s3.3038-6.0137 6.0349-5.6488c1.9827 0.265 2.5859 3.6352 3.1798 3.5727 0.35032-0.0369 6.7356-4.3126 6.789-6.1682 0.0432-1.5033-9.1356-14.541-15.945-13.994-6.8096 0.54744-14.153 7.3086-14.153 7.3086 4.9818-0.81221 12.908-3.0639 11.806 0.72192-1.0262 3.5268-4.6231 9.8833-4.6231 9.8833z" fill="#cacaca" stroke="#000" stroke-width=".20224px"/>
    <path id="path28794" d="m652.33 841.83 0.39102 0.97489 6.8238-6.5312-0.67049-0.50091z" fill="#cacaca" stroke="#000" stroke-width=".20224px"/>
    <path id="path28796" d="m652.24 843.41c-0.0768 1.4138 1.6088 3.515 2.5636 3.387 0.50307-0.0675 6.5631-4.7988 8.181-7.4346 0.43356-0.70632-2.3683-3.7189-3.0428-3.4138-0.99719 1.113-7.6157 6.6158-7.7017 7.4614z" fill="#cacaca" stroke="#000" stroke-width=".20224px"/>
    <path id="path29974" d="m658.58 834.82c-3.4603 2.9635-3.568 3.1858-5.748 3.1253-1.8308-0.0508-2.8472-3.0169-4.6742-2.888-2.1356 0.15064-3.4292 2.5886-4.9358 4.1096-0.96253 0.97174-2.5954 3.1782-2.5954 3.1782l-2.681-1.4421s3.7294-5.5231 4.821-8.633c0.52905-1.507 1.5949-3.3454 0.79115-4.7256-0.73909-1.2692-2.6741-1.4003-4.1386-1.5119-3.0298-0.23097-8.9376 1.7939-8.9376 1.7939l-1.5467 1.2764s11.264-2.2642 11.716-0.85053c0.7133 2.228-4.5489 11.408-4.5489 11.408l0.52251 0.3688-3.6487 4.9201s3.7529-1.5689 5.6582-1.2512c1.1855 0.19766 3.0775 1.8785 3.0775 1.8785l0.97112-1.8196 0.24666 0.23279s2.19-3.6222 3.8424-4.8617c0.62323-0.46755 1.3895-0.94255 2.166-0.87839 0.66 0.0546 1.6936 1.0388 1.6936 1.0388l1.0574 2.2728 0.55171 0.27197 0.40112 0.59624 0.0723 0.28584-0.388 0.41109c0.16274 1.5689 0.81316 2.9119 2.4452 3.8002l4.8144-3.8821c-1.3232-0.91474-4.207-0.28163-4.0734-3.1294l1.5467-1.2764c-0.43225 0.0296-1.021 0.20754-0.70154-0.47559l2.5071-2.3598z" opacity=".30894" stroke="#000" stroke-width=".20224px"/>
    <path id="path31080" d="m636.68 842.49-6.6816 9.5918 0.2168 0.15039c0.66286-1.2347 7.0602-9.3292 6.4648-9.7422z" color="#000000" opacity=".39228" style="-inkscape-stroke:none"/>
    <path id="path31082" d="m634.52 851.43c0.82978 3e-3 3.5174-4.2388 3.9716-5.1017-0.82975-3e-3 -0.93768 1.8576-3.9716 5.1017z" color="#000000" opacity=".39228" style="-inkscape-stroke:none"/>
    <path id="path31084" d="m660.76 837.52c2.272 2.4348 0.18109 1.9929-1.334 4.2248 0 0 0.61214-0.52996 1.2559-1.0664 2.2375-1.7374 1.57-1.5247 0.0781-3.1582z" color="#000000" fill="#fff" opacity=".36179" style="-inkscape-stroke:none"/>
    <path id="path31086" d="m645.01 823.81c2.2888 4.6196 12.332 8.1817 10.674 10.889 0 0 0.95158-0.71568 0.72656-1.0898-1.9712-3.2777-11.4-9.7988-11.4-9.7988z" color="#000000" fill="#fff" opacity=".27032" style="-inkscape-stroke:none"/>
    <path id="path33734" d="m559.99 837.74 0.7276 0.26458 0.52917-0.0661 0.52917-0.29766" fill="none" stroke="#000" stroke-width=".26458px"/>
    <path id="path33738" d="m561.18 838-0.13229 14.122" fill="none" stroke="#000" stroke-width=".26458px"/>
    <path id="path34780" d="m641.68 851.76 1.6804-2.1628 9.641 7.2375-1.3282 1.8931z"/>
    <path id="path11033" d="m638.16 865.24 1.9348 1.5544" fill="none" stroke="#000" stroke-width=".1"/>
    <path id="path11035" d="m640.21 862.38 2.0505 1.6206" fill="none" stroke="#000" stroke-width=".1"/>
    <path id="path14271" d="m631.38 853.12-20.159-0.93543s-0.14034 17.82-0.0936 17.54c0.0468-0.28062 2.992-2.985 3.7886-5.4723 0.49486-1.5453 0.52396-5.8296 0.70158-5.9401 5.9401-3.695 9.2141 1.3564 9.2141 1.3564s0.93389-3.4413 2.1515-4.6304c1.1439-1.1171 2.8314-1.5912 4.3966-1.9177h4e-5z" opacity=".175" stroke="#000" stroke-width=".26458px"/>
   </g>
  </g>
 </g>
</svg>
