<?xml version="1.0" encoding="UTF-8"?>
<svg id="svg5" width="1200mm" height="1200mm" version="1.1" viewBox="0 0 1200 1200" xmlns="http://www.w3.org/2000/svg" xmlns:xlink="http://www.w3.org/1999/xlink">
 <g id="layer60" transform="translate(19.4 11.241)">
  <g id="layer214">
   <g id="layer179">
    <ellipse id="path139297" transform="rotate(26.067)" cx="602.24" cy="-99.174" rx="4.6749" ry="8.7283" fill="#a80003" stroke="#000" stroke-linecap="round" stroke-linejoin="round" stroke-width="2.0554"/>
    <path id="path136196" d="m533.99 167.91c-84.254-16.853-160.21 26.076-156.86 62.089-8.2363 46.727-78.129 21.645-29.773 113.8-7.7874 18.103-4.929 23.252-1.974 23.32 83.385-46.365 157.93-56.364 229.82-47.249 89.291 24.562 156.33 80.629 195.28 96.614 53.638-159.86-107.87-222.85-236.5-248.58z" fill="#a80003" stroke="#000" stroke-width="2.5"/>
    <path id="path139684" d="m459.94 294.07c-22.544 0.27131-48.447 3.2498-79.182 10.145 28.843-4.7661 49.186-6.272 67.5-7.2993 55.773-2.9241 91.198 10.416 126.49 24.124l0.90625-2.3301c-32.779-12.731-66.12-25.236-115.72-24.639z" color="#000000" style="-inkscape-stroke:none"/>
    <path id="path140198" d="m770.48 416.49s-19.493-15.673-11.048-64.025c4.6837-26.816-3.7356-40.748-31.101-25.827-62.013 33.812-189.66-68.035-237.98-75.522-60.27-9.3383-55.758-1.2739-78.295 4.1365s-45.424 13.971-55.427 24.648-7.479 14.69-9.3846 25.452 0.10591 38.452 0.10591 38.452 32.221-18.933 45.481-24.416 11.491-5.1618 33.861-11.731c14.344-4.2125 35.834-10.109 58.179-10.556 12.502-0.25017 20.773 1.0378 39.104 5.6881 51.092 12.961 174.56 69.68 246.5 113.7z" opacity=".15447" stroke="#000" stroke-width=".26458px"/>
    <path id="path140518" d="m486.75 296.31c-33.489 1.4885-56.141-3.775-105.99 7.9067-10.323 3.3204-20.541 4.8114-21.881 13.415l2.0572 18.448c26.3-16.063 67.276-33.769 125.82-39.77" opacity=".23374" stroke="#000" stroke-width=".26458px"/>
    <path id="path141871" d="m391.3 223.76 8.8066-23.248c10.876-12.378 19.893-15.596 31.323-19.63 13.689-4.8319 18.22-4.5099 26.204-6.1316-2.4289 5.9802-3.4011 8.1482-7.3015 17.956-3.9004 9.8075-13.661 23.188-16.393 27.825s-25.363 14.733-25.363 14.733c2.8872-7.2502 17.141-25.414 14.039-32.631-22.988-2.1192-15.539 19.87-31.315 21.127z" opacity=".14024" stroke="#000" stroke-width=".26458px"/>
    <path id="path141873" d="m377.13 230s4.631 20.136-0.59497 22.41-25.428 11.238-25.428 11.238c10.95-9.312 23.839-17.001 26.023-33.647z" opacity=".14024" stroke="#000" stroke-width=".26458px"/>
    <path id="path141875" d="m568.56 183.85s-46.459 34.175-48.798 48.38c-2.3392 14.205 15.199 25.782 15.199 25.782-0.66676-29.004 18.088-50.998 33.6-74.162z" opacity=".14024" stroke="#000" stroke-width=".40419px"/>
    <path id="path141877" d="m552.8 198.17" fill="none" stroke="#000" stroke-width=".26458px"/>
    <path id="path141879" d="m636.4 210.12c13.416 28.671 28.61 57.003 35.546 86.913 0 0 3.74-25.095-1.654-40.394-5.394-15.3-33.892-46.519-33.892-46.519z" opacity=".14024" stroke="#000" stroke-width=".35108px"/>
   </g>
  </g>
 </g>
</svg>
