<?xml version="1.0" encoding="UTF-8"?>
<svg id="svg5" width="1200mm" height="1200mm" version="1.1" viewBox="0 0 1200 1200" xmlns="http://www.w3.org/2000/svg" xmlns:xlink="http://www.w3.org/1999/xlink">
 <defs id="defs77">
  <filter id="filter33290" x="-.028362" y="-.051104" width="1.0567" height="1.1022" color-interpolation-filters="sRGB">
   <feGaussianBlur id="feGaussianBlur24-8" stdDeviation="0.69827714"/>
  </filter>
  <filter id="filter23958" x="-.020619" y="-.045536" width="1.0412" height="1.0898" color-interpolation-filters="sRGB">
   <feGaussianBlur id="feGaussianBlur15-5" stdDeviation="0.43104782"/>
  </filter>
  <filter id="filter21702" x="-.010905" y="-.010518" width="1.0218" height="1.021" color-interpolation-filters="sRGB">
   <feGaussianBlur id="feGaussianBlur9-8" stdDeviation="0.15876734"/>
  </filter>
  <filter id="filter22301-2" x="-.0061683" y="-.005954" width="1.0123" height="1.0119" color-interpolation-filters="sRGB">
   <feGaussianBlur id="feGaussianBlur21-64" stdDeviation="0.067466026"/>
  </filter>
  <filter id="filter22301" x="-.020664" y="-.016559" width="1.0413" height="1.0331" color-interpolation-filters="sRGB">
   <feGaussianBlur id="feGaussianBlur12-8" stdDeviation="0.16541507"/>
  </filter>
 </defs>
 <g id="layer60" transform="translate(19.4 11.241)">
  <g id="layer4">
   <g id="g11517">
    <path id="path4938" d="m726.35 493.97 7.4561-0.32215c4.3224-19.501 9.0486-38.426 7.5956-66.155 2.7216-40.009-18.628-35.579-27.941-53.369l-19.471 24.956c10.513 31.355 45.36-67.477 31.538 94.066z" opacity=".60261"/>
    <path id="path11499" d="m618.01 253.9-27.693-78.78c-2.118 19.493 4.8542 46.561-6.3539 58.481l34.047 20.301" fill-opacity="0" stroke-width="4.1461"/>
    <path id="path2-9" d="m733.81 493.65c-0.30349-0.36569 0.622-3.8626 1.5947-7.3274 1.9966-7.1122 3.9064-16.198 5.1121-24.316 1.2091-8.1404 1.3786-34.54 0.27199-42.423-4.9944-35.578-18.693-66.337-41.229-92.578-5.3845-6.2693-16.158-16.974-21.792-21.652-29.279-24.315-64.778-39.491-104.36-44.612-5.3202-0.68817-14.802-1.0327-24.282-1.0327l1.3e-4 6e-5c-9.4796 0-18.959 0.34454-24.28 1.0327-24.145 3.1232-44.931 9.359-66.167 19.851-23.297 11.509-43.293 26.982-59.981 46.411-22.536 26.239-36.235 57-41.229 92.578-1.1092 7.9024-0.9373 34.289 0.27655 42.423l0.95559 6.404" fill="none" stroke="#000" stroke-width="2.1767" style="mix-blend-mode:normal"/>
    <g id="g11497" transform="matrix(3.8981 0 0 4.1514 134.38 46.534)" fill="#907abb" stroke="#000">
     <path id="path11495" d="m79.762 57.863 4.2888 5.904c9.8416 12.497 26.852 21.82 31.857 26.124-0.59087-1.7977-0.48721-2.3386-0.73081-3.5079 2.436 2.5335 5.6029 4.8477 7.3082 7.6005l0.14616-3.5079c4.3061 6.2977 21.95 11.511 24.994 19.367 0 0 2.8402-5.5332 4.0926-8.6967s1.9012-5.9705 2.5794-12.275c0.12299-1.1434 2.42 4.0091 2.5791 3.0125 0.16439-1.03-1.8154-8.2097-2.0891-9.446-1.9986-9.0293-10.029-23.564-20.574-30.183s-28.17-8.0961-36.375-6.8302c-6.2566 0.42696-14.419 7.9556-18.077 12.438z" fill="#ff8080" stroke-width=".52917"/>
    </g>
    <path id="path11505" transform="matrix(3.8981 0 0 4.1514 134.38 46.534)" d="m97.977 65.75-2.0118-3.3421 18.938 23.244 0.27406 0.73082c-5.7669-6.849-11.226-10.476-17.2-20.632z" color="#000000" filter="url(#filter22301)" opacity=".11401" style="-inkscape-stroke:none;mix-blend-mode:normal"/>
    <path id="path11507" transform="matrix(-3.8443 -.68732 .64538 -4.0941 790.25 651.58)" d="m23.308 54.503-2.0118-3.3421s6.8639 9.395 11.929 15.827 14.321 11.368 14.321 11.368c-11.116-3.7503-18.264-13.696-24.238-23.852z" color="#000000" filter="url(#filter22301-2)" opacity=".081433" style="-inkscape-stroke:none"/>
    <path id="path11509" transform="matrix(3.8981 0 0 4.1514 134.38 46.534)" d="m91.192 54.629c-8.787 1.5842 3.2856 0.83452 4.8704 1.4261 0.81987 0.30606 1.6289 0.65607 2.3867 1.0938 11.881 6.8619 17.037 21.581 23.869 33.549 0.12664 0.22182 0.74551-0.21814 0.625-0.44335-3.0536-4.0772-15.263-37.79-31.751-35.625z" color="#000000" filter="url(#filter21702)" opacity=".11401" style="-inkscape-stroke:none;mix-blend-mode:normal"/>
    <path id="path11511" transform="matrix(4.1461 0 0 4.1461 114.51 46.946)" d="m84.974 64.925c1.6185 1.5381 5.5742 5.345 5.5742 5.345-3.2682-2.7881-5.9376-22.405 11.85-22.712 1.0767-0.0186 19.72 2.0534 32.762 9.2976 3.3845 1.8799-6.4332-10.888-24.453-11.414-2.8115-0.49466-9.5432-1.603-15.556 0.08413-4.5191 1.2681-8.8044 5.1802-9.755 6.2107-2.9979 3.2499-7.5813 9.3962-5.7465 6.1513 0.27844-0.49246 2.0568 5.9528 5.3237 7.0374z" filter="url(#filter23958)" opacity=".10749" stroke="#000" stroke-width=".26458px" style="mix-blend-mode:normal"/>
    <path id="path11515" transform="matrix(3.8981 0 0 4.1514 134.38 46.534)" d="m115.91 89.89-0.73081-3.5079c2.436 2.5335 5.6029 4.8477 7.3082 7.6005l0.14616-3.5079c4.3061 6.2977 21.95 11.511 24.994 19.367 0 0 2.8402-5.5332 4.0926-8.6967s1.9012-5.9705 2.5794-12.275c0.12299-1.1434 2.42 4.0091 2.5791 3.0125 0.16439-1.03-3.8717-14.078-4.4662-12.96-11.3 21.253-24.292 12.093-34.836 5.4734s-19.78-7.3471-19.78-7.3471 2.8824 2.1651 8.3894 6.1822c2.5978 1.8949 7.0887 2.7474 9.7246 6.659z" fill="#050400" filter="url(#filter33290)" opacity=".10424" style="mix-blend-mode:normal"/>
    <path id="path14613" d="m461.24 309.9c-73.082 32.723-98.916 88.449-93.47 159.4l-9.0675-0.90326c-7.4319-60.518-0.14263-121.04 86.504-181.55" fill-opacity=".55466"/>
   </g>
  </g>
 </g>
</svg>
