<?xml version="1.0" encoding="UTF-8"?>
<svg id="svg5" width="1200mm" height="1200mm" version="1.1" viewBox="0 0 1200 1200" xmlns="http://www.w3.org/2000/svg" xmlns:xlink="http://www.w3.org/1999/xlink">
 <g id="layer60" transform="translate(19.4 11.241)">
  <g id="layer214">
   <g id="g16493">
    <path id="path16471" d="m688.31 180.19c11.383 29.02-31.449 42.085-61.125 42.085-37.557 0-40.508-33.948-67.453-54.766-10.306-7.9626-5.7315-33.514 19.2-30.719 3.7829-15.352 14.412-28.137 30.252-19.757 6.5258-5.7093 25.866-17.804 37.31 6.0797 17.166-7.7235 39.237 5.2596 32.95 26.503 21.623 1.6523 17.494 18.686 8.8651 30.575z" fill="#4e4e4e" stroke="#000" stroke-width="2.1436"/>
    <path id="path16473" d="m750.97 478.6c9.915-21.025 16.818-148.95 6.6266-180.35-25.526-78.646-79.981-118.85-162.14-131.64-12.19-1.8987-24.512-2.854-36.842-2.854-14.427 0-28.328 0.66712-41.513 2.9718-113.22 27.639-202.27 147.72-168.73 283.33 12.721-149.26 152.77-172.73 262.2-116.92 76.215 38.869 144.55 109.55 140.4 145.46z" fill="#4e4e4e" stroke="#000" stroke-width="2.1436"/>
    <path id="path16475" d="m348.37 450.05c18.24-108.27 86.756-144.5 152.68-141.16 66.397 3.3697 204.6 51.11 249.92 169.7 16.634-19.216 16.789-43.636 12.846-69.349-12.766-65.423-122.17-137.72-204.42-150.76-34.646-5.49-64.127-5.6628-89.187-2.2484-107.02 14.581-133.42 94.585-137.14 105.26-6.3854 18.307-2.7659 68.329 15.301 88.546z" fill="#4e4e4e" stroke="#000" stroke-width="2.1436"/>
    <path id="path16477" d="m349.34 449.04c18.24-108.27 86.759-144.56 152.68-141.16 43.329 2.2363 116.2 27.173 175.76 71.856-54.275-57.192-115.67-67.628-125.04-71.69-24.616-6.8769-61.517-11.633-97.463-3.7469-12.364 2.7126-31.177 5.1988-34.686 2.7841-8.058-5.546 28.221-42.391 73.417-47.82 16.734-2.0103 34.23-2.6558 66.36-1.7833-39.784-4.0112-63.712-6.864-97.686-2.5615-5.6774-1.4745-9.6203-22.501 13.082-42.65 26.572-23.583 69.038-53.266 201.04-19.757 2.524-4.7615-59.888-31.939-102.79-35.833-16.565-1.5034-1.5406-11.196 7.1387-12.811 9.2305-1.7178 36.884 11.589 30.058 6.8431-4.8303-3.3586-9.1337-6.4773-12.539-9.1432-13.82-10.82-3.9313-25.317 6.8419-21.138 2.8615 1.1099 18.791 20.481 16.418 16.593-2.3731-3.8879-8.1858-13.05-8.0151-16.766 0.33634-7.3279 21.624-14.067 33.564 1.8389-13.44-22.22-27.082-12.032-37.563-6.0379-27.786-11.133-28.125 18.102-30.972 20.731-23.268-6.8312-27.849 20.009-22.898 25.69-37.964 3.2286-72.14 6.7312-114.85 38.444-46.516 34.537-78.903 84.161-86.485 119.49-19.486 20.885-19.119 35.658-20.662 40.083-6.3854 18.307-2.7659 68.329 15.301 88.546z" opacity=".40064"/>
    <path id="path16479" d="m679.45 149.61 10.069 2.4595c-12.065-3.6397-23.414 7.5004-25.781 7.6764 10.097-10.2 14.323-9.5013 16.291-20.44l-0.57873 10.304" opacity=".401" stroke="#000" stroke-width="1.1587px"/>
    <path id="path16481" d="m618.26 170.6c-0.9095 1.5273-2.8971 2.4077-2.0698 4.977-1.7987 1.3532-4.0494 3.2428-3.9176 6.1405-2.2162 1.9363-6.006 3.5112-4.8142 6.9621-1.7198 2.7105-4.2865 5.07-3.8327 8.8674-3.4133 2.4543-5.2362 6.3152-3.6977 8.0187-3.4791 2.7466-3.0621 5.0931-3.6285 8.2038-1.5611 2.6266-3.45 4.806-2.869 8.1467-2.1347 2.2061-3.8334 5.3023-3.2851 8.2749-3.1941 2.9124-2.5467 6.3016-3.1067 9.9666-3.0824 1.7818-2.4533 7.438-3.4582 10.605-3.5878 4.577-2.413 7.8504-3.8277 12.427l1.0692 0.44478c2.9397-3.8019 5.4258-5.3474 3.7453-12.229 2.0429-2.6279 4.5461-6.4741 3.4797-10.657 3.3426-2.5956 3.5877-5.7325 3.1068-9.9668 3.0387-1.3217 3.263-4.8473 3.0794-7.7802 3.0774-2.0609 2.4735-5.2176 2.9419-8.3221 2.525-2.7889 4.9702-4.6903 3.7698-8.5436 2.5161-1.6123 3.2574-5.3431 3.6889-7.9977 2.9535-2.6449 3.6053-5.7791 3.8718-8.9614 3.0099-2.0756 4.9718-4.1811 4.7452-6.7962 2.7914-2.1192 3.7617-4.0935 3.9476-6.2127 3.2524-1.7078 1.8448-3.4155 2.1307-5.1233z" color="#000000" opacity=".45513" stroke-width="4.3793" style="-inkscape-stroke:none"/>
    <path id="path16483" d="m639.89 177.13c-0.17429 1.769-0.72999 3.4107 1.1108 5.3848-1.053 1.9894-0.17649 4.668 1.1743 7.2349-1.1831 2.6946-1.8967 5.6752 0.64874 8.2925-0.40464 3.1845-1.0147 6.3496 1.0098 9.5941-2.0465 3.6723-2.059 6.5578 0.0578 7.4459-1.9818 3.9649-0.22378 6.4702 0.58552 9.5267-0.29693 3.0411-1.2534 6.0492 0.69259 8.8262-0.99468 2.9042-1.9724 6.5808-0.21284 9.0385-1.6534 3.9938-1.1319 7.2516-0.081 10.807-2.0328 2.923-0.28816 6.022 0.14847 9.3157-0.76871 3.3457-0.67008 6.5297-0.28992 9.336-1.0837 2.596-2.0688 6.4502-0.081 8.7516-1.8395 4.3551 0.61942 7.9055 1.0375 8.7899l1.1568-0.0518c0.5244-1.2114 0.58741-4.2806-0.7771-9.0198 1.4747-4.0287 0.15021-7.6474-0.22247-8.8247 0.2032-2.3075 2.4864-6.159 0.34203-8.8189 0.73221-3.247 2.5924-6.0389-0.15066-9.3716 1.9224-3.7702 2.3161-7.1788 0.081-10.807 2.1888-2.488 1.6495-5.9265 0.23648-8.5033 1.9097-3.1734 0.19444-6.0068-0.70091-9.0159 1.1002-3.5977 2.1224-6.9165-0.60202-9.8943 1.5922-2.5288 0.68116-4.8369-0.0569-7.4231 1.5494-3.6495 0.0968-6.702-1.0146-9.6958 1.8423-3.1581 0.67577-5.8421-0.64088-8.1129 1.626-3.1046-0.44511-5.3158-1.1778-7.313 2.2182-2.9282-0.65094-3.8758-1.1178-5.5431z" color="#000000" opacity=".45513" stroke-width="4.3793" style="-inkscape-stroke:none"/>
    <path id="path16485" d="m660.44 184.47c0.48383 1.7104-0.24261 3.7591 2.192 4.9244-0.25356 2.2366 3.325 4.0332 5.5202 5.9292-0.11693 2.9406 1.3805 5.5224 4.706 7.0289 0.78657 3.1122 2.1391 5.9138 5.209 8.1944-0.56357 4.1661 2.013 7.0206 4.3077 7.0741-0.39633 4.4148 2.5605 5.5584 4.4306 8.108 0.8343 2.9394 1.5504 6.3296 4.3762 8.2039 0.13488 3.0668 1.5141 7.5638 4.0496 9.209-0.0802 4.3218 1.3713 5.7736 3.6483 8.6995-0.82459 3.4635 2.0701 5.2856 3.6797 8.1922 0.50647 3.3953 1.8892 6.3774 3.268 8.8509-0.0604 2.8125-0.90169 6.369 1.7896 7.7852-0.13795 1.1421-1.6819 5.5047 2.2017 8.4253-0.23079 2.5707-1.8405 6.982 1.4679 9.9359 0.32407 2.5646-1.5544 5.4127 1.6679 8.737-0.56629 2.1413-2.6642 6.4929 0.46201 8.8974-1.0238 4.2391-1.3169 6.5472 0.98715 8.7726-0.99429 3.7615-3.5607 6.124 0.10161 9.349 0.54027 2.7974-1.7848 4.6793 1.5818 6.9017l1.8594-0.66235c-0.10816-3.1934 0.59147-4.3414-1.3478-7.1112-0.0394-2.5998 2.5515-7.3121-0.0994-9.4134 0.34378-2.9336 1.0273-5.2931-1.0354-8.318 0.0889-3.6966 0.95513-6.1499-1.212-8.4705 0.17429-3.181 0.40639-6.9941-1.2331-9.2928-0.35254-3.2974-0.40686-7.3552-2.2448-9.7594-0.52771-5.6224-1.1819-7.9794-1.9402-8.7712-0.099-4.289-1.3219-6.7824-2.0985-7.7424-0.65365-2.2223-0.0626-6.6958-3.0307-8.3885-0.50442-3.2901 0.0684-6.143-3.7023-8.2434 0.41209-4.2119-0.24262-6.1384-3.6484-8.6997 1.1288-3.1156-1.5754-6.8369-3.8321-8.7195 0.61845-3.6517-2.5205-5.9033-4.4533-8.3775-0.28991-3.751-0.95644-6.6674-4.5803-8.4442 0.5584-2.9357-2.6669-4.9153-4.2986-7.0533 0.10904-3.9632-3.1224-5.9064-5.2506-8.2874 0.56133-3.6128-2.5778-5.2317-4.6331-6.8646 0.37969-3.4841-4.1404-4.4091-5.552-6.0007 0.9952-3.5361-1.2128-3.6876-2.2564-5.0692z" color="#000000" opacity=".45513" stroke-width="4.3793" style="-inkscape-stroke:none"/>
    <path id="path16487" d="m601.3 167.34c-1.2295 1.2838-1.5488 3.4338-4.2455 3.3211-0.82503 2.0942-4.8282 2.0027-7.6563 2.6476-1.2759 2.652-3.8093 4.2298-7.4529 4.0007-2.1544 2.3798-4.6629 4.2197-8.4438 4.7942-1.4561 3.9438-5.0706 5.2564-7.1224 4.2274-1.7206 4.085-4.8684 3.7082-7.7158 5.0829-2.1154 2.2048-4.338 4.8631-7.7128 5.1931-1.5575 2.6454-4.8848 5.9702-7.8957 6.2341-1.9562 3.8546-3.919 4.456-7.3024 5.9722-0.89614 3.4457-4.3073 3.6973-7.0921 5.5095-2.0397 2.7612-4.6596 4.7464-7.0374 6.2843-1.2657 2.5123-2.1907 6.048-5.2319 6.0364-0.41384 1.0734-1.0963 5.6506-5.896 6.4086-1.0018 2.3786-1.6492 7.0296-5.9565 8.0869-1.489 2.113-1.1657 5.5095-5.5708 6.9342-0.50417 2.1568-0.0267 5.8318-3.9153 6.4892l-2.2479-0.23333c1.6552-3.3065 2.0408-5.8795 5.0432-6.9126 1.338-2.8912 2.9214-6.3678 5.4475-7.629 1.8579-2.7469 3.809-6.3053 6.5598-7.5666 3.103-4.7181 4.7863-6.493 5.8273-6.8367 2.099-3.7416 4.3485-5.3702 5.4846-5.8538 1.6196-1.6561 3.1957-5.8843 6.611-5.9872 1.9886-2.6693 2.8208-5.4575 7.1361-5.5441 1.6115-3.9132 3.0933-5.3076 7.3024-5.9724 0.4643-3.2811 4.598-5.2994 7.4741-5.9037 1.1665-3.5152 4.9948-4.0316 7.8623-5.3103 2.0153-3.1769 3.9717-5.44 8.0057-5.3096 0.88365-2.8547 4.6607-3.0903 7.1045-4.2133 1.7625-3.5514 5.5279-3.752 8.5242-4.8568 1.1987-3.4541 4.7304-3.4116 7.3115-3.8898 1.2987-3.2552 5.7247-1.9522 7.7178-2.6959 0.77971-3.5898 2.8006-2.688 4.3704-3.4188z" color="#000000" opacity=".45513" stroke-width="4.3793" style="-inkscape-stroke:none"/>
    <path id="path16489" d="m577.95 165.46c-1.553 0.86492-2.491 2.8258-5.035 1.9242-1.405 1.7586-5.2038 0.49271-8.0965 0.2766-2 2.1589-4.8856 2.9211-8.3003 1.6296-2.7595 1.6402-5.6984 2.6602-9.481 2.0962-2.5526 3.3404-6.3932 3.5309-8.0512 1.9436-2.8468 3.3976-5.7443 2.1108-8.8702 2.5864-2.6708 1.4844-5.5774 3.3707-8.8997 2.6927-2.2672 2.0696-6.4258 4.2678-9.381 3.6336-3.0042 3.108-5.0571 3.1049-8.7368 3.5581-1.8708 3.0292-5.2048 2.2656-8.3996 3.1777-2.7622 2.0384-5.8503 3.1645-8.5756 3.9343-1.9492 2.0284-3.874 5.1351-6.777 4.2289-0.71147 0.90404-2.7111 5.0775-7.5213 4.389-1.6576 1.9784-3.6453 6.2327-8.073 5.9752-2.045 1.5811-2.7359 4.9223-7.3652 4.9871-1.1167 1.9128-2.7174 6.4708-6.6274 5.9544-2.2793 3.7179-3.707 5.555-6.9098 5.4944-1.9619 3.3598-1.8232 6.8454-6.6928 6.5284-0.34462 0.35631-0.46488 3.2998-3.8802 5.0237-0.86584 2.0757-2.7512 4.3352-5.3354 5.9741-0.76097 2.2436-0.93195 4.8707-4.1875 6.0631-1.2079 2.5805-2.9186 5.4716-4.7236 6.0318-0.99004 2.5653-1.3681 4.7977-4.2061 6.0204-0.18292 4.2418-2.6646 4.0249-4.0167 5.4931-0.77589 3.462-2.2854 5.4824-4.5026 6.672-0.65319 1.9765-1.8934 2.9735-3.678 4.2016-0.95198 1.9545-4.1888 6.3888-5.0041 6.1954-0.4272-0.54872-2.3199-0.8033 0.51421-2.3819 0.16982-0.41835 0.92961-3.834 2.9449-4.8064 0.21055-2.5837 1.9016-3.7076 3.4685-4.8413 1.369-2.185 0.89862-5.82 4.9547-6.9301 0.92003-1.9974 1.65-4.2077 3.9488-5.5178-0.18127-2.5058 1.5519-4.2828 4.1118-5.7126 0.08-3.3691 2.451-4.4263 4.2976-5.9064 0.55504-2.0578 2.3018-4.0398 4.3638-5.8853 0.82579-4.3106 3.3292-5.1007 5.034-6.5158 0.33414-4.0362 4.1451-5.2513 5.0356-5.2757 1.869-1.8075 3.3772-6.9694 6.7369-6.5755 1.835-2.3146 3.0234-4.4645 6.6219-5.1392 2.5552-2.6727 3.6811-5.0183 6.8546-5.1218 2.1298-2.3692 4.6664-5.2257 7.4519-5.6875 2.5842-2.0783 5.4963-4.9047 8.4966-5.3004 4.3544-3.5957 6.4855-4.7964 7.5816-4.8184 3.1074-2.958 5.7366-3.8523 6.9648-3.98 2.0353-1.106 4.7862-4.6829 8.0806-3.7759 2.6862-1.9656 4.3023-4.3854 8.452-3.1978 2.692-3.2655 4.5186-4.1619 8.737-3.5582 1.4096-2.999 5.9542-3.7111 8.8807-3.442 2.1496-3.0161 5.9603-2.3827 9.0771-2.7606 2.8612-2.4429 5.3972-4.0298 9.214-2.7178 1.6849-2.4681 5.3639-1.5814 8.03-1.9353 2.7298-2.8753 6.3874-1.9586 9.5761-2.1324 2.1623-2.9482 5.5251-1.868 8.1325-1.5652 2.1994-2.7287 6.0458-0.18058 8.1695-0.30455 1.8017-3.2013 3.4678-1.7445 5.1831-1.9808z" color="#000000" opacity=".45513" stroke-width="4.3793" style="-inkscape-stroke:none"/>
    <path id="path16491" d="m715.01 337.17" fill="none" stroke="#000" stroke-width="1.1587px"/>
   </g>
  </g>
 </g>
</svg>
