<?xml version="1.0" encoding="UTF-8"?>
<svg id="svg5" width="1200mm" height="1200mm" version="1.1" viewBox="0 0 1200 1200" xmlns="http://www.w3.org/2000/svg" xmlns:xlink="http://www.w3.org/1999/xlink">
 <g id="layer60" transform="translate(19.4 11.241)">
  <g id="layer214">
   <g id="layer188">
    <path id="rect264569" d="m693.88 595.68c3.2283 0 5.8272 2.999 5.8272 6.7242v119.16c-6.1513 5.1116-1.1711 8.6849 0 12.785v374.96c0 3.7252-2.599 6.7242-5.8272 6.7242-3.2283 0-5.8272-2.999-5.8272-6.7242v-373.96c4.8467-8.6892 3.4438-12.485 0-14.682v-118.27c0-3.7252 2.599-6.7242 5.8272-6.7242z" fill="#a57038" stroke="#000" stroke-linecap="square" stroke-linejoin="round" stroke-width="1.8044"/>
    <path id="path268019" d="m688.02 1066.6c-1.4296 4.3417-1.2989 8.6716-4.9071 13.03l-22.064 0.1679c-6.0794 52.455 3.5084 86.596 33.54 94.68 24.247-9.2139 42.533-19.094 37.481-93.922l-25.97-1.471c-5.4905-3.3666-4.4328-7.241-6.2159-12.747z" fill="#6a6a6a" stroke="#000" stroke-width="1.5"/>
    <path id="rect264569-8" d="m700.31 1008.4v100.89c0 3.7307-2.8982 6.7342-6.4981 6.7342-3.5999 0-6.4981-3.0035-6.4981-6.7342v-100.8c3.1381 2.3531 9.1327 2.3509 12.996-0.096z" fill="#6a6a6a" stroke="#000" stroke-linecap="square" stroke-linejoin="round" stroke-width="1.9068"/>
    <path id="path269685" d="m702.39 1076-0.1577 38.899c-0.01 2.4687-2.6915 4.1692-7.1961 3.6619 0 0 1.5312 16.124 1.5346 24.211 5e-3 10.595-1.9836 31.722-1.9836 31.722 37.395-10.503 38.602-44.294 37.481-93.922l-25.97-1.471z" opacity=".11789" stroke="#000" stroke-width=".26458px"/>
    <path id="path269111" d="m668.45 1175c16.565-3.9431 34.363-3.6796 50.074 1.3803" fill="#4e2617" stroke="#000" stroke-linecap="round" stroke-width="1.5"/>
    <path id="path269687" d="m661.05 1079.8 22.064-0.1679 4.0409-5.0371 0.83706 36.892-6.3349-4.031c-4.8559-1.543-4.3356 4.8466-4.3708 10.417l7.6247 51.674c-8.1898-3.8657-30.564-9.8404-23.861-89.747" opacity=".1565" stroke="#000" stroke-width=".26458px"/>
    <path id="path266509" d="m688.05 720.68c2.5356-3.3949 8.1326 10.492 0 14.682" fill="none" stroke="#000" stroke-width="1.565"/>
    <path id="path266509-1" d="m699.81 720.73c-2.5262-0.70083-6.977 10.266 0 14.682" fill="none" stroke="#000" stroke-width="1.565"/>
    <ellipse id="path268883" cx="700.59" cy="1013" rx=".99675" ry="1.7624" fill="#6a6a6a" stroke="#000" stroke-linecap="square" stroke-linejoin="round" stroke-width="1.5"/>
    <ellipse id="path268887" cx="700.54" cy="1023.2" rx=".99949" ry="2.123" fill="#6a6a6a" stroke="#000" stroke-linecap="square" stroke-linejoin="round" stroke-width="1.5"/>
    <ellipse id="path268883-3" cx="686.37" cy="1013.1" rx=".99675" ry="1.7624" fill="#6a6a6a" stroke="#000" stroke-linecap="square" stroke-linejoin="round" stroke-width="1.5"/>
    <ellipse id="path268887-3" cx="686.32" cy="1023.3" rx=".99949" ry="2.123" fill="#6a6a6a" stroke="#000" stroke-linecap="square" stroke-linejoin="round" stroke-width="1.5"/>
    <path id="path275872" d="m692.27 686.05c0.21394-20.246-0.14718-40.812-1.097-61.705 0 0 2.3668 30.699 2.1939 46.073-0.0589 5.2232-1.097 15.632-1.097 15.632z" fill-opacity=".4739"/>
    <path id="path275874" d="m690.81 766.8 0.95986 79.943 0.41129-47.582z" fill-opacity=".45783"/>
    <path id="path275876" d="m695.91 725.62 0.95986 79.943-0.27447-47.445z" fill-opacity=".45783"/>
    <path id="path275878" d="m693.48 823.08 0.77565 62.83c0.94975-21.015 0.46756-41.945-0.77565-62.83z" opacity=".13462"/>
    <path id="path275880" d="m696.64 878.62-0.27406 47.17s-0.56672-17.278-0.49301-25.919c0.0605-7.0881 0.76707-21.251 0.76707-21.251z" fill-opacity=".28514"/>
    <path id="path275882" d="m691.65 891.73-0.58178 27.925s1.2556-15.877 1.0666-23.852c-0.029-1.3022-0.4848-4.0724-0.4848-4.0724z" fill-opacity=".44177"/>
    <path id="path275884" d="m694.69 703.03 1.0665-9.3082s-0.13683 3.5277-0.34993 5.2779c-0.1646 1.3545-0.71682 4.0303-0.71682 4.0303z"/>
    <path id="path275886" d="m694.62 616.55-1.0665-9.3082s0.13682 3.5277 0.34993 5.2779c0.1646 1.3545 0.71681 4.0303 0.71681 4.0303z" fill-opacity=".28916"/>
    <path id="path275888" d="m690.95 873.95 1.0306-9.3122s-0.65127 3.4697-0.83283 5.2235c-0.14097 1.3572-0.19777 4.0888-0.19777 4.0888z" fill-opacity=".28916"/>
    <path id="path275890" d="m691.54 971.87 1.0665-9.3082s-0.13682 3.5276-0.34993 5.2779c-0.1646 1.3545-0.71681 4.0303-0.71681 4.0303z" fill-opacity=".56626"/>
    <path id="path275892" d="m694.22 930.68 0.95986 79.943 0.41129-47.582z" fill-opacity=".41767"/>
   </g>
  </g>
 </g>
</svg>
