<?xml version="1.0" encoding="UTF-8"?>
<svg id="svg5" width="1200mm" height="1200mm" version="1.1" viewBox="0 0 1200 1200" xmlns="http://www.w3.org/2000/svg" xmlns:xlink="http://www.w3.org/1999/xlink">
 <defs id="defs77">
  <linearGradient id="linearGradient44704" x1="58.755" x2="116.68" y1="131.59" y2="122.16" gradientTransform="matrix(4.1461 0 0 4.1461 114.09 47.714)" gradientUnits="userSpaceOnUse">
   <stop id="stop2-7" offset="0"/>
   <stop id="stop4-39" stop-opacity="0" offset="1"/>
  </linearGradient>
 </defs>
 <g id="layer60" transform="translate(19.4 11.241)">
  <g id="layer62">
   <g id="g61839">
    <path id="path61835" d="m372.49 473.47c-2.1525 0.67027-1.9032 18.133-4.5189 17.895-2.2771 16.791 29.895 139.35 210.69 133.22 77.135-4.6004 110.07-33.115 148.29-103.86-1.5349 1.1273-4.4344-23.245-4.2167-20.917l-0.41899 3.3334c-7.0193 47.686-56.133 81.266-126.89 36.48-5.6498-3.5761-7.7349-5.5154-13.47-2.8003-4.8653 3.15-7.1851 1.4528-9.3394 0.25496-4.3116-2.3975-9.3506-2.0574-13.479-0.0472-114.68 67.247-176.83-22.056-183.44-64.236-0.0361-0.23037-2.1148-0.41728-3.2036 0.68603z" fill="#ff8d8d" stroke="#000" stroke-width="2.1767"/>
    <path id="path61837" d="m372.49 473.47c-2.1525 0.67025-1.9032 18.133-4.5189 17.895-0.88545 5.8147-5.1984 33.798 13.846 55.031 2.9199 16.356 4.2959 36.493 26.379 44.704 5.7285 16.167 14.203 30.383 31.911 31.804 20.55 27.227 35.336 29.318 53.331 28.265 10.715 11.894 18.385 14.171 37.574 13.939 9.2401 7.9361 18.643 15.269 40.338 5.5943 15.01 4.9004 25.062-1.2893 32.954-9.8727 12.754 1.8283 22.463-3.5902 26.74-14.617 14.305 0.26576 27.418-1.3232 30.64-24.595 16.919-10.837 37.07-20.689 35.57-47.939 11.417-5.6616 19.339-13.606 16.179-28.086 11.684-3.3774 13.128-20.985 16.389-30.221-2.1389 0.73602-3.0304-9.62-4.5064-15.488-0.78469-3.1198-3.8018-3.6015-3.6489-2.7935l-0.8303 7.4471c-7.0193 47.686-54.659 79.86-125.41 35.075-5.6498-3.5761-7.7348-5.5155-13.47-2.8003-4.8653 3.15-7.1851 1.4528-9.3394 0.25498-4.3116-2.3975-9.3506-2.0574-13.479-0.0473-118.38 62.719-174.49-16.975-183.44-64.236-0.0434-0.22928-2.1148-0.4173-3.2036 0.68601z" fill="#ff8080" stroke="#000" stroke-width="2.1767"/>
    <path id="path61837-8" d="m372.07 474.24c-2.1525 0.67025-1.9032 18.133-4.5189 17.895-0.88545 5.8147-5.1984 33.798 13.846 55.031 2.9199 16.356 4.2959 36.493 26.379 44.704 5.7285 16.167 14.203 30.383 31.911 31.804 20.55 27.227 35.336 29.318 53.331 28.265 10.715 11.894 18.385 14.171 37.574 13.939 9.2401 7.9361 18.643 15.269 40.338 5.5943 15.01 4.9004 25.062-1.2893 32.954-9.8727 12.754 1.8283 22.463-3.5902 26.74-14.617 14.305 0.26576 27.418-1.3232 30.64-24.595 16.919-10.837 37.07-20.689 35.57-47.939 11.417-5.6616 19.339-13.606 16.179-28.086 11.684-3.3774 13.128-20.985 16.389-30.221-2.1389 0.73602-3.0304-9.62-4.5064-15.488-0.78468-3.1198-3.8018-3.6015-3.6489-2.7935l-0.8303 7.4471c-7.0193 47.686-54.659 79.86-125.41 35.075-5.6498-3.5761-7.7348-5.5155-13.47-2.8003-4.8653 3.15-7.1851 1.4528-9.3394 0.25498-4.3116-2.3975-9.3506-2.0574-13.479-0.0473-118.38 62.719-174.49-16.975-183.44-64.236-0.0434-0.22928-2.1148-0.4173-3.2036 0.68601z" fill="url(#linearGradient44704)" opacity=".073718" stroke="#000" stroke-width="2.1767"/>
    <path id="path41463" d="m397.27 549.08c0.40034 7.4711 0.85855 13.379 3.231 18.584 2.3725 5.2052 6.6622 9.635 14.552 14.131l0.12148 0.073c-8.6437-7.3548-10.782-9.0707-13.677-14.665-1.9636-2.6458-2.8125-10.516-4.2271-18.123z" color="#000000" opacity=".19872" stroke-width="4.1461" style="-inkscape-stroke:none"/>
    <path id="path41465" d="m455.94 611.22c3.6154 3.9516 7.3168 7.8722 11.96 10.641s10.239 4.3631 17.524 3.6602c-6.9524-0.0527-11.68-1.5249-16.965-4.5995-3.6892-2.1444-6.8178-5.0061-12.519-9.7012z" color="#000000" opacity=".19872" stroke-width="4.1461" style="-inkscape-stroke:none"/>
    <path id="path41467" d="m547.89 635.58c6.9674 5.1014 13.061 7.4864 18.981 7.4905 5.9206 4e-3 11.603-2.3698 17.742-6.5916-7.0248 3.4181-11.182 5.3951-17.734 5.4903-5.8397 0.26203-15.859-5.1897-18.989-6.3892z" color="#000000" opacity=".19872" stroke-width="4.1461" style="-inkscape-stroke:none"/>
    <path id="path41469" d="m632.95 620.19c-2.6039 1.832-3.3613 1.9621-9.6609 4.8668 3.6702-0.88204 7.2686-1.9424 10.268-3.9518 2.9994-2.0094 5.374-4.9894 6.543-9.5716-1.5764 2.7578-4.3999 6.7658-7.1502 8.6566z" color="#000000" opacity=".19872" stroke-width="4.1461" style="-inkscape-stroke:none"/>
   </g>
  </g>
 </g>
</svg>
