<?xml version="1.0" encoding="UTF-8"?>
<svg id="svg5" width="1200mm" height="1200mm" version="1.1" viewBox="0 0 1200 1200" xmlns="http://www.w3.org/2000/svg" xmlns:xlink="http://www.w3.org/1999/xlink">
 <g id="layer60" transform="translate(19.4 11.241)">
  <g id="layer134">
   <g id="layer141">
    <path id="path2-88" d="m577.29 607.41s58.252 86.798 58.468 131.02c-1.1045 58.8-86.823 45.317-131.13 42.004" fill="none" stroke="#000" stroke-width="3.5864"/>
    <g id="g10" transform="matrix(4.1461 0 0 4.1461 114.5 46.946)" fill-opacity=".99763">
     <path id="path4-0" d="m93.81 178.34c-0.62808 0.68407-1.3272 0.93091-2.3422 0.82694-0.86735-0.0888-1.3448-0.34922-1.7414-0.94965-0.74752-1.1318-0.73855-1.8196 0.0386-2.9574 0.91703-1.3425 3.1819-1.3156 4.1208 0.0489 0.24361 0.35408 0.42748 0.80836 0.46619 1.1518 0.0403 0.35795 5.1e-4 0.56052-0.0123 0.71985-0.0163 0.20329-0.0538 0.64134-0.52961 1.1595zm-3.5117-0.65138c0.28796 0.52195 0.7404 0.74544 1.509 0.74544 0.77469 0 1.2204-0.22317 1.5238-0.76296 0.35397-0.62979 0.35261-1.193-4e-3 -1.8283-0.22809-0.40584-0.40159-0.53799-0.90094-0.68629-0.53798-0.15975-0.70078-0.1592-1.2514 4e-3 -0.56921 0.16904-0.66642 0.25518-0.96569 0.85572-0.35541 0.71322-0.34637 0.88183 0.0896 1.672z"/>
     <path id="path6-34" d="m105.32 135.6c0-0.1579-0.20117-0.16948-1.0262-0.16948l0.15803-0.53284c1.992 0.0234 3.9186-0.0386 5.1236-0.12276 0.81309-0.0567 1.6202-0.0878 2.4208-0.17151l0.26964 0.68546c-0.15705 0.23639-0.22878 0.59896-0.1676 1.1681 0 0 0.69216 23.103 2.9977 50.592 2.3056 27.489 4.4152 50.467 4.4593 51.705 0.0442 1.2388-0.0476 8.4421-0.20385 16.007-0.24097 11.666-0.25726 13.782-0.10729 13.932 0.20719 0.20719 3.0601 0.62722 5.7495 0.84649 1.2956 0.10563 1.9053 0.20758 2.0386 0.34087 0.16775 0.16775 0.16579 0.20381-0.0166 0.3059-0.39281 0.21983-2.0158 0.2664-3.5839 0.10282-1.5433-0.16098-3.9884-0.80709-4.5043-1.1903-0.22548-0.16747-0.51904-2.4652-2.8574-22.365-0.76965-6.55-0.80826-6.95-0.9067-9.3955-0.0385-0.95563-0.12428-2.5773-0.19068-3.6037s-0.50038-7.9476-0.96439-15.38c-0.46401-7.4327-0.87393-13.651-0.91093-13.818-0.0575-0.25953-0.11764-0.28973-0.41528-0.20864-0.59548 0.16222-5.4911 0.22162-6.0288 0.0731-0.37131-0.10251-0.52774-0.0969-0.63704 0.0228-0.0982 0.10758-0.32037 4.7008-0.6894 14.252-0.80442 20.821-0.78051 20.421-1.6755 27.993-2.5342 21.44-2.7044 22.777-2.9203 22.937-0.11578 0.086-0.75511 0.33787-1.4207 0.55962-1.8384 0.61246-5.0555 0.93672-6.3207 0.63709l-7e-5 2e-5c-0.54243-0.12847-0.59439-0.18685-0.36789-0.41335 0.12673-0.12674 0.76593-0.23222 2.0332-0.33555 2.6743-0.21805 5.5425-0.63947 5.7475-0.84448 0.14731-0.14731 0.1291-2.4673-0.1156-14.735-0.24474-12.27-0.26577-14.951-0.13363-17.039 0.0862-1.3631 1.6025-24.471 3.3695-51.351s1.6414-48.894 1.6414-49.144"/>
     <path id="path8-28" d="m88.085 204.21c-1.6238 0.3264-2.5394 2.3982-1.6659 3.7693 0.74035 1.1621 1.3692 1.4409 2.7038 1.1988 0.70801-0.12842 1.1352-0.46498 1.5581-1.2275 0.49484-0.89226 0.4768-2.3279-0.31912-2.9441-0.64573-0.49993-1.2472-0.56171-1.3871-1.1699 0 0-0.62868-0.1433-0.64146-0.0142-0.02989 0.30243-0.16211 0.37021-0.24834 0.38755zm-0.93449 3.4975c-0.27304-0.3502-0.32592-0.5642-0.26627-1.0778 0.20445-1.7606 2.1031-2.3507 3.1545-0.98042 0.37693 0.49126 0.40679 0.98883 0.10206 1.7011-0.34218 0.79977-0.6915 1.0584-1.4923 1.1049-0.78711 0.0457-0.93803-0.0296-1.4979-0.74781z"/>
    </g>
    <path id="path12-27" d="m552.94 606.36c-35.069 49.338-51.695 105.62-60.547 160.65-0.24138 1.4978-0.46556 3.0137-0.69631 4.5228h2.7982c0.2093-1.3622 0.4098-2.7332 0.62776-4.0858 8.8134-54.788 25.337-110.63 60.07-159.49l-2.2518-1.5962zm-63.32 179.91c-4.7 36.28-6.8632 74.506-9.05 107.16l2.7532 0.18658c2.1656-32.34 4.3125-70.068 8.8936-105.87l-2.2904-0.38559-0.30639-1.0905z" color="#000000" stroke-width="4.146" style="-inkscape-stroke:none"/>
   </g>
  </g>
 </g>
</svg>
