<?xml version="1.0" encoding="UTF-8"?>
<svg id="svg5" width="1200mm" height="1200mm" version="1.1" viewBox="0 0 1200 1200" xmlns="http://www.w3.org/2000/svg" xmlns:xlink="http://www.w3.org/1999/xlink">
 <defs id="defs77">
  <linearGradient id="linearGradient45091">
   <stop id="stop47" offset="0"/>
   <stop id="stop49" stop-opacity="0" offset=".53219"/>
   <stop id="stop51" stop-opacity=".40486" offset="1"/>
  </linearGradient>
  <filter id="filter31430-0" x="-.027718" y="-.0079768" width="1.0554" height="1.016" color-interpolation-filters="sRGB">
   <feGaussianBlur id="feGaussianBlur38-9" stdDeviation="0.087472422"/>
  </filter>
  <filter id="filter31438-5" x="-.027616" y="-.0062574" width="1.0552" height="1.0125" color-interpolation-filters="sRGB">
   <feGaussianBlur id="feGaussianBlur44-9-5" stdDeviation="0.087472422"/>
  </filter>
  <filter id="filter31454-0" x="-.036652" y="-.0064807" width="1.0733" height="1.013" color-interpolation-filters="sRGB">
   <feGaussianBlur id="feGaussianBlur56-1" stdDeviation="0.087472422"/>
  </filter>
  <filter id="filter31442-9" x="-.037403" y="-.0088397" width="1.0748" height="1.0177" color-interpolation-filters="sRGB">
   <feGaussianBlur id="feGaussianBlur47-1" stdDeviation="0.087472422"/>
  </filter>
  <filter id="filter31446-0" x="-.041309" y="-.014123" width="1.0826" height="1.0282" color-interpolation-filters="sRGB">
   <feGaussianBlur id="feGaussianBlur50-8" stdDeviation="0.087472422"/>
  </filter>
  <filter id="filter31450-9" x="-.021597" y="-.01255" width="1.0432" height="1.0251" color-interpolation-filters="sRGB">
   <feGaussianBlur id="feGaussianBlur53-4" stdDeviation="0.087472422"/>
  </filter>
  <linearGradient id="linearGradient6979" x1="61.027" x2="153.76" y1="223.67" y2="223.67" gradientUnits="userSpaceOnUse" xlink:href="#linearGradient45091"/>
 </defs>
 <g id="layer60" transform="translate(19.4 11.241)">
  <g id="layer17">
   <g id="g59881">
    <g id="g59877" transform="matrix(2.0815 0 0 1.4435 342.01 586.28)">
     <path id="path59837" d="m81.86 232.09 2.8144-7.5112" fill="none" stroke="#000" stroke-width=".26458px"/>
     <path id="path59839" d="m82.798 176.16c-7.8914 35.818-12.365 51.255-21.772 77.593 1.4991 2.971 4.2291 6.0195 4.2291 6.0195-0.65242 1.9868-1.2898 4.0434-1.2898 4.0434s12.317 3.7534 12.727 3.8326l0.31142-1.5171 4.8327 1.2064-0.2717 1.3148s12.713 2.0878 13.121 2.1744l0.13254-1.3281c0.82573 0.37923 8.5928 0.59311 8.5928 0.59311l0.0586 1.8145 13.147-1.4456-0.0352-1.0401s6.0776 0.0562 6.1174 0.0612l0.19607 1.1236 8.8565-1.5095-0.29885-1.7412 4.3115-0.68171 0.37923 2.0204 10.255-3.0402-0.89951-3.7852c1.09-0.37798 8.2628-1.8773 8.2628-1.8773-7.539-21.204-11.771-42.671-22.3-84.795-15.681-1.5166-33.006 0.0228-48.664 0.96367z" fill="#505152" stroke="#000" stroke-width=".83739"/>
     <g id="g59875">
      <path id="path59841" d="m88.874 218.93-12.591 48.642 0.82502 0.15054c1.1121-8.4508 12.972-44.617 11.766-48.793z" color="#000000" stroke-width="1.4822" style="-inkscape-stroke:none"/>
      <path id="path59843" d="m97.699 199.56-16.348 68.244 0.79053 0.93808c0.34292-4.6898 15.938-63.094 15.558-69.184z" color="#000000" stroke-width="1.8345" style="-inkscape-stroke:none"/>
      <path id="path59845" d="m101.31 211.85c-1.3199 21.366-5.5165 39.962-6.9437 58.031-0.02074 0.25835-0.04013 0.46633-0.05496 0.61659-0.01481 0.15027-0.03286 0.26409-0.02896 0.24608l0.81924 0.18235c0.02263-0.10258 0.02774-0.18817 0.04337-0.34738 0.01575-0.15918 0.03408-0.36971 0.05495-0.63106 0.78797-15.365 6.635-36.99 6.11-58.097z" color="#000000" stroke-width="1.4822" style="-inkscape-stroke:none"/>
      <path id="path59847" d="m106.5 216.18-3.4553 54.916 0.83044 0.39965c-0.57366-6.6683 4.2691-48.844 2.6249-55.315z" color="#000000" stroke-width="1.969" style="-inkscape-stroke:none"/>
      <path id="path59849" d="m111.72 196.25 4.4829 74.26 0.83079-0.0839c-1.3034-8.7353-3.3105-71.575-5.3137-74.175z" color="#000000" stroke-width="1.4822" style="-inkscape-stroke:none"/>
      <path id="path59851" d="m118.82 214.05 3.6655 56.622 0.83082-0.1157c-1.4879-7.5441-2.0508-52.563-4.4962-56.506z" color="#000000" stroke-width="1.4822" style="-inkscape-stroke:none"/>
      <path id="path59853" d="m121.94 203.23 9.2792 65.324 0.81925-0.16498c-1.5766-5.4321-7.488-61.23-10.098-65.158z" color="#000000" stroke-width="1.4822" style="-inkscape-stroke:none"/>
      <path id="path59855" d="m133.54 238.04 2.1557 30.529 0.77773-0.0671s-1.0632-12.547-1.7467-21.336z" color="#000000" stroke-width="1.8997" style="-inkscape-stroke:none"/>
      <path id="path59857" d="m131.29 205.6 13.785 56.276 1.1815 1.6073s-12.899-56.051-14.966-57.884z" color="#000000" stroke-width="1.4822" style="-inkscape-stroke:none"/>
      <path id="path59859" d="m85.495 204.65-20.626 54.969 0.77582 0.31845c1.3211-3.0838 17.253-43.779 19.851-55.287z" color="#000000" stroke-width="1.4822" style="-inkscape-stroke:none"/>
      <g id="g59873" fill-opacity=".37652">
       <path id="path59861" transform="matrix(1.4821 0 0 1.4821 -52.909 -84.213)" d="m84.447 204.5c-2.0229 7.1768-6.9482 20.331-2.3972 21.957-0.72524 2.0355-2.6404 4.4547-2.3234 5.6298-2.1024-0.85862-1.7244-2.1074-2.8533-4.0612 2.7791-8.2606 4.7922-15.088 7.574-23.526z" color="#000000" filter="url(#filter31430-0)" opacity=".51792" stroke-width=".26458px" style="-inkscape-stroke:none"/>
       <path id="path59863" transform="matrix(1.4821 0 0 1.4821 -52.909 -84.213)" d="m95.66 204.53c-1.2395 6.4124-3.3855 15.777-0.52571 15.81l-4.4054 17.739c-1.3027-1.9573-2.1022-1.3459-3.2854-0.67438z" filter="url(#filter31438-5)" opacity=".51792" style="mix-blend-mode:normal"/>
       <path id="path59865" transform="matrix(1.4821 0 0 1.4821 -52.909 -84.213)" d="m103.77 206.54c0.29008 7.2436-0.72149 12.872 3.2619 9.8089-0.19648 4.9232-1.6256 22.805-1.5772 22.56-1.5657 0.14909-3.5644-0.43782-5.7812-0.25458z" filter="url(#filter31454-0)" opacity=".51792" style="mix-blend-mode:normal"/>
       <path id="path59867" transform="matrix(1.4821 0 0 1.4821 -52.909 -84.213)" d="m112.87 214.89c1.1596 5.8849 3.1755 6.006 4.4981 6.3459l1.1146 17.403c-2.6691-0.58414-2.922-0.0464-4.2332-0.0941z" filter="url(#filter31442-9)" opacity=".51792" style="mix-blend-mode:normal"/>
       <path id="path59869" transform="matrix(1.4821 0 0 1.4821 -52.909 -84.213)" d="m122.22 222.34c1.1584 2.5802 2.8091 4.8536 4.3317 3.792l0.75037 10.612c-1.3438 0.0323-1.9109 0.47968-2.909 0.45995z" color="#000000" filter="url(#filter31446-0)" opacity=".51792" stroke-width=".26458px" style="-inkscape-stroke:none"/>
       <path id="path59871" transform="matrix(1.4821 0 0 1.4821 -52.909 -84.213)" d="m129.72 216.78c3.5101 7.7109 5.5047 11.512 9.7204 15.461l-5.5729 1.2676z" filter="url(#filter31450-9)" opacity=".51792" style="mix-blend-mode:normal"/>
      </g>
     </g>
    </g>
    <g id="g6290" transform="matrix(2.0815 0 0 1.4435 342.01 586.28)" fill="url(#linearGradient6979)" opacity=".23127">
     <path id="path6250" d="m81.86 232.09 2.8144-7.5112" stroke="#000" stroke-width=".26458px"/>
     <path id="path6252" d="m83.043 176.58c-9.154 35.365-12.582 50.855-22.016 77.173 1.4991 2.971 4.2291 6.0195 4.2291 6.0195-0.65242 1.9868-1.2898 4.0434-1.2898 4.0434s12.317 3.7534 12.727 3.8326l0.31142-1.5171 4.8327 1.2064-0.2717 1.3148s12.713 2.0878 13.121 2.1744l0.13254-1.3281c0.82573 0.37923 8.5928 0.59311 8.5928 0.59311l0.0586 1.8145 13.147-1.4456-0.0352-1.0401s6.0776 0.0562 6.1174 0.0612l0.19607 1.1236 8.8565-1.5095-0.29885-1.7412 4.3115-0.68171 0.37923 2.0204 10.255-3.0402-0.89951-3.7852c1.09-0.37798 8.2628-1.8773 8.2628-1.8773-7.539-21.204-11.611-38.385-22.055-84.375-8.4854-1.6315-42.622 0.10994-48.664 0.96367z" stroke="#000" stroke-width=".83739"/>
     <g id="g6288"></g>
    </g>
    <g id="g7097" transform="matrix(2.0815 0 0 1.4435 342.01 586.28)" opacity=".23127">
     <path id="path7089" d="m81.86 232.09 2.8144-7.5112" stroke="#000" stroke-width=".26458px"/>
     <path id="path7091" d="m83.043 176.58c-8.8781 36.39-12.592 50.856-22.016 77.173 1.4991 2.971 4.2291 6.0195 4.2291 6.0195-0.65242 1.9868-1.2898 4.0434-1.2898 4.0434s12.317 3.7534 12.727 3.8326l0.31142-1.5171 4.8327 1.2064-0.2717 1.3148s12.713 2.0878 13.121 2.1744l0.13254-1.3281c0.82573 0.37923 8.5928 0.59311 8.5928 0.59311l0.0586 1.8145 13.147-1.4456-0.0352-1.0401s6.0776 0.0562 6.1174 0.0612l0.19607 1.1236 8.8565-1.5095-0.29885-1.7412 4.3115-0.68171 0.37923 2.0204 10.255-3.0402-0.89951-3.7852c1.09-0.37798 8.2628-1.8773 8.2628-1.8773-7.539-21.204-59.484 22.726-73.179-16.493-5.3996-1.177 8.9231-48.751 8.4695-60.076 11.284-4.9299 16.479-5.8552 18.731-8.1646-3.9007-0.39217-18.436 0.91069-24.741 1.3219z" stroke="#000" stroke-width=".83739"/>
     <g id="g7095"></g>
    </g>
   </g>
  </g>
 </g>
</svg>
