<?xml version="1.0" encoding="UTF-8" standalone="no"?>
<svg
   id="svg5"
   width="1200mm"
   height="1200mm"
   version="1.1"
   viewBox="0 0 1200 1200"
   sodipodi:docname="Chibi Basic.svg"
   inkscape:version="1.3.2 (091e20e, 2023-11-25, custom)"
   xmlns:inkscape="http://www.inkscape.org/namespaces/inkscape"
   xmlns:sodipodi="http://sodipodi.sourceforge.net/DTD/sodipodi-0.dtd"
   xmlns="http://www.w3.org/2000/svg"
   xmlns:svg="http://www.w3.org/2000/svg">
  <defs
     id="defs1" />
  <sodipodi:namedview
     id="namedview1"
     pagecolor="#ffffff"
     bordercolor="#000000"
     borderopacity="0.25"
     inkscape:showpageshadow="2"
     inkscape:pageopacity="0.0"
     inkscape:pagecheckerboard="0"
     inkscape:deskcolor="#d1d1d1"
     inkscape:document-units="mm"
     inkscape:zoom="0.18322396"
     inkscape:cx="1659.1717"
     inkscape:cy="3050.9111"
     inkscape:window-width="1350"
     inkscape:window-height="1032"
     inkscape:window-x="2309"
     inkscape:window-y="28"
     inkscape:window-maximized="0"
     inkscape:current-layer="svg5"
     showguides="true" />
  <path
     id="path1"
     style="fill:#f7e2ab;fill-opacity:1;stroke:#000000;stroke-width:3;stroke-linecap:round;stroke-linejoin:round;stroke-dashoffset:102.992;stroke-dasharray:none;stroke-opacity:1"
     d="M 596.82869 617.2507 L 573.85438 617.76126 L 573.83836 618.71469 C 572.8581 618.71864 571.98444 618.78535 571.49277 619.08573 C 570.45097 619.72219 569.93104 620.25806 568.84021 621.87005 C 558.15545 637.65963 529.82081 731.34895 515.44606 792.05036 C 514.39432 796.49162 513.41779 800.75636 512.52789 804.80101 C 504.96216 839.18768 488.97764 904.01995 488.75725 904.91376 C 487.39557 905.53379 485.68147 906.55035 485.68147 906.55035 C 482.84522 909.15455 481.82218 912.05309 482.25325 916.26139 C 482.62155 919.85758 483.70108 921.8369 486.19048 923.4811 C 490.88337 926.58057 493.73487 926.54362 498.45226 923.32142 C 503.52564 919.85601 503.88016 911.74912 499.61963 907.39319 C 501.02958 903.20941 526.41138 827.75292 533.29923 795.8739 C 544.13659 758.6322 556.07097 725.72796 569.79726 681.5 C 570.21393 680.15747 571.43003 679.10039 572.77744 678.48882 C 572.60169 679.95323 543.61175 921.64517 541.17937 1043.557 C 540.30257 1087.5025 547.30561 1175.2776 547.30561 1175.2776 C 547.30561 1175.2776 533.1787 1169.7564 526.37356 1171.7042 C 522.43327 1172.832 517.18342 1179.8727 517.18342 1179.8727 C 517.18342 1179.8727 523.50599 1182.6426 526.88412 1182.9361 C 537.14673 1183.8278 557.51687 1179.2345 557.51687 1179.2345 C 557.51687 1179.2345 568.11407 1092.1021 572.83325 1048.6621 C 578.02358 1000.8852 587.1285 905.19901 587.1285 905.19901 C 587.1285 905.19901 599.61112 1010.0889 606.52939 1062.4473 C 611.48226 1099.9314 621.99511 1179.4732 621.99511 1179.4732 C 621.99511 1179.4732 639.91191 1184.8087 650.39596 1183.1603 C 654.03289 1182.5885 662.1787 1179.8727 662.1787 1179.8727 C 662.1787 1179.8727 656.15099 1172.592 650.30863 1171.4448 C 645.91572 1170.5823 632.31179 1174.5118 632.31179 1174.5118 C 632.31179 1174.5118 634.56716 1087.4169 632.56707 1046.1098 C 626.61773 923.23956 599.98859 678.89906 599.91532 678.22682 C 601.47786 678.76478 602.96077 679.97531 603.43397 681.5 C 617.16022 725.72796 629.09468 758.63272 639.932 795.87442 C 646.78365 827.58596 672.0424 902.35732 673.7103 907.28364 C 671.47607 909.69111 670.67879 912.4177 671.06705 916.20868 C 671.43522 919.80477 672.51488 921.78461 675.00428 923.42891 C 679.69677 926.5282 682.54878 926.49084 687.26658 923.26871 C 692.83267 919.46661 692.72082 910.07696 687.06349 906.18396 C 686.26785 905.63656 685.35116 905.16627 684.45073 904.82074 C 684.19084 903.7667 668.25956 839.14505 660.70334 804.80152 C 659.81344 800.75689 658.83638 796.49212 657.78466 792.05088 C 643.40994 731.34946 615.07572 637.66013 604.39102 621.87057 C 603.30019 620.25858 602.78025 619.7227 601.73846 619.08624 C 600.8472 618.54175 598.82406 618.68544 596.90465 618.755 L 596.82869 617.2507 z " />
</svg>
