<?xml version="1.0" encoding="UTF-8"?>
<svg id="svg5" width="1200mm" height="1200mm" version="1.1" viewBox="0 0 1200 1200" xmlns="http://www.w3.org/2000/svg" xmlns:xlink="http://www.w3.org/1999/xlink">
 <g id="layer60" transform="translate(19.4 11.241)">
  <g id="layer23">
   <g id="layer30" transform="translate(-19.4 -11.241)">
    <path id="path11229" d="m0.018248 598.46 357.99 176.42s142.18-49.686 296.66-40.396c76.664 4.6101 129.35 90.336 223.52 61.722 137.47-41.77 232.26-404.78 325.82-410.95l1.6651 213.21v602.83h-1205.7z" fill="#ab9d88" stroke-width=".20094"/>
    <path id="path11227" d="m451.47 1072.7c4.8828-24.694 19.904-76.686 26.734-110.88 18.304-56.998 38.2-123.14 91.993-156.28 59.69-21.038 102.63 40.16 137.69 78.452 42.925 53.743 101.07 94.166 167.84 111.76 25.855 9.5036 114.49 57.564 102.49 27.158-67.5-39.835-166.71-51.25-221.84-112.25-47.314-41.67-79.401-107.76-144.89-123.72 75.008-6.5722 120.48 65.192 188.72 82.033 81.549 28.926 167.53-18.887 214.78-84.959 73.942-84.045 107.41-197.11 190.59-273.63 0.109 217.72-0.017 435.46 0.1002 651.97-0.1918 20.506 7.0869 48.484-23.123 38.972zm375.23-218.53c-78.616-3.7378-125.81-86.882-206.02-84.209-78.883 15.816 30.703-37.508 57.469-18.65 53.931 14.581 89.739 68.545 148.46 74.792 84.501 8.9891 146.95-61.991 185.08-127.29 19.37-35.583 47.085-81.751 44.186-79.224-42.003 91.135-95.356 193.41-195.12 230.49-11.074 3.0063-22.58 4.41-34.049 4.0908zm-172.61-96.737c-0.78429-0.73408-0.78434 0.73406 0 0zm11.253 0c-1.0535-0.74044-1.0535 0.74043 0 0zm234.19 94.459c125.95-78.703 170.5-227.96 228.53-355.89 15.597-38.077 42.362-72.011 77.615-93.635-1.3797 28.76 2.7523 60.073-2.059 87.243-98.563 84.16-132.76 217.39-223.32 308.63-22.433 23.307-48.801 45.375-80.768 53.644z" fill="#9c8c77" stroke-width=".20094"/>
    <path id="path11225" d="m0.018248 637.01c0.097237-188.03-0.19785-376.06 0.25118-564.08 67.099 32.823 81.3 114.8 99.273 180.2 27.548 112.57 42.499 229.46 87.36 336.99 24.021 66.173 108.95 61.767 154.22 22.001 51.54-37.641 121.06-84.191 184.95-47.311 56.823 38.285 81.35 107.39 106.52 168.25-86.714 21.651-133.76 130.19-164.74 205.55-3.5644 11.284-3.4813 13.744-5.3165 19.468-13.209 41.201-36.14 77.1-27.824 109.61l-434.69 133.59z" fill="#938068" stroke-width=".20094"/>
    <path id="path11223" d="m0.018248 1071c1.1218-43.527-2.2342-89.383 1.6611-131.47 68.292-42.787 148.54-62.333 215.66-107.72 60.885-31.341 105.11-85.473 163.57-120.03 69.86-37.52 171.63-39.334 220.73 31.776-72.949 38.844-105.79 121.8-133.74 195.09-88.117-46.444-195.04-11.926-268.35 46.33-36.575 33.337 43.567-2.4916 56.797-18.485 61.699-33.38 143.29-47.769 206.54-9.9428-5.2728 25.52-20.787 77.874-24.89 104.36-71.041 71.98-303.98 101.94-436.95 138.98zm0.02331-359.86c0.19697-69.2-0.34041-141.67 0.3815-208.82 33.558 91.078 102.02 181.62 204.04 196.49 78.224 13.505 142.11-40.78 197.15-87.977 31.44-22.725 72.454-57.782 112.52-34.643 44.156 24.537 14.851 17.978-16.008 17.737-93.952 13.209-157.67 91.804-224.72 151.05-115.17 98.76-176.38 115.88-273.78 170.41l0.40019-98.512c-0.001822-35.246 0.0024773-70.492 0.0061725-105.74zm235.48 89.282c73.186-59.965 133.8-138.72 221.3-179.07 38.737-17.493 99.284-19.242 118.85 25.346 15.482 27.609 29.276 56.416 39.657 86.305-49.661-69.632-148.04-78.052-221.82-45.52-61.512 24.336-101.52 80.55-157.99 112.94zm-14.669-116.58c-117.32-30.08-223.75-158.94-220.75-268.3 0.36129-52.48-2.6554-112.48-0.86414-159.64 35.687 96.448 50.346 202.05 97.229 294.44 40.982 72.425 131.6 132.17 215.31 96.758 28.019-11.992 52.645-33.601 77.564-48.085-48.475 40.779-100.16 89.07-168.49 84.829zm-37.59-66.712c-67.442-38.847-94.366-116.12-113.89-186.95-24.274-69.76-32.517-146.63-70.093-211.31 3.1803-34.407-12.985-104.28-0.68931-125.92 60.687 0.4594 85.365 168.65 95.27 206.02 21.422 98.566 38.51 199.27 76.356 293.18 2.6708 8.0873 11.378 19.004 13.046 24.99z" fill="#84745e" stroke-width=".20094"/>
    <path id="path11221" d="m0.018248 1085.1c-2.0188-36.304-9.705-92.135 7.0856-116 147.67 8.4925 273.45 79.207 417.04 109.33 17.508 23.196 82.091 0.089 113.03 6.567 111.02 2.4927 221.7-19.778 330.32-41.507 113.06-18.814 224.84-44.92 338.19-61.973 0.6347 20.626-1.1136 40.614 0 59.515v160.29h-1205.7c-1.0729e-4 -38.741 2.145e-4 -77.483-1.6075e-4 -116.22zm82.909 93.406c12.19-12.99-17.604-35.322-14.278-14.769-12.311 13.996 5.7773 8.716 14.278 14.769z" fill="#68a240" stroke-width=".20094"/>
    <path id="path15226-9" d="m69.694 1171.8c-5.0472-12.118 7.3741-15.611 8.3253-3.7464 9.965-5.8967 17.338 5.7507 3.5383 9.5741 5.2823 12.472-6.4628 14.369-9.9904 3.3301-10.029 6.9009-16.877-10.304-1.8732-9.1578z" fill="#facf4c"/>
    <circle id="path16723-4" cx="75.522" cy="1174.6" r="4.2667" fill="#faa34c" fill-rule="evenodd" opacity=".78658" style="paint-order:fill markers stroke"/>
    <path id="path11217" d="m0.018248 1149c0.79031-17.109-1.5475-36.999 1.1089-52.448 36.898 5.1721 75.245 15.414 110.45 21.507 5.9416 3.0446 18.948 7.2169 28.192 9.3427 44.02 10.402 86.296 27.107 130.11 38.975 41.475 13.195 83.811 24.141 126.11 34.715-131.99 0.3309-263.99 0.1614-395.98 0.2274zm729.53 51.824c-85.254-22.131-170.11-45.633-256-65.284-71.911-16.918-141.41-42.01-213.5-58.132-87.049-19.468-179.52-42.202-260.02-48.105 0.82248-19.648-1.59-42.88 1.1554-60.397 144.99 7.2035 296.28 61.01 437.01 91.413l-0.5096 6.4563c-0.50523 6.4008 50.977 8.6381 79.577 10.668 118.81 5.7316 237.13-10.814 353.36-34.059 111.92-18.665 222.6-44.343 334.79-61.431 2.0391 17.359-1.6264 37.148 0.2817 51.813 10.366 33.769-22.213 23.69-45.413 24.782-101.67 5.5819-202.81 18.021-303.93 29.044-86.411 5.0942-172.45 16.687-259.21 15.436 68.183 22.29 138.51 36.307 209.11 48.054 46.511 9.6728 92.019 13.12 139.58 18.37 86.412 7.743 173.04 13.211 259.85 13.375 6.5352 21.702-10.744 19.589-27.013 18.485-149.69-0.315-299.53 0.5858-449.12-0.4875z" fill="#5a9830" stroke-width=".20094"/>
    <path id="path15226-93" d="m69.81 1171.4c-9.0496-10.04 3.1282-17.674 6.2735-5.5948 8.8635-4.555 14.339 4.5309 5.8174 8.9757 9.9451 8.0334-4.9818 17.036-8.607 4.4598-6.6124 5.9438-14.899-3.9742-3.4839-7.8407z" fill="#facf4c"/>
    <ellipse id="path16723-1" transform="matrix(.97411 -.22606 .22255 .97492 0 0)" cx="-187.27" cy="1159.6" rx="4.4515" ry="4.4846" fill="#faa34c" fill-rule="evenodd" opacity=".78658" style="paint-order:fill markers stroke"/>
    <path id="path15226" d="m1091.2 1116.9c-5.0472-12.118 7.3741-15.611 8.3253-3.7464 9.965-5.8967 17.338 5.7507 3.5383 9.5741 5.2823 12.472-6.4628 14.369-9.9904 3.3301-10.029 6.9009-16.877-10.304-1.8732-9.1578z" fill="#facf4c"/>
    <circle id="path16723" cx="1097.1" cy="1119.8" r="4.2667" fill="#faa34c" fill-rule="evenodd" opacity=".78658" style="paint-order:fill markers stroke"/>
    <path id="path15226-8" d="m861.11 1157.1c-7.6754-7.9912 1.1213-12.686 5.6075-5.4771 5.8724-5.5805 15.414 0.8357 5.6777 6.6759 7.9388 8.4975-1.1278 13.18-7.229 5.3205-7.8504 8.6821-15.361-2.4338-4.0562-6.5193z" fill="#2286d7"/>
    <circle id="path16723-9" transform="rotate(-20.098)" cx="416.22" cy="1384.2" r="3.6634" fill="#feaa3a" fill-rule="evenodd" opacity=".78658" style="paint-order:fill markers stroke"/>
    <path id="path46233" d="m196.25 1059.5c-0.14069-4.823 4.2665-6.608 7.8737-2.8699 3.7614-1.6606 6.6754-0.5224 6.6227 4.3416 5.1968 0.085 8.6263 4.715 2.2076 8.9775 1.4514 2.0343 2.634 5.3836-2.7227 7.0642-0.84288 5.6123-7.1937 5.5924-9.1247 1.3982-1.6871 3.5072-9.4773 4.6908-7.5058-4.7831-5.1503-0.2165-5.4483-5.4557-2.2076-7.8737-1.8614-6.6643 3.0662-6.5567 4.8567-6.2548z" fill="#f94dc9"/>
    <ellipse id="path47264" cx="202.69" cy="1067.3" rx="5.2614" ry="5.4822" fill="#feaa3a" fill-rule="evenodd" style="paint-order:fill markers stroke"/>
    <ellipse id="ellipse51018" transform="translate(19.4 11.241)" cx="567.23" cy="1162.4" rx="139.32" ry="19.844" fill-rule="evenodd" opacity=".095528" style="paint-order:fill markers stroke"/>
   </g>
  </g>
 </g>
</svg>
