<?xml version="1.0" encoding="UTF-8"?>
<svg id="svg5" width="1200mm" height="1200mm" version="1.1" viewBox="0 0 1200 1200" xmlns="http://www.w3.org/2000/svg" xmlns:xlink="http://www.w3.org/1999/xlink">
 <g id="layer60" transform="translate(19.4 11.241)">
  <g id="layer214">
   <g id="layer266" stroke="#000">
    <path id="path31211" d="m362.03 493.73c-0.49408 3e-3 -0.99285 0.0528-1.4955 0.14158l-7.4538 48.554 7.7324-7.7318c2.6707-2.6699 3.2259-5.5121 2.7399-7.2187-0.24302-0.85325-0.70763-1.4062-1.295-1.6759-0.58738-0.26961-1.3726-0.30368-2.4412 0.19691-0.56382 0.2641-1.2743 1.3119-1.3028 2.1818-0.0143 0.43492 0.0904 0.79367 0.35761 1.1054 0.2672 0.31168 0.73959 0.61883 1.6288 0.77359 0.54432 0.0944 0.909 0.61224 0.81441 1.1565-0.0954 0.5435-0.61291 0.90704-1.1565 0.81237-1.2271-0.21357-2.1829-0.7163-2.8045-1.4413-0.62153-0.72496-0.86527-1.6306-0.83767-2.4727 0.0553-1.6843 0.99195-3.2435 2.4531-3.9279 0.73554-0.34454 1.4709-0.52965 2.1699-0.56224 0.699-0.0326 1.3625 0.0872 1.9549 0.35914 1.1848 0.54385 2.0113 1.6426 2.3828 2.9471 0.74308 2.609-0.17915 6.1121-3.2499 9.1819-2.4355 3.3206-6.3798 6.7319-9.6702 9.7281l-1.9121 12.456c-2.8707 14.356 22.624 15.268 20.18 0.31989l-2.5957-22.933-5.3707 8.0388c-2.064 3.0888-2.1229 5.9653-1.3731 7.5313 0.37494 0.78304 0.90556 1.2301 1.5157 1.3886 0.61013 0.15841 1.3893 0.0577 2.3689-0.61341 0.55917-0.38311 1.1671-1.5487 1.1234-2.3497-0.022-0.4005-0.13901-0.6784-0.40256-0.90795-0.26358-0.22955-0.74896-0.45196-1.6583-0.46096-0.55145-6e-3 -0.99439-0.45624-0.99013-1.0077 5e-3 -0.55224 0.45752-0.99555 1.0098-0.99012 1.2387 0.0119 2.2439 0.33483 2.9512 0.95086s1.0408 1.485 1.0857 2.3068c0.0898 1.6437-0.70454 3.2265-1.9901 4.1073-1.3341 0.91398-2.7531 1.2245-4.0018 0.90019-1.2487-0.32424-2.2374-1.2529-2.8148-2.4588-1.1548-2.4116-0.65968-5.8418 1.5136-9.5079 2.0227-3.4122 4.5311-6.7152 6.6957-9.91l-4.394-38.826c-0.48382-0.0998-0.97301-0.14433-1.4671-0.14158z" fill="#fcfbe3" stroke-width="1.2"/>
    <path id="path30891" d="m361.93 486.08c3.8066-0.23225 4.7022 8.3393 0.42472 9.1411" fill="none" stroke-linecap="round" stroke-width=".8"/>
    <ellipse id="path38341" cx="362.11" cy="495.24" rx=".4207" ry=".44573" fill-rule="evenodd" stroke-linecap="round" stroke-linejoin="round" stroke-width=".069271" style="paint-order:fill markers stroke"/>
    <path id="path31211-4" d="m732.74 516.58c-0.42463 2e-3 -0.8533 0.0454-1.2853 0.12167l-6.4062 41.73 6.6456-6.6452c2.2954-2.2947 2.7726-4.7374 2.3548-6.2041-0.20886-0.73335-0.60818-1.2086-1.113-1.4403-0.50481-0.23172-1.1796-0.26101-2.0981 0.16923-0.48459 0.22698-1.0952 1.1275-1.1197 1.8751-0.0123 0.37379 0.0777 0.68212 0.30737 0.95 0.22964 0.26787 0.63564 0.53186 1.3999 0.66486 0.46782 0.0811 0.78125 0.52621 0.69995 0.99399-0.0819 0.46712-0.52677 0.77956-0.99397 0.69819-1.0546-0.18355-1.8761-0.61563-2.4103-1.2387-0.53418-0.62307-0.74367-1.4014-0.71994-2.1252 0.0475-1.4476 0.85253-2.7876 2.1083-3.3759 0.63217-0.29612 1.2642-0.45521 1.8649-0.48323 0.60077-0.028 1.171 0.0749 1.6802 0.30867 1.0183 0.46743 1.7286 1.4118 2.0479 2.5329 0.63865 2.2423-0.15397 5.253-2.7932 7.8914-2.0932 2.8539-5.4832 5.7858-8.3111 8.3609l-1.6434 10.705c-2.4672 12.339 19.444 13.122 17.344 0.27493l-2.2309-19.71-4.6159 6.909c-1.774 2.6547-1.8245 5.1269-1.1801 6.4728 0.32224 0.67297 0.77828 1.0572 1.3026 1.1934 0.52438 0.13614 1.1941 0.0496 2.0359-0.52719 0.48058-0.32928 1.0031-1.3311 0.96555-2.0195-0.0189-0.34421-0.11947-0.58305-0.34598-0.78034-0.22653-0.1973-0.6437-0.38844-1.4252-0.39617-0.47394-5e-3 -0.85463-0.39213-0.85097-0.86606 4e-3 -0.47463 0.39322-0.85564 0.86785-0.85099 1.0646 0.0104 1.9285 0.28778 2.5365 0.81723 0.60791 0.52945 0.89453 1.2763 0.93312 1.9826 0.0771 1.4127-0.60551 2.773-1.7104 3.53-1.1466 0.78552-2.3662 1.0524-3.4394 0.77367-1.0732-0.27868-1.923-1.0768-2.4192-2.1132-0.9925-2.0727-0.56696-5.0207 1.3009-8.1716 1.7385-2.9327 3.8943-5.7714 5.7547-8.5172l-3.7765-33.369c-0.41582-0.0858-0.83626-0.12404-1.2609-0.12167z" fill="#fcfbe3" stroke-width="1.0314"/>
    <path id="path30891-9" d="m732.66 510.01c3.2716-0.19961 4.0413 7.1673 0.36502 7.8564" fill="none" stroke-linecap="round" stroke-width=".68756"/>
    <ellipse id="path38341-4" cx="732.82" cy="517.87" rx=".36158" ry=".38308" fill-rule="evenodd" stroke-linecap="round" stroke-linejoin="round" stroke-width=".059535" style="paint-order:fill markers stroke"/>
   </g>
  </g>
 </g>
</svg>
