<?xml version="1.0" encoding="UTF-8"?>
<svg id="svg5" width="1200mm" height="1200mm" version="1.1" viewBox="0 0 1200 1200" xmlns="http://www.w3.org/2000/svg" xmlns:xlink="http://www.w3.org/1999/xlink">
 <g id="layer60" transform="translate(19.4 11.241)">
  <g id="layer214">
   <g id="layer173">
    <path id="path48403" d="m652.47 320.45 5.2874-4.031" fill="none" stroke="#000" stroke-width="1.165"/>
    <path id="path48405" d="m666.51 309.45 3.888-3.0115" fill="none" stroke="#000" stroke-width="1.165"/>
    <path id="path48407" d="m682.97 336.3 3.1212-4.4148" fill="none" stroke="#000" stroke-width="1.165"/>
    <path id="path45234-6" transform="matrix(.09439 .061733 -.061733 .09439 462.47 63.783)" d="m3033 1076-35.185 110.03-65.93-94.854-115.52 0.5373 69.838-92.015-36.207-109.7 109.09 37.986 93.138-68.333-2.4154 115.49 93.77 67.464z" fill="#ffdb13" stroke="#000" stroke-linecap="round" stroke-linejoin="round" stroke-width="15.96"/>
    <path id="path48409" d="m690.23 326.27 2.245-3.3676" fill="none" stroke="#000" stroke-width="1.165"/>
    <path id="path45234" transform="matrix(.16917 0 0 .16917 139.44 153.17)" d="m3033 1076-35.185 110.03-65.93-94.854-115.52 0.5373 69.838-92.015-36.207-109.7 109.09 37.986 93.138-68.333-2.4154 115.49 93.77 67.464z" fill="#ffdb13" stroke="#000" stroke-linecap="round" stroke-linejoin="round" stroke-width="10.64"/>
    <path id="path48579" d="m656.77 315.34c0.53068 0.37599 1.5874 2.888 2.1934 2.418-0.53126-0.37571-1.5856-2.8837-2.1934-2.418z" color="#000000" style="-inkscape-stroke:none"/>
    <path id="path48583" d="m665.17 307.66c0.57958 0.47004 2.0992 3.8248 2.7363 3.3672-0.58092-0.46969-2.0962-3.8211-2.7363-3.3672z" color="#000000" style="-inkscape-stroke:none"/>
    <path id="path48585" d="m669.78 305.47c-0.43301 0.53036 1.2157 2.0166 1.6406 2.5703 0.4334-0.53421-1.2145-2.0155-1.6406-2.5703z" color="#000000" style="-inkscape-stroke:none"/>
    <path id="path48587" d="m685.26 331.19c-0.31245 0.54135 1.2587 1.1355 1.707 1.4277 0.31248-0.54134-1.2587-1.1355-1.707-1.4277z" color="#000000" style="-inkscape-stroke:none"/>
    <path id="path48589" d="m688.97 325.27c-0.34314 0.48294 2.1011 1.7492 2.4818 2.0061 0.34828-0.48195-2.1012-1.7496-2.4818-2.0061z" color="#000000" style="-inkscape-stroke:none"/>
    <path id="path48591" d="m691.44 322.33c0.45346 0.17547 1.576 1.696 1.95 1.1864-0.45293-0.17466-1.5804-1.701-1.95-1.1864z" color="#000000" style="-inkscape-stroke:none"/>
   </g>
  </g>
 </g>
</svg>
