<?xml version="1.0" encoding="UTF-8"?>
<svg id="svg5" width="1200mm" height="1200mm" version="1.1" viewBox="0 0 1200 1200" xmlns="http://www.w3.org/2000/svg" xmlns:xlink="http://www.w3.org/1999/xlink">
 <defs id="defs77">
  <filter id="filter36802" x="-.004896" y="-.0023044" width="1.0098" height="1.0046" color-interpolation-filters="sRGB">
   <feGaussianBlur id="feGaussianBlur36804" stdDeviation="0.059796482"/>
  </filter>
  <filter id="filter36806" x="-.032337" y="-.005391" width="1.0639" height="1.0122" color-interpolation-filters="sRGB">
   <feGaussianBlur id="feGaussianBlur36808" stdDeviation="0.059796482"/>
  </filter>
  <filter id="filter37234" x="-.040474" y="-.024056" width="1.0709" height="1.0407" color-interpolation-filters="sRGB">
   <feGaussianBlur id="feGaussianBlur37236" stdDeviation="0.059796482"/>
  </filter>
  <filter id="filter53958" x="-.021696" y="-.018232" width="1.0434" height="1.0365" color-interpolation-filters="sRGB">
   <feGaussianBlur id="feGaussianBlur53960" stdDeviation="0.059796482"/>
  </filter>
  <filter id="filter53962" x="-.038902" y="-.011815" width="1.0767" height="1.0245" color-interpolation-filters="sRGB">
   <feGaussianBlur id="feGaussianBlur53964" stdDeviation="0.059796482"/>
  </filter>
  <filter id="filter53966" x="-.0034435" y="-.013859" width="1.0069" height="1.0277" color-interpolation-filters="sRGB">
   <feGaussianBlur id="feGaussianBlur53968" stdDeviation="0.059796482"/>
  </filter>
  <filter id="filter53970" x="-.026915" y="-.0084294" width="1.0538" height="1.0169" color-interpolation-filters="sRGB">
   <feGaussianBlur id="feGaussianBlur53972" stdDeviation="0.059796482"/>
  </filter>
  <filter id="filter53974" x="-.024692" y="-.005682" width="1.0494" height="1.0114" color-interpolation-filters="sRGB">
   <feGaussianBlur id="feGaussianBlur53976" stdDeviation="0.059796482"/>
  </filter>
  <filter id="filter53978" x="-.018008" y="-.0055489" width="1.036" height="1.0111" color-interpolation-filters="sRGB">
   <feGaussianBlur id="feGaussianBlur53980" stdDeviation="0.059796482"/>
  </filter>
  <filter id="filter53982" x="-.011215" y="-.0052194" width="1.0224" height="1.0104" color-interpolation-filters="sRGB">
   <feGaussianBlur id="feGaussianBlur53984" stdDeviation="0.059796482"/>
  </filter>
  <filter id="filter53986" x="-.0045349" y="-.0025602" width="1.0091" height="1.0051" color-interpolation-filters="sRGB">
   <feGaussianBlur id="feGaussianBlur53988" stdDeviation="0.059796482"/>
  </filter>
  <filter id="filter53990" x="-.014101" y="-.03494" width="1.0282" height="1.0699" color-interpolation-filters="sRGB">
   <feGaussianBlur id="feGaussianBlur53992" stdDeviation="0.059796482"/>
  </filter>
 </defs>
 <g id="layer60" transform="translate(19.4 11.241)">
  <g id="layer4">
   <g id="g8632">
    <g id="g8630" transform="matrix(4.1461 0 0 4.1461 114.51 46.945)">
     <g id="g8618" transform="translate(.2466 .052997)" stroke="#000" stroke-width=".565">
      <g id="g8616" fill="#ff8080" stroke-linecap="round" stroke-linejoin="round">
       <path id="path8612" d="m147.5 107.65c1.2146-0.6355 3.9956-0.0984 4.139 2.6729 0.046 0.88988-0.42644 1.5126-1.2112 1.9384-0.60135 0.32635-1.3861 0.53714-2.2614 0.66404-2.9836 6.7566-7.9118 13.999-22.621 18.866 3.8035-0.30948 7.4764-1.0851 10.464-2.4804 0 0-0.0416 0.53396 1.5294 2.5437 0.69415-0.88598-0.23202-3.3112 2.7158-4.9303 6.5583-4.3406 12.013-12.246 12.013-12.246 0.68962 0.62234 1.0362 2.3129 1.0362 2.3129 0.34095-0.27082-0.0352-3.6478 0.55609-5.3818 0 0 2.8525-10.782 2.8795-16.429 0.0299-6.2504-0.60109-12.375-1.8888-18.06 2.3303 2.058 4.2426 1.6588 4.2426 1.6588-4.6512-5.7731-8.9353-18.323-18.016-26.652-12.886-11.583-27.596-13.447-42.502-12.079-10.921 1.0824-17.41 3.3353-26.231 9.6261-4.048 3.0219-4.8347 5.1076-7.1046 7.3863-5.1256 5.2238-9.4865 8.2357-13.043 10.824 0.32324 0.6751 1.2652 0.78536 5.4748-0.21248-3.139 6.8114-4.846 14.668-4.5289 23.108 0.13422 3.5726 0.78404 8.7507 1.0919 11.746 0.11916 3.0803-1.0989 6.6007-0.25734 7.2698 0.97913-1.2113 1.4692-1.85 1.4692-1.85 1.5986 5.6703 5.8788 14.26 15.157 19.473 1.5726 0.88025 3.0277 2.2544 3.0788 4.2827 0.86543-0.4845 0.95853-1.2403 1.6716-2.1003 2.1786 0.79877 4.5712 1.4234 7.1962 1.8236-15.548-6.0925-21.798-16.752-21.933-23.934-2.807-0.1549-3.529-0.83537-3.729-2.7151 0.02262-3.3689 1.7658-3.1751 4.5753-2.941-1.7442-11.674-0.57827-19.374 3.6591-27.08 6.0373-10.98 15.67-12.897 25.234-12.995 1.0458-0.01071 16.13 2.1777 18.982 2.4414 3.1198 0.28845 15.943-0.95634 17.168-0.76986 4.7438 0.38045 17.455 3.4415 21.335 18.622 1.4618 5.7195 0.58459 18.74-0.34033 25.597z" style="mix-blend-mode:normal"/>
      </g>
     </g>
     <g id="g8626" transform="translate(-.28257 -.47617)" fill="none">
      <path id="path8620" d="m107.55 63.434s-0.81422 13.946 10.845 20.996c2.6816 1.6214 6.4216 4.8965 6.8542 6.981" stroke-linecap="round"/>
      <path id="path8622" d="m61.134 107.19c-0.55186 16.553 7.9446 25.82-1.0583 30.692-1.7227 0.93222-4.7377-1.1055-5.0271-3.0427-0.33225-2.2238 1.6493-5.5081 4.4979-5.0271 5.9521 1.0051 10.481 6.5515 6.4823 11.774-4.249 5.5497-4.7865 4.3357-6.35 9.2604-0.86435 2.7226 1.4552 10.054 1.4552 10.054"/>
      <path id="path8624" d="m148.41 112.98c-4.8737 17.489-8.9123 25.668 0 30.692 1.7064 0.96177 4.7376-1.1055 5.0271-3.0427 0.33226-2.2238-1.6493-5.5081-4.4979-5.0271-5.9521 1.0051-10.481 6.5515-6.4823 11.774 4.249 5.5497 4.7865 4.3357 6.35 9.2604 0.86435 2.7226-1.4552 10.054-1.4552 10.054"/>
     </g>
    </g>
    <path id="path27402" d="m368.06 335.46c-15.446 36.982-17.159 73.751-14.123 79.995 2.3625-6.2951 3.4747-10.772 7.2505-17.533 1.075 24.222 5.2128 48.87 9.1714 71.457 2.4405 13.925 19.491 43.781 19.491 43.781-1.0142-52.982-3.103-117.43 23.311-157.42-1.3267 18.118 2.6154 38.856 20.02 58.414 10.709-34.108 16.185-72.312 48.816-88.033 18.916 42.737 38.159 76.852 95.254 110.3-0.95609-4.7458-0.3462-16.129 2.8889-27.928 2.1473 3.2264 15.44 20.179 15.44 20.179s-1.2627-10.235-0.64185-15.303c3.4777-28.385 24.182-82.313 24.182-82.313 27.47 25.605 19.218 52.15 20.843 78.434 10.317-20.947 23.156-23.46 21.054-51.712 16.061 32.769 16.835 40.862 22.003 80.508 19.018-7.9391 22.9-25.539 22.9-25.539 13.856 30.909 19.278 61.343 17.046 90.058 0 0 30.685-109.11 6.7125-158.42-23.972-49.319-82.69-83.352-141.27-101.08-11.883-3.5965-17.527-3.7653-29.822-6.7682-32.509-7.9403-45.787-7.8417-71.76-17.241-0.7965 5.9758 22.005 24.558 36.859 24.558h-1.7e-4" color="#000000" fill="#ff8080" stroke-width="2.3425" style="-inkscape-stroke:none"/>
    <path id="path27404" d="m483.95 215.99-0.19498 1.4484c-0.27376 2.0539 9.3647 13.687 11.116 15.658 6.9662 8.8366 16.117 14.481 23.739 12.467-9.2775-2.3159-15.685-7.0606-21.983-14.032-0.95973-1.0804-9.5214-11.403-9.8022-12.238 11.633 3.8793 25.072 11.509 36.721 14.289 7.441 1.7755 19.794 1.7369 30.99 2.9332-11.585-2.8494-22.078-3.1867-30.951-5.275-9.9155-2.3626-25.412-10.097-38.268-14.749zm126.53 33.023 22.214 10.059c40.27 17.644 68.917 33.654 88.17 71.092 11.752 24.177 17.948 78.412 13.286 111.77-3.4187 24.456-7.5206 41.536-9.9586 51.08 0.32008-25.899-5.5396-52.605-17.888-80.151l-1.5319-3.4174-0.68776 3.6745s-3.109 15.282-20.187 23.257c-4.8963-37.594-6.0751-46.956-21.833-79.107l-2.2176 0.60848c1.0377 13.948-1.5515 21.25-5.6949 27.879-3.5893 5.7426-8.4488 11.511-13.093 19.72-0.33086-11.738 0.77264-23.609-0.66419-35.59-1.5963-13.311-6.5528-26.7-20.478-39.68l-1.2727-1.1827-0.61492 1.6198s-20.729 53.825-24.254 82.589c-0.50715 4.1396 0.15264 8.798 0.48635 11.848-1.2383-1.5836-2.2471-2.8665-4.6729-6.0013-3.5888-4.6378-7.4978-9.7583-8.4781-11.231l-1.4248-2.1383-0.67276 2.4789c-2.9291 10.684-3.5466 20.242-2.946 25.993-55.283-32.935-74.339-66.371-92.997-108.53l-0.49279-1.1098-1.0863 0.52707c-16.627 8.0105-26.353 21.788-33.201 37.711-6.5473 15.223-10.564 32.418-15.563 48.749-15.839-18.767-19.666-38.386-18.398-55.706l0.3321-4.4694-2.4789 3.7409c-25.965 39.311-24.583 101.19-23.555 153.24-1.4238-2.5516-3.1717-5.5356-6.5605-12.365-4.5508-9.1706-9.3852-20.151-10.55-26.797-3.9576-22.581-8.0888-47.184-9.1594-71.308l-0.17784-4.1137-2.0161 3.5952c-2.9576 5.296-4.1047 9.2575-5.6456 13.644-0.26809-1.6961-0.64132-2.6723-0.65563-5.4828-0.0245-4.8321 0.38561-11.121 1.3691-18.372 0.3896-9.9298 10.091-42.111 11.75-52.135-7.7703 18.604-12.082 37.129-14.074 51.818-0.99611 7.3443-1.4094 13.733-1.3841 18.707 0.0252 4.9737 0.38488 8.4321 1.3605 10.438l1.1913 2.4532 0.962-2.5582c1.8061-4.8126 3.4123-8.7688 5.4335-13.16 1.3689 22.778 5.0345 45.752 8.7373 66.88 1.2757 7.2791 6.1774 18.188 10.762 27.427 4.5846 9.2388 8.868 16.731 8.868 16.731l2.1875-0.59992c-0.98322-51.364-2.6204-113.13 21.012-152.84-0.37605 17.243 4.091 36.455 20.271 54.637l1.3755 1.5383 0.61491-1.9668c5.3746-17.119 9.4234-35.161 16.148-50.798 6.5701-15.277 15.725-28.129 31.063-35.907 18.769 42.213 38.416 76.39 95.148 109.63l2.2604 1.3284-0.51849-2.5668c-0.799-3.9659-0.15854-14.172 2.4211-24.86 1.6793 2.3097 4.014 5.4239 6.9161 9.1744 3.5944 4.6451 6.9226 8.8916 6.9226 8.8916l2.6011 3.3124-0.5185-4.178s-1.215-10.333-0.64063-15.021c3.3288-27.17 22.311-77.152 23.476-80.211 12.432 12.168 17 24.401 18.494 36.863 1.5511 12.934-0.0994 26.115 0.72203 39.404l0.27425 4.3965 1.9433-3.9509c5.0816-10.317 10.797-16.088 15.126-23.015 3.7269-5.9627 5.7986-13.551 5.7656-24.455 13.771 28.758 15.049 38.272 19.954 75.893l0.20354 1.5234 1.4076-0.59134c16.682-6.9637 20.636-19.045 21.71-22.949 12.971 29.83 18.769 58.622 16.618 86.298l2.299 0.40494s7.6863-27.343 12.373-60.872c4.6869-33.529-1.2775-87.976-13.498-113.12-21.17-43.554-63.014-63.824-112.49-80.123z" color="#000000" stroke-width="4.1461" style="-inkscape-stroke:none"/>
    <path id="path20130" d="m489.68 274.06c-5.6918 10.678-8.602 21.601-9.7417 30.934-1.1397 9.3322-0.5459 17.027 0.94744 21.508l2.2269-0.7369c-1.2901-3.8712-1.9584-11.414-0.85027-20.487 0.15594-8.3026 6.0085-22.79 7.4176-31.217z" color="#000000" stroke-width="4.1461" style="-inkscape-stroke:none"/>
    <path id="path20132" d="m652.44 324.3c0.39056 10.493 1.9482 19.254 7.4824 33.906l2.1945-0.82598c-3.3704-6.4304-7.9312-25.551-9.6769-33.08z" color="#000000" stroke-width="4.1461" style="-inkscape-stroke:none"/>
    <path id="path20134" d="m423.72 311.28c-8.2294 19.393-10.289 29.136-11.726 44.36l2.3322 0.21862c0.13724-11.913 6.9377-30.07 9.3935-44.578z" color="#000000" stroke-width="4.1461" style="-inkscape-stroke:none"/>
    <path id="path20136" d="m577.05 362.55c0.70637 6.8287 1.7205 13.5 2.2674 16.835 1.2621 7.9573 1.7357 18.092-0.32381 28.901l2.2998 0.43728c2.1221-11.137 1.6362-21.531 0.33998-29.703-1.2961-8.1718-3.3516-14.05-4.5834-16.471z" color="#000000" stroke-width="4.1461" style="-inkscape-stroke:none"/>
    <path id="path31363" d="m376.54 314.4c-7.1516 7.1642-14.413 10.488-22.156 12.195l0.50206 2.2917c5.0261-2.1517 14.952-3.7611 21.654-14.487z" color="#000000" stroke-width="4.1461" style="-inkscape-stroke:none"/>
    <path id="path32924" transform="matrix(4.1461 0 0 4.1461 114.51 46.946)" d="m57.389 81.009c-0.7238 4.0878-0.89152 7.4255-0.04677 11.88 1.0371-1.6961 1.8445-1.9918 1.8445-1.9918 0.10468 2.8772 0.20271 6.3696 0.02675 9.3583-2.6078-0.26984-4.6684-6.2271-5.7292-9.8585 0.24471 4.4827 1.1229 14.69 0.73922 19.451l1.4691-1.85c3.6693 15.46 18.321 18.642 18.236 23.756l1.6716-2.1003 7.1962 1.8236c-7.186-3.7659-20.576-9.8149-21.933-23.934-4.0335 0.56966-4.2205-4.0128-3.0077-5.2966 1.0261-1.0861 3.044-0.12824 3.854-0.35954 0.17984-8.2097-3.266-16.933 1.2491-26.309-2.1155 4.2257-3.8599 8.7579-5.2099 13.303-1.0794-6.6452 1.3893-12.995 3.146-19.404 0 0-2.8142 7.629-3.5051 11.531z" filter="url(#filter36802)" opacity=".14103" style="mix-blend-mode:normal"/>
    <path id="path35624" transform="matrix(4.1461 0 0 4.1461 114.51 46.946)" d="m74.216 65.044s-3.5429 9.4687-4.9616 12.049c-5.0157 9.1235-3.2916 23.266-3.2742 23.184 0.72936-3.4379 1.4667-21.72 6.0523-25.797 0.42767-3.1439 0.84995-5.3216 2.1835-9.4365z" filter="url(#filter36806)" opacity=".14103" stroke="#000" stroke-width=".265" style="mix-blend-mode:normal"/>
    <path id="path36845" transform="matrix(4.1461 0 0 4.1461 114.51 46.946)" d="m61.365 66.37-3.4468 1.3557-3.2081 9.7358c0.82101-2.491 3.7741-9.6581 6.6549-11.091z" filter="url(#filter37234)" opacity=".14103" stroke="#000" stroke-width=".265" style="mix-blend-mode:normal"/>
    <path id="path37353" transform="matrix(4.1461 0 0 4.1461 114.51 46.946)" d="m90.114 55.76c-1.812 4.43-5.6179 7.1809-7.0493 16.385 0.70999-1.2896 4.2334-4.3804 5.4527-4.4024-0.87441-6.8738 0.30921-8.7117 1.5965-11.983z" filter="url(#filter53962)" opacity=".14103" stroke="#000" stroke-width=".26458px"/>
    <path id="path38394" transform="matrix(4.1461 0 0 4.1461 114.51 46.946)" d="m103.27 71.655 2.845 7.8233 2.487 9.2017s-0.73855-6.554-1.8662-9.8269c-0.84665-2.4574-3.4658-7.1982-3.4658-7.1982z" filter="url(#filter53970)" opacity=".14103" style="mix-blend-mode:normal"/>
    <path id="path38822" transform="matrix(4.1461 0 0 4.1461 114.51 46.946)" d="m119.39 61.51c2.6253 3.9857 2.411 6.0397 2.1113 6.8558 3.4835 2.8634 6.1149 10.416 4.8506 19.007 0 0 2.0141-10.03 0.34723-15.015-1.294-3.8699-7.3091-10.848-7.3091-10.848z" filter="url(#filter53978)" opacity=".14103" style="mix-blend-mode:normal"/>
    <path id="path40546" transform="matrix(4.1461 0 0 4.1461 114.51 46.946)" d="m129.74 66.895c2.2832 9.2266 6.5714 11.252 8.3273 22.487 0.52652-2.4931 1.3895-3.5654 1.1863-9.1395 0.10253 2.6387 0.37531 5.249-0.017 7.9702 0.83611-3.2098 2.1445-4.9353 2.4322-9.8689-0.0594 3.3723-0.0234 6.4811 0.86728 9.767-0.71342 3.0225-3.0647 4.8125-5.4198 6.2797-0.46127-10.724-6.1383-18.346-7.3762-27.496z" filter="url(#filter53982)" opacity=".14103" style="mix-blend-mode:normal"/>
    <path id="path41935" transform="matrix(4.1461 0 0 4.1461 114.51 46.946)" d="m110.22 66.814 1.3939 9.6366c1.0211 3.8489 1.5326 7.2767 0.69417 10.754l3.724 4.867-0.39384-3.2746s-1.1042-2.5247-1.3436-4.0924c-0.77536-5.0773-3.8846-17.016-4.0746-17.89z" filter="url(#filter53974)" opacity=".14103" style="mix-blend-mode:normal"/>
    <path id="path43984" transform="matrix(4.1461 0 0 4.1461 114.51 46.946)" d="m150.06 84.478c1.7972 6.2999 0.8214 16.59 0.88729 20.694 1.1334-1.8238 1.4232-3.8164 1.9844-5.7547 0.0177 2.9431 0.1857 4.1846 0.59531 5.424 3.0311-3.7961 1.0426-22.535 0.94488-28.99 2.5365 1.6202 3.4021 2.4859 4.4125 2.7761 0.27072 0.07774-1.3958-0.15136-3.6732-1.2759 1.4166 0.49386 3.1233 22.627-1.2097 35.268-0.48089 1.403 0.0809 3.273-0.44797 4.4245l-1.0362-2.3129c-4.4171 4.3866-7.225 9.3096-13.344 13.129l-1.3851 4.0469-1.5294-2.5437-8.9917 2.2009c8.5579-4.0454 17.426-7.6488 21.146-18.588 4.993-1.0499 5.2523-6.3571-0.66408-5.274 0.99011-7.414 2.4684-15.717 2.3106-23.224z" filter="url(#filter53986)" opacity=".14103" style="mix-blend-mode:normal"/>
    <path id="path47677" transform="matrix(4.1461 0 0 4.1461 114.51 46.946)" d="m107.67 45.631c-5.571 0.48767-6.8381 0.19627-13.318-1.1189 0.22605 1.2832 1.9272 3.4658 4.0281 3.5404 0.60071 0.17008 1.2994 0.06325 1.2994 0.06325-3.4556 1.1812-6.1393 3.3363-8.1832 5.9318 2.7821-3.0795 6.3675-4.7125 10.34-5.4602-0.44242 1.1189-1.3399 3.3635-1.5093 4.4824 0.4403-1.1286 1.4411-3.773 2.5782-4.634l5.149 0.70648c1.3407 0.64428 2.0188 2.4267 2.8154 3.8546 0.12461-0.95158-0.39685-3.1735-0.88785-4.3024 2.2532 0.49504 2.8653 1.6883 4.367 2.5288l-2.9612-2.7019c7.1462 0.75773 15.508 4.1791 21.785 6.3458-7.3484-3.9431-16.736-8.7851-21.359-9.0229z" filter="url(#filter53966)" opacity=".14103" style="mix-blend-mode:normal"/>
    <path id="path52306" transform="matrix(4.1461 0 0 4.1461 114.51 46.946)" d="m86.254 48.948c-5.3176 3.391-4.815 4.8805-6.6146 7.8714 0 0 1.9589-3.0175 3.1312-4.4436 1.0757-1.3087 3.4834-3.4277 3.4834-3.4277z" filter="url(#filter53958)" opacity=".14103" style="mix-blend-mode:normal"/>
    <path id="path52308" transform="matrix(4.1461 0 0 4.1461 114.51 46.946)" d="m122.54 46.152c-1.0862-0.16685-0.11109-0.95981 0.34275-0.83555 4.0291 1.1031 6.4562 2.6638 9.3397 4.0942-3.0066-1.263-5.8358-2.6678-9.6824-3.2587z" filter="url(#filter53990)" opacity=".14103" style="mix-blend-mode:normal"/>
   </g>
  </g>
 </g>
</svg>
