<?xml version="1.0" encoding="UTF-8"?>
<svg id="svg5" width="1200mm" height="1200mm" version="1.1" viewBox="0 0 1200 1200" xmlns="http://www.w3.org/2000/svg" xmlns:xlink="http://www.w3.org/1999/xlink">
 <defs id="defs77">
  <filter id="filter27288" x="-.025121" y="-.043431" width="1.0502" height="1.0869" color-interpolation-filters="sRGB">
   <feGaussianBlur id="feGaussianBlur27290" stdDeviation="0.9525611"/>
  </filter>
 </defs>
 <g id="layer60" transform="translate(19.4 11.241)">
  <g id="layer214">
   <g id="g22514">
    <path id="path22464" d="m549.17 264.16c-56.221-1.156-113.46 15.149-149.2 62.135-18.092 23.785-32.17 54.774-36.74 84.379-4.6206 29.936 0.54215 57.248 0.54215 57.248l6.8546 1.6928s-4.6781-28.989 0.72539-55.81c5.4035-26.821 18.616-43.055 35.015-62.943 33.242-40.312 89.01-52.678 143.11-54.669 53.564-1.9712 106.05 15.594 141.68 53.443 16.78 17.828 29.111 46.158 31.352 79.948 2.2411 33.79 2.8161 64.867 2.8161 64.867 2.344-0.97237 4.6579-2.0127 7.5884-1.6656 0 0 5.1999-26.766 2.9137-64.14-2.2865-37.374-13.049-80.126-39.117-106.49-40.387-40.852-102.33-57.062-131.03-57.652z" color="#000000" fill="#6a0606" stroke="#000" stroke-width="2"/>
    <path id="path22464-3" transform="matrix(4.1461 0 0 4.1461 114.51 46.946)" d="m104.84 55.405c-13.346 0.49114-27.365 3.4567-35.985 13.91-4.3636 5.2917-7.7592 12.186-8.8614 18.773-1.1145 6.6602 0.13076 13.611 0.13076 13.611l1.6533 0.2444s-1.1283-6.9919 0.17496-13.461c1.3033-6.469 4.49-10.385 8.4454-15.181 8.0177-9.723 21.468-12.706 34.516-13.186 12.919-0.47543 26.89 4.4474 35.482 13.576 4.0473 4.3 7.0213 10.665 7.5618 18.815 0.54053 8.1498 0.58361 15.345 0.58361 15.345l1.9941 0.1582s-0.0302-7.3209-0.58161-15.636c-0.55148-8.315-3.3102-17.676-8.1008-22.766-9.0836-9.6507-23.539-14.699-37.014-14.203z" color="#000000" fill="#e7d5d5" fill-opacity=".31579" filter="url(#filter27288)" opacity=".29967" style="-inkscape-stroke:none"/>
   </g>
  </g>
 </g>
</svg>
