<?xml version="1.0" encoding="UTF-8"?>
<svg id="svg5" width="1200mm" height="1200mm" version="1.1" viewBox="0 0 1200 1200" xmlns="http://www.w3.org/2000/svg" xmlns:xlink="http://www.w3.org/1999/xlink">
 <g id="layer60" transform="translate(19.4 11.241)">
  <g id="layer263">
   <g id="layer205" transform="translate(-19.4 -11.241)">
    <path id="path8638-9-8" d="m816.05 735.09c2.0267-2.3891 4.28-3.1776 6.9606-0.82365l-0.33262 129.26-6.9866-0.0647c0.1099-42.792-0.37056-85.584 0.35866-128.38z" color="#000000" fill="#373737" stroke="#000" stroke-width=".42114"/>
    <path id="path35440-3-2" d="m822.86 762.97 0.38229-60.537c-0.11608-1.6708 3.3159-10.142 1.8577-12.414-11.118-17.316-35.075-37.229-40.164-37.034-5.0995 0.19563-18.046 18.99-15.269 23.042 6.4688 9.4376 32.55 23.987 46.232 28.047 0.50501 0.14986-0.61053 55.918-0.0661 59.065 3.0157 2.1048 7.0252-0.17031 7.0262-0.17031z" fill="#373737" stroke="#000" stroke-width=".50721px"/>
    <path id="path35440-9-8-2" d="m816.55 701.81c3.8156-3.7276 8.0842-9.7131 6.8598-11.901-6.3516-11.35-29.563-29.733-34.095-28.944-4.3308 0.75433-14.383 17.088-9.6011 21.326 7.7526 6.8713 33.515 22.764 36.836 19.519z" fill="#373737" stroke="#000" stroke-width=".46923px"/>
    <path id="path15716-2-1" d="m820.94 704.04s-0.1067-5.5261 0.95326-8.5143c-4.4636-8.634-16.587-22.74-16.456-24.231 0.20661-2.3594 19.436 19.403 20.043 19.783 0.74976 0.46841-1.8171 9.6237-2.1115 10.499l-0.6919 161.96-4.9898 0.56589z" color="#000000" fill="#373737" opacity=".14228" style="-inkscape-stroke:none"/>
    <path id="path15716-2-9-7" d="m816.04 708.13-0.18998-4.0684c-17.611-5.2043-38.434-20.08-37.415-25.12 9.634-47.686 39.76 19.784 40.367 20.164 0.74977 0.46841-0.6739 5.2414-0.96826 6.1167l-0.56488 162.4-1.1791 0.81994z" color="#000000" fill="#373737" opacity=".14228" style="-inkscape-stroke:none"/>
    <path id="path22040-2" d="m822.95 691.03-33.471-28.962" fill="#373737" stroke="#000" stroke-width=".26458px"/>
    <path id="path22042-0" d="m821.8 692.68-35.186-28.708" fill="#373737" stroke="#000" stroke-width=".26458px"/>
    <path id="path22044-1" d="m820.53 694.84-36.012-28.073" fill="#373737" stroke="#000" stroke-width=".26458px"/>
    <path id="path22046-6" d="m819.26 696.81-36.139-27.374" fill="#373737" stroke="#000" stroke-width=".26458px"/>
    <path id="path22048-5" d="m817.74 698.91-35.885-26.866" fill="#373737" stroke="#000" stroke-width=".26458px"/>
    <path id="path22050-6" d="m816.53 700.5-35.758-24.579" fill="#373737" stroke="#000" stroke-width=".26458px"/>
    <path id="path22052-2" d="m815.2 701.2c-5.3351-1.6513-35.313-22.039-35.313-22.039" fill="#373737" stroke="#000" stroke-width=".26458px"/>
    <path id="path8638-9" d="m848.69 665.59c-2.0267-2.3891-4.28-3.1776-6.9606-0.82365l0.33262 129.26 6.9866-0.0647c-0.1099-42.792 0.37056-85.584-0.35865-128.38z" color="#000000" fill="#aeaeae" stroke="#000" stroke-width=".42114"/>
    <path id="path35440-3" d="m841.88 693.47-0.38229-60.537c0.11608-1.6708-3.3159-10.142-1.8577-12.414 11.118-17.316 35.075-37.229 40.164-37.034 5.0995 0.19563 18.046 18.99 15.269 23.042-6.4688 9.4376-32.55 23.987-46.232 28.047-0.50502 0.14986 0.61053 55.918 0.0661 59.065-3.0157 2.1048-7.0252-0.17031-7.0262-0.17031z" fill="#8c8c8c" stroke="#000" stroke-width=".50721px"/>
    <path id="path35440-9-8" d="m848.19 632.31c-3.8156-3.7276-8.0842-9.7131-6.8598-11.901 6.3516-11.35 29.563-29.733 34.095-28.944 4.3308 0.75433 14.383 17.088 9.6011 21.326-7.7526 6.8713-33.515 22.764-36.836 19.519z" fill="#595959" stroke="#000" stroke-width=".46923px"/>
    <path id="path15716-2" d="m843.8 634.54s0.1067-5.5261-0.95326-8.5143c4.4636-8.634 16.587-22.74 16.456-24.231-0.20661-2.3594-19.436 19.403-20.043 19.783-0.74976 0.46841 1.8171 9.6237 2.1115 10.499l0.6919 161.96 4.9898 0.56589z" color="#000000" opacity=".14228" style="-inkscape-stroke:none"/>
    <path id="path15716-2-9" d="m848.7 638.63 0.18997-4.0684c17.611-5.2043 38.434-20.08 37.415-25.12-9.634-47.686-39.76 19.784-40.367 20.164-0.74976 0.46841 0.6739 5.2414 0.96827 6.1167l0.56487 162.4 1.1791 0.81994z" color="#000000" opacity=".14228" style="-inkscape-stroke:none"/>
    <path id="path10209-2-8" d="m799.9 558.49c-2.1767 9.1611-1.2887 29.62-1.2329 32.52 0.34116 17.725 0.51888 8.5878 0.49741 27.528 2.1064-1.5629 4.3337-2.1658 7.0619 2.0032l0.0497-32.549c12.423-3.657 54.585-15.128 58.242-36.287-9.7152-52.166-60.353-27.885-64.618 6.7846z" fill="#8c8c8c" stroke="#000" stroke-width=".50228"/>
    <path id="path35440-9-8-7" d="m801.09 587.67c-4.4452-14.56-0.53451-35.43 1.5716-39.902 12.375-26.273 35.221-32.603 50.355-1.5129-3.9804 13.048-47.152 39.524-51.927 41.415z" fill="#8c8c8c" stroke="#000" stroke-width=".55965px"/>
    <path id="path8638-9-1" d="m806.22 619.82c-2.0241-3.4028-4.3808-4.3599-7.058-1.0071l0.23597 184.14 6.9778-0.0921z" color="#000000" fill="#aeaeae" stroke="#000" stroke-width=".50228"/>
    <path id="path14627-1-4" transform="scale(.26458)" d="m3017.6 2187.4c0.4718 13.474-0.6718 27.956-0.1494 41.513 0.8348 21.664 3.3167 42.462 3.7843 64.295 5.4546 254.69-0.5797 518.49 0.088 741.54l10.666 2.7207 2.9317-705.44c-0.067-0.07-0.1029-0.1075-0.168-0.1757 0.1188-0.023 0.2122-0.036 0.334-0.061-3.0856-14.143 0.057-29.729 0.064-42.918 0.031-50.005-3.7427-75.194-6.1062-66.897-1.2528 4.398-0.9046 18.01-2.0285 42.753-0.8743 19.248-3.5991-9.268-5.7339-34.901-0.1339-1.6073-0.5424-14.892 1.1512-34.186 0.6235-7.1026 21.134 12.881 21.94 4.7956 1.2125-12.163-14.148-20.504-16.742-37.785-3.9225-26.127 89.464-110.05 6.197-90.717-5.541 1.2865-11.337 46.88-11.518 44.635-0.3818-4.7405-3.3487 84.657-3.55 82.593-0.7371-7.5581-1.0749-11.763-1.1602-11.766z" opacity=".14634" stroke="#000" stroke-width="1.8986px"/>
    <path id="path10209" d="m873.37 691.69c0.78023-1.4675 2.6823-1.8619 4.4727-2.3631l6.8277 17.368c-3.3122-1.6547-5.4006-1.219-7.2631-0.39756z" fill="#8c8c8c" stroke="#000" stroke-width=".335"/>
    <path id="path14627" d="m873.37 691.69c0.78023-1.4675 4.4596 0.13047 6.25-0.37072-0.19574 0.21746-0.69534 0.17875-0.82102 0.46923-0.0767 0.17719-0.0142 0.47685 0.34122 1.0318-0.54947 0.87043-1.4325 1.628-1.8909 2.459l5.3661 10.42c-3.764 0.33299-3.3455-0.22286-5.2081 0.59863z" opacity=".16057" stroke="#000" stroke-width=".33504px"/>
    <path id="path35440" d="m867.4 693.53c-6.121-1.771-6.3824-6.3095-4.4689-8.6932 9.6043-11.964 42.052-22.805 46.873-21.757 3.6098 0.78471 5.9986 2.3958 7.0144 7.6931 2.1473 11.198-44.71 24.119-49.419 22.757z" fill="#8c8c8c" stroke="#000" stroke-width=".40347px"/>
    <path id="path18071" d="m867.52 693.3c-5.6751-1.5949-5.9045-5.8371-4.1343-8.0423 8.8852-11.068 40.097-20.354 44.634-19.856 4.3366 0.47668 8.1062 6.5437 2.809 11.831-5.5437 5.5331-39.062 17.261-43.309 16.067z" opacity=".40244" stroke="#000" stroke-width=".37326px"/>
    <path id="path8638" d="m884.77 707.06c-2.0294-1.5097-4.6037-2.008-7.2879-0.52048l0.33307 81.685 6.996-0.0409z" color="#000000" fill="#aeaeae" stroke="#000" stroke-width=".335"/>
    <path id="path15716" d="m882.59 706.23c-2.0968-0.97079-2.4234-1.181-5.1076 0.30654l0.33307 81.685 4.9965 0.3576z" color="#000000" opacity=".14228" style="-inkscape-stroke:none"/>
    <path id="path34626" d="m776.84 803.83c-31.713 74.471-1.77 223.95-6.4064 315.71" fill="none" stroke="#000" stroke-width="10"/>
    <path id="path8513" d="m772.74 795.88 1.9546 38.165-2.9712 337.23c42.473 9.5902 84.894 19.434 133.97-2.6903v-373.93c-39.069-17.496-116.75-3.8396-132.96 1.2246z" fill="#0f3d5f" stroke="#000" stroke-width="2.5"/>
    <path id="path14551" d="m904.45 1157.2c-41.129 15.493-86.057 10.982-131.44 2.8272l-0.0364 6.2287c45.181 10.357 87.71 16.828 131.48-2.4495z" color="#000000" fill="#fff" style="-inkscape-stroke:none"/>
    <path id="path30773" d="m773.94 796.73 2.0034 36.422c40.643-4.205 69.176-14.428 128.5-2.6166l-0.10837-35.072c-23.338-10.098-72.45-12.502-130.48 1.2781z" fill="#fff"/>
    <path id="path12241" d="m829.22 942.02-2.5405 209.85c27.152 7.7592 52.452 6.6311 82.312-4.5729 0 0 33.64-139.13-2.5405-206.8-73.582-8.518-73.307-3.1006-77.231 1.5243z" fill="#0f3d5f" stroke="#000" stroke-width="2.5"/>
    <path id="path13419" d="m777.96 884.27c28.045 48.953 20.783 174.74 32.01 265.74-15.243 9.5944-30.486 7.2045-45.729 2.0324l1.0162-267.26c3.3823-1.5891 6.5386-3.555 12.703-0.50808z" fill="#0f3d5f" stroke="#000" stroke-width="2.5"/>
    <path id="path31492" transform="scale(.26458)" d="m3102.8 2975.5-175.01 32.172 4.3066 145.14-11.042 180.68-26.131 10.756-7.9278 1010.8 27.682 2.9668 1.4433 74.158c167.54 24.224 334.3 58.257 509.12-8.4843-65.811 3.1528-203.89-26.684-157.26-34.609 147.71-25.098 174.2-40.957 150.25-42.873-29.102-2.3278-131.44 9.9325-173.58 10.441 50.646-257.49 25.779-404.22-10.08-597.23-22.484-74.482-80.795-209.12-80.795-209.12l-5.4317-0.6777-12.223 16.295-0.078 4.291c-3.3448-22.13-6.7962-44.655-10.476-68.027-31.123-197.65-27.58-389.78-22.762-526.64z" opacity=".12602" stroke="#000" stroke-width="1px"/>
    <path id="path29932" d="m854.37 976.26 3.1437 18.413c34.697 18.672 45.024 7.4255 64.132 6.8264z" opacity=".19106" stroke="#000" stroke-width=".26458px"/>
    <path id="path14541" d="m834.92 938.62c6.9082 18.24 21.144 34.023 25.044 54.34 21.139 7.7859 38.271 14.343 62.242 7.4945-0.22043-18.517 0.32539-39.909-15.751-59.863-24.772-0.65897-56.988-7.2766-71.535-1.9708z" fill="#0f3d5f" stroke="#000" stroke-width="2.5"/>
    <path id="path14541-2" d="m838.37 938.93c6.5543 17.306 21.394 34.046 23.849 51.504l0.041 0.29687 0.28125 0.10352c19.895 7.3278 35.678 13.789 58.384 7.3022l-6e-3 -1.0527c-22.324 6.3776-37.999 0.18779-57.778-7.0991-2.6477-17.798-20.88-42.737-24.087-51.205z" color="#000000" fill="#fff" style="-inkscape-stroke:none"/>
    <path id="path14543" d="m764.5 884.25c8.7116 3.2542 16.689 37.195 20.721 84.168 6.1832 72.031 12.749 165.87 24.119 181.9-13.905 9.186-35.839 5.3524-44.649 0.5275z" opacity=".25813"/>
    <path id="path14545" d="m772.28 885.02c31.68 70.182 20.982 175.25 31.98 265" fill="none" stroke="#a2a2a2" stroke-dasharray="3, 1"/>
    <path id="path14547" d="m868.6 986.99c16.018 3.6315 33.117 9.389 50.048 3.9378" fill="none" stroke="#fff" stroke-linecap="round"/>
    <path id="path16001" d="m773.42 886.41c31.68 70.182 20.353 173.75 31.352 263.49" fill="none" stroke="#a2a2a2" stroke-dasharray="3, 1"/>
    <path id="path16667" d="m771.6 885.53 1.7964-0.66244-0.51645-0.95433-2.0434 0.19088z" fill="#081f30" stroke="#000" stroke-width=".26458px"/>
    <path id="path17576" d="m772.05 885.54 2.4701 6.1078c0.87008 0.43041 1.3838 0.12266 1.6617-0.67366l-2.6946-5.9282c-0.53408 0.0179-1.0296 0.13859-1.4371 0.49401z" fill="#9a9a9a" stroke="#000" stroke-width=".26458px"/>
    <path id="path17578" d="m774.63 890.18c0.16529 0.5256 0.58937 0.44192 0.41281-0.11115l-1.429-3.4932c-0.16304-0.43238-0.52929-0.27489-0.37475 0.1151z" fill="#9a9a9a" stroke="#000" stroke-width=".26458px"/>
    <path id="path17580" d="m774.33 889.83c-0.26451-0.83125 0.56954-0.84815 0.66688-0.41283 0.20551 0.72623-0.53913 0.80549-0.66688 0.41283z" stroke="#000" stroke-width=".26458px"/>
    <path id="path26288" d="m766.5 885.56c3e-5 0-0.0144 0.85134-0.0144 0.85134 2.5306 2.6708 4.8029 6.9504 6.7985 12.576 2.3015 6.4874 4.2472 14.753 5.9141 24.377 3.3337 19.249 5.5501 43.933 7.3145 70.785 3.5287 53.704 5.1378 114.96 10.472 160.06l0.75275-0.1817c-5.3245-45.019-6.6961-106.21-10.227-159.94-1.7653-26.867-3.9807-51.572-7.3262-70.889-1.6727-9.6585-3.6274-17.969-5.959-24.541-2.1061-5.9366-4.5088-10.464-7.3528-13.28l-0.37273 0.18703z" color="#000000" fill="#fff" style="-inkscape-stroke:none"/>
    <path id="path17582" d="m774.31 889.6-5.1763 6.383c-0.66998 1.2694 1.859 2.9344 2.4453 1.8419 0.12107-0.2256 2.858-8.2249 2.858-8.2249z" fill="#9a9a9a" stroke="#000" stroke-width=".26458px"/>
    <path id="path22040" d="m841.8 621.53 33.471-28.962" fill="none" stroke="#000" stroke-width=".26458px"/>
    <path id="path22042" d="m842.94 623.19 35.186-28.708" fill="none" stroke="#000" stroke-width=".26458px"/>
    <path id="path22044" d="m844.21 625.34 36.012-28.073" fill="none" stroke="#000" stroke-width=".26458px"/>
    <path id="path22046" d="m845.48 627.31 36.139-27.374" fill="none" stroke="#000" stroke-width=".26458px"/>
    <path id="path22048" d="m847 629.41 35.885-26.866" fill="none" stroke="#000" stroke-width=".26458px"/>
    <path id="path22050" d="m848.21 631 35.758-24.579" fill="none" stroke="#000" stroke-width=".26458px"/>
    <path id="path22052" d="m849.54 631.7c5.3351-1.6513 35.313-22.039 35.313-22.039" fill="none" stroke="#000" stroke-width=".26458px"/>
    <path id="path28853" d="m858.92 545.6c-1.503-0.1648-3.4149-0.0833-5.8652 0.3086l0.0898 0.55273c4.8345-0.7731 7.4147-0.28841 8.8594 0.76172s1.9567 2.7178 2.324 4.5252l0.4377-0.11119c-0.36949-1.8181-0.79882-3.6803-2.4316-4.8672-0.81641-0.59345-1.9111-1.0051-3.4141-1.1699z" color="#000000" style="-inkscape-stroke:none"/>
    <path id="path28855" d="m801.05 587.58-0.34173 29.652" fill="none" stroke="#000" stroke-width=".56"/>
    <path id="path15716-2-9-9" d="m805.91 593.01 0.40015-4.836c18.125-3.8914 62.79-23.347 57.78-38.574-1.7099-5.1967-4.5558-17.578-7.5794-17.445-1.4834 0.0652 10.057 18.048-1.3898 11.581-5.1432-2.906-3.3597-2.8523-5.2612-3.6691-2.5854-1.1106-0.0555 6-2.1265 8.5939-4.1254 5.167-15.271 17.923-18.323 20.179-16.857 12.464-24.632 17.088-25.009 17.323-0.49185 0.30728 1.8379-0.85134 1.9132 0.2006 0.0169 0.23589-1.0765 0.8215-1.5527 1.5265-0.63744 0.94355-0.70377 2.0398-0.64581 2.2122l0.74584 199.12 1.5362-0.45724z" color="#000000" opacity=".14634" style="-inkscape-stroke:none"/>
    <path id="path34473" d="m803.31 583.54 45.183-36.395" fill="none" stroke="#000" stroke-width=".26458px"/>
    <path id="path34477" d="m830.01 557.43 16.495-13.512" fill="none" stroke="#000" stroke-width=".26458px"/>
    <path id="path34479" d="m802.75 580.13 23.854-19.641" fill="none" stroke="#000" stroke-width=".26458px"/>
    <path id="path34481" d="m805.26 571.86 36.037-29.727" fill="none" stroke="#000" stroke-width=".26458px"/>
    <path id="path34483" d="m809.08 559.03 25.2-20.661" fill="none" stroke="#000" stroke-width=".26458px"/>
    <path id="path34485" d="m824.79 551.87 11.266-9.3348" fill="none" stroke="#000" stroke-width=".26458px"/>
    <path id="path34487" d="m808.44 549.93 23.489-18.379" fill="none" stroke="#000" stroke-width=".26458px"/>
    <path id="path34489" d="m806.45 545.09 16.675-13.153" fill="none" stroke="#000" stroke-width=".26458px"/>
   </g>
  </g>
 </g>
</svg>
