<?xml version="1.0" encoding="UTF-8"?>
<svg id="svg5" width="1200mm" height="1200mm" version="1.1" viewBox="0 0 1200 1200" xmlns="http://www.w3.org/2000/svg" xmlns:xlink="http://www.w3.org/1999/xlink">
 <defs id="defs77">
  <linearGradient id="linearGradient13861" x1="123.66" x2="110.33" y1="91.869" y2="127.51" gradientTransform="matrix(4.1461 0 0 4.1461 114.67 47.236)" gradientUnits="userSpaceOnUse">
   <stop id="stop8" offset="0"/>
   <stop id="stop10" stop-opacity="0" offset="1"/>
  </linearGradient>
 </defs>
 <g id="layer60" transform="translate(19.4 11.241)">
  <g id="layer45">
   <g id="layer194">
    <path id="path23-96-6-2" d="m649.56 536.14c-0.73373-0.13019-2.7748-0.49218-4.5358-0.80413-4.1714-0.73904-11.364-3.7855-15.789-6.6868-4.5259-2.9681-10.949-9.7018-13.733-14.397-15.623-26.349-1.7877-59.936 27.92-67.776 5.1345-1.3554 17.234-1.388 22.081-0.0597 10.443 2.8628 18.419 8.0306 24.893 16.128 11.639 14.559 12.994 34.973 3.4194 51.519-2.5395 4.389-8.1653 10.504-12.529 13.618-4.2137 3.0068-11.165 6.2494-15.877 7.4066-3.5659 0.87545-13.232 1.5172-15.85 1.0524zm-170.76-14.119c-9.7209-1.1919-17.352-3.3406-25.434-7.1615-20.589-9.7338-36.248-28.367-41.992-49.969-2.1-7.8991-2.6885-12.444-2.6885-20.76 0-4.2555 0.30474-9.5385 0.67727-11.74 4.4243-26.145 19.601-46.743 43.235-58.671 4.9546-2.501 15.021-5.7228 21.133-6.7639 7.0102-1.194 19.084-1.2039 26.007-0.0207 29.998 5.1241 54.811 27.532 62.498 56.436 2.1 7.8991 2.6885 12.444 2.6885 20.76 0 21.41-7.7001 40.011-22.878 55.263-11.767 11.826-26.124 19.242-42.406 21.906-6.0433 0.98885-15.87 1.3275-20.839 0.71823z" fill="url(#linearGradient13861)"/>
    <ellipse id="path15850" cx="485.13" cy="451.1" rx="43.398" ry="47.762" opacity=".56707" style="paint-order:markers stroke fill"/>
    <path id="path39-77-0-0" d="m424.92 436.34c-1.891-14.004 18.991-42.45 35.996-50.033 17.007-7.5832 52.195-0.31505 58.711 11.775 2.5058 5.1427-0.1137 8.1182-5.4794 9.3742-8.9134 2.0864-28.804 1.1117-44.063 9.1164-12.072 8.9598-42.849 41.683-45.167 19.769z" fill="#fff" opacity=".85163"/>
    <ellipse id="path15322" cx="534.83" cy="411.1" rx="9.6978" ry="12.122" fill="#fff" style="paint-order:markers stroke fill"/>
    <ellipse id="path15324" cx="527.8" cy="434.37" rx="6.0611" ry="6.3036" fill="#fff" style="paint-order:markers stroke fill"/>
    <ellipse id="path15850-8" cx="655.52" cy="493.84" rx="24.712" ry="27.197" opacity=".56707" style="paint-order:markers stroke fill"/>
    <path id="path39-77-0-0-7" d="m621.24 485.44c-1.0768-7.9745 10.814-24.173 20.497-28.491 9.6843-4.3182 29.722-0.17939 33.432 6.7052 1.4269 2.9284-0.0647 4.6228-3.1202 5.338-5.0756 1.188-16.402 0.63303-25.091 5.1912-6.874 5.1021-24.4 23.736-25.72 11.257z" fill="#fff" opacity=".85163"/>
    <ellipse id="path15322-9" cx="683.82" cy="471.06" rx="5.5223" ry="6.9029" fill="#fff" style="paint-order:markers stroke fill"/>
    <ellipse id="path15324-2" cx="679.82" cy="484.32" rx="3.4514" ry="3.5895" fill="#fff" style="paint-order:markers stroke fill"/>
   </g>
  </g>
 </g>
</svg>
