<?xml version="1.0" encoding="UTF-8"?>
<svg id="svg5" width="1200mm" height="1200mm" version="1.1" viewBox="0 0 1200 1200" xmlns="http://www.w3.org/2000/svg" xmlns:xlink="http://www.w3.org/1999/xlink">
 <g id="layer60" transform="translate(19.4 11.241)">
  <g id="layer264">
   <g id="layer271">
    <path id="path207920" d="m513.82 1158.9c3.71 2.6225 23.491-25.569 22.686-26.641l-4.8911 19.356c-4.1453 10.459-9.7708 4.9364-17.795 7.2846z" fill="#f00" stroke="#000"/>
    <path id="path210018" d="m513.82 1158.9c3.71 2.6225 23.491-25.569 22.686-26.641l-4.8911 19.356c-4.1453 10.459-9.7708 4.9364-17.795 7.2846z" opacity=".66463" stroke="#000"/>
    <path id="path169812" d="m497.31 1168.3c2.5808-4.489 5.4877-8.1661 24-10.207 7.6619-0.8448 13.796-20.349 14.854-22.833 0.58998 3.72 2.1504 7.1151 0.62072 13.395-0.58392 2.3971 0.3807 16.407 0.3807 16.407-0.78986 0.7736-1.4613 0.2033-1.4613 0.2033l-0.86464-11.755c-1.9414 1.2023-2.4623 9.6408-3.3364 11.527s-34.528 6.2558-34.192 3.2635z" fill="#ffdb13" stroke="#000" stroke-width="2"/>
    <path id="path210257" d="m530.78 1140.2-0.10406 8.1172 5.2033-12.592 0.41627-5.4115z" stroke="#000" stroke-width=".26458px"/>
    <path id="path210460" d="m497.31 1168.3c5.4507 1.3979 9.6207-1.5001 27.679-3.4372 3.7502-0.4023 3.3476-7.1078 7.3347-11.448 5.636-6.1352 4.9064-14.895 3.8397-18.155 0.58998 3.72 2.1504 7.1151 0.62072 13.395-0.58392 2.3971 0.3807 16.407 0.3807 16.407-0.78986 0.7736-1.4613 0.2033-1.4613 0.2033l-0.86464-11.755c-1.9414 1.2023-2.4623 9.6408-3.3364 11.527s-34.528 6.2558-34.192 3.2635z" opacity=".11992"/>
    <path id="path207920-6" d="m624.78 1158.4c-3.71 2.6225-23.491-25.569-22.686-26.641l4.8911 19.356c4.1453 10.459 9.7708 4.9364 17.795 7.2846z" fill="#f00" stroke="#000"/>
    <path id="path210018-2" d="m624.78 1158.4c-3.71 2.6225-23.491-25.569-22.686-26.641l4.8911 19.356c4.1453 10.459 9.7708 4.9364 17.795 7.2846z" opacity=".66463" stroke="#000"/>
    <path id="path169812-1" d="m641.29 1167.8c-2.5808-4.489-5.4877-8.1661-24-10.207-7.6619-0.8448-13.796-20.349-14.854-22.833-0.58998 3.72-2.1504 7.1151-0.62072 13.395 0.58392 2.3971-0.3807 16.407-0.3807 16.407 0.78986 0.7736 1.4613 0.2033 1.4613 0.2033l0.86464-11.755c1.9414 1.2023 2.4623 9.6408 3.3364 11.527s34.528 6.2558 34.192 3.2635z" fill="#ffdb13" stroke="#000" stroke-width="2"/>
    <path id="path210257-0" d="m607.82 1139.7 0.10406 8.1172-5.2033-12.592-0.41627-5.4115z" stroke="#000" stroke-width=".26458px"/>
    <path id="path210460-9" d="m641.29 1167.8c-5.4507 1.3979-9.6207-1.5001-27.679-3.4372-3.7502-0.4023-3.3476-7.1078-7.3347-11.448-5.636-6.1352-4.9064-14.895-3.8397-18.155-0.58998 3.72-2.1504 7.1151-0.62072 13.395 0.58392 2.3971-0.3807 16.407-0.3807 16.407 0.78986 0.7736 1.4613 0.2033 1.4613 0.2033l0.86464-11.755c1.9414 1.2023 2.4623 9.6408 3.3364 11.527s34.528 6.2558 34.192 3.2635z" opacity=".11992"/>
   </g>
  </g>
 </g>
</svg>
