<?xml version="1.0" encoding="UTF-8"?>
<svg id="svg5" width="1200mm" height="1200mm" version="1.1" viewBox="0 0 1200 1200" xmlns="http://www.w3.org/2000/svg" xmlns:xlink="http://www.w3.org/1999/xlink">
 <defs id="defs77">
  <linearGradient id="linearGradient75666" x1="-6.9326" x2="79.98" y1="101.01" y2="130.82" gradientTransform="matrix(4.1461 0 0 4.1461 294.94 36.158)" gradientUnits="userSpaceOnUse">
   <stop id="stop75658" stop-color="#fff500" offset="0"/>
   <stop id="stop75660" stop-color="#fff500" stop-opacity="0" offset="1"/>
  </linearGradient>
 </defs>
 <g id="layer60" transform="translate(19.4 11.241)">
  <g id="layer263">
   <g id="layer98">
    <path id="path56292" d="m370.93 169.58c-180.71 190.14-166.89 617.01-83.315 965.86 1.8763 7.7968 3.2704 12.22 12.925 11.863l126.86 0.2744c8.5924 0.1265 10.797-3.24 13.537-11.897 80.319-355.85 101.66-782.52-70.004-966.1z" fill="#fffefe" stroke="#000" stroke-width="2.3425"/>
    <path id="path59633" d="m265.93 1000.2c8.1912 44.458 15.2 89.093 25.421 129.49 0.922 5.4174 6.5281 11.807 11.785 11.849l123.06-0.07c6.4697 0.9575 8.3215-4.326 9.5444-8.9421 17.139-62.801 25.8-139.82 39.414-213.63z" fill="#5e5e5e" stroke="#000" stroke-width="1.097px"/>
    <path id="path61686" d="m264.03 988.67-8.7511-52.78 235.46-159.16c-5.9662 61.755-10.932 108.87-14.035 133.1z" fill="#acacac" stroke="#000" stroke-width="1.097px"/>
    <path id="path74019" d="m237.34 512.07 33.843 329.44 68.615-67.435-60.614-266.72 134.69 192.47 81.397-80.444-188.43-145.06 188.43 47.598c-3.8832-35.392-3.4516-70.284-14.696-107.52l-172.19 34.46 144.35-135.79c-13.04-37.532-29.276-68.618-46.41-95.914l-120.6 197.94 34.746-177.05c-19.572 37.992-39.606 70.858-63.09 163.63-10.821 41.409-14.864 71.298-20.03 110.4z" fill="url(#linearGradient75666)" opacity=".15705"/>
    <path id="path63111" d="m253.47 919.68c-2.2958-14.847-5.2109-34.576-7.6023-52.493l249.41-247.81c-0.41108 36.485 0.96036 50.155-4.2542 148.13z" fill="#e5e5e5" stroke="#000" stroke-width="1.097px"/>
    <path id="path66937" d="m320.96 446.67c6.2938 33.808-16.011 66.317-49.819 72.611-12.035 2.2405-23.153 0.857-33.735-3.3794 4.5859-39.776 11.117-78.876 21.329-119.84 29.514-0.12368 56.631 20.563 62.225 50.608z" fill="#fff300"/>
    <path id="path58387" d="m370.93 169.58c-7.8269 354.43-6.6194 654.65-9.2631 977.98" fill="none" stroke="#000" stroke-width="1.097px"/>
   </g>
  </g>
 </g>
</svg>
