<?xml version="1.0" encoding="UTF-8"?>
<svg id="svg5" width="1200mm" height="1200mm" version="1.1" viewBox="0 0 1200 1200" xmlns="http://www.w3.org/2000/svg" xmlns:xlink="http://www.w3.org/1999/xlink">
 <g id="layer60" transform="translate(19.4 11.241)">
  <g id="layer4">
   <g id="layer207" transform="translate(-19.4 -11.241)">
    <path id="path8537" transform="translate(19.4 11.241)" d="m356.66 469.55-23.436-88.537c3.61 3.1204 10.819 8.1822 15.243 7.1134-5.6018-54.793-2.051-111.62-2.2068-167.62 7.9258 34.384 17.088 53.243 27.612 74.64 23.61-48.399 24.448-95.459 33.248-142.99l52.621 95.733c19.156-50.426 37.804-101.18 43.82-160.05 17.699 37.961 39.046 97.485 60.341 143.79 6.9451-20.634 14.754-83.464 44.56-126.05 6.6614 58.726 21.493 137.74 21.493 137.74 2.0742-3.2152 53.14-79.871 58.714-89.626 5.508 48.36 15.522 100.78 18.517 141.96 15.148-14.388 29.349-29.879 40.459-48.978-0.0518 52.274 9.0133 106.26-0.82689 156.69 7.6521-1.5212 14.323-6.3122 19.943-14.608 3.2773 38.715-17.275 71.473-25.913 107.21 0 0 2.5025 3.459 2.9216 5.462 1.2517 5.9823-0.7836 11.528-10.67 14.735-0.74528 10.215 2.0811 16.349 4.5729 22.865l-11.804-5.2554c-2.4856 5.6678-2.827 11.336-1.9655 17.003l-8.96-8.6095c5.818-8.4434 11.016-17.254 13.52-27.591 12.728 1.4102 14.656-4.5196 15.751-8.1296 2.5454-8.3878-6.5311-15.219-16.196-12.893 3.6865-78.917-14.22-107.45-34.551-130.33l-18.292 19.308c-3.0744-12.677-5.3911-26.111-11.178-36.075l-23.373 21.848c-0.66135-13.549-4.2531-27.099-11.686-40.648-6.4554 19.264-19.019 26.562-30.486 34.551 0.0621-14.69-10.126-35.592-24.897-46.237 0 0-98.731-33.497-163.1 19.816-54.917 45.484-42.172 132.61-42.172 132.61-4.5331-0.28158-8.4898-2.5522-14.735 4.5729-3.7288 4.2542-4.0318 10.442-0.95268 14.735 2.0943 2.9197 8.1688 5.5924 14.671 4.5729 0.0212 12.101 3.4384 22.2 6.7323 32.01-1.337 7.5741-4.2416 13.737-7.2404 19.816-0.96613-16.005 2.3172-18.292-1.0162-27.437l-14.227 10.67c3.7578-10.926 8.2447-21.663 7.6215-33.725-0.0921-1.7829-7.1134-3.1756-8.1931-9.2093-0.94355-5.2728-0.20176-10.271 5.7161-14.862z" fill="#ff8080" stroke="#000" stroke-width="2.5"/>
    <path id="path15393" transform="translate(19.4 11.241)" d="m349.58 386.86-2.3691 0.59108c0.56511 6.8846 1.1355 9.4868 4.6598 25.061-1.6975-9.3193-1.0292-15.615-2.2907-25.652z" color="#000000" style="-inkscape-stroke:none"/>
    <path id="path15395" transform="translate(19.4 11.241)" d="m373.47 292.83c-1.984 3.9995-6.5346 17.331-4.2266 28.723 0.0589-5.7897 2.0806-18.645 6.4727-27.623z" color="#000000" style="-inkscape-stroke:none"/>
    <path id="path15397" transform="translate(19.4 11.241)" d="m459.04 245.16c-1.6994 6.1832-3.3817 9.062-4.0644 23.104l6.4668-22.41z" color="#000000" style="-inkscape-stroke:none"/>
    <path id="path15399" transform="translate(19.4 11.241)" d="m602.64 272.33c15.407 7.3838 27.021 14.015 28.352 33.047 0.77295 12.58-3.9707 24.148-3.9707 24.148l2.3105 0.95312s4.9712-11.959 4.1543-25.254c-0.40843-6.6477-2.2796-13.684-7.0137-19.664s-12.306-10.837-23.832-13.23z" color="#000000" style="-inkscape-stroke:none"/>
    <path id="path15401" transform="translate(19.4 11.241)" d="m705.88 293.88c-0.13481 5.2041 0.49632 17.405-1.4004 38.131 4.6623-20.419 3.7108-28.452 3.9004-38.064z" color="#000000" style="-inkscape-stroke:none"/>
    <path id="path15403" transform="translate(19.4 11.241)" d="m745.82 401.9c-1.583 6.2851-3.3984 13.165-4.8555 16.971 5.9414-6.9313 6.3922-12.836 7.2812-16.359z" color="#000000" style="-inkscape-stroke:none"/>
    <path id="path19950" transform="translate(19.4 11.241)" d="m434.97 204.19c6.0392 14.703 15.179 31.472 18.114 44.105-1.4517 13.371-1.9024 26.023 1.8468 39.394-0.10979-13.955-1.2583-18.076 12.425-43.842 38.856-73.164 35.962-118.96 37.215-152.79-8.5486 59.252-28.669 107.33-44.958 155.69z" opacity=".30894" stroke="#000" stroke-width=".26458px"/>
    <path id="path19952" transform="translate(19.4 11.241)" d="m411.98 160.5c-4.0125 57.93-13.686 97.38-25.579 119.5-10.84 20.157-13.473 33.614-15.45 54.655-0.22824 2.4302-5.6707-16.267-3.3482-34.167 1.7092-13.173-4.4804-27.657-6.9408-30.996l13.211 24.135c21.288-42.206 24.433-93.006 34.043-140.74z" opacity=".30894" stroke="#000" stroke-width=".26458px"/>
    <path id="path19954" transform="translate(19.4 11.241)" d="m608.61 107.15c-20.212 25.261-32.429 76.505-44.713 127.53l9.1458 14.989c-5.1453-6.9393 25.296-127.97 35.567-142.52z" opacity=".30894" stroke="#000" stroke-width=".26458px"/>
    <path id="path19956" transform="translate(19.4 11.241)" d="m684.04 208.2c7.51 23.726 7.4729 86.432 7.1622 85.985 2.5548-29.843 1.6429-57.208-7.1622-85.985z" opacity=".30894"/>
    <path id="path19958" transform="translate(19.4 11.241)" d="m712.52 298.57c-0.43599 18.898-6.5921 32.838-9.1458 49.921 0 0 3.5356-48.935 3.3026-54.367l12.886-9.5846c1.214-0.90302-7.0427 14.03-7.0427 14.03z" opacity=".30894" stroke="#000" stroke-width=".26458px"/>
    <path id="path19960" transform="translate(19.4 11.241)" d="m626.3 285.87s11.249 10.392 12.448 26.421c0.912 12.184-0.66968 38.739-0.66968 38.739 1.0651-1.3018-8.7561-25.037-9.6539-22.356 0 0 10.066-28.717-2.1249-42.804z" opacity=".30894" stroke="#000" stroke-width=".26458px"/>
    <path id="path19962" transform="translate(19.4 11.241)" d="m511.57 200.13c-1.4875 38.538 26.843 60.56 55.014 65.135 0 0-35.002-4.0114-43.056-12.025-13.068-13.004-11.958-53.109-11.958-53.109z" opacity=".30894" stroke="#000" stroke-width=".26458px"/>
    <path id="path19964" transform="translate(19.4 11.241)" d="m332.21 379.49 15.877 9.1376-1.6498-63.25c4.8994 38.994 8.4836 113.85 17.275 141.76l-7.2069 1.4684z" opacity=".30894" stroke="#000" stroke-width=".26458px"/>
    <path id="path19966" transform="translate(19.4 11.241)" d="m359.64 492.79 2.5405 17.784 5.5891 15.751-1.0162 16.259 7.6215-16.767-7.1134-35.567z" opacity=".30894" stroke="#000" stroke-width=".26458px"/>
    <path id="path19968" transform="translate(19.4 11.241)" d="m744.28 438.43c-4.065 18.954-7.1526 39.062-14.735 53.859h6.6053z" opacity=".30894" stroke="#000" stroke-width=".26458px"/>
    <path id="path19970" transform="translate(19.4 11.241)" d="m747.2 404.39 7.7485-2.5405-12.703 14.735z" opacity=".309" stroke="#000" stroke-width=".26458px"/>
    <path id="path19972" transform="translate(19.4 11.241)" d="m729.03 514.14 3.0486 1.5243-1.0162 19.816-6.0972-1.5243-4.5729 13.211s-5.5891-1.0162-4.5729-4.0648c1.0162-3.0486 13.211-28.962 13.211-28.962z" opacity=".30894" stroke="#000" stroke-width=".26458px"/>
   </g>
  </g>
 </g>
</svg>
