<?xml version="1.0" encoding="UTF-8"?>
<svg id="svg5" width="1200mm" height="1200mm" version="1.1" viewBox="0 0 1200 1200" xmlns="http://www.w3.org/2000/svg" xmlns:xlink="http://www.w3.org/1999/xlink">
 <g id="layer60" transform="translate(19.4 11.241)">
  <g id="layer214">
   <g id="layer164">
    <path id="rect16370" d="m549.54 155.21c-90.834 26.569-201.87 47.356-306.32 60.344l172 23.997c-57.702 51.197-56.775 75.934-68.897 122.69 16.673-17.075 73.709-111.84 211.02-34.525 94.337-62.03 165.67 19.955 197.56 53.631-19.528-48.568-35.246-102.17-72.949-139.86l173.61-20.73c-138.32-14.232-221.17-47.367-306.02-65.55z" fill="#222" stroke="#000" stroke-linejoin="round" stroke-width="2.5099"/>
    <path id="path14101" d="m557.62 211.96s-9.6815 0.32145-22.167 1.168c0.10614 0.0112 0.22264 0.0187 0.32049 0.0328-11.161 5.3636-45.244 12.425-50.311 19.815l13.448-1.8264c-31.681 49.931-20.058 64.381-0.54542 73.05-15.591-3.494-30.784-5.6534-43.115-5.4301 26.476-2.8298 63.606 8.7653 102.09 28.947 1.4893 0.78111 0.32049-98.605 0.32049-98.605-4.1478-2.4576-7.5642-10.512-0.0373-17.151zm-22.167 1.168c-4.5591-0.49368-16.756 0.98685-27.177 2.5216 8.9619-1.1325 18.703-1.947 27.177-2.5216zm-27.177 2.5216c-5.5583 0.70237-10.806 1.5235-15.225 2.4828 2.7662-0.52212 8.6393-1.5129 15.225-2.4828zm-47.08 53.138c-0.30884 0.93599-0.60246 1.8656-0.88094 2.7893 0.27849-0.92374 0.57208-1.8534 0.88094-2.7893zm-0.88094 2.7893c-0.2785 0.92374-0.54254 1.8415-0.79221 2.7483 0.24968-0.90681 0.51372-1.8246 0.79221-2.7483zm-4.8528 24.724c-0.0939 0.96066-0.16199 1.7898-0.21212 2.4677 0.0502-0.67786 0.11821-1.507 0.21212-2.4677z" opacity=".54167"/>
    <path id="path14101-5" d="m455.25 298.77c12.33-0.22335 27.522 1.9359 43.114 5.4299-19.512-8.669-31.135-23.119 0.5462-73.05l-13.447 1.828c5.0676-7.3894 39.151-14.451 50.311-19.814-6.9478-0.97129-35.479 3.6028-42.724 4.9705-5.2648 1.6775-12.154 7.7573-7.5881 14.844-28.72 19.73-30.211 65.792-30.211 65.792z" opacity=".3718"/>
    <path id="path18504" d="m557.62 211.96c-4.9454 2.3086-7.7032 12.924 0.0373 17.151-0.34579 21.389 0.24047 30.59 0.24047 30.59s4.9855-12.221 10.13-32.568c0.65446-4.6715 6.8212-2.3675 6.8212-2.3675l91.045 23.879c3.8401 0.40893 3.7395 3.9966 4.8418 7.2381l19.146 67.873c28.902 17.827 44.151 36.098 65.02 57.591-16.607-43.243-26.636-94.857-72.951-139.86-20.782-8.6894-32.436-17.823-51.89-21.398-7.5392-1.2859-22.121 2.0194-33.526 0.75607-20.871-2.3116-38.915-8.8882-38.915-8.8882z" opacity=".19872"/>
    <path id="path18502" d="m630.07 220.09c17.929 5.6975 37.549 14.964 53.644 24.262l1.8246-4.4658c-2.6084-0.1078-5.1458-0.7043-6.3294-1.3841-10.856-6.2353-38.155-19.807-49.139-18.412z" color="#000000" stroke-width="4.1832" style="-inkscape-stroke:none"/>
    <path id="path24646" d="m415.22 239.55c-18.897 13.444-60.843 52.665-67.946 120.18 5.0221-5.6724 35.743-55.618 107.98-60.968 5.8226-15.749 3.8099-37.591 30.213-65.792-2.0705-7.7861 6.9542-14.602 8.0449-14.83 17.829-3.7287 37.836-4.7686 64.113-6.1859 30.861-1.6726 55.085 5.1629 80.916 10.013l43.416 19.517 150.89-17.967c-89.982-8.8925-185.42-33.215-281.92-59.438-154.2 40.291-221.52 46.107-290.68 53.979l154.98 21.486" opacity=".60256"/>
    <path id="path30893" d="m415.22 239.55c-73.102 69.583-46.103 79.519-68.071 122.29 47.021-48.477 24.693-119.86 138.32-128.87-14.886-0.0365-12.216-2.4071-45.241-0.0311 15.216-6.6088 34.003-10.724 52.828-14.813-10.714 0.58337-26.836 0.15842-43.548-9.0924-7.9042-4.3754 109.93-46.835 101.73-44.763-45.242 11.418-155.49 40.536-284.78 54.295-2.0193 0.21489 60.635 9.2374 148.77 20.98"/>
    <path id="path33188" d="m343.4 194.74c-1.9997 1.7022-2.413 4.3998-2.6619 7.4048l-0.94856 74.841 6.1285 0.19486 0.90958-71.959c0.38165-4.4776 1.0948-6.0559 1.239-6.3521 0.54617-0.96927 1.81-0.041 2.0224 0.0452l9.1617-1.4185c-2.3498-0.68614-5.2439-3.8552-7.8462-4.2615-2.6826-0.41882-5.9392-0.25224-8.0045 1.5058z" color="#000000" fill="#ffcd00" stroke="#000" stroke-width="1.8824"/>
    <path id="path33192" d="m336.9 285.23c-11.123 30.135 6.587 49.522-5.1047 73.477 5.4417-6.2855 11.825-12.008 14.839-19.746 4.8811 12.091 9.7621 11.712 14.643 17.485-12.5-18.121 3.5201-51.785-12.999-72.051" fill="#ffcd00" stroke="#000" stroke-width="1.8824"/>
    <path id="path44481" d="m339.07 275.95 7.8268-1.0708c0.15341-0.0207 0.0348-6.3559 0.0348-6.3559l-7.6883-0.10357z" fill="#ececec" stroke="#000" stroke-width="1.1068px"/>
    <ellipse id="path39839" transform="matrix(.99523 -.097527 .098026 .99518 0 0)" cx="313.82" cy="313.16" rx="7.6277" ry="6.4402" fill="#ffcd00" stroke="#000" stroke-linejoin="round" stroke-width="1.8824"/>
    <path id="path33188-3" d="m349.73 196.26c-1.2598 0.0352-2.342 0.35059-3.197 1.2176-1.7659 1.7908-2.1641 4.7819-2.158 7.6923 0.59456 23.269-0.46662 46.721-0.90692 70.06 3.051 4.0689 2.5274 8.1377-0.16016 12.207 1.3542-3e-3 2.8655-1.4114 3.6724-0.57078 8.7296 9.094 7.5843 43.582 7.9907 44.961 1.1965 4.0582 4.9752-32.404-5.7362-46.912-0.65575-0.88822 1.0404-2.2031 1.322-3.9265-1.2452-3.27-2.3453-4.908-3.3658-5.6607-0.8665-22.586-1.3199-47.517-0.36366-70.103 0.38165-4.4776 1.0939-6.0554 1.2381-6.3516 0.54618-0.96927 1.8113-0.0406 2.0238 0.0453l9.1601-1.4184c-2.3498-0.68614-3.6769-0.535-6.2792-0.94129-1.1736-0.18326-2.2604-0.32535-3.2402-0.29794z" color="#000000" opacity=".21795"/>
    <path id="path43807" d="m346.28 298.6c0.13109 1.1236 0.26709 2.7764 0.3845 4.7734 0.23484 3.994 0.41221 9.3876 0.44176 14.859 0.0299 5.4713-0.0927 11.027-0.45812 15.332-0.18267 2.1526-0.42726 3.9919-0.73627 5.3365-0.15448 0.67228-0.32468 1.2212-0.49902 1.6075-0.17435 0.38629-0.36308 0.58658-0.43358 0.62829l0.56447 0.95469c0.40797-0.24146 0.6538-0.6352 0.87534-1.126 0.22148-0.49085 0.40789-1.1028 0.57265-1.8196 0.32949-1.4337 0.57563-3.3094 0.76081-5.4915 0.37041-4.3641 0.496-9.9385 0.4663-15.43-0.0299-5.4916-0.21364-10.897-0.44993-14.916-0.11817-2.0095-0.24893-3.6682-0.38451-4.8306-2.0553-10.299-1.3269-1.4595-1.1044 0.12239z" color="#000000" stroke-width="4.1832" style="-inkscape-stroke:none"/>
    <path id="path48823" d="m347.39 298.48c1.2775 15.754 0.95697 45.478 6.5365 50.944l-7.2894-10.462c2.4118-12.646 0.15561-25.649 0.75296-40.482z" opacity=".32051"/>
   </g>
  </g>
 </g>
</svg>
