<?xml version="1.0" encoding="UTF-8"?>
<svg id="svg5" width="1200mm" height="1200mm" version="1.1" viewBox="0 0 1200 1200" xmlns="http://www.w3.org/2000/svg" xmlns:xlink="http://www.w3.org/1999/xlink">
 <g id="layer60" transform="translate(19.4 11.241)">
  <g id="layer214">
   <g id="layer67">
    <path id="ellipse18103" d="m678.31 201.64c10.777 27.474-29.774 39.843-57.869 39.843-35.557 0-38.351-32.14-63.861-51.849-9.7576-7.5386-5.4263-31.729 18.178-29.083 3.5815-14.534 13.644-26.638 28.641-18.705 6.1782-5.4053 24.489-16.856 35.323 5.7559 16.251-7.3122 37.147 4.9795 31.195 25.092 20.471 1.5644 16.562 17.691 8.3929 28.947z" fill="#9b0025" stroke="#000" stroke-width="2.0294"/>
    <path id="path2757" d="m737.63 484.16c9.3869-19.906 15.922-141.02 6.2736-170.75-24.166-74.458-75.722-112.52-153.5-124.63-11.54-1.7975-23.207-2.702-34.88-2.702-13.658 0-26.819 0.63158-39.302 2.8135-107.19 26.167-191.5 139.85-159.75 268.24 12.043-141.32 144.63-163.53 248.24-110.69 72.156 36.799 136.85 103.71 132.92 137.72z" fill="#9b0025" stroke="#000" stroke-width="2.0294"/>
    <path id="path12906" d="m356.47 457.13c17.269-102.51 82.136-136.81 144.55-133.64 62.861 3.1903 193.71 48.387 236.61 160.66 15.748-18.192 15.895-41.312 12.162-65.656-12.086-61.939-115.67-130.39-193.53-142.73-32.801-5.1976-60.711-5.3612-84.437-2.1286-101.32 13.805-126.31 89.548-129.84 99.656-6.0454 17.332-2.6186 64.69 14.486 83.83z" fill="#b8002c" stroke="#000" stroke-width="2.0294"/>
    <path id="path12906-5" d="m357.39 456.17c17.269-102.51 82.138-136.86 144.55-133.64 41.022 2.1172 110.01 25.726 166.4 68.029-51.384-54.146-109.51-64.027-118.38-67.872-23.305-6.5107-58.24-11.014-92.272-3.5473-11.706 2.5681-29.517 4.9219-32.838 2.6358-7.6289-5.2506 26.718-40.133 69.507-45.274 15.843-1.9032 32.407-2.5144 62.825-1.6884-37.666-3.7976-60.319-6.4984-92.483-2.425-5.375-1.396-9.1079-21.303 12.385-40.379 25.156-22.327 65.361-50.429 190.33-18.705 2.3896-4.5079-56.699-30.238-97.32-33.925-15.683-1.4234-1.4586-10.599 6.7585-12.129 8.7389-1.6263 34.919 10.972 28.458 6.4786-4.573-3.1798-8.6473-6.1323-11.871-8.6562-13.084-10.244-3.7219-23.969 6.4775-20.012 2.7091 1.0508 17.79 19.39 15.544 15.709-2.2467-3.6808-7.7498-12.355-7.5882-15.873 0.31842-6.9376 20.472-13.318 31.777 1.741-12.724-21.036-25.64-11.392-35.562-5.7163-26.306-10.541-26.627 17.138-29.322 19.627-22.028-6.4674-26.366 18.943-21.679 24.322-35.942 3.0566-68.298 6.3727-108.73 36.397-44.039 32.698-74.7 79.679-81.879 113.12-18.449 19.772-18.101 33.759-19.562 37.948-6.0454 17.332-2.6186 64.69 14.486 83.83z" opacity=".40064"/>
    <path id="path34541" d="m669.92 172.69 9.5328 2.3285c-11.422-3.4459-22.167 7.1009-24.408 7.2675 9.559-9.6565 13.56-8.9953 15.423-19.351l-0.5479 9.755" opacity=".401" stroke="#000" stroke-width="1.097px"/>
    <path id="path36110" d="m611.99 192.56c-0.86106 1.4459-2.7428 2.2794-1.9596 4.7119-1.7029 1.2812-3.8338 3.0701-3.7089 5.8135-2.0982 1.8332-5.6862 3.3242-4.5578 6.5914-1.6282 2.5662-4.0582 4.8-3.6286 8.3952-3.2315 2.3236-4.9573 5.9789-3.5008 7.5917-3.2938 2.6003-2.899 4.8219-3.4352 7.7669-1.478 2.4867-3.2663 4.5501-2.7162 7.7129-2.021 2.0886-3.6292 5.0199-3.1102 7.8342-3.024 2.7573-2.411 5.966-2.9413 9.4358-2.9182 1.6869-2.3227 7.0419-3.274 10.04-3.3967 4.3332-2.2845 7.4323-3.6238 11.766l1.0122 0.42109c2.7831-3.5994 5.1368-5.0626 3.5458-11.578 1.9341-2.488 4.304-6.1293 3.2944-10.089 3.1646-2.4574 3.3966-5.4272 2.9414-9.436 2.8769-1.2514 3.0892-4.5892 2.9154-7.3659 2.9135-1.9511 2.3418-4.9398 2.7852-7.8789 2.3906-2.6404 4.7055-4.4405 3.569-8.0886 2.382-1.5265 3.0839-5.0586 3.4925-7.5718 2.7962-2.504 3.4133-5.4714 3.6656-8.4842 2.8496-1.9651 4.707-3.9584 4.4924-6.4342 2.6427-2.0063 3.5614-3.8755 3.7374-5.8818 3.0792-1.6168 1.7465-3.2336 2.0172-4.8504z" color="#000000" opacity=".45513" stroke-width="4.1461" style="-inkscape-stroke:none"/>
    <path id="path36110-9" d="m632.47 198.74c-0.16502 1.6748-0.69111 3.229 1.0516 5.098-0.99689 1.8835-0.16709 4.4194 1.1117 6.8496-1.1201 2.5511-1.7957 5.373 0.6142 7.8508-0.3831 3.0149-0.96069 6.0115 0.95605 9.0831-1.9375 3.4767-1.9494 6.2085 0.0547 7.0493-1.8762 3.7537-0.21186 6.1256 0.55434 9.0193-0.28111 2.8791-1.1866 5.727 0.6557 8.3561-0.9417 2.7495-1.8673 6.2303-0.2015 8.5571-1.5654 3.7811-1.0716 6.8654-0.0767 10.231-1.9245 2.7673-0.27282 5.7013 0.14055 8.8195-0.72776 3.1675-0.63439 6.182-0.27447 8.8388-1.026 2.4577-1.9586 6.1067-0.0767 8.2856-1.7416 4.1232 0.58642 7.4844 0.98224 8.3218l1.0952-0.049c0.49646-1.1469 0.55612-4.0526-0.73572-8.5394 1.3962-3.8142 0.14221-7.2401-0.21062-8.3547 0.19238-2.1846 2.354-5.831 0.32381-8.3492 0.69322-3.0741 2.4543-5.7173-0.14263-8.8725 1.82-3.5694 2.1928-6.7965 0.0767-10.232 2.0722-2.3555 1.5616-5.6109 0.22388-8.0504 1.808-3.0044 0.18409-5.6868-0.66358-8.5357 1.0416-3.4061 2.0093-6.5482-0.56996-9.3674 1.5074-2.3941 0.64488-4.5793-0.0539-7.0278 1.4668-3.4551 0.0916-6.345-0.9606-9.1794 1.7442-2.9899 0.63978-5.5309-0.60674-7.6808 1.5394-2.9393-0.42141-5.0327-1.115-6.9236 2.1-2.7722-0.61627-3.6693-1.0582-5.2479z" color="#000000" opacity=".45513" stroke-width="4.1461" style="-inkscape-stroke:none"/>
    <path id="path36110-9-3" d="m651.92 205.69c0.45806 1.6194-0.22969 3.5589 2.0753 4.6621-0.24006 2.1174 3.1479 3.8184 5.2262 5.6135-0.1107 2.784 1.307 5.2282 4.4553 6.6545 0.74468 2.9465 2.0252 5.5988 4.9316 7.758-0.53356 3.9442 1.9058 6.6467 4.0783 6.6974-0.37522 4.1797 2.4242 5.2623 4.1946 7.6761 0.78987 2.7829 1.4679 5.9925 4.1432 7.767 0.1277 2.9035 1.4335 7.161 3.8339 8.7186-0.0759 4.0916 1.2983 5.4661 3.454 8.2362-0.78067 3.2791 1.9598 5.0041 3.4837 7.7559 0.4795 3.2145 1.7886 6.0377 3.094 8.3795-0.0572 2.6627-0.85367 6.0298 1.6943 7.3705-0.1306 1.0813-1.5923 5.2116 2.0844 7.9766-0.2185 2.4338-1.7424 6.6101 1.3897 9.4067 0.30681 2.428-1.4716 5.1244 1.5791 8.2717-0.53613 2.0272-2.5223 6.1471 0.43741 8.4235-0.96931 4.0133-1.2468 6.1985 0.93457 8.3054-0.94133 3.5611-3.3711 5.7979 0.0962 8.8511 0.5115 2.6484-1.6897 4.4301 1.4975 6.5341 1.7603-0.62707 1.7603-0.62707 1.7603-0.62707-0.1024-3.0233 0.55997-4.1102-1.276-6.7325-0.0373-2.4613 2.4156-6.9227-0.0941-8.9121 0.32547-2.7774 0.97259-5.0112-0.9803-7.875 0.0842-3.4997 0.90426-5.8224-1.1475-8.0193 0.16501-3.0116 0.38475-6.6216-1.1674-8.7979-0.33376-3.1218-0.38518-6.9635-2.1252-9.2397-0.4996-5.3229-1.119-7.5544-1.8368-8.3041-0.0937-4.0606-1.2515-6.4212-1.9867-7.3301-0.61884-2.1039-0.0593-6.3392-2.8693-7.9418-0.47755-3.1149 0.0647-5.8159-3.5051-7.8044 0.39014-3.9876-0.2297-5.8115-3.4541-8.2363 1.0686-2.9497-1.4915-6.4728-3.628-8.2551 0.58551-3.4572-2.3863-5.5889-4.2162-7.9313-0.27447-3.5512-0.9055-6.3123-4.3363-7.9945 0.52866-2.7793-2.5249-4.6535-4.0696-6.6776 0.10323-3.7522-2.9561-5.5918-4.971-7.846 0.53144-3.4204-2.4405-4.9531-4.3864-6.499 0.35947-3.2985-3.9199-4.1743-5.2563-5.6811 0.9422-3.3478-1.1482-3.4912-2.1363-4.7992z" color="#000000" opacity=".45513" stroke-width="4.1461" style="-inkscape-stroke:none"/>
    <path id="path36110-9-3-6" d="m595.93 189.47c-1.164 1.2154-1.4663 3.2509-4.0194 3.1442-0.78108 1.9827-4.571 1.896-7.2486 2.5066-1.208 2.5107-3.6064 4.0046-7.056 3.7876-2.0396 2.2531-4.4146 3.995-7.9941 4.5389-1.3786 3.7337-4.8005 4.9765-6.7431 4.0023-1.6289 3.8674-4.6091 3.5107-7.3048 4.8122-2.0028 2.0874-4.107 4.6041-7.302 4.9166-1.4746 2.5044-4.6246 5.6522-7.4752 5.902-1.852 3.6493-3.7103 4.2187-6.9134 5.6542-0.84842 3.2622-4.0779 3.5004-6.7144 5.216-1.931 2.6141-4.4114 4.4936-6.6626 5.9496-1.1983 2.3785-2.074 5.7259-4.9532 5.715-0.3918 1.0162-1.0379 5.3496-5.582 6.0673-0.94849 2.252-1.5613 6.6552-5.6392 7.6562-1.4097 2.0005-1.1036 5.2161-5.2741 6.5649-0.47731 2.0419-0.0253 5.5212-3.7068 6.1436l-2.1282-0.2209c1.567-3.1304 1.9321-5.5664 4.7746-6.5444 1.2667-2.7372 2.7658-6.0286 5.1574-7.2227 1.7589-2.6006 3.6061-5.9695 6.2105-7.1636 2.9378-4.4668 4.5314-6.1472 5.517-6.4726 1.9872-3.5424 4.1169-5.0842 5.1925-5.5421 1.5333-1.5679 3.0255-5.5709 6.259-5.6684 1.8827-2.5271 2.6706-5.1669 6.756-5.2489 1.5256-3.7048 2.9286-5.025 6.9135-5.6543 0.43957-3.1063 4.3531-5.0172 7.076-5.5892 1.1044-3.328 4.7288-3.8169 7.4436-5.0274 1.9079-3.0077 3.7602-5.1503 7.5793-5.0269 0.83659-2.7026 4.4125-2.9257 6.7261-3.9889 1.6686-3.3623 5.2335-3.5522 8.0702-4.5981 1.1348-3.2702 4.4785-3.2299 6.922-3.6826 1.2296-3.0818 5.4198-1.8482 7.3068-2.5523 0.73817-3.3986 2.6515-2.5449 4.1376-3.2367z" color="#000000" opacity=".45513" stroke-width="4.1461" style="-inkscape-stroke:none"/>
    <path id="path36110-9-3-5" d="m573.83 187.69c-1.4702 0.81886-2.3583 2.6753-4.7669 1.8217-1.3302 1.6649-4.9267 0.46646-7.6652 0.26186-1.8935 2.0439-4.6254 2.7656-7.8583 1.5428-2.6125 1.5528-5.395 2.5185-8.976 1.9846-2.4166 3.1625-6.0527 3.3429-7.6224 1.84-2.6952 3.2166-5.4383 1.9984-8.3978 2.4487-2.5285 1.4053-5.2803 3.1912-8.4257 2.5492-2.1464 1.9594-6.0835 4.0405-8.8814 3.4401-2.8442 2.9424-4.7877 2.9396-8.2715 3.3686-1.7711 2.8679-4.9276 2.1449-7.9523 3.0085-2.615 1.9298-5.5387 2.996-8.1188 3.7248-1.8453 1.9204-3.6676 4.8616-6.416 4.0037-0.67358 0.8559-2.5667 4.8071-7.1208 4.1553-1.5694 1.873-3.4512 5.9008-7.6431 5.657-1.9361 1.4969-2.5902 4.6601-6.9729 4.7215-1.0572 1.8109-2.5727 6.1261-6.2744 5.6372-2.158 3.5199-3.5096 5.2591-6.5418 5.2017-1.8574 3.1808-1.7261 6.4808-6.3363 6.1807-0.32626 0.33733-0.44012 3.124-3.6735 4.7562-0.81973 1.9652-2.6047 4.1043-5.0512 5.6559-0.72044 2.1241-0.88232 4.6113-3.9645 5.7402-1.1435 2.4431-2.7631 5.1802-4.472 5.7106-0.93731 2.4287-1.2952 4.5422-3.9821 5.6998-0.17318 4.0159-2.5227 3.8105-3.8028 5.2006-0.73456 3.2776-2.1637 5.1904-4.2628 6.3166-0.6184 1.8712-1.7926 2.8151-3.4822 3.9779-0.90128 1.8504-3.9658 6.0485-4.7376 5.8654-0.40445-0.5195-2.1964-0.76052 0.48682-2.255 0.16078-0.39607 0.8801-3.6298 2.788-4.5504 0.19934-2.4461 1.8003-3.5101 3.2837-4.5834 1.2961-2.0687 0.85076-5.51 4.6908-6.561 0.87103-1.891 1.5621-3.9836 3.7385-5.224-0.17161-2.3724 1.4692-4.0547 3.8928-5.4083 0.0757-3.1896 2.3205-4.1906 4.0687-5.5919 0.52547-1.9482 2.1792-3.8247 4.1314-5.5718 0.78181-4.081 3.1519-4.829 4.7659-6.1688 0.31634-3.8212 3.9244-4.9716 4.7675-4.9947 1.7695-1.7112 3.1973-6.5982 6.3781-6.2253 1.7372-2.1914 2.8623-4.2267 6.2692-4.8655 2.4191-2.5304 3.485-4.751 6.4895-4.849 2.0163-2.243 4.4179-4.9474 7.055-5.3846 2.4465-1.9676 5.2036-4.6435 8.0441-5.0181 4.1225-3.4042 6.1401-4.5409 7.1778-4.5618 2.9419-2.8004 5.4311-3.6471 6.5939-3.768 1.9269-1.0471 4.5313-4.4335 7.6502-3.5748 2.5432-1.8609 4.0732-4.1518 8.0018-3.0275 2.5486-3.0916 4.278-3.9403 8.2716-3.3687 1.3345-2.8393 5.6371-3.5135 8.4077-3.2587 2.0351-2.8555 5.6429-2.2558 8.5936-2.6136 2.7088-2.3128 5.1097-3.8152 8.7232-2.573 1.5951-2.3366 5.0782-1.4972 7.6023-1.8322 2.5845-2.7221 6.0472-1.8543 9.0661-2.0188 2.0472-2.7912 5.2308-1.7685 7.6994-1.4818 2.0823-2.5833 5.7238-0.17095 7.7344-0.28832 1.7057-3.0308 3.2831-1.6516 4.907-1.8753z" color="#000000" opacity=".45513" stroke-width="4.1461" style="-inkscape-stroke:none"/>
    <path id="path44394" d="m703.59 350.26" fill="none" stroke="#000" stroke-width="1.097px"/>
   </g>
  </g>
 </g>
</svg>
