<?xml version="1.0" encoding="UTF-8"?>
<svg id="svg5" width="1200mm" height="1200mm" version="1.1" viewBox="0 0 1200 1200" xmlns="http://www.w3.org/2000/svg" xmlns:xlink="http://www.w3.org/1999/xlink">
 <g id="layer60" transform="translate(19.4 11.241)">
  <g id="layer49">
   <g id="layer122" stroke-width="4.1461">
    <path id="path6-7" d="m649.56 536.14c-0.73373-0.13019-2.7748-0.49218-4.5358-0.80413-4.1714-0.73904-11.364-3.7855-15.789-6.6868-4.5259-2.968-10.949-9.7018-13.733-14.397-15.623-26.349-1.7877-59.936 27.92-67.776 5.1345-1.3554 17.234-1.388 22.081-0.0597 10.443 2.8628 18.419 8.0306 24.893 16.128 11.639 14.559 12.994 34.973 3.4194 51.519-2.5395 4.389-8.1653 10.504-12.529 13.618-4.2137 3.0068-11.165 6.2494-15.877 7.4066-3.5659 0.87545-13.232 1.5172-15.85 1.0524zm-170.76-14.119c-9.7209-1.1919-17.352-3.3406-25.434-7.1615-20.589-9.7338-36.248-28.367-41.992-49.969-2.1-7.8991-2.6885-12.444-2.6885-20.76 0-4.2555 0.30474-9.5385 0.67727-11.74 4.4243-26.145 19.601-46.743 43.235-58.671 4.9546-2.501 15.021-5.7228 21.133-6.7639 7.0102-1.194 19.084-1.2039 26.007-0.0207 29.998 5.1241 54.811 27.532 62.498 56.436 2.1 7.8991 2.6885 12.444 2.6885 20.76 0 21.41-7.7001 40.011-22.878 55.263-11.767 11.826-26.124 19.242-42.406 21.906-6.0433 0.98884-15.87 1.3275-20.839 0.71823z" fill="#a67cd6"/>
    <path id="path8-21" d="m648.23 529.22c-2.0545-0.4535-5.7763-1.8034-8.271-2.9997-6.3924-3.0654-12.772-9.4361-15.926-15.904-3.2381-6.64-3.9894-10.212-3.7012-17.596 0.38807-9.9411 3.3667-16.802 10.306-23.742 6.943-6.943 13.8-9.9183 23.754-10.307 7.2386-0.28276 12.107 0.78369 18.36 4.0209 5.7531 2.9786 12.321 9.7545 15.127 15.607 9.5053 19.821 0.0477 42.655-20.617 49.778-5.7042 1.9661-13.251 2.4194-19.033 1.1431zm-172.36-18.428c-19.662-2.8333-37.466-15.853-46.154-33.751-8.5509-17.615-8.5509-36.433 0-54.048 18.611-38.338 70.546-46.063 99.713-14.83 23.14 24.778 21.843 63.501-2.9005 86.608-13.562 12.665-32.463 18.643-50.657 16.021z" fill-opacity=".99763" opacity=".72313"/>
   </g>
  </g>
 </g>
</svg>
