<?xml version="1.0" encoding="UTF-8"?>
<svg id="svg5" width="1200mm" height="1200mm" version="1.1" viewBox="0 0 1200 1200" xmlns="http://www.w3.org/2000/svg" xmlns:xlink="http://www.w3.org/1999/xlink">
 <defs id="defs77">
  <filter id="filter87132" x="-.011118" y="-.0075469" width="1.0222" height="1.0149" color-interpolation-filters="sRGB">
   <feGaussianBlur id="feGaussianBlur87134" stdDeviation="0.039697277"/>
  </filter>
  <filter id="filter87136" x="-.0099255" y="-.011789" width="1.0199" height="1.0238" color-interpolation-filters="sRGB">
   <feGaussianBlur id="feGaussianBlur87138" stdDeviation="0.039697277"/>
  </filter>
  <filter id="filter97896" x="-.0019251" y="-.0049602" width="1.0039" height="1.0099" color-interpolation-filters="sRGB">
   <feGaussianBlur id="feGaussianBlur97898" stdDeviation="0.08018898"/>
  </filter>
  <filter id="filter98888" x="-.0031951" y="-.010797" width="1.0064" height="1.0216" color-interpolation-filters="sRGB">
   <feGaussianBlur id="feGaussianBlur98890" stdDeviation="0.049463418"/>
  </filter>
  <filter id="filter99323" x="-.00036408" y="-.0013433" width="1.0007" height="1.0027" color-interpolation-filters="sRGB">
   <feGaussianBlur id="feGaussianBlur99325" stdDeviation="0.0036257268"/>
  </filter>
 </defs>
 <g id="layer60" transform="translate(19.4 11.241)">
  <g id="layer214">
   <g id="layer68">
    <path id="path66501" d="m475.94 118.33c-1.4356 0.22015-2.829 0.49255-4.1754 0.81559-43.089 10.338-95.332 170.71-95.332 170.71-16.777-0.0486-20.107-27.99-51.656-31.871-23.672 5.2467 12.764 41.446 16.651 42.82 112.81 35.12 199.59 60.292 310.29 69.301 33.573 2.7322 92.594 10.388 102.07 21.137 20.522 3.918 39.196 4.1906 54.84 1.7283 14.057-2.2125 28.604-21.586 24.422-34.755-12.97-35.087-69.998-15.579-74.155-15.444 9.0978-56.569 7.8269-151.84-13.575-164.45-26.051-15.34-92.784-24.862-139.6-25.714 0 0-85.274-41.108-129.78-34.278z" fill="#8f8775" stroke="#000" stroke-width="1.3247px"/>
    <path id="path60232" d="m398.28 229.19c-9.9325 17.227-16.916 36.588-22.51 58.276 113.92 13.145 245.08 42.186 379.78 84.662 1.3671-14.768 6.4298-30.318 7.0718-52.364-123.37-43.744-245.16-69.985-364.34-90.574z" stroke="#000" stroke-width="1.3247px"/>
    <path id="path60232-2" d="m376.63 283.96c113.84 12.408 244.15 44.686 378.65 85.557m6.8102-47.838c-123.18-42.143-245.06-71.284-364.14-90.916" fill="none" stroke="#a4a4a4" stroke-dasharray="5.22514, 1.30629" stroke-width="1.3063"/>
    <path id="path66501-7" d="m324.77 257.98c-5.9616-0.8207-7.1939-0.12384-8.6969 4.1495-1.123 3.1931-0.0969 30.806 25.174 39.162 100.32 33.171 199.8 59.693 310.46 68.809 33.57 2.7654 92.616 11.883 102.07 21.137 20.522 3.918 39.196 4.1906 54.84 1.7283 14.057-2.2125 28.604-21.586 24.422-34.755-12.97-35.087-69.998-15.579-74.155-15.444-102.96-0.13417-262.93 4.3192-362.39-27.981-46.081-14.964-54.458-48.874-71.728-56.806z" fill="#8f8775" stroke="#000" stroke-width="1.3247px"/>
    <path id="path66501-7-5" transform="matrix(4.9837 -.61052 .62684 4.9528 2.3384 75.97)" d="m59.158 44.042c-1.1574-0.30837-1.4183-0.19984-1.8222 0.61318-0.30175 0.60751-0.78954 6.1227 3.9947 8.3995 18.993 9.0387 37.984 16.744 59.623 21.242 6.5664 1.3651 14.731 3.4782 19.64 6.6887 3.6456 1.4163 7.6398 1.7879 10.793 1.6793 2.8329-0.09751 6.1916-3.5951 5.6947-6.3153-1.6853-7.292-13.111-3.711-13.935-3.7853-20.341-2.5345-52.39-6.6366-71.236-15.481-8.731-4.0976-9.5382-11.044-12.752-13.041z" filter="url(#filter97896)" opacity=".17628"/>
    <path id="path86383" transform="matrix(4.9837 -.61052 .62684 4.9528 2.3384 75.97)" d="m92.016 20.824s10.627 2.9345 10.696 7.239c0.0996 6.2826-9.1626 9.5705-15.268 11.055-2.4753 0.60186-7.1681 1.3782-7.5567-1.1393-1.1019-7.1391 18.205-2.4273 19.457-9.5415 0.61075-3.469-7.328-7.6131-7.328-7.6131" filter="url(#filter87136)" opacity=".11538" stroke="#000" stroke-width=".26458px" style="mix-blend-mode:normal"/>
    <path id="path86385" transform="matrix(4.9837 -.61052 .62684 4.9528 2.3384 75.97)" d="m142.91 42.489c-0.0225-5.1877-14.017-9.3638-18.381-6.8755-5.716 3.2585 1.7839 13.316 4.8643 19.13 2.0683 3.9036 5.0939 12.33 8.7932 9.9157 5.7482-3.7521-11.547-12.506-8.6061-18.709 1.967-4.1479 13.35 1.1295 13.33-3.4611z" filter="url(#filter87132)" opacity=".11538" stroke="#000" stroke-width=".26458px" style="mix-blend-mode:normal"/>
    <path id="path92442" d="m376.43 289.86-15.819 4.054" fill="none" stroke="#000" stroke-width="1.3247px"/>
    <path id="path93181" d="m376.43 289.86c-12.387 1.8499-26.27-32.062-51.656-31.871 14.828 10.534 20.816 23.914 35.836 35.925-0.57374 0.58995 0.97598-0.3093 15.819-4.054" opacity=".54167"/>
    <path id="path94531" transform="matrix(4.9837 -.61052 .62684 4.9528 2.3384 75.97)" d="m107.92 71.097c-0.13528 0.35558 25.932 4.6893 34.313 7.8714 0.31622 0.12007 7.1795 5.3442-1.6429 2.0172-5.9939-3.7688-12.231-4.5889-16.442-5.8723-6.5669-1.551-10.237-2.47-16.228-4.0162z" filter="url(#filter98888)" opacity=".29167" style="mix-blend-mode:normal"/>
    <path id="path99115" transform="matrix(4.9837 -.61052 .62684 4.9528 2.3384 75.97)" d="m65.341 52.057 3.7885-0.70158c6.8278 2.0036 14.483 3.4498 20.112 5.753-5.8613-0.96796-15.706-3.3926-15.224 0.72497-3.3546-0.84961-6.4877-3.2201-8.6762-5.7764" filter="url(#filter99323)" opacity=".125" style="mix-blend-mode:normal"/>
   </g>
  </g>
 </g>
</svg>
