<?xml version="1.0" encoding="UTF-8"?>
<svg id="svg5" width="1200mm" height="1200mm" version="1.1" viewBox="0 0 1200 1200" xmlns="http://www.w3.org/2000/svg" xmlns:xlink="http://www.w3.org/1999/xlink">
 <g id="layer60" transform="translate(19.4 11.241)">
  <g id="layer214">
   <g id="layer83">
    <path id="path16981" d="m359.74 483.32c-1.1204 0.26161-1.917 1.009-2.4779 1.7896-1.122 1.5612-1.6925 3.5706-2.1783 6.0491-0.9716 4.9569-1.293 11.726-1.1256 18.333 0.16738 6.6073 0.80698 12.965 1.9678 17.216 0.5804 2.1254 0.99576 3.8132 2.7452 4.9802 0.8747 0.58348 2.379 0.65425 3.3282 0.12148 0.94921-0.53277 1.5083-1.3032 2.0568-2.2431 2.7865-4.7744 2.9939-12.608 2.8261-20.123-0.16779-7.515-0.86692-13.821-1.2333-16.128-0.041-0.85757-0.60682-0.53314-2.047-0.47356-1.557 0.14801-2.2908-0.33293-2.111 0.79571 0.30665 1.931 1.0828 8.6236 1.2452 15.895 0.159 7.1206-0.60786 14.563-2.2107 17.572-0.23603-0.44077-0.32169-0.47369-0.59924-1.49-0.97708-3.5781-1.66-9.8338-1.822-16.228-0.16194-6.3942 0.18011-13.016 1.0446-17.427 0.23724-1.2708 0.51611-2.7707 1.0171-3.937 0.25071-0.58518 0.51258-0.53008 0.9999-0.38061 0.80655 0.24959 1.7104-0.0124 2.2505-0.71101 0.66067-0.93673 0.43575-2.2318-0.50207-2.8909-0.868-0.61213-2.0539-0.98225-3.1743-0.72072z" color="#000000" fill="#dcdcdc" stroke="#000" stroke-linecap="round" stroke-width=".82922"/>
    <path id="path24130" d="m358.94 488.21c-0.87971 2.4505-1.9278 10.524-1.8362 18.373 0.0469 4.0179 0.23637 8.0588 0.66952 12.116 0.31328 2.9348 0.80253 6.1208 1.4575 8.9252-0.13272 0.26535-3.4699-9.3202-3.0543-23.61 0.0745-2.5622 0.54361-6.2859 1.0096-9.194 0.41927-2.6166 1.7538-6.6106 1.7538-6.6106z" fill="#fff"/>
    <path id="path25955" d="m361.51 492.97 3.8784-0.72723 1.212 8.4356-0.0485 15.853c-1.5124-8.611-3.2772-16.086-5.042-23.561z" fill-opacity=".31325"/>
    <path id="path16981-1" d="m736.6 507.66c0.86512 0.20191 1.4801 0.77905 1.9133 1.3818 0.86628 1.2055 1.3068 2.757 1.6819 4.6707 0.75019 3.8274 0.99834 9.0541 0.8691 14.156-0.12935 5.1017-0.62311 10.011-1.5194 13.293-0.44811 1.6411-0.76889 2.9442-2.1196 3.8453-0.67536 0.45051-1.8369 0.5052-2.5698 0.0941-0.73294-0.41129-1.1646-1.0062-1.5882-1.732-2.1516-3.6864-2.3118-9.7352-2.1822-15.538 0.12977-5.8026 0.53812-9.7476 0.821-11.529 0.0692-0.62303 0.53054-0.42845 1.5522-0.69919 1.1674-0.3093 1.9284-0.84763 1.7896 0.0249-0.23716 1.491-0.83606 6.6586-0.96148 12.273-0.12231 5.498 0.46938 11.245 1.707 13.568 0.18242-0.34039 0.24835-0.36568 0.4627-1.1504 0.75446-2.7628 1.2818-7.593 1.4068-12.53 0.12521-4.9372-0.1389-10.05-0.80654-13.456-0.18284-0.98125-0.39844-2.1394-0.78535-3.0399-0.19362-0.45184-0.39595-0.40921-0.77204-0.29395-0.62279 0.19279-1.3207-0.0124-1.7377-0.54899-0.51013-0.72328-0.33625-1.7233 0.38766-2.2322 0.67021-0.47261 1.5859-0.7584 2.451-0.55648z" color="#000000" fill="#dcdcdc" stroke="#000" stroke-linecap="round" stroke-width=".64027"/>
    <path id="path24130-0" d="m737.22 511.44c0.67925 1.8921 1.4885 8.1257 1.4178 14.186-0.0373 3.1024-0.18243 6.2225-0.51698 9.3556-0.24213 2.2661-0.61963 4.7261-1.1254 6.8915 0.10241 0.20481 2.6792-7.1964 2.3583-18.23-0.0576-1.9784-0.41975-4.8535-0.77951-7.099-0.32381-2.0204-1.3542-5.1043-1.3542-5.1043z" fill="#fff"/>
    <path id="path25955-3" d="m735.24 515.11-2.9947-0.56154-0.93581 6.5134 0.0373 12.241c1.1678-6.6488 2.5305-12.421 3.8931-18.193z" fill-opacity=".31325"/>
   </g>
  </g>
 </g>
</svg>
